<?xml version="1.0" encoding="UTF-8"?>
<svg id="Calque_1" xmlns="http://www.w3.org/2000/svg" version="1.1" xmlns:xlink="http://www.w3.org/1999/xlink" viewBox="0 0 1200 600">
  <!-- Generator: Adobe Illustrator 29.4.0, SVG Export Plug-In . SVG Version: 2.1.0 Build 152)  -->
  <defs>
    <style>
      .st0 {
        stroke-width: 100px;
      }

      .st0, .st1 {
        stroke: #fff;
      }

      .st2 {
        fill: #fff;
      }

      .st3 {
        fill: none;
      }

      .st4 {
        stroke-width: 40px;
      }

      .st4, .st5 {
        stroke: #000;
      }

      .st1, .st5 {
        stroke-width: 60px;
      }

      .st6 {
        clip-path: url(#clippath);
      }
    </style>
    <clipPath id="clippath">
      <path class="st3" d="M0,0v150h700v150h-100L0,0ZM600,0h-300v350H0v-50L600,0Z"/>
    </clipPath>
  </defs>
  <path d="M0,0h1200v600H0V0Z"/>
  <path class="st1" d="M0,0l600,300M600,0L0,300"/>
  <g class="st6">
    <path class="st4" d="M0,0l600,300M600,0L0,300"/>
  </g>
  <path class="st0" d="M300,0v350M0,150h700"/>
  <path class="st5" d="M300,0v350M0,150h700"/>
  <path d="M0,300h600V0h200v400H0v-100Z"/>
  <path class="st2" d="M780.6,154c0,148.8,11.9,201.7,52.6,242.5,40.7,40.8,56.2,47.2,67.5,53.5,13.1-7.2,28.2-15.1,65.1-52.1,36.5-36.5,54.2-89.1,54.2-246.5-26.6,11.4-39.8,15.1-63,15.1-17.2,1.7-43.7-9.3-59.6-16.5-10.4,6.6-25.4,14.5-52.5,15.4-31.2,1.3-41.1-3.7-64.3-11.3h0Z"/>
  <path class="st2" d="M787.8,163.4c0,46-2.7,108.8,7,145.1,9.8,36.5,12,41.8,19.4,54.5l171.2-1.3c10.6-18.3,11.1-29.7,19-58.9,7.8-29.2,9.8-94.2,10-142.6-17.2,8.7-39.8,14.9-61.6,12.2-17.5-1.3-33.8-5.1-52.6-15.3-16.4,9.4-22.1,13.6-49.1,14.7-21,1-38.1,2.6-63.2-8.5h0Z"/>
  <path d="M814.5,362.1c12.2,24.4,69.6,71.3,86.4,81,19.2-11.1,69.8-57.4,84-81h-170.4Z"/>
  <path d="M904.2,231.6c5.4,12.1,22.8,25.5,27.5,32.1-6.1,6.6-7.3,5.9-6.5,18.1,10.6-10.5,10.8-11.6,17.5-10,14.9,14.2,2.7,44.6-9.6,51.2-12.3,7.1-10.1-.2-28.5,8.6,8.4,6.9,18.2-1,26.2,1.1,4.3,4.9-2.1,13.9,1.3,22.3,7.1-.6,6.2-14.3,7.9-19.2,5.2-18.1,36.2-30.7,37.8-47.3,6.5-2.9,13.1-.9,21,3.3-4-15.5-17.1-15.4-20.6-20.2-8.4-12.2-15.8-26.1-33.7-29.7-13.6-2.7-12.6.8-21.2-4.8-5.4-4-21.9-11.6-19.2-5.5h0Z"/>
  <path d="M860.8,283.1c8.7-10.2,13.1-31.1,16.9-38.2,8.9,2.1,8.8,3.4,19.8-3-14.7-4-15.8-3.6-17.5-10.1,6.2-19.2,40.1-23.1,52-15.8,12.3,7.1,4.5,8.6,21.3,20,2.4-10.3-9.5-14.9-11.2-22.6,2.5-6,13.8-4.7,20.1-11.5-3.9-5.7-16.1,1.4-21.5,2.3-19.2,4.1-45.4-16.2-61.5-9.8-5.8-4.1-7-10.6-6.7-19.3-12.6,10.6-6.3,21.6-9.1,26.8-7.4,12.7-16.8,25.5-11.8,42.2,3.8,12.7,6.6,10.2,5.4,20.2-1.2,6.4-.6,23.9,3.9,18.8h0Z"/>
  <path d="M931.8,290.3c-13.7-1.8-34.7,5.5-43.1,6-2.8-8.3-1.5-9-12.9-14.6,4,14.1,4.9,14.8,0,19.5-20.4,4.9-41.4-20.8-41-34.2,0-13.7,5.4-8.1,6.9-27.7-10.5,3.4-8.5,15.4-14.5,20.9-6.7,1-11.4-8.8-20.7-10.4-3.1,6.1,9.6,12.4,13.2,16.3,13.6,13.5,8.9,45.4,23,55.2-.7,6.9-5.9,11.2-13.8,15.5,16,4.8,22.6-6,28.8-6.4,15.3-.6,31.6.5,44-12.2,9.5-9.7,5.7-10.7,15.3-14.9,6.4-2.4,21.7-11.9,14.8-12.9h0Z"/>
  <ellipse class="st2" cx="940.4" cy="245.4" rx="2.8" ry="2.7"/>
  <path class="st2" d="M854.2,247.4c-.7-1.3-.2-2.9,1.2-3.6s3.1-.2,3.8,1.1.2,2.9-1.2,3.6-3.1.2-3.8-1.1Z"/>
  <path class="st2" d="M903.1,314.2c-.8,1.3-2.5,1.7-3.9.9s-1.8-2.4-1-3.7,2.5-1.7,3.9-.9,1.8,2.4,1,3.7Z"/>
</svg>