<?xml version="1.0" encoding="UTF-8"?>
<svg id="Calque_1" xmlns="http://www.w3.org/2000/svg" version="1.1" viewBox="0 0 1000 700">
  <!-- Generator: Adobe Illustrator 29.4.0, SVG Export Plug-In . SVG Version: 2.1.0 Build 152)  -->
  <defs>
    <style>
      .st0 {
        stroke-width: 1.4px;
      }

      .st0, .st1, .st2, .st3, .st4, .st5, .st6, .st7, .st8, .st9, .st10, .st11, .st12, .st13, .st14, .st15, .st16, .st17 {
        stroke: #000;
      }

      .st0, .st2, .st18, .st4, .st5, .st6, .st7, .st8, .st9, .st10, .st11, .st12, .st13, .st14, .st15, .st16, .st17, .st19 {
        fill: none;
      }

      .st1 {
        stroke-width: .3px;
      }

      .st3, .st20 {
        stroke-width: .5px;
      }

      .st18, .st6, .st10, .st11 {
        stroke-linecap: round;
      }

      .st18, .st8, .st10, .st17, .st19 {
        stroke-width: 1px;
      }

      .st18, .st20, .st19 {
        stroke: #fff;
      }

      .st21, .st20 {
        fill: #fff;
      }

      .st4 {
        stroke-width: 1.2px;
      }

      .st5, .st11 {
        stroke-width: 1.1px;
      }

      .st6, .st12, .st16 {
        stroke-width: 1px;
      }

      .st7 {
        stroke-width: .9px;
      }

      .st9 {
        stroke-width: 1.1px;
      }

      .st13 {
        stroke-width: .9px;
      }

      .st14 {
        stroke-width: .8px;
      }

      .st15 {
        stroke-width: 1.3px;
      }

      .st16 {
        stroke-linejoin: round;
      }

      .st17 {
        stroke-linecap: square;
      }
    </style>
  </defs>
  <path d="M0,0h1000v700H0V0Z"/>
  <path class="st21" d="M0,0h680v700H0V0Z"/>
  <path d="M0,0h320v700H0V0Z"/>
  <path class="st21" d="M469.4,188.5c12,0,17,10.3,29,10.3s11.8-2.4,18.3-6.1c4.5-2.6,7.4-3.9,12.6-3.9s8.6,1.6,11.3,6.2c1.5,2.6,2.8,7.6,2.1,10.5-.9,4.5-2.4,8.8-4.3,12.9-1,2.4-2,3.9-2,6.6,0,6.4,8.7,8.6,14.6,8.7,1.3,0,12.1.2,18.8-6.6-3.6-.2-7.7-3-7.7-6.6s2.9-6.9,6.8-8.1c.7-.2,2,.4,2.7,0,1-.5.5-1.6,1.3-2.2,2-1.6,3.2-2.5,5.7-2.5s2.6.2,3.9,1.2c.7.5.9,1.1,1.8,1.1,1.8,0,2.7-1.1,4.5-1.1s2.3.2,3.6.9c1.1.6,1,2.4,2.2,2.4s3.8-1.3,5.4-1.3c3.5,0,5.3,1.2,7.5,3.9.6.7,1,2.1,1.6,2.1,3.1.2,5.9,2,7.5,4.6.4.6,1,2.2,1.8,2.5.8.3,1.5.3,2.7,1,2.5,1.6,4.5,4.7,4.4,7.6,0,1-.5,2.4-.8,3.3-2.9,10.3-9.9,13.6-17,22.4-3,3.8-5.4,6.8-5.4,11.6s1.4,3.3,2.1,4.3c-.4-2.3.7-5,3-5.2,3.3-.2,5.8,2.3,6.2,5.6,0,.8-.2,2.1-.5,2.9,1.9-1.2,4-1.9,6.2-2.2,1.2-.1,1.8-.2,3-.1,5.2.1,11,3.1,14.5,6.1,10.8,9.1,12,22.5,11.5,26.2-1.3,8.2-.5,23.2-21.6,29.1,3.9,1.6,6.5,4.6,6.5,8.2s-3,7.3-6.9,7.3-3.8-.5-5.4-2.1c-4.4,4.4-5.2,8.9-5.2,15.1s.7,5.9,2.3,9.3c1.7,3.5,2.8,5.6,5.8,8.2,1.6-2.4,3.2-4.1,6.1-4.1s5.1.9,6.2,3.4c.3.8,0,1.4.4,2.1.5,1,1.3,1.2,1.8,2.1.8,1.5,0,2.7.7,4.2.5,1,1.4,1.1,1.8,2.1.7,1.5.8,2.6.8,4.2,0,4.7-4.3,8.1-9,8.1s-2.2-.6-3.6-.4c2.7,2.7,4.7,3.9,6.8,7.1,3,4.6,3.7,8,4.4,13.4.1,1,.1,1.6.1,2.7,0,7-1.1,11.2-4.2,17.5-3,6-5.6,9.4-11,13.3-8.5,6.1-14.7,7.9-25,9.9-5.6,1.2-11.4,1.9-17.1,2.3-8.6.5-13.5.6-22,1.1-11.2.8-19,2.4-27,10.3,3.8,2.8,6.4,5.5,6.4,10.1s-3,8.2-7.5,9.7c-1,.4-1.8,0-2.8.6-1.2.6-1.1,2-2.3,2.7-2,1.3-3.5,1.5-5.9,1.5-4.2,0-7.1-1-10-4-3.4,2.9-4.6,5.4-8.5,7.6-1.3.7-1.9,1.7-3.4,1.7-2.3,0-3.4-1.5-5.2-2.8-2.6-1.8-4.9-3.9-6.9-6.4-3.5,2.1-5.7,3.8-9.8,3.8s-4.1-.4-6.2-1.7c-1.1-.7-1.3-1.7-2.4-2.4-1.2-.7-2.1-.5-3.4-1-4.7-2-7.8-5.5-7.8-10.7s2.8-7.4,6.9-9.3c-7.8-7.8-15.5-9.2-26.6-9.9-8.5-.5-13.4-.6-21.9-1.1-6.8-.5-10.5-1.1-17.2-2.3-5.1-.8-8.1-1.1-12.7-3.3-16-7.5-26.2-17.7-28.3-35.2-.2-1.5-.1-2.4-.1-3.9,0-9.1,3.6-14.7,10-21.1-1.7-.4-2.8.2-4.4-.4-4-1.5-6.9-4.3-6.9-8.5s0-2.6.9-4c.5-1,1.6-1.2,1.8-2.3.3-1.5-.1-2.5.6-3.8.4-.9,1.3-1.1,1.7-2,1.4-2.9,3.1-5.2,6.4-5.2s4.5,1.5,5.9,3.8c2.7-1.2,3.4-3.2,5-5.8,2.5-4.2,3.7-7.2,3.7-12.1s-.3-5.4-1.4-8.7c-.8-2.3-1.1-3.9-2.8-5.6-1.4,1.5-3.4,2.2-5.4,2.1-4.5,0-7.9-3.9-7.9-8.3-.1-3.1,1.8-6,4.7-7.2-2.4-2.1-4.5-2.3-7.2-4-4.1-2.6-5.5-5.3-8.2-9.3-1.8-2.6-2.2-4.5-3.1-7.5-1.1-3.6-1.7-5.8-1.7-9.6s0-1.6.1-2.5c1-7.7,2.4-12.5,7.2-18.5,2.9-3.6,4.8-5.8,9-7.6,3.6-1.6,5.8-2.7,9.7-2.7s1.9,0,3,.1c1.8.2,3,.4,4.5,1.3.6.3,1.7,1.4,1.7.6s-.4-1.2-.4-2c0-3.2,2.3-6.2,5.6-6.2s3.3,2.1,4.5,4.1c.7-1,1.1-2.3,1.1-3.5,0-5.4-2.9-8.1-6.2-12.3-7.3-9.1-16.4-13.4-16.4-25s1.7-5.9,4.7-7.6c.9-.5,2,0,2.9-.5.7-.5.6-1.4,1.1-2.1.7-1.1,1.4-1.6,2.4-2.5,1.7-1.4,3.1-1,5-2.3.9-.6,1.1-1.5,1.9-2.3,2-2.5,3.9-3.7,7.1-3.7s2.5,0,4,.6c.5.2,1.5,1,1.6.8.6-.7,1.4-1.4,2.2-1.8,1.4-.6,1.9-.9,3.4-.9s2.9,1,4.6,1,.8-.6,1.3-1c1.5-1,2.4-1.6,4.3-1.6s2.8.6,4.3,1.6c1.4.9,1.6,2.1,3.1,3,.8.5,1.5.3,2.4.6,4,1.3,7.1,4,7.1,8.3s-.5,3.9-2.3,5.4c-1.4,1.2-2.6,1-4.4,1.6,5.6,4.5,10.5,5.6,17.7,5.6s14.6-2.7,14.6-9.3-1.7-4.7-2.9-7.5c-2.2-5-3.3-7.9-3.3-13.4s.5-6.9,3-10.4c2.6-3.6,5.7-4.4,10.2-4.4h0Z"/>
  <g>
    <path class="st16" d="M425.6,223.5c.5,1.8,2,3.3,3.8,3.8,2.2.5,4.6-.3,6-2.2,1.5-1.9,1.4-4.4.8-6.3-.4-1.2-1.4-2.4-2.7-3.5l-7.9,8.1h0q0,0,0,0Z"/>
    <path class="st6" d="M626.6,343.9c-1.9-4.5-6.7-2.5-7,0-.7,5.7,4.3,7.5,7.9,6.5,1.7-.4,3.1-1.5,3.9-3,1-1.8,1.2-3.9.6-5.8-.3-.9-.7-1.8-1.3-2.6-.5-.7-1.2-1.4-2-1.9-1.4-.9-2.9-1-5.2-1-8.7,0-16.3,10.3-18.9,21-.8,3.5-2,11.4-.4,18.8,1.7,7.9,5.2,13.4,9.2,17.6,2.2,2.2,5.1,4.3,9,6.4,1.2.7,4.3,2.1,6.5,2.7,2.2.6,4.3.5,6.2.1,5.2-1.1,7.6-5.9,5-10.8-2.1-4-8.4-6.2-11.3-1.1-.4.7-.6,1.6-.6,2.4,0,1.4.6,3,1.6,3.6,2.2,1.4,5.8,1,5.7-2.9"/>
    <path class="st15" d="M599.7,403.1c1.8-2.1,5.8-5.1,10.3-5.7,4.7-.6,8.7.8,12.8,3,8.1,4.3,12.5,9,15.5,17.6.8,2.2,1.4,5.5,1.3,9-.1,5.6-1.6,11.7-3.1,14.7-1.3,2.6-4.8,14-23.9,21.9-11.2,4.6-28.3,5.7-40.1,6.1-16.3.6-31.3,1.2-40,12"/>
    <g>
      <path class="st5" d="M603.8,421.5c-.5-1.7,0-3.4,1.3-5.2,1.8-2.5,5.7-3.4,9.2-1.4,1.2.6,2.6,1.5,4,3.3.5.7,1.3,1.7,1.8,2.5,1.1,1.8,1.5,3.3,1.7,3.9,3.8,10.9-2.3,22.8-10.2,27.5-6.2,3.7-13.6,5.3-22.5,6.4-4,.5-6.3.4-10.3.6-3.2.1-6,.1-8.6,0-2.2,0-4.2,0-6.3,0-3.8-.1-7.5,0-11.3.2-4.5.3-8,.4-11.8,1.1-2.5.4-5.5.8-8.5,1.5-.9.2-1.9.4-2.8.7l-1.9.6c-5.6,1.7-11,3.8-15.2,6.5-1.3.9-2.8,1.7-3.9,2.7-.7.6-1.5,1.3-2.1,1.9-3,3-6,6.1-6.8,10.4-.1.8-.1,1.6-.1,2.5,0,2.8,2.3,6.6,8.4,7.9M516.4,229.1c1.3,2.3,2,3.7,1.2,6.1-.8,2.7-2.8,4.4-5.5,4.4-6.2,0-9.9-7.4-7.1-12.1,5-8.3,14.5-3.6,23.4.5-.4-2.1-1.2-2.8-1.1-5.5.2-6.6,5.1-9.5,7-15.6,1.2-3.6,1.6-6.8-1-9.3-2.3-2.2-5-2.2-8-1-6,2.4-13.2,9.1-26,9.3-12.7-.2-20-7-26-9.3-3-1.2-5.7-1.2-8,1-2.6,2.6-2.2,5.7-1,9.3,2,6.1,6.8,9,7,15.6,0,2.6-.7,3.3-1.1,5.5,8.9-4.1,18.8-9.2,23.4-.5,2.6,4.9-.9,12.1-7.1,12.1s-4.7-1.8-5.5-4.4c-.8-2.3,0-4.4,1.2-6.1"/>
      <path class="st11" d="M491.5,224.8c2.4,1.8,4.1,4.1,3.8,7.8-.3,4-1.3,4.9-4.4,7.1M494.7,233.7c-.1,2.4-1.1,4-3.5,4.9"/>
    </g>
    <path class="st21" d="M432.4,214.5l1.1.8,1.2,1.2.8,1.6.4,1.3v1.7c0,0,0,1.2,0,1.2l-.4,1.3-.8.9-.9,1-1.3.7-1.7.4-1.5.2-1.5-.7-1.4-1-.9-1.2-.6-1.6v-.6l7.6-7.2h0Z"/>
    <path class="st6" d="M430,220.6c-.5-2.6-3.5-3.1-4.7-1.6-1.8,2.4-.5,6.3,3.2,7.4,2.2.5,4.6-.3,6-2.2,1.5-2,1.4-4.4.8-6.3-.4-1.2-1.4-2.3-2.7-3.3-4.2-3.2-11.1-2.5-13.4,2.9-2.9,7,3.4,12.3,9.2,16.2,7.3,5,15.7,5.9,22,5.8,14.3-.1,25.2-7,32.3-10.9,1.6-.9,3.3-.7,4.2.3,1,1.3.9,3.2-.4,4.3"/>
    <path class="st9" d="M387.6,414.4l-3.2,1.2-3.3,2.5-1.4,2-1.8,3.1-.8,2.3-.6,2.9-.3,2.2M406,414.7l-.2,2.8-.5,1.9-1.4,3.4-2.2,2.9-2.3,1.9-1.7.9-2.4.5"/>
    <path class="st4" d="M499.6,489.2c-.6,2.6-3,5.5-8.3,6.6l-1,.2"/>
    <path class="st0" d="M631.6,406.6c3.3,3.1,5.7,6.9,7.5,12.1.8,2.2,1.4,5.5,1.3,9-.1,5.6-1.6,11.7-3.1,14.7-1.3,2.6-4.8,14-24,21.9-11.2,4.6-28.3,5.6-40.1,6.1-16,.6-30.8,1.2-39.6,11.5"/>
    <path class="st13" d="M605.5,417c1.2-1.6,5.5-3.7,9-1.7,1.5.7,2.8,1.9,3.7,3.2"/>
    <path class="st0" d="M627.5,402.8c.8.3,1.6.6,2.2.8,2.2.6,4.3.7,6.2.1,4.4-1.3,7.3-5.5,5-10.8-.6-1.3-1.5-2.5-2.7-3.3"/>
    <path class="st6" d="M375.4,287.1c-3,1.8-5.2,2.3-7.5,5-2.3,4.5-3.2,7-4.1,10.6M435.9,222c0,2.7-2,4.4-4.7,4.9"/>
    <path class="st2" d="M620.5,275c7.4-.1,28.9,5.6,29,30.9.2,24.9-15.4,29-21.6,30.6"/>
    <path class="st12" d="M622.4,275c12.7-.5,25.9,8.8,26.5,32.2.5,18.3-12.5,26.6-18.7,28.2"/>
    <path class="st7" d="M615.3,363.2l.2-2.5.8-4,1.2-3.1,1.3-2.5,1.7-2.1M632.7,343.7l-.2,2.5-.7,1.7-1.1,1.6-1.2.9-1.9.7h-1.7c0,.1-1.2,0-1.2,0M602.3,268.4l.5-2.6,1.2-2.5,1.5-2.5,2.6-3.3,2.1-2.3,3.3-3.4,2.9-2.9,1.8-2.1,2.4-2.9,2.2-3.2,1.3-2.6.7-3.4.2-4.2-.4-1.2M605.4,429.4l2.5-.5,1.9-1,1-1,.7-1.2.5-1.9v-1.4M364.9,403.4l1.9.2,2.4-.2,2.4-.9M379.4,345.4l-.3,2.2-.5,1-.8.9-1,.8-1.1.5-1.5.2h-1M388.7,326.6l-.5,3.4-.7,1.5-1.4,1.9-1.8,1.4-1.9.9-3.6.9M402.8,274.5l-.7,2-.9,1.5-1.2,1.6-1.6,1.5-2,.9-1.6.4h-1M394.4,272.6v1.5"/>
    <g>
      <path class="st10" d="M397.3,325.1c-1,.9-2.1,1.6-3.3,2M629.2,397.2c.1.1.6.2.7.3,2.2,1.3,6.6-.3,5.3-3.8"/>
      <path class="st8" d="M621.5,349.4c1.6,2,4.5,2.6,6.9,2,1.7-.4,3.1-1.5,3.9-3,1-1.8,1.2-3.9.6-5.8-.3-.9-.7-1.8-1.3-2.6-.6-.8-1.3-1.6-2.1-2.2-.2-.1-.3-.3-.5-.4M639,390.5c.4-2.1-.3-4.3-1.9-5.7-.4-.4-.8-1-1.4-1.2M636.5,384.2c0-2.9-2.5-5-5.4-5.5M624.5,383.2c-.7-.5-1.4-1-2-1.7-3.8-4-6.7-9.9-6.7-16.7,0-6.5,2.6-13.1,5.6-15.6M533.1,481.4l2.8-2.6,1.9-1.5,3.7-2.3,3.4-1.6,2.4-.6,4.8-1.1,5.6-.9M511.6,501.2c-2,3.1-6.8,7.8-11.9,9.6-5-1.9-9.9-6.5-11.9-9.6"/>
      <path class="st10" d="M491.3,494.7c-.6,2.4-1.8,4.6-3.5,6.5"/>
      <path class="st8" d="M491.8,491.5l-.7,3.4M487.4,501.4l-1.5,1.5-2.6,1.5-3,.9M471.5,227.4c.4-1.2.8-2.1.7-4-.2-6.6-5.1-9.6-7-15.6-1.2-3.6-1.6-6.8,1-9.3,2.3-2.2,5-2.2,8-1,6,2.4,13.3,9.1,26,9.3-12.7-.2-20-7-26-9.3-3-1.2-5.9-1.5-8.2.7-2.6,2.6-1.9,6-.8,9.6,1.9,6.1,6.6,9,6.8,15.6,0,1.9-.5,2.8-.8,4M500.2,206.4c12.5-.7,23.2-9.1,26.7-9.8,3.1-.6,4.8-.3,7.1,1.7-2.3-2.1-4.8-2-7.8-.8-6,2.4-13.2,9.1-26,9.3M624.6,383.2c-6.1-4.6-9.7-11.7-9.7-19.3,0-6.5,2.6-13.1,5.6-15.6M511.2,500.8c-2,3.1-6.8,7.8-11.9,9.6-5-1.9-9.9-6.5-11.9-9.6"/>
      <path class="st10" d="M479.2,230.7l3.6-2c1.6-.9,3.6-.7,4.5.3,1,1.2,1.1,3.2-.2,4.4"/>
      <path class="st8" d="M460.5,239.5c8.6-1.8,15.6-5.6,20.9-8.6M531.8,487.4c.7.5,1.2,1.5,1.2,1.5.2.5.5.9.5,1.3.4,2.4-1.2,3.9-3.1,4.1-2.3.3-4.6-1-5.5-3.2M460,239.1c8.6-1.8,15.6-5.6,20.9-8.6M633.4,397.5c-1.6.6-2.5.5-4.6-.4-.8-.4-1.8-.9-2.9-1.6-4-2.3-8.7-5.8-13.1-14.1-2-3.8-3.2-7.9-3.5-12.2-.1-3,.2-6.1,1-9.7,1.2-5.9,2.7-9.1,6.4-14.1,1.8-2.5,3.3-4,6.7-4M398.8,279.9c2.7,2.2,4.2,5.5,4.1,8.9,0,4.8-4,12.8-14,15.5-3.8,1.1-7.6.2-9.9-1.2"/>
      <path class="st8" d="M400.5,296.3c1.8,1.2,2.5,2.6,2.5,5.1s-1.1,3.8-2.9,5.9c-3,3.3-8.1,6.2-13.7,6.3-3.3,0-6.6-.9-9.4-2.7-3-1.9-5.1-4.9-6-8.4"/>
      <path class="st8" d="M400.3,306.7c2,1.9,2.6,4.2,2.6,7.1,0,4.3-1.7,7.6-5.8,11.1-.9.8-1.9,1.5-3,2.2M596.4,292.6v5.5M596,291.3v7.8M596.4,274.4v10.2M596,272.2v13.9M593,414.2c-1.6,3.3-3.8,6.3-6.5,8.9-3.1,3-5.2,4.4-9.1,6.4-3.8,1.9-6.1,2.5-10.3,3.4-3.5.8-7.1,1.3-10.7,1.3-3.9.2-6,0-9.9-.2-4.1-.3-6.4-.9-10.5-1.2-3.4-.3-5.3-.6-8.7-.6-3.5,0-5.5,0-9,.6-2.8.4-5.5,1.2-8.1,2.3-4.2,1.7-8.9,4.7-10,6-1-1.3-5.8-4.3-10-6-2.6-1.1-5.3-1.8-8.1-2.3-3-.5-6-.7-9-.6-3.4,0-5.3.3-8.7.6-4.1.4-6.4.9-10.5,1.2-3.9.3-6,.4-9.9.2-3.6,0-7.2-.5-10.7-1.3-4.1-.9-6.5-1.5-10.3-3.4-3.9-1.9-6-3.3-9.1-6.4l-1-1M478.8,505.5l2.8-.4M528.9,501.4l2.8-.3,2.7-1.1,1.9-1.1,2.6-3,.5-1.1.4-2.6v-1.2M613.2,277.4c1.2-4.1-.3-8.5-4.3-8.4M402.8,341.8c-.9,3-2.9,5.6-5.6,7.3M402.9,276c-1,2.9-2.8,5-5.7,6.3-2.9,1.3-6.2,0-8-1.3"/>
      <path class="st10" d="M381,291.2c2.4,1.2,4.8-.6,4.3-3.7-.4-1.9-2-3.3-3.9-3.4"/>
      <path class="st8" d="M390.9,422.9c.5.5.6,1.1,1.3,1.2,1,.2,1.9.6,2.9-.8,1.3-1.7.6-4.4-.8-6.1-1.4-1.8-5.6-3.4-9.1-1.5-1.6.8-2.9,1.9-4,3.3-.5.7-1.4,1.7-1.8,2.5-1,1.8-1.5,3.3-1.7,3.9-3.2,9.1.6,18.7,6.5,24.5"/>
      <path class="st10" d="M531.6,487.2c.4.4.7.8,1,1.2.2.5.4.9.4,1.3.4,2.4-1.2,3.9-3.1,4.1-2.7.3-4.4-1.3-5.3-3.2"/>
      <path class="st8" d="M608.5,216.8c5.2.6,9.8,5.6,9.8,11s-2.3,9.5-6,14.4c-3.9,5.3-16.6,15-16.6,26s1.9,11,6.7,13.1c3.1,1.4,6.7-.1,8.4-1.6,4-3.7,2.4-10.1-1.8-10.8-5.1-.9-6.1,7.1-1.1,6.6M635.7,383.5c-.4-2.8-2.8-4.9-5.7-4.9-3.2,0-5.8,2.7-5.7,5.9h0c0,1.6.6,3,1.6,4.1"/>
      <path class="st8" d="M599.8,279.9c-2.7,2.2-4.2,5.5-4.1,8.9,0,4.8,4,12.8,14,15.5,3.8,1.1,7.5,1,9.7-.4M375.6,287.8c-2.4.8-5.4,2.3-7.5,5.4-1.9,2.6-2.9,6.3-3.6,9.5-.3,1.4-.6,5.8.2,10.4.6,3.1,1.8,6.1,3.6,8.8.5.7,1,1.4,1.6,1.9.5.5,1.2,1,1.8,1.4M471.7,469c7.6,3.4,13.1,5.9,17.8,13.3,1.5,2.3,1.9,5.7,1.9,7.6,0,4.2-1.7,8.9-5.2,11.9-3.2,2.7-6.5,3.6-10.4,3.2-3-.3-5.8-2.5-6.3-4M396.9,325.2c4.3,3.3,6.1,6.6,6.1,11.7s-2.9,9.6-6.2,11.7"/>
      <path class="st10" d="M393,344.4c6.4,7.9,9.8,12.6,10,22.1.2,8.9-2.6,14.9-7.9,21.3"/>
      <path class="st8" d="M515.2,239.6c1.2-.8,2.1-2.1,2.5-3.5.8-2.3.8-4.3-.5-6.1,1.5,2,1.7,3.7,1.2,6.1-.3,1.6-1.3,2.4-2.5,3.5M596.4,374.2v25.2h0s0,2.4-.2,3.9c-.1,1-.3,1.9-.4,2.7"/>
      <path class="st8" d="M596,371.8v27.2h0s0,2.4-.2,3.9c-.2,1.4-.4,2.8-.7,4.1M596,339.9v22.7M596.4,341.7v18.5M596.4,318.2v13.8M596,316.6v17.1M596.4,304.1v5.4M596,303v7.8M593.1,412.6l-.5,1.1c-1.6,3.3-3.8,6.4-6.5,8.9-3.1,3-5.2,4.4-9.1,6.4-3.8,1.9-6.1,2.5-10.3,3.4-3.5.8-7.1,1.3-10.7,1.3-3.9.2-6,0-9.9-.3-4.1-.3-6.4-.9-10.5-1.2-3.4-.3-5.3-.6-8.7-.6-3.5,0-5.5,0-9,.6-2.8.4-5.5,1.2-8.1,2.2-4.2,1.7-8.9,4.7-10,6-1-1.3-5.8-4.3-10-6-2.6-1.1-5.3-1.8-8.1-2.2-3-.5-6-.7-9-.6-3.4,0-5.3.3-8.7.6-4.1.4-6.4.9-10.5,1.2-3.9.3-6,.4-9.9.2-3.6,0-7.2-.5-10.7-1.3-4.1-.9-6.5-1.5-10.3-3.4-3.9-1.9-6-3.3-9.1-6.4-1.6-1.6-2.8-2.9-3.9-4.4M406.4,413.3c.7,4.9-1.4,9.8-3.5,12-1.3,1.4-4.2,4.1-7.8,4.1-5.9,0-7.7-4-8-5"/>
      <path class="st8" d="M399.4,410.7c1.1,1.1,2.1,2.4,2.9,4,1.5,2.8,1,7.5-.1,9.6-.1.2-.3.5-.5.7M370,453.2c3.5,3.7,8.8,7.7,17,11,11.2,4.6,28.3,5.7,40.1,6.1,15.7.6,30.2,1.3,39,11M493.3,475c2.6,2.6,5.2,5.3,6.4,8.8M488.2,501.7c-.3.4-.7.7-1.1,1-3.2,2.7-6.5,3.6-10.4,3.2-3-.3-5.9-2.5-6.7-4M461.6,497.4c.1.2.3.4.5.6,2.1,2.3,4.9,3.6,8,3.8M512,501.6c-2,3.1-6.8,7.8-11.9,9.6-5-1.9-9.9-6.5-11.9-9.6l-.5-.7M512.1,501.6c.4.4.8.8,1.2,1.1,3.2,2.8,6.5,3.6,10.4,3.2,3-.3,5.4-2.3,6.4-4,0,0,.5-.6.7-1.1"/>
      <path class="st8" d="M529.8,501l-1.2,1.9-1.8,1.5-2.7,1.1h-2.4"/>
      <path class="st8" d="M536,483.2c1.6,1.2,2.8,2.7,3.6,4.5.5,1.1.7,2.4.8,3.7.1,2.4-.7,4.7-2.2,6.5-2.3,2.6-5.7,4-9.2,3.9M529.3,501.4c-3.2.1-6-1.2-8.1-3.4M620.7,391.9c-3.1-2.9-5.6-6.3-7.5-10.1-2-3.8-3.2-7.9-3.5-12.2,0-3,.2-6.1,1-9.7,1.2-5.9,3.4-10.5,6.4-14.1,1-1.2,2.2-2.8,3.2-3.5M618.2,223.8c4,.3,7.6,4.6,7.6,8.8,0,6.1-2.1,8.6-6.9,14.6-4.1,5.1-16.5,14.2-16.2,22.8,0,1.5.9,3.1,1.8,4.4M599.6,279.7c.9.9,1.9,1.6,3.2,2.2,2.3,1,4.8.5,6.7-.5M576.4,213.9c1.3.9,2.7,2.3,3.4,4.1,2.9,7-3.4,12.3-9.3,16.2-3.9,2.6-8.3,4.4-13,5.1"/>
      <path class="st8" d="M569.7,227.4c-1.4,0-3.1-.4-4.9-2.3-.5-.4-.8-1-1.1-1.6M540.5,231.2c-.8-.4-1.5-.9-2.1-1.5-1.4-1.6-2.3-3.6-1.2-6.9,1-3,5.7-11.3,6-17,.4-8.8-3-14-8.3-16"/>
      <path class="st10" d="M542.7,203.9l-.2,3.3-.9,3.4-1.7,4.6-1.3,3-1.4,3-.7,2.1-.3,1.5.2,1.4M595.8,423.4c.3.7.9,1.3.9,1.3,1,1.7,4.9,4.7,8.5,4.7,5.9,0,7.3-4,7.5-5,.8-4.5-.8-5.7-3.1-7,0,0-1.4-.7-3-.4"/>
      <path class="st8" d="M370.2,403.7c-2.1.5-4,.5-5.8,0-4.4-1.3-8-5.6-6.2-10.8M379.2,343.1c.4.4.6,1.1.6,1.7.7,5.7-4.3,7.4-7.9,6.5-1.9-.6-3.6-1.9-4.7-3.6-.6-1.1-1-2.3-1-3.6M400.7,307.1c.9.8,1.5,1.7,1.9,2.8M400.9,296.6c.8.5,1.4,1.2,1.8,2"/>
      <path class="st10" d="M402.9,303.9c-.6,1.4-1.4,2.6-2.4,3.7-3,3.3-8.1,6.2-13.7,6.3-3.3,0-6.6-.9-9.4-2.7-3.4-2.3-5.6-5.5-6.4-8.7"/>
      <path class="st8" d="M399.1,280.1c1.7,1.4,3,3.2,3.7,5.3"/>
      <path class="st10" d="M402.9,292.6c-1.4,4.6-5.5,10.2-13.5,12.2-3.8,1-8.7-.2-10.4-1.7"/>
      <path class="st8" d="M375.1,291.5c.4,4.1,3.2,7.2,8.4,7.3,7.4.1,11.8-10.6,5.3-18.1"/>
      <path class="st10" d="M358.5,327.4c1.1,1.3,2.3,2.6,3.6,3.6,2.7,2.3,5.9,4.1,9.3,5.1M379.7,337c6.6-.8,10.3-5.7,9.5-11.4-.6-4.4-4.6-7.7-7.3-7.9"/>
      <path class="st8" d="M390.4,268.9c2.9-.1,4.5,2.5,4.4,4.7"/>
      <path class="st10" d="M389.7,229.8c1.5,3.8,4.3,7.1,7.9,9.1M622.9,287.3c2.7,3.7.9,10.9-6.4,11.1-2.8,0-5.5-1.5-6.9-3.9"/>
      <path class="st8" d="M596.4,239.2v24.7"/>
      <path class="st10" d="M380.9,291.1c2.2,1.6,5.1-1.1,4-4-.8-2-3.6-4.1-7.5-1.5-4.3,2.9-3.1,12.1,5.1,12.3,7.4.1,11.8-10.6,5.3-18.1-6.3-7.2-17.7-5.5-25.2.4-3.2,2.5-9.2,9.1-11,18.2-.6,2.8-1,5.1-.9,7.9,0,1.9.2,3.9.8,6.5.8,4.2,2.4,8.2,4.8,11.7.7,1,1.4,1.9,2,2.6,1.3,1.3,1.7,2,3,3,4.2,3.5,9.7,6.3,16.3,6,7.3-.3,11.5-5.4,10.7-11.5-.8-5.9-6.7-8.8-10.6-6.1-2.6,1.9-3.6,7.6,1.1,9,2.6.8,5-2.6,3.1-4.5M584.4,210.7c4.2-2.3,7.5-1.9,9.9,1.5,2.6,3.6,3,8.4,2.4,11.3-.8,4.2-2.1,5.9-5.4,9"/>
      <path class="st10" d="M594.6,212.6c4.8-3.2,10-1.8,12.9,2.4,2.1,3.1,2.6,5.7,2.5,9.6-.3,6.6-4.4,11.8-9,14.4"/>
      <path class="st8" d="M617.3,223.7c4,.3,7.2,3.9,7.2,8.1,0,6-1.7,8.6-6.5,14.5-4.1,5.1-16.5,14.2-16.2,22.8.1,3.3,2.9,6.3,5.2,6.5"/>
      <path class="st10" d="M617.8,291.1c-2.2,1.6-5.1-1-3.9-3.8.9-1.9,3.4-4.4,7.3-1.7,4.3,2.9,3.1,12.1-5.1,12.3-7.3.1-12.3-10.3-5.3-18.1,6.4-7.1,18.3-5.7,25.8.2,3.2,2.5,9.6,9.5,10.9,18.6,1.7,11,1.4,24.6-9.9,32.9-4.6,3.4-10.9,4.9-16.5,4.6-7.3-.3-11.5-5.4-10.7-11.5.8-5.9,6.4-8.4,10.6-6.1,4.3,2.4,3.6,8.5-1.1,9-2.7.3-5-2.6-3.1-4.5"/>
      <path class="st8" d="M613.9,287.3c1.2-5.5,5.9-6,9.7-5.9,10.3.1,17.4,12.4,17.5,24.2.2,14.9-6.3,23.7-17.2,24.2-2.8.1-7.7-1.2-7.8-4.7"/>
      <path class="st17" d="M620.2,284.9c10.9,2.4,14.7,12.2,14.7,21.5s-.8,18-15.6,21.7"/>
      <path class="st8" d="M638.1,389.6c.6-3.3-1.6-6.5-4.9-7.1s-6.5,1.6-7.1,4.9c-.4,2.2.4,4.5,2.2,5.9"/>
      <path class="st10" d="M616.3,380.3c2,3,4.5,6.4,9.7,9.2M624.1,406c-5.1-3.4-14.8-7.8-23.6-3.4-3.3,1.6-5.5,3.6-6.7,6.8-2.2,5.8.3,12.3,2.8,15,1.3,1.4,4.2,4.1,7.8,4.1,5.9,0,7.3-4.1,7.5-5,.7-4.3-1.8-6-3.1-6.5-1-.4-4.3-.3-5,2.1-.2.8-.3,2.1.3,3.1"/>
      <path class="st10" d="M532,488.2c1.6,3.3-.2,5-2.5,5.3-3.3.4-5.1-2.3-5.4-4.7-.3-3.8,2.6-7.1,6.3-7.4.2,0,.3,0,.5,0,3.5,0,6.4,2.3,7.8,5.5.5,1.1.7,2.4.8,3.7.1,2.4-.7,4.7-2.2,6.5-2,2.3-5.1,3.7-8.4,3.9-6.6.3-11.7-5.9-11.7-12.2,0-12.1,17.9-18.6,25-20.3,8.7-2.1,14-2.9,28-3.6,5.6-.3,9.7-.2,15.9-.8,5.5-.6,8.4-.8,14.1-2.2,7.1-1.6,13.7-4.6,19.6-10,4.5-4.1,7.1-7.1,9.2-12.8,1.8-4.9,2.7-14.6-2-21.8-4.1-6.3-9.7-9.6-16.2-10.6-5.8-.9-10.9,1.7-14,7.5-1.5,2.8-1,7.5.2,9.6,1,1.9,3.9,4.6,7.5,4.7,5.9,0,7.3-4.1,7.5-5,.7-4.3-1.8-6-3.1-6.5-1-.4-4.3-.3-5,2.1-.2.8-.3,2.1.3,3.1"/>
      <path class="st10" d="M526.9,469c-7.6,3.4-13.1,5.9-17.8,13.3-1.5,2.3-1.9,5.7-1.9,7.6,0,4.2,1.7,8.9,5.2,11.9,3.2,2.7,6.5,3.6,10.4,3.2,3-.3,5.8-2.5,6.3-4"/>
      <path class="st8" d="M601.7,325.2c-3.5,1.2-6.1,6.6-6.1,11.7s2.9,9.6,6.2,11.7"/>
      <path class="st10" d="M605.6,344.4c-6.4,7.9-9.8,12.6-10,22.1-.2,8.9,2.6,14.9,7.9,21.3"/>
      <path class="st8" d="M571.6,212.6l.5-.8c2.6-3.9,7.3-4.9,10.7-2.3,4.1,3.1,5.2,8.4,4,14-.7,3.5-3.1,6.4-6.3,8.5"/>
      <path class="st10" d="M414.2,210.7c-4-1.9-7.4-1.5-9.9,1.5-2.9,3.4-3,8.4-2.4,11.3.9,4.2,2.1,5.9,5.4,9"/>
      <path class="st8" d="M404,212.6c-4.8-3.2-10-1.8-12.9,2.4-2.1,3.1-2.6,5.7-2.5,9.6.3,6.6,4.4,11.8,9,14.4"/>
      <path class="st8" d="M390.1,216.8c-5.2.6-9.4,5.1-9.4,10.4s1.7,9.7,5.6,15c3.9,5.3,16.6,15,16.6,26s-1.9,11-6.7,13.1c-3.1,1.4-6.7-.1-8.4-1.6-4-3.7-2.4-10.1,1.8-10.8,5.1-.9,6.1,7.1,1.1,6.6"/>
      <path class="st8" d="M381.3,223.7c-4,.3-7.9,3.7-7.9,7.9,0,6,2.4,8.8,7.2,14.7,4.1,5.1,15.8,14,15.5,22.6-.1,3.3-2.3,7.3-4.5,6.8"/>
      <path class="st10" d="M372,343.9c1.9-4.5,6.7-2.5,7,0,.7,5.7-4.3,7.5-7.9,6.5-1.7-.4-3.1-1.5-3.9-3-1-1.8-1.2-3.9-.6-5.8.3-.9.6-1.7,1.3-2.6.5-.7,1.2-1.4,2-1.9,1.4-.9,2.9-1,5.2-1,8.7,0,16.3,10.3,18.9,21,.8,3.5,2,11.4.4,18.8-1.7,7.9-5.1,13.4-9.2,17.6-2.2,2.2-5.1,4.3-9,6.4-2.1,1.1-4.3,2-6.5,2.7-2.2.6-4.3.7-6.1.1-4.4-1.3-7.3-5.5-5-10.8,1.8-4.2,8.4-6.2,11.4-1.1.2.4.6,1.4.6,2.4,0,1.4-.6,3-1.6,3.6-2.2,1.4-5.8,1-5.7-2.9"/>
      <path class="st8" d="M365.2,397.5c1.6.6,2.5.5,4.6-.4.8-.4,1.8-.9,2.9-1.6,4-2.3,8.7-5.8,13.1-14.1,2-3.8,3.2-7.9,3.5-12.2.1-3-.2-6.1-1-9.7-1.2-5.9-2.7-9.1-6.4-14.1-1.8-2.5-3.4-4-6.7-4M360.5,389.6c-.6-3.3,1.6-6.5,4.9-7.1,3.3-.6,6.5,1.6,7.1,4.9.4,2.2-.4,4.5-2.2,5.9"/>
      <path class="st8" d="M362.9,383.5c.4-2.8,2.8-4.9,5.6-4.9,3.2,0,5.8,2.7,5.7,5.9h0c0,1.6-.6,3-1.6,4.1"/>
      <path class="st8" d="M374,383.2c6.1-4.6,9.7-11.7,9.7-19.3,0-6.5-2.6-13.1-5.6-15.6"/>
      <path class="st10" d="M382.3,380.3c-2,3-4.5,6.4-9.7,9.2"/>
      <path class="st8" d="M397.8,402.6c-1.5-3.4-4.3-5-9-5.5-4.7-.5-8.7.8-12.8,3-8.1,4.3-12.5,9-15.5,17.6-.8,2.2-1.4,5.5-1.3,9,.1,5.6,1.6,11.7,3.1,14.7,1.3,2.6,4.8,14,23.9,21.9,11.2,4.6,28.3,5.7,40.1,6.1,16.2.6,31.2,1.2,40,12"/>
      <path class="st10" d="M374.5,406c5.1-3.4,14.8-7.8,23.6-3.4,3.3,1.6,5.5,3.6,6.7,6.8,2.2,5.8-.3,12.3-2.8,15-1.3,1.4-4.2,4.1-7.8,4.1-5.9,0-7.3-4.1-7.5-5-.7-4.3,1.8-6,3.1-6.5,1-.4,4.3-.3,5,2.1.2.8.3,2.1-.3,3.1"/>
      <path class="st8" d="M394.9,421.5c.5-1.7.2-3.5-1.3-5.2-1.6-1.7-5.7-3.4-9.2-1.4-1.5.8-2.9,1.9-4,3.3-.5.7-1.4,1.7-1.8,2.5-1.1,1.8-1.5,3.3-1.7,3.9-3.9,10.9,2.4,22.5,10.2,27.5,6.9,4.4,13.8,5.6,22.5,6.4,4,.4,6.3.4,10.3.6,3.2.1,6,.1,8.6,0,2.1,0,4.2,0,6.3,0,3.4,0,6.9-.2,11.3.2,4.5.3,8,.4,11.8,1.1,2.5.4,5.5.8,8.5,1.5.9.2,1.9.4,2.8.7l1.9.6c5.6,1.7,11,3.8,15.2,6.5,1.3.9,2.8,1.7,3.9,2.7.8.8,1.5,1.3,2.1,1.9,3,3,6,6.1,6.8,10.4.1.8.1,1.6.1,2.5,0,2.8-2.3,6.6-8.4,7.9"/>
      <path class="st8" d="M466.6,488.2c-1.6,3.3.2,5,2.5,5.3,3.3.4,5.1-2.3,5.4-4.7.3-3.8-2.6-7.1-6.3-7.4-.2,0-.3,0-.5,0-3.5,0-6.4,2.3-7.8,5.5-.5,1.1-.7,2.4-.8,3.7-.1,2.4.7,4.7,2.2,6.5,2,2.3,5.1,3.7,8.4,3.9,6.6.3,11.7-5.9,11.7-12.2,0-12.1-17.9-18.6-25-20.3-8.7-2.1-14-2.9-28-3.6-5.6-.3-9.7-.2-15.9-.8-5.5-.6-8.4-.8-14.1-2.2-7.1-1.6-13.7-4.6-19.6-10-4.5-4.1-7.1-7.1-9.2-12.8-1.8-4.9-2.6-14.6,2-21.8,4.1-6.3,9.7-9.6,16.2-10.6,5.8-.9,10.9,1.7,14,7.5,1.5,2.8,1,7.5-.1,9.6-1,1.9-3.9,4.6-7.5,4.7-5.9,0-7.3-4.1-7.5-5-.7-4.3,1.8-6,3.1-6.5,1-.4,4.3-.3,5,2.1.2.8.3,2.1-.3,3.1"/>
      <path class="st10" d="M427,212.6l-.5-.8c-2.6-3.9-7.3-4.9-10.7-2.3-4.1,3.1-5.2,8.4-4,14,.7,3.5,3.1,6.4,6.3,8.5"/>
      <path class="st8" d="M573,224.4c-6.3,6.8-12.6,9-22,9.3-2.9.1-8.6-.9-11.8-3.3-2.1-1.5-4.4-4.1-3-8.5,1-3,5.8-11.3,6-17,.4-8.8-3-13.6-8.3-15.5-9.8-3.4-20.3,6.2-26.6,8.3-2.6.9-5.3,1.3-8,1.2-2.7.1-5.5-.3-8.1-1.2-6.3-2.1-16.8-11.8-26.6-8.3-5.3,1.9-8.7,6.7-8.3,15.5.2,5.8,5,14.1,6,17,1.5,4.4-.9,7-3,8.5-3.3,2.3-8.9,3.4-11.8,3.3-9.4-.3-15.7-2.5-22-9.3"/>
      <path class="st10" d="M464.6,466.3c1.2.5.3-.3,8.2,3.2,7.6,3.4,13,6.3,17.7,13.7,1.5,2.3,1.9,5.7,1.9,7.6s-.1,2.5-.5,3.8"/>
      <path class="st8" d="M465.1,500.1c1.5.8,3.3,1.2,5.1,1.3,6.6.3,11.7-5.9,11.7-12.2s-2.4-8-5.7-11"/>
      <path class="st10" d="M466.5,488.1c-1.6,3.5.7,5.5,2.9,5.7,3.3.4,5.2-2.3,5.5-4.7.2-2.6-1.1-5.1-3.3-6.5"/>
      <path class="st8" d="M609.5,216.9c5,0,9.4,5.6,9.4,11.3s-3.5,10.6-6.1,13.7c-2.1,2.5-4.3,4.7-7,7.4"/>
      <path class="st10" d="M603.6,211.6c1.7.8,3.2,2.1,4.3,3.8,2.1,3.1,2.6,5.7,2.5,9.6-.2,6.6-5,11.2-9.2,14M593.7,211.6c.3.3.7.6,1,1,2.9,3.4,3.1,8.5,2.4,11.3-1,4.2-2.4,6-5.8,8.5M583.4,209.9c4.1,3.1,5.3,8.5,4,14-1,3.9-3.5,6.3-6.6,8.2M598.2,296.3c.5,1.5,1.3,2,2.3,3,2.7,2.7,6,4.6,9.6,5.5,3.8,1.1,7.2.3,9.9-1.4M365.3,387.9c1.9,0,3.9,1.3,5.1,3.5.2.4.6,1.4.6,2.4,0,1.4-.6,2.8-1.6,3.5-2.2,1.4-6.2.8-6.1-3.1"/>
      <path class="st8" d="M377.3,336.4c7.7,1.4,15.1,10.7,17.5,20.9.8,3.5,2,11.4.4,18.8-1.7,7.9-5.1,13.4-9.2,17.6-1,1-2.1,1.9-3.3,2.9l-1.6,1.1M368.8,378.7c3.2,0,5.9,3,5.9,6.3s-.6,3-1.6,4.1"/>
      <path class="st8" d="M366.6,382.4c3.3,0,6.4,3.2,6.4,6.5,0,1.9-.9,3.6-2.3,4.8"/>
      <path class="st10" d="M396.8,349.2c3,4.1,5,7.6,6,12.1M402.7,374.5c-.5,2.2-1.2,4.3-2.3,6.3-1.4,2.7-3.3,5.2-5.6,7.2"/>
      <path class="st8" d="M397.3,325.5c2.9,2.3,4.7,4.6,5.5,7.5"/>
      <path class="st10" d="M402.9,317.9c-.8,2.7-2.5,4.7-5.3,7.2M383.3,298.3l3.4-.9,2-1.5,1.3-1.8,1.1-2.8.5-2.3"/>
      <path class="st8" d="M376.5,286.4c-1.1.3-2.4.7-3.8,1.3-1.9.9-3.9,2.3-5.5,4.6-1.9,2.6-2.9,6.3-3.6,9.5-.3,1.4-.6,5.8.2,10.4.6,3.1,1.8,6.1,3.6,8.8.6.8,1.1,1.5,1.6,2.1,2,2,3.9,3.3,7,2.6"/>
      <path class="st10" d="M395.4,271.6c-.5,2-1.6,4.5-4.8,4.2"/>
      <path class="st8" d="M383.9,285.2c-3-3-9.4-3.7-15.8.3-.8.5-1.6,1.2-2.5,1.9-.9.7-1.6,1.6-2.2,2.5-.7,1-1.6,2.7-2.2,3.8-.6,1.3-1.1,2.7-1.5,4.1-.8,3.2-1.2,6.5-1,9.8.2,1.5.3,2.9.6,4.2.6,3.4,1.8,6.7,3.5,9.7,1.4,2.3,4.9,7.7,12.1,8.4,2.8.3,7.6-1,7.8-4.7"/>
      <path class="st10" d="M568.4,220.4c.5-2.6,3.6-3.1,4.8-1.6,1.8,2.3.6,6.4-3,7.5-2.3.5-4.6-.3-6-2.2-1.5-1.9-1.4-4.4-.8-6.3.4-1.2,1.4-2.3,2.7-3.3,4.2-3.2,11.1-2.5,13.4,3,2.9,7-3.4,12.3-9.2,16.2-7.3,5-15.7,5.9-22,5.8-14.3-.2-25.2-7-32.3-10.9-1.7-.9-3.3-.7-4.2.3-1,1.3-.9,3.2.4,4.3"/>
      <path class="st10" d="M571.3,218c1.5,0,1.9.7,2.4,1.3,1.8,2.4.5,6.4-3.2,7.5M598.3,307.3c-5.5,5.9-.4,16.1,3.6,18.4,1.4,1.1,2,.5,3.1,1.2"/>
      <path class="st8" d="M598.6,296c-1.8,1.2-2.4,2.6-2.5,5.1,0,2,.3,4.3,2.2,6.3,3,3.1,8.8,5.8,14.4,5.9,3.3,0,6.6-.9,9.4-2.7,3-1.9,5.1-4.9,6-8.4M595.6,398.6s0,2.4-.2,3.9c-.4,3.8-1.5,7.4-3.3,10.8-1.6,3.3-3.8,6.4-6.5,8.9-3.1,3-5.2,4.4-9.1,6.4-3.8,1.9-6.1,2.5-10.3,3.4-3.5.8-7.1,1.3-10.7,1.3-3.9.2-6,0-9.9-.3-4.1-.3-6.4-.9-10.5-1.2-3.4-.3-5.3-.6-8.8-.6-3.5,0-5.5,0-9,.6-2.8.4-5.5,1.2-8.1,2.2-4.2,1.7-8.9,4.7-10,6-1-1.3-5.8-4.3-10-6-2.6-1.1-5.3-1.8-8.1-2.2-3-.5-6-.7-9-.6-3.4,0-5.3.3-8.7.6-4.1.4-6.4.9-10.5,1.2-3.9.3-6,.4-9.9.3-4.2-.2-6.6-.4-10.7-1.3s-6.5-1.5-10.3-3.4c-3.9-1.9-6-3.3-9.1-6.4-2.7-2.5-4.9-5.5-6.5-8.9-1.8-3.4-2.9-7-3.3-10.8-.2-1.5-.2-3.9-.2-3.9v-159h192.5v159h0Z"/>
    </g>
    <g>
      <path class="st20" d="M387.4,421.3c0-2.2,1.7-3.9,3.9-3.9s3.9,1.7,3.9,3.9-1.7,3.9-3.9,3.9-3.9-1.7-3.9-3.9ZM363.4,393.7c0-1.9,1.2-3.5,2.8-3.5s2.8,1.6,2.8,3.5-1.2,3.5-2.8,3.5-2.8-1.6-2.8-3.5Z"/>
      <path class="st21" d="M377,324.4c0-1.6,1.2-2.9,2.7-2.9s2.7,1.3,2.7,2.9-1.2,2.9-2.7,2.9-2.7-1.3-2.7-2.9ZM424.9,221.8c-.2-1.6.8-3,2.1-3.1,1.4-.1,2.6,1,2.8,2.6.2,1.6-.8,3-2.1,3.1-1.3.1-2.6-1-2.7-2.6Z"/>
    </g>
    <g>
      <path class="st18" d="M373.9,340.5c-.6.2-.9.5-1.3.9-.4.4-.5.6-.8,1.3-.2.5-.3,1.1-.4,1.9M378.8,386.4c.5-.7.9-1,1.4-1.7.4-.6.7-.9,1.1-1.5.4-.5.5-.9.8-1.4.4-.8.6-1.2,1-2.1M381.1,401.5c-.9.4-1.5.6-2.4,1.1-.7.4-1.1.6-1.7,1-.8.5-1.2.8-2,1.3-.8.6-1.2.9-1.9,1.5M396.6,347.2c-.5-.5-.8-.8-1.3-1.3-.5-.5-.8-.8-1.4-1.3-.6-.5-.9-.7-1.5-1.1"/>
      <path class="st19" d="M397.2,326.5c-.7.3-1.1.6-1.9.9-.9.3-1.5.4-2.3.5"/>
      <path class="st18" d="M371,300.7c.2.9.3,1.5.6,2.3.4,1.1.8,1.7,1.5,2.7.7,1,1.1,1.6,2,2.5.8.8,1.3,1.1,2.2,1.7.9.6,1.4.8,2.3,1.2M378,302c.8.4,1.1.7,1.9,1,.7.3,1.1.4,1.9.6,1,.2,1.6.3,2.7.3,1.1,0,1.5,0,2.9-.2M398.7,240.1c-1.2-.7-2-1.1-3.2-1.9-1-.7-2-1.5-2.9-2.4-.7-.6-1.3-1.3-1.8-2-.6-.8-.8-1.3-1.3-2.1M401.2,224.7c.4,1.1.5,1.7,1,2.7.7,1.4,1.2,2.1,2.2,3.2,1.4,1.6,2.6,2,4.3,3.3M411,224.6c.4.9.5,1.5,1,2.4.4.8.7,1.2,1.3,1.9.7.9,1.2,1.4,2.1,2.1,1,.8,1.8,1.1,2.9,1.7"/>
    </g>
    <path class="st1" d="M520.8,211.9c0-2.6-2.7-2.9-3.7-2.9-2.9,0-3.7,1.8-7.3,3.7-4.5,2.4-6.5,3-10.5,3-4,0-6-.6-10.5-3-3.6-1.9-4.2-3.7-7.1-3.7-2,0-3.6,1.8-3.5,3.8,0,0,0,0,0,0,0,0,0,.8.1,1.3,0,.2.3.1.4.3,0-1.2.2-1.8.8-2.6.6-.8,1.5-1.3,2.5-1.3,2.9,0,4,1.9,7.6,3.8,4.5,2.4,6.5,3,10.5,3,4,0,6-.6,10.5-3,3.6-1.9,4.6-3.9,7.5-3.9s1.7.6,2,1.7c.2.6,0,1,.1,1.3,0,.1.2.1.2.2,0-.5.3-.6.3-1.7h0Z"/>
  </g>
  <g>
    <path d="M413.1,434.4c.8-.9,1.4-.5,1.6-1,.1-.3-.1-.3-.5-.5-.4-.2-.9-.3-1.3-.4-.5-.2-.9-.4-1.3-.6-.2,0-.6-.3-.8,0-.2.6,1.6.6,1,2.2-.1.3-.4.9-1.3,1.9l-4.1,4.5c0,.1-.2.3-.3.3-.1,0,0-.3,0-.5v-6.4c0-1.2.2-2.1.4-2.6.3-.7,1.1-.1,1.3-.6.1-.3,0-.3-.5-.5-.2-.1-.7-.2-1.7-.6-.5-.2-1-.5-1.6-.7-.2-.1-.7-.4-.8,0,0,.1.1.3.2.4.6.4.7.7.7,1.5v11.6c.1.8.2,1.1.4,1.1.2,0,.3,0,.6-.4l8.2-8.9h0Z"/>
    <path d="M418,436.2c.5-1.7,1.5-.7,1.7-1.3,0-.2,0-.3-.5-.4-.9-.3-1.5-.4-2.1-.6-.6-.2-1.2-.5-1.8-.6-.1,0-.5-.2-.6,0-.2.6,1.8.7,1.3,2.3l-2.7,8.5c-.5,1.7-1.5.9-1.7,1.5,0,0,0,.2.1.3.4.1,1.1.3,1.8.5,1.2.4,1.8.6,2.4.8.4.1.5,0,.6-.1.2-.6-1.9-.3-1.2-2.5l2.7-8.5h0ZM423.7,437.9c.3-1.1.8-.9,1.4-.8,1.6.5,2.1,2.1,1.6,3.8-.3,1-.7,2-3.1,1.3-.5-.1-1.1-.3-1-.8l1.1-3.6ZM419.3,445.6c-.7,2.2-1.8,1.3-2,1.9-.1.4.2.4.4.5.8.2,1.6.4,2.5.7.7.2,1.1.4,1.4.5.4.1.5,0,.6-.1.2-.6-1.6-.4-1.1-2.3l.9-3.1c.2-.6.1-.8,1-.5.8.2,1,.5,1.2,1.4l.5,3.2c.2,1.2.4,2.5,1.6,2.8.6.2,1.8.1,2-.4,0-.1,0-.3-.2-.3-.2,0-.4,0-.5,0-.1,0-.4-.1-.5-.5-.5-2.6-1.1-5.6-1-5.7,0-.2.6-.2,1.1-.5.6-.3,1.3-.8,1.6-2,.2-.8.7-3.4-2.9-4.5-1.1-.3-2.2-.6-3.3-.9-1-.3-1.1-.4-1.9-.6-.2,0-.4,0-.4.2-.2.6,1.8.5,1.2,2.5l-2.3,7.9h0ZM432.5,449.5c-.5,2.2-2.1.9-2.3,1.5-.1.4.2.5.5.5.6.2,1.2.2,2.3.5,1.1.3,1.6.5,2.3.6.5.1.8.2.9-.2.1-.5-2.1-.5-1.6-2.7l2-8.2c.2-.9.4-.9,1.1-.8l1.4.3c1.9.4.9,2.3,1.5,2.4.4.1.4-.6.4-.9l.2-1.7c0-.2,0-.5-.2-.5-1.5-.4-2.6-.6-5-1.1-2.4-.6-3.5-.9-5-1.3-.2,0-.3.2-.4.4l-.8,2.3c-.1.2-.3.6,0,.7.7.2.8-2.3,2.7-1.9l1.4.3c.7.2.8.3.6,1.2l-2,8.4h0ZM452.3,444.4c.6-1,1.3-.8,1.4-1.2,0-.3-.2-.3-.5-.4-.5,0-.9-.1-1.4-.2-.5-.1-.9-.2-1.4-.3-.2,0-.7-.2-.7.2-.1.6,1.7.3,1.4,2,0,.3-.2.9-.9,2.1l-3.3,5.2c0,.1-.2.4-.3.4-.1,0-.1-.3-.2-.4l-1-6.3c-.2-1.2-.3-2.1-.2-2.6.1-.8,1.1-.3,1.2-.8,0-.3,0-.3-.5-.4-.3,0-.8,0-1.8-.3-.6-.1-1.1-.3-1.7-.4-.2,0-.7-.3-.8.1,0,.1.2.3.2.3.6.3.8.6,1,1.3l2.1,11.4c.1.8.3,1,.5,1.1.2,0,.3,0,.6-.5l6.5-10.2h0ZM453.2,454.9c0,.5,0,.6.4.8.9.4,1.7,1,2.7,1.1,2.2.4,4-1,4.4-3.4.4-2.3-.6-3.3-2.2-4.5-2-1.5-2.9-1.9-2.7-3.1.2-1.2,1.1-1.8,2.2-1.6,2.9.5,2.5,3.9,2.9,4,.4,0,.5-.1.5-.5l.2-2.5c0-.4.1-.7-.1-.7-.2,0-.7.2-.9.1-.5,0-1.1-.9-2.4-1.1-1.9-.3-3.5,1-3.9,3.1-.3,1.9.5,2.8,1.9,3.8,2.4,1.8,3.5,2.2,3.2,3.7-.2,1.5-1.4,2.2-2.7,2-1.8-.3-2.6-2.1-2.8-4,0-.3,0-.4-.3-.5-.4,0-.3.5-.3.8v2.6h0ZM478,448c.5-1.1,1.2-.9,1.2-1.3,0-.3-.2-.3-.6-.3-.5,0-1,0-1.4,0-.5,0-.9-.1-1.4-.2-.2,0-.7-.1-.7.2,0,.6,1.7.1,1.6,1.8,0,.3-.1,1-.7,2.2l-2.7,5.5c0,.1-.1.4-.2.4-.1,0-.2-.3-.2-.4l-1.7-6.2c-.3-.8-.4-1.7-.4-2.6,0-.8,1-.4,1.1-.9,0-.3,0-.3-.6-.3-.3,0-.8,0-1.8,0-.6,0-1.1-.2-1.7-.2-.2,0-.8-.2-.8.2,0,.1.2.3.2.3.7.2.9.5,1.1,1.2l3.3,11.1c.2.8.4,1,.6,1,.2,0,.3-.1.5-.6l5.4-10.8h0Z"/>
    <path d="M480.6,457c0,1.9-1.6,1.5-1.6,2.3s.3.2.5.2c.5,0,.9,0,1.4,0,.6,0,1.2,0,2,0,.2,0,.6,0,.6-.2,0-.9-2.1.4-2.1-3.2v-6.4c0-.2,0-.3.2-.3s.2.1.3.2l8,9.8c.1.1.2.3.4.3s.2-.1.2-.5v-10.5c.1-2,1.5-1.5,1.5-2.1s0-.2-.3-.2-.7,0-1.8,0c-1.2,0-1.6,0-1.9,0-.2,0-.3.2-.3.3,0,.6,2,.3,2,2v6.2c0,.5,0,.7-.2.7s-.3-.2-.5-.5l-6.7-8.3c-.3-.4-.1-.5-.6-.5-.9,0-1.3,0-1.8,0s-.6,0-.9,0-.3.1-.3.3c0,.9,1.9-.3,1.9,3.3v7.1c0,0,0,0,0,0ZM496.9,448.6c0-1.8,1.3-1.1,1.3-1.7s0-.3-.6-.3c-1,0-1.6,0-2.2,0s-1.2-.1-1.9-.1-.6,0-.6.3c0,.6,1.8.1,1.8,1.9v9c0,1.8-1.2,1.3-1.2,1.9,0,.1,0,.2.2.2.4,0,1.2,0,1.9,0,1.3,0,1.9,0,2.6.1.4,0,.5,0,.5-.3,0-.6-1.9.2-1.9-2v-8.9q0,0,0,0ZM503.9,457.3c0,2.2-1.9,1.3-1.9,2.1,0,.4.3.4.6.4.7,0,1.2,0,2.3-.1,1.1,0,1.7,0,2.4,0,.5,0,.8,0,.8-.4,0-.5-2.1,0-2.2-2.2v-8.4c0-.9,0-1,.8-1h1.4c1.9-.1,1.4,2,2.1,2s.2-.7.2-1l-.2-1.7c0-.2,0-.5-.3-.5-1.6,0-2.7.1-5.1.1-2.5,0-3.6,0-5.1,0-.2,0-.2.3-.3.5l-.2,2.5c0,.2-.1.6.2.6.8,0,.2-2.5,2.1-2.5h1.4c.7,0,.9,0,.9,1v8.7q0,0,0,0ZM513.7,453.7c-.3,0-.5,0-.5-.1,0-.3,0-.5.1-.7l1-3.4c0-.2.1-.2.2-.2,0,0,0,0,.1.1l1.6,3.3c0,.2.2.4.2.7,0,.2-.2.2-.5.2l-2.3.2ZM516.5,454.5c.4,0,.5.1,1.2,1.6.2.5.4.8.4,1.2,0,1.1-1.1,1-1.1,1.6,0,.3.2.2.5.2.5,0,1.1-.2,1.8-.2,1.1-.1,1.6,0,2.2-.1.5,0,.6,0,.6-.3,0-.6-.9.2-1.5-1.1l-5.4-11c-.3-.5-.3-.6-.5-.6-.2,0-.3.4-.4.7l-3.6,11.6c-.3,1.1-1.2,1-1.2,1.5,0,.2.3.2.5.2.5,0,1-.1,1.5-.2.5,0,1,0,1.6,0,.3,0,.9,0,.8-.3,0-.5-1.8,0-1.9-1.4,0-.4.2-1.1.2-1.5.3-1.2.6-1.4.9-1.4l3.3-.3h0ZM529.5,446.8c-.2-1.3,0-1.3,1.9-1.6,3.2-.4,2.2,1.9,3,1.8.4,0,.2-.6.2-.9l-.3-1.8c0-.2-.2-.3-.4-.3-1.5.2-2.6.4-3.8.6-2.5.3-3.8.4-4.4.5-.2,0-.3.2-.3.4,0,.7,1.9-.1,2.1,1.6l1.1,8.7c.3,2.3-1.1,1.4-1,2.3,0,.1.1.2.3.2.9-.1,1.6-.3,2.1-.4.7-.1,1.4-.1,2-.2.4,0,.8,0,.7-.4,0-.5-1.9.2-2.2-1.8l-.4-2.7c-.1-1.1-.2-1.3.5-1.4l1.2-.2c1.7-.2,1.5,1.8,2,1.7.4,0,.2-.7.2-.9l-.5-3.3c0-.5-.3-.4-.4-.4-.3,0-.2,1.8-1.6,1.9h-1c-.7.2-.7.1-.8-.7l-.3-2.6h0ZM535.7,451c.7,3.7,3.4,5.8,6.7,5.2,5.3-1,5.4-5.6,5-8.2-.7-3.9-3.6-5.8-6.8-5.2-3.9.8-5.6,4.2-4.8,8.2ZM537.5,449.6c-.5-2.7-.1-5.4,2.6-5.9,2.1-.4,4.5,1.3,5.3,5.4.6,3,0,5.7-2.7,6.2-3,.6-4.7-3-5.2-5.7h0ZM550.5,443.1c-.3-1.1.2-1.2.8-1.4,1.7-.4,2.9.7,3.3,2.5.3,1.1.4,2.1-2.1,2.7-.5.1-1.1.3-1.2-.2l-.9-3.7h0ZM550.5,452c.6,2.3-.9,2-.8,2.6,0,.4.4.2.6.2.8-.2,1.6-.5,2.5-.7.7-.2,1.1-.2,1.4-.3.4-.1.5-.2.4-.4-.2-.6-1.6.5-2.1-1.5l-.8-3.1c-.2-.6-.3-.7.6-.9.8-.2,1.2-.1,1.7.6l2.1,2.5c.8.9,1.6,2,2.8,1.6.7-.2,1.6-.8,1.5-1.4,0-.1-.2-.2-.3-.2-.2,0-.3.2-.5.2-.1,0-.4.1-.7-.1-1.7-2-3.7-4.3-3.8-4.4,0-.2.4-.5.8-1s.7-1.3.4-2.5c-.2-.8-1.1-3.3-4.7-2.5-1.1.3-2.2.6-3.3.9-1,.2-1.2.2-1.9.4-.2,0-.3.2-.3.4.2.7,1.8-.4,2.3,1.6l1.9,8h0ZM564,449c.6,2.1-1.5,1.8-1.3,2.5,0,.4.4.3.7.2.7-.2,1.2-.4,2.3-.7,1.1-.3,1.7-.3,2.3-.5.5-.1.8-.1.7-.6-.1-.5-2.1.6-2.7-1.7l-2.1-8.2c-.2-.9,0-1,.6-1.2l1.4-.4c1.8-.5,1.8,1.6,2.5,1.4.4-.1,0-.8,0-1l-.6-1.6c0-.2-.1-.4-.4-.4-1.5.4-2.6.8-5,1.4s-3.5.8-5,1.2c-.2,0-.2.3-.1.5l.4,2.5c0,.2,0,.7.4.6.7-.2-.4-2.4,1.5-2.9l1.4-.4c.7-.2.8-.1,1.1.7l2.2,8.4h0ZM572.6,437.5c-.5-1.7.9-1.4.8-2,0-.2-.2-.2-.6-.1-.9.2-1.5.5-2.1.6-.6.1-1.2.3-1.8.4-.2,0-.6.1-.5.4.2.6,1.9-.4,2.3,1.3l2.4,8.6c.5,1.7-.8,1.6-.7,2.2,0,0,0,.2.2.2.4-.1,1.1-.4,1.8-.6,1.2-.4,1.9-.5,2.5-.6.4-.1.5-.2.4-.4-.2-.6-1.7.8-2.3-1.5l-2.4-8.6ZM576.2,441.7c1.2,3.6,4.2,5.3,7.3,4.2,5.1-1.7,4.6-6.4,3.8-8.8-1.2-3.8-4.4-5.2-7.5-4.2-3.8,1.3-4.9,4.9-3.6,8.8ZM577.8,440c-.9-2.6-.9-5.3,1.8-6.2,2-.7,4.7.7,6,4.6,1,2.9.9,5.6-1.8,6.6-2.8,1-5.1-2.4-5.9-4.9h0ZM589.7,431.6c-.4-1,0-1.2.7-1.5,1.6-.6,3,.3,3.6,2,.4,1,.7,2-1.7,3-.5.2-1,.4-1.2,0l-1.4-3.5h0ZM591,440.4c.9,2.2-.6,2.1-.4,2.7.1.4.4.2.6.1.8-.3,1.5-.7,2.4-1,.7-.2,1.1-.4,1.4-.5.4-.1.4-.3.4-.5-.2-.6-1.5.7-2.2-1.2l-1.2-3c-.2-.6-.4-.7.5-1,.8-.3,1.1-.3,1.8.4l2.4,2.2c.9.8,1.8,1.7,3,1.2.6-.2,1.5-1,1.3-1.6,0-.1-.2-.2-.3-.1-.2,0-.3.2-.4.3-.1,0-.4.2-.7,0-2-1.7-4.3-3.7-4.3-3.8,0-.2.3-.5.6-1.1.3-.6.5-1.4,0-2.5-.3-.8-1.6-3.1-5-1.8-1,.4-2.1.9-3.1,1.3-1,.4-1.1.4-1.9.6-.2,0-.3.2-.2.4.2.6,1.7-.7,2.5,1.3l3,7.6h0Z"/>
  </g>
  <g>
    <path d="M412.7,249.2h82.2v82h-82.2v-82Z"/>
    <path id="a" class="st21" d="M451.2,313.8s0,2.9-.9,5.3c-.9,2.7-.9,2.7-1.8,4-1,1.5-2.3,2.9-3.8,3.9-2,1.3-4,1.9-6,1.7-5.5-.5-8-6.4-9.3-11.3-1.3-5.1-5.1-7.9-7.5-6.1-1.4,1.1-1.5,2.9-.3,4.7,1.2,1.9,4.1,2.8,4.1,2.8l-2.9,3.7s-6.3-.8-7.5-7.4c-.5-2.5.7-7.1,4.9-8.5,5.3-1.8,8.7,2,10.3,5.2,2.2,4.4,3.2,12.4,9.4,11.2,3.4-.7,5-5.6,5-7.9l2.5-2.6,3.6,1.2h.1q0,0,0,0Z"/>
    <path id="a1" data-name="a" class="st21" d="M456.3,313.8s0,2.9.9,5.3c.9,2.7.9,2.7,1.8,4,1,1.5,2.3,2.9,3.8,3.9,2,1.3,4,1.9,6,1.7,5.5-.5,8-6.4,9.3-11.3,1.3-5.1,5.1-7.9,7.5-6.1,1.4,1.1,1.5,2.9.3,4.7-1.2,1.9-4.1,2.8-4.1,2.8l2.9,3.7s6.3-.8,7.5-7.4c.5-2.5-.7-7.1-4.9-8.5-5.3-1.8-8.7,2-10.3,5.2-2.2,4.4-3.2,12.4-9.4,11.2-3.4-.7-5-5.6-5-7.9l-2.5-2.6-3.6,1.2h-.1q0,0,0,0Z"/>
    <path class="st21" d="M461.1,279l10.8-11.6s1.6-1.3,1.6-3.4l-2.2.3-.5-1.1v-1.1c-.1,0,2.9-.6,2.9-.6,0-.5,0-.9,0-1.4,0-.5.2-.8.3-1.2l-3.3.2c.2-.6.1-.9.3-1.4.2-.5.2-.6.5-1.1.6-.1,1.2-.2,1.9-.3.7,0,1.1,0,1.9,0,1.8-3.3,9.2-6.4,14.5-.9,3.8,4,3,11.2-2,13.1-2.3,1-5,.6-6.9-1.1l2-3.9c2.7,1.6,5-.4,4.8-2.5-.2-2.6-1.9-4.3-4.4-4.5-2.3-.2-3.9,1.1-4.9,3.1-.6,1.2-.3,2.1-.5,3.5-.2,1.5-.1,2.3-.5,3.8-.5,1.4-1.3,2.6-2.4,3.6l-11,11.9-42.9,46.5-3.2-3,43.2-46.7h0Z"/>
    <path class="st21" d="M429.5,283s2.7,13.4,11.9,33.4c4.7-1.7,7.4-2.8,12.4-2.8s7.7.9,12.4,2.8c9.2-20.1,11.9-33.4,11.9-33.4l-24.2-31.2-24.2,31.2h0Z"/>
    <path d="M456.1,262.4l16.8,21.6s-2.2,10.5-9.1,26.4c-2.6-.6-4.9-1.1-7.7-1.3v-46.7h0ZM451.4,262.4l-16.8,21.6s2.2,10.5,9.1,26.4c2.6-.6,4.9-1.1,7.7-1.3v-46.7h0Z"/>
  </g>
  <g>
    <path d="M503.6,249.2h82.2v82h-82.2v-82Z"/>
    <path class="st21" d="M515.1,249.2h12.2v82h-12.2v-82ZM538.6,249.2h12.2v82h-12.2v-82ZM562.1,249.2h12.2v82h-12.2v-82Z"/>
  </g>
  <g>
    <path d="M413,402.4c.2,1.5.8,4,2.2,6.6,1.5,2.3.9,2.3,4.3,6,1.6,1.8,4.2,3.4,6.2,4.5,2,1.1,3.5,1.6,6.8,2.5,6.5,1.7,11.1,1.8,16.6,1.6,4.3-.2,7.5-.7,10.2-1.1,3.9-.5,6.7-.8,11.1-1,2.1-.1,4.1-.1,6.1,0,2.4.1,4.8.5,7.3,1,3.7.8,7.4,1.9,11,3.2v-85.7s-82.2,0-82.2,0v58.5s.2,2.9.3,3.8h0Z"/>
    <path class="st20" d="M422.5,417.4l3.9,2.2,5.3,1.9v-81.5h-9.1v77.4ZM468.2,421.1v-81.1s-9.1,0-9.1,0v82.4s6.2-.8,9.1-1v-.3ZM486.4,340h-9.1v81.4c3,.3,6,.9,9.1,1.7v-83.1h0ZM449.9,340v83.3c0,0-6.1.3-9.2,0v-83.3h9.2Z"/>
  </g>
  <path d="M585.5,402.4c-.3,2.3-1.1,4.5-2.2,6.6-1.5,2.3-.9,2.3-4.3,6-1.6,1.9-4.2,3.4-6.2,4.5-2,1.1-3.5,1.6-6.8,2.5-6.5,1.7-11.1,1.8-16.6,1.6-4.3-.2-7.5-.7-10.2-1.1-3.9-.5-6.7-.8-11.1-1-2,0-4.1,0-6.1,0-2.4.1-4.8.5-7.3,1-5.5,1.1-11,3.2-11,3.2v-85.7s82.2,0,82.2,0v58.5s-.2,2.9-.3,3.8h0Z"/>
  <g id="b">
    <path class="st21" d="M524.6,346.9l-.6.3c-.3.3-.4.5-.8.8-.5.4-.8.5-1.2.9-.2.2-.4.2-.6.4-.2.3,0,.6-.2,1-.2.4-.4.6-.7.9-.4.4-.7.6-1.1,1-.4.4-.6.7-1.1,1-.1,0-.2.1-.3.2-.2,0-.3,0-.6,0-.4.1-.5.6-.8.7.1.2,0,.4.2.6.2.3.7,1.2.8,1.4.2.3.3.7.5.8.5.2.9.2,1.3.1.8.2,1.3.2,2,.5.6.2.9.6,1.5.8.5.2.8.3,1.3.4.4,0,.6.1,1,.1.2,0,.4-.1.6-.2h.1v.4s0,0,0,0h0l2.1.9c0,.1-.2.3-.2.4,0,.3-.1.7,0,.8.6,1.9,1.2,3.1,1.5,3.2.6.2.8.9,1.2,1.5-.1.1-.2.2-.3.3-.6.6-1.2,1-1.7,1.8-.8,1.2-1.2,1.2-.3,2.8.5.9.8,1.1,1.5,2.4.4.7.6,1.2.8,2,.2.8.3,1.2.3,2l1,.4.7-.6.6-1.2v-.9c-.2-.2-.3-.5-.2-.8,0-.4.5-.3.7-.6.3-.5-.3-.7-.7-1.1-.6-.7-1.4-.8-1.6-1.8,0-.3,0-.4.4-.7.9-.8,1.1-1,2-1.8.2.1.6.2,1,.1.3,0,.5.1,1.4.4.6.2.9,0,1.2,0h.4c0,.1.1.3.1.6,0,1-.2,3,.2,3.5.1.2.2.3.3.5,0,.2.2.4.2.7,0,.7,0,1.1,0,1.9,0,.7,0,1-.2,1.8,0,.5-.2.7-.4,1.1-.3.4-.6.4-1,.7v1c0,0,1,.5,1,.5l1.3.3.7-.3c0-.2,0-.4.2-.6.1-.2.2-.4.5-.5.4-.1.8.1.9-.1.2-.2,0-.3,0-.8,0-.7-.2-1-.3-1.6-.2-.9-.2-1.8-.2-2.8,0-.6,0-1,.2-1.6.2-.9.5-1.3.7-2.2.2-1,.3-1.6.4-2.5,3.2.5,5.8.4,9.3-.4.2,0,.8-.2.8-.2.8.7,1.7,1.3,2.7,1.6v1c0,.3,0,.5.1.7,0,.1.2.2.4.3.3,0,.5,0,.7-.2.2-.2.2-.5.2-.8,0-.1,0-.6,0-.7.4,0,.5,0,.9,0s.5,0,.9,0v.5c0,.2,0,.4,0,.7.1.2.2.4.5.4.2,0,.3,0,.5,0,.3-.2.3-.5.3-.8,0-.1,0-.7,0-.8l1-.4c0,.2,0,.5,0,.8,0,.3-.1.6-.2.9-.2.6-.4.9-.8,1.4-.4.6-.6,1-1,1.6-.2.3-.4.4-.6.7-.3.3-.3.6-.6.9-.3.4-.5.7-.9,1.1-.7.5-1.2.1-2.1.8l-.2,1,1.4.5,1.3.2.4-.2c0-.3,0-.5.2-.8.2-.3.4-.4.8-.4.4,0,.8,0,1-.2.3-.3.3-.9.6-1.5.7-1.5,1.8-2.8,3-3.9.6-.6,1.1-.8,1.7-1.5.2-.3.5-.5.5-.9,0-.3-.1-.4-.2-.7,0-.4-.2-1-.2-1,1.5.8,1,.6,1.3,1.4.2.6,0,1,0,1.7.1.8.5,1.1.5,1.9,0,.9-.1,1.4-.3,2.3-.2.8-.1,1.3-.5,2-.2.6-.6,1.2-1.2,1.6-.2.2-.4.2-.6.4v1c-.1,0,1,.4,1,.4l1.6.4.4-.4c.2-.6,0-1.6.4-1.7.4,0,.7,0,.8-.3,0-.1,0-.3,0-.6.2-1.9.4-3.6.6-4.5.2-1,.2-1.2.4-1.9.2-.7,0-.3.4-1.7.7-2.1-.2-2.4-1.1-3.6-.5-.7-.6-1-.7-1.5,0-.8.2-1.5.1-2.8,0-1,0-1.9,0-2.9.1,0,.2-.1.3-.2,1.2-.6,1.6-.8,2.4-2.5.2-.5.3-1,.3-1.5s0-.7,0-1c0-.4-.2-.6-.3-.9-.1-.3-.3-.6-.6-.9-.8-.9-1.8-1.1-2.7-1.5-1.5-.5-2.5-.4-4.1-.6-1.7-.1-2.6-.1-4.3,0-2,.1-3.1.5-5.1.8-1.9.2-3,.4-4.9.4-2.3,0-4.4-.5-5.8-.3-2.5.2-2.5.8-6.2,1.1-1.9.1-3.8.2-3.8.2l-2.2-.7c.9-.3,1.1-.5,1.5-1,.3-.4.2-.7.6-1.1.3-.3.5-.6.8-1-.3-.2-.6-.4-.9-.4-.4,0-.6,0-.9,0-.5,0-.8.1-1.2.3-.4.2-.6.4-.8.6,0,0-1.3-.8-2.2-1.2-1.1-.5-1.6-.7-3-.9h0ZM526.6,358.8h0,0s0,0,0,0h0Z"/>
    <g>
      <path class="st10" d="M568.8,359.5l-.8.2c-.9.4-1.6.4-2.6.5-2.7.2-4.3-1.1-7-.9-1.4.1-2,1.2-3.5,1.5-.7.2-1,.2-1.7.3l.5-1s-1.3.3-2.1.3-.9,0-1.5-.1l1-1s-.8-.1-1.3-.3c-.4-.2-.7-.4-1-.6.7-.1,1-.2,1.7-.4,1.5-.4,2-1.1,3.9-1.3,1.2-.1,3,0,7.6.7,3,.5,4.4.3,5.5-.3.8-.4,1-1,1.1-1.8,0-.8-.4-1.4-.9-1.8-.1-.1-.4-.3-1.1-.4"/>
      <path class="st3" d="M524.8,350.6c-.5,0-.9,0-1.3.3-.5.3-.5.7-.9,1.1.5.1.7.4,1.1.3.3,0,.5-.2.8-.5.3-.4.4-.7.4-1.2h0Z"/>
      <path class="st10" d="M536,363.8s.3.5.4.8c.2.5.4.9.5,1.5.2.8.1,1.3.2,2.1,0,.1,0,.3,0,.4v1.1M544,362.7l-.3,1.3c-.4,1.4-.7,2.1-1,3.5,0,.2,0,.5,0,.6M531.8,364.2c.8.2.5,3.4,1.8,4.1"/>
      <path class="st8" d="M560.1,369.8l.4-.2c1-.4,1.9-1,2.7-1.8"/>
      <path class="st10" d="M552.4,368c3.5-.9,5.9-2.6,7.6-2.9M556,363.6c.3,0,.6,0,.8,0,1.5-.2,1.7.7,2.7,1.3,1.8,1,2.1,2.3,4.3,3.4h.3c0,.1.8.6.8.6"/>
      <path class="st3" d="M517.7,354.5c.3,0,.4,0,.7,0,.3,0,.5-.2.8-.2.3,0,.5,0,.7.1.1.1.2.2.3.3,0,.2.2.3.1.5,0,.3-.3.4-.6.4s-.4,0-.5-.3c0-.1,0-.3,0-.4-.3.1-.5.1-.8,0-.3-.1-.5-.2-.6-.5Z"/>
    </g>
    <path d="M525.1,364.2c-.8-.2-2-.8-2-.8.3-.2.6-.3.9-.5.4-.4.4-.8.6-1.3.2-.5.2-1,.7-1.3.3-.2.8-.3,1.1-.2.3.1.8.4.8.8.1.6-.2.9-.2,1.5,0,.6-.3.9-.2,1.5,0,.4.2.5.4.9,0,0-1.3-.1-2-.4ZM524.1,365.1c0-.3.3-.6.6-.6.3,0,.6.3.6.6s-.3.6-.6.6c-.3,0-.6-.3-.6-.6h0ZM522.4,348.6h-.1c-.4-.4-.4-.8-.6-1.2-.2-.4-.3-.7-.3-1.2,0-.4,0-.6,0-1s0-.6,0-.9c0-.4,0-.6-.2-.9,0-.2-.4-.3-.3-.4,0-.1.2,0,.4,0,.4,0,.6.2.9.4.4.3.5.6.7,1,.2.5.2.9.4,1.5,0,.3.1.5.3.7.2.3.3.4.5.6h0c-.3.3-.4.6-.8.8-.3.3-.6.4-.8.6h0s0,0,0,0ZM526,359.2l2.2,1c1.5-.9,2.7-2.3,3.5-3.9.9-1.7,1-2.6,1.4-4.3l-1.8-.6h-.3c-.6,1.8-.7,2.8-1.6,4.3-.8,1.3-1.7,2.3-2.7,3l-.7.5h0ZM530.9,377.4c.4-.5.5-.8.9-1.3.5-.5.8-.7,1.3-1.1.2,0,.3,0,.5,0,0,.9-.2,1.9-.5,2.8-.1.4-.2.6-.4,1-.2.2-.3.3-.5.5-.5-.7-1.3-1.3-1.3-1.9h0ZM563.9,379.2c.6.2.9.3,1.5.5.6.3.9.6,1.5.9,0,.2,0,.3,0,.5-.9.2-1.9.3-2.8.3-.4,0-.7,0-1-.1-.3-.1-.4-.2-.6-.3.6-.7.9-1.6,1.5-1.8h0ZM554.2,377.2c.6.2.9.3,1.5.5.6.3.9.6,1.5.9,0,.2,0,.3,0,.5-.9.2-1.9.3-2.8.3-.4,0-.7,0-1-.1-.3-.1-.4-.2-.6-.3.6-.7.9-1.6,1.5-1.8h0ZM536.8,379.3c.6.2.9.3,1.5.5.6.3.9.6,1.5.9,0,.2,0,.3,0,.5-.9.2-1.9.3-2.8.3-.4,0-.7,0-1-.1-.3-.1-.4-.2-.6-.3.6-.7.9-1.6,1.5-1.8h0ZM527.8,349.5c-.6-.3-1-1-.7-1.6.2-.2.4-.2.6-.4.2-.3.1-.5.1-.8,0-.4-.1-.6-.2-.9,0-.4-.2-.6-.1-1,0-.6,0-1.1.3-1.6.2-.3.7-.6.8-.6.1.1,0,.5,0,.8,0,.5.1.7.3,1.1.2.6.5.8.7,1.4.2.5.4.8.4,1.4,0,.5,0,.7-.2,1.1-.1.3-.3.6-.6.8-.3.2-.5.3-.8.4-.2,0-.4,0-.6-.1h0Z"/>
  </g>
  <g id="b1" data-name="b">
    <path class="st21" d="M524.6,383.5l-.6.3c-.3.3-.4.5-.8.8-.5.4-.8.5-1.2.9-.2.2-.4.2-.6.4-.2.3,0,.6-.2,1-.2.4-.4.6-.7.9-.4.4-.7.6-1.1,1-.4.4-.6.7-1.1,1-.1,0-.2.1-.3.2-.2,0-.3,0-.6,0-.4.1-.5.6-.8.7.1.2,0,.4.2.6.2.3.7,1.2.8,1.4.2.3.3.7.5.8.5.2.9.2,1.3.1.8.2,1.3.2,2,.5.6.2.9.6,1.5.8.5.2.8.3,1.3.4.4,0,.6.1,1,.1.2,0,.4-.1.6-.2h.1v.4s0,0,0,0h0l2.1.9c0,.1-.2.3-.2.4,0,.3-.1.7,0,.8.6,1.9,1.2,3.1,1.5,3.2.6.2.8.9,1.2,1.5-.1.1-.2.2-.3.3-.6.6-1.2,1-1.7,1.8-.8,1.2-1.2,1.2-.3,2.8.5.9.8,1.1,1.5,2.4.4.7.6,1.2.8,2,.2.8.3,1.2.3,2l1,.4.7-.6.6-1.2v-.9c-.2-.2-.3-.5-.2-.8,0-.4.5-.3.7-.6.3-.5-.3-.7-.7-1.1-.6-.7-1.4-.8-1.6-1.8,0-.3,0-.4.4-.7.9-.8,1.1-1,2-1.8.2.1.6.2,1,.1.3,0,.5.1,1.4.4.6.2.9,0,1.2,0h.4c0,.1.1.3.1.6,0,1-.2,3,.2,3.5.1.2.2.3.3.5,0,.2.2.4.2.7,0,.7,0,1.1,0,1.9,0,.7,0,1-.2,1.8,0,.5-.2.7-.4,1.1-.3.4-.6.4-1,.7v1c0,0,1,.5,1,.5l1.3.3.7-.3c0-.2,0-.4.2-.6.1-.2.2-.4.5-.5.4-.1.8.1.9-.1.2-.2,0-.3,0-.8,0-.7-.2-1-.3-1.6-.2-.9-.2-1.8-.2-2.8,0-.6,0-1,.2-1.6.2-.9.5-1.3.7-2.2.2-1,.3-1.6.4-2.5,3.2.5,5.8.4,9.3-.4.2,0,.8-.2.8-.2.8.7,1.7,1.3,2.7,1.6v1c0,.3,0,.5.1.7,0,.1.2.2.4.3.3,0,.5,0,.7-.2.2-.2.2-.5.2-.8,0-.1,0-.6,0-.7.4,0,.5,0,.9,0s.5,0,.9,0v.5c0,.2,0,.4,0,.7.1.2.2.4.5.4.2,0,.3,0,.5,0,.3-.2.3-.5.3-.8,0-.1,0-.7,0-.8l1-.4c0,.2,0,.5,0,.8,0,.3-.1.6-.2.9-.2.6-.4.9-.8,1.4-.4.6-.6,1-1,1.6-.2.3-.4.4-.6.7-.3.3-.3.6-.6.9-.3.4-.5.7-.9,1.1-.7.5-1.2.1-2.1.8l-.2,1,1.4.5,1.3.2.4-.2c0-.3,0-.5.2-.8.2-.3.4-.4.8-.4.4,0,.8,0,1-.2.3-.3.3-.9.6-1.5.7-1.5,1.8-2.8,3-3.9.6-.6,1.1-.8,1.7-1.5.2-.3.5-.5.5-.9,0-.3-.1-.4-.2-.7,0-.4-.2-1-.2-1,1.5.8,1,.6,1.3,1.4.2.6,0,1,0,1.7.1.8.5,1.1.5,1.9,0,.9-.1,1.4-.3,2.3-.2.8-.1,1.3-.5,2-.2.6-.6,1.2-1.2,1.6-.2.2-.4.2-.6.4v1c-.1,0,1,.4,1,.4l1.6.4.4-.4c.2-.6,0-1.6.4-1.7.4,0,.7,0,.8-.3,0-.1,0-.3,0-.6.2-1.9.4-3.6.6-4.5.2-1,.2-1.2.4-1.9.2-.7,0-.3.4-1.7.7-2.1-.2-2.4-1.1-3.6-.5-.7-.6-1-.7-1.5,0-.8.2-1.5.1-2.8,0-1,0-1.9,0-2.9.1,0,.2-.1.3-.2,1.2-.6,1.6-.8,2.4-2.5.2-.5.3-1,.3-1.5s0-.7,0-1c0-.4-.2-.6-.3-.9-.1-.3-.3-.6-.6-.9-.8-.9-1.8-1.1-2.7-1.5-1.5-.5-2.5-.4-4.1-.6-1.7-.1-2.6-.1-4.3,0-2,.1-3.1.5-5.1.8-1.9.2-3,.4-4.9.4-2.3,0-4.4-.5-5.8-.3-2.5.2-2.5.8-6.2,1.1-1.9.1-3.8.2-3.8.2l-2.2-.7c.9-.3,1.1-.5,1.5-1,.3-.4.2-.7.6-1.1.3-.3.5-.6.8-1-.3-.2-.6-.4-.9-.4-.4,0-.6,0-.9,0-.5,0-.8.1-1.2.3-.4.2-.6.4-.8.6,0,0-1.3-.8-2.2-1.2-1.1-.5-1.6-.7-3-.9h0ZM526.6,395.4h0,0s0,0,0,0h0Z"/>
    <g>
      <path class="st10" d="M568.8,396.1l-.8.2c-.9.4-1.6.4-2.6.5-2.7.2-4.3-1.1-7-.9-1.4.1-2,1.2-3.5,1.5-.7.2-1,.2-1.7.3l.5-1s-1.3.3-2.1.3-.9,0-1.5-.1l1-1s-.8-.1-1.3-.3c-.4-.2-.7-.4-1-.6.7-.1,1-.2,1.7-.4,1.5-.4,2-1.1,3.9-1.3,1.2-.1,3,0,7.6.7,3,.5,4.4.3,5.5-.3.8-.4,1-1,1.1-1.8,0-.8-.4-1.4-.9-1.8-.1-.1-.4-.3-1.1-.4"/>
      <path class="st3" d="M524.8,387.2c-.5,0-.9,0-1.3.3-.5.3-.5.7-.9,1.1.5.1.7.4,1.1.3.3,0,.5-.2.8-.5.3-.4.4-.7.4-1.2h0Z"/>
      <path class="st10" d="M536,400.4s.3.5.4.8c.2.5.4.9.5,1.5.2.8.1,1.3.2,2.1,0,.1,0,.3,0,.4v1.1M544,399.3l-.3,1.3c-.4,1.4-.7,2.1-1,3.5,0,.2,0,.5,0,.6M531.8,400.8c.8.2.5,3.4,1.8,4.1"/>
      <path class="st8" d="M560.1,406.4l.4-.2c1-.4,1.9-1,2.7-1.8"/>
      <path class="st10" d="M552.4,404.6c3.5-.9,5.9-2.6,7.6-2.9M556,400.2c.3,0,.6,0,.8,0,1.5-.2,1.7.7,2.7,1.3,1.8,1,2.1,2.3,4.3,3.4h.3c0,.1.8.6.8.6"/>
      <path class="st3" d="M517.7,391.1c.3,0,.4,0,.7,0,.3,0,.5-.2.8-.2.3,0,.5,0,.7.1.1.1.2.2.3.3,0,.2.2.3.1.5,0,.3-.3.4-.6.4s-.4,0-.5-.3c0-.1,0-.3,0-.4-.3.1-.5.1-.8,0-.3-.1-.5-.2-.6-.5Z"/>
    </g>
    <path d="M525.1,400.8c-.8-.2-2-.8-2-.8.3-.2.6-.3.9-.5.4-.4.4-.8.6-1.3.2-.5.2-1,.7-1.3.3-.2.8-.3,1.1-.2.3.1.8.4.8.8.1.6-.2.9-.2,1.5,0,.6-.3.9-.2,1.5,0,.4.2.5.4.9,0,0-1.3-.1-2-.4ZM524.1,401.7c0-.3.3-.6.6-.6.3,0,.6.3.6.6s-.3.6-.6.6c-.3,0-.6-.3-.6-.6h0ZM522.4,385.2h-.1c-.4-.4-.4-.8-.6-1.2-.2-.4-.3-.7-.3-1.2,0-.4,0-.6,0-1s0-.6,0-.9c0-.4,0-.6-.2-.9,0-.2-.4-.3-.3-.4,0-.1.2,0,.4,0,.4,0,.6.2.9.4.4.3.5.6.7,1,.2.5.2.9.4,1.5,0,.3.1.5.3.7.2.3.3.4.5.6h0c-.3.3-.4.6-.8.8-.3.3-.6.4-.8.6h0s0,0,0,0ZM526,395.8l2.2,1c1.5-.9,2.7-2.3,3.5-3.9.9-1.7,1-2.6,1.4-4.3l-1.8-.6h-.3c-.6,1.8-.7,2.8-1.6,4.3-.8,1.3-1.7,2.3-2.7,3l-.7.5h0ZM530.9,414c.4-.5.5-.8.9-1.3.5-.5.8-.7,1.3-1.1.2,0,.3,0,.5,0,0,.9-.2,1.9-.5,2.8-.1.4-.2.6-.4,1-.2.2-.3.3-.5.5-.5-.7-1.3-1.3-1.3-1.9h0ZM563.9,415.8c.6.2.9.3,1.5.5.6.3.9.6,1.5.9,0,.2,0,.3,0,.5-.9.2-1.9.3-2.8.3-.4,0-.7,0-1-.1-.3-.1-.4-.2-.6-.3.6-.7.9-1.6,1.5-1.8h0ZM554.2,413.8c.6.2.9.3,1.5.5.6.3.9.6,1.5.9,0,.2,0,.3,0,.5-.9.2-1.9.3-2.8.3-.4,0-.7,0-1-.1-.3-.1-.4-.2-.6-.3.6-.7.9-1.6,1.5-1.8h0ZM536.8,415.9c.6.2.9.3,1.5.5.6.3.9.6,1.5.9,0,.2,0,.3,0,.5-.9.2-1.9.3-2.8.3-.4,0-.7,0-1-.1-.3-.1-.4-.2-.6-.3.6-.7.9-1.6,1.5-1.8h0ZM527.8,386.1c-.6-.3-1-1-.7-1.6.2-.2.4-.2.6-.4.2-.3.1-.5.1-.8,0-.4-.1-.6-.2-.9,0-.4-.2-.6-.1-1,0-.6,0-1.1.3-1.6.2-.3.7-.6.8-.6.1.1,0,.5,0,.8,0,.5.1.7.3,1.1.2.6.5.8.7,1.4.2.5.4.8.4,1.4,0,.5,0,.7-.2,1.1-.1.3-.3.6-.6.8-.3.2-.5.3-.8.4-.2,0-.4,0-.6-.1h0Z"/>
  </g>
  <path class="st14" d="M412.7,249.2h82.2v82h-82.2v-82ZM503.6,249.2h82.2v82h-82.2v-82ZM413,402.4c.2,1.5.8,4,2.2,6.6,1.5,2.3.9,2.3,4.3,6,1.6,1.8,4.2,3.4,6.2,4.5,2,1.1,3.5,1.6,6.8,2.5,6.5,1.7,11.1,1.8,16.6,1.6,4.3-.2,7.5-.7,10.2-1.1,3.9-.5,6.7-.8,11.1-1,2.1-.1,4.1-.1,6.1,0,2.4.1,4.8.5,7.3,1,3.7.8,7.4,1.9,11,3.2v-85.7s-82.2,0-82.2,0v58.5s.2,2.9.3,3.8h0ZM585.5,402.4c-.3,2.3-1.1,4.5-2.2,6.6-1.5,2.3-.9,2.3-4.3,6-1.6,1.9-4.2,3.4-6.2,4.5-2,1.1-3.5,1.6-6.8,2.5-6.5,1.7-11.1,1.8-16.6,1.6-4.3-.2-7.5-.7-10.2-1.1-3.9-.5-6.7-.8-11.1-1-2,0-4.1,0-6.1,0-2.4.1-4.8.5-7.3,1-5.5,1.1-11,3.2-11,3.2v-85.7s82.2,0,82.2,0v58.5s-.2,2.9-.3,3.8h0Z"/>
</svg>