<?xml version="1.0" encoding="UTF-8"?>
<svg id="Calque_1" xmlns="http://www.w3.org/2000/svg" version="1.1" viewBox="0 0 800 500">
  <!-- Generator: Adobe Illustrator 29.4.0, SVG Export Plug-In . SVG Version: 2.1.0 Build 152)  -->
  <defs>
    <style>
      .st0 {
        stroke-width: 1.5px;
      }

      .st0, .st1, .st2, .st3, .st4, .st5 {
        fill: #fff;
      }

      .st0, .st2, .st3, .st4, .st5 {
        stroke: #000;
      }

      .st2 {
        stroke-width: 1.1px;
      }

      .st3 {
        stroke-miterlimit: 4;
      }

      .st3, .st4 {
        stroke-width: 1.1px;
      }

      .st4 {
        stroke-miterlimit: 4;
      }

      .st5 {
        stroke-miterlimit: 4;
        stroke-width: 1.1px;
      }
    </style>
  </defs>
  <path d="M0,0h800v500H0V0Z"/>
  <path class="st1" d="M0,166.7h800v166.7H0v-166.7Z"/>
  <g id="c">
    <path id="a" class="st2" d="M396.8,251.3l28.5,62s.5,1.2,1.3.9c.8-.3.3-1.5.3-1.5l-23.7-64M402.5,272.8c-.3,9.4,5.5,14.6,4.7,23-.8,8.4,3.9,13.2,4.9,16.5,1.1,3.3-1.2,5.2-.2,5.7,1,.5,3.1-2.1,2.4-6.8s-4.2-6-3.4-16.3c.8-10.3-4.2-12.7-3-22.1"/>
    <path id="a1" data-name="a" class="st4" d="M396.6,250l2.6,68.2s0,1.3.9,1.3c.9,0,.9-1.3.9-1.3l2.6-68.2M393.6,272c-3.9,8.6-.6,15.6-4.5,23.1-3.9,7.5-1.5,13.7-1.7,17.1-.3,3.4-3.1,4.4-2.4,5.2.7.8,3.6-.8,4.8-5.3s-1.6-7.2,3.1-16.4c4.7-9.2,1-13.3,5.7-21.5"/>
    <path id="a2" data-name="a" class="st5" d="M396.8,248.7l-23.7,64s-.5,1.2.3,1.5c.8.3,1.3-.9,1.3-.9l28.5-62M385.6,267.9c-6.9,6.4-6.5,14.2-13,19.6-6.5,5.4-6.6,12.1-8.1,15.1-1.6,3.1-4.5,2.9-4.2,3.9.4,1,3.7.7,6.5-3.1s1.3-7.3,9.1-13.9c7.9-6.7,6-11.9,13.5-17.7"/>
    <path id="a3" data-name="a" class="st3" d="M397.6,247.6l-46.4,50s-.9.9-.3,1.5c.6.6,1.5-.3,1.5-.3l50-46.4M379.9,261c-8.8,3.3-11.4,10.6-19.5,13.2-8.1,2.5-10.7,8.6-13.3,10.9-2.6,2.2-5.3.9-5.3,2,0,1.1,3.1,2,7.2-.4s4-6.2,13.8-9.4c9.8-3.2,10.1-8.7,19.2-11.2"/>
    <path id="b" d="M404.3,274.4c.5,9.1,5.6,13.1,4.6,21.3,2.2-6.5-3.1-11.6-2.8-21.2M398.4,250.7l19.5,42.6-16.3-43.9"/>
    <path id="b1" data-name="b" d="M394.6,274.2c-3,8.5.2,14.2-3.9,21.4,4.5-5.2,1.5-11.9,5.5-20.7M398.3,250.1l1.7,46.8,1.7-46.8"/>
    <path id="b2" data-name="b" d="M385.8,270.3c-6.1,6.7-5.3,13.2-11.8,18.3,6.2-3,6-10.4,13-17M398.4,249.4l-16.3,43.9,19.5-42.6"/>
    <path id="b3" data-name="b" d="M379.1,263.3c-8.2,3.9-9.9,10.2-17.9,12.4,6.9-.5,9.5-7.3,18.5-10.7M398.7,248.8l-31.9,34.3,34.3-31.9"/>
  </g>
  <g id="c1" data-name="c">
    <path id="a4" data-name="a" class="st2" d="M398.7,246.8l-62,28.5s-1.2.5-.9,1.3c.3.8,1.5.3,1.5.3l64-23.7M377.2,252.5c-9.4-.3-14.6,5.5-23,4.7-8.4-.8-13.2,3.9-16.5,4.9-3.3,1.1-5.2-1.2-5.7-.2-.5,1,2.1,3.1,6.8,2.4s6-4.2,16.3-3.4c10.3.8,12.7-4.2,22.1-3"/>
    <path id="a5" data-name="a" class="st3" d="M400,246.6l-68.2,2.6s-1.3,0-1.3.9c0,.9,1.3.9,1.3.9l68.2,2.6M378,243.6c-8.6-3.9-15.6-.6-23.1-4.5-7.5-3.9-13.7-1.5-17.1-1.7-3.4-.3-4.4-3.1-5.2-2.4-.8.7.8,3.6,5.3,4.8s7.2-1.6,16.4,3.1c9.2,4.7,13.3,1,21.5,5.7"/>
    <path id="a6" data-name="a" class="st5" d="M401.3,246.8l-64-23.7s-1.2-.5-1.5.3c-.3.8.9,1.3.9,1.3l62,28.5M382.1,235.6c-6.4-6.9-14.2-6.5-19.6-13-5.4-6.5-12.1-6.6-15.1-8.1-3.1-1.6-2.9-4.5-3.9-4.2-1,.4-.7,3.7,3.1,6.5s7.3,1.3,13.9,9.1c6.7,7.9,11.9,6,17.7,13.5"/>
    <path id="a7" data-name="a" class="st4" d="M402.4,247.6l-50-46.4s-.9-.9-1.5-.3c-.6.6.3,1.5.3,1.5l46.4,50M389,229.9c-3.3-8.8-10.6-11.4-13.2-19.5-2.5-8.1-8.6-10.7-10.9-13.3-2.2-2.6-.9-5.3-2-5.3-1.1,0-2,3.1.4,7.2s6.2,4,9.4,13.8c3.2,9.8,8.7,10.1,11.2,19.2"/>
    <path id="b4" data-name="b" d="M375.6,254.3c-9.1.5-13.1,5.6-21.3,4.6,6.5,2.2,11.6-3.1,21.2-2.8M399.3,248.4l-42.6,19.5,43.9-16.3"/>
    <path id="b5" data-name="b" d="M375.8,244.6c-8.5-3-14.2.2-21.4-3.9,5.2,4.5,11.9,1.5,20.7,5.5M399.9,248.3l-46.8,1.7,46.8,1.7"/>
    <path id="b6" data-name="b" d="M379.7,235.8c-6.7-6.1-13.2-5.3-18.3-11.8,3,6.2,10.4,6,17,13M400.6,248.4l-43.9-16.3,42.6,19.5"/>
    <path id="b7" data-name="b" d="M386.7,229.1c-3.9-8.2-10.2-9.9-12.4-17.9.5,6.9,7.3,9.5,10.7,18.5M401.2,248.7l-34.3-31.9,31.9,34.3"/>
  </g>
  <g id="c2" data-name="c">
    <path id="a8" data-name="a" class="st2" d="M403.2,248.7l-28.5-62s-.5-1.2-1.3-.9c-.8.3-.3,1.5-.3,1.5l23.7,64M397.5,227.2c.3-9.4-5.5-14.6-4.7-23,.8-8.4-3.9-13.2-4.9-16.5-1.1-3.3,1.2-5.2.2-5.7-1-.5-3.1,2.1-2.4,6.8s4.2,6,3.4,16.3c-.8,10.3,4.2,12.7,3,22.1"/>
    <path id="a9" data-name="a" class="st4" d="M403.4,250l-2.6-68.2s0-1.3-.9-1.3c-.9,0-.9,1.3-.9,1.3l-2.6,68.2M406.4,228c3.9-8.6.6-15.6,4.5-23.1,3.9-7.5,1.5-13.7,1.7-17.1.3-3.4,3.1-4.4,2.4-5.2-.7-.8-3.6.8-4.8,5.3s1.6,7.2-3.1,16.4c-4.7,9.2-1,13.3-5.7,21.5"/>
    <path id="a10" data-name="a" class="st5" d="M403.2,251.3l23.7-64s.5-1.2-.3-1.5c-.8-.3-1.3.9-1.3.9l-28.5,62M414.4,232.1c6.9-6.4,6.5-14.2,13-19.6,6.5-5.4,6.6-12.1,8.1-15.1,1.6-3.1,4.5-2.9,4.2-3.9-.4-1-3.7-.7-6.5,3.1s-1.3,7.3-9.1,13.9c-7.9,6.7-6,11.9-13.5,17.7"/>
    <path id="a11" data-name="a" class="st3" d="M402.4,252.4l46.4-50s.9-.9.3-1.5c-.6-.6-1.5.3-1.5.3l-50,46.4M420.1,239c8.8-3.3,11.4-10.6,19.5-13.2,8.1-2.5,10.7-8.6,13.3-10.9,2.6-2.2,5.3-.9,5.3-2,0-1.1-3.1-2-7.2.4s-4,6.2-13.8,9.4c-9.8,3.2-10.1,8.7-19.2,11.2"/>
    <path id="b8" data-name="b" d="M395.7,225.6c-.5-9.1-5.6-13.1-4.6-21.3-2.2,6.5,3.1,11.6,2.8,21.2M401.6,249.3l-19.5-42.6,16.3,43.9"/>
    <path id="b9" data-name="b" d="M405.4,225.8c3-8.5-.2-14.2,3.9-21.4-4.5,5.2-1.5,11.9-5.5,20.7M401.7,249.9l-1.7-46.8-1.7,46.8"/>
    <path id="b10" data-name="b" d="M414.2,229.7c6.1-6.7,5.3-13.2,11.8-18.3-6.2,3-6,10.4-13,17M401.6,250.6l16.3-43.9-19.5,42.6"/>
    <path id="b11" data-name="b" d="M420.9,236.7c8.2-3.9,9.9-10.2,17.9-12.4-6.9.5-9.5,7.3-18.5,10.7M401.3,251.2l31.9-34.3-34.3,31.9"/>
  </g>
  <g id="c3" data-name="c">
    <path id="a12" data-name="a" class="st2" d="M401.3,253.2l62-28.5s1.2-.5.9-1.3c-.3-.8-1.5-.3-1.5-.3l-64,23.7M422.8,247.5c9.4.3,14.6-5.5,23-4.7,8.4.8,13.2-3.9,16.5-4.9,3.3-1.1,5.2,1.2,5.7.2.5-1-2.1-3.1-6.8-2.4s-6,4.2-16.3,3.4c-10.3-.8-12.7,4.2-22.1,3"/>
    <path id="a13" data-name="a" class="st3" d="M400,253.4l68.2-2.6s1.3,0,1.3-.9c0-.9-1.3-.9-1.3-.9l-68.2-2.6M422,256.4c8.6,3.9,15.6.6,23.1,4.5,7.5,3.9,13.7,1.5,17.1,1.7,3.4.3,4.4,3.1,5.2,2.4.8-.7-.8-3.6-5.3-4.8s-7.2,1.6-16.4-3.1c-9.2-4.7-13.3-1-21.5-5.7"/>
    <path id="a14" data-name="a" class="st5" d="M398.7,253.2l64,23.7s1.2.5,1.5-.3c.3-.8-.9-1.3-.9-1.3l-62-28.5M417.9,264.4c6.4,6.9,14.2,6.5,19.6,13,5.4,6.5,12.1,6.6,15.1,8.1,3.1,1.6,2.9,4.5,3.9,4.2,1-.4.7-3.7-3.1-6.5s-7.3-1.3-13.9-9.1c-6.7-7.9-11.9-6-17.7-13.5"/>
    <path id="a15" data-name="a" class="st4" d="M397.6,252.4l50,46.4s.9.9,1.5.3c.6-.6-.3-1.5-.3-1.5l-46.4-50M411,270.1c3.3,8.8,10.6,11.4,13.2,19.5,2.5,8.1,8.6,10.7,10.9,13.3,2.2,2.6.9,5.3,2,5.3,1.1,0,2-3.1-.4-7.2s-6.2-4-9.4-13.8c-3.2-9.8-8.7-10.1-11.2-19.2"/>
    <path id="b12" data-name="b" d="M424.4,245.7c9.1-.5,13.1-5.6,21.3-4.6-6.5-2.2-11.6,3.1-21.2,2.8M400.7,251.6l42.6-19.5-43.9,16.3"/>
    <path id="b13" data-name="b" d="M424.2,255.4c8.5,3,14.2-.2,21.4,3.9-5.2-4.5-11.9-1.5-20.7-5.5M400.1,251.7l46.8-1.7-46.8-1.7"/>
    <path id="b14" data-name="b" d="M420.3,264.2c6.7,6.1,13.2,5.3,18.3,11.8-3-6.2-10.4-6-17-13M399.4,251.6l43.9,16.3-42.6-19.5"/>
    <path id="b15" data-name="b" d="M413.3,270.9c3.9,8.2,10.2,9.9,12.4,17.9-.5-6.9-7.3-9.5-10.7-18.5M398.8,251.3l34.3,31.9-31.9-34.3"/>
  </g>
  <circle class="st0" cx="400" cy="250" r="27.8"/>
  <path id="h" d="M409.5,244.1c-1.9,0-3.7.8-4.8,2.5,2.1,1.9,6.9,2.1,10.1-.2-1.4-1.5-3.3-2.3-5.3-2.3h0ZM409.4,244.5c1.8,0,3.6.8,3.8,1.7-2.1,2.4-5.5,2.1-7.7.4.9-1.5,2.4-2.1,3.9-2.1h0Z"/>
  <path id="d" d="M409.8,242.7c-2.8,0-3.4.6-4.7,1.7-1.3,1.1-1.9.9-2.1,1.1-.2.2,0,.9.4.6s1.3-.6,2.6-1.7c1.3-1.1,2.6-1.1,3.8-1.1,3.8,0,6,3.2,6.4,3,.4-.2-2.1-3.6-6.4-3.6h0Z"/>
  <path id="e" d="M417.5,244c-4.9-4.3-11.1-4.9-14.5-1.7-.8,1.1-1.4,2.3-1.6,3.6-.4,2.4.3,5.1,2.2,7.8-.2,0-.6.2-.9.4-1.7-3.2-2.3-6.6-1.7-9.7.1-.8.4-1.6.7-2.4,4.7-3.8,11.1-4.3,15.8,2.1h0Z"/>
  <circle id="f" cx="409.4" cy="246.1" r="1.9"/>
  <path id="g" d="M415,247.4c-3.6,2.8-7.3,2.6-9.4,1.3-2.1-1.3-2.1-1.7-1.7-1.7s.9.4,2.6,1.3c1.7.9,4.3.9,8.5-.9h0Z"/>
  <path d="M395.8,253.8c-.9.2-1.6,1-1.6,1.9s.9,1.9,1.9,1.9c.6,0,1.2-.3,1.6-.8.7.6,1.8.6,2.3.6,0,0,.2,0,.2,0,.5,0,1.6,0,2.3-.6.4.5.9.8,1.6.8,1.1,0,1.9-.8,1.9-1.9s-.6-1.7-1.6-1.9c.5.2.8.7.8,1.2,0,.7-.6,1.3-1.3,1.3h0c-.7,0-1.2-.5-1.3-1.2-.2.4-1,1.7-2.7,1.7-1.6,0-2.4-1.3-2.7-1.7,0,.7-.6,1.2-1.3,1.2-.7,0-1.3-.6-1.3-1.3h0c0-.5.3-1,.8-1.2h0ZM397.8,259.5c-2.1,0-3,1.9-4.9,3.2,1.1-.4,1.9-1.3,3.4-2.1s2.8.2,3.6.2h0c.9,0,2.1-1,3.6-.2,1.5.9,2.4,1.7,3.4,2.1-1.9-1.3-2.8-3.2-4.9-3.2s-1.3.2-2.1.7h0c-.9-.4-1.7-.7-2.1-.7Z"/>
  <path d="M397.1,262.1c-.8,0-2,.2-3.6.7,3.8-.9,4.7.4,6.4.4h0c1.7,0,2.6-1.3,6.4-.4-4.3-1.3-5.1-.4-6.4-.4h0c-.8,0-1.4-.3-2.8-.2h0Z"/>
  <path d="M393.8,262.7c-.2,0-.5,0-.8,0,4.5.4,2.3,3,7,3h0c4.7,0,2.6-2.6,7.1-3-4.7-.4-3.2,2.3-7.1,2.3h0c-3.6,0-2.5-2.4-6.2-2.4h0ZM403.9,269.7c0-2.1-1.7-3.8-3.8-3.8-2.1,0-3.8,1.7-3.8,3.8.4-1.8,2-3,3.8-3,1.8,0,3.4,1.3,3.8,3Z"/>
  <path id="e1" data-name="e" d="M382.7,244c4.9-4.3,11.1-4.9,14.5-1.7.8,1.1,1.4,2.3,1.6,3.6.4,2.4-.3,5.1-2.2,7.8.2,0,.6.2.9.4,1.7-3.2,2.3-6.6,1.7-9.7-.1-.8-.4-1.6-.7-2.4-4.7-3.8-11.1-4.3-15.8,2.1h0Z"/>
  <path id="d1" data-name="d" d="M390.4,242.7c2.8,0,3.4.6,4.7,1.7,1.3,1.1,1.9.9,2.1,1.1.2.2,0,.9-.4.6s-1.3-.6-2.6-1.7c-1.3-1.1-2.6-1.1-3.8-1.1-3.8,0-6,3.2-6.4,3-.4-.2,2.1-3.6,6.4-3.6h0Z"/>
  <path id="h1" data-name="h" d="M390.3,244.1c-1.9,0-3.7.8-4.8,2.5,2.1,1.9,6.9,2.1,10.1-.2-1.4-1.5-3.3-2.3-5.3-2.3h0ZM390.3,244.5c1.8,0,3.6.8,3.8,1.7-2.1,2.4-5.5,2.1-7.7.4.9-1.5,2.4-2.1,3.9-2.1h0Z"/>
  <circle id="f1" data-name="f" cx="390.5" cy="246.1" r="1.9"/>
  <path id="g1" data-name="g" d="M385.3,247.4c3.6,2.8,7.3,2.6,9.4,1.3,2.1-1.3,2.1-1.7,1.7-1.7s-.9.4-2.6,1.3c-1.7.9-4.3.9-8.5-.9h0Z"/>
</svg>