<?xml version="1.0" encoding="UTF-8"?>
<svg id="Calque_1" xmlns="http://www.w3.org/2000/svg" version="1.1" xmlns:xlink="http://www.w3.org/1999/xlink" viewBox="0 0 900 600">
  <!-- Generator: Adobe Illustrator 29.4.0, SVG Export Plug-In . SVG Version: 2.1.0 Build 152)  -->
  <defs>
    <style>
      .st0 {
        stroke-miterlimit: 9;
        stroke-width: 4.5px;
      }

      .st0, .st1, .st2, .st3, .st4, .st5 {
        fill: none;
      }

      .st0, .st3, .st4, .st5 {
        stroke: #fff;
      }

      .st1 {
        stroke: #000;
        stroke-width: 2px;
      }

      .st6 {
        fill: #fff;
      }

      .st3 {
        stroke-width: 4.5px;
      }

      .st3, .st4, .st5 {
        stroke-miterlimit: 9;
      }

      .st7 {
        clip-path: url(#clippath-1);
      }

      .st4 {
        stroke-width: 4.5px;
      }

      .st5 {
        stroke-width: 4.5px;
      }

      .st8 {
        clip-path: url(#clippath);
      }
    </style>
    <clipPath id="clippath">
      <rect class="st2" y="-.8" width="900" height="600.8"/>
    </clipPath>
    <clipPath id="clippath-1">
      <path class="st2" d="M478.8,98.1l-1.4-.6,1.4.6ZM518.8,493.7l-5.4-3.2-16,4-14-8.8v3.4l-3.4-4.6,4-4-.6-12h4.6l2.8-8,3.2-1.4-2.6-4,4-1.4-.6-6-4-2,5.2-.6-3.2-14.6-8-8-4.8,2,2,6.6h-16.6l-14-6-5.4-2.6-26.6-6-2,3.2-9.4.8h-2.6l-4,6.6-11.4-8-6,2,.8,5.4-14.8-8-.6,5.2-14.6-6.6-.8.6-7.2,2.8-1.4-5.4-17.4-8.6-18.6-6-3.4-15.4v-3.4l-7.2-13.2,3.2-16-6-2-2-6.8,10-1.2h-4.6l.6-10-14.6,4.6-.6-4-2,7.4-8,3.2-5.4-5.2-2-5.4-2-10.6,4.6-3.4,2,2.6,1.4-3.2-3.4-24,5.4,1.2,2.6-25.2.8-.8,5.2-3.2-6.6.6-2.6-6,12-13.4-10.8-2-8,8-3.2-9.2-4.8,6.6-1.2-4.6-6,2-4,2,3.2-12-2.6-1.4,1.4-3.4-3.4.8-.6-6.8h12.6l-.6-3.2h-4l-7.4-12.8-4,1.4-2.6-4.6-1.4,4-4-2.8,4-2.6-6-2,1.4-3.4-4.8-2.6-1.2-10.6-4.8-1.4,2.8-2-5.4-14,.6-4.6,2-14h4l-1.2,8.6,10,14,7.2,9.4,14.8,4v.6l2-3.4,8,9.4,4,4.6,2,2,22.6,10.8,4,2,1.4,1.2,10.6,12.8,6-2.8,44-10,1.4-8,3.2,1.4-.6-2.6,2-1.4,9.4-3.4v-9.2l3.2-3.4,4-15.4-2-6,9.4-22.6v-14h4.6l5.4-8,6.6-2,.8-7.4,9.2-11.2,4,2,18.8-6.8,2-2,4-4-1.4-6.6h4l2,10.6,20.6,4.8,3.4-3.4,1.4.6,18,4,.6-.6,9.4-5.4.6,6,8,.8,6.6,5.2,1.4,1.4,10,8.6,12,.8,7.4,1.2,9.2-3.2.8,6,4,2.6,3.2-6h4l2.8,15.4,3.2.6-.6,5.4-.6.6h1.2l8-4,7.4-2.6,20.6,7.2,4-1.2,1.4,7.2,5.4.8-1.4-3.4h4.6l1.4,7.4,5.4-6,12.6,8,3.4,14.6-5.4,1.4,1.4,11.2,2,3.4,14,35.4-7.4,6.6-.6,8-6,7.4,6.6,4.6-2.6,2,6,6,9.2,1.4,2.8,4,2.6,5.2,6.6,2.8,8-5.4,5.4.6-6.6,9.4,6.6,17.4-8,6.6,3.4,10.6-2,9.4,4,5.4,10.6,2-10.6,14.6,2,2.6,2.6,2.8-4.6,7.2,4.6,2.8-23.4,19.2,5.4,13.4-1.4,8-8,2.6-2,6.8-9.2,4-2.8,8.6-2,4.6,9.4,4.8-14,1.2,3.4,7.4-6.8,6.6-10.6,2-3.4,6,8,4-15.2,14,4.6,7.4-12-2.6-13.4,8-18,8.6-4,6-2.6-2,2.6-6-12,4.6-2.6-4.6-18,10.6-8-2.6-14.6,2.6-4-2M523.4,109.5l-1.4-1.4h-.6v.8h1.4l.6.6ZM518.8,493.7l4,2-4-2ZM518.8,493.7l4,2M237.7,218.8l.8-4.8-7.4-4.6,6.6,9.4ZM221.7,182h-4l2,6,2-5.2v-.8h0ZM219.7,176l-2,2,4,2.8-2-4.8ZM237.7,218.8l.8-4.8-7.4-4.6,6.6,9.4ZM221.7,182h-4l2,6,2-5.2v-.8h0ZM219.7,176l-2,2,4,2.8-2-4.8ZM237.7,218.8l.8-4.8-7.4-4.6,6.6,9.4ZM221.7,182h-4l2,6,2-5.2v-.8h0ZM219.7,176l-2,2,4,2.8-2-4.8ZM231.7,162v-5.2l-4.6,1.2.6,3.4,4,.6ZM226.5,147.5l1.2,2.6,2.8-6-4,2.8v.6ZM231.7,162v-5.2l-4.6,1.2.6,3.4,4,.6ZM226.5,147.5l1.2,2.6,2.8-6-4,2.8v.6ZM231.7,162v-5.2l-4.6,1.2.6,3.4,4,.6ZM226.5,147.5l1.2,2.6,2.8-6-4,2.8v.6ZM297.8,351.3l-4.6.6-4,5.4,6.6-1.4,2-4.6h0ZM297.8,351.3l-4.6.6-4,5.4,6.6-1.4,2-4.6h0ZM297.8,351.3l-4.6.6-4,5.4,6.6-1.4,2-4.6h0ZM302.6,216l-1.4-1.2-4-2,4,2,1.4,1.2Z"/>
    </clipPath>
  </defs>
  <g class="st8">
    <g>
      <path d="M0,0h900v600H0V0Z"/>
      <g>
        <circle class="st5" cx="450" cy="299.6" r="111.4"/>
        <circle class="st4" cx="450" cy="300" r="207.1"/>
        <circle class="st3" cx="450" cy="300" r="297.3"/>
        <path class="st5" d="M-75.4,299.6H975.4M450-225.8V825"/>
        <path id="b" class="st0" d="M-5,36.9l910,525.4M712.7-155.4L187.3,754.6"/>
        <path id="b1" data-name="b" class="st0" d="M187.3-155.4l525.4,910M905,36.9L-5,562.3"/>
      </g>
      <path id="a" class="st6" d="M479,97.6l-1.4-.6,1.4.6ZM519.1,494l-5.4-3.2-16,4-14-8.8v3.4l-3.4-4.6,4-4-.6-12h4.6l2.8-8,3.2-1.4-2.6-4,4-1.4-.6-6-4-2,5.2-.6-3.2-14.6-8-8-4.8,2,2,6.6h-16.6l-14-6-5.4-2.6-26.7-6-2,3.2-9.4.8h-2.6l-4,6.6-11.4-8-6,2,.8,5.4-14.8-8-.6,5.2-14.6-6.6-.8.6-7.2,2.8-1.4-5.4-17.5-8.6-18.7-6-3.4-15.4v-3.4l-7.2-13.2,3.2-16-6-2-2-6.8,10-1.2h-4.6l.6-10-14.6,4.6-.6-4-2,7.4-8,3.2-5.4-5.2-2-5.4-2-10.6,4.6-3.4,2,2.6,1.4-3.2-3.4-24,5.4,1.2,2.6-25.2.8-.8,5.2-3.2-6.6.6-2.6-6,12-13.4-10.8-2-8,8-3.2-9.2-4.8,6.6-1.2-4.6-6,2-4,2,3.2-12-2.6-1.4,1.4-3.4-3.4.8-.6-6.8h12.6l-.6-3.2h-4l-7.4-12.8-4,1.4-2.6-4.6-1.4,4-4-2.8,4-2.6-6-2,1.4-3.4-4.8-2.6-1.2-10.6-4.8-1.4,2.8-2-5.4-14,.6-4.6,2-14h4l-1.2,8.6,10,14,7.2,9.4,14.8,4v.6l2-3.4,8,9.4,4,4.6,2,2,22.7,10.8,4,2,1.4,1.2,10.6,12.8,6-2.8,44.1-10,1.4-8,3.2,1.4-.6-2.6,2-1.4,9.4-3.4v-9.2l3.2-3.4,4-15.4-2-6,9.4-22.6v-14h4.6l5.4-8,6.6-2,.8-7.4,9.2-11.2,4,2,18.9-6.8,2-2,4-4-1.4-6.6h4l2,10.6,20.7,4.8,3.4-3.4,1.4.6,18.1,4,.6-.6,9.4-5.4.6,6,8,.8,6.6,5.2,1.4,1.4,10,8.6,12,.8,7.4,1.2,9.2-3.2.8,6,4,2.6,3.2-6h4l2.8,15.4,3.2.6-.6,5.4-.6.6h1.2l8-4,7.4-2.6,20.7,7.2,4-1.2,1.4,7.2,5.4.8-1.4-3.4h4.6l1.4,7.4,5.4-6,12.6,8,3.4,14.6-5.4,1.4,1.4,11.2,2,3.4,14,35.4-7.4,6.6-.6,8-6,7.4,6.6,4.6-2.6,2,6,6,9.2,1.4,2.8,4,2.6,5.2,6.6,2.8,8-5.4,5.4.6-6.6,9.4,6.6,17.4-8,6.6,3.4,10.6-2,9.4,4,5.4,10.6,2-10.6,14.6,2,2.6,2.6,2.8-4.6,7.2,4.6,2.8-23.5,19.2,5.4,13.4-1.4,8-8,2.6-2,6.8-9.2,4-2.8,8.6-2,4.6,9.4,4.8-14,1.2,3.4,7.4-6.8,6.6-10.6,2-3.4,6,8,4-15.2,14,4.6,7.4-12-2.6-13.4,8-18.1,8.6-4,6-2.6-2,2.6-6-12,4.6-2.6-4.6-18.1,10.6-8-2.6-14.6,2.6-4-2M523.8,109l-1.4-1.4h-.6v.8h1.4s.6.6.6.6ZM519.1,494l4,2-4-2ZM519.1,494l4,2M237.5,218.5l.8-4.8-7.4-4.6,6.6,9.4ZM221.4,181.7h-4l2,6,2-5.2v-.8h0ZM219.4,175.7l-2,2,4,2.8-2-4.8ZM237.5,218.5l.8-4.8-7.4-4.6,6.6,9.4ZM221.4,181.7h-4l2,6,2-5.2v-.8h0ZM219.4,175.7l-2,2,4,2.8-2-4.8ZM237.5,218.5l.8-4.8-7.4-4.6,6.6,9.4ZM221.4,181.7h-4l2,6,2-5.2v-.8h0ZM219.4,175.7l-2,2,4,2.8-2-4.8ZM231.5,161.7v-5.2l-4.6,1.2.6,3.4,4,.6ZM226.2,147l1.2,2.6,2.8-6-4,2.8v.6ZM231.5,161.7v-5.2l-4.6,1.2.6,3.4,4,.6ZM226.2,147l1.2,2.6,2.8-6-4,2.8v.6ZM231.5,161.7v-5.2l-4.6,1.2.6,3.4,4,.6ZM226.2,147l1.2,2.6,2.8-6-4,2.8v.6ZM297.7,351.3l-4.6.6-4,5.4,6.6-1.4,2-4.6h0ZM297.7,351.3l-4.6.6-4,5.4,6.6-1.4,2-4.6h0ZM297.7,351.3l-4.6.6-4,5.4,6.6-1.4,2-4.6h0ZM302.5,215.7l-1.4-1.2-4-2,4,2,1.4,1.2Z"/>
      <g class="st7">
        <g id="e">
          <ellipse class="st1" cx="449.8" cy="300.1" rx="111.1" ry="111"/>
          <ellipse class="st1" cx="449.8" cy="300.1" rx="207.7" ry="207.4"/>
          <ellipse class="st1" cx="449.8" cy="300.1" rx="298.6" ry="298.3"/>
          <path id="b2" data-name="b" class="st1" d="M-74.5,300.1H974.1M449.8-223.5V823.7"/>
          <path id="b3" data-name="b" class="st1" d="M-4.2,38.3l908.1,523.6M712-153.4L187.7,753.6"/>
          <path id="b4" data-name="b" class="st1" d="M187.7-153.4l524.3,907M903.9,38.3L-4.2,561.9"/>
        </g>
      </g>
    </g>
  </g>
</svg>