<?xml version="1.0" encoding="UTF-8"?>
<svg id="Calque_1" xmlns="http://www.w3.org/2000/svg" version="1.1" viewBox="0 0 600 400">
  <!-- Generator: Adobe Illustrator 29.4.0, SVG Export Plug-In . SVG Version: 2.1.0 Build 152)  -->
  <defs>
    <style>
      .st0 {
        fill: #fff;
      }
    </style>
  </defs>
  <path d="M0,0h600v400H0V0Z"/>
  <path class="st0" d="M0,0h244v164H0V0Z"/>
  <path d="M0,0h80v160H0V0Z"/>
  <path d="M160,0h80v160h-80V0Z"/>
  <path class="st0" d="M355,183l12.9,20.5h36.6v71.5l-27.5-43-37,59h18l19-34,39,70,39-70,19,34h18l-37-59-27.5,43v-39.5h16.5l12.2-19.5h-28.8v-12.5h36.6l12.9-20.5h-122ZM398,270.5h-40v14h40v-14ZM474,270.5h-40v14h40v-14Z"/>
  <path id="a" class="st0" d="M416,341l12.3,38-32.3-23.5h40l-32.3,23.5,12.3-38Z"/>
  <path id="a1" data-name="a" class="st0" d="M371,307l12.3,38-32.3-23.5h40l-32.3,23.5,12.3-38Z"/>
  <path id="a2" data-name="a" class="st0" d="M461,307l12.3,38-32.3-23.5h40l-32.3,23.5,12.3-38Z"/>
  <path id="a3" data-name="a" class="st0" d="M333,206l12.3,38-32.3-23.5h40l-32.3,23.5,12.3-38Z"/>
  <path id="a4" data-name="a" class="st0" d="M499,206l12.3,38-32.3-23.5h40l-32.3,23.5,12.3-38Z"/>
</svg>