<?xml version="1.0" encoding="UTF-8"?>
<svg id="Calque_1" xmlns="http://www.w3.org/2000/svg" version="1.1" viewBox="0 0 138 92">
  <!-- Generator: Adobe Illustrator 29.4.0, SVG Export Plug-In . SVG Version: 2.1.0 Build 152)  -->
  <defs>
    <style>
      .st0 {
        fill: #fff;
      }

      .st1 {
        stroke: #fff;
        stroke-miterlimit: 10;
      }
    </style>
  </defs>
  <path class="st0" d="M0,0h138v92H0V0Z"/>
  <path d="M0,0h138v46H0V0Z"/>
  <g>
    <g id="b">
      <path id="a" class="st0" d="M39,36l30-5.7v11.5l-30-5.7Z"/>
      <path id="a1" data-name="a" class="st0" d="M41.3,24.5l29.9,6.2-4.4,10.6-25.5-16.8Z"/>
      <path id="a2" data-name="a" class="st0" d="M47.8,14.8l25.3,17.2-8.1,8.1-17.2-25.3Z"/>
    </g>
    <g id="b1" data-name="b">
      <path id="a3" data-name="a" class="st0" d="M57.5,8.3l16.8,25.5-10.6,4.4-6.2-29.9Z"/>
      <path id="a4" data-name="a" class="st0" d="M69,6l5.7,30h-11.5l5.7-30Z"/>
      <path id="a5" data-name="a" class="st0" d="M80.5,8.3l-6.2,29.9-10.6-4.4,16.8-25.5Z"/>
    </g>
    <g id="b2" data-name="b">
      <path id="a6" data-name="a" class="st0" d="M90.2,14.8l-17.2,25.3-8.1-8.1,25.3-17.2Z"/>
      <path id="a7" data-name="a" class="st0" d="M96.7,24.5l-25.5,16.8-4.4-10.6,29.9-6.2Z"/>
      <path id="a8" data-name="a" class="st0" d="M99,36l-30,5.7v-11.5l30,5.7Z"/>
    </g>
  </g>
  <path d="M0,36h138v20H0v-20Z"/>
  <path class="st1" d="M0,0v92h138V0l-69,92L0,0Z"/>
</svg>