<?xml version="1.0" encoding="UTF-8"?>
<svg id="Calque_1" xmlns="http://www.w3.org/2000/svg" version="1.1" viewBox="0 0 500 300">
  <!-- Generator: Adobe Illustrator 29.4.0, SVG Export Plug-In . SVG Version: 2.1.0 Build 152)  -->
  <defs>
    <style>
      .st0 {
        stroke: #fff;
        stroke-width: 40px;
      }

      .st1 {
        fill: #fff;
      }
    </style>
  </defs>
  <path d="M0,0h500L0,300h500L0,0Z"/>
  <path d="M0,0v300L500,0v300L0,0Z"/>
  <path class="st0" d="M0,0l500,300M500,0L0,300"/>
  <circle class="st1" cx="250" cy="150" r="85"/>
  <g id="star">
    <g id="b">
      <g id="s">
        <g id="t">
          <g id="c">
            <path id="h" d="M250,86l-10,17.3,17.3,10"/>
            <path id="h1" data-name="h" d="M250,86l10,17.3-17.3,10"/>
          </g>
          <g id="c1" data-name="c">
            <path id="h2" data-name="h" d="M267.3,116l-10-17.3-17.3,10"/>
            <path id="h3" data-name="h" d="M267.3,116h-20v-20"/>
          </g>
          <g id="c2" data-name="c">
            <path id="h4" data-name="h" d="M232.7,116h20v-20"/>
            <path id="h5" data-name="h" d="M232.7,116l10-17.3,17.3,10"/>
          </g>
        </g>
        <g id="t1" data-name="t">
          <g id="c3" data-name="c">
            <path id="h6" data-name="h" d="M250,126l10-17.3-17.3-10"/>
            <path id="h7" data-name="h" d="M250,126l-10-17.3,17.3-10"/>
          </g>
          <g id="c4" data-name="c">
            <path id="h8" data-name="h" d="M232.7,96l10,17.3,17.3-10"/>
            <path id="h9" data-name="h" d="M232.7,96h20v20"/>
          </g>
          <g id="c5" data-name="c">
            <path id="h10" data-name="h" d="M267.3,96h-20v20"/>
            <path id="h11" data-name="h" d="M267.3,96l-10,17.3-17.3-10"/>
          </g>
        </g>
      </g>
      <g id="s1" data-name="s">
        <g id="t2" data-name="t">
          <g id="c6" data-name="c">
            <path id="h12" data-name="h" d="M250,89.6l-8.2,14.2,14.2,8.2"/>
            <path id="h13" data-name="h" d="M250,89.6l8.2,14.2-14.2,8.2"/>
          </g>
          <g id="c7" data-name="c">
            <path id="h14" data-name="h" d="M264.2,114.2l-8.2-14.2-14.2,8.2"/>
            <path id="h15" data-name="h" d="M264.2,114.2h-16.4s0-16.4,0-16.4"/>
          </g>
          <g id="c8" data-name="c">
            <path id="h16" data-name="h" d="M235.8,114.2h16.4s0-16.4,0-16.4"/>
            <path id="h17" data-name="h" d="M235.8,114.2l8.2-14.2,14.2,8.2"/>
          </g>
        </g>
        <g id="t3" data-name="t">
          <g id="c9" data-name="c">
            <path id="h18" data-name="h" d="M250,122.4l8.2-14.2-14.2-8.2"/>
            <path id="h19" data-name="h" d="M250,122.4l-8.2-14.2,14.2-8.2"/>
          </g>
          <g id="c10" data-name="c">
            <path id="h20" data-name="h" d="M235.8,97.8l8.2,14.2,14.2-8.2"/>
            <path id="h21" data-name="h" d="M235.8,97.8h16.4s0,16.4,0,16.4"/>
          </g>
          <g id="c11" data-name="c">
            <path id="h22" data-name="h" d="M264.2,97.8h-16.4s0,16.4,0,16.4"/>
            <path id="h23" data-name="h" d="M264.2,97.8l-8.2,14.2-14.2-8.2"/>
          </g>
        </g>
      </g>
    </g>
  </g>
  <g id="star1" data-name="star">
    <g id="b1" data-name="b">
      <g id="s2" data-name="s">
        <g id="t4" data-name="t">
          <g id="c12" data-name="c">
            <path id="h24" data-name="h" d="M305.4,182l-10-17.3-17.3,10"/>
            <path id="h25" data-name="h" d="M305.4,182h-20v-20"/>
          </g>
          <g id="c13" data-name="c">
            <path id="h26" data-name="h" d="M270.8,182h20s0-20,0-20"/>
            <path id="h27" data-name="h" d="M270.8,182l10-17.3,17.3,10"/>
          </g>
          <g id="c14" data-name="c">
            <path id="h28" data-name="h" d="M288.1,152l-10,17.3,17.3,10"/>
            <path id="h29" data-name="h" d="M288.1,152l10,17.3-17.3,10"/>
          </g>
        </g>
        <g id="t5" data-name="t">
          <g id="c15" data-name="c">
            <path id="h30" data-name="h" d="M270.8,162l10,17.3,17.3-10"/>
            <path id="h31" data-name="h" d="M270.8,162h20v20"/>
          </g>
          <g id="c16" data-name="c">
            <path id="h32" data-name="h" d="M305.4,162h-20s0,20,0,20"/>
            <path id="h33" data-name="h" d="M305.4,162l-10,17.3-17.3-10"/>
          </g>
          <g id="c17" data-name="c">
            <path id="h34" data-name="h" d="M288.1,192l10-17.3-17.3-10"/>
            <path id="h35" data-name="h" d="M288.1,192l-10-17.3,17.3-10"/>
          </g>
        </g>
      </g>
      <g id="s3" data-name="s">
        <g id="t6" data-name="t">
          <g id="c18" data-name="c">
            <path id="h36" data-name="h" d="M302.3,180.2l-8.2-14.2-14.2,8.2"/>
            <path id="h37" data-name="h" d="M302.3,180.2h-16.4s0-16.4,0-16.4"/>
          </g>
          <g id="c19" data-name="c">
            <path id="h38" data-name="h" d="M273.9,180.2h16.4s0-16.4,0-16.4"/>
            <path id="h39" data-name="h" d="M273.9,180.2l8.2-14.2,14.2,8.2"/>
          </g>
          <g id="c20" data-name="c">
            <path id="h40" data-name="h" d="M288.1,155.6l-8.2,14.2,14.2,8.2"/>
            <path id="h41" data-name="h" d="M288.1,155.6l8.2,14.2-14.2,8.2"/>
          </g>
        </g>
        <g id="t7" data-name="t">
          <g id="c21" data-name="c">
            <path id="h42" data-name="h" d="M273.9,163.8l8.2,14.2,14.2-8.2"/>
            <path id="h43" data-name="h" d="M273.9,163.8h16.4s0,16.4,0,16.4"/>
          </g>
          <g id="c22" data-name="c">
            <path id="h44" data-name="h" d="M302.3,163.8h-16.4s0,16.4,0,16.4"/>
            <path id="h45" data-name="h" d="M302.3,163.8l-8.2,14.2-14.2-8.2"/>
          </g>
          <g id="c23" data-name="c">
            <path id="h46" data-name="h" d="M288.1,188.4l8.2-14.2-14.2-8.2"/>
            <path id="h47" data-name="h" d="M288.1,188.4l-8.2-14.2,14.2-8.2"/>
          </g>
        </g>
      </g>
    </g>
  </g>
  <g id="star2" data-name="star">
    <g id="b2" data-name="b">
      <g id="s4" data-name="s">
        <g id="t8" data-name="t">
          <g id="c24" data-name="c">
            <path id="h48" data-name="h" d="M194.6,182h20v-20"/>
            <path id="h49" data-name="h" d="M194.6,182l10-17.3,17.3,10"/>
          </g>
          <g id="c25" data-name="c">
            <path id="h50" data-name="h" d="M211.9,152l-10,17.3,17.3,10"/>
            <path id="h51" data-name="h" d="M211.9,152l10,17.3-17.3,10"/>
          </g>
          <g id="c26" data-name="c">
            <path id="h52" data-name="h" d="M229.2,182l-10-17.3-17.3,10"/>
            <path id="h53" data-name="h" d="M229.2,182h-20s0-20,0-20"/>
          </g>
        </g>
        <g id="t9" data-name="t">
          <g id="c27" data-name="c">
            <path id="h54" data-name="h" d="M229.2,162h-20v20"/>
            <path id="h55" data-name="h" d="M229.2,162l-10,17.3-17.3-10"/>
          </g>
          <g id="c28" data-name="c">
            <path id="h56" data-name="h" d="M211.9,192l10-17.3-17.3-10"/>
            <path id="h57" data-name="h" d="M211.9,192l-10-17.3,17.3-10"/>
          </g>
          <g id="c29" data-name="c">
            <path id="h58" data-name="h" d="M194.6,162l10,17.3,17.3-10"/>
            <path id="h59" data-name="h" d="M194.6,162h20s0,20,0,20"/>
          </g>
        </g>
      </g>
      <g id="s5" data-name="s">
        <g id="t10" data-name="t">
          <g id="c30" data-name="c">
            <path id="h60" data-name="h" d="M197.7,180.2h16.4s0-16.4,0-16.4"/>
            <path id="h61" data-name="h" d="M197.7,180.2l8.2-14.2,14.2,8.2"/>
          </g>
          <g id="c31" data-name="c">
            <path id="h62" data-name="h" d="M211.9,155.6l-8.2,14.2,14.2,8.2"/>
            <path id="h63" data-name="h" d="M211.9,155.6l8.2,14.2-14.2,8.2"/>
          </g>
          <g id="c32" data-name="c">
            <path id="h64" data-name="h" d="M226.1,180.2l-8.2-14.2-14.2,8.2"/>
            <path id="h65" data-name="h" d="M226.1,180.2h-16.4s0-16.4,0-16.4"/>
          </g>
        </g>
        <g id="t11" data-name="t">
          <g id="c33" data-name="c">
            <path id="h66" data-name="h" d="M226.1,163.8h-16.4s0,16.4,0,16.4"/>
            <path id="h67" data-name="h" d="M226.1,163.8l-8.2,14.2-14.2-8.2"/>
          </g>
          <g id="c34" data-name="c">
            <path id="h68" data-name="h" d="M211.9,188.4l8.2-14.2-14.2-8.2"/>
            <path id="h69" data-name="h" d="M211.9,188.4l-8.2-14.2,14.2-8.2"/>
          </g>
          <g id="c35" data-name="c">
            <path id="h70" data-name="h" d="M197.7,163.8l8.2,14.2,14.2-8.2"/>
            <path id="h71" data-name="h" d="M197.7,163.8h16.4s0,16.4,0,16.4"/>
          </g>
        </g>
      </g>
    </g>
  </g>
</svg>