<?xml version="1.0" encoding="UTF-8"?>
<svg id="Calque_1" xmlns="http://www.w3.org/2000/svg" version="1.1" viewBox="0 0 900 600">
  <!-- Generator: Adobe Illustrator 29.4.0, SVG Export Plug-In . SVG Version: 2.1.0 Build 152)  -->
  <defs>
    <style>
      .st0 {
        fill: #fff;
      }
    </style>
  </defs>
  <path d="M0,0h900v600H0V0Z"/>
  <path class="st0" d="M0,0h900v300H0V0Z"/>
  <g>
    <polygon class="st0" points="450 340.7 387.4 386.1 411.3 312.6 348.7 267.1 426.1 267.1 450 193.5 473.9 267.1 551.3 267.1 488.7 312.6 512.6 386.1 450 340.7"/>
    <path d="M450,200l22.5,69.1h72.7l-58.8,42.7,22.5,69.1-58.8-42.7-58.8,42.7,22.5-69.1-58.8-42.7h72.7l22.5-69.1M450,187.1l-3.8,11.7-21.6,66.3h-82.1l10,7.2,56.4,41-21.6,66.3-3.8,11.7,10-7.2,56.4-41,56.4,41,10,7.2-3.8-11.7-21.6-66.3,56.4-41,10-7.2h-82.1l-21.6-66.3-3.8-11.7h0Z"/>
  </g>
</svg>