<?xml version="1.0" encoding="UTF-8"?>
<svg id="Calque_1" xmlns="http://www.w3.org/2000/svg" version="1.1" xmlns:xlink="http://www.w3.org/1999/xlink" viewBox="0 0 16 8">
  <!-- Generator: Adobe Illustrator 29.4.0, SVG Export Plug-In . SVG Version: 2.1.0 Build 152)  -->
  <defs>
    <style>
      .st0 {
        fill: #fff;
      }

      .st1 {
        fill: none;
      }

      .st2 {
        clip-path: url(#clippath);
      }
    </style>
    <clipPath id="clippath">
      <rect class="st1" width="16" height="8"/>
    </clipPath>
  </defs>
  <g class="st2">
    <g>
      <path d="M0,0h16v8H0V0Z"/>
      <path class="st0" d="M4.2,0h8v8L4.2,0Z"/>
      <g id="c">
        <path id="b" class="st0" d="M2.4.5l.4-1.4.4,1.4-1.2-.9h1.4l-1.2.9Z"/>
        <path id="b1" data-name="b" class="st0" d="M3.4,1.5l.4-1.4.4,1.4-1.2-.9h1.4l-1.2.9Z"/>
        <path id="b2" data-name="b" class="st0" d="M4.4,2.5l.4-1.4.4,1.4-1.2-.9h1.4l-1.2.9Z"/>
      </g>
      <g id="c1" data-name="c">
        <path id="b3" data-name="b" class="st0" d="M5.4,3.5l.4-1.4.4,1.4-1.2-.9h1.4l-1.2.9Z"/>
        <path id="b4" data-name="b" class="st0" d="M6.4,4.5l.4-1.4.4,1.4-1.2-.9h1.4l-1.2.9Z"/>
        <path id="b5" data-name="b" class="st0" d="M7.4,5.5l.4-1.4.4,1.4-1.2-.9h1.4l-1.2.9Z"/>
      </g>
      <g id="c2" data-name="c">
        <path id="b6" data-name="b" class="st0" d="M8.4,6.5l.4-1.4.4,1.4-1.2-.9h1.4l-1.2.9Z"/>
        <path id="b7" data-name="b" class="st0" d="M9.4,7.5l.4-1.4.4,1.4-1.2-.9h1.4l-1.2.9Z"/>
        <path id="b8" data-name="b" class="st0" d="M10.4,8.5l.4-1.4.4,1.4-1.2-.9h1.4l-1.2.9Z"/>
      </g>
    </g>
  </g>
</svg>