<?xml version="1.0" encoding="UTF-8"?>
<svg id="Calque_1" xmlns="http://www.w3.org/2000/svg" version="1.1" viewBox="0 0 900 450">
  <!-- Generator: Adobe Illustrator 29.4.0, SVG Export Plug-In . SVG Version: 2.1.0 Build 152)  -->
  <defs>
    <style>
      .st0 {
        fill: #fff;
      }
    </style>
  </defs>
  <rect width="900" height="450"/>
  <path class="st0" d="M5,0h100v450H5V0Z"/>
  <g id="b">
    <path id="a" d="M57.2,0v16.3h-4.4V0h4.4ZM1,28.5h7.9v-6.5h4v-7.9h5.6v-6.9h4.6V0h13.9v7.2h4.5v6.9h5.6v7.9h4v6.5h6.1v10.1h-6.1v6.5h-4v7.9h-5.6v6.9h-4.5v7.4h-3.2v6.2h-7.5v-6.2h-3.2v-7.4h-4.6v-6.9h-5.6v-7.9h-4v-6.5H1M1,3.4h7.9v9H1M32,15.1h-4.1v6.1h-3.9v7.7h-3.8v9.5h3.8v7.7h3.9v6h4.1v-6h3.9v-7.7h3.9v-9.5h-3.9v-7.7h-3.9v-6.1ZM32.4,29v9h-4.9v-9h4.9ZM1,52.6h7.9v9.7H1M57.2,53.5v13.7h-4.4v-13.7h4.4ZM46.4,68.7v6.8h4.8v7h6v9.2h-6v7.1h-4.8v6.8h-5.6v-6.8h-4.8v-7.1h-4v-9.2h4v-7h4.8v-6.8h5.6ZM1,82.5h7.9v-7h4.8v-6.8h5.5v6.8h4.8v7h4v9.2h-4v7.1h-4.8v6.8h-5.5v-6.8h-4.8v-7.1H1M45.7,82.7h-4.1v8.7h4.1v-8.7ZM18.6,82.7h-4.1v8.7h4.1v-8.7ZM20.2,226.8v-4.7h-3.4v-7.1h-4.5v-4.3h-3.4v-6.9H1v-16h7.9v4.6h3.4v6.7h4.5v8h6.4v-7.2h4.7v-5.3h3.4v-6.3h4.5v-6.7h3.3v-6.8h3.2v-7h4.3v-9.4h-5.7v-8.5h-6.2v-5.1h-10.4v7.4h6v6.7h-4v8.2h-4.7v7.2h-5.9v-7.2h-4.9v-8.2h-3v-6.7H1v-12.7h7.9v-8.2h3v-6.3h2.8v-7.2h4v-7.1h3.9v-4.7h4.7v-7.1h5.7v7.1h4.7v4.7h4v7.1h3.9v7.2h3.2v6.2h3.2v5.4h5.2v39.7h-5.9v6.7h-1.7v7h-4.4v6.8h-2.7v5h-2.8v5.3h-4.8v5.2h-6.9v14.5M57.2,105.5v13.7h-4.4v-13.7h4.4ZM1,108.1h7.9v9.7H1M1,166.4h7.9v9.7H1v-9.7ZM57,191v8.8h-4.2v-8.8h4.2ZM51.2,226.8v-5.5h-2.6v-4.3h-3.8v-12.9h3.8v5.2h4v7.6h4.4v9.8M35.6,226.7v-6.4h4.2v6.4"/>
    <path id="a1" data-name="a" d="M52.8,0v16.3h4.4V0h-4.4ZM109,28.5h-7.9v-6.5h-4v-7.9h-5.6v-6.9h-4.6V0h-13.9v7.2h-4.5v6.9h-5.6v7.9h-4v6.5h-6.1v10.1h6.1v6.5h4v7.9h5.6v6.9h4.5v7.4h3.2v6.2h7.5v-6.2h3.2v-7.4h4.6v-6.9h5.6v-7.9h4v-6.5h7.9M109,3.4h-7.9v9h7.9M78,15.1h4.1v6.1h3.9v7.7h3.8v9.5h-3.8v7.7h-3.9v6h-4.1v-6h-3.9v-7.7h-3.9v-9.5h3.9v-7.7h3.9v-6.1ZM77.6,29v9h4.9v-9h-4.9ZM109,52.6h-7.9v9.7h7.9M52.8,53.5v13.7h4.4v-13.7h-4.4ZM63.6,68.7v6.8h-4.8v7h-6v9.2h6v7.1h4.8v6.8h5.6v-6.8h4.8v-7.1h4v-9.2h-4v-7h-4.8v-6.8h-5.6ZM109,82.5h-7.9v-7h-4.8v-6.8h-5.5v6.8h-4.8v7h-4v9.2h4v7.1h4.8v6.8h5.5v-6.8h4.8v-7.1h7.9M64.3,82.7h4.1v8.7h-4.1v-8.7ZM91.4,82.7h4.1v8.7h-4.1v-8.7ZM89.8,226.8v-4.7h3.4v-7.1h4.5v-4.3h3.4v-6.9h7.9v-16h-7.9v4.6h-3.4v6.7h-4.5v8h-6.4v-7.2h-4.7v-5.3h-3.4v-6.3h-4.5v-6.7h-3.3v-6.8h-3.2v-7h-4.3v-9.4h5.7v-8.5h6.2v-5.1h10.4v7.4h-6v6.7h4v8.2h4.7v7.2h5.9v-7.2h4.9v-8.2h3v-6.7h6.8v-12.7h-7.9v-8.2h-3v-6.3h-2.8v-7.2h-4v-7.1h-3.9v-4.7h-4.7v-7.1h-5.7v7.1h-4.7v4.7h-4v7.1h-3.9v7.2h-3.2v6.2h-3.2v5.4h-5.2v39.7h5.9v6.7h1.7v7h4.4v6.8h2.7v5h2.8v5.3h4.8v5.2h6.9v14.5M52.8,105.5v13.7h4.4v-13.7h-4.4ZM109,108.1h-7.9v9.7h7.9M109,166.4h-7.9v9.7h7.9v-9.7ZM53,191v8.8h4.2v-8.8h-4.2ZM58.8,226.8v-5.5h2.6v-4.3h3.8v-12.9h-3.8v5.2h-4v7.6h-4.4v9.8M74.4,226.7v-6.4h-4.2v6.4"/>
  </g>
  <g id="b1" data-name="b">
    <path id="a2" data-name="a" d="M57.2,450v-16.3h-4.4v16.3h4.4ZM1,421.5h7.9v6.5h4v7.9h5.6v6.9h4.6v7.2h13.9v-7.2h4.5v-6.9h5.6v-7.9h4v-6.5h6.1v-10.1h-6.1v-6.5h-4v-7.9h-5.6v-6.9h-4.5v-7.4h-3.2v-6.2h-7.5v6.2h-3.2v7.4h-4.6v6.9h-5.6v7.9h-4v6.5H1M1,446.6h7.9v-9H1M32,434.9h-4.1v-6.1h-3.9v-7.7h-3.8v-9.5h3.8v-7.7h3.9v-6h4.1v6h3.9v7.7h3.9v9.5h-3.9v7.7h-3.9v6.1ZM32.4,421v-9h-4.9v9h4.9ZM1,397.4h7.9v-9.7H1M57.2,396.5v-13.7h-4.4v13.7h4.4ZM46.4,381.3v-6.8h4.8v-7h6v-9.2h-6v-7.1h-4.8v-6.8h-5.6v6.8h-4.8v7.1h-4v9.2h4v7h4.8v6.8h5.6ZM1,367.5h7.9v7h4.8v6.8h5.5v-6.8h4.8v-7h4v-9.2h-4v-7.1h-4.8v-6.8h-5.5v6.8h-4.8v7.1H1M45.7,367.3h-4.1v-8.7h4.1v8.7ZM18.6,367.3h-4.1v-8.7h4.1v8.7ZM20.2,223.2v4.7h-3.4v7.1h-4.5v4.3h-3.4v6.9H1v16h7.9v-4.6h3.4v-6.7h4.5v-8h6.4v7.2h4.7v5.3h3.4v6.3h4.5v6.7h3.3v6.8h3.2v7h4.3v9.4h-5.7v8.5h-6.2v5.1h-10.4v-7.4h6v-6.7h-4v-8.2h-4.7v-7.2h-5.9v7.2h-4.9v8.2h-3v6.7H1v12.7h7.9v8.2h3v6.3h2.8v7.2h4v7.1h3.9v4.7h4.7v7.1h5.7v-7.1h4.7v-4.7h4v-7.1h3.9v-7.2h3.2v-6.2h3.2v-5.4h5.2v-39.7h-5.9v-6.7h-1.7v-7h-4.4v-6.8h-2.7v-5h-2.8v-5.3h-4.8v-5.2h-6.9v-14.5M57.2,344.5v-13.7h-4.4v13.7h4.4ZM1,341.9h7.9v-9.7H1M1,283.6h7.9v-9.7H1v9.7ZM57,259v-8.8h-4.2v8.8h4.2ZM51.2,223.2v5.5h-2.6v4.3h-3.8v12.9h3.8v-5.2h4v-7.6h4.4v-9.8M35.6,223.3v6.4h4.2v-6.4"/>
    <path id="a3" data-name="a" d="M52.8,450v-16.3h4.4v16.3h-4.4ZM109,421.5h-7.9v6.5h-4v7.9h-5.6v6.9h-4.6v7.2h-13.9v-7.2h-4.5v-6.9h-5.6v-7.9h-4v-6.5h-6.1v-10.1h6.1v-6.5h4v-7.9h5.6v-6.9h4.5v-7.4h3.2v-6.2h7.5v6.2h3.2v7.4h4.6v6.9h5.6v7.9h4v6.5h7.9M109,446.6h-7.9v-9h7.9M78,434.9h4.1v-6.1h3.9v-7.7h3.8v-9.5h-3.8v-7.7h-3.9v-6h-4.1v6h-3.9v7.7h-3.9v9.5h3.9v7.7h3.9v6.1ZM77.6,421v-9h4.9v9h-4.9ZM109,397.4h-7.9v-9.7h7.9M52.8,396.5v-13.7h4.4v13.7h-4.4ZM63.6,381.3v-6.8h-4.8v-7h-6v-9.2h6v-7.1h4.8v-6.8h5.6v6.8h4.8v7.1h4v9.2h-4v7h-4.8v6.8h-5.6ZM109,367.5h-7.9v7h-4.8v6.8h-5.5v-6.8h-4.8v-7h-4v-9.2h4v-7.1h4.8v-6.8h5.5v6.8h4.8v7.1h7.9M64.3,367.3h4.1v-8.7h-4.1v8.7ZM91.4,367.3h4.1v-8.7h-4.1v8.7ZM89.8,223.2v4.7h3.4v7.1h4.5v4.3h3.4v6.9h7.9v16h-7.9v-4.6h-3.4v-6.7h-4.5v-8h-6.4v7.2h-4.7v5.3h-3.4v6.3h-4.5v6.7h-3.3v6.8h-3.2v7h-4.3v9.4h5.7v8.5h6.2v5.1h10.4v-7.4h-6v-6.7h4v-8.2h4.7v-7.2h5.9v7.2h4.9v8.2h3v6.7h6.8v12.7h-7.9v8.2h-3v6.3h-2.8v7.2h-4v7.1h-3.9v4.7h-4.7v7.1h-5.7v-7.1h-4.7v-4.7h-4v-7.1h-3.9v-7.2h-3.2v-6.2h-3.2v-5.4h-5.2v-39.7h5.9v-6.7h1.7v-7h4.4v-6.8h2.7v-5h2.8v-5.3h4.8v-5.2h6.9v-14.5M52.8,344.5v-13.7h4.4v13.7h-4.4ZM109,341.9h-7.9v-9.7h7.9M109,283.6h-7.9v-9.7h7.9v9.7ZM53,259v-8.8h4.2v8.8h-4.2ZM58.8,223.2v5.5h2.6v4.3h3.8v12.9h-3.8v-5.2h-4v-7.6h-4.4v-9.8M74.4,223.3v6.4h-4.2v-6.4"/>
  </g>
  <path class="st0" d="M105,300h795v150H105v-150Z"/>
</svg>