<?xml version="1.0" encoding="UTF-8"?>
<svg id="Calque_1" xmlns="http://www.w3.org/2000/svg" version="1.1" viewBox="0 0 1000 600">
  <!-- Generator: Adobe Illustrator 29.4.0, SVG Export Plug-In . SVG Version: 2.1.0 Build 152)  -->
  <defs>
    <style>
      .st0, .st1, .st2, .st3, .st4, .st5, .st6, .st7, .st8, .st9, .st10, .st11, .st12, .st13, .st14, .st15, .st16, .st17, .st18, .st19, .st20, .st21, .st22, .st23, .st24, .st25, .st26, .st27 {
        stroke: #000;
      }

      .st0, .st1, .st5, .st6, .st7, .st9, .st10, .st11, .st12, .st13, .st14, .st17, .st19, .st20, .st28, .st29, .st21, .st22, .st25 {
        stroke-width: .5px;
      }

      .st0, .st7, .st8, .st14, .st24 {
        stroke-linejoin: round;
      }

      .st1, .st3, .st5, .st7, .st30, .st8, .st31, .st13, .st14, .st32, .st17, .st18, .st19, .st20, .st28, .st24 {
        fill: #fff;
      }

      .st1, .st5, .st9, .st11, .st13, .st20, .st28, .st21, .st22, .st26 {
        stroke-miterlimit: 3.7;
      }

      .st1, .st7, .st8, .st9, .st10, .st24 {
        stroke-linecap: round;
      }

      .st2, .st3, .st4, .st6, .st10, .st12, .st33, .st15, .st32, .st16, .st17, .st18, .st29, .st23, .st34, .st25, .st27 {
        stroke-miterlimit: 3.1;
      }

      .st2, .st4, .st35, .st10, .st11, .st33, .st15, .st16, .st29, .st23, .st34, .st25, .st27 {
        fill: none;
      }

      .st2, .st27 {
        stroke-width: .9px;
      }

      .st3 {
        stroke-width: .5px;
      }

      .st4 {
        stroke-width: .4px;
      }

      .st5 {
        display: none;
      }

      .st6 {
        fill: #ad7d5a;
      }

      .st8 {
        stroke-width: .3px;
      }

      .st9 {
        fill: #ad7c59;
      }

      .st36 {
        fill: #5ac800;
      }

      .st31, .st37 {
        fill-rule: evenodd;
      }

      .st33, .st32, .st28, .st34 {
        stroke: #fff;
      }

      .st33, .st18 {
        stroke-width: .7px;
      }

      .st15 {
        stroke-width: .9px;
      }

      .st32 {
        stroke-width: .7px;
      }

      .st16 {
        stroke-width: .8px;
      }

      .st19 {
        stroke-miterlimit: 6.7;
      }

      .st20 {
        fill-opacity: 1;
      }

      .st29 {
        stroke: #060;
      }

      .st21 {
        fill: #653024;
      }

      .st23 {
        stroke-width: .5px;
      }

      .st24, .st26 {
        stroke-width: .3px;
      }

      .st34 {
        stroke-width: .7px;
      }

      .st38 {
        fill: #6f6;
      }

      .st27 {
        stroke-linecap: square;
      }
    </style>
  </defs>
  <path class="st31" d="M0,0h1000v600H0V0Z"/>
  <path class="st37" d="M0,60h1000v480H0V60Z"/>
  <circle class="st30" cx="500" cy="300" r="175"/>
  <path class="st6" d="M408.9,366.9c-.4,1.7-.8,3.4-1,5.1,0,.5-.5,3,1,3.1,1,.1,1.3-2.7,1.3-2.7,0,0-1,3,.3,3.4,1.7.4,1.9-3.3,1.9-3.3-.2,1-1.3,3.7.3,4,1.7.3,2.2-3.6,2.2-3.6,0,0-1.4,3.9.3,4,1.6,0,1.6-3.8,1.6-3.8,0,0-.9,4.7,1.4,4.3,1.2-.2,1.5-1.8,1.8-2.8.4-1.4,1.2-3.2.2-6.2-.8-2.2-.5-2.8-.5-2.8,0,0-2.7,2-4.7,3.3-1,.6-6.1-2.2-6.1-2.2h0ZM436.6,362.8c-.5-.3-.4,1.7-.6,2.7,0,1,.2,3,3.4,2.9,3.1-.3,6.3-1,8.3-.5,2.1.5,4.4.7,6.6.7,1.2,0,2.3-.1,3.4-.5.7-.3,2.1.4,2.8.4s1.7-1,1.6-1.7c-.1-1.2-1.2-1.2-2.8-1.3-1.6-.1-3.1-.4-4.7-.9-1.7-.8-3.5-1.4-5.3-1.9,0,0-4.6.2-5.5.2s-6.6.3-7.1,0h0Z"/>
  <path class="st35" d="M421.4,369.6l-.2-4.4,1.8,1.5.5-3.3c.8-.2,2,1.3,2,1.3l-.2-3.3,2.7,3c-.1-1.4.2-2.8.8-4.1,0,0,2.1,1.8,2.1,3.9s1.8-2.6,1.8-2.6l1.5,4.8,1.2-1.8,1,3.8,2.3-3.3,1.8,3.9,4.1-.3.5,2.3,1.8-2,2.4,1.5c1-.3,2-.5,3-.6,1,0,2.3,1.3,2.3,1.3.4-.7.9-1.3,1.5-1.8.8-.5,1.8.8,2.1,1.5l1.5-2.8c.9.8,1.6,1.8,2.3,2.8.1-1,.4-2.1.8-3,.5-.8,1.2.3,1.8,1.2l1.2-4.1c1,.3,1.8.9,2.3,1.8,1,1.5,1-2.3,1-2.3,1.2,1.6,2.1,3.3,2.9,5.1M529.1,369.1c.4-1.1,1-2.2,1.8-3.1,0,0,2,2.4,2,3.1.6-.3,1.1-.7,1.6-1l1.5,1.5,1.8-1.2,1.7,1.5,3.1-1.3,1.2,1.3,4.8-.6,1.8.8,1.7-2.2,1.6,1.7,2.6-2.6c.6.5,1.1,1.1,1.5,1.8,1-.4,1.8-1.1,2.6-1.8,0,0,2-.8,2.3.5,0,0,1.2-1,1.1-2s1.4-.3,1.9,1c0,0,.6-2.1,2.1-2.3.7,1,1,2.3.8,3.5,1-.8,2.1-1.5,3.3-2,.3,1.6.2,3.3-.3,4.8,0,0,2.4-3.9,2.8-2.6.5,1.7.5,3.4.2,5.1l2.1-1.3.8,2.6,2.3-.5M473.2,381.7c.8-1.3,1.7-2.5,2.8-3.6,1.3,1.1,2.4,2.5,3,4.1.2-1,.6-2,1-2.8,0,0,2.8,1.3,3.3,3.1.5-.9,1.1-1.6,1.8-2.3.8-.6,1.5,2,1.5,3.5,0,0,1.8-1.9,2.8-2,0,0,2,.9,2.6,4.3,0,0,1.9-1.8,2.6-1.5,0,0,2.3,1.5,1.7,3.6-.3,1.1,2.3-1.3,5.4-2.1l2.8,2.1s2.6-3.4,3.3-4.6c0,0,2.1.8,2.1,2,0,0,1-3.6,1.7-4,.8-.5,1.8,1.1,1.8,2.2,0,0,.3-2.8,1.8-3.3,0,0,1.5,1,1.5,2.1,0,0,1.6-3.1,2.8-3.9"/>
  <path class="st36" d="M421.4,369.6l-.2-4.4,1.8,1.5.5-3.3c.8-.2,2,1.3,2,1.3l-.2-3.3,2.7,3c-.1-1.4.2-2.8.8-4.1,0,0,2.1,1.8,2.1,3.9s1.8-2.6,1.8-2.6l1.5,4.8,1.2-1.8,1,3.8,2.3-3.3,1.8,3.9,4.1-.3.5,2.3,1.8-2,2.4,1.5c1-.3,2-.5,3-.6,1,0,2.3,1.3,2.3,1.3.4-.7.9-1.3,1.5-1.8.8-.5,1.8.8,2.1,1.5l1.5-2.8c.9.8,1.6,1.8,2.3,2.8.1-1,.4-2.1.8-3,.5-.8,1.2.3,1.8,1.2l1.2-4.1c1,.3,1.8.9,2.3,1.8,1,1.5,1-2.3,1-2.3,1.2,1.6,2.1,3.3,2.8,5.1,0,0-15.7,5.4-26.8,3.9-13.1-1.7-23.8-4.2-23.8-4.2M529.1,369.1c.4-1.1,1-2.2,1.8-3.1,0,0,2,2.4,2,3.1.6-.3,1.1-.7,1.6-1l1.5,1.5,1.8-1.2,1.7,1.5,3.1-1.3,1.2,1.3,4.8-.6,1.8.8,1.7-2.2,1.6,1.7,2.6-2.6c.6.5,1.1,1.1,1.5,1.8,1-.4,1.8-1.1,2.6-1.8,0,0,2-.8,2.3.5,0,0,1.2-1,1.1-2s1.4-.3,1.9,1c0,0,.6-2.1,2.1-2.3.7,1,1,2.3.8,3.5,1-.8,2.1-1.5,3.3-2,.3,1.6.2,3.3-.3,4.8,0,0,2.4-3.9,2.8-2.6.5,1.7.5,3.4.2,5.1l2.1-1.3.8,2.6,2.3-.5c-8.7,1.2-17.4,1.5-26.2.9-8.4-.9-16.7-2.9-24.6-5.7M519.7,378.5c.6-.4-4.2,10-16,10.5-16.4.8-30.4-7.4-30.4-7.4.8-1.3,1.7-2.5,2.8-3.6,1.3,1.1,2.4,2.5,3,4.1.2-1,.6-2,1-2.8,0,0,2.8,1.3,3.3,3.1.5-.9,1.1-1.6,1.8-2.3.8-.6,1.5,2,1.5,3.5,0,0,1.8-1.9,2.8-2,0,0,2,1,2.6,4.3,0,0,1.9-1.8,2.6-1.5,0,0,2.3,1.5,1.7,3.6-.3,1.1,2.3-1.3,5.4-2.1l2.8,2.1s2.6-3.4,3.3-4.6c0,0,2.1.8,2.1,2,0,0,1-3.6,1.7-4,.8-.5,1.8,1.1,1.8,2.2,0,0,.3-2.8,1.8-3.3,0,0,1.5,1,1.5,2.1,0,0,1.6-3.1,2.8-3.9h0Z"/>
  <path class="st38" d="M531.6,183.3c-.8-.1-1.5-.4-2.2-.9l2.2.9"/>
  <path class="st29" d="M531.6,183.3c-.8-.1-1.5-.4-2.2-.9"/>
  <path class="st35" d="M507,202.1l1.2.8,1.3.2s1.4,1.3,3,2.6c1.2,1,1.2-.2,1.2-.2l.8,3h1c-.1,1-.2,2-.3,3l1.8-1.5,2.1,1.8s1.5-1.3,2.3-1.3c.5,0,.9-.3,1-.8h0c-5-2.4-7.2-4.8-5.7-7.4,2.5-4.3,6.6-1.5,7.9-.9l18.4,9.9s1.2-.8.4-1.5c-.9-.9-1.3-2.2-1-3.4.3-.8,2.4,2.4,3.4,2.7s3.4.7,3.4.7v-1c0,0,2.9,2.1,2.9,3.1,0,0,2.2-1.1,1.4-1.8s3.3,1.6,3.6,2.9l.9-1c0-1.6.5-3.1,1.3-4.5.5-.8,1.2-1.4,2-1.8,0,0,1-1.6,1.9-1.6-.5-.4-1-.9-1.3-1.4-.4-.5-1-.9-1.6-1.1.6-.5,1.2-1,1.8-1.5.2-.3.4-.5.8-.7-1.1-.9-2.3-1.6-3.7-2.1,0,0,0-2.5-2-2.7h.9s-1.4-2.7-2.8-2.8c.4-.5,1-.9,1.6-1,0,0-1.6-2.1-3.8-1.3l1.4-.6s-1-1.1-4.3-.6c.1-.9-.3-1.9-1.1-2.4,0,0-1.2,0-1.2,1-.7-.6-1.6-1-2.6-1-1.4,0,.5,1.5.5,1.5,0,0-1.9-1.2-3-.9,0,0,.5-2.2-.8-3.3-.8.4-1.4,1-1.8,1.7l-.4-1s-1.9,2.3-2.3,1.6c-.3-.6-.5-1.3-.6-2l-1.1,1.7.2-2.4c-1.1.8-1.9,1.9-2.4,3.2-.7.6-1.2,1.5-1.3,2.4-.4-.6-1.2-.7-1.7-.3-.1,0-.2.2-.3.3-.9,1.3,0,1,0,1-.4.4-.8.6-1.3.7l.2.8c-.7-.4-1.4-.5-2.2-.4l.5,1.1s-2.5.2-2.6-1.8c0,0-2.1-1-2.4,0,0,0-1.7,0-1.5.9-.3-.5-.8-.9-1.3-1.1-.9-.3-.2,1.2-.2,1.2-.2-.7-.7-1.4-1.4-1.7-1.1-.5-.2,1-.2,1,0,0-1.5-1.2-.8-2.2,0,0-1.4,1.3-.8,2.6l-1,.7s-.5-.5-.4-.9-1.6,1.1-1.6,1.1c0,0-1-2.5,0-2.5-1.1,0-2.1.9-2.1,2.1-.8,0-1.6.2-2.4.5-1.2.4.9,1.2.9,1.2-.9-.2-1.9-.1-2.8.2l.7.9s-.7-.7-2.3,0c-1.7.5.4.8.4.8-.8-.2-1.7-.2-2.6,0-.9.4.3,1,.3,1,0,0-3.1-.9-3.6-.7s1,1.8,1,1.8c0,0-1.9.5-2.3,1.9l1.7.7c-.5.3-.9.7-1.1,1.1-.4.8,1.1.4,1.1.4,0,0-2.1,1.5-2.1,2.7.9.3,1.9,0,2.7-.7,1.1-1.1.4-.8.4-.8v.8c0,0,2.3-.9,2.3-1.5s-.4.8-.4.8l2.2-1.1,1.4.9"/>
  <path class="st35" d="M505.2,172.4l-.5-2.1c1.6,0,3.3.2,4.8.6l.9-2c1.1.5,2.1,1.1,3,1.8,0,0,4.5-1.1,5.8-.7l-.6,2.1c1.8.1,3.6.4,5.4.8,1.2.5-.6,1.5-.6,1.5,0,0,4.7.6,6.6,1.8,2.1,1.2,2.1,2.3,1,2.6l2.6,4.1s-4.1.5-4.8,1.5-1.5-1-1.5-1l-.8,2.9c-1.3-.6-2.5-1.4-3.6-2.3,0,0-1.2,1.5-.5,2.3-2,0-3.8-1.2-4.7-3,0,0-2-.3-2,1.5,0,0-2.3-2.6-2.8-3.3l-2.6.8c-.4-.6-1-1.1-1.7-1.3-1-.2-.3,1.3-.3,1.3l-1.5-1.8-1.5-1.8s-1.3,1.8-2.4,1.8-1-1.2-.8-2.1c.3-.8-3-.9-3.3,0,0,0-1-3.8,2.6-4.8l3.6-.9"/>
  <path class="st17" d="M528.8,184.5s.6-1.3,1.6-.6c1,.8,1.2,4.1,1.2,4.1l-1.5.8s.9-1.2-1.3-4.3h0ZM520.2,214.3s.8-1-.3-3.3l1.5-.5c.3,1.3.3,2.6-.2,3.8h-1M546.5,209.1l-3.6,2.2,1.8.9,4.4-2.6-2.6-.5M498.2,223.2c-1,.8-1,2.1-1.6,2.8-.5.8-1.9,1.8-2,2.9-.3,1.1-.2,2.3.2,3.4.6,1.5,2.9,8.3,2,13.4-1,5.1-.7,7.3-.3,8.1s1.5,2.8,2.2,2.8c1.5-.2.9-.7,1.4-1.6,1.4-2.5,0-21.6-.7-26.9-.4-2.8-1.3-5.6-2.6-8.2-.2-.5-.6-1.7-.9-2.5-1.4-3.4-3.1-6.4-3.1-13.5,0,0-4.7,1-8.6-8-2.1-4.6-5.1-4.1-8.7-5.6l1.6-1s3,1.5,4.6,1.5,1.1-3,1.1-3l1.5-1.5v6.6c0,3,4.2,7.2,6.6,8.5,1.5.8,3.5-2.4,3-5.4-.3-2.4-.3-4.8,0-7.1l2.1,1.2c-.4.6-.6,1.4-.6,2.1.3.8,1.3-.8,2.1-1.5,0,0,.2.2,1,.2,0,0-1.5,2.6-2.3,3.9-.8,1.2-.8,6.1-.8,7.9s.7,6,.7,7.3,1.8,4.8,3.2,7.2c.5,1.1,1.1,2.3,1.6,3.4,1.1,1.8,1.2,3,1.9,4.6.8,2.2,1.3,4.4,1.5,6.7.2.9.4,4.6.7,6.9.3,2.3,2.2.5,4.5-1.1,2.3-1.7,2.3-5.8,2.3-5.8,0,0,1.8-1.5,1.5-.7-.2.9,1,1.9,1,1.9-1.4,3.2-.6,2.8.9,2.8,1.4-.2,6.4-3.9,6.4-3.9.7-.2,3.6-.2,3.1,0-.6.3-1.3,1.7-1.3,1.7l3.2-.4c-1.1.9-5.4,3.3-6.4,3.9-2.7,1.5-5.5,2.8-8.4,4-2.2.9-6.5,3-6.6,5.2,0,2.2.3,8.1,0,10-.2,1.9-1,10.4-1,10.4h-10.2s2-7.4-.1-9.4c-2-2.1-6.6-8.2-9.7-10.3-3-2,2-.5,2-.5v-2.1l4.7,5.6s8.1-7.1,0-16.8c-2.6-3-5.1-7.7-7.1-8.2-2.1-.8-4.5-.8-6.6,0-3.6,1-12.2,1-15.9-4.7l3-.5,2.6-1s-1,3.6,6.2,3.6,8.2,0,7.6-6.6l2.1-1,1.5,1.5s-1,3.6-.5,5.1c.5,1.5,3,2.6,5,4.1.6.5,1.3.8,2.1.8.9,0,1,0,2.2-1.2.9-1.2,1.9-2.3,3-3.3,0,0,.9-1.3,1-1.5l1,2.8h0Z"/>
  <path class="st17" d="M499.7,218.2c.7-1,1.3-2,1.8-3,1.1-1.9,2.5-3,4-5.4,1.4-2.3,1.9-5,1.4-7.7l1.3.8v3.6c.9-.7,1.8-1.3,2.7-1.9l.8.4c-4.3,4.7-8,9.8-11,15.4l-1-2.1h0ZM449.8,198.5c.8,1.3,1.5,3.9,3.8,5.9l1.5-.5s-3.5-4.1-3.5-5.9l-1.8.5M458.7,196.2s.5,4.8-.8,6.6l1.5-.8s1-3.3.8-5.1l-1.5-.8h0ZM508.7,180.9s-.3,6.8,1,11l1.8-.6c-.1-.8.4-1.6,1.2-1.8,2.5-.8,4.8-2,6.9-3.5l-.6-1.5c-1.3,1-2.6,2-4.1,2.8-1.2.5-2,1-3,.8s-2.3-2-1.5-5.9l-1.8-1.2ZM528.8,212.8c-.2,2.3-.3,4.6-.2,6.9l1.6.4s-.4-5.8.7-6.3l-2.1-1M536.1,216.4s-1.8,3.1-3.9,3.4l3.3-.7c.9-.5,1.7-1.2,2.4-2l-1.8-.8"/>
  <path class="st17" d="M507,202.1l1.2.8,1.3.2s1.4,1.3,3,2.6c1.2,1,1.2-.2,1.2-.2l.8,3h1c-.1,1-.2,2-.3,3l1.8-1.5,2.1,1.8s1.5-1.3,2.3-1.3c.5,0,.9-.3,1-.8h0c-5-2.4-7.2-4.8-5.7-7.4,2.5-4.3,6.6-1.5,7.9-.9l18.4,9.9s1.2-.8.4-1.5c-.9-.9-1.3-2.2-1-3.4.3-.8,2.4,2.4,3.4,2.7s3.4.7,3.4.7v-.9c0,0,2.9,2.1,2.9,3.1,0,0,2.2-1.1,1.4-1.8s3.3,1.6,3.6,2.9l.9-1c0-1.6.5-3.1,1.3-4.5.5-.8,1.2-1.4,2-1.8,0,0,1-1.6,1.9-1.6-.5-.4-1-.9-1.3-1.4-.4-.5-1-.9-1.6-1.1.6-.5,1.2-1,1.8-1.5.2-.3.4-.5.8-.7-1.1-.9-2.3-1.6-3.7-2.1,0,0,0-2.5-2-2.7h.9s-1.4-2.7-2.8-2.8c.4-.5,1-.9,1.6-1,0,0-1.6-2.1-3.8-1.3l1.4-.6s-1-1.1-4.3-.6c.1-.9-.3-1.9-1.1-2.4,0,0-1.2,0-1.2,1-.7-.6-1.6-1-2.6-1-1.4,0,.5,1.5.5,1.5,0,0-1.9-1.2-3-.9,0,0,.5-2.2-.8-3.3-.7.4-1.4,1-1.8,1.7l-.4-.9s-1.9,2.3-2.3,1.6c-.3-.6-.5-1.3-.6-2l-1.1,1.7.2-2.4c-1.1.8-1.9,1.9-2.4,3.2-.7.6-1.2,1.5-1.3,2.4-.4-.6-1.2-.7-1.7-.3-.1,0-.2.2-.3.3-.9,1.3,0,1,0,1-.4.4-.8.6-1.3.7l.2.8c-.7-.4-1.4-.5-2.2-.4l.5,1.1s-2.5.2-2.6-1.8c0,0-2.1-1-2.4,0l-1.5,1c-.3-.5-.8-.9-1.3-1.1-1-.3-.2,1.2-.2,1.2-.2-.7-.7-1.4-1.4-1.7-1.1-.5-.2,1-.2,1,0,0-1.5-1.2-.8-2.2,0,0-1.4,1.3-.8,2.6l-1,.7s-.5-.5-.4-.9-1.6,1.1-1.6,1.1c0,0-1-2.5,0-2.5-1.1,0-2.1.9-2.1,2.1-.8,0-1.6.2-2.4.5-1.2.4.9,1.2.9,1.2-.9-.2-1.9-.1-2.8.2l.7.9s-.7-.7-2.3-.1c-1.7.5.4.8.4.8-.8-.2-1.7-.2-2.6,0-.9.4.3,1,.3,1,0,0-3.1-.9-3.6-.7s1,1.8,1,1.8c0,0-1.9.5-2.3,1.9l1.7.7c-.5.3-.9.7-1.1,1.1-.4.8,1.1.4,1.1.4,0,0-2.1,1.5-2.1,2.7.9.3,1.9,0,2.7-.7,1.1-1.1.4-.8.4-.8v.8c.1,0,2.3-.9,2.3-1.5s-.4.8-.4.8l2.2-1.1,1.4,1h0Z"/>
  <path class="st17" d="M505.2,172.4l-.5-2.1,4.8.6.9-2c1.1.5,2.1,1.1,3,1.8,0,0,4.5-1.1,5.8-.7l-.6,2.1c1.8.1,3.6.4,5.4.8,1.2.5-.6,1.5-.6,1.5,0,0,4.7.6,6.6,1.8,2.1,1.2,2.1,2.3,1,2.6l2.6,4.1s-4.1.5-4.8,1.5-1.5-1-1.5-1l-.8,2.8c-1.3-.6-2.5-1.4-3.6-2.3,0,0-1.2,1.5-.5,2.3l-4.7-3s-2-.3-2,1.5c0,0-2.3-2.6-2.8-3.3l-2.6.8c-.4-.6-1-1.1-1.7-1.3-1-.2-.3,1.3-.3,1.3l-1.5-1.8-1.5-1.8s-1.3,1.8-2.4,1.8-1-1.2-.8-2.1c.3-.8-3-.9-3.3,0,0,0-1-3.8,2.6-4.8l3.6-1h0ZM486.8,185.4l-1.6,1.5-1-.5-1.9,2.1-.4-1.1-1,1.7-1.6-.6-.8,1.2-1.4-.3c-.6.6-1.3,1-2,1.4-.8.2,0-1.7,0-1.7,0,0-1.1,1.9-2,1.9s-.5-.9-.5-.9c0,0-.5,1.2-1.4,1.4-.9.1-.5-.9-.5-.9l-1.5,1.1v-.9l-.7-.3s.4-1.7,1-2.1-.7-1.5-.7-1.5l.7-.8s-1.9-.5-1.9,0c0,0,1-2.6,2.3-3v-2.8c.8-.6,1.7-1.1,2.7-1.2,1.3-.2-.4-2.2-.4-2.2l3-1.8.4-2.2,4.7.4,1-2,3.7.9,3.1-1.6,2.3,2.7,3.4.3s0,2.4,0,3c1.6.4,3.1,1,4.6,1.6-.3,1-.6,1.9-.8,2.9,1.2-.4,2.4-.5,3.7-.6,0,0,.3,2.7.4,3.3,0,0,4.8,1.5,5.1,2.4-.6.4-1.2.9-1.6,1.5.3,1.3.5,2.6.6,3.9l-.4.6c-.7-.7-1.6-1.2-2.6-1.5l-1,2.1-1.7-1.1h-1c0,0-.9-.9-1.5-.9v-.9c0,0-1.4.9-1.4.9,0,0-2.1-1-2.1-1.7s.1-1.5.1-1.5l-2.2,1.5c-.2-.5-.4-1.1-.4-1.6,0-.5-.9,1.1-.9,1.1-.5-.7-.8-1.5-1-2.4l-.3,1.6s-2.3-.8-2.6-2.3h0Z"/>
  <path class="st17" d="M456.4,194.8s4,2,4,2.9c0,0,1-2.1.5-2.9l1.5,1s.5-1.9-.1-2.5c-.5-.5,3.4-2.1,4.3.5,0,0,2.4-2.5-2.2-4.6,0,0-.4-1.5,2.4-1.1-.1-.5-.4-1-.9-1.3h2.7c-1.2-.9-2.5-1.5-4-1.7-2.3-.4-.9-.7-1-1.1,0-.7,0-1.5,0-2.2-.8-.3-1.6-.2-2.4,0l.4-.5s-2.5-.7-3.4,0c-.8-.3-1.3-1.2-1.2-2.1-.9,0-1.8.6-2.1,1.4-.8.9-1.9,1.4-3.1,1.5-.6-.2-1.2-.4-1.7-.8l-1.1,2.7h-1.8c0,0,.6.9.6.9,0,0-2.8-.8-3.6,0,.5.8.8,1.8.8,2.8-.9.1-1.8.4-2.7.8-.6.4.8.7.8.7,0,0-2.5.8-3,1.5l1,.8-1.1,1.5,1,.2s-1.6.5-2.5.8,1.5.5,1.5.5l-1.1,1,1.8.3c-.7,1.8-1.2,3.7-1.5,5.6,0,0,2.2-2.7,2.8-2.8l-1.7,2.8s3.2-1,3.5-1.5c.3-.6.6-1,.6-1v1.6c.6-.7,1.1-1.5,1.5-2.4.1-.7,2,.7,2,.7v-1s1.7.6,2.3.7c.7,0,.8-.3.8-.3l1.6-.2-.3,1.3c.6-.4,1.1-.9,1.4-1.5.2-.8.8,0,.8,0l.8-3h1.6ZM443.4,208.2l1.5,3.1c-1.1.3-2.1.8-3,1.5.3,5.2-1,4.9-1,4.9.2.9,0,1.8-.2,2.7l7.6-4.5v-.5c.1,0,9-4.2,9-4.2l.3.5,2.6-1.4,1.8,4.7-1.8,1c.1,1.6,2,4.5,2,4.5l2.4-.6,2.6-1s.1,1.4.1,1,2.8-1.3,2.8-1.3l1.2,1.2c1,0,2.7-2.4,2.7-2.4l2,.8c.4-.6.6-1.3.7-2,0-.8,2.5-.8,2.5-.8l1.7,1.2,2.2-1.8s.7,1.3,1.5,1.5c1,.1,3.3,1.9,3.3,1.5.3-.9.6-1.7,1-2.5l4,1.6c-.5-1.4-1.1-2.7-1.9-4,0,0,1.9-1.5,1.5-1.9s-1.5,0-1.5,0l1.1-2.3h-1.5l.5-.6-2.5-1,1.3-2.7c-.6-.7-7.1-2-7.1-2l1.5-1.4s-.8-1.1-1.5-1.1-4.7.1-4.9-.3c-.5-.7-1.1-1.3-1.7-1.8l-2.5,1.8-1.2-.4-2.2.9s0,1.2-.3.4c-.7-1-1.4-1.9-2.3-2.8-.4.7-2.9,3.7-2.9,3.7,0,0-.4,1.6-1.2.5-1-1.1-2.9-2.4-3.2-1.4-.3,1-2.1,2-2.5,1.7s-2.5,0-2.7.5c-.1.7-2.4,2.4-2.4,2.4-1.2-.4-2.5-.5-3.7-.3-.4.6-.6,1.2-.8,1.9l-4.7,1.2h0ZM486.3,246.7v-2l2.3,1.5,1.3-1.5,1.7,1.7,1-1.7v2.8l2.6-2.3,1.5.7v-2.2s1.8-3,1-3.6l1.5-.5c-1.1-1.1-2.2-2.1-3.3-3-.5-.4-1.2-.6-1.8-.6-1-1-2.1-1.9-3.3-2.6-.7-.3-1.5,0-2,.6-.4-.9-1.2-1.5-2.1-1.8-1.2-.3-1.2,1-1.2,1-.6-.6-1.4-1.1-2.2-1.4-1.2-.6-.4,1.1-.4,1.1l-4.4-1.3.6,1.3-4.1-1,.5,1.5-2.8-.5-.2,1.2-4.1.8.8,1.3-2.6-1v1.8l-2.8,1,1,1s-3.8,1.8-4.6,2.4c-.8.5,1.5,1.5,1.5,1.5l-4.1-.6,1.5,1.3-3.6,3.3,2.6,1.8-1.5,2.3,3.8.8,1.5,2.6,3.1-.6v2.8l4.6-3.6s3.3,2.9,3.6,2.1c.1-1.1.2-2.2.2-3.3h1.6v-2.6l1.2,1,2.1-3,2.8,3.8,2.1-4.8,3,.5h0ZM504.9,235.2l-.5-4.4-1.3,1.3.6-4.1-2.1-.4.8-4-1.5-.8.4-1.9,1.5-1.1,2.8-2.7h6.4c0,.1.8-2,.8-2l4.6.8c.8.9,3.1-1.7,3.1-1.7h1l1,2s3.3-.5,4.8.6l-1.8,2.5,3.3.3,2.3.5,2.4-.8,3-.2.8,1.2h2.8l-.9,1.1,3.7,1.7-.8.8c1.2.4,2.4.7,3.6.8h.8s.8,1.8-.3,2.6c0,0,1,2.6,3.3,3s2.3.5,2.6,1c.3,1.3-.5,2.7-1.9,3-.2,0-.5,0-.7,0v2.6c-.9.8-1.6,1.6-2.3,2.6l-1.5-1c-.7.7-1.1,1.6-1.3,2.6,0,0-3.3-4.4-4.6-4.6-1.3-.3-1,2.5-1,2.5l-3.6-3-.5,2.1-3-2.6-1.8,1.2-3.2-3.3-3.1.4,1.2-1.6h-3.8l-.8-3.3-.6,2.8-2.3-1.5-2.9,3.2c-.4-.6-.7-1.2-.9-1.9-.5-1.5-1.8,1.8-1.8,1.8l-1-2.4-1.2,2.4c-.5-.9-1.2-1.7-2.1-2.4-.9-.5-2,2.8-2.3,4.4h0ZM505.5,245.2l.2-1.5,5.4-2.1,4.6-1.7,2.3-1,1,1.8,1.3-2.6,2.1,2.7,1.1-1.4,1.8,1.3h1.5l.3,2s3.8.3,4.1-.5.8,2.6.8,2.6l3.6.5.8,4.1s1.8,3.8,1.2,5.3c-.5,1.6-2-2-2-2-.1,1.2-.3,2.4-.6,3.6-.2.8-4.8-.8-4.8-.8l-2,3.8s-2.1-3-3-3-1,3-1,3c0,0-3-3.6-4.4-5.1-1.2-1.5-1.5,1.5-1.5,1.5,0,0-2-3.3-2-4.3s-1.8-2.1-1.8-2.1c0,0-3.1,3.6-5.4,4.6,0,0,.3-2.3-.5-3s-3,1.5-3,1.5c-.9-2.3-.9-4.8,0-7.1h0Z"/>
  <path class="st25" d="M530.6,188.6l.5,1.9c.9-.2,1.9-.3,2.8-.3-.1.8-.4,1.5-.7,2.2,0,0,2.3-.4,3.3.3l-.5,1.1,2.7,1.1-2.5,2s4,1.4,4.7,2.6c0,0-2.6,1.8-2.9,1.7-.4-.2,0,.8.6,1.6h-2.2c.4.8.7,1.7.8,2.7,0,.8-3.6.6-3.6.6M547.3,200.9s.7-3.8-.4-4.7c0,0,2.5,2.1,4.1,2.2,1.7.1,0-3.1,0-3.1,1.1.6,2.3,1.1,3.5,1.5,1.1.2-.9-2.4-.9-2.4,0,0,.7-1.2,2.6-.1M511.9,179.2c0-.5,0-.9-.3-1.3-2.3-3.1,2.4,2.4,3.3,2.6M519.3,180.4c.7.5,1.4.9,2.3,1.1.8,0-.5-3-.9-3.4s2.8,1.2,3.9,1.4c1.1.3,1.3-1.9,1.3-1.9,1.5.2,2.9.6,4.3,1M505.9,178s-.3-2-.4-2.8M481.9,187.5c-.2-.4,1-2.1.5-2.8.4.3.8.6,1.3.7.6,0,.4-2.2.4-2.2l.8.3s2-1,1.6-1.7,1.3,1.1,1.3,1.1c0,0,1.1-1.1,1.1-1.6s1.3,1.1,1.3,1.1c0,0,1.4-.3,1.4-1.1s1.8.3,1.8.3c.4-.5.6-1.1.7-1.7M475,189.3s.9-2-.1-3.3M451.9,195.6c.1-.9.6-3.5.1-3.9s1,.4,2.1.7M463.1,192c-1.1-1.1-1.8-1.7-3.6-1.7M443.9,198.4c.5-1,.6-2.1.5-3.2M468.6,245.5l1.2-2.6,1.5,3.6,1-2.3.4.8,2.3-2.5,2.5,3.7M517.2,230.2l1.6-3.2,2.2,1.1,1-3.1,2.3,1.4,1.3-2.9,2.6.7.2-2.1c.9.5,1.6,1.1,2.3,1.8.6.8,0-2.6,0-2.6l2.1.9c.6-.5.7-1.3.2-1.9-.2-.3-.5-.4-.8-.5"/>
  <path class="st25" d="M523.5,226.1l2.3,3.3,1.9-2.2,1.7,3.7,2.2-1.3,3.1,1.8,1.4-1.1,3.4,2.5,1.4-2.9,3,.9,2-3.4M464,218.4s1.3-2.3.9-3.3c-.6-1,2.8,1.8,2.8,1.8,0,0,.8-2.3.3-3.3-.6-1,3.8,3,3.8,3,0,0,.8-3.5,0-4.3s4.2,1,4.2,1c0,0,2-.6,1.2-1.6s3.3,1.5,3.3,1.5c0,0,.9-2.6,0-3.5-1-1,3,1.2,3,1.2l-1.5-2.8,3.3.2-.3-3M514.4,249.3l2.2-1,1.9,1.9,2.1-3.3,2.6,2.5.4-2.5,2.8,1.1.6-1.5,3,1.6.3-2.3,1.5.5.3-1.5"/>
  <path class="st30" d="M464.8,357.3c-2.4-4-4.3-8.2-5.8-12.6l41.1-36.2,41.1,36.1c-1.5,4.5-3.5,8.9-6,12.9l-.3.5c-1-.4-2.1-.8-3.1-1.2-.7.6-1.5,1.1-2.4,1.3-1,0-2-.5-2.7-1.2-1,.8-2.3,1.3-3.6,1.2-1,0-1.9-.5-2.6-1.3,0,0-1.9,1.5-3.2,1.2-.8-.2-1.5-.6-2.1-1.1-.7.8-1.7,1.2-2.8,1.1-1-.2-2-.6-2.9-1.1-1.2.6-2.6,1-3.9,1.2-1.5.3-2.8-1.3-2.8-1.3-.8.6-1.8,1-2.8,1.3-1.2-.3-2.5-.8-3.6-1.3-1.3.4-2.6.8-4,1-1.3-.3-2.6-.7-3.9-1.2-1.3.4-2.6.6-4,.8-1.1,0-2.2-.3-3.2-.8,0,0-2.3,1-3.5.8-.8-.2-1.6-.4-2.4-.8-1.3.6-2.7.8-4.1.8-1.2-.3-2.3-.7-3.3-1.3,0,0-.3.8-3.2,1.3h-.1"/>
  <path class="st18" d="M500.1,266.9v41.6l-41.1,36.4c-2.9-8.5-4.3-17.4-4.3-26.4v-51.6h45.4"/>
  <path class="st18" d="M500.1,266.9v41.6l41,36.4c2.9-8.5,4.3-17.4,4.3-26.4v-51.6h-45.3"/>
  <path class="st12" d="M473.6,348.7c3.1,1.7,2,1.1,8.5,3.4,5.2,1.8,11.3,2.7,20.1,2.7s12.1-.6,14.5-1.3c2.5-.7,3.1-1.8,3.1-1.8l-6.4,6.5s-25.6,1.4-30.2-1.6c-1.8-1-5.7-4.1-9.7-7.9h0Z"/>
  <path class="st10" d="M511.1,336.6s8.2,4.7,0,13.6M474.3,349.2l11.8-11.2-1.3,15M490.9,354.1v-24.9M511.1,354.3v-26.6M500.9,354.8v-28.6"/>
  <path class="st0" d="M490.9,330.6l-5.3,1.7,5.3.6v-2.3M500.9,326.7l-5.6,2.1,5.6.2v-2.3ZM511.1,328.2l-5.6,2.1,5.6.3v-2.4ZM514.4,340.3c-.3-1.1,3.3-1,3.3-1,0,0,1,3.8,0,6.2l-3-.6c.2-1.5,0-3.1-.3-4.6h0Z"/>
  <path class="st14" d="M476.1,347.7l10-9.7-.5,5.8s-5.1,3.3-5.1,5.7l-4.4-1.8M481.4,349.7c.7-1.9,2.1-3.5,3.9-4.6l-.3,6.1-3.6-1.5h0ZM495.8,332.9c2.4-.3,4.8-.3,7.1,0,0,0-.5,4.1,0,4.8,0,0-5.6-1.3-7.9.8,0,0-.8-3.8.8-5.6h0ZM487.1,333.9c2.4-.3,4.8-.3,7.1,0,0,0-.8,4.6-.3,5.3,0,0-4.6-2.6-6.8-.5,0,0-1.5-3.1,0-4.8h0Z"/>
  <path class="st7" d="M486.8,339.2c2.4-.3,4.8-.3,7.1,0,0,0-.5,4.1,0,4.8,0,0-5.3-1.2-7.6.8,0,0-1-3.8.5-5.6ZM495,338.4s5.9-.8,8.9-.3c0,0-1.2,3.3.3,5.6,0,0-6.4-1.7-8.7.3,0,0-2-3.8-.5-5.6h0ZM486.4,344.8l7.9.6s-.8,5.8-.3,6.6c0,0-6.4-1.5-7.6.6,0,0-2.1-5.3,0-7.7h0ZM495.3,344.8s6.8-.5,10,0c0,0-1.8,4.4.2,8.2,0,0-8.9-2.6-10.2-.5,0,0-2.1-5.3,0-7.7h0ZM505.7,332.8c2.4-.3,4.8-.3,7.1,0,0,0-.5,4.1,0,4.8,0,0-5.6-1.3-7.9.8,0,0-.8-3.8.8-5.6h0ZM505.7,338.4c2.4-.3,4.8-.3,7.1,0,0,0-.5,4.1,0,4.8,0,0-5.6-1.2-7.9.8,0,0-.8-3.8.8-5.6h0ZM506.2,344.3c2.4-.3,4.8-.3,7.2,0,0,0-1,6.4-.6,7.1,0,0-4.6-2.2-6.8-.3,0,0-1.3-5,.2-6.8h0Z"/>
  <path class="st17" d="M514.7,344.8s1.3,4.8,3,5.4l-2.3,2.8s-2.8-2-3-4.3c1-1.1,1.8-2.5,2.3-3.9h0Z"/>
  <path class="st17" d="M535,357.9c-6.6,10.9-17.3,21.2-34.9,27.5-17.9-6.5-28.9-17.2-35.3-28h.1c2.9-.7,3.2-1.4,3.2-1.4,1,.6,2.2,1,3.3,1.3,1.4,0,2.8-.2,4.1-.8.8.3,1.6.6,2.4.8,1.2.3,3.5-.8,3.5-.8,1,.4,2.1.7,3.2.8,1.3-.1,2.7-.4,4-.8,1.2.5,2.6,1,3.9,1.2,1.4-.2,2.7-.5,4-.9,1.2.6,2.4,1,3.6,1.3,1-.3,1.9-.7,2.8-1.3,0,0,1.3,1.6,2.8,1.3,1.3-.3,2.6-.7,3.9-1.2.9.5,1.9.9,2.9,1.1,1.1.1,2.1-.3,2.8-1.1.6.5,1.3.9,2.1,1.1,1.3.3,3.2-1.2,3.2-1.2.6.8,1.6,1.3,2.6,1.3,1.3,0,2.6-.4,3.6-1.2.7.8,1.6,1.2,2.7,1.2.9-.2,1.7-.7,2.4-1.3,0,0,2.4.8,3.2,1"/>
  <path class="st25" d="M533.4,360.4c-1.4.1-1.6-.9-1.6-.9,0,0-1.9,1.6-3.7,1.3-1.1-.1-2.1-.7-2.8-1.5,0,0-2,1.6-3.3,1.3-.9-.2-1.6-.5-2.3-1.1-.7.8-1.8,1.2-2.8,1.1-1.1-.2-2.1-.6-3-1.1-1.4.6-2.8,1-4.2,1.3-1.6.3-2.9-1.5-2.9-1.5-1.5.5-2.9.9-4.5,1.2-1.2-.3-2.4-.7-3.5-1.2-.9.6-1.8,1-2.8,1.1-1.4-.3-2.8-.7-4.2-1.3-1.4.4-2.8.6-4.2.8-1.1,0-2.3-.4-3.3-.8,0,0-2.5,1-3.8.8-.8-.2-1.6-.4-2.4-.8-1.4.5-2.8.8-4.3.8-1.2-.3-2.4-.7-3.5-1.3,0,0-.3.7-3.4,1.3h-.1"/>
  <path class="st17" d="M474.4,364.3s-.3.6-2.7,1.2c0,0-.7.1-.7.1.2,0,.4,0,.6-.1-.2,0-.5.2-.7.2,3.1,4.2,7,7.8,11.4,10.7,4.4,2.9,9.4,6.5,17.9,9,9-3.5,11.4-4.8,17.3-8.8,5.9-4.3,8.9-7,12.2-11.4-2.6,1.5-2.2,1.5-3.5,1.3-.9-.2-1.7-.6-2.3-1.3-.7.8-1.7,1.3-2.8,1.3-1.1-.2-2.1-.6-3-1.3-1.2.8-2.7,1.3-4.2,1.3-1.1-.2-2.2-.7-2.9-1.5-1.5.5-3,.9-4.5,1.2-1.2-.3-2.4-.7-3.5-1.2-.9.6-1.8,1-2.9,1.1-1.4-.3-2.8-.7-4.2-1.3-1.4.4-2.8.6-4.2.8-1.1,0-2.3-.3-3.3-.8,0,0-2.4,1-3.8.8-.8-.2-1.6-.4-2.4-.8-1.4.5-2.8.8-4.3.8-1.2-.3-2.4-.7-3.5-1.3h0Z"/>
  <path class="st17" d="M500.3,385.3c9.3-3.9,11-4.9,16.6-8.4-1,0-3.8-.9-2.8-1.2-.6.6-1.4.9-2.3,1-1.4-.3-2.8-.7-4.1-1.3-1.4.4-2.8.6-4.2.8-1.1,0-2.3-.3-3.3-.8,0,0-2.5,1-3.8.8-.8-.2-1.6-.4-2.4-.8,0,0-2.8,1-4.3.8-1.2-.3-2.4-.7-3.5-1.3-1.2.6-2.5,1.1-3.8,1.4,5.3,4.1,11.4,7.2,17.8,9h0Z"/>
  <path class="st19" d="M461.7,270.5c-.7,0-1.4.4-2.7,1.5-1.9,1.7-2.6,3.5,0,5.7l12.5,11.3c1.8,1.8,4.4,2.1,5.4,3l12.7,13c1.6,1.4,2.4,2.4,1.5,3.5-1,1.9,0,2.2.3,2.3,1.7.4.8-.7,1-1.3.5-1.2,1.4-2.1,2.5-2.7.6-.2.9-.1,1.1.2.5.2,1.1-.6.3-1.5-.7-1-1.8.6-3,.2-.9-.5-1.7-1.2-2.3-2-1.1-1.2-2.5-2.3-3.3-3.3-2.8-3.5-5.7-6.8-8.9-10-1.4-.9-1.1-4.3-2.1-5.4,0-.7-9.7-10.2-13.1-13.7-.5-.5-1.2-.8-1.9-.9h0Z"/>
  <path class="st23" d="M462.4,275.6l13,12.9"/>
  <path class="st3" d="M480,281.5c.2-.4.6-1.4,1.1-2.5.2-.4,3.7-6,5.4-6.2,0,0,10.9,7.9,10.9,8,0,.4-4.7,7.6-5.1,7,0,0-12.8-5.4-12.3-6.4h0Z"/>
  <path class="st30" d="M486.9,283.3c-1.5-1.2-4-2.3-6-3.6l-.9,1.9c.7.8,9.8,5,11.3,5.8-1.4-1.5-2.8-2.9-4.4-4.1h0Z"/>
  <path class="st4" d="M481,279.5c1.2.8,3.4,2.2,4.8,3,2.7,1.9,4.4,3.9,6.3,5"/>
  <path class="st17" d="M458.9,313.4l24.8-30.7c1.1-.5,2.4,0,2.9,1.1.1.3.2.6.2.9l-23.5,32c-1.9-.4-3.5-1.5-4.4-3.2h0ZM542.1,313.8c-.7.5-1.5.7-2.3.8-1.6-1.9-2.9-3.9-5.2-6.4l-24.8-30.5,2.6-2.5,22.3,26.1c2.9,3,5.7,6.2,8.3,9.6,0,0,.3,1.9-.8,2.8h0Z"/>
  <path class="st17" d="M518.2,281.6l-4-4.7s-3,.4-3.6,2c0,0-2.2,3.6-8,4,1.3,4.4,4.3,8.1,8.4,10.4,0,0,2.5-6.9,4.8-8.2,0,0,2.5-1.8,2.4-3.4h0Z"/>
  <path class="st17" d="M508.2,302.7c-.6-.2-1.1,0-2,.5-.8.5-1.7.3-1.6-.7.1-.9,0-.8,1-1.4,1.5-.8,3.2-1,4.7-.5l-2.2,2.1M535.3,275.8c-.3-.7-.2-1.6.3-2.2.7-.8.7-2.1-1-1.4s-2.2,2.5-.9,5.2l1.5-1.6h0Z"/>
  <path class="st17" d="M507.7,303.3l28.1-27.9,6.9,7.4s-1.4-.6-2-.2c-.5.4.6,1.8.6,1.8,0,0-1.3-.5-1.9-.1-.7.4,0,2,0,2,0,0-1.1-.9-1.7-.5-.5.4,0,2.2,0,2.2,0,0-1.5-.5-1.9,0s0,2,0,2c0,0-1.5-.8-2.3,0s.4,1.8.4,1.8c0,0-1.9-.8-2.7.4-.4.7-.4,1.6,0,2.2,0,0-1.5-.8-1.9-.4s0,2.2,0,2.2c0,0-1.3-.8-2.2.2-.5.6-.5,1.4,0,1.9,0,0,0,0,0,0,0,0-1.2-.8-1.9-.4s.2,2.2.2,2.2c0,0-1.2-.9-2.1,0-.5.5-.5,1.4,0,1.9-.6-.6-1.5-.6-2.1,0-.6.6-.6,1.5,0,2.1h0s-1.5-.8-2.1,0c-.7.8.2,1.8.2,1.8,0,0-1.1-.7-1.9-.3s0,2.1,0,2.1c0,0-1.1-1.2-1.6-.6-.6.7,0,2.3,0,2.3,0,0-1-1.2-1.6-.6-.7.6.4,2,.4,2,0,0-1.9-.9-1.4-.9l-5.8-6.6Z"/>
  <path d="M534.2,277.7l-2.2,2.2.5,7.5s.5-2.2,1.1-.7c0,0,.2-1.8.7-1.5-.4-.2,0-7.5,0-7.5M530.1,281.7l-1.6,1.5.6,7.5s.5-2.8,1.1-.6c0,0,0-1.9,0-2.6v-5.9M513.1,298.6l-1.5,1.6.4,4.6s.5-2.9,1.1-.7c0,0-.2-1.9-.2-2.6,0,.5.2-2.9.2-2.9"/>
  <path class="st2" d="M511.2,279.8c1,1,4,4.8,4,4.8M512.5,281.8c-.2,1.1-.7,2.1-1.4,3M513,282.2c-.1,1.1-.6,2.1-1.4,2.9M513.5,282.8c0,.6-.4,1.2-.8,1.6M513.8,283.4c0,.5-.3.6-.4.9M510.2,281.6c-1.4,1.1-3,2-4.7,2.8M509.5,282.6c-.9.8-1.9,1.5-3,2.1M509.2,283.7c-.7.6-1.5,1.2-2.3,1.6M508.6,284.9c-.4.5-.9.8-1.4,1.1"/>
  <path class="st27" d="M492.1,285.9c.5-.9,1-1.8,1.6-2.7.5-.7,1.1-1.4,1.8-2"/>
  <path d="M400.5,362.5c1.4.7,0-4.7.5-6.6.6-2.1,4.7,5.1,6.6,6.1,2.1,1,14.8-5,14.8-5l3-5.7,1.6,4.7s3.5-4.1,4.6-5.6,0,3-1,4.6,3,2.1,2.6,5.1,4.1-2.1,4.1-2.1l11.8,1s2-7.1,5.1-11.2l1,4.6,4.8-4.9c5.4,14.2,16.8,29.7,40.2,38.2,21.9-8,33.2-22.1,39.1-35.6l6.6,6.7c2.1-.6,4.1-1.3,6.1-2.1,1-.5,12.1,3.9,12.1,3.9,1.1.4,2.1.9,3,1.5,1,.8.3-3.3.3-3.3,0,0,5.6,1,5.1,4.1,0,0,1.2-2.8,2.3-3.3s3.5,2.6,4.1,3.6c.5,1,12.5,2.5,14.2,3.5.7.7,1.1,1.6,1.3,2.6,0,0,2.6-.3,4.6-.3-.9.5-1.5,1.4-1.5,2.4,0,1.5-.9,2.9-2.3,3.5-1.5.8,0,1.3,2,1.5,2.1.3,0,2.8-4.1,4.4,0,0-1,2.3.8,3,0,0-3.5.3-4.1-.8-.6,1.1-1,2.3-1.2,3.6,0,0-3.8-1.2-4.8-1.8,0,0-1.5,1.5-.5,2.3,0,0-6.9-.8-8.3-3.3,0,0-2.5.8-2,1.6,0,0-4.8-3.3-6.4-3.3l-1,1.7s-3.3-2-4.4-2-.2,1.5-.2,1.5l-4.7-2.9-1.8,2.9c-1.7-.8-3.3-1.6-4.8-2.6-1-.8-1.2,1.5-2,1.8,0,0-1.5-2.1-3.6-1.8,0,0-.8,2.6-.5,3.3,0,0-5.9-1.2-6.9-1.5s-.5,1.2,0,2.3c0,0-4.4-1.2-5.3-2l-.3,2s-3.6-.3-4.4-1l-2.3,3.1h-3.3l-.8,2.8s-5.7-2.1-6.3-.7c-.3.8-.4,1.6-.4,2.5l-4.7-.3-1.4,2.5s-6.4-2.4-7.9-1.5c-1.4.9-2.8,1.7-4.3,2.4-1.2-1.3-2.8-2.3-4.6-2.8-1.7-.3-5.3,2-6.6,1.2,0,0,0-1.8-1-2.3-1.2-.6-2.7-.3-3.5.8,0,0-.8-1-2.1-3-1.2-2.1-3,.2-3,.2l-.3-2.5-3.5-.3c-1.2-.1-2.2-.9-2.6-2.1,0,0-5.4.6-6.2.3l1.3-1.2s-7.4,1.5-8.9,1c-1.6-.5,1.7-2.6,1.7-2.6,0,0-6.8-1.7-8.2-2-1.2-.3-8.6,1.2-9.7,1.2s-1.5-1.7-1.5-1.7c-1,.8-2.1,1.5-3.3,2,0,0-1.2-3-.5-3.3,0,0-4.8,1.3-5.1,2.6,0,0-1.2-2-1-2.9,0,0-2.3,3.6-3.3,4.4s-.2-1.8-.2-1.8c0,0-2.8,3.6-3.9,3.9v-2.6s-8.2,4.4-10.4,3.8c0,0,0-1.8.8-2.3l-5.1-.3c-1.2-.2-2.8-.8-4.1-1-1.2-.2,1.8-1.5,3.9-1,0,0-5.7-2.1-7.4-1,0,0-.8-2.1,2.3-2.9,0,0-3.9-3.8-6.2-3.5,0,0,2.6-1.5,4.7-.8,0,0-2.4-6.5-3.9-7.2,0,0,5.4-1,6.9-.2h0Z"/>
  <path class="st17" d="M392.6,251.1l69.1-35.8c.3-1.9-.7-3.3-1.8-4.8-19.8,9.7-37.8,21.5-59.7,28.6-1.2.5-12.2,5-17.8,11.8-1.1,1.2-1.8,2.8-1.9,4.4,0,0,.1,3,.8,3.8.2.6.6,1.2,1.2,1.5.3.2.7.2,1.1.2.5,0,1.3,0,2.5-1.9,1.9-2.8,4.1-5.4,6.6-7.8h0Z"/>
  <path class="st17" d="M448.2,215.7l8.9-4.3s3,2.3,2.8,4.8c0,0,.7,5.9,8,10-4.4,4.9-10.5,7.9-17,8.4,0,0,1.2-10.2-1-13.1,0,0-.4.4-.2-.1.3-1-.2-4.4-1.6-5.1-.2,0,.1-.4.2-.5h0Z"/>
  <path class="st16" d="M458.7,216.9c-1.9.8-8.1,4-8.1,4M455.7,218.8c-.1.9-.7,3.2,0,4.8M454.9,219.1c-.4,1.5-.4,3,.1,4.5M453.9,219.5c-.3.8-.3,1.7,0,2.6M453.2,220.1c0,.4,0,.8,0,1.2M458.8,219.8c1.2,2.3,2.7,4.4,4.4,6.4M459.2,221.6c.7,1.6,1.6,3.2,2.8,4.6M459,223.2c.5,1.3,1.1,2.5,1.9,3.6M459,225.1c.2.9.6,1.7,1.1,2.4"/>
  <path class="st19" d="M520.9,198.9c-1.3.2-2.4,1-3.7,3.2-2.2,4.3-1.7,6.6,5.1,9.6h0l25.4,12.4c5.1,2.5,6.9.2,9.8,1.4l50.1,25.5c4.3,1.9,6.7,2.5,6.1,4.7,0,2.9.9,3.3,1.6,3.4,1.1.5,1.9.7,2.1-.5.2-.2-.1-.6-.5-1.2-.4-.6-.6-1.2-.6-1.9,0-.5.1-1,.4-1.5.5-.6,1-1.2,1.5-1.7.3-.4.7-.6,1.2-.7.4,0,.7,0,1.1.3.5.3.9.6,1.3.9,1.7-.1.2-2.5-1-3.4-2.5-1.2-2.8,1.5-5.5,1.2-2.2-.8-4.4-1.8-6.5-3-3.1-1.7-7.5-3.7-8.5-4.9-3.2-.6-27.3-14.1-40.9-20.9-1.5-1.2-2.3-5.8-5.1-7.3-.8-1.2-19.3-9.7-29-14.5-1.8-.7-3.2-1.2-4.4-1.1h0Z"/>
  <path class="st20" d="M439.7,221.6c-.2.6-.7.2-.7.4-.4,2-.3,3-.8,4.2-.8,1.1-1.8,1.9-2.9,2.5-1.9.6-4.2,2.9-7.9.8-.2-.1-.4-.3-.6-.5.6,2.3-.6,4.8-2.8,5.8-1.3.7-14.7,7.7-14.7,7.7-.9,1.9-1.1,4.1-.5,6.1.1.6.3,1-.3,1.4-1.6,1.5-2.8,3.5-3.4,5.6,0,0-2.8-1.2-2.8-3s1.1-2.8,1.4-4.1c.3-1.2,1-4.4.7-5.3-.4-1-2.1-1.4-2.8-1.8-.6-.4-1.3.4-1.2,1.2.1,1,.8.8,1.5,1-.5,1-.7,2-.8,3.1l-8.6,4.5s1.1,1.5,1.5,2.2,1.2,9.5,3.8,13.7,3.4,3,4,3.6,1.2,1.2,1.9,1.8c.7.5,3.6.8,4.2-.9.6-1.6,1.6-2.9,2.9-3.9,1.8-1.4,5.5-5,5.5-6.6,0,0,2.2,6.3,1.9,11.5,5,1,10,1.6,15.1,1.8,7.1.1,10.7-1.4,10.7-1.4,0,0,1-6,.6-7.1.5,1.8,1.2,3.5,2,5.2,1,1.6,2,4.9,4.1,5.1,1.7-.1,3.3-1.2,3.9-2.8v-6.3h8.1c0,0,3.6,1.3,4.7,1.1,1.1,0,1.8-1.1.8-1.5l-.4-.3c.8,0,1.6.3,2.4.7h4c.1-.1,0-.4-.1-.5-.3-1.1-2.4-2.1-3.9-2.8-1.4-.6-2.9-1.1-4.4-1.3-1.9-.2-3.9,0-5.8.4-1.9.2-3.7.6-5.4,1.2-.5.3-1,.4-.8-.9.3-1.3.2-7.3-1.2-9.9-.8-1.5-1.1-3.2-.8-4.8.1-2.8.1-5.5,0-8.3-.3-1.5-2.4-3.6-6.2-4.1-3.6-.5-6.6-3.4-6.8-5.8,0-2.9.2-5.8.8-8.6"/>
  <path class="st13" d="M423.5,210.9c-.6,2.8-.8,5.7-.6,8.6.3,2.2.9,4.3,1.9,6.3.5,1.4,1.4,2.7,2.6,3.6,3.3,2.2,6.5-.2,8.3-.9,1.1-.5,1.9-1.3,2.6-2.3.5-1.1.3-2,.8-4.2.2,0,.5-.2.7-.4.5-.9.8-1.9,1.1-2.9.5-1-.6-2-1.7-1.8.7-1.8.8-3.7.4-5.5-.2-.6.5-2.1-.6-1.7-4.3,1.7-9.3,1.3-13.9,1.3s-.7-.8-1.2-.7c-.1,0-.2.3-.3.5"/>
  <path class="st22" d="M423.2,212.5c-.5-.4-.6-1.2,0-3,.7-1.8,0-1.9,1-2.9s.8-1.5,1.4-1.8c.7-.2,2.7-.2,3.3-.5.9-.4,1.8-.7,2.8-.9,1.9-.3,3.8-.1,5.6.6,1.4.8,2.4,2.7,3.2,3.3,1,.7,1.5,3.4,1.3,7.4-.3,4-1,3.2-1,3.2,0,0-1.1-1.9-2.1-.3,0-.9,0-1.8.2-2.7,0-1.1-.6-3.2,0-4.7,0,0-5.4,1.7-8.2,1.6-2.8-.2-6.8-.9-7-1.5l-.7,2.1"/>
  <path class="st28" d="M425.9,209.2c-.3-.6-1.7-2.7-.6-3.3,1-.6.4,2.6,1.8,3.2,0,0-.5,1.4-1.2,0h0Z"/>
  <path class="st11" d="M429,217c-.5,1.6-.7,2-.9,2.9M438.1,221.4c.2.6.4.3.9.4M439.3,218.1c.5-.6,1.1-.3.8,1.1"/>
  <path class="st11" d="M423.5,214.7c.9.3,1.7.6,2.6,1,1.4.6.6,2.7.2,4-.2.7-1,1.8-.6,2.4.5.8,1,.3,1.9.4,0-.3.6-.5.8-.5.7,0,1,.5,1.5.3.6-.3.5-1.1.3-1.6M430.1,216.4c0-.4,1-.8,1.4-.9,2-.4,3.4-.7,5,.5M431.2,226.4c-1.6.4-3.3.7-4.8-.2M426.4,225.4c.8-.4,1-.8,2-.3.3-.2.7-.3,1-.4.7,0,1.4.3,2,.8M426.3,225.8c1.7-.3,3.4-.3,5,0"/>
  <path class="st8" d="M423.5,217c.7,0,1.4-.9,2.9.3,1,.7-1.7,1.3-1.2,1.2-1.2.2-1.6-.5-1.7-1,0-.2-.2-.5,0-.5h0ZM431.2,217.7c.7-1.3,1.7-1,2.7-.8.5,0,1.1.3,1.5.6-1,.2-.8.3-1.5.7-.9.4-1.6.6-2.2.2-.2-.2-.7-.5-.7-.9,0,.1,0,.2.2.2h0Z"/>
  <path class="st26" d="M424.8,218.1c.4,0,.7-.4.7-.8,0-.4-.2-.8-.6-.8-.4,0-.8.2-.8.6,0,0,0,.2,0,.3,0,.4.3.8.7.8,0,0,0,0,0,0ZM432.8,218.3c.4,0,.7-.4.7-.9,0-.4-.3-.8-.7-.8,0,0,0,0,0,0-.4,0-.7.3-.7.7,0,0,0,0,0,0,0,.4.3.8.8.9h0Z"/>
  <g>
    <path class="st11" d="M473.4,266.9c-.4-.6-1-1-1.7-1.2l-1.9-.9c-.7-.4-1.6-.5-2.2-.9M468,266.4c-.3-.2-.5-.3-.8-.5-.3,0-.7,0-1-.2,0,0,0-.2-.2-.2-.9,0-1.7-.5-2.3-1.2M405.2,255.5c.9.7,2.9,2.1,3.1,4.8.2,1,.5,2,1,2.8M397,255.9c.5,1.6.6,6.9,5.6,12.5M398,248.5c-.4,1-.9,2,.2,2.8M411.7,261.2c1-2.4,4.3-2.2,4.3-4.5"/>
    <path class="st11" d="M416.4,260.9c-.3-2.7-.9-4.2-.4-8.1.3-2.5.3-5.1,0-7.6,0,0,1.5,7.3-3.4,8.7M444.7,265.7c0-2,.2-3.9.9-5.8,1.1-5.2-1-7.2-.2-8.5.8-1.1,1.9-3.5.4-8.3,0,0,2.7,9.8-4.2,9.8s-6.6-2.6-6.6-2.6"/>
    <path class="st11" d="M416,245.3c0,2,0,7.9,8.5,7.9s5.3-1.8,6.8-3M433.4,247.6c-.3-2.1-.3-4.3-.3-6.5M420.4,237.9c2.8-.4,5.6-.6,8.4-.6M429,231.4c.5,2.1-.3,5.4,3.6,5.9M436.7,230.7c-.4,1.3-.6,2.7-.8,4.1M436.2,237.3c1.6,0,4.7-1,8.5-.3M446,258.3c.8,1.5,1,3.5,3.3,5.8M419.7,253.4c.2,1.2-1.6,5.3-.3,8.6,1.3,3.4.9,7.3-1,10.3M424.5,254.7c-.8,1.5-2.1,3-2.4,4.4M428.3,257.5c0,1-2.6,8.2-4.4,10.2,0,0,3.3,1.3,2.8,6.2M433.6,254.2c0,1.2-.2,1.5.9,2.3M436.7,256.5c1.2,1.5,5.1,6.1,4.3,8.6M434.2,259.1c.3,2.8.1,5.6-.6,8.4M431.6,267.2c-1.4,0-2.7,1.1-2.8,2.6M436.9,266.9c1-.3,3.1,1.5,3.1,6.6M454.7,264c-2,.6-2.8,1.6-2.3,1-.6.5-1.3,1-2,1.4"/>
    <path class="st26" d="M421.1,252.3c.5,0,1-.3,1-.9,0-.4-.5-.8-1-.8-.4,0-.9.2-.9.7,0,.4.2.9.7.9,0,0,.2,0,.3,0h0ZM442.6,252.6c.5,0,.9-.4,1-.9,0-.5-.5-.8-1-.8-.6,0-1,.3-1,.8,0,.5.5.9,1,.9h0Z"/>
    <path class="st13" d="M412.4,291.3c1.1-7.4,4.7-13.6,4.7-14.2,3.3.6,6.6,1.1,9.9,1.3,3.6.5,7.2.5,10.7.2,2.8-.3,6.4-.8,6.4-.8.7,1.4,1.1,3,1.2,4.6.3,4.8,2.1,25.8,2.3,31.4,0,0,.8,3.3.8,11.5s2.5,27.1,2.5,36.8l-2.5.5s-13.5,1-13.5-.8-.8-25.3,1.2-39.3c-.3-1.7-.7-3.4-1.2-5.1-.8-2.3-4.1-9.4-4.1-10.9,0,0-5.3,15-5.6,17.6-.3,2.4-1,35.8-1.5,38.6,0,0-7.7,5.9-8.7,6.5-1,.5-8.5-3.1-8.6-4.1-.3-1,.8-12.3,4.3-31,1.3-6.6.6-7.9.6-9.7s.1-25.6,1.2-33h0Z"/>
    <path class="st11" d="M425.3,324.1c-.5,2.1-1.6,4-3.3,5.4M419.4,279.5c-.3,1.2-2.1,6.8-6.6,10.2M426,280.5c-1,3.3-5.1,21.2-5.9,42.4M419.8,329.5c-.2,2-1.2,16.8-1.5,19.4M417.6,351.7c-1.6,5.7-2.5,11.5-2.6,17.4M445.1,335.6c-.2,1.8-1,14.6,3.3,26.1M431.1,281.5c-.3,2.1-.8,15.6-.8,16.6s1.5,2.6,2.3,2.9c0,0-1.5.5-1.8,5.6M427.1,294.5c-.7,3.6-1.7,7.1-2.9,10.5M436.5,281.3s4.6,1,4.8,0c0,0,1.5,27.5,3.6,42.8M434.5,284.8c0,1.8-.6,15.4-.6,15.4M436.2,302.2s1.8,2.6,1.3,3.8M420.9,279.8c1.5.5,2.9.8,2.9.8M428.6,282c-.3,1.4-.5,2.8-.6,4.3M436.2,322.6c1,1.1,1.2,2.7.8,4.1"/>
    <path class="st13" d="M416.5,277s0-3,1.1-4.6c0,0,3.2.7,7.8,1.1,4.7.5,8.4.9,11.8.5,2.3-.3,4.6-.7,6.9-1.2,0,0,.9,4.5.5,5.1-2.6.5-5.2.8-7.8.9-4.5.1-9-.1-13.5-.8-3.1-.4-5.9-1-6.8-1.1h0Z"/>
    <path class="st13" d="M419.5,277.4l.6-4.6h1c0,0-.2,4.8-.2,4.8l-1.3-.3ZM440.1,273.6v5.1c.1,0,1.2-.2,1.2-.2v-5.2c0,0-1.2.3-1.2.3ZM425.4,273.6l-.4,4.9h.7l.7-4.9h-1Z"/>
    <path class="st21" d="M408.9,366.9c-.4,1.7-.8,3.4-1,5.1,0,.5-.5,3,1,3.1,1,.1,1.3-2.7,1.3-2.7,0,0-1,3,.3,3.4,1.7.4,1.9-3.3,1.9-3.3-.2,1-1.3,3.7.3,4,1.7.3,2.2-3.6,2.2-3.6,0,0-1.4,3.9.3,4,1.6,0,1.6-3.8,1.6-3.8,0,0-.9,4.7,1.4,4.3,1.2-.2,1.5-1.8,1.8-2.8.4-1.4,1.2-3.2.2-6.2-.8-2.2-.5-2.8-.5-2.8,0,0-2.7,2-4.7,3.3-1,.6-6.1-2.2-6.1-2.2h0ZM436.6,362.8c-.5-.3-.4,1.7-.6,2.7,0,1,.2,3,3.4,2.9,3.1-.3,6.3-1,8.3-.5,2.1.5,4.4.7,6.6.7,1.2,0,2.3-.1,3.4-.5.7-.3,2.1.4,2.8.4s1.7-1,1.6-1.7c-.1-1.2-1.2-1.2-2.8-1.3-1.6-.1-3.1-.4-4.7-.9-1.7-.8-3.5-1.4-5.3-1.9,0,0-4.6.2-5.5.2s-6.6.3-7.1,0h0Z"/>
  </g>
  <path class="st7" d="M389.3,244.7c-.5.3-1-1.9.4-2.8,0,0,.4-1.8,1.9-2,.7-1,1.8-1.5,3-1.5,0,0,2.1-1.4,2.8-1.2,1.2.5,2.2,1.5,2.8,2.7.2.8,0,1.6-.5,2.3-.6.6-1,0-1-.9.2.8,0,1.6-.8,2-1.1.7-1,.2-1.1-.6,0,0-.3,1.5-1,1.7-.8.3-1.2-.4-1.8-.4,0,0,1,.8.3,1.3-.6.4-1.4.4-1.9,0-.5-.5-1-1.7-3-.6h0Z"/>
  <path class="st9" d="M398.6,241.2c-.5-1.7-2.1-2.8-3.8-2.7M396.9,242.6c-.3-.4-.4-.8-.7-1.1-.9-1.4-2.7-1.3-4.2-1.7M394.3,244c-.6-.4-.8-1.1-1.3-1.4-.9-.5-2-.7-3-.7"/>
  <path class="st13" d="M560.5,221.6c.7-.3.5.6.6.9.2,1.3.4,2.5.8,3.7.6,1,.8,1.4,1.7,1.9,1.5.9,6,3.3,9.1,1.3.2-.1.5-.3.7-.5-.6,2.3.5,4.8,2.8,5.8,1.2.7,14.6,7.7,14.6,7.7.9,1.9,1.1,4,.6,6.1-.2.6-.4,1,.2,1.4,1.7,1.5,2.9,3.4,3.5,5.6,0,0,2.8-1.2,2.8-3s-1.1-2.8-1.4-4.1c-.2-1.2-.9-4.4-.6-5.3.4-1,2-1.4,2.7-1.8s1.4.4,1.2,1.2c0,1-.8.8-1.5,1,.5,1,.8,2,.8,3.1l8.7,4.5s-1.1,1.5-1.5,2.2c-.5.7-1.3,9.5-3.9,13.7s-3.4,3-3.9,3.6c-.6.5-1.3,1.2-2,1.8-.6.5-3.5.8-4.2-.9-.6-1.6-1.6-2.9-2.9-3.9-1.8-1.4-5.5-5-5.5-6.6,0,0-2.2,6.3-1.9,11.5-5,1-10,1.6-15.1,1.8-7.1.1-10.7-1.4-10.7-1.4,0,0-1-6-.6-7.1-.5,1.8-1.1,3.5-1.9,5.2-1,1.6-2.1,4.9-4.1,5.1-2.1.1-3.7-2-4-2.8v-6.3h-8.1c0,0-3.5,1.3-4.7,1.1-1.1-.1-1.7-1.1-.8-1.5l.4-.3c-.8,0-1.6.3-2.4.7h-4c0-.1,0-.4,0-.5.3-1.1,2.4-2.1,4-2.8,1.4-.6,2.8-1.1,4.3-1.3,1.9-.2,3.9,0,5.8.4,1.9.1,3.7.6,5.4,1.2.5.3,1,.4.8-.9-.3-1.3-1.1-5.2.3-7.8.7-1.5,1-3.2.8-4.8-.2-1.6-1-5.2-1-6.8,0-5.3,4.1-7.5,7.7-8.6,4-1.2,6.6-2.6,6.5-4.9,0-2.5.6-6.6.2-8.5"/>
  <path class="st5" d="M576.5,210.9c.9,3.1,1,3.9,1,4.9s-.5,1.3,0,2.6c.7,2.3-.7,4.7-2.3,7.4-.8,1.2-1.3,2.8-2.6,3.6-3.1,2-6.9-.4-8.9-1.2-.9-.4-1.6-1.1-1.9-2-.3-1.2-.6-2.5-.8-3.7,0-.3,0-1.1-.6-.9-1.1-1.3-.9-1.9-1.4-2.8s.9-2,1.9-1.8c-.7-1.8-.8-3.7-.3-5.5.2-.6-.5-2.1.5-1.7,4.3,1.7,9.3,1.3,13.9,1.3s.7-.8,1.2-.7c0,0,.2.3.3.5"/>
  <path class="st22" d="M576.9,212.5c.5-.4.2-2.2-.3-4.1-.2-.9-1-1.3-2-2.4-.6-.6-1.3-1.1-2.1-1.3-.6-.2-1.9-.2-2.6-.5-.6-.3-2.1-.1-3.5.1-1.9.3-2.9.2-4.4.9-1.4.6-2.5,1.7-3,3-.4,1-1,2.4-.8,6.4.2,4,1,3.2,1,3.2,0,0,1-1.5,1.7-.6,0,0,0-2.1-.3-3.3,0-1.4,0-2.9.5-4.3,2.7,1,5.6,1.5,8.4,1.6,2.8,0,6.6-.3,6.6-.9l.7,2.1h0Z"/>
  <path class="st11" d="M571,217c.6,1.6,0,1.1.4,2.2M561.8,221.1c0,.8-.6.6-1,.6"/>
  <path class="st11" d="M577,215.7c-.9-.7-2.5-.2-3.2,0-1.4.7-.7,2.1-.2,3.4.2.7,1,1.6.5,2.3-.4.8-.7.4-1.5.5,0-.3-.8,0-1,0-.6,0-.9.4-1.3.2-.6-.3-.5-1.1-.3-1.6M570,216.4c0-.4-1.2-.8-2.6-.9-2.1,0-2.3.1-3.9,1.2M574.2,225.1c-.4-.6-1-.9-2-.4,0-.2-1.4-.4-1.4-.4-.7,0-1.4.3-2,.7M574,225.6c-.9-.6-3-.2-5.2-.2M569,226.2c1.6.6,3.3.6,4.8,0"/>
  <path class="st24" d="M576.6,217c-.7,0-1-.9-2.9.3-1,.6,1.7,1.3,1.3,1.2.6.2,1.3-.1,1.6-.8,0,0,0-.2,0-.3,0-.2.2-.5,0-.5h0ZM568.8,217.7c0-.8-1.7-1-2.7-.8-.5,0-1,.3-1.4.6,1,.2.7.3,1.4.7.9.4,1,.8,2.2.2.4-.2.6-.5.8-.9,0,0-.2.2-.3.2h0Z"/>
  <path class="st26" d="M575.4,218.1c-.4,0-.8-.3-.8-.7h0c0-.4.3-.8.7-.9,0,0,0,0,0,0,.4,0,.7.4.7.9,0,.4-.3.7-.7.8h0ZM567.2,218.3c-.4,0-.7-.4-.7-.9,0-.4.3-.7.7-.8,0,0,0,0,0,0,.4,0,.7.3.7.7,0,0,0,0,0,0,0,.4-.3.8-.7.8,0,0,0,0,0,0h0Z"/>
  <g>
    <path class="st11" d="M526.7,266.9c.4-.6,1-1,1.7-1.2l1.9-.9c.7-.4,1.6-.5,2.2-.9M532.1,266.4c.3-.2.5-.3.8-.5.3,0,.7,0,1-.2,0,0,0-.2.2-.2.9,0,1.7-.5,2.3-1.2M594.9,255.5c-.9.7-2.9,2.1-3.1,4.8-.2,1-.5,2-1,2.8M603,255.9c-.5,1.6-.6,6.9-5.6,12.5M602.1,248.5c.4,1,.9,2-.2,2.8M588.4,261.2c-1-2.4-4.3-2.2-4.3-4.5"/>
    <path class="st11" d="M583.7,260.9c.3-2.7.9-4.2.4-8.1-.3-2.5-.3-5.1,0-7.6,0,0-1.5,7.3,3.4,8.7M555.4,265.7c0-2-.2-3.9-.9-5.8-1.1-5.2,1-7.2.2-8.5-.8-1.1-1.9-3.5-.4-8.3,0,0-2.7,9.8,4.2,9.8s6.6-2.6,6.6-2.6"/>
    <path class="st11" d="M584.1,245.3c0,2,0,7.9-8.5,7.9s-5.3-1.8-6.8-3M566.7,247.6c.3-2.1.3-4.3.3-6.5M579.7,237.9c-2.8-.4-5.6-.6-8.4-.6M571,231.4c-.5,2.1.3,5.4-3.6,5.9M563.4,230.6c.4,1.3.6,2.7.8,4.1M563.9,237.3c-1.6,0-4.7-1-8.5-.3M554.1,258.3c-.8,1.5-1,3.5-3.3,5.8M580.4,253.4c-.2,1.2,1.6,5.3.3,8.6-1.3,3.4-.9,7.3,1,10.3M575.6,254.7c.8,1.5,2.1,3,2.4,4.4M571.8,257.5c0,1,2.6,8.2,4.4,10.2,0,0-3.3,1.3-2.8,6.2M566.5,254.2c0,1.2.2,1.5-.9,2.3M563.4,256.5c-1.2,1.5-5.1,6.1-4.3,8.6M565.9,259c-.3,2.8-.1,5.6.6,8.4M568.5,267.2c1.4,0,2.7,1.1,2.8,2.6M563.2,266.9c-1-.3-3.1,1.5-3.1,6.6M545.4,264c2,.6,2.8,1.6,2.3,1,.6.5,1.3,1,2,1.4"/>
    <path class="st26" d="M579,252.3c-.5,0-1-.3-1-.9,0-.4.5-.8,1-.8.4,0,.9.2.9.7,0,.4-.2.9-.7.9,0,0-.2,0-.3,0h0ZM557.5,252.6c-.5,0-.9-.4-1-.9,0-.5.5-.8,1-.8.6,0,1,.3,1,.8,0,.5-.5.9-1,.9h0Z"/>
    <path class="st13" d="M587.7,291.3c-1.1-7.4-4.7-13.6-4.7-14.2-3.3.6-6.6,1.1-9.9,1.3-3.6.5-7.2.5-10.7.2-2.8-.3-6.4-.8-6.4-.8-.7,1.4-1.1,3-1.2,4.6-.3,4.8-2.1,25.8-2.3,31.4,0,0-.8,3.3-.8,11.5s-2.5,27.1-2.5,36.8l2.5.5s13.5,1,13.5-.8.8-25.3-1.2-39.3c.3-1.7.7-3.4,1.2-5.1.8-2.3,4.1-9.4,4.1-10.9,0,0,5.3,15,5.6,17.6.3,2.4,1,35.8,1.5,38.6,0,0,7.7,5.9,8.7,6.5,1,.5,8.5-3.1,8.6-4.1.3-1-.8-12.3-4.3-31-1.3-6.6-.6-7.9-.6-9.7s0-25.6-1.2-33h0Z"/>
    <path class="st11" d="M574.8,324.1c.5,2.1,1.6,4,3.3,5.4M580.7,279.5c.3,1.2,2.1,6.8,6.6,10.2M574.1,280.5c1,3.3,5.1,21.2,5.9,42.4M580.3,329.5c.2,2,1.2,16.8,1.5,19.4M582.5,351.7c1.6,5.7,2.5,11.5,2.6,17.4M555,335.6c.2,1.8,1,14.6-3.3,26.1M569,281.5c.3,2.1.8,15.6.8,16.6s-1.5,2.6-2.3,2.9c0,0,1.5.5,1.8,5.6M573,294.5c.7,3.6,1.7,7.1,2.8,10.5M563.6,281.3s-4.6,1-4.8,0c0,0-1.5,27.5-3.6,42.8M565.6,284.8c0,1.8.6,15.4.6,15.4M563.9,302.2s-1.8,2.6-1.3,3.8M579.2,279.8c-1.5.5-2.8.8-2.8.8M571.5,282c.3,1.4.5,2.8.6,4.3M563.9,322.6c-1,1.1-1.2,2.7-.8,4.1"/>
    <path class="st13" d="M583.6,277s0-3-1.1-4.6c0,0-3.2.7-7.8,1.1-4.7.5-8.4.9-11.8.5-2.3-.3-4.6-.7-6.9-1.2,0,0-.9,4.5-.5,5.1,2.6.5,5.2.8,7.8.9,4.5.1,9-.1,13.5-.8,3.1-.4,5.9-1,6.8-1.1h0Z"/>
    <path class="st13" d="M580.6,277.4l-.6-4.6h-1c0,0,.2,4.8.2,4.8l1.3-.3ZM560,273.6v5.1c0,0-1.2-.2-1.2-.2v-5.2c0,0,1.2.3,1.2.3ZM574.7,273.6l.4,4.9h-.7l-.7-4.9h1Z"/>
    <path class="st13" d="M591.2,366.9c.4,1.7.8,3.4,1,5.1,0,.5.5,3-1,3.1-1,.1-1.3-2.7-1.3-2.7,0,0,1,3-.3,3.4-1.7.4-1.9-3.3-1.9-3.3.2,1,1.3,3.7-.3,4-1.7.3-2.2-3.6-2.2-3.6,0,0,1.4,3.9-.3,4-1.6,0-1.6-3.8-1.6-3.8,0,0,.9,4.7-1.4,4.3-1.2-.2-1.5-1.8-1.8-2.8-.4-1.4-1.2-3.2-.2-6.2.8-2.2.5-2.8.5-2.8,0,0,2.7,2,4.7,3.3,1,.6,6.1-2.2,6.1-2.2h0ZM563.4,362.8c.5-.3.4,1.7.6,2.7,0,1-.2,3-3.4,2.9-3.1-.3-6.3-1-8.3-.5-2.2.5-4.4.7-6.6.7-1.2,0-2.3-.1-3.4-.5-.7-.3-2.1.4-2.8.4s-1.7-1-1.6-1.7c0-1.2,1.2-1.2,2.8-1.3,1.6-.1,3.1-.4,4.7-.9,1.7-.8,3.5-1.4,5.3-1.9,0,0,4.6.2,5.5.2s6.6.3,7.1,0h0Z"/>
  </g>
  <path class="st1" d="M609.5,248.1c.5.2,1.8-1.9.5-2.8,0,0-.5-1.8-2-1.9,0,0-1.2-1.8-3-1.5,0,0-2-1.4-2.8-1.3-1.2.6-2.2,1.5-2.8,2.8-.1.8,0,1.6.5,2.3.6.5,1-.1,1-1-.2.8,0,1.6.8,2.1,1.1.7,1,0,1.1-.7,0,0,.3,1.5,1,1.8s1.2-.4,1.8-.4c0,0-1,.8-.3,1.2.6.5,1.4.4,1.9-.1.6-.4.3-1.6,2.3-.5h0Z"/>
  <path class="st7" d="M600.9,244.6c.4-1.7,2.1-2.8,3.8-2.7M602.7,246c.2-.4.3-.8.6-1.1.9-1.4,2.8-1.4,4.3-1.7M605.2,247.4c.6-.4.8-1,1.3-1.3.9-.5,2-.8,3-.7"/>
  <path class="st30" d="M600.8,241.8c-.8.5-1.4,1.3-1.8,2.1-.1.8,0,1.6.5,2.3.5.4.9,0,1-.7-.1.7.2,1.5.8,1.9,1.1.7,1,0,1.1-.7,0,0,.3,1.5,1,1.8s1.2-.4,1.8-.4c0,0-1,.8-.3,1.2.6.5,1.4.4,1.9,0,.6-.4.3-1.6,2.3-.5.2.1.8-.4,1-1.1l-7.2-5.2-2.2-.7Z"/>
  <path class="st13" d="M599.2,243.2c-1.4,2.4.5,3.9,1.1,2.4-.2,2.2,1.5,2.1,2.1,1.4.6,2.3,1.7,1.3,2.7,1.1-1.1,2.1,1.4,1.5,2,1,.9-1.3,1.3-.3,1.9-.4l1.1-1.2M602.7,242.3c-1.4.6-2.3,1.9-2.4,3.5M604.9,243.7c-1.4.6-2.3,1.9-2.4,3.5M607.5,245.5c-1.6.8-1.6,1.6-2.3,2.6"/>
  <g>
    <path d="M500.1,419.4c21.4.2,34-7.6,40.9-12.3,16.2-10.9,19.7-11.3,22.3-11.1,3,.3,7.5,1.3,7.7,4,.3,4.1-6.4,5.9-10.2,5.9s-14.1-2.6-14.1-2.6l-2.7,1.8c1.8.9,22.6,7.8,26.6,1.2,4.1-6.6,8.2-17.4,8.2-17.4-3.2-5.1-8.7-8.2-14.7-8.2-10.3,0-20.2,6.5-26.9,11.3s-15,11.5-37.2,11.5-30.7-6.6-37.3-11.5-16.6-11.3-26.8-11.3c-6,0-11.6,3.1-14.8,8.2,0,0,4.1,10.7,8.2,17.4,4,6.5,24.8-.4,26.6-1.2l-2.6-1.8s-10.3,2.6-14.1,2.6-10.5-1.8-10.3-5.9c.2-2.7,4.7-3.7,7.7-4,2.7-.2,6.1.2,22.3,11.1,6.9,4.7,19.6,12.2,41,12.3"/>
    <path d="M465.7,394.2s0-1.8-.3-4.5c-.4-3.4-2.4-4.3-4-3.8-1,.4-3.1,2.9-3.1,2.9h0c-.9-.6-1.9-1.2-2.9-1.7.8-.9,5.1-3.5,6.2-3.5s14.1,5.3,18.2,8.9c1,1,1.8,6.8,1.2,8.7-5.5-1.4-10.7-3.7-15.3-7h0M459.4,407.5c-1.9,2.2-3,5.1-2.9,8.1-.1,6.2,4.4,6.5,7.3,6.4,3.5-.1,6.4-2.1,6.3-8.6-3.7-1.6-7.3-3.6-10.6-5.8M534.4,394.2s0-1.8.4-4.5c.4-3.4,2.3-4.3,3.9-3.8,1,.4,3.1,2.9,3.1,2.9h0c.9-.6,1.9-1.2,2.9-1.7-.8-.9-5.1-3.5-6.1-3.5s-14.1,5.3-18.3,8.9c-1,1-1.7,6.8-1.2,8.7,5.5-1.3,10.7-3.7,15.3-7h0M540.6,407.5c1.9,2.2,3,5.1,2.9,8.1.2,6.2-4.4,6.5-7.3,6.4-3.5-.1-6.3-2.1-6.3-8.6,3.7-1.6,7.3-3.6,10.6-5.8"/>
    <path d="M453.3,403.3s-10.2,2.6-14,2.6-10.5-1.8-10.3-5.9c.2-2.7,4.7-3.7,7.7-4,2.3-.2,5.2,0,16.5,7.3M546.8,403.3s10.2,2.6,14.1,2.6,10.4-1.8,10.2-5.9c-.2-2.7-4.7-3.7-7.7-4-2.3-.2-5.2,0-16.5,7.3M465.7,394.3c-1-.7-2-1.5-3-2.3-1.4-1-2.8-2-4.4-3,0,0,2.1-2.7,3.1-2.9,1.6-.6,3.6.3,4,3.7.3,2.7.3,4.6.3,4.6M458.8,421.1c1.6.8,3.3,1.1,5,.9,3.5-.1,6.4-2.1,6.3-8.6,3.7,1.7,7.5,3,11.5,3.9.8,1.3,1.3,2.8,1.3,4.3.3,2.4-1.3,4.9-3.2,4.8,0,0-10-1.8-16-2.8-3.5-.7-4.8-2.3-4.8-2.3M534.4,394.3l3.1-2.3c1.3-1,2.8-2,4.3-3,0,0-2.1-2.7-3.1-2.9-1.6-.6-3.5.3-3.9,3.7-.3,2.7-.4,4.6-.4,4.6M541.3,421.1c-1.6.8-3.3,1.1-5,.9-3.5-.1-6.3-2.1-6.3-8.6-3.7,1.7-7.5,3-11.4,3.9-.9,1.2-1.4,2.7-1.4,4.3-.2,2.4,1.4,4.9,3.2,4.8,0,0,10.1-1.8,16-2.8,3.5-.7,4.8-2.3,4.8-2.3"/>
    <path class="st33" d="M500.1,419.4c21.4.2,34-7.6,40.9-12.3,16.2-10.9,19.7-11.3,22.3-11.1,3,.3,7.5,1.3,7.7,4,.3,4.1-6.4,5.9-10.2,5.9s-14.1-2.6-14.1-2.6l-2.7,1.8c1.8.9,22.6,7.8,26.6,1.2,4.1-6.6,8.2-17.4,8.2-17.4-3.2-5.1-8.7-8.2-14.7-8.2-10.3,0-20.2,6.5-26.9,11.3s-15,11.5-37.2,11.5-30.7-6.6-37.3-11.5-16.6-11.3-26.8-11.3c-6,0-11.6,3.1-14.8,8.2,0,0,4.1,10.7,8.2,17.4,4,6.6,24.8-.4,26.6-1.2l-2.6-1.8s-10.3,2.6-14.1,2.6-10.5-1.8-10.3-5.9c.2-2.7,4.7-3.7,7.7-4,2.7-.2,6.1.2,22.3,11.1,6.9,4.7,19.6,12.2,41,12.3h0Z"/>
    <path class="st33" d="M453.3,403.3s-10.2,2.6-14,2.6-10.5-1.8-10.3-5.9c.2-2.7,4.7-3.7,7.7-4,2.3-.2,5.2,0,16.5,7.3h0ZM546.8,403.3s10.2,2.6,14.1,2.6,10.4-1.8,10.2-5.9c-.2-2.7-4.7-3.7-7.7-4-2.3-.2-5.2.1-16.5,7.3h0ZM465.7,394.3c-1-.7-2-1.5-3-2.3-1.4-1-2.8-2-4.4-3,0,0,2.1-2.7,3.1-2.9,1.6-.6,3.6.3,4,3.7.3,2.7.3,4.6.3,4.6h0Z"/>
    <path class="st33" d="M465.7,394.2s0-1.8-.3-4.5c-.4-3.4-2.4-4.3-4-3.8-1,.4-3.1,2.9-3.1,2.9h0c-.9-.6-1.9-1.2-2.9-1.7.8-.9,5.1-3.5,6.2-3.5s14.1,5.3,18.2,8.9c1,1,1.8,6.8,1.2,8.7-5.5-1.4-10.7-3.8-15.3-7M459.4,407.5c-1.9,2.2-3,5.1-2.9,8.1-.1,6.2,4.4,6.5,7.3,6.4,3.5-.1,6.4-2.1,6.3-8.6-3.7-1.6-7.3-3.6-10.6-5.8h0Z"/>
    <path class="st33" d="M461.8,408.9c-1.5,1.8-2.4,4-2.7,6.3-.2,3,1.8,4.7,4.4,4.6,3.6-.2,5-5.1,3.3-7.9l-5-2.9Z"/>
    <path class="st33" d="M458.8,421.1c1.6.8,3.3,1.1,5,.9,3.5-.1,6.4-2.1,6.3-8.6,3.7,1.7,7.5,3,11.5,3.9.8,1.3,1.3,2.8,1.3,4.3.3,2.4-1.3,4.9-3.2,4.7,0,0-10-1.8-16-2.8-3.5-.7-4.8-2.3-4.8-2.3h0ZM534.4,394.3c1-.8,2.1-1.5,3.1-2.3,1.3-1,2.8-2,4.3-3,0,0-2.1-2.7-3.1-2.9-1.6-.6-3.5.3-3.9,3.7-.2,1.5-.3,3-.4,4.6h0Z"/>
    <path class="st33" d="M534.4,394.2s0-1.8.4-4.5c.4-3.4,2.3-4.3,3.9-3.8,1,.4,3.1,2.9,3.1,2.9h0c.9-.6,1.9-1.2,2.9-1.7-.8-.9-5.1-3.5-6.1-3.5s-14.1,5.3-18.3,8.9c-1,1-1.7,6.8-1.2,8.7,5.5-1.3,10.7-3.7,15.3-7M540.6,407.5c1.9,2.2,3,5.1,2.9,8.1.2,6.2-4.4,6.5-7.3,6.4-3.5-.1-6.3-2.1-6.3-8.6,3.7-1.6,7.3-3.6,10.6-5.8h0Z"/>
    <path class="st33" d="M538.3,408.9c1.5,1.8,2.4,4,2.7,6.3.4,2.1-1,4.1-3.1,4.5-.4,0-.8,0-1.2,0-3.6-.2-4.9-5.1-3.3-7.9l5-2.9Z"/>
    <path class="st33" d="M541.3,421.1c-1.6.8-3.3,1.1-5,.9-3.5-.1-6.3-2.1-6.3-8.6-3.7,1.7-7.5,3-11.4,3.9-.9,1.2-1.4,2.7-1.4,4.3-.2,2.4,1.4,4.9,3.2,4.7,0,0,10.1-1.8,16-2.8,3.5-.7,4.8-2.3,4.8-2.3h0Z"/>
    <path class="st34" d="M480.8,418.9s3.1,2.3-.7,5.1M471.4,417.4l9.6,4.2M473,419.5l7,3M475.5,417.7l5.3,2.4M519.3,418.9s-3.2,2.3.6,5.1M528.7,417.4l-9.6,4.2M527.1,419.5l-7,3M524.6,417.7l-5.2,2.4"/>
    <path class="st32" d="M443.3,389.7c.1.2.2.4.3.7,0,.3,0,.5,0,.8-.1.7-.5,1.3-1.1,1.6-.6.4-1.4.5-2.1.3-.4,0-.7-.2-1.1-.4-.3-.2-.6-.4-.9-.6-.1.1-.2.2-.3.4h-.5c.1-1,.3-1.9.4-2.8.1,0,.3,0,.5,0,0,.3,0,.7.2,1,0,.3.2.6.4.9.2.3.4.5.6.7.5.3,1,.5,1.6.4.2,0,.4,0,.5-.2.1-.1.3-.2.4-.4,0-.2.2-.4.2-.6,0-.3,0-.6-.1-.9-.1-.3-.4-.6-.7-.8-.3-.2-.5-.3-.8-.5-.3-.2-.5-.3-.8-.5-.4-.2-.7-.6-.9-1-.2-.4-.2-.9-.1-1.4,0-.3.2-.6.4-.8.2-.2.4-.4.7-.6.3-.2.6-.3.9-.3.3,0,.7,0,1,0,.3,0,.7.2,1,.4.3.2.5.3.7.5l.3-.3c.2,0,.3,0,.5,0l-.5,2.7c-.2,0-.3,0-.5,0,0-.3,0-.6-.1-.9,0-.3-.1-.6-.3-.8-.1-.2-.3-.5-.5-.6-.2-.2-.5-.3-.8-.4-.3,0-.7,0-1,.2-.3.2-.5.4-.5.8,0,.3,0,.6,0,.9.1.3.3.5.6.7.2.2.5.3.8.5.2.1.5.3.7.5.2.1.4.3.6.5.2.2.3.3.5.5M454.9,391.3c-.1,0-.3-.1-.5-.2-.2,0-.4,0-.5,0-.2,0-.4.2-.5.3-.2.3-.4.6-.6.9-.6,1-1.1,2.1-1.7,3.1-.2.4-.5.7-.8.9-.3.2-.7.3-1.1.4-.4,0-.7,0-1.1,0-.3,0-.6-.2-.9-.4-.4-.2-.8-.5-1.1-.8-.3-.3-.5-.6-.6-.9-.1-.3-.2-.6-.2-.9,0-.3.1-.6.3-.9l2.3-4.2c0-.1,0-.2.1-.3,0-.1,0-.2-.1-.3,0-.1-.2-.2-.3-.3,0,0-.2-.2-.3-.2l.2-.4c1,.6,2,1.1,3,1.7l-.2.4c-.1,0-.3-.1-.4-.1-.1,0-.2,0-.4-.1-.1,0-.2,0-.3,0,0,0-.2.2-.2.3-.7,1.3-1.5,2.6-2.2,3.9-.1.2-.2.4-.3.6,0,.2-.1.5,0,.7,0,.3.1.5.3.7.2.3.5.5.8.7.3.2.7.3,1,.3.3,0,.6,0,.9-.1.2,0,.4-.2.6-.4.2-.2.3-.3.4-.5l1.6-2.9c.2-.3.3-.6.4-1,0-.2,0-.4,0-.6,0-.2-.2-.3-.4-.5-.1-.1-.3-.2-.4-.3l.2-.4c1,.5,2,1.1,3,1.6l-.2.4M459.1,398.6c.1.3.2.6.2.8,0,.3,0,.7-.3.9-.2.3-.4.6-.7.7-.3.2-.6.3-.9.3-.3,0-.6,0-1,0-.3,0-.7-.2-1-.4l-3.4-2,.2-.4c0,0,.2,0,.4.2.1,0,.2,0,.4.1.1,0,.2,0,.3,0,.1,0,.2-.2.2-.3,1-1.7,1.9-3.4,2.9-5.1,0-.1,0-.2.1-.3,0-.1,0-.2-.1-.3,0-.1-.2-.2-.3-.3,0,0-.2-.2-.3-.2,0-.1.1-.2.2-.4,1.1.6,2.2,1.3,3.3,1.9.2.1.5.3.7.5.2.2.4.4.5.6.1.2.2.5.2.8,0,.3,0,.6-.2.8-.1.2-.3.4-.5.6-.2.1-.4.2-.7.3-.2,0-.5,0-.7,0-.3,0-.5,0-.8-.2h0c.2.2.4.4.6.6.2.2.4.5.5.7h0ZM458.5,396.8c.2,0,.4-.2.5-.3.2-.2.3-.4.4-.6.2-.3.3-.7.2-1.1-.1-.4-.4-.7-.8-.9-.1,0-.2-.1-.4-.2s-.3-.2-.4-.2l-1.6,2.7.6.4c.2.1.5.2.8.3.2,0,.4,0,.7,0h0ZM457.9,399.4c.2-.4.3-.8.2-1.3-.2-.5-.5-.9-1-1.1-.2-.1-.4-.2-.5-.3-.1,0-.3-.1-.3-.2-.5.8-1,1.7-1.4,2.5-.1.2-.1.4,0,.6.2.2.4.4.6.6.4.3.9.4,1.4.2.5-.2.9-.6,1.1-1h0ZM476.3,403.6c-.2,0-.3,0-.5-.1-.2,0-.4,0-.5,0-.2,0-.4.2-.5.4-.2.3-.3.6-.5.9l-1.4,3.3c-.2.4-.4.7-.7,1-.3.2-.6.4-1,.5-.4,0-.7,0-1.1,0-.3,0-.6-.1-1-.3-.4-.2-.8-.4-1.1-.7-.3-.2-.5-.5-.7-.9-.1-.3-.2-.6-.2-.9,0-.3,0-.6.2-.9l1.9-4.4c0-.1,0-.2,0-.3,0-.1,0-.2-.2-.3,0-.1-.2-.2-.3-.3-.1,0-.2-.1-.3-.2l.2-.4,3.2,1.4c0,.1-.1.2-.2.4-.1,0-.3,0-.4-.1-.1,0-.2,0-.4,0-.1,0-.2,0-.3.1,0,0-.2.2-.2.3l-1.8,4.1c0,.2-.2.4-.2.7,0,.2,0,.5,0,.7,0,.3.2.5.4.7.3.3.6.5.9.6.3.2.7.2,1.1.2.3,0,.6,0,.8-.2.2-.1.4-.3.6-.5.1-.2.3-.4.4-.6l1.3-3.1c.1-.3.3-.7.3-1,0-.2,0-.4,0-.6-.1-.2-.3-.3-.4-.4-.1-.1-.3-.2-.5-.3l.2-.4,3.1,1.3c0,.1-.1.2-.2.4M485.2,414.1l-3.5-1v-.4c.2,0,.4,0,.6.1.1,0,.3,0,.4,0,.1,0,.2,0,.3-.2,0,0,.1-.2.2-.3l1.6-5.7s0,0,0,0c-1.5,2-3.1,3.9-4.6,5.9,0,0-.2,0-.3,0-.2-2.5-.4-5-.6-7.6,0,0,0,0,0,0l-1.4,4.7c-.1.3-.2.7-.2,1.1,0,.2,0,.4.1.6.1.2.3.3.4.4.1,0,.3.2.5.3v.4c-.1,0-3.3-.9-3.3-.9v-.4c.3,0,.5,0,.7,0,.2,0,.3,0,.5,0,.2,0,.3-.2.4-.4.2-.3.3-.7.4-1l1.2-4c0-.2,0-.4,0-.6,0-.2,0-.3-.1-.4,0-.1-.2-.3-.4-.3-.1,0-.3-.2-.5-.2v-.4c.1,0,2.8.8,2.8.8.2,2.2.4,4.4.6,6.5,1.1-1.5,2.2-2.9,3.4-4.4.1-.2.2-.3.3-.5,0-.1.1-.2.2-.4l2.6.7v.4c-.2,0-.4,0-.5,0-.1,0-.3,0-.4,0-.1,0-.2,0-.3.1,0,0-.1.2-.2.3l-1.6,5.6c0,.1,0,.2,0,.3,0,.1,0,.2.2.3.1,0,.2.1.3.2.1,0,.3.1.4.2,0,.1,0,.3-.1.4M493.7,411.5c.2.2.4.4.5.7.1.3.2.6.1,1,0,.3-.2.7-.4,1-.2.3-.4.5-.7.6-.3.1-.6.2-.9.3-.3,0-.7,0-1,0-1.3-.2-2.6-.3-3.9-.5v-.4c.2,0,.3,0,.5,0,.1,0,.3,0,.4,0,.1,0,.2,0,.3-.2,0,0,.1-.2.1-.3l.7-5.8c0-.1,0-.2,0-.4,0-.1-.1-.2-.2-.3-.1,0-.2-.1-.4-.2-.1,0-.2,0-.4-.1v-.4c0,0,3.8.5,3.8.5.3,0,.6.1.8.2.3,0,.5.2.7.4.2.2.4.4.5.6.1.3.2.6.1.9,0,.5-.3,1-.8,1.3-.2.1-.4.2-.7.3-.3,0-.5.1-.8.2h0c.3.1.5.2.8.3.3.1.5.3.7.5h0ZM492.5,410.2c.2-.1.3-.3.4-.5,0-.2.1-.4.2-.7,0-.4,0-.8-.2-1.1-.3-.3-.7-.5-1.1-.5-.2,0-.3,0-.5,0h-.5c-.1,1-.3,2-.4,3.1h.7c.3.1.6.1.8,0,.2,0,.4-.1.6-.3h0ZM492.9,412.8c0-.4,0-.9-.3-1.2-.3-.4-.8-.6-1.3-.6-.3,0-.7,0-1-.1-.1,1-.2,1.9-.4,2.9,0,.2,0,.4.2.6.2.2.5.3.8.3.5,0,1,0,1.4-.3.4-.4.6-.9.6-1.4h0ZM504.1,415.4h-2.2c-.5-.8-.9-1.4-1.3-2s-.8-1.1-1.3-1.7h-.8v2.6c0,.1,0,.2,0,.3,0,.1.2.2.3.2.1,0,.2,0,.4,0,.2,0,.3,0,.4,0v.4h-3.5v-.4c0,0,.2,0,.4,0,.1,0,.2,0,.4,0,.1,0,.2-.1.3-.2,0-.1,0-.2,0-.4v-5.9c0-.1,0-.2,0-.4,0-.1-.2-.2-.3-.2-.1,0-.2,0-.4-.1-.1,0-.3,0-.4,0v-.4h3.8c.3,0,.7,0,1,.1.3,0,.6.2.8.3.2.1.4.4.6.6.2.3.2.6.2.9,0,.3,0,.6-.1.8,0,.2-.2.5-.4.6-.2.2-.4.3-.6.4-.3.1-.5.2-.8.3.4.5.7,1,1,1.3s.6.8,1,1.3c.2.3.5.6.9.8.1,0,.2,0,.4.1.1,0,.3,0,.4,0v.4h0ZM501,409.3c0-.8-.5-1.5-1.4-1.6,0,0-.2,0-.3,0h-1v3.5h.8c1,0,1.8-.7,1.9-1.7,0,0,0-.1,0-.2h0ZM513.6,414.8l-3.4.3v-.4c.2,0,.5,0,.7-.2.2,0,.3-.1.3-.2,0,0,0,0,0-.1,0,0,0,0,0-.1-.3-.6-.6-1.2-.8-1.8l-2.9.2c0,.3-.2.5-.2.7s-.1.4-.1.6c0,.1,0,.3,0,.4,0,0,0,.2,0,.3,0,.2.1.3.4.3.3,0,.6,0,.8,0v.4s-3.1.2-3.1.2c0-.1,0-.3,0-.4.1,0,.3,0,.4-.1.1,0,.3,0,.4-.2.1,0,.2-.2.3-.4,0-.1.2-.3.2-.5.3-1.1.7-2.2,1.1-3.5s.8-2.5,1.1-3.5h.5c1.1,2.2,2.2,4.5,3.3,6.8,0,.1.1.2.2.3,0,0,.2.2.3.2.1,0,.2,0,.4.1.1,0,.2,0,.4,0,0,.1,0,.3,0,.4h0ZM510,411.7c-.5-1-1-2-1.5-3.1-.3,1.1-.7,2.2-1,3.2l2.5-.2ZM525.3,405.3h-.4c-.2-.2-.5-.5-.7-.7-.2-.2-.5-.4-.9-.4-.1,0-.3,0-.4,0-.2,0-.3,0-.5.1l-1.3.4.9,3.2c.3,0,.6-.2.9-.2.2,0,.4-.1.6-.3.1,0,.2-.2.3-.4,0-.1,0-.3,0-.4,0-.2,0-.4,0-.6h.4c.3.9.6,2,.8,3-.1,0-.3,0-.4.1,0-.2-.2-.4-.3-.5,0-.1-.2-.3-.3-.4-.1-.1-.3-.2-.5-.2-.2,0-.4,0-.6.1l-.9.2.7,2.7c0,.1,0,.2.2.3,0,0,.2.1.3.2.1,0,.3,0,.4,0,.1,0,.3,0,.4,0v.4c.1,0-3.3.9-3.3.9v-.4s.2,0,.3-.2c.1,0,.2,0,.3-.2,0,0,.2-.2.2-.3,0-.1,0-.2,0-.4l-1.5-5.7c0-.1,0-.2-.1-.3,0,0-.2-.1-.3-.2-.1,0-.3,0-.4,0-.1,0-.3,0-.4,0v-.4c2-.6,4.1-1.1,6.1-1.7l.5,2M534.5,404.6l.9,2.3-5.8,2.8-.2-.4c0,0,.2-.1.3-.2.1,0,.2-.1.3-.2,0,0,.1-.2.1-.3,0-.1,0-.2,0-.4l-2.5-5.3c0-.1-.1-.2-.2-.3,0,0-.2-.1-.3-.1-.1,0-.3,0-.4,0-.1,0-.3,0-.4.1,0-.1-.1-.2-.2-.4l3.1-1.5.2.4c-.1,0-.2.1-.4.2-.1,0-.2.2-.3.2,0,0-.1.2-.1.3,0,.1,0,.2,0,.4l2.4,4.9c0,.2.2.3.3.5,0,.1.2.2.3.2.1,0,.3,0,.4,0,.2,0,.5-.2.7-.3.1,0,.3-.1.4-.2.1,0,.3-.1.4-.2.1,0,.2-.2.3-.3,0,0,.1-.2.2-.2,0-.3.1-.6.2-1,0-.3,0-.6,0-1l.4-.2M538.8,396.5c.5.1,1,.4,1.4.7.5.4.9.8,1.2,1.4.3.5.5,1.1.6,1.7,0,.5,0,1.1,0,1.6-.4,1.6-1.7,2.7-3.3,2.9-.5,0-1,0-1.5-.1-.5-.2-1-.4-1.4-.7-.4-.4-.8-.8-1.1-1.3-.3-.5-.5-1.1-.6-1.7,0-.5,0-1.1,0-1.6.1-.5.4-1,.7-1.4.3-.4.7-.8,1.1-1,.5-.3,1-.5,1.5-.5.5,0,1,0,1.5,0h0ZM541,401.9c0-.4,0-.9-.2-1.3-.2-.5-.4-.9-.6-1.3-.3-.4-.6-.9-.9-1.2-.3-.3-.6-.6-1-.8-.3-.2-.7-.3-1.1-.2-.4,0-.8.1-1.1.3-.4.2-.7.5-.9.9-.2.4-.3.7-.3,1.1,0,.4,0,.8.2,1.2.2.5.4.9.6,1.3.3.4.6.8.9,1.2.3.3.6.6,1,.8.3.2.7.3,1.1.3.4,0,.8-.1,1.1-.3.3-.2.6-.5.8-.8.2-.3.3-.7.3-1.1h0ZM551.3,396.4c-.6.4-1.2.9-1.8,1.3-.8-.3-1.6-.6-2.2-.8s-1.3-.4-2-.6l-.7.5,1.5,2.1c0,0,.2.2.3.2.1,0,.2,0,.4,0,.1,0,.2,0,.3-.2.1,0,.3-.1.4-.2l.2.3c-.9.7-1.9,1.3-2.8,2,0-.1-.2-.2-.2-.3,0,0,.2-.1.3-.3,0,0,.2-.2.3-.3,0,0,0-.2,0-.3,0-.1,0-.2-.1-.3-1.1-1.6-2.3-3.2-3.4-4.8,0,0-.2-.2-.3-.3-.1,0-.2,0-.4,0-.3,0-.5.2-.7.3l-.2-.3,3.1-2.2c.3-.2.6-.4.9-.5.3-.1.6-.2.9-.2.3,0,.6,0,.8.2.3.1.5.3.7.6.2.2.3.5.4.8,0,.2,0,.5,0,.8,0,.2-.1.5-.3.7-.1.3-.3.5-.5.7.6.2,1.2.4,1.6.5s1,.3,1.6.5c.4.1.8.2,1.2.1.1,0,.3,0,.4-.1.1,0,.2-.1.3-.2,0,.1.2.2.2.3h0ZM545.3,393.2c-.4-.7-1.3-.9-2.1-.5,0,0-.2.1-.2.2l-.8.6,2,2.9.6-.4c.8-.5,1.1-1.6.5-2.5,0,0,0,0-.1-.1h0ZM558.1,391.2c.2.8.5,1.5.7,2.3l-6.4,2.4c0-.1,0-.3-.1-.4.1,0,.3-.1.4-.2.1,0,.2-.1.3-.2,0,0,.1-.2.2-.3,0-.1,0-.2,0-.4-.7-1.8-1.4-3.7-2-5.5,0-.1-.1-.2-.2-.3,0,0-.2-.1-.3-.1-.1,0-.3,0-.4,0-.1,0-.3,0-.4,0,0-.1,0-.3-.1-.4l6-2.2.7,1.8c-.1,0-.3.1-.4.2-.2-.3-.5-.5-.8-.7-.3-.2-.6-.3-.9-.2-.1,0-.3,0-.4.1-.2,0-.3.1-.5.2l-1.2.5c.4,1,.8,2,1.1,3,.3-.1.6-.2.9-.3.2,0,.4-.2.6-.3.1-.1.2-.2.2-.4,0-.2,0-.3,0-.5,0-.2,0-.4,0-.5l.4-.2,1.1,3c-.1,0-.3.1-.4.2,0-.2-.2-.3-.3-.5,0-.1-.2-.2-.4-.3-.1,0-.3-.1-.5-.1-.2,0-.4,0-.6.1l-.9.3c.3.8.6,1.5.9,2.3,0,.2.1.4.3.5,0,.1.2.2.3.2.1,0,.3,0,.4,0,.2,0,.4-.1.7-.2.1,0,.3-.1.5-.2.2,0,.3-.1.5-.2.1,0,.3-.2.4-.2.1,0,.2-.2.3-.3.1-.3.2-.6.2-1,0-.3,0-.6,0-.9.1,0,.3-.1.4-.1M565,385.6c.4.3.8.8,1,1.2.3.5.5,1.1.5,1.7,0,.6,0,1.2,0,1.8-.1.5-.4,1-.7,1.5-.3.4-.7.7-1.1,1-.5.3-1,.4-1.5.5-.5,0-1.1,0-1.6-.1-.5-.1-1-.4-1.4-.7-.4-.3-.7-.8-1-1.2-.3-.5-.5-1.1-.5-1.6,0-.6,0-1.2,0-1.8.1-.5.4-1,.7-1.4.6-.8,1.6-1.4,2.6-1.5.5,0,1.1,0,1.6.1.5.1,1,.4,1.4.7h0ZM564.9,391.4c.2-.4.3-.8.3-1.2,0-.5,0-1,0-1.5,0-.5-.2-1-.4-1.5-.1-.4-.4-.8-.6-1.1-.2-.3-.6-.5-.9-.6-.4-.1-.7-.2-1.1-.1-.4,0-.8.2-1.1.5-.3.3-.5.6-.7.9-.2.4-.2.8-.3,1.2,0,1,0,2,.4,2.9.1.4.4.8.6,1.1.2.3.5.5.9.7.4.2.8.2,1.2.1.4,0,.8-.2,1.1-.4.3-.2.5-.5.7-.9h0Z"/>
  </g>
  <path class="st15" d="M468.7,266.9h62.7M536.6,266.9h8.8v51.6c0,10.3-1.4,51.1-45.3,67-44-15.9-45.4-56.7-45.4-67v-51.6h8.9"/>
  <path d="M494.1,132.9c-3.4,0-7.2,1.7-11,5.8h0c9.3-2.7,13.4,3.4,17.3,7.4-11.3,0-22.5,1.3-33.5,3.7-3.6-8-16.3-17.6-26.2-3,9-4.2,14.1,1.6,18.6,4.9-9.2,2.6-18.2,6-26.8,10.3,0,0,0-.1,0-.2-3.7-7.1-23-15.7-27.6,3.8,9.5-9.9,19,1,24.6-2.1-8.6,4.5-16.8,9.8-24.4,15.9,0,0,0-.1-.1-.2-5.2-6.1-25.9-10.5-26.1,9.6,7-11.4,18.3-3.4,23.3-7.1-8.1,6.8-15.5,14.4-22.1,22.7-.1-.1-.2-.3-.4-.4-5.8-5.6-26.8-7.8-25,12.2,6-12.4,18.5-4.8,22.8-9.7-.6.8-1.1,1.8-1.2,2.8-6.1,8.3-11.3,17.3-15.6,26.6-7.1-3.8-27.9-.3-20.7,18.5h0c2.4-13.6,16.6-9.6,19.3-15.5,0,0,0,.1,0,.2-4.3,10-7.6,20.5-9.7,31.2-8.7.2-23,8.5-12.7,23.2-.7-9.9,6.7-12.4,11.4-15.5-1.1,7.3-1.6,14.7-1.6,22.1,0,2.2,0,4.4.1,6.6-7.9,3.4-18.3,17.8-1.9,26.7-4.6-7.8-.4-13.1,2.5-17.6,1,9.6,2.9,19.1,5.6,28.3-7.4,4.8-14.9,18.1.6,25.9-5-7.8-.8-13.2,2-17.9,3.3,9.3,7.6,18.2,12.6,26.7-5.9,6.4-9.8,22.1,7.8,25.1-7.2-6.1-4.6-12.7-3.3-18,5.8,8.6,12.5,16.7,19.9,23.9-5.6,6.7-8.7,22.9,9.3,24.7-8.7-6.4-4.6-14.3-4.3-19.9,8.8,7.9,18.4,14.7,28.7,20.3-1.6,8.6,3.1,23.3,19.5,17.3-8.9-1.6-10.2-8.1-11.7-13.3,10.3,4.9,21,8.6,32.1,11.1-.2,8.7,5.8,20.9,20.7,14.3-9.1-1.1-10.8-7.6-12.6-12.7,8.6,1.5,17.3,2.2,26,2.2,1.7,0,3.4,0,5,0,1.9,8.5,12,20.3,24.8,8.3-9.7,2.2-13.3-4.6-17-8.8,11.4-.9,22.7-3.1,33.6-6.6,5.3,7,18.1,13.3,25.5-1.6-7.2,4.7-12.6,1.3-17.1-1.3,8.9-3.4,17.4-7.6,25.5-12.6,6.6,5.4,25,7.7,24.8-11.3-4.8,8.3-12,6.7-17.5,6.5,8.8-6.1,17-13.2,24.4-21,7.7,4.1,23.7,4.2,22.6-13.4-4.4,8.5-11.6,7.2-17.2,7.3,6.9-8.2,13-17.1,18.1-26.6,8.6,1.5,24.3-4,16.9-20.4h0c-1,9.2-7.9,10.8-13,12.7,4.8-10.2,8.4-21,10.8-32,8.6-1.9,20.5-11.8,8.5-24.5,1.8,8-2.8,11.8-6.7,15,1.2-7.8,1.8-15.6,1.8-23.5,0-1.1,0-2.2,0-3.3,8.4-2.7,19.3-13.8,6.1-25.3,2.9,8.8-2.6,13-6.5,16.9-.7-8.7-2-17.3-4.2-25.7,7.4-4.4,15.8-19.9-1.5-26.7,5.9,7.6,1.6,13.7-.7,18.7-2.8-9-6.4-17.7-10.7-26,6.2-6.1,11-22-6.8-25.5,7.1,6.4,4.1,12.9,2.7,18.2-4.7-7.9-10.1-15.3-16.1-22.2,3.3-8.1,1.8-23.3-15.5-20.9,7.3,3,8.1,8.4,8.5,13.3-6.1-6.2-12.7-11.8-19.8-16.8,2.4-8.3-1.9-25.1-19.3-18.6h0c9.2,1.6,10.4,8.5,11.9,13.7-8.7-5.5-17.9-10.1-27.5-13.7,1.5-8.5-4.6-24.6-21.1-16.5,10.3.8,11.5,8.9,13.9,14-12.7-4.1-25.9-6.5-39.3-7.2-1.3-5.8-7-13.4-14.5-13.4h0ZM500.6,149.9c.8,0,1.5,0,2.3,0-5.2,3.1-9.6,13.3-20.7,10.5,12,13.5,25.1-1.9,26.6-10.3,13.1.7,26.1,3.1,38.5,7.2-5.8,1.8-13.2,8.3-21.9,2.2,6.3,16.6,23.7,7.4,28.3,0,10.5,4,20.5,9.1,29.8,15.3-6,.3-14.7,7.7-23.5.2,4.5,17.1,22.6,9.8,28.1,3,8.1,5.8,15.6,12.5,22.5,19.8.3.9.8,1.7,1.6,2.4-5.2-4-17.4,4.9-25.4-5.8.8,18.7,22.3,13.9,27.9,8,6.2,7.2,11.7,15.1,16.4,23.4-5.2-3-16.7-1.2-20.1-12.3-5.4,17.3,14.8,20.3,22.7,17.2,4.6,8.7,8.2,17.9,11,27.4-4.9-3.5-15.7-4.1-17.1-15.2-8.2,15.6,9.9,22.2,18.6,21,2.3,9.5,3.8,19.2,4.2,29-1.9-5.8-14.6-9.6-11.8-21.7-13.8,12.7,3.8,25.8,12,26.2,0,.9,0,1.8,0,2.7,0,9.4-.9,18.8-2.6,28.1-.3.6-.6,1.3-.6,2,.3-6.5-14-11.4-9.7-24-15,11.2,1.1,26,9.2,27.2-2.6,11.6-6.6,22.8-11.9,33.5-.4-6-8.9-14.3-1.7-23.7-17.3,5.7-7.9,23.9-.7,28.4-5.4,10-11.9,19.3-19.4,27.8,2-5.7-3.2-16.6,7-22.9-18.7-.8-15.9,20.5-10.5,26.7-7.8,8.2-16.5,15.6-26,21.9,1.3-5.9-2.1-15.9,7.6-21.3-17.2-1.5-16.9,16.8-12.7,24.6-8.8,5.4-18.2,9.8-28,13.3-.9-.2-1.8-.2-2.7,0,6.3-2,5.9-17,19.3-17.5-16.1-10.1-24.4,10.7-22.4,18.5,0,.3.2.5.3.8-11,3.4-22.3,5.5-33.8,6.3,5.4-2.7,10.5-12.7,21.5-9.1-11.4-14.8-26.3,1.4-27.4,9.4-1.6,0-3.2,0-4.8,0-9.4,0-18.9-.9-28.2-2.6-.5-.6-1.1-1-1.8-1.3,6.1,2.4,15.4-9.4,26.1-1.3-5.9-17.9-25.6-7.1-29.1,0-.2.5-.4.9-.5,1.4-12.6-2.9-24.8-7.4-36.2-13.4,0,0,0,0,0,0,5.9,2.8,16-8.4,26.1.5-4.7-18.2-24.8-9-29-2-9.4-5.2-18.3-11.5-26.4-18.6,5.9,1.1,14.8.2,18.7,9.5,3.7-17.7-16.9-18.8-24.4-14.8-8.2-8-15.4-16.9-21.6-26.5,5.2,3.1,17,.6,20.8,11.9,4.9-17.6-16-19.9-23.6-16.3-5.8-9.7-10.4-20-13.8-30.8,2.1,6.1,17,5.9,17.4,19.1,10.3-15.8-10.5-24.2-18.4-22.4-3-10.1-4.9-20.6-5.7-31.1,4.1,4.4,15.5,6.1,15.4,17.6,10.1-14.4-6.9-23.3-15.7-23.2,0-1.9-.1-3.9-.1-5.8,0-7.7.6-15.5,1.8-23.1,2.2,5.6,10.8,12,5.8,22,16-8.8,3.2-25.1-4.7-28,1.6-8.2,3.9-16.3,6.9-24.1,1.9,5.3,4.5,11.6-1.1,18,15.8-4.2,10.8-19.7,4.6-26.4,3.5-7.9,7.8-15.4,12.6-22.6.4,5.3.4,11.3-6.1,15.6,16,.2,15.8-15.3,11.9-23.5,5.5-7.1,11.7-13.7,18.4-19.7-.3,5.8.3,13.2-7.7,17.4,16.2,1.8,17.3-14.2,14-22.7,6.1-4.9,12.6-9.3,19.3-13.2-1.5,5.6-2.6,12.9-11.3,15.2,15.4,5.2,19.9-10.1,18.6-19.2,9.1-4.5,18.5-8.1,28.3-10.7-4.5,4-7.4,14.5-18.7,13.4,14.3,11.8,25-6.6,24.6-14.9,10.8-2.4,21.8-3.6,32.8-3.6h0Z"/>
  <path class="st17" d="M408.9,366.9c-.4,1.7-.8,3.4-1,5.1,0,.5-.5,3,1,3.1,1,.1,1.3-2.7,1.3-2.7,0,0-1,3,.3,3.4,1.7.4,1.9-3.3,1.9-3.3-.2,1-1.3,3.7.3,4,1.7.3,2.2-3.6,2.2-3.6,0,0-1.4,3.9.3,4,1.6,0,1.6-3.8,1.6-3.8,0,0-.9,4.7,1.4,4.3,1.2-.2,1.5-1.8,1.8-2.8.4-1.4,1.2-3.2.2-6.2-.8-2.2-.5-2.8-.5-2.8,0,0-2.7,2-4.7,3.3-1,.6-6.1-2.2-6.1-2.2h0ZM436.6,362.8c-.5-.3-.4,1.7-.6,2.7,0,1,.2,3,3.4,2.9,3.1-.3,6.3-1,8.3-.5,2.1.5,4.4.7,6.6.7,1.2,0,2.3-.1,3.4-.5.7-.3,2.1.4,2.8.4s1.7-1,1.6-1.7c-.1-1.2-1.2-1.2-2.8-1.3-1.6-.1-3.1-.4-4.7-.9-1.7-.8-3.5-1.4-5.3-1.9,0,0-4.6.2-5.5.2s-6.6.3-7.1,0h0Z"/>
  <path class="st25" d="M421.4,369.6l-.2-4.4,1.8,1.5.5-3.3c.8-.2,2,1.3,2,1.3l-.2-3.3,2.8,3c-.1-1.4.2-2.8.8-4.1,0,0,2.1,1.8,2.1,3.9s1.8-2.6,1.8-2.6c.5,1.5,1.5,4.8,1.5,4.8l1.2-1.8,1,3.8,2.3-3.3,1.8,3.9,4.1-.3.5,2.3,1.8-2,2.4,1.5c1-.3,2-.5,3-.6,1,0,2.3,1.3,2.3,1.3.4-.7.9-1.3,1.5-1.8.8-.5,1.8.8,2.1,1.5l1.5-2.8c.9.8,1.6,1.8,2.3,2.8.1-1,.4-2.1.8-3,.5-.8,1.2.3,1.8,1.2l1.2-4.1c1,.3,1.8.9,2.3,1.8,1,1.5,1-2.3,1-2.3,1.2,1.6,2.1,3.3,2.9,5.1M529.1,369.1c.4-1.1,1-2.2,1.8-3.1,0,0,2,2.4,2,3.1.6-.3,1.1-.7,1.6-1l1.5,1.5,1.8-1.2,1.7,1.5,3.1-1.3,1.2,1.3,4.8-.6,1.8.8,1.7-2.2,1.6,1.7,2.6-2.6c.6.5,1.1,1.1,1.5,1.8,1-.4,1.8-1.1,2.6-1.8,0,0,2-.8,2.3.5,0,0,1.2-1,1.1-2s1.4-.3,1.9,1c0,0,.6-2.1,2.1-2.3.7,1,1,2.3.8,3.5,1-.8,2.1-1.5,3.3-2,.3,1.6.2,3.3-.3,4.8,0,0,2.4-3.9,2.8-2.6.5,1.7.5,3.4.2,5.1l2.1-1.3.8,2.6,2.3-.5M473.2,381.7c.8-1.3,1.7-2.5,2.8-3.6,1.3,1.1,2.4,2.5,3,4.1.2-1,.6-2,1-2.8,0,0,2.8,1.3,3.3,3.1.5-.9,1.1-1.6,1.8-2.3.8-.6,1.5,2,1.5,3.5,0,0,1.8-1.9,2.9-2,0,0,2,.9,2.6,4.3,0,0,1.9-1.8,2.6-1.5,0,0,2.3,1.5,1.7,3.6-.3,1.1,2.3-1.3,5.4-2.1l2.8,2.1s2.6-3.4,3.3-4.6c0,0,2.1.8,2.1,2,0,0,1-3.6,1.7-4,.8-.5,1.8,1.1,1.8,2.2,0,0,.3-2.8,1.8-3.3,0,0,1.5,1,1.5,2.1,0,0,1.6-3.1,2.8-3.9"/>
  <path class="st30" d="M421.4,369.6l-.2-4.4,1.8,1.5.5-3.3c.8-.2,2,1.3,2,1.3l-.2-3.3,2.8,3c-.1-1.4.2-2.8.8-4.1,0,0,2.1,1.8,2.1,3.9s1.8-2.6,1.8-2.6c.5,1.5,1.5,4.8,1.5,4.8l1.2-1.8,1,3.8,2.3-3.3,1.8,3.9,4.1-.3.5,2.3,1.8-2,2.4,1.5c1-.3,2-.5,3-.6,1,0,2.3,1.3,2.3,1.3.4-.7.9-1.3,1.5-1.8.8-.5,1.8.8,2.1,1.5l1.5-2.8c.9.8,1.6,1.8,2.3,2.8.1-1,.4-2.1.8-3,.5-.8,1.2.3,1.8,1.2l1.2-4.1c1,.3,1.8.9,2.3,1.8,1,1.5,1-2.3,1-2.3,1.2,1.6,2.1,3.3,2.8,5.1,0,0-15.7,5.4-26.8,3.9-13.1-1.7-23.8-4.2-23.8-4.2M529.1,369.1c.4-1.1,1-2.2,1.8-3.1,0,0,2,2.4,2,3.1.6-.3,1.1-.7,1.6-1l1.5,1.5,1.8-1.2,1.7,1.5,3.1-1.3,1.2,1.3,4.8-.6,1.8.8,1.7-2.2,1.6,1.7,2.6-2.6c.6.5,1.1,1.1,1.5,1.8,1-.4,1.8-1.1,2.6-1.8,0,0,2-.8,2.3.5,0,0,1.2-1,1.1-2s1.4-.3,1.9,1c0,0,.6-2.1,2.1-2.3.7,1,1,2.3.8,3.5,1-.8,2.1-1.5,3.3-2,.3,1.6.2,3.3-.3,4.8,0,0,2.4-3.9,2.8-2.6.5,1.7.5,3.4.2,5.1l2.1-1.3.8,2.6,2.3-.5c-8.7,1.2-17.4,1.5-26.2.9-8.4-.9-16.7-2.9-24.6-5.7M519.7,378.5c.6-.4-4.2,10-16,10.5-16.4.8-30.4-7.4-30.4-7.4.8-1.3,1.7-2.5,2.8-3.6,1.3,1.1,2.4,2.5,3,4.1.2-1,.6-2,1-2.8,0,0,2.8,1.3,3.3,3.1.5-.9,1.1-1.6,1.8-2.3.8-.6,1.5,2,1.5,3.5,0,0,1.8-1.9,2.8-2,0,0,2,1,2.6,4.3,0,0,1.9-1.8,2.6-1.5,0,0,2.3,1.5,1.7,3.6-.3,1.1,2.3-1.3,5.4-2.1l2.8,2.1s2.6-3.4,3.3-4.6c0,0,2.1.8,2.1,2,0,0,1-3.6,1.7-4,.8-.5,1.8,1.1,1.8,2.2,0,0,.3-2.8,1.8-3.3,0,0,1.5,1,1.5,2.1,0,0,1.6-3.1,2.8-3.9h0Z"/>
</svg>