<?xml version="1.0" encoding="UTF-8"?>
<svg id="Calque_1" xmlns="http://www.w3.org/2000/svg" version="1.1" xmlns:xlink="http://www.w3.org/1999/xlink" viewBox="0 0 4200 2940">
  <!-- Generator: Adobe Illustrator 29.4.0, SVG Export Plug-In . SVG Version: 2.1.0 Build 152)  -->
  <defs>
    <style>
      .st0 {
        fill: #fff;
      }

      .st1 {
        fill: none;
      }

      .st2 {
        clip-path: url(#clippath-1);
      }

      .st3 {
        fill-rule: evenodd;
      }

      .st4 {
        clip-path: url(#clippath);
      }
    </style>
    <clipPath id="clippath">
      <circle class="st1" cx="2100" cy="1470" r="735"/>
    </clipPath>
    <clipPath id="clippath-1">
      <path class="st1" d="M2328,1370.7l27.9-64.2,57.8,25.1-27.9,64.2-57.8-25.1ZM2375.6,1340.2l-4.8,11,28.9,12.6,4.8-11-28.9-12.6Z"/>
    </clipPath>
  </defs>
  <rect width="4200" height="2940"/>
  <path class="st0" d="M357,1470l1743,1113,1743-1113L2100,357,357,1470Z"/>
  <circle cx="2100" cy="1470" r="735"/>
  <g class="st4">
    <path class="st0" d="M-105,2940c0-985.8,799.2-1785,1785-1785s1785,799.2,1785,1785h-105c0-927.8-752.2-1680-1680-1680S0,2012.2,0,2940h-105Z"/>
  </g>
  <g>
    <path id="d" class="st3" d="M1473.1,1255.2c17.3-2.1,29.4-19.4,27-38.6s-18.3-33-35.5-30.9-29.4,19.4-27,38.6,18.3,33,35.5,30.9M1471.5,1242.2c10.1-1.2,17.2-12,15.7-24.1s-10.9-20.8-21-19.6-17.2,12-15.7,24.1,10.9,20.8,21,19.6"/>
    <g id="h">
      <path id="f" class="st3" d="M1530.2,1248.8l13-.9-1.8-25.9,27.9-2c12.1-.8,21.3-11.4,20.4-23.5-.8-12.1-11.4-21.3-23.5-20.4l-39.9,2.8,3.9,69.9ZM1540.4,1209l26.9-1.9c5-.3,8.7-4.6,8.4-9.6s-4.6-8.7-9.6-8.4l-26.9,1.9,1.3,18Z"/>
      <path d="M1589.5,1244.7c-.7-10-2.2-31.9-17.2-30.9l-19,1.3c21.9-1.5,23.5,20.4,24.2,30.4"/>
    </g>
    <path id="i" class="st3" d="M1618.9,1243.3l33-.6c16.6-.3,29.8-14,29.5-30.5l-.2-10c-.3-16.6-14-29.8-30.5-29.5l-33,.6,1.2,70ZM1631.7,1230.1l19-.3c10.5-.2,18.8-8.8,18.7-19.3v-6c-.3-10.5-8.9-18.8-19.4-18.7l-19,.3.8,44Z"/>
    <path id="j" d="M1707.8,1242.4l63,2.2.5-13-51-1.8.6-18,40,1.4.4-12-40-1.4.5-14,48,1.7.5-13-60-2.1-2.4,70Z"/>
    <path id="k" d="M1796.6,1246.2l12,1,4.2-47.8,9.8,49,11,1,18.1-46.6-4.2,47.8,12,1,6.1-69.7-17.4-1.5-18.1,46.6-9.8-49-17.4-1.5-6.1,69.7Z"/>
    <path id="l" d="M1941.6,1262.6l51.7,8.9,2-11.8-39.9-6.9,2.7-15.8,32.5,5.6,2-11.8-32.5-5.6,1.9-10.8,38.7,6.6,2-11.8-50.5-8.7-10.7,62.1Z"/>
    <path id="f1" data-name="f" class="st3" d="M2074.5,1288.7l12.6,3.3,6.5-25.2,27.1,7c11.8,3,23.8-4,26.8-15.8s-4-23.8-15.8-26.8l-38.7-10-18.5,67.5ZM2096.9,1254.2l26.1,6.8c4.8,1.2,9.7-1.6,11-6.5s-1.6-9.7-6.5-11l-26.1-6.8-4.5,17.4Z"/>
    <g id="h1" data-name="h">
      <path id="f2" data-name="f" class="st3" d="M2160.4,1311.6l12.4,3.9,7.8-24.8,26.7,8.4c11.6,3.7,23.9-2.8,27.6-14.4s-2.8-23.9-14.4-27.6l-38.1-12-22,66.5ZM2184.5,1278.3l25.8,8.1c4.7,1.5,9.8-1.1,11.3-5.9s-1.1-9.8-5.9-11.3l-25.8-8.1-5.4,17.2Z"/>
      <path d="M2217.2,1329.5c3-9.5,9.6-30.5-4.7-35l-18.1-5.7c21,6.6,14.4,27.6,11.4,37.1"/>
    </g>
    <path id="d1" data-name="d" class="st3" d="M2274.5,1350c16.3,6.1,35-3.6,41.8-21.8,6.8-18.1-1-37.7-17.2-43.8s-35,3.6-41.8,21.8c-6.8,18.1,1,37.7,17.2,43.8M2279,1337.8c9.6,3.6,20.8-2.7,25-14.1s0-23.5-9.6-27.1-20.8,2.7-25,14.1,0,23.5,9.6,27.1"/>
    <g id="m">
      <g class="st2">
        <path id="d2" data-name="d" class="st3" d="M2356.9,1383.3c16,6.9,35.1-1.8,42.8-19.5,7.7-17.7,1-37.7-14.9-44.7s-35.1,1.8-42.8,19.5c-7.7,17.7-1,37.7,14.9,44.7M2362.1,1371.4c9.4,4.1,20.9-1.7,25.7-12.8s1.2-23.5-8.2-27.6-20.9,1.7-25.7,12.8-1.2,23.5,8.2,27.6"/>
      </g>
      <path d="M2375.4,1353.2l24.3,10.6-4,9.2-24.3-10.6,4-9.2Z"/>
      <path d="M2390.5,1359.8l9.2,4-14,32.1-9.2-4,14-32.1Z"/>
    </g>
    <g id="h2" data-name="h">
      <path id="f3" data-name="f" class="st3" d="M2409.2,1406.8l11.6,5.8,11.6-23.3,25.1,12.5c10.9,5.4,24.1,1,29.5-9.9s1-24.1-9.9-29.5l-35.8-17.8-32.1,62.2ZM2438.3,1377.7l24.2,12c4.4,2.2,9.9.4,12.1-4s.4-9.9-4-12.1l-24.2-12-8,16.1Z"/>
      <path d="M2462.5,1433.3c4.5-8.9,14.3-28.6.9-35.3l-17-8.5c19.7,9.8,9.9,29.5,5.4,38.5"/>
    </g>
    <path id="j1" data-name="j" d="M2488.5,1447.1l54.8,31,6.4-11.3-44.4-25.1,8.9-15.7,34.8,19.7,5.9-10.4-34.8-19.7,6.9-12.2,41.8,23.6,6.4-11.3-52.2-29.5-34.5,60.9Z"/>
    <path id="n" d="M2590.6,1481.3c-3.8,5.9,0,12.5,8.5,17.9s14.2,5.2,16.6,1.4c7.7-12-36.6-29.5-23-50.5,11.8-18,31.9-4,39.5.8s19.8,17.3,10.3,31.8l-12.9-8.2c4-6.3-.4-12.4-7.1-16.7s-11.8-6.1-15.7,0c-6.5,9.8,36.9,28.2,23.6,49.1s-26.9,8.7-38.3,1.4-24.2-20.7-14.7-35.5l13.3,8.5Z"/>
    <path id="n1" data-name="n" d="M2665.7,1531c-4.1,5.7-.6,12.5,7.5,18.3s13.9,5.9,16.5,2.3c8.3-11.6-35-31.4-20.3-51.6,12.7-17.4,32.1-2.3,39.4,2.9s18.8,18.4,8.6,32.3l-12.4-8.9c4.4-6.1.3-12.4-6.3-17.1s-11.5-6.7-15.7-.8c-7,9.4,35.3,30.1,21,50.3s-27.3,7.3-38.3-.6-23.1-22-12.9-36.2l12.8,9.1Z"/>
    <path id="d3" data-name="d" class="st3" d="M2736.7,1611.5c13.6,10.8,34.4,7.3,46.4-7.8s10.8-36.2-2.9-47-34.4-7.3-46.4,7.8-10.8,36.2,2.9,47M2744.8,1601.3c8,6.4,20.6,3.8,28.2-5.7s7.2-22.4-.8-28.7-20.6-3.8-28.2,5.7-7.2,22.4.8,28.7"/>
  </g>
  <g id="o">
    <g id="a">
      <g id="c">
        <path id="b" class="st0" d="M1500,1306.5l-9.7,30,15,4.9"/>
        <path id="b1" data-name="b" class="st0" d="M1500,1306.5l9.7,30-15,4.9"/>
      </g>
      <g id="c1" data-name="c">
        <path id="b2" data-name="b" class="st0" d="M1530,1328.3h-31.5v15.8"/>
        <path id="b3" data-name="b" class="st0" d="M1530,1328.3l-25.5,18.5-9.3-12.7"/>
      </g>
      <g id="c2" data-name="c">
        <path id="b4" data-name="b" class="st0" d="M1470,1328.3l25.5,18.5,9.3-12.7"/>
        <path id="b5" data-name="b" class="st0" d="M1470,1328.3h31.5v15.8"/>
      </g>
      <g id="c3" data-name="c">
        <path id="b6" data-name="b" class="st0" d="M1518.5,1363.5l-9.7-30-15,4.9"/>
        <path id="b7" data-name="b" class="st0" d="M1518.5,1363.5l-25.5-18.5,9.3-12.7"/>
      </g>
      <g id="c4" data-name="c">
        <path id="b8" data-name="b" class="st0" d="M1481.5,1363.5l25.5-18.5-9.3-12.7"/>
        <path id="b9" data-name="b" class="st0" d="M1481.5,1363.5l9.7-30,15,4.9"/>
      </g>
    </g>
  </g>
  <g id="o1" data-name="o">
    <g id="a1" data-name="a">
      <g id="c5" data-name="c">
        <path id="b10" data-name="b" class="st0" d="M1565,1615.5l-9.7,30,15,4.9"/>
        <path id="b11" data-name="b" class="st0" d="M1565,1615.5l9.7,30-15,4.9"/>
      </g>
      <g id="c6" data-name="c">
        <path id="b12" data-name="b" class="st0" d="M1595,1637.3h-31.5v15.8"/>
        <path id="b13" data-name="b" class="st0" d="M1595,1637.3l-25.5,18.5-9.3-12.7"/>
      </g>
      <g id="c7" data-name="c">
        <path id="b14" data-name="b" class="st0" d="M1535,1637.3l25.5,18.5,9.3-12.7"/>
        <path id="b15" data-name="b" class="st0" d="M1535,1637.3h31.5v15.8"/>
      </g>
      <g id="c8" data-name="c">
        <path id="b16" data-name="b" class="st0" d="M1583.5,1672.5l-9.7-30-15,4.9"/>
        <path id="b17" data-name="b" class="st0" d="M1583.5,1672.5l-25.5-18.5,9.3-12.7"/>
      </g>
      <g id="c9" data-name="c">
        <path id="b18" data-name="b" class="st0" d="M1546.5,1672.5l25.5-18.5-9.3-12.7"/>
        <path id="b19" data-name="b" class="st0" d="M1546.5,1672.5l9.7-30,15,4.9"/>
      </g>
    </g>
  </g>
  <g id="p">
    <g id="a2" data-name="a">
      <g id="c10" data-name="c">
        <path id="b20" data-name="b" class="st0" d="M1475,1686.7l-8.1,25,12.5,4.1"/>
        <path id="b21" data-name="b" class="st0" d="M1475,1686.7l8.1,25-12.5,4.1"/>
      </g>
      <g id="c11" data-name="c">
        <path id="b22" data-name="b" class="st0" d="M1500,1704.9h-26.3s0,13.1,0,13.1"/>
        <path id="b23" data-name="b" class="st0" d="M1500,1704.9l-21.2,15.4-7.7-10.6"/>
      </g>
      <g id="c12" data-name="c">
        <path id="b24" data-name="b" class="st0" d="M1450,1704.9l21.2,15.4,7.7-10.6"/>
        <path id="b25" data-name="b" class="st0" d="M1450,1704.9h26.3s0,13.1,0,13.1"/>
      </g>
      <g id="c13" data-name="c">
        <path id="b26" data-name="b" class="st0" d="M1490.4,1734.2l-8.1-25-12.5,4.1"/>
        <path id="b27" data-name="b" class="st0" d="M1490.4,1734.2l-21.2-15.4,7.7-10.6"/>
      </g>
      <g id="c14" data-name="c">
        <path id="b28" data-name="b" class="st0" d="M1459.6,1734.2l21.2-15.4-7.7-10.6"/>
        <path id="b29" data-name="b" class="st0" d="M1459.6,1734.2l8.1-25,12.5,4.1"/>
      </g>
    </g>
  </g>
  <g id="q">
    <g id="a3" data-name="a">
      <g id="c15" data-name="c">
        <path id="b30" data-name="b" class="st0" d="M1637,1587l-4.6,14.3,7.1,2.3"/>
        <path id="b31" data-name="b" class="st0" d="M1637,1587l4.6,14.3-7.1,2.3"/>
      </g>
      <g id="c16" data-name="c">
        <path id="b32" data-name="b" class="st0" d="M1651.3,1597.4h-15s0,7.5,0,7.5"/>
        <path id="b33" data-name="b" class="st0" d="M1651.3,1597.4l-12.1,8.8-4.4-6.1"/>
      </g>
      <g id="c17" data-name="c">
        <path id="b34" data-name="b" class="st0" d="M1622.7,1597.4l12.1,8.8,4.4-6.1"/>
        <path id="b35" data-name="b" class="st0" d="M1622.7,1597.4h15s0,7.5,0,7.5"/>
      </g>
      <g id="c18" data-name="c">
        <path id="b36" data-name="b" class="st0" d="M1645.8,1614.1l-4.6-14.3-7.1,2.3"/>
        <path id="b37" data-name="b" class="st0" d="M1645.8,1614.1l-12.1-8.8,4.4-6.1"/>
      </g>
      <g id="c19" data-name="c">
        <path id="b38" data-name="b" class="st0" d="M1628.2,1614.1l12.1-8.8-4.4-6.1"/>
        <path id="b39" data-name="b" class="st0" d="M1628.2,1614.1l4.6-14.3,7.1,2.3"/>
      </g>
    </g>
  </g>
  <g id="p1" data-name="p">
    <g id="a4" data-name="a">
      <g id="c20" data-name="c">
        <path id="b40" data-name="b" class="st0" d="M1718,1693.7l-8.1,25,12.5,4.1"/>
        <path id="b41" data-name="b" class="st0" d="M1718,1693.7l8.1,25-12.5,4.1"/>
      </g>
      <g id="c21" data-name="c">
        <path id="b42" data-name="b" class="st0" d="M1743,1711.9h-26.3s0,13.1,0,13.1"/>
        <path id="b43" data-name="b" class="st0" d="M1743,1711.9l-21.2,15.4-7.7-10.6"/>
      </g>
      <g id="c22" data-name="c">
        <path id="b44" data-name="b" class="st0" d="M1693,1711.9l21.2,15.4,7.7-10.6"/>
        <path id="b45" data-name="b" class="st0" d="M1693,1711.9h26.3s0,13.1,0,13.1"/>
      </g>
      <g id="c23" data-name="c">
        <path id="b46" data-name="b" class="st0" d="M1733.4,1741.2l-8.1-25-12.5,4.1"/>
        <path id="b47" data-name="b" class="st0" d="M1733.4,1741.2l-21.2-15.4,7.7-10.6"/>
      </g>
      <g id="c24" data-name="c">
        <path id="b48" data-name="b" class="st0" d="M1702.6,1741.2l21.2-15.4-7.7-10.6"/>
        <path id="b49" data-name="b" class="st0" d="M1702.6,1741.2l8.1-25,12.5,4.1"/>
      </g>
    </g>
  </g>
  <g id="r">
    <g id="a5" data-name="a">
      <g id="c25" data-name="c">
        <path id="b50" data-name="b" class="st0" d="M1696,1772l-6.5,20,10,3.2"/>
        <path id="b51" data-name="b" class="st0" d="M1696,1772l6.5,20-10,3.2"/>
      </g>
      <g id="c26" data-name="c">
        <path id="b52" data-name="b" class="st0" d="M1716,1786.5h-21v10.5"/>
        <path id="b53" data-name="b" class="st0" d="M1716,1786.5l-17,12.3-6.2-8.5"/>
      </g>
      <g id="c27" data-name="c">
        <path id="b54" data-name="b" class="st0" d="M1676,1786.5l17,12.3,6.2-8.5"/>
        <path id="b55" data-name="b" class="st0" d="M1676,1786.5h21v10.5"/>
      </g>
      <g id="c28" data-name="c">
        <path id="b56" data-name="b" class="st0" d="M1708.3,1810l-6.5-20-10,3.2"/>
        <path id="b57" data-name="b" class="st0" d="M1708.3,1810l-17-12.3,6.2-8.5"/>
      </g>
      <g id="c29" data-name="c">
        <path id="b58" data-name="b" class="st0" d="M1683.7,1810l17-12.3-6.2-8.5"/>
        <path id="b59" data-name="b" class="st0" d="M1683.7,1810l6.5-20,10,3.2"/>
      </g>
    </g>
  </g>
  <g id="o2" data-name="o">
    <g id="a6" data-name="a">
      <g id="c30" data-name="c">
        <path id="b60" data-name="b" class="st0" d="M2328,1210.5l-9.7,30,15,4.9"/>
        <path id="b61" data-name="b" class="st0" d="M2328,1210.5l9.7,30-15,4.9"/>
      </g>
      <g id="c31" data-name="c">
        <path id="b62" data-name="b" class="st0" d="M2358,1232.3h-31.5v15.8"/>
        <path id="b63" data-name="b" class="st0" d="M2358,1232.3l-25.5,18.5-9.3-12.7"/>
      </g>
      <g id="c32" data-name="c">
        <path id="b64" data-name="b" class="st0" d="M2298,1232.3l25.5,18.5,9.3-12.7"/>
        <path id="b65" data-name="b" class="st0" d="M2298,1232.3h31.5v15.8"/>
      </g>
      <g id="c33" data-name="c">
        <path id="b66" data-name="b" class="st0" d="M2346.5,1267.5l-9.7-30-15,4.9"/>
        <path id="b67" data-name="b" class="st0" d="M2346.5,1267.5l-25.5-18.5,9.3-12.7"/>
      </g>
      <g id="c34" data-name="c">
        <path id="b68" data-name="b" class="st0" d="M2309.5,1267.5l25.5-18.5-9.3-12.7"/>
        <path id="b69" data-name="b" class="st0" d="M2309.5,1267.5l9.7-30,15,4.9"/>
      </g>
    </g>
  </g>
  <g id="o3" data-name="o">
    <g id="a7" data-name="a">
      <g id="c35" data-name="c">
        <path id="b70" data-name="b" class="st0" d="M2615,1696.5l-9.7,30,15,4.9"/>
        <path id="b71" data-name="b" class="st0" d="M2615,1696.5l9.7,30-15,4.9"/>
      </g>
      <g id="c36" data-name="c">
        <path id="b72" data-name="b" class="st0" d="M2645,1718.3h-31.5v15.8"/>
        <path id="b73" data-name="b" class="st0" d="M2645,1718.3l-25.5,18.5-9.3-12.7"/>
      </g>
      <g id="c37" data-name="c">
        <path id="b74" data-name="b" class="st0" d="M2585,1718.3l25.5,18.5,9.3-12.7"/>
        <path id="b75" data-name="b" class="st0" d="M2585,1718.3h31.5v15.8"/>
      </g>
      <g id="c38" data-name="c">
        <path id="b76" data-name="b" class="st0" d="M2633.5,1753.5l-9.7-30-15,4.9"/>
        <path id="b77" data-name="b" class="st0" d="M2633.5,1753.5l-25.5-18.5,9.3-12.7"/>
      </g>
      <g id="c39" data-name="c">
        <path id="b78" data-name="b" class="st0" d="M2596.5,1753.5l25.5-18.5-9.3-12.7"/>
        <path id="b79" data-name="b" class="st0" d="M2596.5,1753.5l9.7-30,15,4.9"/>
      </g>
    </g>
  </g>
  <g id="r1" data-name="r">
    <g id="a8" data-name="a">
      <g id="c40" data-name="c">
        <path id="b80" data-name="b" class="st0" d="M2717,1714l-6.5,20,10,3.2"/>
        <path id="b81" data-name="b" class="st0" d="M2717,1714l6.5,20-10,3.2"/>
      </g>
      <g id="c41" data-name="c">
        <path id="b82" data-name="b" class="st0" d="M2737,1728.5h-21v10.5"/>
        <path id="b83" data-name="b" class="st0" d="M2737,1728.5l-17,12.3-6.2-8.5"/>
      </g>
      <g id="c42" data-name="c">
        <path id="b84" data-name="b" class="st0" d="M2697,1728.5l17,12.3,6.2-8.5"/>
        <path id="b85" data-name="b" class="st0" d="M2697,1728.5h21v10.5"/>
      </g>
      <g id="c43" data-name="c">
        <path id="b86" data-name="b" class="st0" d="M2729.3,1752l-6.5-20-10,3.2"/>
        <path id="b87" data-name="b" class="st0" d="M2729.3,1752l-17-12.3,6.2-8.5"/>
      </g>
      <g id="c44" data-name="c">
        <path id="b88" data-name="b" class="st0" d="M2704.7,1752l17-12.3-6.2-8.5"/>
        <path id="b89" data-name="b" class="st0" d="M2704.7,1752l6.5-20,10,3.2"/>
      </g>
    </g>
  </g>
  <g id="p2" data-name="p">
    <g id="a9" data-name="a">
      <g id="c45" data-name="c">
        <path id="b90" data-name="b" class="st0" d="M2645,1766.7l-8.1,25,12.5,4.1"/>
        <path id="b91" data-name="b" class="st0" d="M2645,1766.7l8.1,25-12.5,4.1"/>
      </g>
      <g id="c46" data-name="c">
        <path id="b92" data-name="b" class="st0" d="M2670,1784.9h-26.3s0,13.1,0,13.1"/>
        <path id="b93" data-name="b" class="st0" d="M2670,1784.9l-21.2,15.4-7.7-10.6"/>
      </g>
      <g id="c47" data-name="c">
        <path id="b94" data-name="b" class="st0" d="M2620,1784.9l21.2,15.4,7.7-10.6"/>
        <path id="b95" data-name="b" class="st0" d="M2620,1784.9h26.3s0,13.1,0,13.1"/>
      </g>
      <g id="c48" data-name="c">
        <path id="b96" data-name="b" class="st0" d="M2660.4,1814.2l-8.1-25-12.5,4.1"/>
        <path id="b97" data-name="b" class="st0" d="M2660.4,1814.2l-21.2-15.4,7.7-10.6"/>
      </g>
      <g id="c49" data-name="c">
        <path id="b98" data-name="b" class="st0" d="M2629.6,1814.2l21.2-15.4-7.7-10.6"/>
        <path id="b99" data-name="b" class="st0" d="M2629.6,1814.2l8.1-25,12.5,4.1"/>
      </g>
    </g>
  </g>
  <g id="p3" data-name="p">
    <g id="a10" data-name="a">
      <g id="c50" data-name="c">
        <path id="b100" data-name="b" class="st0" d="M2468,1920.7l-8.1,25,12.5,4.1"/>
        <path id="b101" data-name="b" class="st0" d="M2468,1920.7l8.1,25-12.5,4.1"/>
      </g>
      <g id="c51" data-name="c">
        <path id="b102" data-name="b" class="st0" d="M2493,1938.9h-26.3s0,13.1,0,13.1"/>
        <path id="b103" data-name="b" class="st0" d="M2493,1938.9l-21.2,15.4-7.7-10.6"/>
      </g>
      <g id="c52" data-name="c">
        <path id="b104" data-name="b" class="st0" d="M2443,1938.9l21.2,15.4,7.7-10.6"/>
        <path id="b105" data-name="b" class="st0" d="M2443,1938.9h26.3s0,13.1,0,13.1"/>
      </g>
      <g id="c53" data-name="c">
        <path id="b106" data-name="b" class="st0" d="M2483.4,1968.2l-8.1-25-12.5,4.1"/>
        <path id="b107" data-name="b" class="st0" d="M2483.4,1968.2l-21.2-15.4,7.7-10.6"/>
      </g>
      <g id="c54" data-name="c">
        <path id="b108" data-name="b" class="st0" d="M2452.6,1968.2l21.2-15.4-7.7-10.6"/>
        <path id="b109" data-name="b" class="st0" d="M2452.6,1968.2l8.1-25,12.5,4.1"/>
      </g>
    </g>
  </g>
  <g id="r2" data-name="r">
    <g id="a11" data-name="a">
      <g id="c55" data-name="c">
        <path id="b110" data-name="b" class="st0" d="M2467,2000l-6.5,20,10,3.2"/>
        <path id="b111" data-name="b" class="st0" d="M2467,2000l6.5,20-10,3.2"/>
      </g>
      <g id="c56" data-name="c">
        <path id="b112" data-name="b" class="st0" d="M2487,2014.5h-21v10.5"/>
        <path id="b113" data-name="b" class="st0" d="M2487,2014.5l-17,12.3-6.2-8.5"/>
      </g>
      <g id="c57" data-name="c">
        <path id="b114" data-name="b" class="st0" d="M2447,2014.5l17,12.3,6.2-8.5"/>
        <path id="b115" data-name="b" class="st0" d="M2447,2014.5h21v10.5"/>
      </g>
      <g id="c58" data-name="c">
        <path id="b116" data-name="b" class="st0" d="M2479.3,2038l-6.5-20-10,3.2"/>
        <path id="b117" data-name="b" class="st0" d="M2479.3,2038l-17-12.3,6.2-8.5"/>
      </g>
      <g id="c59" data-name="c">
        <path id="b118" data-name="b" class="st0" d="M2454.7,2038l17-12.3-6.2-8.5"/>
        <path id="b119" data-name="b" class="st0" d="M2454.7,2038l6.5-20,10,3.2"/>
      </g>
    </g>
  </g>
  <g id="r3" data-name="r">
    <g id="a12" data-name="a">
      <g id="c60" data-name="c">
        <path id="b120" data-name="b" class="st0" d="M2541,1868l-6.5,20,10,3.2"/>
        <path id="b121" data-name="b" class="st0" d="M2541,1868l6.5,20-10,3.2"/>
      </g>
      <g id="c61" data-name="c">
        <path id="b122" data-name="b" class="st0" d="M2561,1882.5h-21v10.5"/>
        <path id="b123" data-name="b" class="st0" d="M2561,1882.5l-17,12.3-6.2-8.5"/>
      </g>
      <g id="c62" data-name="c">
        <path id="b124" data-name="b" class="st0" d="M2521,1882.5l17,12.3,6.2-8.5"/>
        <path id="b125" data-name="b" class="st0" d="M2521,1882.5h21v10.5"/>
      </g>
      <g id="c63" data-name="c">
        <path id="b126" data-name="b" class="st0" d="M2553.3,1906l-6.5-20-10,3.2"/>
        <path id="b127" data-name="b" class="st0" d="M2553.3,1906l-17-12.3,6.2-8.5"/>
      </g>
      <g id="c64" data-name="c">
        <path id="b128" data-name="b" class="st0" d="M2528.7,1906l17-12.3-6.2-8.5"/>
        <path id="b129" data-name="b" class="st0" d="M2528.7,1906l6.5-20,10,3.2"/>
      </g>
    </g>
  </g>
  <g id="p4" data-name="p">
    <g id="a13" data-name="a">
      <g id="c65" data-name="c">
        <path id="b130" data-name="b" class="st0" d="M2600,1825.7l-8.1,25,12.5,4.1"/>
        <path id="b131" data-name="b" class="st0" d="M2600,1825.7l8.1,25-12.5,4.1"/>
      </g>
      <g id="c66" data-name="c">
        <path id="b132" data-name="b" class="st0" d="M2625,1843.9h-26.3s0,13.1,0,13.1"/>
        <path id="b133" data-name="b" class="st0" d="M2625,1843.9l-21.2,15.4-7.7-10.6"/>
      </g>
      <g id="c67" data-name="c">
        <path id="b134" data-name="b" class="st0" d="M2575,1843.9l21.2,15.4,7.7-10.6"/>
        <path id="b135" data-name="b" class="st0" d="M2575,1843.9h26.3s0,13.1,0,13.1"/>
      </g>
      <g id="c68" data-name="c">
        <path id="b136" data-name="b" class="st0" d="M2615.4,1873.2l-8.1-25-12.5,4.1"/>
        <path id="b137" data-name="b" class="st0" d="M2615.4,1873.2l-21.2-15.4,7.7-10.6"/>
      </g>
      <g id="c69" data-name="c">
        <path id="b138" data-name="b" class="st0" d="M2584.6,1873.2l21.2-15.4-7.7-10.6"/>
        <path id="b139" data-name="b" class="st0" d="M2584.6,1873.2l8.1-25,12.5,4.1"/>
      </g>
    </g>
  </g>
  <g id="r4" data-name="r">
    <g id="a14" data-name="a">
      <g id="c70" data-name="c">
        <path id="b140" data-name="b" class="st0" d="M2465,1854l-6.5,20,10,3.2"/>
        <path id="b141" data-name="b" class="st0" d="M2465,1854l6.5,20-10,3.2"/>
      </g>
      <g id="c71" data-name="c">
        <path id="b142" data-name="b" class="st0" d="M2485,1868.5h-21v10.5"/>
        <path id="b143" data-name="b" class="st0" d="M2485,1868.5l-17,12.3-6.2-8.5"/>
      </g>
      <g id="c72" data-name="c">
        <path id="b144" data-name="b" class="st0" d="M2445,1868.5l17,12.3,6.2-8.5"/>
        <path id="b145" data-name="b" class="st0" d="M2445,1868.5h21v10.5"/>
      </g>
      <g id="c73" data-name="c">
        <path id="b146" data-name="b" class="st0" d="M2477.3,1892l-6.5-20-10,3.2"/>
        <path id="b147" data-name="b" class="st0" d="M2477.3,1892l-17-12.3,6.2-8.5"/>
      </g>
      <g id="c74" data-name="c">
        <path id="b148" data-name="b" class="st0" d="M2452.7,1892l17-12.3-6.2-8.5"/>
        <path id="b149" data-name="b" class="st0" d="M2452.7,1892l6.5-20,10,3.2"/>
      </g>
    </g>
  </g>
  <g id="p5" data-name="p">
    <g id="a15" data-name="a">
      <g id="c75" data-name="c">
        <path id="b150" data-name="b" class="st0" d="M1820,1473.7l-8.1,25,12.5,4.1"/>
        <path id="b151" data-name="b" class="st0" d="M1820,1473.7l8.1,25-12.5,4.1"/>
      </g>
      <g id="c76" data-name="c">
        <path id="b152" data-name="b" class="st0" d="M1845,1491.9h-26.3s0,13.1,0,13.1"/>
        <path id="b153" data-name="b" class="st0" d="M1845,1491.9l-21.2,15.4-7.7-10.6"/>
      </g>
      <g id="c77" data-name="c">
        <path id="b154" data-name="b" class="st0" d="M1795,1491.9l21.2,15.4,7.7-10.6"/>
        <path id="b155" data-name="b" class="st0" d="M1795,1491.9h26.3s0,13.1,0,13.1"/>
      </g>
      <g id="c78" data-name="c">
        <path id="b156" data-name="b" class="st0" d="M1835.4,1521.2l-8.1-25-12.5,4.1"/>
        <path id="b157" data-name="b" class="st0" d="M1835.4,1521.2l-21.2-15.4,7.7-10.6"/>
      </g>
      <g id="c79" data-name="c">
        <path id="b158" data-name="b" class="st0" d="M1804.6,1521.2l21.2-15.4-7.7-10.6"/>
        <path id="b159" data-name="b" class="st0" d="M1804.6,1521.2l8.1-25,12.5,4.1"/>
      </g>
    </g>
  </g>
  <g id="r5" data-name="r">
    <g id="a16" data-name="a">
      <g id="c80" data-name="c">
        <path id="b160" data-name="b" class="st0" d="M2300,1412l-6.5,20,10,3.2"/>
        <path id="b161" data-name="b" class="st0" d="M2300,1412l6.5,20-10,3.2"/>
      </g>
      <g id="c81" data-name="c">
        <path id="b162" data-name="b" class="st0" d="M2320,1426.5h-21v10.5"/>
        <path id="b163" data-name="b" class="st0" d="M2320,1426.5l-17,12.3-6.2-8.5"/>
      </g>
      <g id="c82" data-name="c">
        <path id="b164" data-name="b" class="st0" d="M2280,1426.5l17,12.3,6.2-8.5"/>
        <path id="b165" data-name="b" class="st0" d="M2280,1426.5h21v10.5"/>
      </g>
      <g id="c83" data-name="c">
        <path id="b166" data-name="b" class="st0" d="M2312.3,1450l-6.5-20-10,3.2"/>
        <path id="b167" data-name="b" class="st0" d="M2312.3,1450l-17-12.3,6.2-8.5"/>
      </g>
      <g id="c84" data-name="c">
        <path id="b168" data-name="b" class="st0" d="M2287.7,1450l17-12.3-6.2-8.5"/>
        <path id="b169" data-name="b" class="st0" d="M2287.7,1450l6.5-20,10,3.2"/>
      </g>
    </g>
  </g>
  <g id="o4" data-name="o">
    <g id="a17" data-name="a">
      <g id="c85" data-name="c">
        <path id="b170" data-name="b" class="st0" d="M2100,1768.5l-9.7,30,15,4.9"/>
        <path id="b171" data-name="b" class="st0" d="M2100,1768.5l9.7,30-15,4.9"/>
      </g>
      <g id="c86" data-name="c">
        <path id="b172" data-name="b" class="st0" d="M2130,1790.3h-31.5v15.8"/>
        <path id="b173" data-name="b" class="st0" d="M2130,1790.3l-25.5,18.5-9.3-12.7"/>
      </g>
      <g id="c87" data-name="c">
        <path id="b174" data-name="b" class="st0" d="M2070,1790.3l25.5,18.5,9.3-12.7"/>
        <path id="b175" data-name="b" class="st0" d="M2070,1790.3h31.5v15.8"/>
      </g>
      <g id="c88" data-name="c">
        <path id="b176" data-name="b" class="st0" d="M2118.5,1825.5l-9.7-30-15,4.9"/>
        <path id="b177" data-name="b" class="st0" d="M2118.5,1825.5l-25.5-18.5,9.3-12.7"/>
      </g>
      <g id="c89" data-name="c">
        <path id="b178" data-name="b" class="st0" d="M2081.5,1825.5l25.5-18.5-9.3-12.7"/>
        <path id="b179" data-name="b" class="st0" d="M2081.5,1825.5l9.7-30,15,4.9"/>
      </g>
    </g>
  </g>
  <g id="p6" data-name="p">
    <g id="a18" data-name="a">
      <g id="c90" data-name="c">
        <path id="b180" data-name="b" class="st0" d="M2185,1627.7l-8.1,25,12.5,4.1"/>
        <path id="b181" data-name="b" class="st0" d="M2185,1627.7l8.1,25-12.5,4.1"/>
      </g>
      <g id="c91" data-name="c">
        <path id="b182" data-name="b" class="st0" d="M2210,1645.9h-26.3s0,13.1,0,13.1"/>
        <path id="b183" data-name="b" class="st0" d="M2210,1645.9l-21.2,15.4-7.7-10.6"/>
      </g>
      <g id="c92" data-name="c">
        <path id="b184" data-name="b" class="st0" d="M2160,1645.9l21.2,15.4,7.7-10.6"/>
        <path id="b185" data-name="b" class="st0" d="M2160,1645.9h26.3s0,13.1,0,13.1"/>
      </g>
      <g id="c93" data-name="c">
        <path id="b186" data-name="b" class="st0" d="M2200.4,1675.2l-8.1-25-12.5,4.1"/>
        <path id="b187" data-name="b" class="st0" d="M2200.4,1675.2l-21.2-15.4,7.7-10.6"/>
      </g>
      <g id="c94" data-name="c">
        <path id="b188" data-name="b" class="st0" d="M2169.6,1675.2l21.2-15.4-7.7-10.6"/>
        <path id="b189" data-name="b" class="st0" d="M2169.6,1675.2l8.1-25,12.5,4.1"/>
      </g>
    </g>
  </g>
  <g id="p7" data-name="p">
    <g id="a19" data-name="a">
      <g id="c95" data-name="c">
        <path id="b190" data-name="b" class="st0" d="M2100,1561.7l-8.1,25,12.5,4.1"/>
        <path id="b191" data-name="b" class="st0" d="M2100,1561.7l8.1,25-12.5,4.1"/>
      </g>
      <g id="c96" data-name="c">
        <path id="b192" data-name="b" class="st0" d="M2125,1579.9h-26.3s0,13.1,0,13.1"/>
        <path id="b193" data-name="b" class="st0" d="M2125,1579.9l-21.2,15.4-7.7-10.6"/>
      </g>
      <g id="c97" data-name="c">
        <path id="b194" data-name="b" class="st0" d="M2075,1579.9l21.2,15.4,7.7-10.6"/>
        <path id="b195" data-name="b" class="st0" d="M2075,1579.9h26.3s0,13.1,0,13.1"/>
      </g>
      <g id="c98" data-name="c">
        <path id="b196" data-name="b" class="st0" d="M2115.4,1609.2l-8.1-25-12.5,4.1"/>
        <path id="b197" data-name="b" class="st0" d="M2115.4,1609.2l-21.2-15.4,7.7-10.6"/>
      </g>
      <g id="c99" data-name="c">
        <path id="b198" data-name="b" class="st0" d="M2084.6,1609.2l21.2-15.4-7.7-10.6"/>
        <path id="b199" data-name="b" class="st0" d="M2084.6,1609.2l8.1-25,12.5,4.1"/>
      </g>
    </g>
  </g>
  <g id="r6" data-name="r">
    <g id="a20" data-name="a">
      <g id="c100" data-name="c">
        <path id="b200" data-name="b" class="st0" d="M2026,1633l-6.5,20,10,3.2"/>
        <path id="b201" data-name="b" class="st0" d="M2026,1633l6.5,20-10,3.2"/>
      </g>
      <g id="c101" data-name="c">
        <path id="b202" data-name="b" class="st0" d="M2046,1647.5h-21v10.5"/>
        <path id="b203" data-name="b" class="st0" d="M2046,1647.5l-17,12.3-6.2-8.5"/>
      </g>
      <g id="c102" data-name="c">
        <path id="b204" data-name="b" class="st0" d="M2006,1647.5l17,12.3,6.2-8.5"/>
        <path id="b205" data-name="b" class="st0" d="M2006,1647.5h21v10.5"/>
      </g>
      <g id="c103" data-name="c">
        <path id="b206" data-name="b" class="st0" d="M2038.3,1671l-6.5-20-10,3.2"/>
        <path id="b207" data-name="b" class="st0" d="M2038.3,1671l-17-12.3,6.2-8.5"/>
      </g>
      <g id="c104" data-name="c">
        <path id="b208" data-name="b" class="st0" d="M2013.7,1671l17-12.3-6.2-8.5"/>
        <path id="b209" data-name="b" class="st0" d="M2013.7,1671l6.5-20,10,3.2"/>
      </g>
    </g>
  </g>
  <g id="q1" data-name="q">
    <g id="a21" data-name="a">
      <g id="c105" data-name="c">
        <path id="b210" data-name="b" class="st0" d="M2063,1690l-4.6,14.3,7.1,2.3"/>
        <path id="b211" data-name="b" class="st0" d="M2063,1690l4.6,14.3-7.1,2.3"/>
      </g>
      <g id="c106" data-name="c">
        <path id="b212" data-name="b" class="st0" d="M2077.3,1700.4h-15s0,7.5,0,7.5"/>
        <path id="b213" data-name="b" class="st0" d="M2077.3,1700.4l-12.1,8.8-4.4-6.1"/>
      </g>
      <g id="c107" data-name="c">
        <path id="b214" data-name="b" class="st0" d="M2048.7,1700.4l12.1,8.8,4.4-6.1"/>
        <path id="b215" data-name="b" class="st0" d="M2048.7,1700.4h15s0,7.5,0,7.5"/>
      </g>
      <g id="c108" data-name="c">
        <path id="b216" data-name="b" class="st0" d="M2071.8,1717.1l-4.6-14.3-7.1,2.3"/>
        <path id="b217" data-name="b" class="st0" d="M2071.8,1717.1l-12.1-8.8,4.4-6.1"/>
      </g>
      <g id="c109" data-name="c">
        <path id="b218" data-name="b" class="st0" d="M2054.2,1717.1l12.1-8.8-4.4-6.1"/>
        <path id="b219" data-name="b" class="st0" d="M2054.2,1717.1l4.6-14.3,7.1,2.3"/>
      </g>
    </g>
  </g>
  <g id="p8" data-name="p">
    <g id="a22" data-name="a">
      <g id="c110" data-name="c">
        <path id="b220" data-name="b" class="st0" d="M2320,1938.7l-8.1,25,12.5,4.1"/>
        <path id="b221" data-name="b" class="st0" d="M2320,1938.7l8.1,25-12.5,4.1"/>
      </g>
      <g id="c111" data-name="c">
        <path id="b222" data-name="b" class="st0" d="M2345,1956.9h-26.3s0,13.1,0,13.1"/>
        <path id="b223" data-name="b" class="st0" d="M2345,1956.9l-21.2,15.4-7.7-10.6"/>
      </g>
      <g id="c112" data-name="c">
        <path id="b224" data-name="b" class="st0" d="M2295,1956.9l21.2,15.4,7.7-10.6"/>
        <path id="b225" data-name="b" class="st0" d="M2295,1956.9h26.3s0,13.1,0,13.1"/>
      </g>
      <g id="c113" data-name="c">
        <path id="b226" data-name="b" class="st0" d="M2335.4,1986.2l-8.1-25-12.5,4.1"/>
        <path id="b227" data-name="b" class="st0" d="M2335.4,1986.2l-21.2-15.4,7.7-10.6"/>
      </g>
      <g id="c114" data-name="c">
        <path id="b228" data-name="b" class="st0" d="M2304.6,1986.2l21.2-15.4-7.7-10.6"/>
        <path id="b229" data-name="b" class="st0" d="M2304.6,1986.2l8.1-25,12.5,4.1"/>
      </g>
    </g>
  </g>
  <g id="r7" data-name="r">
    <g id="a23" data-name="a">
      <g id="c115" data-name="c">
        <path id="b230" data-name="b" class="st0" d="M2383,1879l-6.5,20,10,3.2"/>
        <path id="b231" data-name="b" class="st0" d="M2383,1879l6.5,20-10,3.2"/>
      </g>
      <g id="c116" data-name="c">
        <path id="b232" data-name="b" class="st0" d="M2403,1893.5h-21v10.5"/>
        <path id="b233" data-name="b" class="st0" d="M2403,1893.5l-17,12.3-6.2-8.5"/>
      </g>
      <g id="c117" data-name="c">
        <path id="b234" data-name="b" class="st0" d="M2363,1893.5l17,12.3,6.2-8.5"/>
        <path id="b235" data-name="b" class="st0" d="M2363,1893.5h21v10.5"/>
      </g>
      <g id="c118" data-name="c">
        <path id="b236" data-name="b" class="st0" d="M2395.3,1917l-6.5-20-10,3.2"/>
        <path id="b237" data-name="b" class="st0" d="M2395.3,1917l-17-12.3,6.2-8.5"/>
      </g>
      <g id="c119" data-name="c">
        <path id="b238" data-name="b" class="st0" d="M2370.7,1917l17-12.3-6.2-8.5"/>
        <path id="b239" data-name="b" class="st0" d="M2370.7,1917l6.5-20,10,3.2"/>
      </g>
    </g>
  </g>
  <g id="r8" data-name="r">
    <g id="a24" data-name="a">
      <g id="c120" data-name="c">
        <path id="b240" data-name="b" class="st0" d="M2262,1861l-6.5,20,10,3.2"/>
        <path id="b241" data-name="b" class="st0" d="M2262,1861l6.5,20-10,3.2"/>
      </g>
      <g id="c121" data-name="c">
        <path id="b242" data-name="b" class="st0" d="M2282,1875.5h-21v10.5"/>
        <path id="b243" data-name="b" class="st0" d="M2282,1875.5l-17,12.3-6.2-8.5"/>
      </g>
      <g id="c122" data-name="c">
        <path id="b244" data-name="b" class="st0" d="M2242,1875.5l17,12.3,6.2-8.5"/>
        <path id="b245" data-name="b" class="st0" d="M2242,1875.5h21v10.5"/>
      </g>
      <g id="c123" data-name="c">
        <path id="b246" data-name="b" class="st0" d="M2274.3,1899l-6.5-20-10,3.2"/>
        <path id="b247" data-name="b" class="st0" d="M2274.3,1899l-17-12.3,6.2-8.5"/>
      </g>
      <g id="c124" data-name="c">
        <path id="b248" data-name="b" class="st0" d="M2249.7,1899l17-12.3-6.2-8.5"/>
        <path id="b249" data-name="b" class="st0" d="M2249.7,1899l6.5-20,10,3.2"/>
      </g>
    </g>
  </g>
  <g id="o5" data-name="o">
    <g id="a25" data-name="a">
      <g id="c125" data-name="c">
        <path id="b250" data-name="b" class="st0" d="M1805,1828.5l-9.7,30,15,4.9"/>
        <path id="b251" data-name="b" class="st0" d="M1805,1828.5l9.7,30-15,4.9"/>
      </g>
      <g id="c126" data-name="c">
        <path id="b252" data-name="b" class="st0" d="M1835,1850.3h-31.5v15.8"/>
        <path id="b253" data-name="b" class="st0" d="M1835,1850.3l-25.5,18.5-9.3-12.7"/>
      </g>
      <g id="c127" data-name="c">
        <path id="b254" data-name="b" class="st0" d="M1775,1850.3l25.5,18.5,9.3-12.7"/>
        <path id="b255" data-name="b" class="st0" d="M1775,1850.3h31.5v15.8"/>
      </g>
      <g id="c128" data-name="c">
        <path id="b256" data-name="b" class="st0" d="M1823.5,1885.5l-9.7-30-15,4.9"/>
        <path id="b257" data-name="b" class="st0" d="M1823.5,1885.5l-25.5-18.5,9.3-12.7"/>
      </g>
      <g id="c129" data-name="c">
        <path id="b258" data-name="b" class="st0" d="M1786.5,1885.5l25.5-18.5-9.3-12.7"/>
        <path id="b259" data-name="b" class="st0" d="M1786.5,1885.5l9.7-30,15,4.9"/>
      </g>
    </g>
  </g>
  <g id="s">
    <g id="a26" data-name="a">
      <g id="c130" data-name="c">
        <path id="b260" data-name="b" class="st0" d="M2100,2034.5l-3.2,10,5,1.6"/>
        <path id="b261" data-name="b" class="st0" d="M2100,2034.5l3.2,10-5,1.6"/>
      </g>
      <g id="c131" data-name="c">
        <path id="b262" data-name="b" class="st0" d="M2110,2041.8h-10.5v5.3"/>
        <path id="b263" data-name="b" class="st0" d="M2110,2041.8l-8.5,6.2-3.1-4.2"/>
      </g>
      <g id="c132" data-name="c">
        <path id="b264" data-name="b" class="st0" d="M2090,2041.8l8.5,6.2,3.1-4.2"/>
        <path id="b265" data-name="b" class="st0" d="M2090,2041.8h10.5v5.3"/>
      </g>
      <g id="c133" data-name="c">
        <path id="b266" data-name="b" class="st0" d="M2106.2,2053.5l-3.2-10-5,1.6"/>
        <path id="b267" data-name="b" class="st0" d="M2106.2,2053.5l-8.5-6.2,3.1-4.2"/>
      </g>
      <g id="c134" data-name="c">
        <path id="b268" data-name="b" class="st0" d="M2093.8,2053.5l8.5-6.2-3.1-4.2"/>
        <path id="b269" data-name="b" class="st0" d="M2093.8,2053.5l3.2-10,5,1.6"/>
      </g>
    </g>
  </g>
</svg>