<?xml version="1.0" encoding="UTF-8"?>
<svg id="Calque_1" xmlns="http://www.w3.org/2000/svg" version="1.1" viewBox="0 0 8192 5461.3">
  <!-- Generator: Adobe Illustrator 29.4.0, SVG Export Plug-In . SVG Version: 2.1.0 Build 152)  -->
  <defs>
    <style>
      .st0 {
        fill: #fff;
      }
    </style>
  </defs>
  <rect width="8192" height="5461.3"/>
  <rect class="st0" x="2730.7" width="2730.7" height="5461.3"/>
  <path id="h" d="M4096,1407.7c-88.7,242-179.2,493.9-372.7,686.8,60.1-19.8,165.2-37.5,232.8-35.8v1017.9l-287.4,42.7c-10.2-1-13.7-17.1-13.7-38.9-27.6-316.1-102.4-581.6-188.4-856.4-6.1-37.5-115-180.9-31.1-155.6,10.2,1.4,122.5,47.1,104.8,25.3-152.9-158.4-376.5-272.4-593.6-306.2-19.1-4.8-30.4,4.8-13.3,27,288.1,443.4,529.1,966.7,527,1587.5,112,0,383.3-66.2,495.6-66.2v718.2h141.7l32.4-2005.7-34.1-640.3Z"/>
  <path id="h1" data-name="h" d="M4096,1407.7c88.7,242,179.2,493.9,372.7,686.8-60.1-19.8-165.2-37.5-232.8-35.8v1017.9l287.4,42.7c10.2-1,13.7-17.1,13.7-38.9,27.6-316.1,102.4-581.6,188.4-856.4,6.1-37.5,115-180.9,31.1-155.6-10.2,1.4-122.5,47.1-104.8,25.3,152.9-158.4,376.5-272.4,593.6-306.2,19.1-4.8,30.4,4.8,13.3,27-288.1,443.4-529.1,966.7-527,1587.5-112,0-383.3-66.2-495.6-66.2v718.2h-141.7l-32.4-2005.7,34.1-640.3Z"/>
</svg>