<?xml version="1.0" encoding="UTF-8"?>
<svg id="Calque_1" xmlns="http://www.w3.org/2000/svg" version="1.1" viewBox="0 0 8192 4096">
  <!-- Generator: Adobe Illustrator 29.4.0, SVG Export Plug-In . SVG Version: 2.1.0 Build 152)  -->
  <defs>
    <style>
      .st0 {
        fill: #fff;
      }
    </style>
  </defs>
  <path d="M0,0h2048l84.5,84.5h3927L6144,0h2048v4096h-2048l-84.5-84.5h-3927l-84.5,84.5H0V0Z"/>
  <path class="st0" d="M2048,0h4096v4096H2048V0ZM4172.8,3780.3l-38.4-736.4c-2.1-44.7,32.5-82.7,77.2-84.7,5.8-.3,11.7,0,17.5,1.1l733,128.9-99-273.1c-8.2-22.3-1.4-47.3,17.1-62.3l803-650.2-180.9-84.5c-25.3-11.9-37.7-40.8-29-67.4l158.7-488.1-462.5,98.1c-25.8,5.4-51.9-8.2-62.3-32.4l-89.6-210.8-361,387.4c-21.1,22.2-56.2,23.2-78.4,2.1-13.7-13-19.9-32.1-16.3-50.7l174.1-897.7-279,161.3c-26.4,15.5-60.4,6.6-75.9-19.8-.6-1.1-1.2-2.1-1.8-3.2l-283.3-556.4-283.3,556.4c-13.7,27.4-47,38.5-74.4,24.8-1.1-.5-2.2-1.1-3.2-1.8l-279-161.3,174.1,897.7c5.8,30.1-13.9,59.2-44,64.9-18.6,3.6-37.7-2.6-50.7-16.3l-361-387.4-89.6,210.8c-10.4,24.3-36.5,37.8-62.3,32.4l-462.5-98.1,158.7,488.1c8.7,26.6-3.7,55.5-29,67.4l-180.9,84.5,803,650.2c18.4,15,25.3,40,17.1,62.3l-99,273.1,733-128.9c44.1-7.6,86,22,93.6,66.2,1,5.8,1.4,11.6,1.1,17.5l-38.4,736.4h153.6Z"/>
</svg>