<?xml version="1.0" encoding="UTF-8"?>
<svg id="Calque_1" xmlns="http://www.w3.org/2000/svg" version="1.1" viewBox="0 0 8192 4096">
  <!-- Generator: Adobe Illustrator 29.4.0, SVG Export Plug-In . SVG Version: 2.1.0 Build 152)  -->
  <defs>
    <style>
      .st0 {
        fill: #fff;
      }

      .st1 {
        stroke: #000;
        stroke-miterlimit: 3.3;
        stroke-width: 19px;
      }
    </style>
  </defs>
  <rect width="8192" height="4096"/>
  <circle class="st0" cx="4096" cy="2048" r="853.3"/>
  <circle cx="4362.1" cy="2048" r="702.2"/>
  <circle class="st0" cx="1406" cy="1194.7" r="894"/>
  <path class="st1" d="M1344.3,1868.7h223.2s10.1-20.5-2.2-30.7-60.3-12.5-47.4-48.7c26.7-74.4,30.4-51.5,47.1-228.2s24.8-453.9,24.8-453.9h-32.2s6.2,86.2-12.4,198.4-24.2,122.1-44.6,208.3-23.6,93.6-42.2,143.9-20.5,52.7-49.6,99.2c-29.1,46.5-18.6,29.1-34.7,57-8.1,14-18,10.2-23.4,20.4-5.4,10.2-6.4,34.2-6.4,34.2h0Z"/>
  <path d="M1514.6,543.4c1.9,34.7-1.6,80.6-16,117.9-14.6,41.6-30.4,83.1-29.6,126.2-23.2,7.9-47-50.1-69.3-16,16.8,47.1,55.5,84.5,82,127,4.5,13.2,42.6,47.6,20.5,55.6-55.7-19.1-69.2-89.6-103.8-132.5-40.1-72.1-114.9-123.1-198.3-126.6-31.3.8-133.1-7.8-106.6,45.9,39,26.5,87.1,43.8,125.6,73.6,28.7,2.7,80.7,50.6,77.7,68.7-50.5-20.4-74.1-44.9-128.5-66.4-73.7-28.5-175.6-11.3-216.4,61.8-7.6,19-18.8,74.5,5.1,79.8,27.9-43.6,67.9-92.4,127.1-79.3,46.5,3.6-51.9,86.7-14.3,70,11.9-5.3,39.5-23.4,58.6-25.3,19.1-1.9,29.8,12.4,44.3,14.4,29,4,37,16.1,34.3,23.2-3.2,8.3-12.4,1.2-41.9,10.6-14.7,4.7-22.4,17.6-39.6,23.6-17.2,5.9-53,6.4-66.3,1.1-46.8-20.3-123.4-16.8-138,41.8,0,25.8-22.9-2.8-33.5,8.3-7.9,28.1-10,57-51.7,54.4-25.3,26.6-51.2,54.1-83.4,73,18.9,43.3,93.6-43.5,90.1-6.9-32.7,44.6,16.8,53.9,38.5,19.6,36.6-38.7,82-85.8,136.7-46.8,26,24.5,41.2-13,60-11,11.9,30.5,26.8,1.5,40.3-7.1,22.1-2.7,15.9,27.6,42.1,8.9,52.3-34.6,116.5-5.5,167.6-39.2,54.3-24.8,7.6,19.9-7.4,37.4-23.9,46.3-3.2,107.1-54.9,135.8-20.8,55.2,24.6,127.9-21.7,168.7-6.7,25.6,59.5,22.7,78.1,33.2,32.6,1.3-1.4-74.6,30.9-84.7,43.4,26.8,41.3-48,32.4-71.1,4.2-52.5,7.2-109.8,33.2-157.3,27.7-58.2,53.4,23.7,22.3,46.8-17.6,53.6-43.3,120.6-3.2,170.4,11.5,2.6,21,30.6,36,39.2s35.4-2.2,39.1-27.6c19.2-76.7,9.5-159.2,36.9-233.8,19.3-23.1,46-3.7,58,17.5,38.4,44.6,65.4,100.3,111.8,137,42.3,19.8,79.7,49.7,99.2,93.3-.3,33.6,95.5,38.8,66.9,1.4-27.4-36.4-9.3-72.7,18.5-96.9,14.9,3.7,10.5-23-1.2-12.4-18.7-4.4-19.9-38.6,6.1-22.4,43.8,14.1-3.4-31.7-19.2-33.1-37-22.9-79.5-49.3-97.7-89.2,48.2.5,98.1,26.5,147.4,10.4,39.4-20.3,79.5,1.7,93.2,36.5,30.5-4.9,17.5-35.4,0-45.6,22.3-9.2,37.7-28.3,10.7-45.1-14.3-18.6,19.2-50.4-21.9-49.1,1.3-31.4-11-60.1-45.2-71-34.3-29-134.9,42.8-131.9-22.7-10.1-35.6,40.9-4.8,55.1-22.5,14.7-37.5-70.2-33.9-42.2-63,18.3-11.8,104.1-28.7,36.8-41.3-33.6,9.2-62.4,2.4-88.9-14.2-24.1,40.3-92.9-21.9-80.7,49.8-9.4,27-70.9,97.2-87.6,43.4,14.2-42.1,87-55.9,64.4-112.7-3.5-35.5-32.9,6.2-46.7,3.5-7-22.1,21.2-48.1,40.9-53.3,39,30,40.2-37.9,77.4-32.4,27.1-6-8.8-17.7-16.3-22.8,7.4-19.8,49-30,8.2-47.2-36-26.7-62.7,26.6-92.4,29.4-28.5-32.2,25.9-47.6,40.9-64.6.8-12.6-31.7-3.8-21.9-14.8,8.5-15.2,66.1-16.3,39.1-39.1-40.6-13.9-93-10.5-132,7.6-24.5,7.9-31.8,63.4-52.9,61.1-9.9-24.7,3.2-73.4-30.8-80.6h0ZM1706.6,1085.6c30.9-5.2.7,47-14.2,46.2,1.3-18.8-44.8-17-16.2-33.3,9.3-6,19.6-10.6,30.4-12.9Z"/>
  <g>
    <path id="Star7" class="st0" d="M6144,3120.8l56.4,175.4,172.3-65.3-102,153.5,158.5,94-183.6,16,25.3,182.5-126.9-133.6-126.9,133.6,25.3-182.5-183.6-16,158.5-94-102-153.5,172.3,65.3,56.4-175.4Z"/>
    <path id="Star71" data-name="Star7" class="st0" d="M5120,1499.4l56.4,175.4,172.3-65.3-102,153.5,158.5,94-183.6,16,25.3,182.5-126.9-133.6-126.9,133.6,25.3-182.5-183.6-16,158.5-94-102-153.5,172.3,65.3,56.4-175.4Z"/>
    <path id="Star72" data-name="Star7" class="st0" d="M6144,390.1l56.4,175.4,172.3-65.3-102,153.5,158.5,94-183.6,16,25.3,182.5-126.9-133.6-126.9,133.6,25.3-182.5-183.6-16,158.5-94-102-153.5,172.3,65.3,56.4-175.4Z"/>
    <path id="Star73" data-name="Star7" class="st0" d="M7054.2,1226.4l56.4,175.4,172.3-65.3-102,153.5,158.5,94-183.6,16,25.3,182.5-126.9-133.6-126.9,133.6,25.3-182.5-183.6-16,158.5-94-102-153.5,172.3,65.3,56.4-175.4Z"/>
    <path id="Star5" class="st0" d="M6553.6,2048l44.6,109.3,117.7,8.6-90.2,76.2,28.2,114.6-100.3-62.2-100.3,62.2,28.2-114.6-90.2-76.2,117.7-8.6,44.6-109.3Z"/>
  </g>
</svg>