<?xml version="1.0" encoding="UTF-8"?>
<svg id="Calque_1" xmlns="http://www.w3.org/2000/svg" version="1.1" viewBox="0 0 24 16">
  <!-- Generator: Adobe Illustrator 29.4.0, SVG Export Plug-In . SVG Version: 2.1.0 Build 152)  -->
  <defs>
    <style>
      .st0 {
        fill: #fff;
      }
    </style>
  </defs>
  <path d="M24,16H0V0h24v16Z"/>
  <path class="st0" d="M8,8h16V0H0l8,8Z"/>
  <path d="M8,8H0V0h8v8Z"/>
  <polygon class="st0" points="5.9 3.4 5.9 3.4 5.9 3.4 5.9 3.4 4.4 3.4 4 2 3.6 3.4 2.1 3.4 2.1 3.4 2.1 3.4 2.1 3.4 2.1 3.4 3.3 4.2 2.8 5.6 2.8 5.6 2.8 5.6 4 4.8 5.2 5.6 5.2 5.6 5.2 5.6 4.7 4.2 5.9 3.4 5.9 3.4"/>
</svg>