<?xml version="1.0" encoding="UTF-8"?>
<svg id="Calque_1" xmlns="http://www.w3.org/2000/svg" version="1.1" viewBox="0 0 30 20">
  <!-- Generator: Adobe Illustrator 29.4.0, SVG Export Plug-In . SVG Version: 2.1.0 Build 152)  -->
  <defs>
    <style>
      .st0 {
        fill: #fff;
      }
    </style>
  </defs>
  <path d="M0,0h30v20H0V0Z"/>
  <path id="a" class="st0" d="M5,2l1.8,5.4-4.6-3.4h5.7l-4.6,3.4,1.8-5.4Z"/>
  <path id="a1" data-name="a" class="st0" d="M10.4,1.1l-.2,1.9-1-1.6,1.8.7-1.9.4,1.2-1.4Z"/>
  <path id="a2" data-name="a" class="st0" d="M12.7,3.3l-.9,1.7-.3-1.9,1.3,1.4-1.9-.3,1.7-.8Z"/>
  <path id="a3" data-name="a" class="st0" d="M12.9,6.7l-1.5,1.2.5-1.8.7,1.8-1.6-1.1h1.9Z"/>
  <path id="a4" data-name="a" class="st0" d="M10.4,8.1v1.9c0,0-1.1-1.6-1.1-1.6l1.8.7-1.8.5,1.2-1.5Z"/>
</svg>