<?xml version="1.0" encoding="UTF-8"?>
<svg id="Calque_1" xmlns="http://www.w3.org/2000/svg" version="1.1" viewBox="0 0 90 60">
  <!-- Generator: Adobe Illustrator 29.4.0, SVG Export Plug-In . SVG Version: 2.1.0 Build 152)  -->
  <defs>
    <style>
      .st0 {
        fill: #fff;
      }
    </style>
  </defs>
  <rect width="30" height="60"/>
  <rect class="st0" x="30" width="30" height="60"/>
  <rect x="60" width="30" height="60"/>
  <g>
    <g id="c">
      <path id="t" d="M45,22l-2.5,7.6,3.8,1.2-1.3-8.8Z"/>
      <path id="t1" data-name="t" d="M45,22l2.5,7.6-3.8,1.2,1.3-8.8Z"/>
    </g>
    <g id="c1" data-name="c">
      <path id="t2" data-name="t" d="M52.6,27.5h-8v4l8-4Z"/>
      <path id="t3" data-name="t" d="M52.6,27.5l-6.5,4.7-2.4-3.2,8.8-1.5Z"/>
    </g>
    <g id="c2" data-name="c">
      <path id="t4" data-name="t" d="M49.7,36.5l-2.5-7.6-3.8,1.2,6.3,6.4Z"/>
      <path id="t5" data-name="t" d="M49.7,36.5l-6.5-4.7,2.4-3.2,4.1,7.9Z"/>
    </g>
    <g id="c3" data-name="c">
      <path id="t6" data-name="t" d="M40.3,36.5l6.5-4.7-2.4-3.2-4.1,7.9Z"/>
      <path id="t7" data-name="t" d="M40.3,36.5l2.5-7.6,3.8,1.2-6.3,6.4Z"/>
    </g>
    <g id="c4" data-name="c">
      <path id="t8" data-name="t" d="M37.4,27.5l6.5,4.7,2.4-3.2-8.8-1.5Z"/>
      <path id="t9" data-name="t" d="M37.4,27.5h8v4l-8-4Z"/>
    </g>
  </g>
</svg>