<?xml version="1.0" encoding="UTF-8"?>
<svg id="Calque_1" xmlns="http://www.w3.org/2000/svg" version="1.1" viewBox="0 0 500 300">
  <!-- Generator: Adobe Illustrator 29.4.0, SVG Export Plug-In . SVG Version: 2.1.0 Build 152)  -->
  <defs>
    <style>
      .st0 {
        fill: #fff;
      }
    </style>
  </defs>
  <rect class="st0" width="500" height="300"/>
  <rect width="500" height="225"/>
  <rect class="st0" width="500" height="150"/>
  <rect width="500" height="75"/>
  <path d="M0,300l250-150L0,0v300Z"/>
  <circle class="st0" cx="85" cy="150" r="67.5"/>
  <circle cx="115" cy="150" r="67.5"/>
  <path id="star" class="st0" d="M100,89.2l7.4,22.6-19.3-13.9h23.8l-19.3,13.9,7.4-22.6Z"/>
  <path id="star1" data-name="star" class="st0" d="M100,121.4l7.4,22.6-19.3-13.9h23.8l-19.3,13.9,7.4-22.6Z"/>
  <path id="star2" data-name="star" class="st0" d="M100,153.6l7.4,22.6-19.3-13.9h23.8l-19.3,13.9,7.4-22.6Z"/>
  <path id="star3" data-name="star" class="st0" d="M100,185.8l7.4,22.6-19.3-13.9h23.8l-19.3,13.9,7.4-22.6Z"/>
</svg>