<?xml version="1.0" encoding="UTF-8"?>
<svg id="Calque_1" xmlns="http://www.w3.org/2000/svg" version="1.1" viewBox="0 0 54 36">
  <!-- Generator: Adobe Illustrator 29.4.0, SVG Export Plug-In . SVG Version: 2.1.0 Build 152)  -->
  <defs>
    <style>
      .st0 {
        fill: #fff;
      }
    </style>
  </defs>
  <rect width="54" height="36"/>
  <path class="st0" d="M0,22.5h54v4.5H0v-4.5Z"/>
  <g id="s">
    <g id="f">
      <g id="t">
        <path id="o" class="st0" d="M12,8l-1.2,3.8,1.9.6-.7-4.4Z"/>
        <path id="o1" data-name="o" class="st0" d="M12,8l1.2,3.8-1.9.6.7-4.4Z"/>
      </g>
      <g id="t1" data-name="t">
        <path id="o2" data-name="o" class="st0" d="M15.8,10.8h-4v2l4-2Z"/>
        <path id="o3" data-name="o" class="st0" d="M15.8,10.8l-3.2,2.4-1.2-1.6,4.4-.7Z"/>
      </g>
    </g>
    <g id="t2" data-name="t">
      <path id="o4" data-name="o" class="st0" d="M8.2,10.8l3.2,2.4,1.2-1.6-4.4-.7Z"/>
      <path id="o5" data-name="o" class="st0" d="M8.2,10.8h4v2l-4-2Z"/>
    </g>
    <g id="f1" data-name="f">
      <g id="t3" data-name="t">
        <path id="o6" data-name="o" class="st0" d="M14.4,15.2l-1.2-3.8-1.9.6,3.1,3.2Z"/>
        <path id="o7" data-name="o" class="st0" d="M14.4,15.2l-3.2-2.4,1.2-1.6,2.1,4Z"/>
      </g>
      <g id="t4" data-name="t">
        <path id="o8" data-name="o" class="st0" d="M9.6,15.2l3.2-2.4-1.2-1.6-2.1,4Z"/>
        <path id="o9" data-name="o" class="st0" d="M9.6,15.2l1.2-3.8,1.9.6-3.1,3.2Z"/>
      </g>
    </g>
  </g>
  <g id="s1" data-name="s">
    <g id="f2" data-name="f">
      <g id="t5" data-name="t">
        <path id="o10" data-name="o" class="st0" d="M6,3l-.9,2.9,1.4.5-.5-3.3Z"/>
        <path id="o11" data-name="o" class="st0" d="M6,3l.9,2.9-1.4.5.5-3.3Z"/>
      </g>
      <g id="t6" data-name="t">
        <path id="o12" data-name="o" class="st0" d="M8.9,5.1h-3s0,1.5,0,1.5l3-1.5Z"/>
        <path id="o13" data-name="o" class="st0" d="M8.9,5.1l-2.4,1.8-.9-1.2,3.3-.5Z"/>
      </g>
    </g>
    <g id="t7" data-name="t">
      <path id="o14" data-name="o" class="st0" d="M3.1,5.1l2.4,1.8.9-1.2-3.3-.5Z"/>
      <path id="o15" data-name="o" class="st0" d="M3.1,5.1h3s0,1.5,0,1.5l-3-1.5Z"/>
    </g>
    <g id="f3" data-name="f">
      <g id="t8" data-name="t">
        <path id="o16" data-name="o" class="st0" d="M7.8,8.4l-.9-2.9-1.4.5,2.4,2.4Z"/>
        <path id="o17" data-name="o" class="st0" d="M7.8,8.4l-2.4-1.8.9-1.2,1.5,3Z"/>
      </g>
      <g id="t9" data-name="t">
        <path id="o18" data-name="o" class="st0" d="M4.2,8.4l2.4-1.8-.9-1.2-1.5,3Z"/>
        <path id="o19" data-name="o" class="st0" d="M4.2,8.4l.9-2.9,1.4.5-2.4,2.4Z"/>
      </g>
    </g>
  </g>
</svg>