<?xml version="1.0" encoding="UTF-8"?>
<svg id="Calque_1" xmlns="http://www.w3.org/2000/svg" version="1.1" viewBox="0 0 1000 500">
  <!-- Generator: Adobe Illustrator 29.4.0, SVG Export Plug-In . SVG Version: 2.1.0 Build 152)  -->
  <defs>
    <style>
      .st0 {
        fill: #fff;
      }
    </style>
  </defs>
  <rect width="1000" height="500"/>
  <path class="st0" d="M0,0h1000v500L0,0Z"/>
  <circle class="st0" cx="500" cy="250" r="90.3"/>
  <path d="M444.8,209.4c6.2,8.5,15.5,22.7,23.1,19,5.9,0,8.9.4,9.7,4.3,13.9,2.4,37.2-3.5,51.6-22.4,0,0,1.2.2.8-7,0-3.1,4.3-2.5,4.4-1.5.6,1.6.5,2.7,1.3,2.8,1.8-.6,4.2-4.6,6.3-7.1.6-1.1.3-2.3.4-3.7,1.1-2.7,3.8-2.1,4.3-.7.5.9.5,1.6,1,2.5,2.7,1.8,7.7.1,8,.1.5-2.2,1.9-2,1.9-2,1.8-.4,1.1-.2,2.3.4-1.1,12,2.4,12.5,2.1,18.7.1,6.9-2.1,8.8-2.1,11.4.7,3.2,10.8,3.3,7.3,6-3.1,1.7,0,4.8-4.7,6-13.7,7-16.4,12.9-16.4,12.9,0,0-3.4,6.5-3.8,6.5-2.3,4.3-5.2,2-6.8,4.1-.8,2.7-1.7,8.6-.1,11.6.8,4.2-.1,6.5-1.1,10.7-.9,8.8-4.4,10.1-4.8,13.2-1.6,3.3.3,18.8-1.2,18.8-10.2.2-18.1-2-22.1-2.8,3.9-17,2.4-31.9,2.4-33.4-1-12.1-18.2-9.2-20.8-10.8-2.2-.5-3.5-2.2-4.3-3-2.4-.3-3.3-.8-5.8-1.1-1.2.6-.5,1.2-3.2,2.1-6.9.8-9.9-6-9.9-6,.3-2.3-15.4.5-24-1.5-3.5,2-5,7.7-7.9,8.4,0,1.8-4.7-1.5-5.7-3.2-.2-5.1,4.5-7.4,4.5-7.4,3.7-2.6,5.9-3,7.7-4.8.9-4.5.4-7.8,2.3-11.1,1.6-2.6,4-1.4,5.6-2.5,1.7-1.1,2.5-8.7.9-10.7,0,0-6.9-6.3-7.3-6.6-2.3-6.5,2.6-10.6,4-10.2h0Z"/>
  <path d="M877.9,97.6c-4.1-16.2-40.7-51.1-68.2-73.3-6.6-4.5-10.9-1.8-10,4.6,3.4,5.7,6,12,9.4,17.7,1,3.8,2.8,6.5,3.7,10.3,0,0,.3,6.6.9,7.1,8.6,9.4,9.7,17.4,9.7,17.4,4.9,9.5,9.3,16.5,18,24.3,9.7,6.1,2.6,25,2.9,35.1,0,6.4-4.6,5.6-8.6,4.9-31.5-29-62.8-29-90.3-37.4-10.8-1.1-11,4-7.4,6.9,19.2,20.6,37.3,34.6,61.2,46.3,4,2.5,8,5,12,7.4,4.6,3.8,9.1,7.6,13.7,11.4,10.6,6.9,11.4,13.1,11.4,13.7.3,12.9-6.6,22.9-8.6,26.9-3.6,13.6-10.9,16-10.9,16-58.9,39.7-89.7,50-185.2,37.7-1.4-.8-10.6.8,0,4.6,24.3,8.1,84,21.1,141.7-6.3,13.9-9.7,23.1-6.5,33.2-12.3,16.5-10.2,40-22.8,44.3-24.3,12.9-6.9,48.9-14.6,57.2-21.4,9.5-.8,19.4-2,20.1-10.2,3.1-2,7.7-.5,11.1-7.2,7.5-1.3,6.3-4,6.3-4-1.9-5.3-9-7.5-14-11.4-7.4-2.5-12.6-3.2-18-.6-1.7.8-3.4,1.5-5.1,2.3,0,0-8-1.1-8-1.7-17.8-1-16-59.9-22.3-84.5h0Z"/>
  <path class="st0" d="M919.6,194c-.5,1.4-2.8,2-5.1,1.3-2.3-.7-3.8-2.5-3.3-3.9h0c.5-1.4,2.8-2,5.1-1.3,2.3.7,3.8,2.5,3.3,3.9Z"/>
  <g>
    <path id="s" class="st0" d="M188.2,190.9l-12.8-11.9-12.9,11.8,1.4-17.4-17.2-2.8,14.5-9.8-8.6-15.2,16.7,5.2,6.5-16.2,6.3,16.3,16.7-5-8.8,15.1,14.3,10-17.3,2.5,1.2,17.4h0Z"/>
    <path class="st0" d="M233.4,335.5l-13.8-9.2-13.4,9.7,4.7-15.6-13.6-9.4,16.7-.4,5-15.5,5.6,15.3,16.7-.2-13.2,9.9,5.3,15.4h0Z"/>
    <path id="s1" data-name="s" class="st0" d="M190.7,460l-12.8-11.9-12.9,11.8,1.4-17.4-17.2-2.8,14.5-9.8-8.6-15.2,16.7,5.2,6.5-16.2,6.3,16.3,16.7-5-8.8,15.1,14.3,10-17.3,2.5,1.2,17.4h0Z"/>
    <path id="s2" data-name="s" class="st0" d="M76.1,314.2l-12.8-11.9-12.9,11.8,1.4-17.4-17.2-2.8,14.5-9.8-8.6-15.2,16.7,5.2,6.5-16.2,6.3,16.3,16.7-5-8.8,15.1,14.3,10-17.3,2.5,1.2,17.4h0Z"/>
    <path id="s3" data-name="s" class="st0" d="M296.6,276l-12.8-11.9-12.9,11.8,1.4-17.4-17.2-2.8,14.5-9.8-8.6-15.2,16.7,5.2,6.5-16.2,6.3,16.3,16.7-5-8.8,15.1,14.3,10-17.3,2.5,1.2,17.4h0Z"/>
  </g>
</svg>