<?xml version="1.0" encoding="UTF-8"?>
<svg id="Calque_1" xmlns="http://www.w3.org/2000/svg" version="1.1" viewBox="0 0 900 600">
  <!-- Generator: Adobe Illustrator 29.4.0, SVG Export Plug-In . SVG Version: 2.1.0 Build 152)  -->
  <defs>
    <style>
      .st0 {
        fill: #fff;
      }
    </style>
  </defs>
  <rect class="st0" width="900" height="600"/>
  <path d="M392.7,225c-41.4,51.7-33.1,127.3,18.7,168.7,11.9,9.5,25,16.4,38.7,20.7v-228.8c-21.8,6.9-42,20.1-57.3,39.4Z"/>
  <path d="M320.2,375c-41.4-71.7-16.8-163.5,54.9-204.9,23.6-13.6,49.4-20.1,74.9-20.1V0H0v600h450v-150c-51.8,0-102.1-27-129.8-75Z"/>
  <path d="M561.3,206.3c6.9,5.5,13.2,11.8,18.7,18.7-27.8-48.1-78.2-75-130-75v35.6c36.9-11.7,78.8-5.3,111.3,20.7Z"/>
  <path d="M450,414.4v35.6c25.5,0,51.4-6.4,75.1-20.1,22.8-13.2,41.7-32.1,54.9-54.9-31.9,39.9-84.1,54-130,39.4Z"/>
  <polygon points="534 283.4 534 229 501.9 272.9 450 256 482.1 300 450 344 501.9 327.1 534 371 534 316.6 585 300 534 283.4"/>
  <path class="st0" d="M411.3,393.7c-51.7-41.4-60.1-116.9-18.7-168.7,15.4-19.2,35.5-32.5,57.3-39.4v-35.6c-25.5,0-51.3,6.5-74.9,20.1-71.7,41.4-96.3,133.2-54.9,204.9,27.7,48,78.1,74.9,129.8,75v-35.6c-13.7-4.3-26.8-11.2-38.7-20.7Z"/>
</svg>