<?xml version="1.0" encoding="UTF-8"?>
<svg id="Calque_1" xmlns="http://www.w3.org/2000/svg" version="1.1" viewBox="0 0 750 500">
  <!-- Generator: Adobe Illustrator 29.4.0, SVG Export Plug-In . SVG Version: 2.1.0 Build 152)  -->
  <defs>
    <style>
      .st0 {
        stroke-width: .8px;
      }

      .st0, .st1, .st2, .st3, .st4, .st5, .st6, .st7, .st8, .st9, .st10, .st11, .st12, .st13, .st14, .st15, .st16, .st17, .st18, .st19, .st20, .st21, .st22, .st23, .st24, .st25, .st26, .st27, .st28, .st29, .st30, .st31, .st32, .st33, .st34, .st35, .st36, .st37, .st38, .st39, .st40, .st41, .st42, .st43 {
        fill: #fff;
      }

      .st0, .st1, .st2, .st3, .st4, .st5, .st6, .st8, .st9, .st10, .st11, .st12, .st13, .st14, .st15, .st16, .st17, .st18, .st19, .st20, .st21, .st22, .st23, .st24, .st25, .st26, .st27, .st28, .st29, .st30, .st31, .st32, .st33, .st34, .st35, .st36, .st37, .st38, .st39, .st40, .st41, .st42, .st43 {
        stroke: #000;
      }

      .st1 {
        stroke-width: .5px;
      }

      .st2 {
        stroke-width: .2px;
      }

      .st3 {
        stroke-width: .6px;
      }

      .st4 {
        stroke-width: 0px;
      }

      .st5 {
        stroke-width: .7px;
      }

      .st6, .st10 {
        stroke-width: .4px;
      }

      .st6, .st35, .st40 {
        stroke-linejoin: round;
      }

      .st8 {
        stroke-miterlimit: 10;
      }

      .st9 {
        stroke-width: .3px;
      }

      .st11 {
        stroke-width: .2px;
      }

      .st12 {
        stroke-width: .6px;
      }

      .st13 {
        stroke-width: .2px;
      }

      .st14 {
        stroke-width: 0px;
      }

      .st15 {
        stroke-width: .4px;
      }

      .st16 {
        stroke-width: 0px;
      }

      .st17 {
        stroke-linecap: round;
      }

      .st17, .st31, .st35 {
        stroke-width: .3px;
      }

      .st18 {
        stroke-width: 0px;
      }

      .st19 {
        stroke-width: 0px;
      }

      .st20 {
        stroke-width: .1px;
      }

      .st21 {
        stroke-width: .5px;
      }

      .st22 {
        stroke-width: .6px;
      }

      .st23 {
        stroke-width: .1px;
      }

      .st24 {
        stroke-width: 0px;
      }

      .st25 {
        stroke-width: 0px;
      }

      .st26 {
        stroke-width: .5px;
      }

      .st27 {
        stroke-width: .1px;
      }

      .st28 {
        stroke-width: .6px;
      }

      .st29 {
        stroke-width: .1px;
      }

      .st30, .st40 {
        stroke-width: .3px;
      }

      .st32 {
        stroke-width: .9px;
      }

      .st33 {
        stroke-width: .3px;
      }

      .st34 {
        stroke-width: .1px;
      }

      .st36 {
        stroke-width: .3px;
      }

      .st37 {
        stroke-width: .3px;
      }

      .st38 {
        stroke-width: .7px;
      }

      .st39 {
        stroke-width: 0px;
      }

      .st41 {
        stroke-width: .2px;
      }

      .st42 {
        stroke-width: .4px;
      }

      .st43 {
        stroke-width: 0px;
      }
    </style>
  </defs>
  <path d="M0,0h750v500H0V0Z"/>
  <path class="st7" d="M0,125h750v250H0V125Z"/>
  <g>
    <g>
      <path class="st35" d="M168,222.2s-.5,0-.8-.2-1.1-1-1.1-1l-.7-.5-.6-.9s-.7-1.2-.4-2.1c.3-.9.9-1.2,1.4-1.5.5-.3,1.6-.6,1.6-.6,0,0,.9-.4,1.1-.4.3,0,1.3-.3,1.3-.3,0,0,.3-.2.6-.3.3-.1.7-.1.9-.2.2,0,.8-.2,1.1-.3.5,0,1.4.1,1.6.1s1.2,0,1.6,0,1.8-.1,2.2-.1.7,0,1.1,0c.4,0,1.2.3,1.5.4s1.6.6,2.1.8,1.8.4,2.3.6c.6.3.9.7,1.2,1.1.3.4.3.8.4,1.1.1.3.1.8,0,1.1-.1.3-.5.8-.5.8l-.6,1-.8.6s-.6.5-1,.5c-.4,0-5-.9-8-.9s-7.6.9-7.6.9h0,0Z"/>
      <g>
        <ellipse class="st31" cx="175.7" cy="215.7" rx="1.4" ry="2.5"/>
        <ellipse class="st31" cx="175.7" cy="215.7" rx=".6" ry="2.3"/>
        <ellipse class="st8" cx="175.7" cy="213" rx=".9" ry=".9"/>
        <path class="st9" d="M177,212.7v.6h-2.5v-.6h.9v-1.3h-.6v-.6h.6v-.6h.6v.6h.6v.6h-.6v1.3h1"/>
        <path class="st31" d="M175.9,212.2c.5.1.8.6.6,1.1-.1.5-.7.7-1.1.6s-.8-.6-.6-1.1c0-.3.3-.5.6-.6"/>
        <path class="st31" d="M175.7,222.1h-4.8v-1.2c-.1,0-.3-1.2-.3-1.2l-.2-1.5c-1.3-1.8-2.6-2.9-3-2.6.1-.3.2-.6.5-.7,1.2-.7,3.6,1,5.4,3.7.2.2.3.5.5.8h4c.1-.2.3-.5.5-.8,1.8-2.8,4.3-4.4,5.4-3.7.3.1.4.4.5.7-.4-.2-1.6.9-3,2.6l-.2,1.5-.2,1.2v1.2h-4.9Z"/>
        <path class="st31" d="M167.6,215.4c.9-.5,3,1.1,4.7,3.7M183.8,215.4c-.9-.5-3,1.1-4.7,3.7"/>
      </g>
      <g id="a">
        <path class="st31" d="M168.6,224.2c-.2-.6-.6-1.1-.6-1.1,1.9-.6,4.7-.9,7.7-.9,3,0,5.8.4,7.7.9,0,0-.2.4-.5.9-.2.3-.4.8-.4.8-1.8-.5-4-.8-6.8-.8-2.8,0-5.5.4-6.9.9,0,0-.1-.3-.2-.7h0"/>
        <path class="st31" d="M175.7,226.7c2.4,0,5.1-.4,6.1-.6.7-.2,1.1-.5,1-.8,0-.2-.2-.3-.4-.4-1.5-.5-4.1-.8-6.7-.8s-5.3.3-6.7.8c-.2,0-.3.2-.4.4,0,.4.3.6,1,.8,1,.2,3.7.6,6.1.6ZM183.5,222.1l-.6-.5s-.6.3-1.3.2c-.7-.1-.9-1-.9-1,0,0-.8.7-1.4.6-.6,0-1.1-.6-1.1-.6,0,0-.7.5-1.3.5-.6,0-1.2-.8-1.2-.8,0,0-.6.8-1.2.9-.6,0-1.1-.5-1.1-.5,0,0-.3.6-1.1.7s-1.5-.6-1.5-.6c0,0-.4.7-1,.9-.5.2-1.2-.3-1.2-.3,0,0-.1.3-.2.4s-.3.2-.3.2l.2.5c1.9-.6,4.6-.9,7.5-.9s5.7.4,7.6.9l.2-.5h0,0Z"/>
        <path class="st31" d="M175.7,219.5h.3c0,.2,0,.3,0,.4,0,.6.5,1.1,1.1,1.1s.9-.3,1.1-.7c0,0,.1-.4.1-.4s0,.4,0,.4c0,.5.6.9,1.1.9s1.1-.5,1.1-1.1,0,0,0-.1l.4-.4.2.4c0,.1-.1.3-.1.5,0,.6.5,1,1.1,1s.7-.2.9-.4l.2-.3v.4c0,.3.1.7.5.7,0,0,.4,0,.9-.4.5-.4.8-.8.8-.8v.4s-.5.8-.9,1.1c-.2.1-.6.3-.9.2-.3,0-.6-.3-.7-.6-.2.1-.5.2-.8.2-.6,0-1.2-.4-1.4-.9-.3.3-.7.5-1.2.5s-1-.2-1.3-.6c-.3.3-.7.4-1.1.4s-1.1-.3-1.3-.7c-.3.4-.8.7-1.3.7s-.8-.2-1.1-.4c-.3.4-.8.6-1.2.6s-.9-.2-1.2-.5c-.2.5-.8.9-1.4.9s-.6,0-.8-.2c-.1.3-.4.6-.7.6-.3,0-.7-.1-.9-.2-.5-.3-1-1.1-1-1.1v-.4c0,0,.4.3.9.8s.9.4.9.4c.3,0,.5-.4.5-.7v-.4l.2.3c.2.3.5.4.9.4.6,0,1.1-.4,1.1-1,0-.2,0-.3-.1-.5l.2-.4.4.4s0,0,0,.1c0,.6.5,1.1,1.1,1.1s1-.4,1.1-.9c0,0,0-.4,0-.4,0,0,.1.4.2.4.1.4.6.7,1.1.7s1.1-.5,1.1-1.1,0-.3,0-.4h.3c0,0,0,0,0,0h0Z"/>
        <path class="st35" d="M175.7,222.2c-3,0-5.7.4-7.7.9-.1,0-.3,0-.3-.2,0-.1,0-.3.2-.3,1.9-.6,4.7-1,7.8-1s5.9.4,7.8,1c.1,0,.2.2.2.3,0,.1-.2.2-.3.2-1.9-.6-4.7-.9-7.7-.9Z"/>
        <path class="st31" d="M165.4,221s-.4-.5-.6-.7c-.2-.2-.7-.3-.7-.3,0,0,.3-.3.6-.3s.4,0,.4.2v-.2s.3,0,.4.3c.1.3,0,.7,0,.7,0,0,0,.2-.1.3h0ZM167.3,220.2v.7c-.1,0-1.5.1-1.5.1h-.2c0-.1,0-.3,0-.3l1.1-.9.6.4"/>
        <path class="st31" d="M165.4,220.8c.1-.1.4,0,.5,0,.2.1.2.4.1.5-.1.1-.4.1-.5,0-.2-.1-.2-.4-.1-.5ZM168,220.9c0-.2,0-.4.1-.4.1,0,.3,0,.4.3,0,.2,0,.4-.1.4-.1,0-.3,0-.4-.3ZM168.7,220l.5.5,1.2-.7v-.2c0,0,0-.2,0-.2h-1.4c0-.1-.2.6-.2.6"/>
        <path class="st31" d="M170.1,217.8l-.7.6.9,1.1h.2c0,0,.2,0,.2,0l.3-1.4-.9-.3"/>
        <path class="st31" d="M172.4,219.3l-.3.6h-1.4c0-.1-.2-.3-.2-.3v-.2c.1,0,1.3-.6,1.3-.6l.5.5"/>
        <ellipse class="st31" cx="170.5" cy="219.6" rx=".5" ry=".5"/>
        <path class="st31" d="M172.9,219.9c0-.2,0-.4.2-.4s.3.1.3.3c0,.2,0,.4-.2.4-.1,0-.3-.1-.3-.3ZM173.8,219.2l.4.6,1.3-.4v-.2c.1,0,0-.2,0-.2l-1.3-.4-.4.6"/>
        <path class="st31" d="M175.7,217.1l-.9.5.6,1.4h.2c0,.1.2,0,.2,0l.6-1.4-.9-.5"/>
        <path class="st31" d="M177.6,219.2l-.4.6-1.3-.4v-.2c-.1,0,0-.2,0-.2l1.3-.4.4.6"/>
        <ellipse class="st31" cx="175.7" cy="219.2" rx=".5" ry=".5"/>
        <path class="st31" d="M178.5,219.9c0-.2,0-.4-.2-.4s-.3.1-.3.3c0,.2,0,.4.2.4.1,0,.3-.1.3-.3ZM179,219.3l.3.6h1.4c0-.1.2-.3.2-.3v-.2c-.1,0-1.3-.6-1.3-.6l-.5.5"/>
        <path class="st31" d="M181.3,217.8l.7.6-.9,1.1h-.2c0,0-.2,0-.2,0l-.3-1.4.9-.3"/>
        <path class="st31" d="M182.7,220l-.5.5-1.2-.7v-.2c-.1,0,0-.2,0-.2h1.4c0-.1.2.6.2.6"/>
        <ellipse class="st31" cx="180.9" cy="219.6" rx=".5" ry=".5"/>
        <path class="st31" d="M183.3,220.9c0-.2,0-.4-.1-.4-.1,0-.3,0-.4.3,0,.2,0,.4.1.4.1,0,.3,0,.4-.3ZM185.7,221s.4-.5.7-.7c.2-.2.7-.3.7-.3,0,0-.3-.3-.6-.3s-.4,0-.4.2v-.2s-.3,0-.4.3c-.1.3,0,.7,0,.7,0,0,0,.2.1.3h0ZM183.8,220.2v.7c.1,0,1.5.1,1.5.1h.2c0-.1,0-.3,0-.3l-1.1-.9-.6.4"/>
        <path class="st31" d="M185.7,220.8c-.1-.1-.4,0-.5,0s-.2.4-.1.5c.1.1.4.1.5,0,.2-.1.2-.4.1-.5Z"/>
      </g>
      <g id="b">
        <path class="st31" d="M168.1,224.3l.3-.5h.6c0,.1-.4.7-.4.7l-.6-.2"/>
        <path class="st31" d="M0,0"/>
        <ellipse class="st31" cx="173.2" cy="223.3" rx=".4" ry=".4"/>
        <path class="st31" d="M175.7,223.5h-1c-.2,0-.3-.1-.3-.3s.1-.3.3-.3h2c.2,0,.3.1.3.3s-.1.3-.3.3h-1"/>
        <ellipse class="st31" cx="178.2" cy="223.3" rx=".4" ry=".4"/>
        <path class="st31" d="M0,0"/>
        <path class="st31" d="M183.2,224.3l-.2-.5h-.7c0,0,.3.6.3.6h.6"/>
        <path class="st35" d="M175.7,226.2c-2.4,0-4.6-.2-6.3-.6,1.7-.4,3.9-.7,6.3-.7,2.4,0,4.6.3,6.3.7-1.7.4-3.9.6-6.3.6Z"/>
        <path class="st14" d="M176.8,226.1v-1.2M176.2,226.1v-1.2M175.8,226.1v-1.3"/>
        <path class="st24" d="M175.4,226.1v-1.3"/>
        <path class="st16" d="M175.1,226.1v-1.3"/>
        <path class="st43" d="M174.8,226.1v-1.3M174.4,226.1v-1.3"/>
        <path class="st19" d="M174.2,226.1v-1.3"/>
        <path class="st39" d="M173.6,226.1v-1.1M173.9,226.1v-1.2"/>
        <path class="st25" d="M173.1,226v-1.1M173.4,226.1v-1.1"/>
        <path class="st18" d="M172.4,226v-.9M172.6,226v-1M172.9,226v-1"/>
        <path class="st4" d="M172.2,226v-.9"/>
        <path class="st27" d="M172,225.9v-.9"/>
        <path class="st29" d="M171.7,225.9v-.8"/>
        <path class="st20" d="M171.2,225.8v-.6M171.5,225.9v-.7M171,225.8v-.6"/>
        <path class="st34" d="M170.8,225.7v-.5"/>
        <path class="st23" d="M170.5,225.7v-.4"/>
        <path class="st2" d="M170.3,225.6v-.3"/>
        <path class="st11" d="M170,225.6h0"/>
      </g>
    </g>
    <g id="c">
      <g>
        <path class="st10" d="M191.3,330.7c-1.5,0-2.9-.3-3.9-.9-1-.5-2.4-.8-3.9-.8s-2.9.3-3.9.8c-1,.5-2.4.9-3.9.9s-2.9-.4-3.9-.9c-1-.5-2.3-.8-3.8-.8s-2.9.3-3.9.8c-1,.5-2.4.9-3.9.9v2.4c1.5,0,2.9-.4,3.9-.9,1-.5,2.3-.8,3.9-.8s2.8.3,3.8.8c1,.5,2.4.9,3.9.9s2.9-.3,3.9-.9c1-.5,2.4-.8,3.9-.8s2.9.3,3.9.8c1,.5,2.4.9,3.9.9v-2.4s0,0,0,0Z"/>
        <path class="st10" d="M191.3,333.1c-1.5,0-2.9-.3-3.9-.9-1-.5-2.4-.8-3.9-.8s-2.9.3-3.9.8c-1,.5-2.4.9-3.9.9s-2.9-.4-3.9-.9c-1-.5-2.3-.8-3.8-.8s-2.9.3-3.9.8c-1,.5-2.4.9-3.9.9v2.4c1.5,0,2.9-.4,3.9-.9,1-.5,2.3-.8,3.9-.8s2.8.3,3.8.8c1,.5,2.4.9,3.9.9s2.9-.3,3.9-.9,2.4-.8,3.9-.8,2.9.3,3.9.8c1,.5,2.4.9,3.9.9v-2.4"/>
        <path class="st10" d="M191.3,335.5c-1.5,0-2.9-.3-3.9-.9-1-.5-2.4-.8-3.9-.8s-2.9.3-3.9.8-2.4.9-3.9.9-2.9-.4-3.9-.9c-1-.5-2.3-.8-3.8-.8s-2.9.3-3.9.8c-1,.5-2.4.9-3.9.9v2.4c1.5,0,2.9-.3,3.9-.9,1-.5,2.3-.8,3.9-.8s2.8.3,3.8.8c1,.5,2.4.9,3.9.9s2.9-.3,3.9-.9c1-.5,2.4-.8,3.9-.8s2.9.3,3.9.8c1,.5,2.4.9,3.9.9v-2.4"/>
        <path class="st10" d="M191.3,340.3c-1.5,0-2.9-.3-3.9-.9-1-.5-2.4-.8-3.9-.8s-2.9.3-3.9.8-2.4.9-3.9.9-2.9-.4-3.9-.9c-1-.5-2.3-.8-3.8-.8s-2.9.3-3.9.8c-1,.5-2.4.9-3.9.9v-2.4c1.5,0,2.9-.4,3.9-.9,1-.5,2.3-.8,3.9-.8s2.8.3,3.8.8c1,.5,2.4.9,3.9.9s2.9-.3,3.9-.9c1-.5,2.4-.8,3.9-.8s2.9.3,3.9.8c1,.5,2.4.9,3.9.9v2.4"/>
        <path class="st10" d="M191.3,342.7c-1.5,0-2.9-.3-3.9-.9-1-.5-2.4-.8-3.9-.8s-2.9.3-3.9.8-2.4.9-3.9.9-2.9-.4-3.9-.9c-1-.5-2.3-.8-3.8-.8s-2.9.3-3.9.8c-1,.5-2.4.9-3.9.9v-2.4c1.5,0,2.9-.4,3.9-.9,1-.5,2.3-.8,3.9-.8s2.8.3,3.8.8c1,.5,2.4.9,3.9.9s2.9-.3,3.9-.9,2.4-.8,3.9-.8,2.9.3,3.9.8c1,.5,2.4.9,3.9.9v2.4s0,0,0,0Z"/>
      </g>
      <g>
        <path class="st6" d="M166.9,320.8c0,.2.1.4.1.6,0,1.5-1.3,2.6-2.8,2.6h22.9c-1.6,0-2.8-1.2-2.8-2.6s0-.4,0-.6c-.1,0-.3,0-.4,0h-16.7c-.1,0-.3,0-.4,0Z"/>
        <path class="st10" d="M167.3,319.3h16.7c.6,0,1,.4,1,.8s-.4.8-1,.8h-16.7c-.6,0-1-.4-1-.8s.5-.8,1-.8ZM164.3,329.9h22.9v-5.8h-22.9v5.8Z"/>
      </g>
      <path class="st10" d="M167.6,318.3h16.2v-79.6h-16.2v79.6Z"/>
      <path class="st10" d="M179.1,238.8v79.5M181,238.8v79.5"/>
      <g>
        <path class="st10" d="M164.6,232.4h22.3v-5.8h-22.3v5.8h0Z"/>
        <path class="st10" d="M0,0"/>
        <path class="st10" d="M167.3,236.2h16.7c.6,0,1,.4,1,.8s-.4.8-1,.8h-16.7c-.6,0-1-.4-1-.8s.5-.8,1-.8ZM167.3,232.4h16.7c.6,0,1,.3,1,.7s-.5.7-1,.7h-16.7c-.6,0-1-.3-1-.7s.5-.7,1-.7Z"/>
      </g>
    </g>
    <g id="d">
      <path class="st10" d="M162.5,298.6c-2.3,1.3-3.8,2.6-3.6,3.3.1.6.8,1.1,1.9,1.8,1.6,1.1,2.6,3.1,1.8,4.1,1.3-1.1,2.2-2.7,2.2-4.5s-.9-3.6-2.3-4.6Z"/>
      <path class="st6" d="M200.4,268.5c-3.5-1.5-9.6-2.5-16.5-2.8-2.4,0-5,.2-7.8.7-9.7,1.6-17.1,5.5-16.5,8.7,0,0,0,.2,0,.3,0,0-3.6-8.2-3.7-8.5-.6-3.5,7.6-7.8,18.4-9.6,3.4-.6,6.7-.8,9.6-.8,6.9,0,12.9.9,16.5,2.2v9.8"/>
      <path class="st10" d="M167.5,278.5c-4.5-.3-7.6-1.5-7.9-3.4-.3-1.5,1.2-3.2,4-4.7,1.2.1,2.6.3,4,.3v7.8M183.8,272.4c2.8.4,4.9,1.1,6,2v.2c.6,1-1.9,3.2-6,5.7v-7.8"/>
      <path class="st6" d="M157.4,293.8c-.4-1.3,4-3.9,10.2-6.1,2.8-1,5.2-2.1,8.1-3.4,8.6-3.8,15-8.2,14.2-9.8v-.2c.4.4,1.1,8.2,1.1,8.2.8,1.5-5.1,5.8-13,9.6-2.5,1.2-7.9,3.2-10.4,4.1-4.5,1.6-9,4.5-8.6,5.6l-1.5-8.1h0s0,0,0,0Z"/>
    </g>
    <g>
      <path class="st33" d="M324.9,220.4s-.7.8-1.3.9c-.5.1-1.2-.5-1.2-.5,0,0-.5.5-1.1.6-.6.1-1.4-.7-1.4-.7,0,0-.6.8-1.1,1-.5.2-1.1-.2-1.1-.2,0,0-.2.4-.6.6-.2,0-.5,0-.5,0l-.6-.4-.7-.7-.6-.2s-.3-.9-.3-1.1c0-.2,0-.6,0-.6-.1-.6.9-1.4,2.3-1.7.8-.2,1.5-.2,2.1,0,.6-.5,1.8-.8,3.2-.8s2.4.3,3,.7c.6-.4,1.7-.7,3-.7s2.6.3,3.2.8c.5-.2,1.2-.2,2.1,0,1.4.3,2.4,1.1,2.3,1.7,0,0,0,.4,0,.6,0,.2-.3,1.1-.3,1.1l-.6.2-.7.7-.6.4s-.3.1-.5,0c-.4-.2-.7-.6-.7-.6,0,0-.6.4-1.1.2-.5-.2-1.1-1-1.1-1,0,0-.8.8-1.4.7-.6-.1-1.1-.6-1.1-.6,0,0-.7.6-1.2.5-.5-.1-1.3-.9-1.3-.9h0Z"/>
      <g>
        <ellipse class="st31" cx="324.8" cy="216.2" rx="1.4" ry="2"/>
        <ellipse class="st31" cx="324.9" cy="216.2" rx=".6" ry="1.8"/>
        <ellipse class="st8" cx="324.8" cy="213.9" rx=".9" ry=".9"/>
        <path class="st9" d="M326.1,213.6v.6h-2.5v-.6h.9v-1.3h-.6v-.6h.6v-.6h.6v.6h.6v.6h-.6v1.3h1"/>
        <path class="st31" d="M325.1,213.1c.5.1.8.6.6,1.1-.2.5-.7.7-1.2.6s-.8-.6-.6-1.1c0-.3.3-.5.7-.6"/>
      </g>
      <g>
        <path class="st17" d="M314.4,220c-.1-.3-.2-.7-.2-1.1,0-1.6,1.3-2.9,2.8-2.9s1,.1,1.4.4"/>
        <path class="st31" d="M319.5,217.9c-.1-.3-.3-.5-.3-.8,0-1.1,1.2-2.1,2.6-2.1s1.2.2,1.6.4M330.2,218c.1-.3.2-.6.2-.9,0-1.1-1.2-2.1-2.6-2.1s-1.2.2-1.6.4"/>
        <path class="st17" d="M335.2,220c.1-.3.2-.7.2-1.1,0-1.6-1.3-2.9-2.8-2.9s-1,.1-1.4.4"/>
        <ellipse class="st13" cx="313.6" cy="218.7" rx=".5" ry=".4"/>
        <ellipse class="st13" cx="313.7" cy="217.1" rx=".5" ry=".4"/>
        <ellipse class="st13" cx="314.8" cy="215.9" rx=".5" ry=".4"/>
        <ellipse class="st13" cx="316.1" cy="215.2" rx=".5" ry=".4"/>
        <ellipse class="st13" cx="317.5" cy="215.3" rx=".5" ry=".4"/>
        <ellipse class="st13" cx="318.4" cy="217.1" rx=".5" ry=".4"/>
        <ellipse class="st13" cx="318.7" cy="215.6" rx=".5" ry=".4"/>
        <ellipse class="st13" cx="319.8" cy="214.6" rx=".5" ry=".4"/>
        <ellipse class="st13" cx="321.2" cy="214.2" rx=".5" ry=".4"/>
        <ellipse class="st13" cx="322.7" cy="214.2" rx=".5" ry=".4"/>
        <ellipse class="st13" cx="326.9" cy="214.2" rx=".5" ry=".4"/>
        <ellipse class="st13" cx="328.4" cy="214.2" rx=".5" ry=".4"/>
        <ellipse class="st13" cx="329.8" cy="214.6" rx=".5" ry=".4"/>
        <ellipse class="st13" cx="330.9" cy="215.6" rx=".5" ry=".4"/>
        <ellipse class="st13" cx="331.2" cy="217.1" rx=".5" ry=".4"/>
        <ellipse class="st13" cx="332.1" cy="215.3" rx=".5" ry=".4"/>
        <ellipse class="st13" cx="333.5" cy="215.2" rx=".5" ry=".4"/>
        <ellipse class="st13" cx="334.9" cy="215.9" rx=".5" ry=".4"/>
        <ellipse class="st13" cx="335.9" cy="217.1" rx=".5" ry=".4"/>
        <ellipse class="st13" cx="336" cy="218.7" rx=".5" ry=".4"/>
      </g>
      <g id="a1" data-name="a">
        <path class="st31" d="M317.8,224.2c-.2-.6-.6-1.1-.6-1.1,1.9-.6,4.7-.9,7.7-.9,3,0,5.8.4,7.7.9,0,0-.2.4-.5.9-.2.3-.4.8-.4.8-1.8-.5-4-.8-6.8-.8-2.8,0-5.5.4-6.9.9,0,0-.1-.3-.2-.7h0"/>
        <path class="st31" d="M324.8,226.7c2.4,0,5.1-.4,6.1-.6.7-.2,1.1-.5,1-.8,0-.2-.2-.3-.4-.4-1.5-.5-4.1-.8-6.7-.8s-5.3.3-6.7.8c-.2,0-.3.2-.4.4,0,.4.3.6,1,.8,1,.2,3.7.6,6.1.6ZM332.6,222.1l-.6-.5s-.6.3-1.3.2c-.7-.1-.9-1-.9-1,0,0-.8.7-1.4.6-.6,0-1.1-.6-1.1-.6,0,0-.7.5-1.3.5-.6,0-1.2-.8-1.2-.8,0,0-.6.8-1.2.9-.6,0-1.1-.5-1.1-.5,0,0-.3.6-1.1.7s-1.5-.6-1.5-.6c0,0-.4.7-1,.9-.5.2-1.2-.3-1.2-.3,0,0-.1.3-.2.4s-.3.2-.3.2l.2.5c1.9-.6,4.6-.9,7.5-.9s5.7.4,7.6.9l.2-.5h0,0Z"/>
        <path class="st31" d="M324.9,219.5h.3c0,.2,0,.3,0,.4,0,.6.5,1.1,1.1,1.1s.9-.3,1.1-.7c0,0,.1-.4.1-.4s0,.4,0,.4c0,.5.6.9,1.1.9s1.1-.5,1.1-1.1,0,0,0-.1l.4-.4.2.4c0,.1-.1.3-.1.5,0,.6.5,1,1.1,1s.7-.2.9-.4l.2-.3v.4c0,.3.1.7.5.7,0,0,.4,0,.9-.4.5-.4.8-.8.8-.8v.4s-.5.8-.9,1.1c-.2.1-.6.3-.9.2-.3,0-.6-.3-.7-.6-.2.1-.5.2-.8.2-.6,0-1.2-.4-1.4-.9-.3.3-.7.5-1.2.5s-1-.2-1.3-.6c-.3.3-.7.4-1.1.4s-1.1-.3-1.3-.7c-.3.4-.8.7-1.3.7s-.8-.2-1.1-.4c-.3.4-.8.6-1.2.6s-.9-.2-1.2-.5c-.2.5-.8.9-1.4.9s-.6,0-.8-.2c-.1.3-.4.6-.7.6-.3,0-.7-.1-.9-.2-.5-.3-1-1.1-1-1.1v-.4c0,0,.4.3.9.8s.9.4.9.4c.3,0,.5-.4.5-.7v-.4l.2.3c.2.3.5.4.9.4.6,0,1.1-.4,1.1-1,0-.2,0-.3-.1-.5l.2-.4.4.4s0,0,0,.1c0,.6.5,1.1,1.1,1.1s1-.4,1.1-.9c0,0,0-.4,0-.4,0,0,.1.4.2.4.1.4.6.7,1.1.7s1.1-.5,1.1-1.1,0-.3,0-.4h.3c0,0,0,0,0,0h0Z"/>
        <path class="st35" d="M324.8,222.2c-3,0-5.7.4-7.7.9-.1,0-.3,0-.3-.2,0-.1,0-.3.2-.3,1.9-.6,4.7-1,7.8-1s5.9.4,7.8,1c.1,0,.2.2.2.3,0,.1-.2.2-.3.2-1.9-.6-4.7-.9-7.7-.9Z"/>
        <path class="st31" d="M314.6,221s-.4-.5-.6-.7c-.2-.2-.7-.3-.7-.3,0,0,.3-.3.6-.3s.4,0,.4.2v-.2s.3,0,.4.3c.1.3,0,.7,0,.7,0,0,0,.2-.1.3h0ZM316.5,220.2v.7c-.1,0-1.5.1-1.5.1h-.2c0-.1,0-.3,0-.3l1.1-.9.6.4"/>
        <path class="st31" d="M314.6,220.8c.1-.1.4,0,.5,0,.2.1.2.4.1.5-.1.1-.4.1-.5,0-.2-.1-.2-.4-.1-.5ZM317.2,220.9c0-.2,0-.4.1-.4.1,0,.3,0,.4.3,0,.2,0,.4-.1.4-.1,0-.3,0-.4-.3ZM317.8,220l.5.5,1.2-.7v-.2c0,0,0-.2,0-.2h-1.4c0-.1-.2.6-.2.6"/>
        <path class="st31" d="M319.2,217.8l-.7.6.9,1.1h.2c0,0,.2,0,.2,0l.3-1.4-.9-.3"/>
        <path class="st31" d="M321.5,219.3l-.3.6h-1.4c0-.1-.2-.3-.2-.3v-.2c.1,0,1.3-.6,1.3-.6l.5.5"/>
        <ellipse class="st31" cx="319.7" cy="219.6" rx=".5" ry=".5"/>
        <path class="st31" d="M322,219.9c0-.2,0-.4.2-.4s.3.1.3.3c0,.2,0,.4-.2.4-.1,0-.3-.1-.3-.3ZM322.9,219.2l.4.6,1.3-.4v-.2c.1,0,0-.2,0-.2l-1.3-.4-.4.6"/>
        <path class="st31" d="M324.8,217.1l-.9.5.6,1.4h.2c0,.1.2,0,.2,0l.6-1.4-.9-.5"/>
        <path class="st31" d="M326.7,219.2l-.4.6-1.3-.4v-.2c-.1,0,0-.2,0-.2l1.3-.4.4.6"/>
        <ellipse class="st31" cx="324.8" cy="219.2" rx=".5" ry=".5"/>
        <path class="st31" d="M327.7,219.9c0-.2,0-.4-.2-.4s-.3.1-.3.3c0,.2,0,.4.2.4.1,0,.3-.1.3-.3ZM328.2,219.3l.3.6h1.4c0-.1.2-.3.2-.3v-.2c-.1,0-1.3-.6-1.3-.6l-.5.5"/>
        <path class="st31" d="M330.4,217.8l.7.6-.9,1.1h-.2c0,0-.2,0-.2,0l-.3-1.4.9-.3"/>
        <path class="st31" d="M331.8,220l-.5.5-1.2-.7v-.2c-.1,0,0-.2,0-.2h1.4c0-.1.2.6.2.6"/>
        <ellipse class="st31" cx="330" cy="219.6" rx=".5" ry=".5"/>
        <path class="st31" d="M332.5,220.9c0-.2,0-.4-.1-.4-.1,0-.3,0-.4.3,0,.2,0,.4.1.4.1,0,.3,0,.4-.3ZM334.9,221s.4-.5.7-.7c.2-.2.7-.3.7-.3,0,0-.3-.3-.6-.3s-.4,0-.4.2v-.2s-.3,0-.4.3c-.1.3,0,.7,0,.7,0,0,0,.2.1.3h0ZM333,220.2v.7c.1,0,1.5.1,1.5.1h.2c0-.1,0-.3,0-.3l-1.1-.9-.6.4"/>
        <path class="st31" d="M334.9,220.8c-.1-.1-.4,0-.5,0s-.2.4-.1.5c.1.1.4.1.5,0,.2-.1.2-.4.1-.5Z"/>
      </g>
      <g id="b1" data-name="b">
        <path class="st31" d="M317.2,224.3l.3-.5h.6c0,.1-.4.7-.4.7l-.6-.2"/>
        <path class="st31" d="M149.2,0"/>
        <ellipse class="st31" cx="322.4" cy="223.3" rx=".4" ry=".4"/>
        <path class="st31" d="M324.9,223.5h-1c-.2,0-.3-.1-.3-.3s.1-.3.3-.3h2c.2,0,.3.1.3.3s-.1.3-.3.3h-1"/>
        <ellipse class="st31" cx="327.3" cy="223.3" rx=".4" ry=".4"/>
        <path class="st31" d="M149.2,0"/>
        <path class="st31" d="M332.4,224.3l-.2-.5h-.7c0,0,.3.6.3.6h.6"/>
        <path class="st35" d="M324.8,226.2c-2.4,0-4.6-.2-6.3-.6,1.7-.4,3.9-.7,6.3-.7,2.4,0,4.6.3,6.3.7-1.7.4-3.9.6-6.3.6Z"/>
        <path class="st14" d="M326,226.1v-1.2M325.4,226.1v-1.2M325,226.1v-1.3"/>
        <path class="st24" d="M324.6,226.1v-1.3"/>
        <path class="st16" d="M324.3,226.1v-1.3"/>
        <path class="st43" d="M323.9,226.1v-1.3M323.6,226.1v-1.3"/>
        <path class="st19" d="M323.3,226.1v-1.3"/>
        <path class="st39" d="M322.8,226.1v-1.1M323,226.1v-1.2"/>
        <path class="st25" d="M322.3,226v-1.1M322.5,226.1v-1.1"/>
        <path class="st18" d="M321.6,226v-.9M321.8,226v-1M322,226v-1"/>
        <path class="st4" d="M321.4,226v-.9"/>
        <path class="st27" d="M321.1,225.9v-.9"/>
        <path class="st29" d="M320.9,225.9v-.8"/>
        <path class="st20" d="M320.4,225.8v-.6M320.7,225.9v-.7M320.2,225.8v-.6"/>
        <path class="st34" d="M319.9,225.7v-.5"/>
        <path class="st23" d="M319.7,225.7v-.4"/>
        <path class="st2" d="M319.4,225.6v-.3"/>
        <path class="st11" d="M319.2,225.6h0"/>
      </g>
    </g>
    <g id="c1" data-name="c">
      <g>
        <path class="st10" d="M340.4,330.7c-1.5,0-2.9-.3-3.9-.9-1-.5-2.4-.8-3.9-.8s-2.9.3-3.9.8c-1,.5-2.4.9-3.9.9s-2.9-.4-3.9-.9c-1-.5-2.3-.8-3.8-.8s-2.9.3-3.9.8c-1,.5-2.4.9-3.9.9v2.4c1.5,0,2.9-.4,3.9-.9,1-.5,2.3-.8,3.9-.8s2.8.3,3.8.8c1,.5,2.4.9,3.9.9s2.9-.3,3.9-.9c1-.5,2.4-.8,3.9-.8s2.9.3,3.9.8c1,.5,2.4.9,3.9.9v-2.4s0,0,0,0Z"/>
        <path class="st10" d="M340.4,333.1c-1.5,0-2.9-.3-3.9-.9-1-.5-2.4-.8-3.9-.8s-2.9.3-3.9.8c-1,.5-2.4.9-3.9.9s-2.9-.4-3.9-.9c-1-.5-2.3-.8-3.8-.8s-2.9.3-3.9.8c-1,.5-2.4.9-3.9.9v2.4c1.5,0,2.9-.4,3.9-.9,1-.5,2.3-.8,3.9-.8s2.8.3,3.8.8c1,.5,2.4.9,3.9.9s2.9-.3,3.9-.9,2.4-.8,3.9-.8,2.9.3,3.9.8c1,.5,2.4.9,3.9.9v-2.4"/>
        <path class="st10" d="M340.4,335.5c-1.5,0-2.9-.3-3.9-.9-1-.5-2.4-.8-3.9-.8s-2.9.3-3.9.8-2.4.9-3.9.9-2.9-.4-3.9-.9c-1-.5-2.3-.8-3.8-.8s-2.9.3-3.9.8c-1,.5-2.4.9-3.9.9v2.4c1.5,0,2.9-.3,3.9-.9,1-.5,2.3-.8,3.9-.8s2.8.3,3.8.8c1,.5,2.4.9,3.9.9s2.9-.3,3.9-.9c1-.5,2.4-.8,3.9-.8s2.9.3,3.9.8c1,.5,2.4.9,3.9.9v-2.4"/>
        <path class="st10" d="M340.4,340.3c-1.5,0-2.9-.3-3.9-.9-1-.5-2.4-.8-3.9-.8s-2.9.3-3.9.8-2.4.9-3.9.9-2.9-.4-3.9-.9c-1-.5-2.3-.8-3.8-.8s-2.9.3-3.9.8c-1,.5-2.4.9-3.9.9v-2.4c1.5,0,2.9-.4,3.9-.9,1-.5,2.3-.8,3.9-.8s2.8.3,3.8.8c1,.5,2.4.9,3.9.9s2.9-.3,3.9-.9c1-.5,2.4-.8,3.9-.8s2.9.3,3.9.8c1,.5,2.4.9,3.9.9v2.4"/>
        <path class="st10" d="M340.4,342.7c-1.5,0-2.9-.3-3.9-.9-1-.5-2.4-.8-3.9-.8s-2.9.3-3.9.8-2.4.9-3.9.9-2.9-.4-3.9-.9c-1-.5-2.3-.8-3.8-.8s-2.9.3-3.9.8c-1,.5-2.4.9-3.9.9v-2.4c1.5,0,2.9-.4,3.9-.9,1-.5,2.3-.8,3.9-.8s2.8.3,3.8.8c1,.5,2.4.9,3.9.9s2.9-.3,3.9-.9,2.4-.8,3.9-.8,2.9.3,3.9.8c1,.5,2.4.9,3.9.9v2.4s0,0,0,0Z"/>
      </g>
      <g>
        <path class="st6" d="M316.1,320.8c0,.2.1.4.1.6,0,1.5-1.3,2.6-2.8,2.6h22.9c-1.6,0-2.8-1.2-2.8-2.6s0-.4,0-.6c-.1,0-.3,0-.4,0h-16.7c-.1,0-.3,0-.4,0Z"/>
        <path class="st10" d="M316.5,319.3h16.7c.6,0,1,.4,1,.8s-.4.8-1,.8h-16.7c-.6,0-1-.4-1-.8s.5-.8,1-.8ZM313.4,329.9h22.9v-5.8h-22.9v5.8Z"/>
      </g>
      <path class="st10" d="M316.7,318.3h16.2v-79.6h-16.2v79.6Z"/>
      <path class="st10" d="M328.3,238.8v79.5M330.1,238.8v79.5"/>
      <g>
        <path class="st10" d="M313.8,232.4h22.3v-5.8h-22.3v5.8h0Z"/>
        <path class="st10" d="M149.2,0"/>
        <path class="st10" d="M316.5,236.2h16.7c.6,0,1,.4,1,.8s-.4.8-1,.8h-16.7c-.6,0-1-.4-1-.8s.5-.8,1-.8ZM316.5,232.4h16.7c.6,0,1,.3,1,.7s-.5.7-1,.7h-16.7c-.6,0-1-.3-1-.7s.5-.7,1-.7Z"/>
      </g>
    </g>
    <g id="d1" data-name="d">
      <path class="st10" d="M338.1,298.6c2.3,1.3,3.8,2.6,3.6,3.3-.1.6-.8,1.1-1.9,1.8-1.6,1.1-2.6,3.1-1.8,4.1-1.3-1.1-2.2-2.7-2.2-4.5s.9-3.6,2.3-4.6Z"/>
      <path class="st6" d="M300.2,268.5c3.5-1.5,9.6-2.5,16.5-2.8,2.4,0,5,.2,7.8.7,9.7,1.6,17.1,5.5,16.5,8.7,0,0,0,.2,0,.3,0,0,3.6-8.2,3.7-8.5.6-3.5-7.6-7.8-18.4-9.6-3.4-.6-6.7-.8-9.6-.8-6.9,0-12.9.9-16.5,2.2v9.8"/>
      <path class="st10" d="M333.1,278.5c4.5-.3,7.6-1.5,7.9-3.4.3-1.5-1.2-3.2-4-4.7-1.2.1-2.6.3-4,.3v7.8M316.7,272.4c-2.8.4-4.9,1.1-6,2v.2c-.6,1,1.9,3.2,6,5.7v-7.8"/>
      <path class="st6" d="M343.2,293.8c.4-1.3-4-3.9-10.2-6.1-2.8-1-5.2-2.1-8.1-3.4-8.6-3.8-15-8.2-14.2-9.8v-.2c-.4.4-1.1,8.2-1.1,8.2-.8,1.5,5.1,5.8,13,9.6,2.5,1.2,7.9,3.2,10.4,4.1,4.5,1.6,9,4.5,8.6,5.6l1.5-8.1h0s0,0,0,0Z"/>
    </g>
    <path d="M166.4,264.6c2-.7,3.3-1.6,2.7-3.1-.4-1-1.4-1.2-3-.6l-2.7,1,2.4,6c.3-.1.5-.2.8-.3.3-.1.6-.2.9-.3l-1.1-2.6h0s0,0,0,0ZM165.2,261.7l.7-.2c.6-.2,1.2.1,1.5.8.2.5.2,1.1-.5,1.5-.2.1-.5.2-.7.3l-1-2.4M172.8,259.2c-.3,0-.6.2-.9.2-.3,0-.6,0-.9.1l1.4,6.3,4.4-.9c0-.1-.1-.3-.1-.4,0-.1,0-.3,0-.4-.8.2-1.6.5-2.6.7l-1.3-5.6M181.6,264.6c.8-2.3,1.8-4.5,2.8-6.7-.2,0-.4,0-.5,0s-.4,0-.5,0c-.5,1.6-1.2,3.2-1.9,4.8-.8-1.5-1.7-3-2.4-4.5-.3,0-.7,0-1,.1-.3,0-.7,0-1,0,1.3,2.1,2.5,4.1,3.6,6.2.2,0,.3,0,.5,0,.2,0,.3,0,.5,0M190.7,259.8c.1-.3.3-.6.5-.9-.2-.2-1-.5-1.8-.6-1.8-.2-2.8.6-2.9,1.7-.3,2.3,3.3,2.1,3.1,3.6,0,.6-.8.9-1.5.8-.8,0-1.4-.5-1.5-1.2h-.2c-.1.4-.3.8-.5,1.1.5.3,1.2.5,1.9.6,1.8.2,3.2-.5,3.4-1.7.2-2.1-3.4-2.3-3.2-3.5,0-.5.5-.9,1.4-.8.7,0,1.1.4,1.3,1h.2M310.3,265c.6-2.3,1.4-4.6,2.2-6.9-.2,0-.4,0-.5.1-.2,0-.4,0-.5,0-.4,1.6-.9,3.3-1.4,4.9-1-1.4-2-2.8-2.8-4.3-.3,0-.7.1-1,.2s-.7,0-1,.1c1.5,1.9,2.9,3.9,4.2,5.9.2,0,.3-.1.5-.1.2,0,.3,0,.5,0M316.5,258.2c-.3,0-.6,0-.9,0-.3,0-.6,0-.9,0v6.4c-.1,0,4.4,0,4.4,0,0-.1,0-.3,0-.4s0-.3,0-.4c-.8,0-1.7.1-2.7,0v-5.7M323.5,259.2c.7,0,1.4.2,2.1.3,0-.1,0-.3,0-.4,0-.1,0-.3.1-.4l-6.1-.5c0,.1,0,.3,0,.4,0,.1,0,.3-.1.4.6,0,1.4,0,2.2,0l-.5,5.8c.3,0,.6,0,.9,0,.3,0,.6,0,.9.1l.5-5.8M326,265.5c.3,0,.6,0,.9.1.3,0,.6.1.9.2l.7-2.9h0c.2.4.4.9.5,1.2l.9,2.2c.4,0,.7.1,1,.2.4,0,.7.2,1,.3l-.3-.7c-.5-1-1-2-1.4-3,1.1,0,2-.4,2.2-1.3.1-.6-.1-1.1-.7-1.5-.4-.3-1.3-.5-1.8-.6l-2.4-.5-1.5,6.3M329.2,260.1c.7.2,1.6.3,1.6,1.1,0,.2,0,.4,0,.5-.2.9-.9,1.3-2.1.9l.6-2.5M337.6,267.5c0,.7-.2,1.4-.3,2.1.3.1.6.3.9.4.3.2.6.3.9.5l.6-7.2c-.1,0-.3-.1-.4-.2-.1,0-.2-.1-.4-.2l-6.4,4c.2,0,.4.2.5.2.2,0,.3.2.5.3.5-.5,1.1-.8,1.7-1.3l2.4,1.3h0ZM335.8,265.8l2.1-1.4-.2,2.4-1.9-1"/>
    <path class="st31" d="M249.6,182.7c6.6,0,12.6,1,16.4,2.5,2.2,1,5.2,1.7,8.4,2.2,2.5.3,4.8.4,6.9.2,2.7,0,6.7.7,10.6,2.5,3.3,1.4,6,3.2,7.8,4.9l-1.6,1.4-.5,4-4.3,4.9-2.1,1.8-5.1,4.1-2.6.2-.8,2.2-32.9-3.9-33,3.9-.8-2.2-2.6-.2-5.1-4.1-2.1-1.8-4.3-4.9-.4-4-1.6-1.4c1.8-1.7,4.5-3.5,7.8-4.9,3.9-1.7,7.9-2.5,10.6-2.5,2,.1,4.4,0,6.9-.2,3.2-.4,6.2-1.2,8.4-2.2,3.9-1.5,9.4-2.5,16.1-2.5h0Z"/>
    <g>
      <path class="st10" d="M225.3,191.4l1.4,1.1,2.1-3.4c-2.2-1.4-3.8-3.8-3.8-6.5s0-.6,0-.9c.2-4.3,5.5-7.9,12.2-7.9s6.6.9,8.8,2.5c0-.7.1-1.2.2-1.9-2.4-1.4-5.6-2.3-9.1-2.3-7.7,0-13.7,4.4-14,9.6,0,.3,0,.6,0,.9,0,2.8,1.3,5.3,3.3,7l-1.1,1.8"/>
      <path class="st10" d="M225.4,191.5c-2.6-2-4.3-4.6-4.3-7.6s2.2-6.4,5.6-8.4c-2.1,1.7-3.3,3.8-3.5,6.2,0,.3,0,.6,0,.9,0,2.8,1.3,5.3,3.3,7l-1,1.9"/>
      <path class="st10" d="M202.2,194.9c-1.5-1.6-2.4-3.8-2.4-6.1s.3-2.8.9-3.9c2.1-4.4,8.8-7.6,16.8-7.6s4.2.2,6.1.7c-.4.5-.8,1-1.1,1.5-1.6-.3-3.3-.5-5.1-.5-7.3,0-13.4,2.8-15.1,6.6-.5,1-.7,2.1-.7,3.2,0,2.3,1.1,4.4,2.8,5.8l-2.6,4.3-1.4-1.1,1.8-2.9h0Z"/>
      <path class="st10" d="M204.9,180.5c-1.9,1.2-3.4,2.7-4.2,4.3-.6,1.2-.9,2.5-.9,3.9,0,2.3.9,4.5,2.4,6.1l-1.6,2.6c-1.5-2-2.4-4.3-2.4-6.7,0-4.2,2.7-7.9,6.7-10.3h0ZM250,171.3c1.8,0,3.3,1.2,3.6,2.7.2,1.4.4,2.9.4,4.6,0,.2,0,.4,0,.5s0,.4,0,.6c0,3.5.6,6.6,1.3,8.5l-5.4,5.1-5.4-5.1c.7-1.9,1.2-5,1.3-8.5,0-.2,0-.4,0-.6s0-.3,0-.5c0-1.7.2-3.2.4-4.6.4-1.6,1.9-2.7,3.7-2.7h0Z"/>
      <path class="st10" d="M250,172.9c.9,0,1.7.6,1.9,1.4.2,1.3.4,2.8.4,4.4,0,.2,0,.3,0,.5s0,.4,0,.6c0,3.3.5,6.2,1.2,8.1l-3.5,3.4-3.5-3.4c.7-1.8,1.1-4.7,1.2-8.1,0-.2,0-.4,0-.6s0-.3,0-.5c0-1.6.2-3.1.4-4.4.2-.8,1-1.4,1.9-1.4ZM274.7,191.4l-1.4,1.1-2.1-3.4c2.3-1.4,3.8-3.8,3.8-6.5s0-.6,0-.9c-.2-4.3-5.5-7.9-12.2-7.9s-6.6.9-8.8,2.5c0-.7-.1-1.2-.2-1.9,2.4-1.4,5.6-2.3,9.1-2.3,7.7,0,13.7,4.4,14,9.6,0,.3,0,.6,0,.9,0,2.8-1.3,5.3-3.3,7l1.1,1.8"/>
      <path class="st10" d="M274.6,191.5c2.6-2,4.3-4.6,4.3-7.6s-2.2-6.4-5.6-8.4c2.1,1.7,3.3,3.8,3.5,6.2,0,.3,0,.6,0,.9,0,2.8-1.3,5.3-3.3,7l1,1.9"/>
      <path class="st10" d="M297.8,194.9c1.5-1.6,2.4-3.8,2.4-6.1s-.3-2.8-.9-3.9c-2.1-4.4-8.8-7.6-16.8-7.6s-4.2.2-6.1.7c.4.5.8,1,1.1,1.5,1.6-.3,3.3-.5,5.1-.5,7.3,0,13.4,2.8,15.1,6.6.5,1,.7,2.1.7,3.2,0,2.3-1.1,4.4-2.8,5.8l2.6,4.3,1.4-1.1-1.8-2.9Z"/>
      <path class="st10" d="M295.1,180.5c1.9,1.2,3.4,2.7,4.2,4.3.6,1.2.9,2.5.9,3.9,0,2.3-.9,4.5-2.4,6.1l1.6,2.6c1.5-2,2.4-4.3,2.4-6.7,0-4.2-2.7-7.9-6.7-10.3h0Z"/>
      <ellipse class="st31" cx="250.1" cy="167.3" rx="4.4" ry="4.2"/>
      <path class="st31" d="M248.9,155.5v2.3h-2.4v2.3h2.4v6.6h-3.1c0,.2-.2.4-.2.6,0,.6.1,1.1.4,1.6,0,0,0,0,0,0h8.1s0,0,0,0c.2-.5.4-1.1.4-1.6s-.2-.4-.2-.6h-3v-6.6h2.4v-2.3h-2.4v-2.3h-2.4Z"/>
    </g>
    <g>
      <ellipse class="st10" cx="250" cy="188.9" rx="1.9" ry="1.8"/>
      <ellipse class="st10" cx="250" cy="185.4" rx="1.9" ry="1.8"/>
      <ellipse class="st10" cx="250" cy="181.6" rx="1.5" ry="1.4"/>
      <ellipse class="st10" cx="250" cy="178.2" rx="1.1" ry="1"/>
      <ellipse class="st10" cx="250" cy="175.2" rx=".9" ry=".8"/>
      <ellipse class="st10" cx="198.9" cy="198.7" rx="1.1" ry="1"/>
      <ellipse class="st10" cx="197.4" cy="196" rx="1.1" ry="1"/>
      <ellipse class="st10" cx="196.4" cy="192.9" rx="1.1" ry="1"/>
      <ellipse class="st10" cx="196.3" cy="189.6" rx="1.1" ry="1"/>
      <ellipse class="st10" cx="197.1" cy="186.4" rx="1.1" ry="1"/>
      <ellipse class="st10" cx="198.8" cy="183.4" rx="1.1" ry="1"/>
      <ellipse class="st10" cx="201.1" cy="181" rx="1.1" ry="1"/>
      <ellipse class="st10" cx="203.7" cy="179" rx="1.1" ry="1"/>
      <ellipse class="st10" cx="206.8" cy="177.4" rx="1.1" ry="1"/>
      <ellipse class="st10" cx="210" cy="176.2" rx="1.1" ry="1"/>
      <ellipse class="st10" cx="213.7" cy="175.5" rx="1.1" ry="1"/>
      <ellipse class="st10" cx="217.1" cy="175.4" rx="1.1" ry="1"/>
      <ellipse class="st10" cx="220.5" cy="175.5" rx="1.1" ry="1"/>
      <ellipse class="st10" cx="224.2" cy="190.3" rx="1.1" ry="1"/>
      <ellipse class="st10" cx="222.3" cy="187.6" rx="1.1" ry="1"/>
      <ellipse class="st10" cx="221.4" cy="184.8" rx="1.1" ry="1"/>
      <ellipse class="st10" cx="221.5" cy="181.6" rx="1.1" ry="1"/>
      <ellipse class="st10" cx="222.2" cy="178.4" rx="1.1" ry="1"/>
      <ellipse class="st10" cx="223.8" cy="175.5" rx="1.1" ry="1"/>
      <ellipse class="st10" cx="226.4" cy="173.5" rx="1.1" ry="1"/>
      <ellipse class="st10" cx="229.4" cy="171.8" rx="1.1" ry="1"/>
      <ellipse class="st10" cx="232.7" cy="170.8" rx="1.1" ry="1"/>
      <ellipse class="st10" cx="236.1" cy="170.2" rx="1.1" ry="1"/>
      <ellipse class="st10" cx="239.5" cy="170.3" rx="1.1" ry="1"/>
      <ellipse class="st10" cx="243" cy="170.9" rx="1.1" ry="1"/>
      <ellipse class="st10" cx="246.2" cy="172" rx="1.1" ry="1"/>
      <ellipse class="st10" cx="253.8" cy="172" rx="1.1" ry="1"/>
      <ellipse class="st10" cx="257" cy="170.9" rx="1.1" ry="1"/>
      <ellipse class="st10" cx="260.5" cy="170.3" rx="1.1" ry="1"/>
      <ellipse class="st10" cx="263.9" cy="170.2" rx="1.1" ry="1"/>
      <ellipse class="st10" cx="267.3" cy="170.8" rx="1.1" ry="1"/>
      <ellipse class="st10" cx="270.6" cy="171.8" rx="1.1" ry="1"/>
      <ellipse class="st10" cx="273.6" cy="173.5" rx="1.1" ry="1"/>
      <ellipse class="st10" cx="276.2" cy="175.5" rx="1.1" ry="1"/>
      <ellipse class="st10" cx="277.9" cy="178.4" rx="1.1" ry="1"/>
      <ellipse class="st10" cx="278.6" cy="181.6" rx="1.1" ry="1"/>
      <ellipse class="st10" cx="278.7" cy="184.8" rx="1.1" ry="1"/>
      <ellipse class="st10" cx="277.7" cy="187.6" rx="1.1" ry="1"/>
      <ellipse class="st10" cx="275.8" cy="190.3" rx="1.1" ry="1"/>
      <ellipse class="st10" cx="279.6" cy="175.5" rx="1.1" ry="1"/>
      <ellipse class="st10" cx="282.9" cy="175.4" rx="1.1" ry="1"/>
      <ellipse class="st10" cx="286.4" cy="175.5" rx="1.1" ry="1"/>
      <ellipse class="st10" cx="290" cy="176.2" rx="1.1" ry="1"/>
      <ellipse class="st10" cx="293.2" cy="177.4" rx="1.1" ry="1"/>
      <ellipse class="st10" cx="296.4" cy="179" rx="1.1" ry="1"/>
      <ellipse class="st10" cx="299" cy="181" rx="1.1" ry="1"/>
      <ellipse class="st10" cx="301.2" cy="183.4" rx="1.1" ry="1"/>
      <ellipse class="st10" cx="302.9" cy="186.4" rx="1.1" ry="1"/>
      <ellipse class="st10" cx="303.7" cy="189.6" rx="1.1" ry="1"/>
      <ellipse class="st10" cx="303.6" cy="192.9" rx="1.1" ry="1"/>
      <ellipse class="st10" cx="302.6" cy="196" rx="1.1" ry="1"/>
      <ellipse class="st10" cx="301.1" cy="198.7" rx="1.1" ry="1"/>
    </g>
    <g>
      <path class="st10" d="M250.1,226.2c-12.3,0-23.2-1.5-31.1-3.8-.6-.2-.9-.7-.8-1.2,0-.5.3-1,.8-1.2,7.8-2.4,18.8-3.8,31.1-3.8,12.3,0,23.2,1.5,31.1,3.8.5.2.8.6.8,1.2,0,.6-.3,1.1-.8,1.2-7.8,2.4-18.8,3.8-31.1,3.8"/>
      <path class="st10" d="M250.1,216.1c-12.4,0-23.6,1.6-31.4,4,.6-.3.6-1.1-.2-3.2-1-2.5-2.5-2.4-2.5-2.4,8.7-2.6,20.7-4.2,34.2-4.2,13.4,0,25.6,1.6,34.3,4.2,0,0-1.5-.1-2.5,2.4-.8,2.1-.9,2.9-.2,3.2-7.8-2.4-19.2-4-31.6-4"/>
      <path class="st10" d="M250.1,210.3c-13.4,0-25.5,1.6-34.2,4.2-.6.2-1.2,0-1.4-.6s.1-1.2.7-1.4c8.7-2.7,21.1-4.4,34.8-4.4,13.8,0,26.2,1.7,34.9,4.4.6.2.9.8.7,1.4s-.8.8-1.4.6c-8.7-2.6-20.8-4.2-34.2-4.2"/>
      <path class="st10" d="M250.2,199.8l1.2.2c-.2.5-.2,1.1-.2,1.6,0,2.6,2.2,4.6,4.9,4.6s4-1.4,4.7-3.2c0,0,.5-1.7.7-1.7.2,0,.1,1.8.2,1.8.3,2.3,2.5,3.9,4.9,3.9s4.9-2.1,4.9-4.6,0-.4,0-.6l1.5-1.5.8,1.9c-.3.6-.5,1.3-.5,2,0,2.5,2.1,4.4,4.7,4.4s3.1-.8,3.9-2l1-1.2v1.5c0,1.6.6,2.9,2.1,3.2,0,0,1.7.1,4-1.7,2.3-1.8,3.5-3.3,3.5-3.3l.2,1.8s-1.9,2.9-4,4.1c-1.1.7-2.9,1.4-4.2,1.1-1.4-.2-2.5-1.4-3-2.7-1,.6-2.2,1-3.5,1-2.8,0-5.3-1.5-6.3-3.9-1.3,1.4-3.1,2.2-5.2,2.2s-4.3-1-5.6-2.6c-1.3,1.2-3.1,1.9-4.9,1.9-2.5,0-4.7-1.2-5.9-3.1-1.2,1.8-3.5,3.1-5.9,3.1s-3.6-.7-4.9-1.9c-1.3,1.6-3.3,2.6-5.6,2.6s-3.9-.9-5.2-2.2c-1,2.3-3.5,3.9-6.3,3.9s-2.5-.4-3.6-1c-.5,1.3-1.6,2.5-3,2.7-1.4.2-3.1-.5-4.2-1.1-2.1-1.2-4-4.1-4-4.1l.2-1.8s1.3,1.5,3.6,3.3c2.3,1.8,4,1.7,4,1.7,1.5-.2,2.2-1.6,2.2-3.2v-1.5s1,1.2,1,1.2c.8,1.2,2.3,2,3.9,2,2.6,0,4.7-2,4.7-4.4s-.1-1.4-.5-2l.8-1.9,1.5,1.5c0,.2,0,.4,0,.6,0,2.6,2.2,4.6,4.9,4.6s4.6-1.6,4.9-3.9c0,0,0-1.8.2-1.8.2,0,.6,1.7.7,1.7.6,1.9,2.5,3.2,4.7,3.2s4.9-2.1,4.9-4.6,0-1.1-.2-1.6l1.3-.2"/>
      <path class="st10" d="M208.4,206.3c-.1-.4-.4-.8-.7-1.1-.8-.7-1.8-.8-2.4-.2,0,0-.1.2-.2.2,0,0-1.1-2.1-2.4-2.8-1.3-.7-3.5-.5-3.5-.5,0-1.6,1.3-2.9,3-2.9s1.9.4,2.5,1.1l.2-1.1s1.4.3,2,1.8,0,3.8,0,3.8c0,0,.3-1,.9-1.6.5-.6,1.8-1.3,2.5-1.7.7-.3,1.4-.8,1.4-.8,0,0,0,.2,0,.6,0,.5,0,.8,0,.8,1.2-.2,2.7,0,3.8.5-.5.9-1.4,1.8-2.6,2.3,0,0,.4.4.8.8s.4.5.4.5c0,0-.9.1-1.3.2-.4,0-1.8.3-2.7.2-.6,0-1.3-.1-1.7-.2"/>
      <path class="st10" d="M205.3,205c.5-.5,1.6-.4,2.4.2.8.7,1,1.7.5,2.2-.5.5-1.6.4-2.4-.2-.8-.7-1-1.7-.5-2.2"/>
      <path class="st10" d="M216.4,205.9c-.3-.8,0-1.6.6-1.8.6-.2,1.3.3,1.6,1.2s0,1.6-.6,1.8c-.6.2-1.3-.3-1.6-1.2"/>
      <path class="st10" d="M226.1,201.9c-.3-.3-.6-.6-.7-1.1s0-.9.2-1.2c0,0-.9-.4-1.8-.7-.7-.2-2-.2-2.4-.2-.4,0-1.1,0-1.1,0,0,0,0,.2.3.6.3.5.5.8.5.8-1.3.3-2.4,1.1-3,2.1,1,.7,2.3,1.1,3.6,1,0,0-.1.3-.2.9,0,.4,0,.6,0,.6,0,0,.7-.3,1.1-.4.4-.1,1.5-.6,2.1-1,.8-.5,1.5-1.2,1.5-1.2"/>
      <path class="st10" d="M225.7,191.6c1.1.7,2,1.8,2.3,3,0,0,.1-.2.7-.6.6-.3,1.1-.3,1.1-.3,0,0-.2,1-.2,1.3,0,.3,0,1.4-.3,2.3-.2.9-.6,1.7-.6,1.7-.4-.3-1-.5-1.6-.4-.6.1-1.1.4-1.3.9,0,0-.7-.6-1.2-1.4-.6-.8-.9-1.8-1.1-2.1-.2-.3-.7-1.1-.7-1.1,0,0,.5-.2,1.1,0,.7.1.9.3.9.3-.1-1.3.3-2.6,1-3.6"/>
      <path class="st10" d="M229,201.4c.5-.8.3-1.8-.4-2.3,0,0,.7-.7,1.5-1.3.6-.4,1.8-.8,2.1-.9.4-.1,1.1-.4,1.1-.4,0,0,0,.2,0,.6,0,.5-.2.9-.2.9,1.3-.1,2.6.3,3.6,1-.7,1-1.8,1.8-3,2.1,0,0,.2.3.5.7.2.4.3.6.3.6h-1.1c-.4,0-1.6,0-2.4-.2-.9-.2-1.8-.7-1.8-.7"/>
      <ellipse class="st10" cx="227.4" cy="200.4" rx="2.2" ry="2.1"/>
      <path class="st10" d="M237.8,201.8c-.1-.9.3-1.6.9-1.7.6,0,1.2.6,1.3,1.4.1.9-.3,1.6-.9,1.7-.6,0-1.2-.6-1.3-1.4"/>
      <path class="st10" d="M248.5,199.8c-.3-.4-.5-.8-.5-1.3s.2-1,.5-1.3c0,0-.9-.7-1.9-1.1-.8-.4-2.2-.6-2.6-.7l-1.3-.2s0,.2.2.7c.2.6.4.9.4.9-1.5,0-2.9.8-3.8,1.8,1,.9,2.3,1.7,3.8,1.8,0,0-.2.4-.4.9-.2.5-.2.7-.2.7l1.3-.2c.4,0,1.8-.3,2.6-.7,1-.5,1.9-1.1,1.9-1.1"/>
      <path class="st10" d="M250.1,188.4c1.1.9,1.9,2.4,1.9,3.8,0,0,.2-.3.9-.5.7-.3,1.3-.2,1.3-.2,0,0-.4,1.1-.6,1.4-.2.4-.4,1.5-.8,2.5-.4,1-1.1,1.8-1.1,1.8-.4-.4-1-.8-1.7-.8s-1.3.3-1.7.8c0,0-.6-.8-1.1-1.8-.4-1-.7-2.2-.8-2.5s-.6-1.4-.6-1.4c0,0,.6-.1,1.3.2s.9.5.9.5c.1-1.5.9-2.9,1.9-3.8"/>
      <path class="st10" d="M251.8,199.8c.3-.4.5-.8.5-1.3s-.2-1-.5-1.3c0,0,.9-.7,1.9-1.1.8-.4,2.2-.6,2.6-.7l1.3-.2s0,.2-.2.7c-.2.6-.4.9-.4.9,1.5,0,2.9.8,3.8,1.8-1,.9-2.3,1.7-3.8,1.8,0,0,.2.4.4.9.2.5.2.7.2.7l-1.3-.2c-.4,0-1.8-.3-2.6-.7-1-.5-1.9-1.1-1.9-1.1"/>
      <ellipse class="st10" cx="250.1" cy="198.5" rx="2.2" ry="2.1"/>
      <path class="st10" d="M262.6,201.8c.1-.9-.3-1.6-.9-1.7s-1.2.6-1.3,1.4c-.1.9.3,1.6.9,1.7.6,0,1.2-.6,1.3-1.4"/>
      <path class="st10" d="M271.4,201.4c-.2-.4-.3-.8-.2-1.2,0-.4.3-.8.7-1.1,0,0-.7-.7-1.5-1.3-.6-.4-1.8-.8-2.2-.9-.4-.1-1.1-.4-1.1-.4,0,0,0,.2,0,.6,0,.5.2.9.2.9-1.3-.1-2.6.3-3.6,1,.7,1,1.8,1.8,3,2.1,0,0-.2.3-.5.7-.2.4-.3.6-.3.6h1.1c.4,0,1.7,0,2.4-.2,1-.2,1.8-.7,1.8-.7"/>
      <path class="st10" d="M274.7,191.6c-1.1.7-2,1.8-2.3,3,0,0-.1-.2-.7-.6-.6-.3-1.1-.3-1.1-.3,0,0,.2,1,.3,1.3,0,.3,0,1.4.3,2.3.2.9.6,1.7.6,1.7.4-.3,1-.5,1.6-.4.6.1,1.1.4,1.3.9,0,0,.7-.6,1.2-1.4.5-.8.9-1.8,1.1-2.1.2-.3.7-1.1.7-1.1,0,0-.5-.2-1.1,0-.7.1-.9.3-.9.3.1-1.3-.3-2.6-1-3.6"/>
      <path class="st10" d="M274.2,201.9c.3-.3.6-.6.7-1.1,0-.4,0-.9-.2-1.2,0,0,.9-.4,1.8-.7.7-.2,2-.2,2.4-.2.4,0,1.1,0,1.1,0,0,0,0,.2-.3.6-.3.5-.5.8-.5.8,1.3.3,2.3,1.1,3,2.1-1,.7-2.3,1.1-3.6,1,0,0,.1.3.2.9,0,.4,0,.6,0,.6,0,0-.7-.3-1.1-.4-.4-.1-1.5-.6-2.2-1-.8-.5-1.5-1.2-1.5-1.2"/>
      <ellipse class="st10" cx="273" cy="200.4" rx="2.2" ry="2.1"/>
      <path class="st10" d="M284,205.9c.3-.8,0-1.6-.6-1.8-.6-.2-1.3.3-1.6,1.2-.3.8,0,1.6.6,1.8.6.2,1.3-.3,1.6-1.2"/>
      <path class="st10" d="M292,206.3c.1-.4.4-.8.7-1.1.8-.7,1.9-.8,2.4-.2,0,0,.1.2.2.2,0,0,1.1-2.1,2.4-2.8s3.5-.5,3.5-.5c0-1.6-1.3-2.9-3-2.9s-1.9.4-2.5,1.1l-.2-1.1s-1.4.3-2,1.8,0,3.8,0,3.8c0,0-.3-1-.8-1.6-.5-.6-1.8-1.3-2.5-1.7-.7-.3-1.4-.8-1.4-.8,0,0,0,.2,0,.6,0,.5,0,.8,0,.8-1.2-.2-2.7,0-3.8.5.5.9,1.4,1.8,2.6,2.3,0,0-.4.4-.8.8-.3.3-.4.5-.4.5,0,0,.9.1,1.3.2.4,0,1.8.3,2.7.2.6,0,1.3-.1,1.7-.2"/>
      <path class="st10" d="M295,205c-.5-.5-1.6-.4-2.4.2-.8.7-1,1.7-.5,2.2.5.5,1.6.4,2.4-.2.8-.7,1-1.7.5-2.2"/>
    </g>
    <g>
      <path class="st6" d="M250.1,224.6c-11.1,0-21.1-1.3-28.7-3.3,7.6-2,17.6-3.2,28.7-3.2,11.1,0,21.1,1.2,28.7,3.2-7.6,2-17.7,3.2-28.7,3.3h0Z"/>
      <path class="st19" d="M258,224.3v-6M255,224.5v-6.4M252.8,224.6v-6.5"/>
      <path class="st4" d="M250.9,224.6v-6.6"/>
      <path class="st23" d="M249.2,224.6v-6.6"/>
      <path class="st11" d="M247.5,224.6v-6.6"/>
      <path class="st41" d="M245.8,224.6v-6.6"/>
      <path class="st36" d="M244.3,224.6v-6.6"/>
      <path class="st37" d="M241.5,224.3v-6M242.8,224.4v-6.2"/>
      <path class="st42" d="M238.9,224v-5.5M240.2,224.2v-5.9"/>
      <path class="st15" d="M235.4,223.7v-4.8M236.5,223.8v-5.1M237.7,223.9v-5.3"/>
      <path class="st1" d="M234.1,223.7v-4.7"/>
      <path class="st26" d="M233,223.4v-4.4"/>
      <path class="st12" d="M231.7,223.3v-4.1"/>
      <path class="st3" d="M229.2,222.9v-3.2M230.5,223.1v-3.6"/>
      <path class="st22" d="M227.9,222.7v-2.8"/>
      <path class="st38" d="M226.7,222.4v-2.4"/>
      <path class="st5" d="M225.4,222.1v-1.9"/>
      <path class="st0" d="M224.1,222v-1.4"/>
      <path class="st32" d="M222.7,221.7v-.7"/>
      <path class="st10" d="M220.1,221.7c7.8-2.2,18.3-3.5,30-3.5,11.7,0,22.3,1.4,30.1,3.5"/>
      <path class="st10" d="M216.7,217.2l1.2-1.6,3.4.4-2.7,2-1.9-.8"/>
      <path class="st10" d="M224,215.3c0-.6.5-1,1.1-1s1.1.5,1.1,1-.5,1-1.1,1-1.1-.5-1.1-1"/>
      <path class="st10" d="M233.6,215.1l-2.4.3c-.6,0-1.2-.3-1.2-.9,0-.6.4-1.1,1-1.1l2.4-.3,2.4-.3c.6,0,1.1.3,1.2.9s-.4,1.1-1,1.2l-2.4.3"/>
      <path class="st10" d="M240.5,213.4c0-.6.5-1,1.1-1s1.1.5,1.1,1-.5,1-1.1,1-1.1-.5-1.1-1"/>
      <path class="st10" d="M250.1,214.2h-3.3c-.6,0-1.1-.5-1.1-1s.5-1,1.1-1h6.6c.6,0,1.1.5,1.1,1s-.5,1-1.1,1h-3.3"/>
      <path class="st10" d="M257.6,213.4c0-.6.5-1,1.1-1s1.1.5,1.1,1-.5,1-1.1,1-1.1-.5-1.1-1"/>
      <path class="st10" d="M266.7,215.1l2.4.3c.6,0,1.2-.3,1.2-.9s-.4-1.1-1-1.1l-2.4-.3-2.4-.3c-.6,0-1.1.3-1.2.9,0,.6.4,1.1,1,1.2l2.4.3"/>
      <path class="st10" d="M274.1,215.3c0-.6.5-1,1.1-1s1.1.5,1.1,1-.5,1-1.1,1-1.1-.5-1.1-1"/>
      <path class="st10" d="M283.6,217.2l-1.2-1.6-3.4.4,2.7,2,1.9-.8"/>
    </g>
    <g>
      <path class="st21" d="M250.5,344.3c-13.1,0-26.1-3.2-36.9-8.5-8-4-13.4-12-13.4-21.2v-33.3h100.4v33.3c0,9.2-5.3,17.2-13.4,21.2-10.9,5.3-23.7,8.5-36.8,8.5h0Z"/>
      <path class="st21" d="M252.9,329.5c2.1.6,3.1,2.2,3.1,4s-2.3,4.2-5.3,4.2-5.4-1.8-5.4-4.2,1-3.8,3.1-3.9c0,0,0-.2-.2-.5-.2-.2-.6-.7-.6-.7,0,0,.8-.1,1.2,0,.5.2.8.5.8.5,0,0,.2-.4.5-.8.3-.3.7-.5.7-.5,0,0,.5.4.6.6.1.3.2.6.2.6,0,0,.4-.4.8-.5.4-.1.8-.3.8-.3,0,0-.1.5-.2.7s-.1.7-.1.7"/>
      <path class="st21" d="M250.3,340.3s-4-2.7-5.7-3c-2.2-.5-4.7,0-5.8-.1,0,0,1.3.9,1.8,1.5s2.4,1.6,3.4,1.9c3.2.8,6.2-.2,6.2-.2M251.5,340.6s2.5-2.7,5.2-3c3.1-.4,5.2.3,6.4.6,0,0-1,.5-1.6.9-.5.4-2,1.6-4.1,1.6-2.2,0-4.6-.2-5-.2-.4,0-1,.1-1,.1"/>
      <path class="st21" d="M250.7,337.3c-1-.9-1.6-2.2-1.6-3.7s.6-2.8,1.6-3.7c2,1.9,2.2,5.1.2,7.2,0,0-.2.2-.3.2"/>
      <path class="st21" d="M249.7,342.7s.6-1.5.7-2.8c0-1.1-.1-2.2-.1-2.2h.8s.4,1.2.4,2.2-.2,2.4-.2,2.4c0,0-.6,0-.7.2-.2,0-.8.3-.8.3"/>
      <g>
        <path class="st21" d="M250.3,314.6c0,13.2-11.2,23.8-25.1,23.8s-25.1-10.7-25.1-23.8v-33.4h50.2v33.4"/>
        <path class="st21" d="M200,314.1c.1,7,2.9,12.2,5.7,15.7v-49.5h-5.7v33.8q0,0,0,0ZM211.1,334.2c1.6.8,3.7,2.2,6,2.8v-57h-6v54.2ZM222.3,338.2c2.3.2,4,.2,5.9,0v-58.2h-5.9v58.2ZM233.3,337c2.3-.5,4.9-1.9,6-2.6v-54.3h-5.9v57ZM244.8,329.2c2.4-2.2,4.8-7.1,5.6-12.8v-36.4c.1,0-5.7,0-5.7,0v49.2Z"/>
      </g>
      <path class="st21" d="M300.6,281.2v33.4c0,13.2-11.3,23.8-25.2,23.8s-25.2-10.7-25.2-23.8v-33.4h50.3"/>
      <path id="e" class="st31" d="M272.7,306.1c0-.1.1-.3.2-.4l-4.3-4.7-1.7.7-3.1-3.4,1-1.5-5.3-6c0,0-.2,0-.3,0v4s1.8.5,1.8.5v4.5l-1.8.5v4.1c.8.3,1.5.9,1.7,1.7h3.2s.5-1.7.5-1.7h4.7l.5,1.7h2.7ZM265.7,287.6v1.6h2.8v-1.6h-2.8ZM258.4,308c.6,0,1.2-.5,1.2-1.1s-.5-1.1-1.2-1.1-1.2.5-1.2,1.1.5,1.1,1.2,1.1ZM274.4,298.3l-1.8-.5v-4.5l1.8-.5v-1.9c-.9-.2-1.5-.9-1.8-1.7h-2.7l-.5,1.7h-4.7l-.5-1.7h-3.1c0,.2-.2.4-.3.6l5.4,6,1.7-.7,3.1,3.4-1,1.5,4.2,4.6c0,0,.2,0,.3-.1v-6.2ZM267.2,296.9l-1.3,1,1.8,2,1.3-1-1.8-2ZM275.2,333.1c-1.2,0-2.3-.9-2.5-2-1.7-.2-3.2-.7-4.7-1.3l.8-1.4c1.3.5,2.7.9,4.1,1.1.3-.7.9-1.2,1.6-1.4v-5.6s-1.8-.5-1.8-.5v-4.5l1.8-.5v-7.6c0,0-.1,0-.2,0l-4,4.4,1,1.4-3.1,3.4-1.7-.7-3.3,3.7c.6.9.5,2-.1,2.9.9,1.1,2,2,3.2,2.8l-.8,1.4c-1.4-.9-2.7-2-3.8-3.2-.9.3-1.9.1-2.6-.5-1.1-.9-1.3-2.6-.3-3.6v-.2c-.5-1.6-1-3.2-1.2-5h1.7c.1,1.5.5,2.9,1.1,4.3.5,0,1,0,1.5.2l3.3-3.7-1-1.5,3.1-3.4,1.7.7,4-4.4c0-.1-.2-.3-.2-.5h-2.8s-.5,1.7-.5,1.7h-4.7l-.5-1.7h-3.2c-.3.8-.9,1.3-1.7,1.6v4s-1.7,0-1.7,0v-4c-1.1-.3-1.9-1.3-1.9-2.5s.8-2.1,1.9-2.5v-4s-1.7-.5-1.7-.5v-4.5l1.8-.5v-4c-1.1-.4-1.8-1.3-1.8-2.5s1.2-2.6,2.7-2.6,2.2.7,2.6,1.8h3.1l.5-1.7h4.7l.5,1.7h2.7c.4-1,1.4-1.8,2.6-1.8v8.4c0,0-.8,0-.8,0v2.6h.8v21.6h-.8v2.6h.8v12ZM269.3,314.8l-1.3-1-1.8,2,1.3,1,1.8-2ZM259.3,296.3h-1.7v2.6s1.7,0,1.7,0v-2.6ZM268.5,307.7v-1.6h-2.9v1.6h2.9ZM257.9,317.4l-1.8-.4-.2-4.5,1.8-.6v2.6c0,1,0,1.9.3,2.9h0ZM259.3,311.9l1.8.4s0,2.9,0,2.2c0-.7.2,2.2.2,2.2l-1.8.6c-.2-.9-.2-1.8-.2-2.8v-2.7ZM270.1,328.8l.4-1.7c-1.5-.5-2.9-1.2-4.2-2.1l-1.3,1.1c1.5,1.1,3.2,2.1,5,2.7h0ZM269.3,330.3l-1.3,1.2c-1.5-.5-2.9-1.3-4.1-2.1l.4-1.8c1.5,1.1,3.2,2,5,2.7h0Z"/>
      <path id="e1" data-name="e" class="st31" d="M277.7,306.1c0-.1-.1-.3-.2-.4l4.3-4.7,1.7.7,3.1-3.4-1-1.5,5.3-6c0,0,.2,0,.3,0v4s-1.8.5-1.8.5v4.5l1.8.5v4.1c-.8.3-1.5.9-1.7,1.7h-3.2s-.5-1.7-.5-1.7h-4.7l-.5,1.7h-2.7ZM284.7,287.6v1.6h-2.8v-1.6h2.8ZM292,308c-.6,0-1.2-.5-1.2-1.1s.5-1.1,1.2-1.1,1.2.5,1.2,1.1-.5,1.1-1.2,1.1ZM276,298.3l1.8-.5v-4.5l-1.8-.5v-1.9c.9-.2,1.5-.9,1.8-1.7h2.7l.5,1.7h4.7l.5-1.7h3.1c0,.2.2.4.3.6l-5.4,6-1.7-.7-3.1,3.4,1,1.5-4.2,4.6c0,0-.2,0-.3-.1v-6.2ZM283.3,296.9l1.3,1-1.8,2-1.3-1,1.8-2ZM275.3,333.1c1.2,0,2.3-.9,2.5-2,1.7-.2,3.2-.7,4.7-1.3l-.8-1.4c-1.3.5-2.7.9-4.1,1.1-.3-.7-.9-1.2-1.6-1.4v-5.6s1.8-.5,1.8-.5v-4.5l-1.8-.5v-7.6c0,0,.1,0,.2,0l4,4.4-1,1.4,3.1,3.4,1.7-.7,3.3,3.7c-.6.9-.5,2,.1,2.9-.9,1.1-2,2-3.2,2.8l.8,1.4c1.4-.9,2.7-2,3.8-3.2.9.3,1.9.1,2.6-.5,1.1-.9,1.3-2.6.3-3.6v-.2c.5-1.6,1-3.2,1.2-5h-1.7c-.1,1.5-.5,2.9-1.1,4.3-.5,0-1,0-1.5.2l-3.3-3.7,1-1.5-3.1-3.4-1.7.7-4-4.4c0-.1.2-.3.2-.5h2.8s.5,1.7.5,1.7h4.7l.5-1.7h3.2c.3.8.9,1.3,1.7,1.6v4s1.7,0,1.7,0v-4c1.1-.3,1.9-1.3,1.9-2.5s-.8-2.1-1.9-2.5v-4s1.7-.5,1.7-.5v-4.5l-1.8-.5v-4c1.1-.4,1.8-1.3,1.8-2.5s-1.2-2.6-2.7-2.6-2.2.7-2.6,1.8h-3.1l-.5-1.7h-4.7l-.5,1.7h-2.7c-.4-1-1.4-1.8-2.6-1.8v8.4c0,0,.8,0,.8,0v2.6h-.8v21.6h.8v2.6h-.8v12ZM281.2,314.8l1.3-1,1.8,2-1.3,1-1.8-2ZM291.1,296.3h1.7v2.6s-1.7,0-1.7,0v-2.6ZM282,307.7v-1.6h2.9v1.6h-2.9ZM292.6,317.4l1.8-.4.2-4.5-1.8-.6v2.6c0,1,0,1.9-.3,2.9h0ZM291.1,311.9l-1.8.4s0,2.9,0,2.2c0-.7-.2,2.2-.2,2.2l1.8.6c.2-.9.2-1.8.2-2.8v-2.7ZM280.3,328.8l-.4-1.7c1.5-.5,2.9-1.2,4.2-2.1l1.3,1.1c-1.5,1.1-3.2,2.1-5,2.7h0ZM281.2,330.3l1.3,1.2c1.5-.5,2.9-1.3,4.1-2.1l-.4-1.8c-1.5,1.1-3.2,2-5,2.7h0Z"/>
      <path class="st8" d="M272.6,306.9c0-1.4,1.2-2.6,2.7-2.6s2.7,1.2,2.7,2.6-1.2,2.6-2.7,2.6-2.7-1.1-2.7-2.6"/>
      <g>
        <path class="st21" d="M200.1,281.2h50.2v-55.7h-50.2v55.7Z"/>
        <path class="st1" d="M217.3,238.4h-.9v-.9h-1.6v3.7h1.6v2.6h-3.5v7.4h1.9v14.8h-3.7v7.6h28.4v-7.6h-3.7v-14.8h1.9v-7.4h-3.5v-2.6h1.6v-3.7h-1.6v.9h-.9v-.9h-1.6v.9h-1.2v-.9h-1.6v3.7h1.6v2.6h-3.5v-8.1h1.8v-3.7h-1.8v.9h-.9v-.9h-1.6v.9h-.9v-.9h-1.9v3.7h1.9v8.1h-3.5v-2.6h1.6v-3.7h-1.6v.9h-.9v-.9h-1.9v.9h0ZM211.1,273.5h28.4M211.1,271.7h28.4M211.1,269.8h28.4M211.1,268h28.4M211.1,265.9h28.4M214.8,264.3h21M214.8,262.4h21M214.8,260.4h21M214.8,258.5h21M214.8,256.7h21M214.8,254.8h21M214.8,253h21M212.9,251.1h24.7M212.9,249.3h24.7M212.9,247.4h24.7M212.9,245.6h24.7M216.4,243.7h17.8M223.6,241.9h3.5M223.6,240h3.5M223.6,238.2h3.5M223.6,236.3h3.5M221.7,234h7.2M216.4,241.9h3.7M214.8,239.6h6.9M214.8,273.5v-1.9M214.8,269.8v-1.9M212.9,269.8v1.9M216.4,271.7v-1.9M218.3,273.5v-1.9M218.3,269.8v-1.9M218.3,265.9v-1.6M218.3,262.4v-2.1M216.4,268v-2.1M212.9,268v-2.1M220.1,265.9v2.1M221.7,265.9v-1.6M216.4,262.4v1.9M220.1,262.4v1.9M223.6,262.4v1.9M221.7,262.4v-2.1M223.6,258.5v1.8M223.6,254.8v1.8M221.7,253v1.9M223.6,251.1v1.9M220.1,251.1v1.9M216.4,251.1v1.9M214.8,249.3v1.9M218.3,249.3v1.9M221.7,249.3v1.9M223.6,247.4v1.9M220.1,247.4v1.9M216.4,247.4v1.9M214.8,245.6v1.8M221.7,245.6v1.8M218.3,241.9v1.9M234.2,241.9h-3.7M235.8,239.6h-6.9M235.8,273.5v-1.9M235.8,269.8v-1.9M237.7,269.8v1.9M234.2,271.7v-1.9M232.4,273.5v-1.9M232.4,269.8v-1.9M232.4,265.9v-1.6M232.4,262.4v-2.1M234.2,268v-2.1M237.7,268v-2.1M230.5,265.9v2.1M228.9,265.9v-1.6M234.2,262.4v1.9M230.5,262.4v1.9M227.1,262.4v1.9M228.9,262.4v-2.1M227.1,258.5v1.8M227.1,254.8v1.8M228.9,253v1.9M227.1,251.1v1.9M230.5,251.1v1.9M234.2,251.1v1.9M235.8,249.3v1.9M232.4,249.3v1.9M228.9,249.3v1.9M227.1,247.4v1.9M230.5,247.4v1.9M234.2,247.4v1.9M235.8,245.6v1.8M228.9,245.6v1.8M232.4,241.9v1.9M225.2,262.4v-2.1M225.2,254.8v-1.9M225.2,258.5v-1.9M225.2,251.1v-1.9M225.2,247.4v-1.8M225.2,241.9v-1.9M225.2,238.2v-1.9M216.4,241.2h3.7M223.6,235.6h3.5M230.5,241.2h3.7"/>
        <path class="st1" d="M230.1,273.5v-4.9c0-.9-.5-3.7-4.9-3.7s-4.6,2.8-4.6,3.7v4.9h9.5Z"/>
        <path class="st1" d="M222.2,268.9l-2.3-.2c0-.9.2-2.3.9-2.8l2.1,1.6c-.2.2-.7.9-.7,1.4ZM226.1,266.6l1.2-2.1c-.5-.2-1.4-.5-2.1-.5s-1.4.2-1.9.5l1.1,2.1h1.6ZM228.4,268.9l2.3-.2c0-.9-.2-2.3-.9-2.8l-2.1,1.6c.2.2.7.9.7,1.4ZM221.7,260.8v-5.1c0-1.4-.9-2.5-2.5-2.5s-2.5,1.2-2.5,2.5v5.1h5.1,0ZM228.9,260.8v-5.1c0-1.4.9-2.5,2.6-2.5s2.5,1.2,2.5,2.5v5.1h-5.1ZM220.1,248.4l.2-4.6h-4.4l.5,4.6h3.7ZM227.1,248.4l.5-4.6h-4.4l.2,4.6h3.7ZM230.5,248.4l-.5-4.6h4.6l-.5,4.6h-3.7,0Z"/>
        <path class="st8" d="M228.4,273.5v-4.2c0-.7-.5-2.8-3.2-2.8s-3,2.1-3,2.8v4.2h6.2,0ZM221.3,260.4v-4.4c0-1.1-.7-2.3-2.1-2.3s-2.1,1.2-2.1,2.3v4.4h4.2ZM229.4,260.4v-4.4c0-1.1.7-2.3,2.1-2.3s2.1,1.2,2.1,2.3v4.4h-4.2Z"/>
      </g>
      <path class="st21" d="M250.3,281.2h50.3v-55.7h-50.3v55.7Z"/>
      <path class="st10" d="M275.9,239.3v-.6s.1-.3.1-.3c0,0-1.6.1-2.5-.1s-1.6-.6-2.4-1.2c-.8-.7-1.1-1.1-1.7-1.2-1.4-.2-2.4.4-2.4.4,0,0,1,.4,1.8,1.3s1.6,1.4,2,1.5c.6.2,2.7,0,3.2,0,.6,0,1.8.2,1.8.2h0Z"/>
      <g>
        <path class="st10" d="M283.5,237s0,.7,0,1.4c0,.7-.2,1.2-.1,1.6s.2.7.3.9c.1.3.2.9.2.9,0,0-.4-.3-.7-.5-.4-.3-.6-.4-.6-.4v1c.1.3.3.9.6,1.2.3.3.9.9,1,1.3.2.4.1,1.4.1,1.4,0,0-.5-.8-.9-.9-.4-.1-1.3-.6-1.3-.6,0,0,.8.8.8,1.6s-.3,1.6-.3,1.6c0,0-.4-.7-.8-1.1-.5-.4-1.1-.9-1.1-.9,0,0,.5,1.2.5,1.9s-.1,2.5-.1,2.5c0,0-.4-.6-.8-1-.4-.3-.9-.6-1-.8-.1-.2.5.6.5,1.2,0,.5.3,2.4,1.9,4.7.9,1.4,2.4,3.8,5.5,3,3.1-.8,2-5,1.3-6.9-.6-1.9-1-4.1-.9-4.9,0-.8.6-3,.5-3.4,0-.4-.2-2,.1-3.3.4-1.3.7-1.9,1-2.4.2-.6.4-.9.5-1.3s0-1.4,0-1.4c0,0,.6,1.1.7,1.4.1.4.1,1.5.1,1.5,0,0,.1-1.1,1-1.7s1.9-1.1,2.1-1.4.3-.5.3-.5c0,0,0,1.9-.6,2.7-.4.5-1.8,2.1-1.8,2.1,0,0,.7-.3,1.2-.3.5,0,.9,0,.9,0,0,0-.6.5-1.4,1.6-.8,1.2-.5,1.3-1,2.2s-1,1-1.8,1.6c-1.1.9-.5,4.3-.4,4.9.1.5,2,4.8,2.1,5.8,0,1,.2,3.3-1.6,4.8-1.2,1-3.1,1-3.5,1.2-.4.3-1.3,1.1-1.3,2.9s.6,2.1,1.1,2.5c.5.4,1.2.2,1.3.5.1.3.2.5.4.8.2.2.4.4.3.8,0,.4-.9,1.2-1.2,1.9-.3.6-.9,2.2-.9,2.5s0,1,.2,1.4c0,0,.9,1.1.3,1.3-.4.1-.8-.2-1-.2-.5.1-.8.5-1,.5-.4,0-.4-.2-.4-.8,0-.5,0-.7-.2-.7s-.3.2-.4.5,0,.9-.3.9-.6-.5-.8-.5-.8-.2-.9-.5c0-.3.4-.9.8-1,.4-.1.8-.3.5-.5-.3-.2-.5-.2-.8,0-.2.2-.8,0-.8-.3,0-.3.1-.7,0-.9,0-.2-.5-.5.1-.8.6-.3.8.3,1.4.2s.9-.3,1.1-.6.2-1.1-.2-1.5c-.4-.5-.8-.5-.9-.8-.1-.3-.4-.9-.4-.9,0,0,.1,1.2,0,1.4s0,.9,0,.9c0,0-.4-.5-.7-.8-.3-.3-.6-1.4-.6-1.4,0,0,0,1,0,1.3s.4.7.3.9c-.1.1-.8-.7-1-.9-.2-.1-.8-.6-1-1.1s-.4-1.2-.5-1.4c0-.2-.2-1.3,0-1.6.2-.4.5-1.1.5-1.1h-1.4c-.8,0-1.3-.2-1.6.3s-.1,1.5.2,2.9c.4,1.3.6,2,.5,2.2-.1.2-.6.8-.8.9-.2.1-.7,0-.9,0-.2-.1-.6-.3-1.3-.3s-1.1,0-1.4,0c-.3,0-.9-.4-1.2-.3s-.8.3-.6.7c.2.6-.2.8-.5.7-.3,0-.5-.1-.9-.2-.4-.1-.9,0-.8-.4,0-.4.2-.4.4-.7.2-.3.2-.5,0-.5-.2,0-.5,0-.7.1-.2.2-.5.5-.8.4-.3-.1-.5-.4-.5-1.1s-.7-1.2,0-1.2c.6,0,1.4.5,1.5.1s0-.5-.3-.8-.8-.4-.3-.8c.5-.4.6-.4.7-.5.2-.2.4-.8.7-.6.6.3,0,.7.6,1.4.6.7,1,.9,2.1.8,1-.1,1.3-.2,1.3-.5s0-.8-.1-1c0-.2.1-1,.1-1,0,0-.5.3-.6.6-.1.3-.4.8-.4.8,0,0-.1-.6,0-1.1,0-.3.1-.8.1-.9,0-.3-.2-.9-.2-.9,0,0-.2.7-.3.9-.1.2-.2,1.1-.2,1.1,0,0-.7-.6-.5-1.5.1-.8-.1-1.7.1-2.1.2-.3.8-1.6,2.1-1.7,1.3,0,2.3,0,2.8,0,.5,0,2.1-.3,2.1-.3,0,0-3-1.5-3.6-2-.7-.4-1.7-1.6-2.1-2.2-.3-.5-.6-1.6-.6-1.6,0,0-.5,0-1,.3-.5.3-1,.7-1.2,1s-.7,1.1-.7,1.1c0,0,0-.9,0-1.2s0-.9,0-.9c0,0-.3,1.3-1,1.8-.7.5-1.5,1.1-1.5,1.1,0,0,0-.7,0-.9s.2-1,.2-1c0,0-.5.7-1.2.9-.7.1-1.8.1-1.9.6,0,.4.2,1.1,0,1.4s-.5.5-.5.5c0,0-.4-.4-.8-.4-.4,0-.7.2-.7.2,0,0-.3-.4-.2-.7.1-.3.7-.7.5-.8-.1-.2-.6,0-.9.2-.3.1-.9.3-.8-.2,0-.4.2-.7,0-1-.1-.3,0-.5.2-.6.2,0,1.1,0,1.2-.2,0-.2-.2-.5-.8-.6-.6-.1-.9-.5-.6-.8.3-.3.4-.4.5-.6.1-.3.2-.8.7-.5.5.2.4.8,1,1,.6.2,1.9,0,2.2-.2s1.2-.8,1.5-1c.3-.1,1.6-1.1,1.6-1.1,0,0-.8-.5-1-.8-.3-.3-.8-.9-1-1.1-.2-.1-1.5-.6-1.9-.6-.4,0-1.7-.5-1.7-.5,0,0,.6-.2.8-.4.2-.2.6-.6.9-.5.2,0,.3,0,.3,0,0,0-1.2,0-1.5-.1-.2,0-1-.5-1.3-.5s-.8.1-.8.1c0,0,.8-.5,1.4-.6.6-.1,1.1,0,1.1,0,0,0-1-.3-1.2-.6-.2-.3-.5-.8-.6-1-.2-.2-.3-.6-.6-.6s-.9.4-1.2.4-.5-.2-.6-.7c0-.5,0-.3-.1-.5-.1-.2-.6-.8-.1-.9.4-.1,1.3,0,1.4,0,0-.2-.5-.6-.9-.8-.4-.2-1-.5-.6-.8.3-.3.6-.4.8-.6s.4-.9.7-.7c.4.2.9,1.3,1.2,1.2.3,0,.3-.8.2-1.1,0-.3,0-.9.3-.8s.5.4,1,.5c.5,0,1.1-.1,1.1.2,0,.3-.3.7-.6,1.1-.3.4-.5,1.1-.2,1.5.2.5.7,1.2,1.2,1.5s1.3.5,1.8.9c.5.4,1.8,1.3,2.2,1.4s.9.3.9.3c0,0,.5-.2,1.1-.2s2.1.1,2.7-.1,1.3-.6,1.1-1.1c-.2-.5-1.5-1-1.4-1.4s.6-.4,1.3-.5c.8,0,1.8.1,2-.9.2-1.1.3-1.7-.8-1.9-1.1-.2-1.9-.3-2.1-1-.2-.8-.4-1-.2-1.2.2-.2.6-.3,1.4-.4.8,0,1.7,0,2-.2.2-.2.3-.7.6-.9.3-.2,1.5-.4,1.5-.4,0,0,1.5.7,2.8,1.7,1.2.9,2.3,2.2,2.3,2.2"/>
        <path class="st10" d="M269,243.4s-.8.2-1.1.7c-.4.5-.3,1.1-.3,1.1,0,0,.7-.6,1.6-.3.9.2,1,.3,1.3.3s1.3-.4,1.3-.4c0,0-.7.9-.6,1.4,0,.6.2.9.2,1.1,0,.7-.6,1.6-.6,1.6,0,0,.3-.2,1-.4.7-.2,1.4-.5,1.8-.8.4-.3.9-1,.9-1,0,0-.2,1,0,1.4.2.4.2,1.7.2,1.7,0,0,.5-.4.9-.6.2-.1.7-.4.9-.7.1-.2.3-1.1.3-1.1,0,0,.1.9.4,1.3.3.4.7,1.7.7,1.7,0,0,.3-.9.6-1.2s.7-.8.7-1.1c0-.3,0-.9,0-.9l.4.9M267.9,248.9s.5-.8.9-1.1c.5-.3,1.1-.7,1.2-.8.2,0,.9-.5.9-.5M272,251.7s1.1-.6,1.4-.8c.7-.4,1.2-1.1,1.2-1.1"/>
        <path class="st31" d="M282.6,240.9s-.3-.5-.4-.6c0-.1-.2-.5-.2-.5"/>
        <path class="st10" d="M278.3,257.4s2,1.3,2,2.3c0,1-1.1,2.4-1.1,2.4"/>
      </g>
      <path class="st31" d="M273,236.2s-.2-.5-.2-.6c0-.1-.1-.3-.1-.3,0,0,.9,0,.9.3,0,.3-.3.3-.3.4,0,.1-.2.3-.2.3h0Z"/>
      <path class="st19" d="M277.1,234.9v-.4c0,0,.7,0,1.1.3.6.4.9,1,.9,1.1-.1,0-.5-.3-.9-.4,0,0-.2,0-.5,0s-.3-.1-.4-.2c0-.1,0-.3,0-.3h-.3Z"/>
      <path class="st31" d="M273.1,240.1l.3-.5.3.5h-.7M273.9,240.1l.4-.5.4.5h-.8M273.5,236.8l.8.3-.7.4v-.7M274.5,237.1l.7.2-.6.5v-.6"/>
      <path class="st10" d="M261.9,236.1s.5.3.9.4c.4,0,.8,0,.8,0s.2-.5.1-.9c-.2-1.2-1.3-1.5-1.3-1.5,0,0,.3.7.2,1.1-.2.5-.6.9-.6.9h0ZM259.6,237.1s-.4-.8-1.3-.7c-.9.1-1.5.8-1.5.8,0,0,1,0,1.2.1.4.2.5.9.5.9,0,0,.5-.3.7-.5.2-.2.4-.6.4-.6h0ZM258.5,240.2s-.8.1-1.2.6c-.4.5-.4,1.4-.4,1.4,0,0,.5-.5,1-.5s1.2.2,1.2.2c0,0-.2-.6-.2-.8s-.3-.8-.3-.8h0ZM261.1,250.4s-.4-.4-1.2-.3c-.7.1-1.2,1-1.2,1,0,0,.6-.2,1,0,.4,0,.6.4.6.4,0,0,.3-.3.5-.4s.3-.6.3-.6h0ZM260.2,253.3s-.6-.1-1.2.3c-.5.4-.6,1.2-.6,1.2,0,0,.5-.4.9-.4.4,0,.9.3.9.3,0,0,0-.5.1-.6,0-.4-.2-.8-.2-.8h0ZM261.7,256.1s0,.8.3,1.3c.4.5,1.1.6,1.1.6,0,0-.2-.5-.3-.8,0-.4.3-.8.3-.8,0,0-.4-.4-.7-.4s-.8,0-.8,0h0ZM269,263.1s-.5-.6-1.2-.6c-.7,0-1.5.7-1.5.7,0,0,.9,0,1.1.2.2.3.5.7.5.7,0,0,.4-.2.6-.4.2-.1.5-.6.5-.6h0ZM266.8,265.9s-.9-.1-1.4.4c-.5.5-.4,1.4-.4,1.4,0,0,.6-.6,1.1-.6s1.1.3,1.1.3c0,0,0-.5-.1-.8,0-.2-.2-.7-.2-.7h0ZM268.8,268.9s-.5.6-.1,1.1,1,.8,1,.8c0,0-.3-.4-.1-.8,0-.3.7-.8.7-.8l-1.5-.3h0ZM281.2,270.1s-.8-.2-1.3,0c-.5.3-.8,1.4-.8,1.4,0,0,.7-.6,1.3-.5.5,0,.9.3.9.3,0,0,0-.5,0-.8,0-.2-.1-.5-.1-.5h0ZM281.6,273.1s-.6.6-.4,1.2c.2.5.6,1.1.6,1.1,0,0,0-.8.2-1,.4-.3,1-.4,1-.4,0,0-.5-.5-.7-.5-.2,0-.8-.4-.8-.4ZM284.7,274s-.3.8.3,1.3c.6.5,1.1.6,1.1.6,0,0-.5-.8-.3-1.2.1-.5.5-.7.5-.7,0,0-.7-.2-.9-.2-.1,0-.8.3-.8.3h0Z"/>
      <g>
        <path class="st31" d="M282.9,232.7h-.3c0,0-.1.3-.3.4-.3.2-.6.3-.9,0-.1-.1-.2-.3-.1-.4-.2,0-.4,0-.5,0-.3-.1-.3-.5-.1-.8,0,0,0-.1.1-.2v-.3s-.4,0-.4,0v.2c-.3.2-.6.3-.8.2,0,0-.1-.2-.1-.3,0,0,0,0-.2.1-.5.1-.8-1.1-.8-1.4l-.2.2s.2.7,0,1.3c0,.6-.3,1.2-.3,1.2.7.2,1.9.8,3,1.6s2,1.8,2.3,2.4c0,0,.6-.3,1.2-.5s1.4-.2,1.4-.2l.2-.2c-.3,0-1.6.1-1.6-.4,0,0,0-.2,0-.2-.1,0-.2,0-.3,0-.2-.1-.2-.4,0-.7h.2c0-.1,0-.5,0-.5h-.3c0,0-.1.1-.1.2-.3.2-.6.2-.9,0-.1-.1-.2-.3-.1-.5-.2,0-.3,0-.5,0-.3-.1-.3-.5-.1-.8,0-.1.3-.3.3-.3v-.3h0,0Z"/>
        <path class="st19" d="M280.6,233.4c0,0,.1,0,.2,0s.1.2,0,.2c0,0-.1,0-.2,0,0,0-.1-.1,0-.2h0ZM281.6,234.2l-.3-.2c0,0,0-.1,0-.2,0,0,.1,0,.2,0l.3.3.3.2s0,.1,0,.2-.1,0-.2,0l-.3-.3M279.8,233h-.3c0-.2-.1-.3,0-.3s.1,0,.2,0l.3.2h.3c0,.2,0,.3,0,.3,0,0-.1,0-.2,0h-.3M278.8,232.3c0,0,.2,0,.2,0,0,0,.1.2,0,.2,0,0-.1,0-.2,0s-.1-.1,0-.2h0ZM282.6,234.9c0,0,0-.1,0-.2,0,0-.2,0-.2,0,0,0,0,.1,0,.2s.2,0,.2,0h0ZM283.2,235.6l.2.2c0,0,.1,0,.2,0,0,0,0-.1,0-.2l-.2-.2-.2-.2c0,0-.1,0-.2,0,0,0,0,.1,0,.2l.2.2M284.2,236.4c0,0,0-.1,0-.2,0,0-.2,0-.2,0s0,.1,0,.2c0,0,.2,0,.2,0Z"/>
        <path class="st31" d="M281.4,230.4h-.6s-.1.9-.1.9h0c0,.1.1.1.1.1l.8-.5-.3-.5"/>
        <path class="st31" d="M281.4,230.4h-.6s-.1.9-.1.9h0c0,.1.1.1.1.1l.8-.5-.3-.5"/>
        <path class="st31" d="M279.8,230.8v.5s.9.1.9.1h.1c0,0,0-.2,0-.2l-.5-.7-.5.3"/>
        <path class="st31" d="M281.7,231.9l-.5.3-.5-.7h0c0-.1.1-.2.1-.2h.9c0,.1,0,.6,0,.6"/>
        <path class="st31" d="M280.5,231.2c0-.1.3-.2.4,0,.1,0,.2.2.1.4s-.3.2-.4,0c-.1,0-.2-.2-.1-.4,0,0,0,0,0,0ZM278.4,230.4s-.1-.5-.3-.7c0-.2-.4-.4-.4-.4,0,0,.4-.2.9,0,.4.3,0,.9,0,.9,0,0,0,.1-.2.2h0Z"/>
        <path class="st31" d="M279.4,230.7l-.4.4-.7-.6h0c0,0,0-.2,0-.2h.9c0,0,0,.5,0,.5"/>
        <path class="st31" d="M278.2,230.3c0-.1.2-.2.3-.2.1,0,.1.2.1.3s-.2.2-.3.2c-.1,0-.1-.2,0-.3ZM283.7,231.8h-.6c0,0-.2.8-.2.8h0c0,.1.1.1.1.1l.8-.4-.2-.5"/>
        <path class="st31" d="M282,232v.5c-.1,0,.8.2.8.2h.1s0-.2,0-.2l-.4-.8-.5.2"/>
        <path class="st31" d="M283.7,233.4l-.5.2-.4-.8h0c0-.1.1-.2.1-.2l.9.2v.5"/>
        <path class="st31" d="M282.6,232.5c.1-.1.3-.1.4,0,.1,0,.1.3,0,.4s-.3.1-.4,0c-.1,0-.1-.2,0-.4,0,0,0,0,0,0h0ZM285.6,233.6v.6c.1,0-.8.3-.8.3h-.2s0-.2,0-.2l.4-.8h.6"/>
        <path class="st31" d="M285.5,235.2h-.6c0,.1-.3-.7-.3-.7h0c0-.1.1-.2.1-.2l.9.4-.2.5"/>
        <path class="st31" d="M284,233.7l-.2.5.9.3h.2s0-.2,0-.2l-.3-.8h-.6"/>
        <path class="st31" d="M284.9,234.6c.1-.1.1-.3,0-.4-.1-.1-.3-.1-.4,0-.1.1-.1.3,0,.4.1.1.3.1.4,0h0ZM286.3,236.4s.5,0,.8,0c.2,0,.5.3.5.3,0,0,.1-.4-.3-.8-.4-.3-.9.2-.9.2,0,0-.1.1-.1.2h0Z"/>
        <path class="st31" d="M285.8,235.5l-.3.5.8.5h0c0,0,.1-.1.1-.1v-.9c-.1,0-.7,0-.7,0"/>
        <path class="st31" d="M286.4,236.5c.1,0,.2-.2.1-.3s-.2-.1-.4,0-.2.2-.1.3c0,0,.2.1.4,0Z"/>
      </g>
      <g>
        <ellipse class="st28" cx="250.4" cy="281" rx="16.3" ry="18.3"/>
        <ellipse class="st28" cx="250.4" cy="281" rx="11.4" ry="13.4"/>
        <g id="f">
          <path class="st40" d="M245,271.7s-1.4,1.5-1.4,2.9.6,2.5.6,2.5c-.2-.5-.8-.9-1.4-.9s-1.5.6-1.5,1.4.1.6.2.8l.5,1c.2-.4.5-.6,1-.6s1.1.5,1.1,1,0,.2,0,.2h-1.2v1h1.1l-.8,1.6,1.1-.4.8.9.8-.9,1.1.4-.8-1.6h1.1v-1h-1.2c0,0,0-.2,0-.3,0-.6.5-1,1.1-1s.8.2,1,.6l.5-1c.1-.2.2-.5.2-.8,0-.8-.7-1.4-1.5-1.4s-1.2.4-1.4.9c0,0,.6-1.1.6-2.5s-1.4-2.9-1.4-2.9h0Z"/>
          <path class="st30" d="M242.9,281.1h4.4v-1h-4.4v1Z"/>
        </g>
        <g id="f1" data-name="f">
          <path class="st40" d="M255.7,271.7s-1.4,1.5-1.4,2.9.6,2.5.6,2.5c-.2-.5-.8-.9-1.4-.9s-1.5.6-1.5,1.4.1.6.2.8l.5,1c.2-.4.5-.6,1-.6s1.1.5,1.1,1,0,.2,0,.2h-1.2v1h1.1l-.8,1.6,1.1-.4.8.9.8-.9,1.1.4-.8-1.6h1.1v-1h-1.2c0,0,0-.2,0-.3,0-.6.5-1,1.1-1s.8.2,1,.6l.5-1c.1-.2.2-.5.2-.8,0-.8-.7-1.4-1.5-1.4s-1.2.4-1.4.9c0,0,.6-1.1.6-2.5s-1.4-2.9-1.4-2.9h0Z"/>
          <path class="st30" d="M253.5,281.1h4.4v-1h-4.4v1Z"/>
        </g>
        <g id="f2" data-name="f">
          <path class="st40" d="M250.3,280.9s-1.4,1.5-1.4,2.9.6,2.5.6,2.5c-.2-.5-.8-.9-1.4-.9s-1.5.6-1.5,1.4.1.6.2.8l.5,1c.2-.4.5-.6,1-.6s1.1.5,1.1,1,0,.2,0,.2h-1.2v1h1.1l-.8,1.6,1.1-.4.8.9.8-.9,1.1.4-.8-1.6h1.1v-1h-1.2c0,0,0-.2,0-.3,0-.6.5-1,1.1-1s.8.2,1,.6l.5-1c.1-.2.2-.5.2-.8,0-.8-.7-1.4-1.5-1.4s-1.2.4-1.4.9c0,0,.6-1.1.6-2.5s-1.4-2.9-1.4-2.9h0Z"/>
          <path class="st30" d="M248.2,290.2h4.4v-1h-4.4v1Z"/>
        </g>
      </g>
    </g>
  </g>
</svg>