<?xml version="1.0" encoding="UTF-8"?>
<svg id="Calque_1" xmlns="http://www.w3.org/2000/svg" version="1.1" viewBox="0 0 512 256">
  <!-- Generator: Adobe Illustrator 29.4.0, SVG Export Plug-In . SVG Version: 2.1.0 Build 152)  -->
  <defs>
    <style>
      .st0, .st1, .st2, .st3, .st4, .st5, .st6 {
        fill: #fff;
      }

      .st1 {
        stroke-width: 1px;
      }

      .st1, .st2, .st3, .st4, .st5, .st6 {
        stroke: #000;
      }

      .st2 {
        stroke-linejoin: round;
      }

      .st3, .st6 {
        stroke-linecap: round;
      }

      .st4 {
        stroke-linecap: square;
      }

      .st6 {
        stroke-width: .8px;
      }
    </style>
  </defs>
  <rect width="512" height="256"/>
  <rect class="st0" width="512" height="171.5"/>
  <g>
    <g id="castle_half">
      <rect x="196.6" y="116.3" width="64" height="44"/>
      <path class="st4" d="M229.8,153.9h-39.1l-8.7,5.7v6h47.7"/>
      <path class="st4" d="M213.5,128.6c5.6,0,10.2,4.7,10.2,10.5v14.8h7.3v-56h-40.3v56h12.5v-14.8c0-5.6,4.5-10.5,10.2-10.5Z"/>
      <rect x="204.5" y="60" width="18.5" height="34"/>
      <path class="st4" d="M223,88.7h-16.2v-5.8h-11.9v5.8h-8.1v-5.8h-4.8v10.4h41M186.8,93.3h35v4.5h-35v-4.5Z"/>
      <path class="st4" d="M200.7,47.6v35.3h6.1v-9.7c0-3.6,2.6-6.6,6.1-6.8.1,0,.2,0,.3,0,3.7,0,6.8,3,6.8,6.8v9.7h5.8v-35.3h-25.1Z"/>
      <path class="st4" d="M198.5,42.8v4.8h29.2v-4.8h-29.2Z"/>
      <path class="st4" d="M194.8,33.7v9.2h35.1v-9.2h-5.4v4.7h-6.5v-4.7h-10v4.7h-6.5v-4.7h-6.7Z"/>
      <path class="st4" d="M182.1,159.6h47.9"/>
      <path class="st4" d="M261,156.8h-32.4l-9.8,4.7v7h42.2"/>
      <path class="st5" d="M218.8,161.5h43.2"/>
    </g>
    <g id="castle_half1" data-name="castle_half">
      <rect x="251.4" y="116.3" width="64" height="44"/>
      <path class="st4" d="M282.2,153.9h39.1l8.7,5.7v6h-47.7"/>
      <path class="st4" d="M298.5,128.6c-5.6,0-10.2,4.7-10.2,10.5v14.8h-7.3v-56h40.3v56h-12.5v-14.8c0-5.6-4.5-10.5-10.2-10.5Z"/>
      <rect x="288.9" y="60" width="18.5" height="34"/>
      <path class="st4" d="M289,88.7h16.2v-5.8h11.9v5.8h8.1v-5.8h4.8v10.4h-41M325.2,93.3h-35v4.5h35v-4.5Z"/>
      <path class="st4" d="M311.3,47.6v35.3h-6.1v-9.7c0-3.6-2.6-6.6-6.1-6.8-.1,0-.2,0-.3,0-3.7,0-6.8,3-6.8,6.8v9.7h-5.8v-35.3h25.1Z"/>
      <path class="st4" d="M313.5,42.8v4.8h-29.2v-4.8h29.2Z"/>
      <path class="st4" d="M317.2,33.7v9.2h-35.1v-9.2h5.4v4.7h6.5v-4.7h10v4.7h6.5v-4.7h6.7Z"/>
      <path class="st4" d="M329.9,159.6h-47.9"/>
      <path class="st4" d="M251,156.8h32.4l9.8,4.7v7h-42.2"/>
      <path class="st5" d="M293.2,161.5h-43.2"/>
    </g>
    <g>
      <g>
        <path class="st6" d="M273.3,150c-2.7.9-5.1,2.4-7.5,3.8-3.1,1.8-6.1,3.8-8.9,6.1-1,.6-1.9,1.4-2.7,2.3-1,.9-2.1,2.1-1.9,3.5,0,.6.9-.8,1.4-.8.9-.5,2.1-.7,3.1-.5,1.3-1.3,2.9-2.2,4.3-3.4,3-2.2,6.2-4.2,9.5-6,1.1-.6,2.3-1.2,3.5-1.6l-1-3.4h0Z"/>
        <path class="st3" d="M260.4,157.4v3.9"/>
        <path class="st3" d="M262.8,155.7v3.9"/>
        <path class="st3" d="M265.2,154.2v3.9"/>
        <path class="st3" d="M267.6,152.7v4"/>
        <path class="st6" d="M238.9,150.2c-.4,1.1-.8,2.2-1.2,3.3,5.5,2.1,10.8,4.9,15.8,8.1,1.7,1.2,3.5,2.3,4.8,3.8.3.8-.5,1.5-1.3,1.2-.7-.2-1.5-.5-2.2,0-1.1.5-2.1,2.1-.4,2.7,2.3,1.6,6.1.9,7.2-1.8.6-1.4.6-3.2-.5-4.3-2.1-2.4-4.8-4-7.4-5.7-4.7-2.8-9.6-5.4-14.7-7.3h0Z"/>
        <path class="st3" d="M254,158l-.3,3.3"/>
        <path class="st3" d="M256.8,159.7l-.9,3.3"/>
        <path class="st3" d="M259.8,162l-1.8,2.5"/>
        <path class="st3" d="M260.7,168.2l-2.6-1.4"/>
        <path class="st3" d="M261.5,165.4l-3,.3"/>
        <path class="st3" d="M257.7,169.8l-.2-2.6"/>
        <path class="st3" d="M256.6,166.8l-2.5,1.8"/>
        <path class="st3" d="M244.7,152.9v3.1"/>
        <path class="st3" d="M251,156.2v3.5"/>
        <path class="st3" d="M247.8,154.6v3.3"/>
      </g>
      <path class="st5" d="M235.8,227.6v8h5v-4h6.8v4h5.4v-8h-17.3ZM235.8,238.6v8.1h17.3v-8.1h-5.4v4h-6.8v-4h-5Z"/>
      <rect class="st5" x="253.1" y="193.7" width="5" height="58.1"/>
      <rect class="st5" x="253.1" y="198.7" width="5" height="50.1"/>
      <path class="st1" d="M255.5,179.4l10.6,6.2-10.6,6.2-10.6-6.2,10.6-6.2ZM241.3,183.4h-2.8v4.4h2.8l14.2,8.2,14.2-8.2h2.8v-4.4h-2.8l-14.2-8.2-14.2,8.2Z"/>
      <path class="st1" d="M255.3,164.3c-2.4.3-4.2,2.7-4.1,5.1,0,3.7,0,7.5,0,11.2.1,2.4,2.2,4.6,4.7,4.6,2,.2,4-1,4.8-2.8-.6-.3-1.1-.7-1.7-1-.4,1.2-1.7,1.9-3,1.8-1.6,0-3-1.5-2.8-3.1,0-3.7,0-7.4,0-11.1,0-1.5,1.5-2.8,3-2.6.6-.2,1.5.7,1.9,0,.6-.8-.4-1.5-1-1.9-.6,0-1.3,0-1.9,0h0ZM261.1,168.2c-.4.7-1.2,1.2-1.9,1.6v7.5c.7.4,1.3.8,2,1.2,0-3.2,0-6.4,0-9.6,0-.2,0-.5-.1-.6h0Z"/>
    </g>
    <g>
      <rect x="240.8" y="38.4" width="29.3" height="53.3"/>
      <path class="st5" d="M238.8,38.4v44.6h9.3v-13.2c0-3,2-7.3,7.9-7.3s7.9,4.2,7.9,7.3v13.2h9.3v-44.6h-34.5ZM254.6,43.4h2.9v15.2h-2.9v-15.2ZM246.3,46.4h2.9v11.2h-2.9v-11.2ZM262.8,46.4h2.9v11.2h-2.9v-11.2Z"/>
      <path class="st5" d="M235.6,32v6.3h40.8v-6.3h-40.8Z"/>
      <path class="st5" d="M231.8,24.6v7.4h48.5v-7.4h-6.1v4.1h-6.9v-4.1h-7.8v4.1h-6.9v-4.1h-7.8v4.1h-6.9v-4.1h-6.1Z"/>
      <path class="st5" d="M222.8,97.8v4.6h66.5v-4.6h-66.5Z"/>
      <path class="st5" d="M220,82.9v14.9h71.9v-14.9h-6.8v5.8h-9.1v-5.8h-12.2v5.8h-15.9v-5.8h-12.2v5.8h-9.1v-5.8h-6.8Z"/>
      <path class="st2" d="M228.7,102.4v54.3h12.8v-20.3c0-9.6,6.4-14.1,14.5-14.1s14.5,4.5,14.5,14.1v20.3h12.8v-54.3h-54.6Z"/>
    </g>
  </g>
</svg>