<?xml version="1.0" encoding="UTF-8"?>
<svg id="Calque_1" xmlns="http://www.w3.org/2000/svg" version="1.1" viewBox="0 0 12 6">
  <!-- Generator: Adobe Illustrator 29.4.0, SVG Export Plug-In . SVG Version: 2.1.0 Build 152)  -->
  <defs>
    <style>
      .st0 {
        fill: #fff;
      }
    </style>
  </defs>
  <rect class="st0" width="4" height="6"/>
  <rect class="st0" x="4" width="8" height="3"/>
  <rect x="4" y="3" width="8" height="3"/>
  <g id="c">
    <path id="t" d="M2,2l-.3,1,.5.2"/>
    <path id="t1" data-name="t" d="M2,2l.3,1-.5.2"/>
  </g>
  <g id="c1" data-name="c">
    <path id="t2" data-name="t" d="M3,2.7h-1v.5"/>
    <path id="t3" data-name="t" d="M3,2.7l-.8.6-.3-.4"/>
  </g>
  <g id="c2" data-name="c">
    <path id="t4" data-name="t" d="M2.6,3.8l-.3-1-.5.2"/>
    <path id="t5" data-name="t" d="M2.6,3.8l-.8-.6.3-.4"/>
  </g>
  <g id="c3" data-name="c">
    <path id="t6" data-name="t" d="M1.4,3.8l.8-.6-.3-.4"/>
    <path id="t7" data-name="t" d="M1.4,3.8l.3-1,.5.2"/>
  </g>
  <g id="c4" data-name="c">
    <path id="t8" data-name="t" d="M1,2.7l.8.6.3-.4"/>
    <path id="t9" data-name="t" d="M1,2.7h1v.5"/>
  </g>
</svg>