<?xml version="1.0" encoding="UTF-8"?>
<svg id="Calque_1" xmlns="http://www.w3.org/2000/svg" version="1.1" viewBox="0 0 500 300">
  <!-- Generator: Adobe Illustrator 29.4.0, SVG Export Plug-In . SVG Version: 2.1.0 Build 152)  -->
  <defs>
    <style>
      .st0 {
        fill: #fff;
      }
    </style>
  </defs>
  <path d="M0,0h500v300H0V0Z"/>
  <path d="M42,42h416v216H42V42Z"/>
  <path class="st0" d="M42,42h416L42,258h416L42,42Z"/>
  <circle cx="250" cy="150" r="36"/>
  <path class="st0" d="M67.7,150.4c4.5,8.4,13.3,17.5,20.9,20.7.1-8.5-2.9-19.4-7-28.1l-13.9,7.4Z"/>
  <g>
    <path class="st0" d="M60.1,121.6c6.5,13.6-16.9,46.1,22.2,53.7-4.8-6.6-7.9-17.4-6.8-26.2,8.2,3.1,16.8,12.2,20.3,19.2,10.2-37.1-26.2-34.9-35.7-46.8Z"/>
    <polygon class="st0" points="142.9 23.3 138.5 36.8 150 28.4 161.5 36.8 157.1 23.3 168.5 15 154.4 15 150 1.5 145.6 15 131.5 15 142.9 23.3"/>
    <polygon class="st0" points="342.9 23.3 338.5 36.8 350 28.4 361.5 36.8 357.1 23.3 368.5 15 354.4 15 350 1.5 345.6 15 331.5 15 342.9 23.3"/>
    <polygon class="st0" points="242.9 23.3 238.5 36.8 250 28.4 261.5 36.8 257.1 23.3 268.5 15 254.4 15 250 1.5 245.6 15 231.5 15 242.9 23.3"/>
    <polygon class="st0" points="254.4 273 250 259.5 245.6 273 231.5 273 242.9 281.3 238.5 294.8 250 286.4 261.5 294.8 257.1 281.3 268.5 273 254.4 273"/>
    <polygon class="st0" points="357.1 281.3 368.5 273 354.4 273 350 259.5 345.6 273 331.5 273 342.9 281.3 338.5 294.8 350 286.4 361.5 294.8 357.1 281.3"/>
    <polygon class="st0" points="257.4 139.8 250 117 242.6 139.8 218.6 139.8 238 153.9 230.6 176.7 250 162.6 269.4 176.7 262 153.9 281.4 139.8 257.4 139.8"/>
    <polygon class="st0" points="154.4 273 150 259.5 145.6 273 131.5 273 142.9 281.3 138.5 294.8 150 286.4 161.5 294.8 157.1 281.3 168.5 273 154.4 273"/>
  </g>
</svg>