<?xml version="1.0" encoding="UTF-8"?>
<svg id="Calque_1" xmlns="http://www.w3.org/2000/svg" version="1.1" xmlns:xlink="http://www.w3.org/1999/xlink" viewBox="0 0 8192 4096">
  <!-- Generator: Adobe Illustrator 29.4.0, SVG Export Plug-In . SVG Version: 2.1.0 Build 152)  -->
  <defs>
    <style>
      .st0 {
        stroke-width: 409.6px;
      }

      .st0, .st1 {
        stroke: #fff;
      }

      .st0, .st2 {
        stroke-miterlimit: 10;
      }

      .st3 {
        fill: #fff;
      }

      .st4 {
        fill: none;
      }

      .st5 {
        clip-path: url(#clippath-1);
      }

      .st1 {
        stroke-width: 682.7px;
      }

      .st1, .st6 {
        stroke-miterlimit: 3.3;
      }

      .st2 {
        stroke-width: 273.1px;
      }

      .st2, .st6 {
        stroke: #000;
      }

      .st6 {
        stroke-width: 409.6px;
      }

      .st7 {
        clip-path: url(#clippath);
      }
    </style>
    <clipPath id="clippath">
      <rect class="st4" y="0" width="4096" height="2048"/>
    </clipPath>
    <clipPath id="clippath-1">
      <path class="st4" d="M0,0v1024h4096v1024L0,0ZM4096,0h-2048v2048H0L4096,0Z"/>
    </clipPath>
  </defs>
  <path d="M0,0h8192v4096H0V0Z"/>
  <g class="st7">
    <path class="st0" d="M0,0l4096,2048M4096,0L0,2048"/>
  </g>
  <g class="st5">
    <path class="st2" d="M0,0l4096,2048M4096,0L0,2048"/>
  </g>
  <path class="st1" d="M2048,0v2048M0,1024h4096"/>
  <path class="st6" d="M2048,0v2048M0,1024h4096"/>
  <g>
    <g id="d">
      <path id="a" class="st3" d="M2048,2457.6l118.5,368.4,361.9-137-214.1,322.3,332.8,197.5-385.5,33.5,53.1,383.3-266.6-280.5-266.6,280.5,53.1-383.3-385.5-33.5,332.8-197.5-214.1-322.3,361.9,137,118.5-368.4Z"/>
    </g>
    <path id="a1" data-name="a" class="st3" d="M6144,3120.8l56.4,175.4,172.3-65.3-102,153.5,158.5,94-183.6,16,25.3,182.5-126.9-133.6-126.9,133.6,25.3-182.5-183.6-16,158.5-94-102-153.5,172.3,65.3,56.4-175.4Z"/>
    <path id="a2" data-name="a" class="st3" d="M5120,1499.4l56.4,175.4,172.3-65.3-102,153.5,158.5,94-183.6,16,25.3,182.5-126.9-133.6-126.9,133.6,25.3-182.5-183.6-16,158.5-94-102-153.5,172.3,65.3,56.4-175.4Z"/>
    <path id="a3" data-name="a" class="st3" d="M6144,390.1l56.4,175.4,172.3-65.3-102,153.5,158.5,94-183.6,16,25.3,182.5-126.9-133.6-126.9,133.6,25.3-182.5-183.6-16,158.5-94-102-153.5,172.3,65.3,56.4-175.4Z"/>
    <path id="a4" data-name="a" class="st3" d="M7054.2,1226.4l56.4,175.4,172.3-65.3-102,153.5,158.5,94-183.6,16,25.3,182.5-126.9-133.6-126.9,133.6,25.3-182.5-183.6-16,158.5-94-102-153.5,172.3,65.3,56.4-175.4Z"/>
    <path id="e" class="st3" d="M6553.6,2048l44.6,109.3,117.7,8.6-90.2,76.2,28.2,114.6-100.3-62.2-100.3,62.2,28.2-114.6-90.2-76.2,117.7-8.6,44.6-109.3Z"/>
  </g>
</svg>