<?xml version="1.0" encoding="UTF-8"?>
<svg id="Calque_1" xmlns="http://www.w3.org/2000/svg" version="1.1" viewBox="0 0 630 360">
  <!-- Generator: Adobe Illustrator 29.4.0, SVG Export Plug-In . SVG Version: 2.1.0 Build 152)  -->
  <defs>
    <style>
      .st0 {
        fill: #fff;
      }

      .st1 {
        stroke-miterlimit: 11.2;
        stroke-width: 5.6px;
      }

      .st1, .st2 {
        fill: none;
        stroke: #fff;
      }

      .st2 {
        stroke-miterlimit: 5.6;
        stroke-width: 2.8px;
      }
    </style>
  </defs>
  <rect width="630" height="360"/>
  <rect class="st0" width="630" height="240"/>
  <rect width="630" height="120"/>
  <g>
    <g id="tb4">
      <g id="tb1">
        <path id="tbp1" class="st2" d="M8.4,101.8h36.4M9.8,114.4v-7h11.2v5.6h11.2v-5.6h-7M14,113h2.8M44.8,113h-7v-5.6h11.2M49,100.4v12.6h11.2v-12.6M54.6,100.4v12.6"/>
        <path id="tbp2" class="st1" d="M8.4,120h25.2M36.4,120h25.2"/>
        <path id="tbp21" data-name="tbp2" class="st1" d="M8.4,240h25.2M36.4,240h25.2"/>
        <path id="tbp11" data-name="tbp1" class="st2" d="M8.4,247h36.4M9.8,259.6v-7h11.2v5.6h11.2v-5.6h-7M14,258.2h2.8M44.8,258.2h-7v-5.6h11.2M49,245.6v12.6h11.2v-12.6M54.6,245.6v12.6"/>
      </g>
      <g id="tb3">
        <g id="tb11" data-name="tb1">
          <path id="tbp12" data-name="tbp1" class="st2" d="M64.4,101.8h36.4M65.8,114.4v-7h11.2v5.6h11.2v-5.6h-7M70,113h2.8M100.8,113h-7v-5.6h11.2M105,100.4v12.6h11.2v-12.6M110.6,100.4v12.6"/>
          <path id="tbp22" data-name="tbp2" class="st1" d="M64.4,120h25.2M92.4,120h25.2"/>
          <path id="tbp23" data-name="tbp2" class="st1" d="M64.4,240h25.2M92.4,240h25.2"/>
          <path id="tbp13" data-name="tbp1" class="st2" d="M64.4,247h36.4M65.8,259.6v-7h11.2v5.6h11.2v-5.6h-7M70,258.2h2.8M100.8,258.2h-7v-5.6h11.2M105,245.6v12.6h11.2v-12.6M110.6,245.6v12.6"/>
        </g>
        <g id="tb12" data-name="tb1">
          <path id="tbp14" data-name="tbp1" class="st2" d="M120.4,101.8h36.4M121.8,114.4v-7h11.2v5.6h11.2v-5.6h-7M126,113h2.8M156.8,113h-7v-5.6h11.2M161,100.4v12.6h11.2v-12.6M166.6,100.4v12.6"/>
          <path id="tbp24" data-name="tbp2" class="st1" d="M120.4,120h25.2M148.4,120h25.2"/>
          <path id="tbp25" data-name="tbp2" class="st1" d="M120.4,240h25.2M148.4,240h25.2"/>
          <path id="tbp15" data-name="tbp1" class="st2" d="M120.4,247h36.4M121.8,259.6v-7h11.2v5.6h11.2v-5.6h-7M126,258.2h2.8M156.8,258.2h-7v-5.6h11.2M161,245.6v12.6h11.2v-12.6M166.6,245.6v12.6"/>
        </g>
        <g id="tb13" data-name="tb1">
          <path id="tbp16" data-name="tbp1" class="st2" d="M176.4,101.8h36.4M177.8,114.4v-7h11.2v5.6h11.2v-5.6h-7M182,113h2.8M212.8,113h-7v-5.6h11.2M217,100.4v12.6h11.2v-12.6M222.6,100.4v12.6"/>
          <path id="tbp26" data-name="tbp2" class="st1" d="M176.4,120h25.2M204.4,120h25.2"/>
          <path id="tbp27" data-name="tbp2" class="st1" d="M176.4,240h25.2M204.4,240h25.2"/>
          <path id="tbp17" data-name="tbp1" class="st2" d="M176.4,247h36.4M177.8,259.6v-7h11.2v5.6h11.2v-5.6h-7M182,258.2h2.8M212.8,258.2h-7v-5.6h11.2M217,245.6v12.6h11.2v-12.6M222.6,245.6v12.6"/>
        </g>
      </g>
    </g>
    <g id="tb31" data-name="tb3">
      <g id="tb14" data-name="tb1">
        <path id="tbp18" data-name="tbp1" class="st2" d="M232.4,101.8h36.4M233.8,114.4v-7h11.2v5.6h11.2v-5.6h-7M238,113h2.8M268.8,113h-7v-5.6h11.2M273,100.4v12.6h11.2v-12.6M278.6,100.4v12.6"/>
        <path id="tbp28" data-name="tbp2" class="st1" d="M232.4,120h25.2M260.4,120h25.2"/>
        <path id="tbp29" data-name="tbp2" class="st1" d="M232.4,240h25.2M260.4,240h25.2"/>
        <path id="tbp19" data-name="tbp1" class="st2" d="M232.4,247h36.4M233.8,259.6v-7h11.2v5.6h11.2v-5.6h-7M238,258.2h2.8M268.8,258.2h-7v-5.6h11.2M273,245.6v12.6h11.2v-12.6M278.6,245.6v12.6"/>
      </g>
      <g id="tb15" data-name="tb1">
        <path id="tbp110" data-name="tbp1" class="st2" d="M288.4,101.8h36.4M289.8,114.4v-7h11.2v5.6h11.2v-5.6h-7M294,113h2.8M324.8,113h-7v-5.6h11.2M329,100.4v12.6h11.2v-12.6M334.6,100.4v12.6"/>
        <path id="tbp210" data-name="tbp2" class="st1" d="M288.4,120h25.2M316.4,120h25.2"/>
        <path id="tbp211" data-name="tbp2" class="st1" d="M288.4,240h25.2M316.4,240h25.2"/>
        <path id="tbp111" data-name="tbp1" class="st2" d="M288.4,247h36.4M289.8,259.6v-7h11.2v5.6h11.2v-5.6h-7M294,258.2h2.8M324.8,258.2h-7v-5.6h11.2M329,245.6v12.6h11.2v-12.6M334.6,245.6v12.6"/>
      </g>
      <g id="tb16" data-name="tb1">
        <path id="tbp112" data-name="tbp1" class="st2" d="M344.4,101.8h36.4M345.8,114.4v-7h11.2v5.6h11.2v-5.6h-7M350,113h2.8M380.8,113h-7v-5.6h11.2M385,100.4v12.6h11.2v-12.6M390.6,100.4v12.6"/>
        <path id="tbp212" data-name="tbp2" class="st1" d="M344.4,120h25.2M372.4,120h25.2"/>
        <path id="tbp213" data-name="tbp2" class="st1" d="M344.4,240h25.2M372.4,240h25.2"/>
        <path id="tbp113" data-name="tbp1" class="st2" d="M344.4,247h36.4M345.8,259.6v-7h11.2v5.6h11.2v-5.6h-7M350,258.2h2.8M380.8,258.2h-7v-5.6h11.2M385,245.6v12.6h11.2v-12.6M390.6,245.6v12.6"/>
      </g>
    </g>
    <g id="tb41" data-name="tb4">
      <g id="tb17" data-name="tb1">
        <path id="tbp114" data-name="tbp1" class="st2" d="M400.4,101.8h36.4M401.8,114.4v-7h11.2v5.6h11.2v-5.6h-7M406,113h2.8M436.8,113h-7v-5.6h11.2M441,100.4v12.6h11.2v-12.6M446.6,100.4v12.6"/>
        <path id="tbp214" data-name="tbp2" class="st1" d="M400.4,120h25.2M428.4,120h25.2"/>
        <path id="tbp215" data-name="tbp2" class="st1" d="M400.4,240h25.2M428.4,240h25.2"/>
        <path id="tbp115" data-name="tbp1" class="st2" d="M400.4,247h36.4M401.8,259.6v-7h11.2v5.6h11.2v-5.6h-7M406,258.2h2.8M436.8,258.2h-7v-5.6h11.2M441,245.6v12.6h11.2v-12.6M446.6,245.6v12.6"/>
      </g>
      <g id="tb32" data-name="tb3">
        <g id="tb18" data-name="tb1">
          <path id="tbp116" data-name="tbp1" class="st2" d="M456.4,101.8h36.4M457.8,114.4v-7h11.2v5.6h11.2v-5.6h-7M462,113h2.8M492.8,113h-7v-5.6h11.2M497,100.4v12.6h11.2v-12.6M502.6,100.4v12.6"/>
          <path id="tbp216" data-name="tbp2" class="st1" d="M456.4,120h25.2M484.4,120h25.2"/>
          <path id="tbp217" data-name="tbp2" class="st1" d="M456.4,240h25.2M484.4,240h25.2"/>
          <path id="tbp117" data-name="tbp1" class="st2" d="M456.4,247h36.4M457.8,259.6v-7h11.2v5.6h11.2v-5.6h-7M462,258.2h2.8M492.8,258.2h-7v-5.6h11.2M497,245.6v12.6h11.2v-12.6M502.6,245.6v12.6"/>
        </g>
        <g id="tb19" data-name="tb1">
          <path id="tbp118" data-name="tbp1" class="st2" d="M512.4,101.8h36.4M513.8,114.4v-7h11.2v5.6h11.2v-5.6h-7M518,113h2.8M548.8,113h-7v-5.6h11.2M553,100.4v12.6h11.2v-12.6M558.6,100.4v12.6"/>
          <path id="tbp218" data-name="tbp2" class="st1" d="M512.4,120h25.2M540.4,120h25.2"/>
          <path id="tbp219" data-name="tbp2" class="st1" d="M512.4,240h25.2M540.4,240h25.2"/>
          <path id="tbp119" data-name="tbp1" class="st2" d="M512.4,247h36.4M513.8,259.6v-7h11.2v5.6h11.2v-5.6h-7M518,258.2h2.8M548.8,258.2h-7v-5.6h11.2M553,245.6v12.6h11.2v-12.6M558.6,245.6v12.6"/>
        </g>
        <g id="tb110" data-name="tb1">
          <path id="tbp120" data-name="tbp1" class="st2" d="M568.4,101.8h36.4M569.8,114.4v-7h11.2v5.6h11.2v-5.6h-7M574,113h2.8M604.8,113h-7v-5.6h11.2M609,100.4v12.6h11.2v-12.6M614.6,100.4v12.6"/>
          <path id="tbp220" data-name="tbp2" class="st1" d="M568.4,120h25.2M596.4,120h25.2"/>
          <path id="tbp221" data-name="tbp2" class="st1" d="M568.4,240h25.2M596.4,240h25.2"/>
          <path id="tbp121" data-name="tbp1" class="st2" d="M568.4,247h36.4M569.8,259.6v-7h11.2v5.6h11.2v-5.6h-7M574,258.2h2.8M604.8,258.2h-7v-5.6h11.2M609,245.6v12.6h11.2v-12.6M614.6,245.6v12.6"/>
        </g>
      </g>
    </g>
  </g>
  <g>
    <g id="emblem_half">
      <path d="M290.3,217.6c21.6,7,44.7-4.8,51.7-26.4,5.1-15.7.3-33-12.3-43.8,13.9,20.6,8.5,48.6-12.1,62.5-8.1,5.4-17.7,8.1-27.4,7.7"/>
      <path d="M342.8,209.8c16.4-9.5,22.1-30.5,12.6-47-4.7-8.1-12.4-13.9-21.4-16.1,19.9,14.9,23.9,43.1,8.9,63,0,0,0,0,0,.1"/>
      <path d="M315,225l-2.3-45,2.3-35.4c1.4,1.9,3.2,3.4,5.3,4.5v26.5l-1.8,44.7-3.5,4.8Z"/>
      <path d="M314.1,141.7l.9.8c2.1,2.9,6.1,3.6,9,1.6,2.5-1.7,3.4-4.9,2.3-7.7-.6,3.3-3.8,5.5-7.2,4.9-1.8-.3-3.3-1.4-4.2-3"/>
    </g>
    <g id="emblem_half1" data-name="emblem_half">
      <path d="M339.7,217.6c-21.6,7-44.7-4.8-51.7-26.4-5.1-15.7-.3-33,12.3-43.8-13.9,20.6-8.5,48.6,12.1,62.5,8.1,5.4,17.7,8.1,27.4,7.7"/>
      <path d="M287.2,209.8c-16.4-9.5-22.1-30.5-12.6-47,4.7-8.1,12.4-13.9,21.4-16.1-19.9,14.9-23.9,43.1-8.9,63,0,0,0,0,0,.1"/>
      <path d="M315,225l2.3-45-2.3-35.4c-1.4,1.9-3.2,3.4-5.3,4.5v26.5l1.8,44.7,3.5,4.8Z"/>
      <path d="M315.9,141.7l-.9.8c-2.1,2.9-6.1,3.6-9,1.6-2.5-1.7-3.4-4.9-2.3-7.7.6,3.3,3.8,5.5,7.2,4.9,1.8-.3,3.3-1.4,4.2-3"/>
    </g>
  </g>
</svg>