<?xml version="1.0" encoding="UTF-8"?>
<svg id="Calque_1" xmlns="http://www.w3.org/2000/svg" version="1.1" viewBox="0 0 900 600">
  <!-- Generator: Adobe Illustrator 29.4.0, SVG Export Plug-In . SVG Version: 2.1.0 Build 152)  -->
  <defs>
    <style>
      .st0 {
        fill: #fff;
      }
    </style>
  </defs>
  <path d="M0,0h900v600H0V0Z"/>
  <path class="st0" d="M0,200h900v400H0V200Z"/>
  <path d="M0,400h900v200H0v-200Z"/>
  <g>
    <path d="M537.7,262.6c-1.2-.6-2.6-1.7-3.1-2.3-.7-1-.3-1,2.5-.2,5.1,1.4,8.4.8,11.6-1.9l2.9-2.4,3.4,1.7c1.9.9,3.8,1.6,4.4,1.4,1.5-.4,4.5-4.3,4.4-5.6-.1-1.7,1.3-1.2,2,.6,1.3,3.6-.6,7.7-4.1,8.6-1.7.4-3.3.3-5.8-.6-3.1-1.1-3.7-1.1-5.3.1-3.5,2.7-8.5,3-12.9.7h0ZM550.3,251.1c-1.2-1.6-2.7-7.5-2.2-9,.4-1.3.9-1.5,2-1.2,2,.6,2.5,2,2.2,6.7-.2,3.8-.8,4.8-1.9,3.4h0ZM402.4,246.8c-.4,2.9,5.1,10,7.6,11.3-1.7.8-3.8.4-5.3,1.3-8.6,8.6-40.2,39.4-46,46.8,17.1.3,36-.2,52-1,0-11.6,11-12.2,18.4-16.4,3.8,6,13.3,5.5,14.5,14.5,0,10.8,0,26.9,0,38.6h-145.9c-2.6,11.3-12.8,20-27.1,16.4,4.4-4.6,11.8-6.2,14.5-12.6,2.2-13.9-4.5-22.5-8.8-30.5,7.2-2.6,8.3-3.3,15.6-8.2-5.1,15.6,13.3,13.9,27.1,13.5.5-5.3.2-11.5-3.9-12.3,5.2-1.9,6.1-2.6,14.5-9.7v21c32.6,0,67.8-.2,101-.2,0-6.6,1.7-17.1-3.5-17.1s-.2,13.5-4.1,13.5h-78c0-2.9,0-9,0-13.4,3.3-3.3,2.9-3,25.5-25.6,2.3-2.3,18.1-16.6,32-30h0ZM597.5,246.3c5.4,2.9,9.8,7,16.4,8.7-.8,2.8-3.2,3.9-3.9,6.8v58.9c7.4,1.6,9-2.6,12.6-4.8,1,9.4,7,18.7,6.8,26.1h-31.9c0-31.9,0-63.8,0-95.6h0ZM555,277.8s11.6-9.8,11.6-10.2v51.4h8.4c0-19.6-.3-39.5-.3-57.7,3.4-3.4,10-8.3,11.7-11.7v92.1c-23.5,0-67.4,0-73.2,0-1.1-19.1-1.3-38.9,21-34.7v-7.8c-.7-1.3-1.9.3-2.2-1.4,3.5-3.5,4.7-4.4,14.3-12.8,0,10.1.2,33.9.2,33.9,2.3,0,6.9,0,8.4,0,0,0,0-39.9,0-41.2h0ZM527.5,318.6c1.6,2.4,6.9,2.3,6.7-1.7-.9-3.3-7.9-2-6.7,1.7Z"/>
    <circle cx="315.5" cy="352.8" r="4.5"/>
    <path d="M453.5,246.4c5.4,2.9,9.8,7,16.4,8.7-.8,2.8-3.2,3.9-3.9,6.8v58.9c7.4,1.6,9-2.6,12.6-4.8,1,9.4,7,18.7,6.8,26.1h-31.9c0-31.9,0-63.8,0-95.6h0Z"/>
  </g>
</svg>