<?xml version="1.0" encoding="UTF-8"?>
<svg id="Calque_1" xmlns="http://www.w3.org/2000/svg" version="1.1" viewBox="0 0 240 160">
  <!-- Generator: Adobe Illustrator 29.4.0, SVG Export Plug-In . SVG Version: 2.1.0 Build 152)  -->
  <defs>
    <style>
      .st0 {
        fill: #fff;
      }

      .st1 {
        stroke: #000;
        stroke-miterlimit: 10;
        stroke-width: 1px;
      }
    </style>
  </defs>
  <rect class="st0" width="240" height="160"/>
  <rect width="240" height="48"/>
  <rect y="112" width="240" height="48"/>
  <g id="spear">
    <path id="spearshape" class="st1" d="M91.4,127.5l1.7,1,46.7-80.9c2.7-.7,4.2-3.3,5.7-5.9s5-8.7,6.7-17.7c-6.9,6-10.9,12.9-11.9,14.7-1.5,2.6-3,5.2-2.3,7.9l-46.7,80.9Z"/>
    <path id="spearshape1" data-name="spearshape" class="st0" d="M91.4,127.5l1.7,1,46.7-80.9c2.7-.7,4.2-3.3,5.7-5.9s5-8.7,6.7-17.7c-6.9,6-10.9,12.9-11.9,14.7-1.5,2.6-3,5.2-2.3,7.9l-46.7,80.9Z"/>
  </g>
  <g id="spear1" data-name="spear">
    <path id="spearshape2" data-name="spearshape" class="st1" d="M148.6,127.5l-1.7,1-46.7-80.9c-2.7-.7-4.2-3.3-5.7-5.9s-5-8.7-6.7-17.7c6.9,6,10.9,12.9,11.9,14.7,1.5,2.6,3,5.2,2.3,7.9l46.7,80.9Z"/>
    <path id="spearshape3" data-name="spearshape" class="st0" d="M148.6,127.5l-1.7,1-46.7-80.9c-2.7-.7-4.2-3.3-5.7-5.9s-5-8.7-6.7-17.7c6.9,6,10.9,12.9,11.9,14.7,1.5,2.6,3,5.2,2.3,7.9l46.7,80.9Z"/>
  </g>
  <path class="st0" d="M0,56v48h101c3,8,13,24,19,24s16-16,19-24h101v-48h-101c-3-8-13-24-19-24s-16,16-19,24H0Z"/>
  <path id="deco_r" d="M139,104c3-8,5-16,5-24s-2-16-5-24c-3,8-5,16-5,24s2,16,5,24"/>
  <path id="deco_r1" data-name="deco_r" d="M101,104c-3-8-5-16-5-24s2-16,5-24c3,8,5,16,5,24s-2,16-5,24"/>
  <g>
    <ellipse cx="120" cy="80" rx="4" ry="6"/>
    <path id="deco_br" d="M121,85.8s4,8,4,21-4,21-4,21v-42Z"/>
    <path id="deco_br1" data-name="deco_br" d="M119,74.2s-4-8-4-21,4-21,4-21v42Z"/>
    <path id="deco_br2" data-name="deco_br" d="M119,85.8s-4,8-4,21,4,21,4,21v-42Z"/>
    <path id="deco_br3" data-name="deco_br" d="M121,74.2s4-8,4-21-4-21-4-21v42Z"/>
  </g>
</svg>