<?xml version="1.0" encoding="UTF-8"?>
<svg id="Calque_1" xmlns="http://www.w3.org/2000/svg" version="1.1" viewBox="0 0 1000 600">
  <!-- Generator: Adobe Illustrator 29.4.0, SVG Export Plug-In . SVG Version: 2.1.0 Build 152)  -->
  <defs>
    <style>
      .st0 {
        fill: #fff;
      }
    </style>
  </defs>
  <path d="M0,0h1000v600H0V0Z"/>
  <path class="st0" d="M454.9,259.3c-11.2-6.9-23-12.7-35.2-17.4-10.9,16-16.6,35-16.6,54.4,0,9.8,1.5,19.5,4.4,28.8,5.2-11.9,11.7-23.3,19.3-33.9,8.1-11.6,17.6-22.3,28.1-31.8h0ZM425.1,234.7c13.2,4.6,26,10.5,38.1,17.4,2.7-2.4,5.6-4.4,8.3-6.4-12.9-7.1-26.6-12.9-40.6-17.3-2.1,2-4,4.1-5.8,6.3h0ZM436.9,222.7c15.1,4,29.7,9.7,43.5,16.9,3.2-2,6.4-3.9,9.5-5.8-14.6-7.4-30-13-45.9-16.8-2.5,1.7-4.9,3.5-7.1,5.6ZM451.3,212.5c16.7,3.3,32.9,8.8,48.3,16.3,15.4-7.4,31.6-12.9,48.3-16.3-29.8-17.4-66.7-17.4-96.5,0ZM555.1,217.3c-15.9,3.7-31.3,9.3-45.9,16.6,3.2,1.9,6.4,3.8,9.5,5.8,13.8-7.2,28.4-12.9,43.5-16.9-2.2-2-4.6-3.9-7.1-5.4h0ZM568.3,228.6c-14.1,4.3-27.7,10-40.6,17.1,2.9,2.1,5.7,4.2,8.5,6.4,12.1-7,24.8-12.8,37.9-17.4-1.7-2.2-3.6-4.3-5.8-6.1h0ZM579.5,242c-12.2,4.6-24,10.4-35.1,17.3,10.5,9.6,19.9,20.2,28.1,31.8,7.5,10.7,14,22,19.3,33.9,2.8-9.3,4.2-19,4.2-28.8,0-19.3-5.7-38.2-16.6-54.2h0ZM571.2,308.4c-9.9-16-22-30.6-35.9-43.4-3,2.2-6.3,4.4-9.1,6.6,23.6,22,41.7,49.1,53,79.3,2.7-4,5.1-8.2,7.3-12.5-4.3-10.4-9.4-20.4-15.2-30h0ZM517.5,264.4c3-2.2,6.1-4.4,9.3-6.4-2.7-2.4-5.6-4.6-8.5-6.8-3.2,2-6.4,4.1-9.7,6.3h.2c2.9,2.2,5.8,4.6,8.6,6.9h0ZM499.6,250.8c3.2-2,6.6-4.1,9.7-5.9-3.2-2-6.4-4.1-9.7-5.9-3.2,1.9-6.3,3.9-9.5,5.9,3.2,1.9,6.3,3.9,9.5,5.9ZM490.4,257.4c-3.2-2.2-6.3-4.2-9.5-6.3l-8.6,6.6c3.2,2.2,6.3,4.2,9.3,6.4,2.9-2.3,5.8-4.6,8.8-6.8h0ZM499.6,264.2c-2.9,2.2-5.8,4.6-8.8,7.1,3,2.4,5.9,4.9,8.8,7.5,2.9-2.5,5.8-5.1,8.8-7.5-2.9-2.4-5.8-4.9-8.8-7.1h0ZM499.6,295.8c-13.2,14.3-24.5,30.3-33.4,47.6-6.1,11.7-11.1,23.9-14.9,36.6,29.9,16.9,66.6,16.9,96.5,0-3.8-12.6-8.8-24.9-14.9-36.6-8.8-17.3-20.1-33.4-33.4-47.6h0ZM443.7,360c10.6-27.3,26.7-52.1,47.2-73-2.9-2.7-5.8-5.2-8.8-8-23.9,23.1-42.1,51.5-53.2,82.8,3.2,3.5,6.6,6.8,10.3,9.8,1.4-3.9,2.9-7.8,4.4-11.7h0ZM508.2,287c20.5,20.9,36.6,45.7,47.4,73,1.5,3.9,2.9,7.8,4.2,11.7,3.7-3,7.3-6.3,10.5-9.8-11.2-31.3-29.4-59.7-53.3-82.8-3,2.7-5.9,5.2-8.8,8h0ZM420,350.9c11.3-30.2,29.5-57.2,53.2-79.1-3-2.4-6.1-4.6-9.3-6.8-13.9,12.8-26,27.5-35.9,43.5-5.8,9.5-10.9,19.5-15.2,29.8,2.1,4.4,4.5,8.6,7.3,12.5h0ZM500.1,191.7c59.8,0,108.2,48.4,108.2,108.2,0,59.8-48.4,108.2-108.2,108.2-59.8,0-108.2-48.4-108.2-108.2.1-59.7,48.5-108.1,108.2-108.2h0ZM547.8,168c-4,4.6-7.3,9.8-9.8,15.4-.8-2.1-.9-4.3-.3-6.4.8-7.8,3-12.5,7.1-19.1,1.4-2.4,2.7-4.4,3.4-6.9,2.9-8.7,1.5-18.2-3.6-25.7.8,7.4-1,14.8-4.9,21-.5.8-1,1.4-1.7,2-4.4,4.1-8.2,8.7-11.3,13.9-3.2,5.2-5.8,10.9-7.5,16.8-1-1.9-1.4-4-1.2-6.1-.3-8,1-12.9,3.9-20.2,1.1-2.4,1.9-4.9,2.4-7.5,1.2-7.8-.8-17.8-7.6-24.7,1.9,7.1,1.4,14.7-1.5,21.5-.4.8-.9,1.5-1.4,2.2-3.7,4.7-6.7,9.9-9.1,15.4-2.3,5.7-3.8,11.7-4.6,17.8-1.4-1.7-2.1-3.8-2.2-5.9-1.5-7.8-1-12.9.7-20.5.8-2.5,1.2-5,1.2-7.6,0-9.1-4.2-17.7-11.4-23.4,3,6.8,3.7,14.4,1.9,21.7-.3.7-.7,1.5-1,2.2-2,4.2-4.4,8.3-6.6,16.8-1.4,6-2,12.1-1.9,18.3-1.4-1.5-2.5-3.4-3-5.4-2.7-7.6-3-12.5-2.4-20.5.3-2.5.3-5.1,0-7.6-1.4-8-6.4-16.8-14.9-21.3,4,6.2,5.8,13.6,5.1,21l-.5,2.5c-2,5.7-3.3,11.6-3.9,17.6-.5,6.1-.2,12.3,1,18.3-1.7-1.3-3-3-3.9-4.9-3.9-7.1-4.9-12-5.6-19.8,0-2.6-.5-5.2-1.4-7.6-2.4-7.6-8.8-15.6-18-18.6,5.9,6.6,8.3,14.2,8.3,19.8,0,.9,0,1.7-.2,2.5-1.1,5.9-1.4,11.9-1,18,.5,6.1,1.8,12.2,3.9,17.9-1.9-1-3.6-2.4-4.7-4.2-4.9-6.3-6.6-11-8.5-18.6-.5-2.6-1.4-5.1-2.5-7.5-3.6-6.9-11.2-13.9-20.7-15.6,6.8,5.8,10.3,13,11.3,18.5.1.8.2,1.7.2,2.5,0,6,.6,12.1,1.9,18,1.4,5.9,3.6,11.6,6.6,16.9-2-.7-3.8-1.8-5.2-3.4-5.9-5.4-8.5-9.8-11.3-17.1-.9-2.4-2.1-4.8-3.6-6.9-4.7-6.3-13.2-11.9-23-12,7.8,4.6,12.4,11,14.2,16.3l.5,2.5c.8,4.6,1.4,9.3,4.6,17.4,2.4,5.7,5.5,11,9.3,15.8-2.1-.3-4.1-1.2-5.8-2.5-6.6-4.4-9.8-8.5-14.1-15.1-1.2-2.3-2.7-4.4-4.6-6.3-5.6-5.6-14.9-9.8-24.6-8.5,8.3,3.4,13.9,9.1,16.6,14.1.3.7.7,1.5,1,2.4,1.5,4.2,2.7,8.8,7.1,16.4,3.2,5.3,7.2,10,11.7,14.2-2.1,0-4.2-.7-6.1-1.7-7.3-3.4-11-6.8-16.1-12.7-1.7-2-3.6-3.9-5.6-5.6-6.4-4.6-16.3-7.3-25.6-4.4,8.8,2,15.2,6.8,18.5,11.2.6.6,1.1,1.4,1.4,2.2,2.6,5.4,5.9,10.5,9.8,15.1,3.9,4.8,8.4,8.9,13.5,12.4-2.1.3-4.3,0-6.3-.8-7.6-2-11.9-4.9-17.8-10-1.9-1.7-4-3.2-6.3-4.6-8.2-4-17.8-4.1-26.1-.3,7.4.4,14.5,3.2,20.2,8.1.5.6,1.1,1.3,1.5,2,2.9,3.6,5.4,7.6,12,13.4,4.7,4,9.9,7.4,15.4,10-2,.7-4.2.7-6.3.2-8-.8-12.5-3-19.3-7.1-2.4-1.4-4.4-2.7-6.9-3.4-8.6-2.8-18.1-1.5-25.6,3.6,7.4-.8,14.7,1,21,4.9.7.5,1.3,1,1.9,1.7,3.4,3.2,6.6,6.8,13.9,11.3,5.2,3.3,10.8,5.8,16.8,7.5-1.9,1-4,1.5-6.1,1.4-8,.2-12.9-1.2-20.2-4.1-2.4-1.1-4.9-1.9-7.5-2.4-7.8-1.2-17.8.8-24.7,7.6,8.6-2.2,16.6-.8,21.5,1.5.8.4,1.5.9,2.2,1.4,9.6,7.6,21.1,12.3,33.2,13.7-1.6,1.3-3.6,2.1-5.8,2.2-8,1.7-12.9,1-20.7-.7-2.5-.7-5-1.1-7.6-1.2-8,0-17.4,3.6-23.2,11.3,6.8-3,14.3-3.7,21.5-1.9.8.3,1.5.7,2.4,1,5.3,2.9,10.9,5.1,16.8,6.6,5.9,1.4,12,2,18.1,1.9-1.5,1.4-3.4,2.5-5.4,3-7.5,2.7-12.5,3-20.3,2.4-2.6-.3-5.2-.3-7.8,0-7.8,1.4-16.6,6.4-21.2,15.1,6.2-4.1,13.6-6,21-5.2.8.2,1.5.3,2.4.5,11.5,4.2,23.9,5.2,35.9,2.9-1.3,1.7-3,3-4.9,3.9-6.9,3.9-12,4.9-19.8,5.6-2.6.2-5.1.6-7.6,1.4-8.6,2.8-15.5,9.4-18.6,18,5.5-5,12.6-7.9,20-8.3.9,0,1.7,0,2.5.2,5.9,1.1,11.9,1.4,18,1,6.1-.4,12.1-1.7,17.8-3.9-.9,2-2.4,3.7-4.2,4.7-6.3,4.9-11,6.6-18.6,8.5-2.5.5-5,1.4-7.3,2.5-8.1,4.1-13.8,11.8-15.6,20.7,4.6-5.7,11.1-9.7,18.3-11.3.8-.1,1.7-.2,2.5-.2,6,0,12.1-.6,18-1.9,6-1.4,11.7-3.6,17.1-6.6-.7,2-1.9,3.9-3.6,5.2-5.4,5.9-9.8,8.5-17.1,11.3-2.3,1-4.6,2.2-6.8,3.6-6.4,4.7-12,13.2-12.2,23,3.7-6.5,9.5-11.5,16.4-14.2.8-.2,1.5-.3,2.4-.5,4.6-.8,9.3-1.4,17.4-4.6,5.7-2.4,11-5.5,15.9-9.1-.4,2.1-1.3,4-2.7,5.6-4.4,6.6-8.3,9.8-15.1,14.1-2.3,1.3-4.4,2.8-6.3,4.6-6.4,6.5-9.4,15.5-8.3,24.6,2.6-7,7.5-12.8,13.9-16.6.8-.3,1.5-.7,2.4-1,5.8-1.6,11.3-4,16.4-7.1,5.3-3.2,10-7.2,14.2-11.7,0,2.2-.5,4.3-1.7,6.1-3.4,7.3-6.8,11-12.7,16.1-2,1.6-3.8,3.5-5.4,5.6-4.6,6.4-7.3,16.3-4.4,25.6,1.9-8.8,6.6-15.2,11.2-18.5.6-.5,1.3-1,2-1.4,5.4-2.7,10.6-6,15.2-9.8,4.7-3.9,8.8-8.5,12.2-13.5.3,2.1,0,4.3-.7,6.3-2.2,7.6-4.9,11.9-10.2,17.8-1.8,1.9-3.2,4.1-4.4,6.4-3.6,7.1-4.7,17.1-.5,25.9.7-9,4.4-16.1,8.3-20,.5-.7,1.2-1.2,1.9-1.7,3.7-2.9,7.6-5.4,13.4-12,4-4.7,7.4-9.9,10-15.4.6,2,.7,4.2.3,6.3-1,8-3,12.5-7.1,19.3-1.5,2.1-2.7,4.5-3.6,6.9-2.4,7.6-1.9,17.8,3.7,25.7-.8-9,1.7-16.6,4.9-21.2.5-.7,1-1.3,1.5-1.9,3.2-3.4,6.8-6.6,11.5-13.9,3.1-5.2,5.6-10.9,7.3-16.8,1,1.9,1.5,4,1.4,6.1.3,8-1,12.9-4.1,20.2-1,2.4-1.8,4.9-2.4,7.5-1.2,7.8.8,17.8,7.6,24.7-2.2-8.6-.8-16.6,1.7-21.5.3-.8.7-1.5,1.2-2.2,3.8-4.7,6.8-10,9.1-15.6,2.4-5.6,4-11.5,4.7-17.6,1.2,1.7,2,3.7,2.2,5.8,1.5,8,1,12.9-.8,20.7-.7,2.5-1.1,5-1.2,7.6,0,9.1,4.3,17.7,11.5,23.2-3.6-8.1-3.6-16.1-1.9-21.5.2-.8.5-1.6.8-2.4,2.9-5.3,5.1-10.9,6.6-16.8,1.4-5.9,2-12,1.9-18.1,1.5,1.5,2.6,3.4,3,5.4,2.9,7.5,3,12.5,2.5,20.5-.4,2.5-.4,5.1,0,7.6,1.4,9,6.9,16.9,14.9,21.3-4.7-7.6-5.9-15.6-5.1-21,0-.9.2-1.7.5-2.5,2-5.7,3.3-11.6,3.9-17.6.3-6.1,0-12.3-1-18.3,1.6,1.3,3,3,3.9,4.9,3.9,6.9,4.9,12,5.6,19.8,0,2.6.4,5.1,1.2,7.6,2.9,8.7,9.6,15.5,18.1,18.6-5.9-6.8-8.3-14.4-8.5-20,0-.9,0-1.7.2-2.5,1.2-5.9,1.5-11.9,1-18-.4-6.1-1.7-12-3.7-17.8,1.9,1,3.5,2.4,4.6,4.2,4.9,6.3,6.8,11,8.6,18.6.5,2.5,1.3,5,2.4,7.3,3.7,7.1,11.2,13.9,20.8,15.6-5.8-4.6-9.9-11-11.5-18.3-.1-.8-.2-1.7-.2-2.5.2-6-.4-12.1-1.7-18-1.5-6-3.8-11.7-6.8-17.1,2.1.6,3.9,1.9,5.2,3.6,5.9,5.4,8.5,9.8,11.5,17.1.9,2.4,2.1,4.7,3.6,6.8,4.7,6.4,13.2,12,22.9,12.2-6.4-3.7-11.4-9.5-14.1-16.4-.3-.8-.5-1.6-.7-2.4-.7-6-2.3-11.9-4.6-17.4-2.3-5.7-5.4-11-9.1-15.8,2.1.2,4.1,1.1,5.8,2.5,6.6,4.4,9.8,8.3,13.9,15.1,1.3,2.3,2.8,4.4,4.6,6.3,6.5,6.4,15.5,9.4,24.6,8.3-8.3-3.2-13.9-9-16.4-13.9-.5-.7-.8-1.5-1-2.4-1.8-5.7-4.2-11.3-7.3-16.4-3.2-5.2-7.1-10-11.5-14.2,2.1,0,4.2.6,6.1,1.7,7.1,3.4,11,6.8,16.1,12.7,1.5,2.1,3.4,3.9,5.4,5.4,7.4,5.3,16.8,7,25.6,4.6-8.6-2-15.1-6.8-18.5-11.3-.5-.6-1-1.3-1.4-2-2.2-4.1-4.1-8.5-9.7-15.2-4.1-4.6-8.7-8.7-13.7-12.2,2.1-.3,4.3,0,6.3.7,7.6,2.2,11.9,5.1,18,10.2,1.9,1.7,4,3.2,6.3,4.4,7.1,3.6,17.1,4.7,25.9.5-9-.7-15.9-4.4-20-8.3-.7-.5-1.2-1.2-1.7-1.9-3.4-4.9-7.4-9.4-11.9-13.4-4.7-3.9-9.9-7.3-15.4-10,2-.6,4.2-.7,6.3-.3,7.8,1,12.5,3,19.1,7.3,2.2,1.4,4.5,2.5,6.9,3.4,7.6,2.4,17.8,1.9,25.7-3.7-9,.8-16.4-1.7-21-4.9l-2-1.5c-4.1-4.4-8.8-8.3-13.9-11.5-5.2-3.2-10.9-5.6-16.8-7.3,1.9-1,4-1.5,6.1-1.4,8.1-.3,13,1,20.2,4.1,2.4,1,4.9,1.8,7.5,2.4,7.8,1.2,17.8-.8,24.7-7.6-8.6,2.2-16.4.8-21.5-1.7-.8-.3-1.5-.7-2.2-1.2-4.7-3.7-9.9-6.7-15.4-9.1-5.7-2.3-11.7-3.9-17.8-4.7,1.8-1.2,3.8-2,5.9-2.2,7.8-1.5,12.9-1,20.5.8,2.5.7,5,1.1,7.6,1.2,9.1-.1,17.7-4.3,23.4-11.3-8.3,3.4-16.3,3.4-21.5,1.7-.8-.2-1.6-.5-2.4-.8-4.2-2-8.3-4.4-16.8-6.6-6-1.4-12.1-2-18.3-1.9,1.5-1.5,3.4-2.6,5.4-3,7.6-2.9,12.7-3,20.5-2.5,2.6.4,5.2.4,7.8,0,9-1.4,16.8-6.9,21.2-14.9-7.6,4.7-15.4,5.9-21,5.2-.9-.1-1.7-.4-2.5-.7-5.6-2-11.5-3.3-17.4-3.9-6.1-.4-12.3,0-18.3,1.2,1.2-1.8,2.9-3.2,4.9-4.1,6.9-3.9,11.9-4.9,19.6-5.6,2.6,0,5.1-.4,7.6-1.2,7.6-2.5,15.6-8.8,18.6-18.1-5.4,5-12.4,8-19.8,8.5-.9,0-1.7,0-2.5-.2-4.6-.7-9.3-1.7-18-1-6.1.4-12.2,1.8-18,3.9,1-1.9,2.4-3.6,4.2-4.7,6.3-4.9,11-6.8,18.6-8.6,2.6-.5,5.1-1.3,7.5-2.4,6.9-3.7,13.9-11.2,15.6-20.8-5.8,6.9-12.9,10.5-18.5,11.5-.8.1-1.7.2-2.5.2-6-.2-12,.4-17.8,1.7-6,1.4-11.7,3.7-17.1,6.8.6-2.1,1.7-3.9,3.4-5.2,5.4-5.9,9.8-8.5,17.1-11.5,2.5-.8,4.8-2,6.9-3.6,6.3-4.7,11.9-13.2,12-22.9-4.6,7.6-11,12.2-16.3,14.1-.8.3-1.7.5-2.5.7-4.6.8-9.3,1.4-17.4,4.6-5.6,2.4-10.9,5.4-15.8,9.1.3-2.1,1.2-4.1,2.5-5.8,4.4-6.6,8.5-9.8,15.1-13.9,2.3-1.2,4.4-2.8,6.3-4.6,5.6-5.6,9.8-14.9,8.5-24.6-3.4,8.3-9.1,13.9-14.1,16.6-.7.4-1.4.6-2.2.8-5.8,1.8-11.4,4.2-16.6,7.3-5.2,3.2-10,7.1-14.2,11.5.1-2.1.7-4.1,1.7-5.9,3.4-7.3,6.8-11,12.7-16.3,2.1-1.6,3.9-3.4,5.6-5.4,4.6-6.4,7.3-16.3,4.4-25.6-2,8.6-6.8,15.1-11.2,18.5-.7.5-1.4,1-2.2,1.4-4.1,2.2-8.5,4.1-15.1,9.7-4.7,4-8.8,8.6-12.2,13.7-.4-2.1-.2-4.3.7-6.3,2.2-7.6,4.9-11.9,10-17.9,1.7-2,3.4-3.7,4.6-6.3,4-8.1,4.1-17.7.3-25.9-.3,7.4-3.2,14.5-8.1,20-.6.6-1.2,1.2-1.9,1.7-5,3.4-9.6,7.4-13.5,12h0Z"/>
</svg>