<?xml version="1.0" encoding="UTF-8"?>
<svg id="Calque_1" xmlns="http://www.w3.org/2000/svg" version="1.1" viewBox="0 0 625 400">
  <!-- Generator: Adobe Illustrator 29.4.0, SVG Export Plug-In . SVG Version: 2.1.0 Build 152)  -->
  <defs>
    <style>
      .st0 {
        stroke-width: 1px;
      }

      .st0, .st1, .st2, .st3, .st4, .st5, .st6, .st7 {
        fill: #fff;
      }

      .st0, .st2, .st3, .st4, .st8, .st5, .st6, .st9, .st7 {
        stroke: #000;
      }

      .st2, .st8, .st5 {
        stroke-width: 1px;
      }

      .st2, .st6, .st7 {
        stroke-linejoin: bevel;
      }

      .st3 {
        stroke-width: 1px;
      }

      .st4 {
        stroke-width: 1px;
      }

      .st8, .st9 {
        fill: none;
      }

      .st6 {
        stroke-width: .9px;
      }

      .st9 {
        stroke-width: .8px;
      }

      .st7 {
        stroke-width: 1px;
      }
    </style>
  </defs>
  <rect class="st1" width="625" height="400"/>
  <rect y="100" width="625" height="200"/>
  <g>
    <g>
      <path class="st2" d="M256.2,188.5h113.8v43.8h-113.8v-43.8Z"/>
      <rect class="st2" x="364.1" y="212.7" width="3.6" height="16.5"/>
      <rect class="st2" x="256.2" y="204.6" width="113.8" height="5.1"/>
      <rect class="st2" x="256.2" y="197.7" width="113.8" height="4.5"/>
      <rect class="st6" x="256.2" y="190.8" width="113.8" height="4.4"/>
      <rect class="st2" x="286.1" y="212.7" width="3.6" height="16.5"/>
      <rect class="st2" x="335.1" y="212.7" width="3.6" height="16.5"/>
      <rect class="st2" x="257.1" y="212.7" width="3.6" height="16.5"/>
      <rect class="st2" x="264.1" y="212.7" width="3.6" height="16.5"/>
      <rect class="st2" x="271.6" y="212.7" width="3.6" height="16.5"/>
      <rect class="st2" x="279.1" y="212.7" width="3.6" height="16.5"/>
      <rect class="st2" x="341.9" y="212.7" width="3.6" height="16.5"/>
      <rect class="st2" x="349.4" y="212.7" width="3.6" height="16.5"/>
      <rect class="st2" x="356.9" y="212.7" width="3.6" height="16.5"/>
      <path class="st5" d="M211.7,234.6c1.8-.9,3.8-3,4.4-5.3h193.1c.7,2.3,2.7,4.4,4.4,5.3h-201.9Z"/>
    </g>
    <g>
      <g>
        <path class="st5" d="M310.1,121.9s-.1-4.1,2.3-4.2c2.4,0,2.3,4.2,2.3,4.2h-4.5Z"/>
        <path class="st5" d="M297.7,176.4v-5.5c0-2.8-2.8-3-2.8-5,0,0-.3-3,.5-4.4,1.1,4,3.1,3.3,3.1,1.6s-1.1-2.8-3.4-6.3c-.7-1.1-.3-4.7.7-5.9.4,3.1.9,4.5,2.2,4.5s1.5-.5,1.5-2.1-1.3-2.9-2-4.7c-.8-2.1-.2-4.2,1-5.4.5,3,.4,4.2,1.7,4.2,2.7-.9,0-4.8-.6-5.8-.7-1.2.9-3.5.9-3.5.9,2.7,1.1,2.9,2.1,2.7,1.2-.3,1-2.1-.4-3.5-.9-.9-.8-2.2.2-3.3,1,1.9,2.2,1.8,2.3.7l-.8-4.4h17.3l-.9,4.2c-.2,1.2,1.4,1.5,2.4-.5,1,1.1,1.1,2.4.2,3.3-1.4,1.4-1.6,3.1-.4,3.5.9.2,1.2,0,2.1-2.7,0,0,1.4,1.6.9,3.5-.6,1-3.3,4.9-.6,5.8,1.3,0,1.2-1.2,1.7-4.2,1.3,1.2,1.8,3.3,1,5.4-.7,1.8-2,2.8-2,4.7s.7,2.1,1.5,2.1c1.3,0,1.8-1.5,2.2-4.5,1,1.3,1.5,4.8.7,5.9-2.3,3.5-3.4,4.9-3.4,6.3s2,2.4,3.1-1.6c.8,1.4.5,4.4.5,4.4,0,2-2.8,2.2-2.8,5v5.5h-29.5Z"/>
        <path class="st5" d="M304.9,130.4l-.4-3.1h15.8l-.4,3.1h-15Z"/>
        <path class="st5" d="M305.9,127.2l-.3-2.6h13.6l-.3,2.6h-12.9Z"/>
        <path class="st5" d="M308.1,124.5l-.2-2.6h9.1l-.2,2.6h-8.6Z"/>
        <path class="st5" d="M341.1,234.6c-2-.8-5-2.9-5-5.1v-24.3l2.6-3.4h-52.8s2.5,3.4,2.5,3.4v24.3c0,2.2-2,4.3-4.1,5.1h56.6Z"/>
        <rect class="st2" x="295.4" y="212.7" width="3.6" height="16.5"/>
        <rect class="st2" x="325.7" y="212.7" width="3.6" height="16.5"/>
        <path class="st5" d="M285.1,174.2v27.7h54v-27.7c-2.1.9-2.5,2.9-2.5,2.9v11.8h-48.8v-11.8s-.5-2-2.8-2.9h0Z"/>
        <path class="st5" d="M331.7,234.6c-1.8-.8-5.6-2.9-5.6-5.1v-27.2c.4-1.5,2.4-2.4,3.8-3.4h-35.8c1.7.9,3.6,1.7,4.3,3.4v27.2c0,2.2-3,4.3-4.8,5.1h38.2Z"/>
        <path class="st5" d="M336.6,199.3v-19.6s-4.9,0-4.9,0v-1.9h-38.8v1.9h-4.9s0,19.6,0,19.6h48.7Z"/>
        <path class="st5" d="M324,234.6c-1.7-.8-4.2-2.9-4.2-5.1v-23.2l1.4-2.1h-17.7l1.4,2.1v23.2c0,2.2-2.5,4.3-4.2,5.1h23.3Z"/>
        <path class="st4" d="M307.9,204.2h9s0,30.4,0,30.4h-9v-30.4Z"/>
        <path class="st2" d="M321.5,197.5c0-2,5.8-2.1,8.8-3.8h-36c3,1.7,8.7,1.8,8.7,3.8l1.2,3.9,14.9.6,2.3-4.5Z"/>
        <path class="st5" d="M328.6,176.4c0-4.9.2-6.8,1.7-6.8v15.6c-3.7,1.3-6.3,6-6.3,6h-23.2s-2.6-4.7-6.3-6v-15.6c1.9,0,1.9,2,1.9,6.8h32.3Z"/>
        <path class="st5" d="M330.3,174.4c0-5.6,4.9-6.3,4.9-6.3v5c-1.8,0-2.7,1.6-2.7,4s1.5,2.5,1.5,2.5v14.2h-3.6v-19.5Z"/>
        <path class="st5" d="M294.4,174.4c0-5.6-4.9-6.3-4.9-6.3v5c1.8,0,2.7,1.6,2.7,4s-1.5,2.5-1.5,2.5v14.2h3.6v-19.5Z"/>
      </g>
      <g>
        <path class="st9" d="M304,135.7h17.1"/>
        <path class="st9" d="M302,141h20.9"/>
        <path class="st9" d="M299.9,147.5h24.9"/>
        <path class="st9" d="M297.8,155.5h29.5"/>
        <path class="st9" d="M297.1,164.5h30.4"/>
        <path class="st8" d="M287.9,194h48.7"/>
        <rect class="st8" x="303.3" y="194" width="18" height="6.6"/>
      </g>
      <g>
        <path class="st5" d="M301.1,179.3c3,3.6,2.7,9.7,2.7,13.3h17.3c0-3.6-.3-9.7,2.7-13.3h-22.7Z"/>
        <path class="st5" d="M310.8,138.2l-2.4-1.2v-3.5c1,.3,2.1.4,2.2,2,.3-2.2.9-2.1,1.9-3,1,.9,1.6.8,1.9,3,.1-1.5,1.2-1.7,2.2-2v3.5l-2.4,1.2h-3.4Z"/>
        <path class="st5" d="M310.7,143.9l-3.9-2.7v-3.2c1.4.3,2.9.5,3.1,2.1.5-2.4,1.4-3.7,2.7-4.6,1.4.9,2.2,2.2,2.7,4.6.2-1.7,1.7-1.8,3.1-2.1v3.2l-3.9,2.7h-3.7Z"/>
        <path class="st5" d="M310.4,152.9l-4.5-4v-4.7c1.6.5,3.4.7,3.6,3.2.6-3.6,1.6-5.4,3.1-6.8,1.6,1.4,2.6,3.2,3.1,6.8.2-2.5,2-2.7,3.6-3.2v4.7l-4.5,4h-4.3Z"/>
        <path class="st5" d="M318.8,158.2l-4.1,5.7h-4.6l-4.1-5.7h12.9Z"/>
        <path class="st5" d="M303.5,167.7c2.1,1.1,2.8,3.4,3,7.6h11.6c.2-4.2,1-6.4,3-7.6h-17.6Z"/>
        <path class="st2" d="M321.3,158.2v-5.7c-1.9.5-3.2,1.7-3.8,3.3,0-1.9-2.5-6.3-5.2-8.4-2.7,2.4-5.3,6.4-5.2,8.4-.5-1.5-1.8-2.7-3.8-3.3v5.7h18Z"/>
        <path class="st2" d="M322.2,167.7v-5.7c-2.1.5-3.5,1.7-4.1,3.3,0-1.9-2.7-6.3-5.7-8.4-3,2.4-5.8,6.4-5.7,8.4-.5-1.5-2-2.7-4.1-3.3v5.7h19.7Z"/>
        <path class="st2" d="M324.6,179.4v-6.6c-2.7.7-4.3,2.7-5.1,3.8,0-3.6-4-9-7.1-10.8-3.2,1.8-7.1,7.4-7.1,10.8-.9-1.1-2.5-3.1-5.1-3.8v6.6h24.5Z"/>
        <path class="st2" d="M323.1,194v-6.8c-2.3.9-3,3.2-3.8,4.7.3-6.9-3.9-14.2-7-16.1-3.2,1.9-7.4,9.4-7,16.1-.8-1.5-1.4-3.8-3.8-4.7v6.8h21.6Z"/>
        <path class="st5" d="M321.5,204.2v-6.8c-2.5.6-2.6,1.5-3.4,3,.3-4.1-2.6-8.8-5.8-10.6-3.2,1.9-6.1,6.5-5.8,10.6-.8-1.5-.9-2.4-3.4-3v6.8h18.3Z"/>
      </g>
    </g>
    <g id="tower">
      <g>
        <path class="st5" d="M216.1,229.3v-20.4c-.7-2.6-2.9-4.9-4.5-5.4v-18l3.7,2,4.3,18.8v23h-3.5Z"/>
        <path class="st5" d="M216.1,229.4v-20.5c-.7-2.6-2.9-4.9-4.5-5.4v-19.2c2.5,0,3.7,3.3,3.7,3.3l4.3,18.8v22.9l-3.5.2Z"/>
        <path class="st5" d="M213.4,234.6c1.7-.8,4.2-2.9,4.2-5.1v-25.5l-1.2-2.1h43.5l-1.7,2.1v25.5c0,2.2,1.7,4.3,3.5,5.1h-48.3Z"/>
        <path class="st5" d="M253,234.6c-1.7-.8-4.2-2.9-4.2-5.1v-24.3l3.6-3.4h-29.6s3.6,3.4,3.6,3.4v24.3c0,2.2-2.5,4.3-4.2,5.1h30.8Z"/>
        <path class="st5" d="M248.8,234.6c-1.7-.8-4.2-2.9-4.2-5.1v-22l2.4-3.4h-18.8l2.4,3.4v22c0,2.2-2.5,4.3-4.2,5.1h22.6Z"/>
        <path class="st5" d="M233.1,204.2h9s0,30.4,0,30.4h-9v-30.4Z"/>
        <rect class="st2" x="220.8" y="212.7" width="3.6" height="16.5"/>
        <rect class="st2" x="251.6" y="212.7" width="3.6" height="16.5"/>
        <path class="st2" d="M217.8,184.9h4.3v16.9h-4.3v-16.9Z"/>
        <path class="st2" d="M217.8,181.7h4.3v3.1h-4.3v-3.1Z"/>
        <path class="st7" d="M253.3,188.5h6.2v13.1h-6.2v-13.1Z"/>
        <path class="st5" d="M222,201.7v-28.9c1.2,0,1.4,4.2,4.2,4.2s1.3-1.8.5-3.2c-.7-1.3-1.6-3-.4-6.3.8,2.5,3.1,3.3,2.7,1.7-.7-2.7-2.8-3.1-1.2-7.3.5,3.5,2.8,3.3,2.2,1.3-.6-2.3-1.9-3.2-.3-6.4.9,3.6,2.1,3.4,2.1,1.2,0-3.3-.1-7,4.2-8.3,0,0,.3-3.1,1.8-3.1s1.8,3.1,1.8,3.1c4.3,1.3,4.2,4.9,4.2,8.3s1.2,2.5,2.1-1.2c1.6,3.2.3,4.1-.3,6.4-.5,2,1.7,2.2,2.2-1.3,1.6,4.2-.5,4.6-1.2,7.3-.4,1.6,1.8.8,2.7-1.7,1.2,3.3.3,5-.4,6.3-.8,1.4-1,3.2.5,3.2,2.8,0,3-4.2,4.2-4.2v28.9h-31.5Z"/>
        <path class="st5" d="M215.3,179.8v22.1h2.5v-22.1c-.9-.5-1.8-.5-2.5,0h0Z"/>
        <path class="st5" d="M215.3,194.1c3.1,1.6,6.2,3.4,7,7.8h-7v-7.8Z"/>
        <path class="st5" d="M258.5,187.5v14.4h2v-14.4c-.6-.3-1.5-.3-2,0h0Z"/>
        <path class="st5" d="M260.6,194c-3.1,1.6-6.2,3.4-7,7.8h7v-7.8Z"/>
      </g>
      <g>
        <path class="st5" d="M240,160.3l1.8-1.5v-2c-.7,0-1,.3-1.5.9-.4-1.3-1.3-2.3-2.6-2.9-1.2.6-2.1,1.6-2.6,2.9-.5-.6-.9-.8-1.5-.9v2l1.8,1.5h4.5Z"/>
        <path class="st5" d="M240.9,165.2l.8-1.8v-2.5c-.7,0-1,.3-1.5.9-.4-1.3-1.3-2.3-2.6-3-1.2.6-2.1,1.6-2.6,2.9-.5-.7-.9-.8-1.5-.9v2.5l.8,1.8h6.5Z"/>
        <path class="st5" d="M241.1,171.9l2.7-3.3v-3.2c-1,.1-1.5.5-2.3,1.6-.6-2.2-2-2.7-3.8-3.8-1.8,1.1-3.2,1.5-3.8,3.7-.7-1.1-1.3-1.4-2.3-1.5v3.2l2.7,3.3h6.7Z"/>
        <path class="st5" d="M241.9,178.4s3.1-2.7,3.3-4.2v-3.5c-1.2.1-2.4.5-3.3,1.9-.8-2.9-2-3.7-4.2-5.1-2.3,1.4-3.4,2.2-4.2,5.1-.9-1.4-2.1-1.7-3.3-1.9v3.5c.4,1.5,3.3,4.2,3.3,4.2h8.3Z"/>
        <path class="st5" d="M243.2,190.4s4.3-4.8,4.4-6.6v-5.4c-1.6.2-3.1,1.3-4.3,3.6-1-4.5-2.6-7.6-5.6-9.8-3,2.2-4.6,5.3-5.6,9.8-1.2-2.2-2.7-3.3-4.3-3.6v5.4c.3,1.9,4.4,6.6,4.4,6.6h11Z"/>
        <path class="st5" d="M243.2,197.5s3.7-3.7,4.4-5.4v-5.4c-1.6.2-3.1,1.3-4.3,3.6-1-4.5-2.6-7-5.6-9.2-3,2.2-4.6,4.7-5.6,9.2-1.2-2.2-2.7-3.3-4.3-3.6v5.4c.9,1.6,4.4,5.4,4.4,5.4h11Z"/>
        <path class="st5" d="M244.7,201.6c-1.1-4.7-2-8.1-7.2-11.6-5.2,3.5-6.1,7-7.2,11.6h14.3Z"/>
        <path class="st5" d="M247.3,204.2v-6.8c-2.3.9-4.5,2.3-5.2,3.8-.9-3.8-2.6-5.4-4.7-7.7-2.1,2.3-3.5,3.9-4.4,7.7-.8-1.5-2.9-2.9-5.2-3.8v6.8s19.5,0,19.5,0Z"/>
      </g>
    </g>
    <g id="tower1" data-name="tower">
      <g>
        <path class="st5" d="M408.9,229.3v-20.4c.7-2.6,2.9-4.9,4.5-5.4v-18l-3.7,2-4.3,18.8v23h3.5Z"/>
        <path class="st5" d="M408.9,229.4v-20.5c.7-2.6,2.9-4.9,4.5-5.4v-19.2c-2.5,0-3.7,3.3-3.7,3.3l-4.3,18.8v22.9l3.5.2Z"/>
        <path class="st5" d="M411.6,234.6c-1.7-.8-4.2-2.9-4.2-5.1v-25.5l1.2-2.1h-43.5l1.7,2.1v25.5c0,2.2-1.7,4.3-3.5,5.1h48.3Z"/>
        <path class="st5" d="M372,234.6c1.7-.8,4.2-2.9,4.2-5.1v-24.3l-3.6-3.4h29.6s-3.6,3.4-3.6,3.4v24.3c0,2.2,2.5,4.3,4.2,5.1h-30.8Z"/>
        <path class="st5" d="M376.2,234.6c1.7-.8,4.2-2.9,4.2-5.1v-22l-2.4-3.4h18.8l-2.4,3.4v22c0,2.2,2.5,4.3,4.2,5.1h-22.6Z"/>
        <path class="st5" d="M392,204.2h-9s0,30.4,0,30.4h9v-30.4Z"/>
        <rect class="st2" x="400.6" y="212.7" width="3.6" height="16.5"/>
        <rect class="st2" x="369.8" y="212.7" width="3.6" height="16.5"/>
        <path class="st2" d="M407.2,184.9h-4.3v16.9h4.3v-16.9Z"/>
        <path class="st2" d="M407.2,181.7h-4.3v3.1h4.3v-3.1Z"/>
        <path class="st7" d="M371.7,188.5h-6.2v13.1h6.2v-13.1Z"/>
        <path class="st5" d="M403,201.7v-28.9c-1.2,0-1.4,4.2-4.2,4.2s-1.3-1.8-.5-3.2c.7-1.3,1.6-3,.4-6.3-.8,2.5-3.1,3.3-2.7,1.7.7-2.7,2.8-3.1,1.2-7.3-.5,3.5-2.8,3.3-2.2,1.3.6-2.3,1.9-3.2.3-6.4-.9,3.6-2.1,3.4-2.1,1.2,0-3.3.1-7-4.2-8.3,0,0-.3-3.1-1.8-3.1s-1.8,3.1-1.8,3.1c-4.3,1.3-4.2,4.9-4.2,8.3s-1.2,2.5-2.1-1.2c-1.6,3.2-.3,4.1.3,6.4.5,2-1.7,2.2-2.2-1.3-1.6,4.2.5,4.6,1.2,7.3.4,1.6-1.8.8-2.7-1.7-1.2,3.3-.3,5,.4,6.3.8,1.4,1,3.2-.5,3.2-2.8,0-3-4.2-4.2-4.2v28.9h31.5Z"/>
        <path class="st5" d="M409.8,179.8v22.1h-2.5v-22.1c.9-.5,1.8-.5,2.5,0h0Z"/>
        <path class="st5" d="M409.7,194.1c-3.1,1.6-6.2,3.4-7,7.8h7v-7.8Z"/>
        <path class="st5" d="M366.5,187.5v14.4h-2v-14.4c.6-.3,1.5-.3,2,0h0Z"/>
        <path class="st5" d="M364.5,194c3.1,1.6,6.2,3.4,7,7.8h-7v-7.8Z"/>
      </g>
      <g>
        <path class="st5" d="M385.1,160.3l-1.8-1.5v-2c.7,0,1,.3,1.5.9.4-1.3,1.3-2.3,2.6-2.9,1.2.6,2.1,1.6,2.6,2.9.5-.6.9-.8,1.5-.9v2l-1.8,1.5h-4.5Z"/>
        <path class="st5" d="M384.1,165.2l-.8-1.8v-2.5c.7,0,1,.3,1.5.9.4-1.3,1.3-2.3,2.6-3,1.2.6,2.1,1.6,2.6,2.9.5-.7.9-.8,1.5-.9v2.5l-.8,1.8h-6.5Z"/>
        <path class="st5" d="M384,171.9l-2.7-3.3v-3.2c1,.1,1.5.5,2.3,1.6.6-2.2,2-2.7,3.8-3.8,1.8,1.1,3.2,1.5,3.8,3.7.7-1.1,1.3-1.4,2.3-1.5v3.2l-2.7,3.3h-6.7Z"/>
        <path class="st5" d="M383.2,178.4s-3.1-2.7-3.3-4.2v-3.5c1.2.1,2.4.5,3.3,1.9.8-2.9,2-3.7,4.2-5.1,2.3,1.4,3.4,2.2,4.2,5.1.9-1.4,2.1-1.7,3.3-1.9v3.5c-.4,1.5-3.3,4.2-3.3,4.2h-8.3Z"/>
        <path class="st5" d="M381.8,190.4s-4.3-4.8-4.4-6.6v-5.4c1.6.2,3.1,1.3,4.3,3.6,1-4.5,2.6-7.6,5.6-9.8,3,2.2,4.6,5.3,5.6,9.8,1.2-2.2,2.7-3.3,4.3-3.6v5.4c-.3,1.9-4.4,6.6-4.4,6.6h-11Z"/>
        <path class="st5" d="M381.8,197.5s-3.7-3.7-4.4-5.4v-5.4c1.6.2,3.1,1.3,4.3,3.6,1-4.5,2.6-7,5.6-9.2,3,2.2,4.6,4.7,5.6,9.2,1.2-2.2,2.7-3.3,4.3-3.6v5.4c-.9,1.6-4.4,5.4-4.4,5.4h-11Z"/>
        <path class="st5" d="M380.3,201.6c1.1-4.7,2-8.1,7.2-11.6,5.2,3.5,6.1,7,7.2,11.6h-14.3Z"/>
        <path class="st5" d="M377.7,204.2v-6.8c2.3.9,4.5,2.3,5.2,3.8.9-3.8,2.6-5.4,4.7-7.7,2.1,2.3,3.5,3.9,4.4,7.7.8-1.5,2.9-2.9,5.2-3.8v6.8s-19.5,0-19.5,0Z"/>
      </g>
    </g>
    <g>
      <path class="st5" d="M189.8,259.3h245.3v12.5s-245.3,0-245.3,0v-12.5Z"/>
      <path class="st5" d="M183.4,271.8h258.3v12.5s-258.3,0-258.3,0v-12.5Z"/>
      <path class="st5" d="M202.7,240.6h219.6v8.1s-219.6,0-219.6,0v-8.1Z"/>
      <path class="st5" d="M196.3,248.6h232.4v10.6s-232.4,0-232.4,0v-10.6Z"/>
      <path class="st5" d="M206.6,234.3h211.9v6.2s-211.9,0-211.9,0v-6.2Z"/>
      <path class="st0" d="M229.6,234.4h16v49.9h-16v-49.9Z"/>
      <path class="st3" d="M233.1,234.4h8.9v49.9h-8.9v-49.9Z"/>
      <path class="st0" d="M304.2,234.4h16v49.9h-16v-49.9Z"/>
      <path class="st3" d="M307.9,234.4h8.9v49.9h-8.9v-49.9Z"/>
      <path class="st0" d="M379.3,234.4h16v49.9h-16v-49.9Z"/>
      <path class="st3" d="M382.9,234.4h8.9v49.9h-8.9v-49.9Z"/>
    </g>
    <g>
      <path class="st8" d="M216.1,229.3h193.1"/>
      <path class="st8" d="M232.9,278h9.2M232.9,271.8h9.2M232.9,265.5h9.2M232.9,259.3h9.2M232.9,253h9.2M232.9,246.8h9.2M232.9,240.5h9.2"/>
      <path class="st8" d="M307.9,278h8.6M307.9,271.8h8.6M307.9,265.5h8.6M307.9,259.3h8.6M307.9,253h8.6M307.9,246.8h8.6M307.9,240.5h8.6"/>
      <path class="st8" d="M382.7,278h9.2M382.7,271.8h9.2M382.7,265.5h9.2M382.7,259.3h9.2M382.7,253h9.2M382.7,246.8h9.2M382.7,240.5h9.2"/>
    </g>
  </g>
</svg>