<?xml version="1.0" encoding="UTF-8"?>
<svg id="Calque_1" xmlns="http://www.w3.org/2000/svg" version="1.1" viewBox="0 0 750 500">
  <!-- Generator: Adobe Illustrator 29.4.0, SVG Export Plug-In . SVG Version: 2.1.0 Build 152)  -->
  <defs>
    <style>
      .st0 {
        fill: #fff;
      }
    </style>
  </defs>
  <rect width="750" height="500"/>
  <rect class="st0" y="125" width="750" height="250"/>
  <path d="M371.6,125c-5.4,11.3-15.5,19.2-25.1,26.7-1.6,1.4-5.5,4.1-2.7,6.1,2.5-2.7,9.2.9,5.3,3.8-3.5,3.3-8.3,4.5-12.2,7.2-3.5,1.9-6.9,3.8-9.7,6.7-.2,4.5,5.6,2,7.9,3.9,3,3.2-1.3,8.7-5.3,7.5-5.1.2-8.6,4.6-10.5,8.9-4,6.2-11.5,8-17.6,11.5-3.4,2-6.8,4.2-10,6.6-4.1,2.8-.5,8.4,3.9,7,4.7-.5,9-4.2,13.9-3.1,4.5,1.6,5.7,7.4,4.2,11.5-1.1,3.3-3.8,5.5-6,8.1-3.5,3.6-8.2,5.9-13.1,7-4.7,1.6-9,4.5-12.1,8.4-3.6,3.6-7.2,7.3-11.3,10.3-1.3,3.3,2.4,6.2,5.5,6.1,6.5-.4,11-5.7,16.5-8.4,4.6-2.1,10,2.9,8.8,7.6-.4,4.6-4.7,7-8.6,8.4-11.3,5.7-21.2,14-29.9,23.1-1.8,3.7-6.8,2.6-9.5,5.2-1.7,3.3,2.6,5,5.2,4.6,11.2-1.4,21.7-6.1,31.6-11.3,3.7-1.8,7.2-4.1,11-5.5,3.6-.9,8.6.7,9.3,4.8,0,4.3-4.3,6.7-7.7,8.4-10.5,5.5-22,8.5-33.2,12.2-4.2-1.2-7.3,6.3-2.8,7.6,4.9,1.7,10,.3,15,.1,15.4-2.4,28.8-10.7,43.2-16.1,6-1.9,13,.8,16,6.4,3,5,2.7,11.6-.4,16.4-4.9,10.6-12.4,20.3-22.5,26.4-6.3,3.1-13.7,4.3-19.1,9.1-5,1.7,2.5,8.4,3.6,3.1,3-4.1,8.3-5.3,13.2-5.5,7.2-.8,14.9-2.1,20.6-7.1,5-3.9,10-9.3,16.9-9.4,3.8.4,7.5,3.5,11.4,1.6,3.4-1.5,8.6-.6,9.5,3.5,1.6,4.8,6.6,7,10.6,9.6,1.4,2,6.2,7.2,7.3,2.6-.9-3.3.4-8.3,4.7-7.2,3.7.2,7.3,1.5,11,1.8,5,1,9.1,4.4,11.9,8.5,1.9,2.7,6.2,7.3,9.4,3.7,2-3.7-1.8-6.7-4.8-8.1-4.4-2.8-8.2-6.4-12.1-9.9-5.7-5.3-10.7-12.1-11.6-20.1-1.2-8-.6-16.1.5-24,1.3-5.1,7.8-7.9,12.4-5.2,6.4,2.9,12.8,7.1,20.2,6.7,10.7.2,21.6-1.8,32,1.3,10.1,3.2,17.4,11.7,27.3,15.4,2.2,1.3,5,0,5.8-2.3,1-2.1.3-4.8-1.8-6-11.4-11.5-27.1-17.2-40.3-26.2-4.2-1.1-4.9-7.8-1.1-9.7,5.1-3.7,12.2-2,16.7,1.8,3.8,2.2,8.1,3.9,12.5,3.9,4.6-1.4,2.3-8-1.7-8.5-7.4-4.2-12.7-11-19.1-16.5-3.7-3.1-7.7-6.3-12.7-6.9-2.7-.5-5.5-.6-8.2-.4-2.6-2.8.9-7.1,4.2-6.7,3.4.2,6.8.5,10.2,0,3.8-.3,7.6-.7,11.5-.7,3.1,2.1,9.3-1.5,6.5-5.2-3-2.7-7.5-2.4-11.1-3.8-6.4-2.1-12.9-3.8-19.5-5.1-4.6-.3-4-6.3,0-7,2.7-1,5,1,7.5,1.4,4.3.9,8.8.9,13.2,1.9,3.7-1.8.8-7.2-2.5-7.5-7.9-2.8-14.7-7.9-21.3-12.8-7.3-5.5-14-11.9-21.4-17.3-2.7-1.7-7.1-2.2-7.8-5.9-.2-3.4,3.8-5,6.6-4.2,4,1.2,7.8,3.3,11.9,4.3,3.2.5,6.5,1.5,9.7,1.1,3.9-2.5-1.7-4.1-3.7-4.9-5.3-2.8-9.9-6.6-14.7-10.2-4-3.4,3.4-4.9,5.9-3.6,4.2,1.8,4.7-4.4,1.6-6-3.7-1.6-7-4.2-10.4-6.5-6.1-4.4-13.1-7.8-20.6-8.8-8.5-.8-16.3-5.7-20.8-12.9-2.8-4.1-4.8-8.7-6.8-13.2ZM343.8,172.4c4.4.1,3.7,8-.6,7.5-4.2-.3-3.9-8.3.6-7.5ZM384.9,176.6c4.2-.8,5.1,7,.9,7.3-4.4.8-6-7.8-.9-7.3ZM372.9,177.7c4.3.8,3.5,8.3-.8,8.4-3.2.7-6.6,2.9-9.8,1.2-2.6-2.8,1.2-6.8,4.1-7.7,2.2-.5,4.3-1.5,6.5-1.9ZM400.6,177.7c4.1,1.5,2.7,8.8-1.7,8.7-4.1.6-6.1-6.3-2.2-8,1.2-.4,2.6-.8,3.9-.8ZM353.9,186c3,2.9,1.2,8.5-2.5,9.8-2.7,1.5-6.4,5.1-9.3,2.1-1.6-3.6,2.4-6.3,4.8-8.3,2.1-1.6,4.4-3.1,7.1-3.7ZM388.6,202.1c4.4,2.1,2.1,9.9-2.6,9.4-3.9-1-3.4-7.7.5-8.3.7-.3,1.4-.7,2.1-1.2ZM374.8,202.9c4.1,1.9,1,8.7-3.1,7.7-4.3-.5-4.2-8,.5-7.3.9,0,1.8,0,2.6-.4ZM404.6,206.8c4.5-1.4,9.8,3.2,8.4,7.9-2,3.6-6.9,4.1-10.4,2.7-4.1-.2-6.8-6.3-3.2-8.9,1.5-1.1,3.4-1.6,5.2-1.7ZM338.6,208c3.7-2,7.6,4,4.5,6.7-2.1,3.1-7.4,4.3-9.8.9-2-3.3,1.2-8.9,5.3-7.6ZM321.6,210.9c4.2.6,6.9,4.4,8.5,8,.4,4.4-6.1,6.8-9,3.6-3.2-2-6-6.1-4.3-10,1-1.5,3.1-2.1,4.8-1.7ZM423.6,226.8c4.5-1.2,7.9,6.1,3.9,8.7-3.6,3.2-10.5-1.1-8.7-5.7.9-1.7,2.8-2.9,4.7-3ZM365.7,235.1c3.8.5,2.6,7.1-.9,6.9-3.8-.7-2.9-7.2.9-6.9ZM346.3,238.6c3.1-2.2,7.1,3.2,4.5,5.7-3.1,2.2-7.1-3.1-4.5-5.7ZM377.1,239.3c3.6,2.2,5.7,6.3,6.2,10.4-1.7,3.9-8.4,2.9-9.2-1.2-1.3-3.2-.1-7.4,3-9.2ZM387.8,245.7c4.6-1.2,3,8.5-.9,5.2-1.3-1.5-.6-4.1.9-5.2ZM320.4,252.4c3.1-.9,7.6,0,8.4,3.6.4,3.3-3.3,5-6,5.9-4.3,1.3-8.5,3.5-13.1,3.2-3.5-2-4.7-6-5.9-9.5,3.3-3.1,8.2-2.2,12.4-3,1.4,0,2.8-.1,4.2-.1ZM425,267.6c3.9-1.9,8.1,4.3,4.9,7.2-4.1,4.7-12,5.6-16.9,1.6-.6-4.2,3.6-7.2,7.3-7.8,1.6-.4,3.1-1.1,4.8-1ZM447,272.4c4.5-.8,8,5.6,4.8,8.9-3,4.5-10.2,5.7-14.3,2-1.6-3.8,1.6-7.7,5.1-8.9,1.5-.6,2.9-1.4,4.4-2ZM336.1,279.2c4.1-.4,7.9,3.7,7.4,7.8,3,2.9-2.3,8.4-5.3,5.4-2.6-3.2-2.6-7.5-3.6-11.3,0-.8.6-1.9,1.5-1.8ZM367.8,281.6c4.3-1.8,9.8,3.3,7.5,7.6-1.7,3.5-8.1,2.3-7.9-1.7,0-2-.2-4,.5-5.8ZM352.4,284.3c4.3-1,8.2,4.6,5.8,8.3-4.3.4-6.5-4.7-5.8-8.3Z"/>
</svg>