<?xml version="1.0" encoding="UTF-8"?>
<svg id="Calque_1" xmlns="http://www.w3.org/2000/svg" version="1.1" viewBox="0 0 450 300">
  <!-- Generator: Adobe Illustrator 29.4.0, SVG Export Plug-In . SVG Version: 2.1.0 Build 152)  -->
  <defs>
    <style>
      .st0 {
        fill: none;
        stroke-width: 5px;
      }

      .st0, .st1 {
        stroke: #000;
      }

      .st2 {
        fill: #fff;
      }
    </style>
  </defs>
  <rect width="450" height="300"/>
  <rect class="st2" width="450" height="210"/>
  <rect width="450" height="90"/>
  <g>
    <path class="st1" d="M224.8,95.6c-1.7,0-3.4,1.9-3.4,1.9v20.2c.1,0-6.2,6.7-6.2,6.7h5.2v11.6s-30.6,41.2-30.6,41.2l-4.5-1.6-7.9,16.9s19.6,12.2,47.9,11.9c31.1-.4,48.1-12.5,48.1-12.5l-8.2-16.6-4,1.7-31-41v-11.9s5.1,0,5.1,0l-7-6.6v-20.2s-1.7-1.8-3.4-1.8h0Z"/>
    <path class="st0" d="M235.4,144h-21.2s-7.7-16.2-6.4-27.5c1.3-11.5,7.8-17,16.6-17.1,10.3-.1,15.8,5.1,17.4,16.6,1.6,11.4-6.4,27.9-6.4,27.9h0Z"/>
    <path class="st2" d="M187.8,182.6c-.3.5-2.9,5.5-2.9,5.5l4.4-.9-1.5-4.6h0Z"/>
    <path class="st2" d="M190.3,189.1l-4.6,1.5,5.5,2.2-.9-3.7h0Z"/>
    <path class="st2" d="M192.4,182.7l2.3,6.8,5.6-1.6-1.5-3.2-6.5-2Z"/>
    <path class="st2" d="M196,191.9l.8,2.8,7.5,1.8-3-6.3-5.3,1.7h0Z"/>
    <path class="st2" d="M204.3,186.1l2.7,6.3,5.6-2.2-1.8-2.8-6.5-1.4Z"/>
    <path class="st2" d="M208,194.8l.9,2.4,8.8,1.3-3.7-5.8-6,2.1h0Z"/>
    <path class="st2" d="M216.4,188l3.2,5.6,8.2-3-.9-2.2-10.5-.5h0Z"/>
    <path class="st2" d="M221.1,195.7l1.7,3,10.1-.3-3.8-5.6-8.1,3h0Z"/>
    <path class="st2" d="M231.8,188.2l2.8,4.7,6.5-3.1-1.7-2.5-7.5.9h0Z"/>
    <path class="st2" d="M242.4,191.8l-6.5,3.2,1.7,2.8,8.6-1.4-3.9-4.6h0Z"/>
    <path class="st2" d="M244.5,186.8l3.3,4.1,5.4-4.3-1.8-2-6.9,2.1h0Z"/>
    <path class="st2" d="M254.4,189l-5.2,3.9,1.4,2.4,7.1-1.8-3.3-4.5h0Z"/>
    <path class="st2" d="M261.6,180.8l1.3,1.8-3.6,5.3-3.7-4.7,6-2.4h0Z"/>
    <path class="st2" d="M264,185.4l2.2,4.4-4.4,1.5-.3-2.1,2.5-3.8h0Z"/>
  </g>
</svg>