<?xml version="1.0" encoding="UTF-8"?>
<svg id="Calque_1" xmlns="http://www.w3.org/2000/svg" version="1.1" viewBox="0 0 660 440">
  <!-- Generator: Adobe Illustrator 29.4.0, SVG Export Plug-In . SVG Version: 2.1.0 Build 152)  -->
  <defs>
    <style>
      .st0 {
        fill: #fff;
      }
    </style>
  </defs>
  <rect width="660" height="440"/>
  <polygon class="st0" points="330 83 315.8 126.7 353 99.7 307 99.7 344.2 126.7 330 83"/>
  <g id="h">
    <path class="st0" d="M330,304h-93.9c-1.2-1.2-2.4-2.4-3.5-3.7h97.4c.8.3,1.3,1,1.3,1.7,0,.8-.5,1.6-1.3,1.9ZM330,275.3c.5-1.1,1.6-3.7,1.1-6.9-.2-1.5-.7-2.6-1.1-3.5-5.3,5-15.2,13-29.8,17.4-6.8,2.1-14.1,3.2-21.5,3.2h-57.9c1.7,2.5,3.5,5,5.4,7.3h55.9c18.2,0,35-6.6,47.9-17.5ZM229.5,252.6c-2.8,1.1-5.8,1.7-8.9,1.9,13.6,15.4,33.5,25.1,55.7,25.1s40.1-8.8,53.6-22.9c2.3-15.8,4-34,4.2-54,.2-23.3-1.6-44.2-4.2-62-6,5.4-17.4,17.1-22.7,35.1-2,6.7-3.1,13.8-3.1,21.2,0,15.3,4.6,29.5,12.5,41.3-9.7-12.6-15.5-28.3-15.5-45.5s2.6-22.1,7.1-31.8c-3.2-3.3-5.6-7.4-6.9-11.9-6.1,10.8-9.6,23.3-9.6,36.6s5.4,31.8,14.6,44.2c-15.9-16.7-38.4-27.1-63.2-27.1s-2.7,0-4,0c2.5,2.3,4.6,5.1,6.2,8.2,24.7,0,47.1,10.4,63,26.9-15.2-12.7-34.7-20.3-56-20.3s-23.2,2.4-33.6,6.7c10.6,28.1,37.8,48.1,69.6,48.1s4.1,0,6.1-.3c-4.3.8-8.7,1.2-13.2,1.2-20.1,0-38.3-8-51.7-20.9ZM330,334h-48.7c15.1,6,31.5,9.3,48.7,9.3.4-.8,1.1-2.4,1.1-4.5,0-2.3-.7-3.9-1.1-4.7ZM330,311.6h-85.8c2.3,2,4.7,3.9,7.2,5.7h78.7c.2-.2,1.2-1.2,1.2-2.9s-1-2.7-1.2-2.9ZM330,323h-70.3c4.3,2.7,8.7,5.1,13.2,7.3h57.1c.3-.5,1.1-1.9,1.1-3.8,0-1.7-.7-3-1.1-3.5Z"/>
    <polygon class="st0" points="237.6 150.7 224.2 179.5 252 164.1 220.4 160.2 243.7 181.9 237.6 150.7"/>
    <polygon class="st0" points="260.7 112.3 270 142.7 280.3 112.6 254.3 130.9 286.1 131.4 260.7 112.3"/>
  </g>
  <g id="h1" data-name="h">
    <path class="st0" d="M330,304h93.9c1.2-1.2,2.4-2.4,3.5-3.7h-97.4c-.8.3-1.3,1-1.3,1.7,0,.8.5,1.6,1.3,1.9ZM330,275.3c-.5-1.1-1.6-3.7-1.1-6.9.2-1.5.7-2.6,1.1-3.5,5.3,5,15.2,13,29.8,17.4,6.8,2.1,14.1,3.2,21.5,3.2h57.9c-1.7,2.5-3.5,5-5.4,7.3h-55.9c-18.2,0-35-6.6-47.9-17.5ZM430.5,252.6c2.8,1.1,5.8,1.7,8.9,1.9-13.6,15.4-33.5,25.1-55.7,25.1s-40.1-8.8-53.6-22.9c-2.3-15.8-4-34-4.2-54-.2-23.3,1.6-44.2,4.2-62,6,5.4,17.4,17.1,22.7,35.1,2,6.7,3.1,13.8,3.1,21.2,0,15.3-4.6,29.5-12.5,41.3,9.7-12.6,15.5-28.3,15.5-45.5s-2.6-22.1-7.1-31.8c3.2-3.3,5.6-7.4,6.9-11.9,6.1,10.8,9.6,23.3,9.6,36.6s-5.4,31.8-14.6,44.2c15.9-16.7,38.4-27.1,63.2-27.1s2.7,0,4,0c-2.5,2.3-4.6,5.1-6.2,8.2-24.7,0-47.1,10.4-63,26.9,15.2-12.7,34.7-20.3,56-20.3s23.2,2.4,33.6,6.7c-10.6,28.1-37.8,48.1-69.6,48.1s-4.1,0-6.1-.3c4.3.8,8.7,1.2,13.2,1.2,20.1,0,38.3-8,51.7-20.9ZM330,334h48.7c-15.1,6-31.5,9.3-48.7,9.3-.4-.8-1.1-2.4-1.1-4.5,0-2.3.7-3.9,1.1-4.7ZM330,311.6h85.8c-2.3,2-4.7,3.9-7.2,5.7h-78.7c-.2-.2-1.2-1.2-1.2-2.9s1-2.7,1.2-2.9ZM330,323h70.3c-4.3,2.7-8.7,5.1-13.2,7.3h-57.1c-.3-.5-1.1-1.9-1.1-3.8,0-1.7.7-3,1.1-3.5Z"/>
    <polygon class="st0" points="422.4 150.7 435.8 179.5 408 164.1 439.6 160.2 416.3 181.9 422.4 150.7"/>
    <polygon class="st0" points="399.3 112.3 390 142.7 379.7 112.6 405.7 130.9 373.9 131.4 399.3 112.3"/>
  </g>
</svg>