<?xml version="1.0" encoding="UTF-8"?>
<svg id="Calque_1" xmlns="http://www.w3.org/2000/svg" version="1.1" viewBox="0 0 57 30">
  <!-- Generator: Adobe Illustrator 29.4.0, SVG Export Plug-In . SVG Version: 2.1.0 Build 152)  -->
  <defs>
    <style>
      .st0 {
        fill: #fff;
      }
    </style>
  </defs>
  <path d="M0,0h57v30H0V0Z"/>
  <path class="st0" d="M0,29.5v-.7L57,3.5v8.7L0,29.5Z"/>
  <path d="M0,29v-.5L57,.5v5.9L0,29Z"/>
  <g>
    <g id="b">
      <path class="st0" d="M11,1.7l.6,9.3h-1.1l.6-9.3Z"/>
      <path id="a" class="st0" d="M12.7,4.5l-1.1,6.6-1.3-.4,2.4-6.3Z"/>
      <path id="a1" data-name="a" class="st0" d="M14.3,5.2l-2.7,6.1-1.2-.7,3.9-5.4Z"/>
      <path id="a2" data-name="a" class="st0" d="M15.7,6.2l-4.2,5.2-1-1,5.2-4.2Z"/>
      <path id="a3" data-name="a" class="st0" d="M16.7,7.6l-5.4,3.9-.7-1.2,6.1-2.7Z"/>
      <path id="a4" data-name="a" class="st0" d="M17.4,9.2l-6.3,2.4-.4-1.3,6.6-1.1Z"/>
    </g>
    <g id="b1" data-name="b">
      <path class="st0" d="M20.3,11l-9.3.6v-1.1l9.3.6Z"/>
      <path id="a5" data-name="a" class="st0" d="M17.4,12.7l-6.6-1.1.4-1.3,6.3,2.4Z"/>
      <path id="a6" data-name="a" class="st0" d="M16.7,14.3l-6.1-2.7.7-1.2,5.4,3.9Z"/>
      <path id="a7" data-name="a" class="st0" d="M15.7,15.7l-5.2-4.2,1-1,4.2,5.2Z"/>
      <path id="a8" data-name="a" class="st0" d="M14.3,16.7l-3.9-5.4,1.2-.7,2.7,6.1Z"/>
      <path id="a9" data-name="a" class="st0" d="M12.7,17.4l-2.4-6.3,1.3-.4,1.1,6.6Z"/>
    </g>
    <g id="b2" data-name="b">
      <path class="st0" d="M11,20.3l-.6-9.3h1.1l-.6,9.3Z"/>
      <path id="a10" data-name="a" class="st0" d="M9.2,17.4l1.1-6.6,1.3.4-2.4,6.3Z"/>
      <path id="a11" data-name="a" class="st0" d="M7.6,16.7l2.7-6.1,1.2.7-3.9,5.4Z"/>
      <path id="a12" data-name="a" class="st0" d="M6.2,15.7l4.2-5.2,1,1-5.2,4.2Z"/>
      <path id="a13" data-name="a" class="st0" d="M5.2,14.3l5.4-3.9.7,1.2-6.1,2.7Z"/>
      <path id="a14" data-name="a" class="st0" d="M4.5,12.7l6.3-2.4.4,1.3-6.6,1.1Z"/>
    </g>
    <g id="b3" data-name="b">
      <path class="st0" d="M1.7,11l9.3-.6v1.1l-9.3-.6Z"/>
      <path id="a15" data-name="a" class="st0" d="M4.5,9.2l6.6,1.1-.4,1.3-6.3-2.4Z"/>
      <path id="a16" data-name="a" class="st0" d="M5.2,7.6l6.1,2.7-.7,1.2-5.4-3.9Z"/>
      <path id="a17" data-name="a" class="st0" d="M6.2,6.2l5.2,4.2-1,1-4.2-5.2Z"/>
      <path id="a18" data-name="a" class="st0" d="M7.6,5.2l3.9,5.4-1.2.7-2.7-6.1Z"/>
      <path id="a19" data-name="a" class="st0" d="M9.2,4.5l2.4,6.3-1.3.4-1.1-6.6Z"/>
    </g>
  </g>
</svg>