<?xml version="1.0" encoding="UTF-8"?>
<svg id="Calque_1" xmlns="http://www.w3.org/2000/svg" version="1.1" viewBox="0 0 900 600">
  <!-- Generator: Adobe Illustrator 29.4.0, SVG Export Plug-In . SVG Version: 2.1.0 Build 152)  -->
  <defs>
    <style>
      .st0 {
        fill: #fff;
      }

      .st1 {
        stroke: #fff;
        stroke-width: .2px;
      }

      .st2 {
        fill: none;
        stroke: #000;
        stroke-width: .5px;
      }
    </style>
  </defs>
  <path d="M0,0h900v600H0V0Z"/>
  <path class="st0" d="M0,0h450v600H0V0Z"/>
  <path d="M22.2,82.8v45.5h45.5c0,7.6,7.6,15.2,15.2,15.2v45.5h45.5v-45.5c7.6,0,15.2-7.6,15.2-15.2h45.5v-45.5h-45.5c0-7.6-7.6-15.2-15.2-15.2V22.2h-45.5v45.5c-7.6,0-15.2,7.6-15.2,15.2H22.2Z"/>
  <path d="M25.3,85.9v39.4h45.5c0,7.6,7.6,15.1,15.2,15.1v45.5h39.4v-45.5c7.6,0,15.2-7.6,15.2-15.2h45.5v-39.4h-45.5c0-7.6-7.6-15.2-15.2-15.2V25.3h-39.4v45.5c-7.6,0-15.2,7.6-15.2,15.2H25.3Z"/>
  <path class="st0" d="M26.8,87.4v36.4h45.5c0,7.6,7.6,15.2,15.2,15.2v45.5h36.4v-45.5c7.6,0,15.2-7.6,15.2-15.2h45.5v-36.4h-45.5c0-7.6-7.6-15.2-15.2-15.2V26.8h-36.4v45.5c-7.6,0-15.2,7.6-15.2,15.2H26.8Z"/>
  <g id="a">
    <path d="M84.5,71.7c2.7,2.7,1.9,7.7-1.6,11.2s-8.6,4.3-11.2,1.6c-2.7-2.7-1.9-7.7,1.6-11.2s8.6-4.3,11.2-1.6Z"/>
    <path class="st0" d="M71.1,79.7l1.1-1.1,4.3,2.1-2.1-4.3,1.1-1.1,4.3,8.6-8.6-4.3h0ZM77.6,73.3l1.1-1.1,6.4,6.4-1.1,1.1-6.4-6.4Z"/>
  </g>
  <g id="a1" data-name="a">
    <path d="M139.4,84.5c-2.7,2.7-7.7,1.9-11.2-1.6s-4.3-8.6-1.6-11.2c2.7-2.7,7.7-1.9,11.2,1.6s4.3,8.6,1.6,11.2Z"/>
    <path class="st0" d="M131.4,71.1l1.1,1.1-2.1,4.3,4.3-2.1,1.1,1.1-8.6,4.3,4.3-8.6h0ZM137.8,77.6l1.1,1.1-6.4,6.4-1.1-1.1,6.4-6.4Z"/>
  </g>
  <g id="a2" data-name="a">
    <path d="M126.6,139.4c-2.7-2.7-1.9-7.7,1.6-11.2s8.6-4.3,11.2-1.6c2.7,2.7,1.9,7.7-1.6,11.2s-8.6,4.3-11.2,1.6Z"/>
    <path class="st0" d="M140,131.4l-1.1,1.1-4.3-2.1,2.1,4.3-1.1,1.1-4.3-8.6,8.6,4.3h0ZM133.5,137.8l-1.1,1.1-6.4-6.4,1.1-1.1,6.4,6.4Z"/>
  </g>
  <g id="a3" data-name="a">
    <path d="M71.7,126.6c2.7-2.7,7.7-1.9,11.2,1.6s4.3,8.6,1.6,11.2c-2.7,2.7-7.7,1.9-11.2-1.6s-4.3-8.6-1.6-11.2Z"/>
    <path class="st0" d="M79.7,140l-1.1-1.1,2.1-4.3-4.3,2.1-1.1-1.1,8.6-4.3-4.3,8.6h0ZM73.3,133.5l-1.1-1.1,6.4-6.4,1.1,1.1-6.4,6.4Z"/>
  </g>
  <g>
    <circle class="st2" cx="105.6" cy="105.6" r="31.8"/>
    <circle class="st2" cx="105.6" cy="105.6" r="24.2"/>
  </g>
  <circle cx="93.4" cy="131.3" r="1.5"/>
  <circle cx="117.7" cy="131.3" r="1.5"/>
  <path d="M0,0"/>
  <g>
    <path class="st1" d="M122.8,110.2c.5-.1,1.4,0,1.4,0,0,0,0,.4-.2.5.3.1,1.2.1,1.2.1,0,0-.4.3-.5.4.3,0,.7.5.7.5,0,0-.8.1-1.1,0,.2.4.2.8.2.8,0,0-1.2-.3-1.7-1.1M120.8,109.5c-.3.7-2.5-.6-2.5-.6,0,0,1,1.5,2.4,1.7M93.2,123.7h25.9l2-1.6-3.3-1.8-5.1-1.7-2.1-1.1-3.8.2-3.2,1.7-4.4.5-1,1.2-3.2.3h-5.1c0-.1,8.5,1.2,8.5,1.2l-7-.4,1.8,1.5h0Z"/>
    <path class="st1" d="M107.1,116.2c-3.2-1.7-4.2,2.6-5.6,3.6,1.9.3,3.3-1.4,4.9-2.3,1.2,3.3,3.2,1.1,3.2,1.1,0,0,2,3.2,4.7,1.7.7.6,1.5,0,1.5,0,0,0,1,.2,1.2-.3.5.2,1.1-.5,1.1-.5,0,0,1.1,0,1.3-.6,1.7.3,3.8-3.4,3.8-3.4l.7-1.3,1-.2s0-.6-.5-.6c0-.4-.3-.6-.8-.5,0-.2-.3-.4-.3-.4-.9.2-1,2.6-1,2.6,0,0-1.6,1.2-2.2,1.5,0-1.3-2.3-3.1-1.8-4s1.9,1.3,3.2.9c1.3-.4,1.9-2,1.9-3.3-.4-.9-1.2-2.3-1.2-2.3h-.8c0,0-.7-1.8-.7-1.8,0,0-1.5,1-1.5,1.8,0,.9,1.6,1.6,1.6,1.6,0,0-.9.6-1.7.3,0,.9,1,.7,1.4.7.2.6.8,1,.8,1,0,0,.4,1-.6.9-1,0-2.2-2.4-3.6-1.3-1.5,1.1.7,3.2.7,3.2,0,0-1.3.7-2.1,2.5-3.2-2.7-5.1-1.4-8.6-.7Z"/>
    <path class="st1" d="M102.5,111.7c1.3,1.3.4,3.3.9,3.7.6.4,1.3-.2,1.3-.2,1.4.4,3.9-.4,3.9-.4,1.1.6.7-.3,1.3-.3.6,1.5,2.6,1.2,2.6,1.2,0,0-1.8-1.8-2.9-2.4-.9.5-3.4.6-3.8.5-.5,0-.2-.7-.4-1,.9-.9.2-3.1-.3-3.9-2-1.4-4.5,1-2.6,2.7ZM93.6,107.9c-1.7.5-4.6-2.2-5.9-1.2s-.7,3.5.2,4.7c.9,1.2-1.3,1.6-1.9,2.4-.6.7.2,1.4.2,1.4l.6.4v.9c-.1,0,.2,1.1.2,1.1,0,0,.3.3.4,0,.3.3,0,1.1.7,1.2-.2-.5.2-2,.2-2,0,0,1.2,0,1.5-.4.3-.5-.3-1.7-.3-1.7h.4c-.4-.3-.5-1.1-.5-1.1,0,0,1.7-.5,1.7-1.8,0-1.3-2.7-2.6-1.7-3.3,1.1-.7,3,1.9,4.7.7,1.6-1.2.6,0,.6,0,0,0,.7-1.7-.9-1.2ZM102.2,90c-2.2-.9-6.8-1-9.4-2.3-1.1,0-1.6,1-1.7,1.3-1.2,0-2,1.8-1.8,2.2-2.1-.9-3.1,2.5-2.4,3.2-1.8,0-1.6,2.4-1.8,3-.6,1.4.1,1.9,1.3,1.4.2.6,0,1-.6,1.1,3.2,3.6,4.9-2.2,7.7-2.2,3.5-1,4.8-2.7,4.8-2.7l1.4.2s2.5-5.2,2.5-5.2Z"/>
    <circle class="st1" cx="105.1" cy="87.4" r="3.3"/>
    <path class="st1" d="M99.3,113.4c-2.1-.4-5.4-2.5-5.8-5.3,1.9-7.5,11.8-3.6,12.6-9.2-.2-3.7.4-7.4,2.5-10.5,1-1.2,2.2-1.5,2.2-1.5,0,0,.2.8-.1,1.3,1.6-.2,3.9.7,5.4.8.4.9.4,1.2.3,1.8-.1.6-.7.4-.7.4-.4.4-.9.8-1.9.6-.8.6-2.5.8-2.5.8,0,0,3.6,3.8,3,4.9.7.3,1.8,2,1.8,2,0,0,2.4-1.3,3.2-2.5,1.4,0,3.7,1.5,4.9,1.6,1.4,1.1,2.8,2.3,2.8,2.3,0,0-1.7,1.1-2.4-.4-.9,0-2.8-2-5.4-1.4,0,2.3-2.7,4-2.7,4,0,0,2.4-.3,3.7.5,1.1.9,2.2,1.8,3.4,2.7l1.8,3.1s-1.6.3-2.3-1.8c-.6,1.7-.6-1.1-3.1-2.4-.7,0-1.1.1-1.7-.4-1.8.5-3.8,1.5-6.3,1.2-1.8.6-3,2-4.8,2.8-1.8.8-2.3.4-2.3.4h-1.4c-.2.9,0,2.2-.9,2.5.5.5-.4,2.8-1.2,3.2.4,1.5,1.6,1.9,2.9,2.7,0,0,1.1-.5,1.8.2s1.5,2.6,1.5,2.6c0,0-1.5.1-2-.1-.5-.2-.5-.7-1.1-.6-3.5-3.1-5.3-1.9-5.6-2.6-.3-.7.8-2.6.5-3.8Z"/>
    <path class="st1" d="M91,99.7c.2-.2,1.4.3,1.4.3l2.3,1.4,4.7,3,1.7,2.4-3-1-4.2-3.6-2.2-1.4s-.9-.9-.7-1.2h0ZM118.8,107.4c-1.6-.4-5.6,4.5-5.6,4.5l3,3.3s0-5.6,2.6-7.7Z"/>
    <path class="st1" d="M99,93.8c-.9,1.1-1,3.4.2,4.4.1,1.4,1.3,4.2,2.2,4.5,1,.3,5.1,1.2,6.7,1-.3,2.6,1.7,4.6,3.6,6,0,.2,0,.5.2.8.2.3,1.2.3,1.2.2.4.6,2.5.9,2.7.6.2-.3-3.1-2.5-3.8-3.2-.6-1.1-1.8-3.7-2.1-5.7-1.6-1.9-4.3-1.9-4.3-1.9v-3.7c0,0,.2-4.2.2-4.2l-1.5-.8s.3-.1.5-.3c.4.2,1-.6,1.1-.8.3.1.7.1.7,0,0-.2.1-.9.2-1.2,1.1-1-.2-3.1-1.9-3.1-1.7,0-2.1,2-2,2.2.2.6.1,1,0,1.1-.1.2-.7.5-.7.5,0,0-.9-.4-2.1,0s-2.4,1.1-2.5,1.8c-.5,0-1.4.8-1.5,1.3-.5,0-1.1.3-2.1,1.9-1.8.8-1.9,4.6-1.9,4.6,0,0-.5.7-.5,1.1,0,.4.2.7.4.6,0,.2.3.5.5.4,0,.2.4.4.6.3,0,.2.7.1.8,0,0-.2,0-1,0-1.1,0,0,.6.4.8.3.2-.1,0-.5-.1-.6,0-.1-.6-.3-.7-.9s.3-1.4.3-1.4c0,0,1.9-1.5,2.1-2.8,1.4.1,2.2-1.1,2.6-1.6h0Z"/>
    <path class="st1" d="M95.7,88.4c.4-1.1,2-1,2-1,0,0,.6-1.5,2.7-.6.8-.6,2.9.3,2.9.3,0,0,.8-1.1,1.8-.9,1.9.2,2.2,2,2.1,2.3-1.1.3-2.9-.9-4.3-.5-.8.5-2.1.9-2.6,1.6-1.3.1-2.7-1.2-4.7-1.1ZM99.7,90.2c.5-.3,1.7-.8,2.5-.2.8.9,2.1,1.7,2.1,1.7l1.5.6.7.4-.4,6.7c-1.4-1.4-2.6-1.6-3.6-3.3-.5-.7-.1-2.4-1-3.5-.9-1.1-1.9-1.9-1.7-2.5Z"/>
    <path class="st1" d="M103.2,92.1s.8-.1,1,0c.3,0,.5.2.6.4.3,0,.5.2.5.5.3,0,.4.6.4.6l-.3.4s-.3-.3-.3-.6c-.2,0-.6-.2-.7-.5-.3,0-.5-.2-.6-.5-.3,0-.6-.3-.6-.3Z"/>
    <path class="st1" d="M109.7,87.7c-.4-.5-1.2-.1-1.2-.1l-2.1,3.5-.9.7v2.8c0,0,.7,2.6.7,2.6l-.3,2s1-1,1.2-1.5c.1-.5-.4-2.2-.4-2.2,0,0-.6-1.1.1-3,.7-1.9,2.4-3.6,2.8-4.8h0Z"/>
    <path class="st1" d="M114.7,90.9s-3.2,4.6-8.4,6.2c-1.4.3-.9-3.4-.9-3.4h-.4c0,.1-.8,3.8,1.1,3.8,5.3-1,9.2-6.6,9.2-6.6h-.6s0,0,0,0ZM116.9,117.2s-.5.4-1.1,0c-.3-.8-1.2-.8-1.2-.8,0,0-.6-1.7-1.5-1.2-.1-.9-1.1-.4-1.1-.4,0,0,0-1.2-1.2-1.1.4-1.4-1.6-1.3-1.6-1.3,0,0,0-1.6-3-1.3,6.3-2.8,11.2,4.4,11.2,4.4M119.9,117.8s1.4,1.6,2.2,1.6c.8,0,.8-1.6.8-1.6,0,0,.2.7.6.5,0,.5.5.6.5.6,0,0-1.3,3-5,.2M108.5,118.4l-.5,2.1s-.7.6-.5.7c.2.1,1.2-.2,1.2-.2,0,0,1.6-.2,2.1-.7.3.8,1.1.8,1.1.8,0,0,0-.3,0-.5.4,0,.7,0,.7,0,0,0,.2-.6-.3-.8,0-.4.3-.8-.5-.8-.6.6-2,1.3-2.4,1.1-.4-.2,1.4-1,.9-2.1"/>
  </g>
</svg>