<?xml version="1.0" encoding="UTF-8"?>
<svg id="Calque_1" xmlns="http://www.w3.org/2000/svg" version="1.1" viewBox="0 0 640 320">
  <!-- Generator: Adobe Illustrator 29.4.0, SVG Export Plug-In . SVG Version: 2.1.0 Build 152)  -->
  <defs>
    <style>
      .st0 {
        fill: #fff;
      }
    </style>
  </defs>
  <path d="M0,0h640v320H0V0Z"/>
  <path class="st0" d="M16,16h608v288H16V16Z"/>
  <path class="st0" d="M389.6,157.4c1.9-.5,8.4-2.4,13-6.2,4.6-3.7,5.5-6.7,5.9-8.3.4-1.6.5-2.9-.7-2-1.2.9-4.8,3.7-7.2,5.1-1.9,1-3.9,1.8-6,2.4-1.3.4-2.4.6-1.1.1,1.3-.5,5.4-1.9,8.6-5.1,3.2-3.2,5.7-8,5.8-10.9,0-2.9-.1-2.7-1.1-2-.9.7-4.3,4.9-6.2,6.5-2.1,1.7-4.2,3.2-6.5,4.6-1.5.9-3.7,1.9-.7-.2,3-2.1,8.7-6.9,11-13.1s1.9-9.9,1.8-10.6c0-.6-.6-1.9-1.1-.7-.5,1.2-4.3,8.7-7.4,12-3,3.3-2.3,2.6-3,3.1-.7.5-1.8,1.5-.4-.4,1.5-1.8,4.5-6.1,6.1-10.3,1.6-4.2,2-8.4,2-10.8,0-2.4-1-5.8-1.5-6.8s-1-1.7-1.1-.6c-.2,1.2-2.6,8.6-3.9,12.2-1.2,3-2.7,5.8-4.5,8.5-.5.8-1.9,2.4-.4-.3s4.3-10.8,4.7-18.4c.4-7.6-.7-11.8-1.7-13.9-1-2.1-2-2.8-2-2.8,0,0,.2,5.2-1.4,12.7s-3.8,11.4-3.8,11.4c0,0-1,1.1-.3-.7,1-2.7,1.6-5.5,1.8-8.4.4-4.7.5-10.1-.9-14.7-1.5-5-4.1-7.5-4.1-7.5-.7,7.1-.6,16.3-3.2,23.8-.5-.4-1.1-1.2-1.4.4-.8,4.5-2.4,8.9-4.7,12.9-3.2,5.9-4.5,6.6-4.5,6.6,0,0-.6-1.4-1-2.2-.4-.8-.6-1.2-1.2-.1-.5,1.1-2.3,5.2-6.3,9.7-3.9,4.6-6.1,6.8-6,10.2.1,3.4,1.9,5.1,4.3,6.7,2.4,1.6,2.8,2.4,2.4,4.2s-2.5,2.5-4.4,2.6c-1.9,0-4.2-.1-5,.4-.8.5-.9,1.7-1.7,2.5-.8.8-1.2,1.3-2,1.4h-.7c-.2-8.9,3.3-12.9,3.3-12.9l-9.7-11.4-1.5.7c0-.2-.2-.3-.3-.4-1.2-1.4-1.8-3.3-1.7-5.2.5,0,1.5.4,2.3.2.9-.2.2-1.1,0-1.9-.3-.8-.5-3.8-.4-4.9l.3-1.6s1.4,1.6,2.3,1.6.8-.9.9-1.9c.2-1.5.9-3.3,2-4.3,0,0,1.5,1.1,3.3,1.1,2.2,0,4.4-.8,6-2.3,1.9-1.8,1.9-2.3,1.9-2.3,0,0,3.5,1.2,6.2,1.4,2.7.1,5.6-.3,6.9-3.1,1.4-2.8-.4-5.4-.7-5.9-.3-.4-1.2-.8-1.2,0s0,2.9-1.6,4c-1.6,1.1-2.9,1-4.5.5-2.8-1-5.9-1.1-8.7-.2.1-.1,2.1-2.2,4.1-2.8,2-.6,3.2.2,3.9,1s1.2,2.1,1.8.2c.5-1.8.3-3.7-.7-5.3-1.1-1.5-2.9-2.3-4.8-2-2,.2-2.7.5-2.7.5,0,0-1-2.9-3.6-3.4-3.1-.7-6.6.5-9.3,2,0,0-2.1.5-4.3-.1-1.3-.4-2.5-1-3.6-1.8l.7-2.3,1.3-.4c.6-.2.5-.5.6-1,0-.5-1.2-1.5-1.2-1.5,0,0-.2-1.6,1.9-2.7,2.1-1.1,1.9-.9,1.9-.9,0,0,1.2.2,1.8-.1.5-.4.5-.6.5-.6,0,0,.9-.3,1.3-.9.3-.6.4-1.4.1-2.1s-.6-.8-.2-1.1c.3-.3.7-1.1.7-1.6v-.7s.8-.2.7-1.3c0-1.1-.6-1.6-1-1.7-.3,0-.6,0-.6,0,0,0,0-.7-.6-1.5-.6-.9-.9-1.3-.9-1.3,0,0,.4-.3.2-1-.2-.6-.6-1.1-1.2-1.3-.5-.2-1,0-1,0,0,0-1.7-1-2.5-1.4l-1-.5s0-.7-.3-1.1-1-.5-1.3-.5-.7.2-.7.2c0,0-2.8-.7-4-.9-1.2-.2-1.2-.3-1.2-.3,0,0-2.5-1.2-3.5-1.4-1-.2-1.2-.3-1.2-.3,0,0,1-1.2,1.1-2.7,0-1.4-.7-2.6-1.9-3.4-.6-.3-.9-.4-1.1-.5v-1s1.9.2,1.9.2v-3c.1,0-1.7.2-1.7.2l.3-1.8h-3.9s.3,1.8.3,1.8h-1.9c0-.1.2,2.9.2,2.9l2-.3-.2,1.1s-.7.1-1.3.6c-1,.6-1.9,1.8-1.8,3.2,0,1.4.9,2.7.9,2.7,0,0-.2,0-1.2.2-1,.2-3.5,1.4-3.5,1.4,0,0,0,0-1.2.3-1.2.2-4,.9-4,.9,0,0-.4-.2-.7-.2s-1,.2-1.3.5c-.3.4-.3,1.1-.3,1.1l-1,.5c-.8.4-2.5,1.4-2.5,1.4,0,0-.5-.2-1,0-.5.2-1,.6-1.2,1.3s.2,1,.2,1c0,0-.4.4-1,1.3-.6.9-.6,1.6-.6,1.6,0,0-.2,0-.6,0-.4,0-1,.5-1,1.6,0,1.1.7,1.3.7,1.3v.7c0,.5.4,1.3.7,1.6.3.3,0,.4-.2,1.1-.2.7-.2,1.5.1,2.1.4.6,1.3.9,1.3.9,0,0,0,.2.5.6s1.8.1,1.8.1c0,0-.2-.2,1.9.9,2.1,1.1,1.9,2.7,1.9,2.7,0,0-1.3.9-1.2,1.5,0,.5,0,.8.6,1,.6.2,1.3.4,1.3.4l.7,2.3c-.8.5-2.2,1.4-3.6,1.8-2.2.6-4.3.1-4.3.1-2.7-1.5-6.1-2.7-9.3-2-2.6.5-3.6,3.4-3.6,3.4,0,0-.7-.3-2.7-.5-1.8-.2-3.7.5-4.8,2-.9,1.6-1.2,3.6-.7,5.3.5,1.9,1.1.6,1.8-.2.7-.8,1.9-1.6,3.9-1,2,.6,4,2.7,4.1,2.8-2.9-.9-5.9-.8-8.7.2-1.5.6-3.2.4-4.5-.5-1.6-1.1-1.6-3.2-1.6-4s-.9-.4-1.2,0-2.1,3.1-.7,5.9c1.4,2.8,4.2,3.3,6.9,3.1,2.7-.1,6.2-1.4,6.2-1.4,0,0,0,.4,1.9,2.3,1.9,1.8,4.3,2.3,6,2.3s3.3-1.1,3.3-1.1c1.1,1,1.8,2.9,2,4.3.1,1,0,1.9.9,1.9s2.3-1.6,2.3-1.6c0,0,0,.4.3,1.6.2,1.1,0,4-.4,4.9-.3.8-.9,1.7,0,1.9.9.2,1.9-.2,2.3-.2,0,2.1-.4,3.5-1.7,5.2l-.3.4c-.5-.2-1-.4-1.4-.7l-9.7,11.4s3.5,4,3.3,13.1h0c-.2,0-.4-.1-.7-.2-.8-.1-1.1-.6-2-1.4s-.9-2-1.7-2.5-3.2-.3-5-.4c-1.9,0-4-.7-4.4-2.6-.4-1.9,0-2.7,2.4-4.2,2.4-1.6,4.2-3.3,4.3-6.7.1-3.4-2.1-5.6-6-10.2-3.9-4.5-5.7-8.7-6.3-9.7s-.8-.7-1.2.1c-.4.8-1,2.2-1,2.2,0,0-1.3-.8-4.5-6.6-2.2-4-3.8-8.4-4.6-12.9-.3-1.7-.9-.8-1.4-.4-2.6-7.5-2.5-16.7-3.2-23.8,0,0-2.6,2.5-4.1,7.5-1.4,4.6-1.3,9.9-.9,14.7.4,4.5,1.3,7.2,1.8,8.4.7,1.8-.3.7-.3.7,0,0-2.3-3.9-3.8-11.4-1.6-7.5-1.4-12.7-1.4-12.7,0,0-.9.7-2,2.8-1.1,2.1-2.1,6.3-1.7,13.9.4,7.6,3.2,15.7,4.7,18.4,1.5,2.7.1,1.1-.4.3-1.8-2.7-3.3-5.5-4.5-8.5-1.3-3.6-3.7-11.1-3.9-12.2-.2-1.2-.6-.4-1.1.6s-1.5,4.4-1.5,6.8c0,3.7.8,7.3,2.1,10.8,1.6,4.2,4.6,8.5,6.1,10.3,1.5,1.8.3.9-.4.4s0,.1-3-3.1-6.8-10.8-7.4-12c-.5-1.2-1.1,0-1.1.7,0,.6-.5,4.3,1.8,10.6,2.3,6.2,8,11.1,11,13.1s.8,1.1-.7.2c-1.5-.9-4.6-3-6.5-4.6-1.9-1.6-5.2-5.7-6.2-6.5-.9-.7-1.1-.9-1.1,2s2.6,7.7,5.8,10.9c3.2,3.2,7.3,4.6,8.6,5.1s.2.3-1.1-.1c-2.1-.5-4.1-1.3-6-2.4-2.4-1.4-6-4.1-7.2-5.1-1.2-.9-1,.4-.7,2s1.3,4.6,5.9,8.3c4.6,3.7,11.1,5.6,13,6.2,1.9.5.6.5.6.5,0,0-.7-.1-4.5-.9s-9.6-3.9-11.1-4.8c-1.6-1-1.8-1.4-1.6.7.2,2.1,2.4,6.5,5.9,8.5s9.8,3.1,11.5,3.2c1.6,0,1.2.3.5.4-.7,0-2.6,0-5.5-.3-2.4-.3-6.1-1.5-7.3-1.9-.1-.5-.3-1-.3-1.4-.1-.8-.6-.7-.8-.5-.3.2-.4.3-1.3.8-.9.4-.9,0-.9-.4,0-.3-.2-1.4-.2-2,0-.6-.4-.6-.8-.4l-3.1,1.3c-.7.3,0,.9.3,1.6.4.7,1,1.7,1,1.7l-2.4.6c-.6.1-.4.6-.3,1,.1.4,1,2.4,1.3,3s.8.2.8.2l1.8-1.1.6,2.4s-.9.2-1.8.9c-.9.6-.7,1.5.4,1.8,1.1.3,2.4.9,3.8,3.5,1.4,2.6,1.8,7.3,2.7,14.6.9,7.4,5.6,11.1,6.2,11.6s.3.8.3.8c0,0-.6.9-.4,2.4.3,1.1,1.1,2.1,2.2,2.5.6.2.5.9.5.9,0,0-.3,1.6,0,4.4.3,2.9,2.7,6.1,3.3,6.7.6.6.7.8.6,1.1,0,.2-.5,0-1.3.6-.9.7-1.7,1.5-2.2,2.5-.6,1-.4,1.6-.2,3,.2,1.4,2.2,2.6,2.2,2.6,0,0-.4,0-.5,1.1,0,1,.6,2.2,1.6,2.9.9.7,2.7,1.1,2.7,1.1l.2,1.5c0,.6,1.2,1.2,2,1.6.7.4,2.2.2,2.8,0,.6-.3,1,0,1.4.6.4.6.2,2.9.2,3.9s-.5,1.9-.2,2.4c.3.5,1.2.1,2.1-.4.9-.5,1.1-.1,1.9.4.7.5,1.5.8,2.4.9.3,0,.2-.9.2-1.6s.1-2.3.5-2.5c.1-.1,1.5-.2,2.5-.6.5-.2,1.1-.4,1.2-.9,0-.5-.6-.5-2.2-1.2-1.5-.8-1.8-1.2-2.8-1.9s-.5-.9-.5-1.2.5-.6.6-1,.1-1.2.1-1.2c0,0,.8-.8,1.1-1.2.4-.4.8-1.1,1.3-1.5s1.3-2.4,1.8-3.1c.5-.6,1.7-1.3,2.4-2.2.7-.9,2.5-2.3,3.6-3,1.1-.7,3.9-2,3.9-2,0,0,0,1.7.7,2.6.7.8,1.7-.6,5-3s5.8-3.1,5.8-3.1c0,0,.7,1.1,1.6,2.2.9,1.1,1.7,0,5.7-5.6,2.7-3.6,5.7-6.9,9-9.9l.9.4c0,.2-.2.5-.2.7-.4,1.2-1,1.9-1.8,3.5-.8,1.6-2,2-3.4,4.1-1.4,2.2-1.6,3.6-1.7,5.9-.1,2.2,1.1,2.7,1.1,2.7,0,0-2,2-2.6,3.4s-.9,4.5-.9,4.5c0,0-.3.1-1.1,1.6-.7,1.5-2.1,1.8-4,3.7-1.9,1.9-4.1,2.8-5.1,3.4-1,.6-.7,1.2-.5,2,.3.8,1.7,1.6,3.3,2.2,1.6.6,2.2.4,3.3.3,1.1,0,.2.8-.2,1.3-.5.4-1.1,2.1-1,3.9,0,1.8,1.4,1.4,3.1,1.1,1.7-.3,3.6-1.1,3.6-1.1l-.2.5c-.2.5-.3.9-.3,2.3s.2,2.1.6,2.5c.4.4,1.2-.4,1.8-.6.6-.2,1.6-.8,3.1-1.1,1.5-.3,2-1,2-1,0,0-.4.5-.5,1.5-.1,1,0,2.5.2,3.4.2.9.9,1.9,1.9,2.9,1,.9,1.2.5,2-.6.7-1.1,2.3-2.6,2.3-2.6,0,0,0,.4,1.1,3.6,1,3.3,4.3,6,4.3,6,0,0,3.3-2.7,4.3-6,1-3.3,1.1-3.6,1.1-3.6,0,0,1.5,1.5,2.3,2.6.7,1.1,1,1.6,2,.6.9-.8,1.5-1.7,1.9-2.9.2-.9.3-2.4.2-3.4,0-1-.5-1.5-.5-1.5,0,0,.5.6,2,1,1.5.3,2.5.9,3.1,1.1.6.2,1.4,1,1.8.6.4-.4.6-1.1.6-2.5s-.1-1.8-.3-2.3l-.2-.5s1.9.8,3.6,1.1,3,.7,3.1-1.1c0-1.8-.5-3.4-1-3.9-.5-.5-1.3-1.3-.2-1.3,1.1,0,1.7.3,3.3-.3,1.6-.6,3-1.4,3.3-2.2s.5-1.4-.5-2c-1-.6-3.2-1.4-5.1-3.4-1.9-1.9-3.3-2.2-4-3.7-.7-1.5-1.1-1.6-1.1-1.6,0,0-.3-3-.9-4.5s-2.6-3.4-2.6-3.4c0,0,1.2-.5,1.1-2.7-.1-2.2-.3-3.7-1.7-5.9-1.4-2.2-2.6-2.5-3.4-4.1-.8-1.6-1.4-2.3-1.7-3.5,0-.2-.2-.5-.2-.7l1.2-.5c3.3,3,6.3,6.3,9,9.9,4,5.6,4.8,6.7,5.7,5.6s1.6-2.2,1.6-2.2c0,0,2.5.8,5.8,3.1,3.3,2.3,4.2,3.8,5,3,.4-.4.5-1.2.5-1.7,2.7.8,5.3,1.7,7.8,2.8,2.9,1.2,3.2,1.8,5.4,3.6s5.5,1.6,8.5.7c3-.9,11.2-3.6,14.4-5,3.2-1.4,5.6-2.6,5.9-3.3.3-.6.7-2.5.7-3.1s-.7-1.6-1-1.8-.1-.7,0-1.1c0-.8-.2-1.6-.6-2.2-.5-.6-.4-.8-.4-2.3.1-3.4-2.2-7.6-5.6-8.9,0,0,0-.4-.4-.6-.3-.2-.7-.4-.7-.4,0,0,0-1.9,0-2.3s.2-.4.4-.2.6.6,1.1.7c.5.1.9-.2,1-.9.1-.6.6-1.9.8-2.5.2-.6,0-.7-.3-.8-.2,0-1.1-.2-1.5-.2-.4-.1-.4-.1-.3-.3.1-.2.2-.5.7-1.3s0-.8-.4-1c-.5-.2-2.6-.8-3.2-.9-.6-.1-.7.4-.7.7s0,1.4,0,1.8-.4.3-.6.2c-.4-.2-.8-.5-1.2-.8-.4-.3-.7,0-.9.4-.2.5-.7,2.3-.8,2.9-.2.5-.1,1,.1,1.1.2.1,1.3,0,2,0s.3.4.3.4c0,0-.7,1.1-.9,1.6-.2.4-.6.5-1.1.5h-1.4s-3.5.1-6.1,2.1c-2.6,1.9-3.3,3.5-3.7,4.4-.4.9-.9.7-1.3,1.1-.4.3-1.5,1.5-1.5,2.3s.3,1.1-.9,1.9c-1.1.7-2,3.9-.5,5.6,1.5,1.6,2.1,3.3,2.6,4.1.5.8,0,1.1-.4,1.1s-1.2-.7-1.9-1.2c-.7-.5-4.2-3.2-5.7-4.4-1.5-1.1-.4-1-.4-1,0,0,.4,0,1.3-.3s1-.8.1-1.1c-1.1-.4-2.1-1-3-1.7-.5-.5-.7-1,.2-1.4.9-.5,2.8-1.7,1.3-2.1-1.5-.4-3.3-.7-4.8-1.2-1.5-.4-1.6-.8-1.6-.8l1-1.4s.8-1.1-.1-1.2-3.1-.4-5.2-1.3c-4.1-1.8-6.6-4.7-7.5-8.4h0c.8,1.4,2.5,4.2,5.2,4.3,3.6.1,4.1-1,3.2-2.2s-1.8-2.3-2-2.6c-.2-.4-.3-.8.7,0s2.8,3.9,8.3,3.6c5.5-.4,5.5-1.4,5.5-1.7,0-1.1-1.1-1.2-1.8-1.9s-.6-.9.5-.4,3.8.9,7.5.1c1.5-.3,5.3-2,5.7-4,0,0-2.5-.1-4.2-.9-1.7-.7-2.7-1.4-.9-1,1.8.4,5.4,1.1,8.5,0,1.8-.6,4.2-2.1,4.2-4.8,0,0-3.4-.7-4.6-1.2s-1.6-.8-1.6-.8c0,0,4.8,1.5,9.2-.7,4.4-2.2,4.6-5.3,4.6-6s-.1-.9-.1-.9c0,0-4,1-7,.9-3,0-3.9-.3-3.9-.3,0,0,8.3-.2,12.5-2.8,4.2-2.6,4.4-7.6,4.4-7.6,0,0-4.8,1.7-7.7,2-3,.3-4.8.3-5.5.3-.7,0-1.2-.3.5-.4,1.6,0,8-1.1,11.5-3.2,3.5-2.1,5.7-6.5,5.9-8.5.2-2.1,0-1.7-1.6-.7-1.6,1-7.3,4-11.1,4.8s-4.5.9-4.5.9c0,0-1.5,0,.4-.6h.1ZM239.5,167l-1.7,1s-.7-1.4-.9-1.8c-.2-.4,0-.6.1-.6s.9-.2,1.5-.3c0,0,.1,0,.2,0,.2.5.4,1.1.8,1.7h0s0,0,0,0ZM290.7,196.9c-1,1.9-3.8,3.9-5.8,4.8s-4.2,1.1-5.2,1.3c-.9.1-.1,1.2-.1,1.2l1,1.4s-.1.4-1.6.8-3.3.7-4.8,1.2c-1.5.4.4,1.7,1.3,2.1s.6,1,.2,1.4c-.5.5-2.2,1.4-3,1.7s-.7.8.1,1.1c.9.4,3.3.8,3.3.8,0,0,0,.1-1.5,1.2-1.7,1.1-3.7,1.8-5.8,1.9-1.7.1-4.4.2-7.8,0-3.4-.2-3.8-.2-3.8-.2,0,0-.1-1.1-.4-2.8-.2-1.7-1.3-4.1-2.1-5.2-.8-1.1-2.4-3.3-2.4-3.3,0,0,0-.5.2-1s0-1.1-.4-2.2c-.4-1.1-2.4-2.6-2.4-2.6,0,0,0-1.1,0-2.2s-.7-5.1-1.4-7.1-3.8-7-5.2-9.4c-1.4-2.4-2.3-6-2.7-8.7-.4-2.8-.3-3.7-.1-4.4,0-.3.2-.6.3-.9.6.8,1.4,1.5,2.3,2.1,4.2,2.6,12.5,2.8,12.5,2.8,0,0-.9.3-3.9.3-3,0-7-1-7-1,0,0-.1.2-.1.9s.2,3.8,4.6,6c4.4,2.2,9.2.7,9.2.7,0,0-.4.3-1.6.8-1.2.4-4.6,1.2-4.6,1.2,0,2.7,2.4,4.2,4.2,4.8,3.1,1.1,6.7.3,8.5,0,1.8-.4.8.2-.9,1-1.7.7-4.2.9-4.2.9.4,2,4.2,3.6,5.7,4,3.7.8,6.4.3,7.5-.1s.9,0,.5.4c-.7.7-1.8.8-1.8,1.9s0,1.4,5.5,1.7,7.3-2.7,8.3-3.6c1-.9.9-.4.6,0-.2.4-1.2,1.4-2,2.6-.8,1.2-.4,2.3,3.2,2.2,2.7,0,4.5-2.9,5.2-4.4h0c0,0,.1.3.1.3-.3.9-.9,2.3-1.6,3.5h0ZM335,78.2c-.5-.9-.8-1.4-.8-1.4,0,0,2.1,1,3.3,2.4,1.2,1.4,1.2,2.1,1.4,2.8.2.7,0,1.9-.2,3.1-.2,1.2-.2,1.9,0,2.3.2.4.4.6.4.6,0,0-.9.2-1.8.6-.9.3-2,.7-2.6.1-.6-.5-.8-.9-.4-1.2.4-.3,1.9-.8,2-3.3.2-2.5-1-5.1-1.5-6ZM323.7,85.1c.5-1.2.7-2.3.3-4.8-.3-2.1-.7-3.8-.8-6,0,0,1.5.3,3.7,2.3,2.2,2,2.7,4.1,2.7,5.1s-.5,2.2-.6,3.2c0,1,.3,1.8.3,1.8,0,0-.8.3-1.5.8-.7.5-1.2.8-2.3.8-1.1,0-1.8-.6-2.4-.9s-1-.4-1-.4c0,0,1.3-.7,1.7-1.9h0ZM313,76.6c2.2-2,3.7-2.3,3.7-2.3-.1,2.2-.5,4-.8,6.1-.4,2.4-.2,3.6.3,4.8.5,1.2,1.8,1.9,1.8,1.9,0,0-.4,0-1,.4-.6.3-1.3.8-2.4.9-1.1,0-1.6-.3-2.3-.8-.7-.5-1.5-.8-1.5-.8,0,0,.4-.9.3-1.8,0-1-.6-2.2-.6-3.2s.5-3.1,2.7-5.1h0ZM305.1,88.8c-.6.5-1.8.2-2.6-.1-.9-.3-1.8-.6-1.8-.6,0,0,.2-.2.5-.6.2-.4.2-1.1,0-2.3-.2-1.2-.4-2.4-.2-3.1.2-.7.1-1.4,1.4-2.8,1.2-1.4,3.3-2.4,3.3-2.4,0,0-.3.4-.8,1.4-.5.9-1.7,3.5-1.5,6,.2,2.5,1.6,2.9,2,3.3.4.3.2.7-.4,1.2h0ZM334.3,109.8c-2.2,1.2-3.4.9-3.3,1.8,0,.9,2,1.6,2,1.6,0,0-2,2.1-3.5,3.1-1.5,1-3.4,1.6-3.4,1.6,0,0-.6,0-.3,1.1.4,1,1,1.6,1.5,1.9.5.3.8.3.8.3,0,0-2.7,2.9-3.9,3.8-1.2.9-1.9,1.2-2.8,1.6-1,.4-.5,2-.3,2.7s1.1,1.7,1.5,1.8c.5.1.7.5,0,1.5-.5.7-2,2.6-2.7,3.7h0c-.7-1-2.3-3-2.8-3.7-.6-1-.4-1.3,0-1.5s1.3-1.1,1.5-1.8c.2-.7.7-2.3-.3-2.7-1-.4-1.6-.7-2.8-1.6-1.2-.9-3.9-3.8-3.9-3.8,0,0,.3,0,.8-.4.7-.4,1.2-1.1,1.5-1.9.4-1-.3-1.1-.3-1.1,0,0-1.8-.6-3.4-1.6-1.5-1-3.5-3.1-3.5-3.1,0,0,1.9-.7,2-1.5,0-.9-1.1-.6-3.3-1.8s-2.9-2.7-2.9-2.7c0,0,2.5-.8,3.8-3.4.4-.9.5-1.7.5-2.4h.1c4,1.3,8.7,1.9,12.9,1.9s8.9-.5,12.9-1.8h.1c0,.7,0,1.5.5,2.4,1.2,2.5,3.7,3.4,3.7,3.4,0,0-.7,1.5-2.9,2.7h0Z"/>
  <path d="M347.5,158.5c0-6.8,3.1-11.1,3.1-11.1l-8.5-9.7c-8.1,3.1-15.5,3.3-22.1,0-6.6,3.4-14,3.2-22.1,0l-8.5,9.7s3.1,4.3,3.1,11.1-1.3,11.8-2.1,15.1c-.8,3.3-1.4,9.4.3,13.8,1.8,4.4,3.6,8.2,11.2,11.4s11.5,4.8,14.1,7c2.6,2.2,3.9,3.9,3.9,3.9,0,0,1.3-1.8,3.9-3.9,2.6-2.2,6.6-3.8,14.1-7,7.5-3.2,9.4-7,11.2-11.4,1.8-4.4,1.1-10.5.3-13.8-.8-3.3-2.1-8.3-2.1-15.1h0Z"/>
  <path class="st0" d="M344.8,161.3c-1.1-6.5,2.7-12.2,2.7-12.2l-7.3-8.5c-5.6,3.1-13.4,2.7-20.2-.4-6.8,3.1-14.6,3.6-20.2.4l-7.3,8.5s3.7,5.7,2.7,12.2c-1.1,6.5-3.4,16.7-2.8,20.9.6,4.2,3.5,9,6.6,11.6s7.5,4.7,10.7,5.8c2.8,1.1,5.4,2.6,7.8,4.5,1.5,1.1,2.5,2.1,2.5,2.1,0,0,1-1,2.5-2.1s4.6-3.4,7.8-4.5c3.2-1.2,7.7-3.3,10.8-5.8,3-2.6,6-7.4,6.6-11.6.6-4.2-1.7-14.4-2.8-20.9h0Z"/>
  <path class="st0" d="M344.1,162.1c-1-7,2.1-12.6,2.1-12.6l-6.6-7.3c-5.5,2.9-12.3,2.1-19.6-.4-7.4,2.6-14.1,3.3-19.6.4l-6.6,7.3s3.2,5.6,2.1,12.6-2.7,14.9-2.4,19.6c0,.3,0,.6.1,1h6s.4-.4,1-.7c.7-.3.9-.5.9-.5,0,0,.1-1.2.9-1.5.7-.3,1-.3,1.3-.3s.5,0,.9-.4c.4-.4,1.3-1.2,1.7-2.4s.7-1.7.7-2.5.3-2.1.3-2.1c0,0-.2-.4-.8-.1-.6.2-.7-.4-.8-1,0-.6,0-1.8.3-2.4s.5-.8.5-.8l-.2-.9s-3.8.8-4.5-2.2c-.7-2.9-.8-4.4-.9-4.7-.1-.3-.2-.5-.7-.4-.5,0-1.6-.3-2.4-1.9-.8-1.5-.8-2.1-.6-2.8.2-.6.6-.4.8-.2.1.2,1.1,1.6,1.5,1.2.4-.4.2-.4-.4-1.6s-.4-1.5-.3-2.1c0-.6-.2-1.3-.2-1.6s.4-.6.7-.4c.4.2.7.4.8.6.2.2.2.5.5.3s.1-1.2.1-1.6.4-.6.9-.3c.5.3.8.8.8,1.2s0,.7.2.7.4-.6.5-.9c0-.4.2-.9.6-.5.4.5.5,1.2.4,1.9-.1.7.1.4-.1,1.6s-.4,1.8-.4,2.8c0,.9,0,1.5.5,2.7.5,1.2.9,2.5,1.7,2.6h1.1s1-1.9,1.7-2.3c.8-.4,1.8-.5,2.6-.6.8-.1,1.1-.3,1.1-.5s-.2-.2-1.2-.4c-.9-.1-1.7-.4-1.7-1.1,0-.7.1-1.3-.5-1.3s-2.1-.5-2.6-1.5c-.5-1-.4-1.2-.3-1.7s.8-1.6,1.2-.6.7,1.1,1.1,1.4c.4.2.9.3.6-.4-.2-.7-.4-1.1-.4-1.6,0-.5.4-.7.8-.8.4-.1,1.6-.5,2.3-.6.6-.1.7-.2.7-.2,0,0,0-.4.9-.7.6-.2,1.3-.3,2-.3.6,0,1,.1,1.8-.3.8-.4,1.4-.4,1.9-.4.5,0,.9.2,1.3.5.4.3.3.6.3,1s0,.5.6.5,1,0,1.5.2c.5.2,1.2.5.8,1s-.5,1.1-.8,1.1c-.3,0-.2.3-.4.5-.1.2-.2.4.1.5.3.2.3.4.8.8.4.4,1.1.9.4,1.5s-1.8,1.2-1.8,1.2c0,0-.7.3.1.8.8.4,1.1,1.4,1.4,1.5.3.2.6.4.8.5.2.1.2.7.2.7,0,0-.4.3-1,.5s-1.2.5-1.7.5-.8,0-.6.5c.2.5.6,1.1.7,1.3,0,.3.2.8.2.8,0,0,.9.2,1.7.2s1.1,0,2.9-.2c1.8-.2,2.2-.2,3.9,0,1.7.2,1.9.1,2.4.3.4.2.9.4.9.4,0,0,2.4,0,3.7-.3,1.3-.3,1.6-1.1,1.4-1.6-.2-.4-.2-1.1-2.4-1.4-2.3-.3-3.2-.2-5-.6-1.8-.3-4.6-1.3-5.1-3.5-.5-2.2,1.3-3.2,2.2-3.6s2.9-1.1,3.8-1.5c.9-.4,2.6-.8,4.4-.5,1.8.2,2.8.7,3.5.3.7-.4,1.3-.1,1.1.5-.1.6-.8,1.9-2.8,2.5-2,.6-4.4.7-5.7.3-1.3-.4-2.3-.9-3.1-.6-.8.3-1.7,1.3-.8,2.4.9,1.2,5.2,1.5,6.4,1.7,1.2.1,5.5-.2,6.7,2,1.2,2.2.2,4.6-1.2,5.1-1.5.5-2.7.9-3.8,1.1h-1.1c0,.1.5,1.3.5,1.8s0,1.4.5,1.7c.5.4,1.3.6,2.2.5.9-.1,2,.5,2.1,1.4,0,.8.3,2,.4,3.6.1,1.6,0,3,0,3,0,0,0,.6-.3,1.2-.2.6-1.4,2.9-1.4,2.9h6.4c0-.3,0-.6.1-1,.3-4.7-1.4-12.6-2.4-19.6h0Z"/>
  <path d="M294.4,185.7c1.4,4,4.1,7.4,7.8,9.6,5.5,3.3,7.8,2.9,12.9,6.2,5.1,3.3,4.8,3.9,4.9,3.9s-.2-.6,4.9-3.9c5.1-3.4,7.5-2.9,12.9-6.2,3.6-2.2,6.3-5.6,7.8-9.6h-51.2Z"/>
  <path d="M298.9,158.1c.6.6,1,.8,1.9.7.9-.1,1.1.6,1.3,1.3.2.7.2,2.4.8,3.9.6,1.5,2.8,1.6,2.8,1.6,0-.9.3-1.7.6-2.6,0-.1.3-.8-.4-.8s-.7-.3-1.2-1.1c-.7-1.2-1.2-2.6-1.6-4-.2-1.3.2-3.1.4-3.8.2-.7.2-1.1,0-1.3-.2-.1-.7,0-.7,0,0,0,.2.6,0,.7-.2.1-.4-.3-.5-.7-.2-.4-.3-.4-.6-.3-.3,0-.3.3-.1.6.2.3.1.9.1.9,0,0-.7-.5-1-.6-.3-.1-.9.1-1,.5,0,.4.3,1.3.8,1.8.6.5.6,1.5.4,2-.2.5-1,.4-1.2.2-.2-.2-.5-.2-.7,0,0,0,0,0,0,0-.2.3-.5.4,0,1.1h0ZM298.5,156.5s-.3-.3-.5-.4l-.4-.5s0,.2,0,.5.4.8.4.8l.5-.4h0ZM299.8,152.2c.3-.1.5-.2.3-.5-.2-.3-.4-.6-.6-.7s-.4,0-.4,0c0,0,.2.6.3.9,0,.3.2.4.4.3ZM301.4,150.9c0,.3,0,.4.3.3.2-.1.3-.5.2-.7-.1-.2-.4-.4-.4-.4h-.2c0-.1.1.6,0,.8h0ZM303.7,151.3c0-.3-.1-.6-.1-.6,0,0,0,.4-.1.6s-.1.1,0,.3.2,0,.2-.3h0ZM307.4,166.9c.5,1.1,1.6-.6,2.6-1.9,1-1.3,1-.3.9.8,0,1,.2,2.1.7,3,.4.7.8.3.9-.2s.3-1.6.7-2.1.7,0,.7.4.6,1.5,1.1,2.1c.5.6.8-.2.9-.9s.4-1.9.5-2.3c.1-.4.6,0,.6,0l1,1c.7.7.8-.4.8-.9,0-.5-.1-1.7.1-1.9.2-.2.8.2,1.7.7.9.5.9-.4.8-.9-.1-.5-.6-1.6-1.4-2.2-.7-.6-.8-1.4-.6-1.7.2-.3,1.1,0,1.7-.1.6,0,.8-.1,1.3-.2s.4-.5.4-.5c0,0-.3-.5-.9-1.1-.6-.5-1-.9-1.7-1.1-.7-.2-1.7,0-1.7,0v-.2c-.2-.2-.4-.2-.6,0-.1.2-.5.5-.8.7-.3.2-.5.4-.6.3-.2-.1.1-.4.1-.4,0,0,.4-.3.7-1,.3-.7.5-1.4.2-1.7-.3-.3-1,0-1.5,0s-.7,0-.7-.1c0-.2.4-.1.9-.2.5,0,.8-.7,1-1.2s.3-.5.6-.1.6.2.7,0c0-.2.4-.7.7-1.3.4-.5.6-1.2.2-1.7-.4-.5-1.3-.4-1.7-.1-.4.3-.6.6-.7,1.4-.1.8-.3.3-.3.1s-.3-.6-.2-.9,0-.7,0-.7c0,0,0-.7-.8-.8s-1.6,0-2.3.2-.6.8-.6.8c0,0-.5,0-1.1.1-.6,0-1.3.3-1.9.5-.6.1-.8.2-.8.5s.1.7.1.7c0,0,.5,0,.7.1.2.1.1.4-.2.5-.3.1-.4.1-.4.5s.1.4.4.4.9,0,1.6.3c.7.3.9.9.8,1.3s-1,.8-1.5.8-.6.1-.6.4.6.3.6.3c0,0,.6,0,1.7.2,1.1.1,1.3.4,1.9.8.5.5.1.6-.1.7-.2.1-.6.5-1,.6-.4.1-.6.4-1,.5s-1.2,0-2.8.7-2.2,2.7-2.2,2.7c0,0,.2,0,.9-.4.7-.4,1.6-.8,2.5-1.3.8-.5.8.2.4,1-.4.7.4.6.6.4.2-.2.6-.4,1.4-.8s.5.2.5.2c0,0-.2.5-.3,1.6,0,1.2,1.1,0,1.7-.7s.8,0,.4.8c-.4.8-1.2,1.5-1.7,1.5s-.8-.5-.8-.8.1-1.1-.1-1.3c-.3-.2-1.1,0-1.7.4-.6.4-.7,0-.9-.2-.1-.3.2-.4,0-.6-.1-.2-.5,0-.7.1-.2.1-.8.4-1.9,1-1.1.6-1,.9-1,1.7s.2,1,.6,2h0Z"/>
  <path d="M317.8,149.4c.2-.1.6-.3.6-.3,0,0,.5-.1,1-.2.5,0,.4-.3.3-.6-.1-.2-.3-.3-.9-.3s-1,.3-1.4.4c-.4.1-.8.2-.8.2l.3.4c.2.4.6.4.8.2h0ZM320.3,151.9c.2,0,.5-.1.5-.1,0,0,.5-.2.9-.4.4-.1.6-.2.8-.7.2-.5-.3-.5-1-.7-.7-.2-1.1,0-1.1.3,0,.3,0,.6-.4,1.1-.3.5,0,.5.3.5h0ZM320.1,152.6c-.7,0-1.5,1.1-1.8,1.2s-.1.4-.1.4c0,0,.2.4.3.8,0,.4.1,1.1.1,1.1,0,0,.1,0,.5,0s.7-.2,1-.5.7-.4,1.3-.5c.5-.1.8-.2,1.4-.5s-.3-.9-1-1.4c-.5-.4-1.1-.7-1.8-.6h0ZM310.8,155c.5,0,.8-.3.8-.6s-.3-.6-1-.6c-1.7.1-3.4-.5-3.7-2.2,0,0-.6,1.1.5,2.3,1.1,1.2,2.9,1.2,3.4,1.1h0ZM304.9,182.3c0,.1.2.2.3.3h2.7c.5-.1.5-.5.5-.8,0-.3.3-1.3.7-3.1.4-1.8,1-3,1.3-3.7s-.3-.9-.5-1.4c-.2-.4-.5-1.2-.5-1.6,0-.4-.7-.3-1-.3s-.4.6-.5,1.1c0,.5-.3,2.1-.5,3.4-.3,1.4-1.8,3.1-2.2,3.5-.4.4-.8.6-1.1.6s-.9,0-1.2.2c-.3.2-.6.7-.7,1.1,0,.4.6.6.6.6,0,0,.5-.3.7-.5.2-.2.6-.3,1-.4.4,0,.5,0,.3.3-.2.2-.1.2.2.8h0ZM300.8,182.2c-.2,0-.4.3-.4.4h1.7c0-.2,0-.3-.2-.4-.2-.3-.8-.1-1.1,0h0Z"/>
  <path d="M303.2,182.1c-.2.1-.5.3-.6.5h1.9c0-.2,0-.4-.1-.6-.4-.3-.8,0-1.1.1h0ZM319.4,181.4c-.2,0-.4.2-.7.4-.3.2-.4.5-.4.8h0c0,.1.8.1.8.1,0,0,0,0,0-.1,0-.2.1-.4.4-.7.4-.3,0-.4-.2-.4h0ZM321,182.2c0-.2-.1-.5-.3-.4s-.5.3-.7.5c-.1.1-.2.2-.3.3h1.2c0-.1.1-.3.1-.4h0Z"/>
  <path d="M328.2,173.6c.6-.4.5-.5.5-.9,0-.4,0-.6-.2-.7-.2-.2-1.1-.5-1.9-.5s-2.3.2-2.8.6c-.6.4-.8,1.8-.8,2.5s.1.8.3.8.5-.5.5-.5c0,0,.7,1,1.2,1.6.5.7.2.9,0,1.5-.2.5-1,1.9-1.5,2.2-.6.3-1,0-1.7-.1-.7-.1-1.1.1-1.5.5s0,.7.2.7.6,0,.9.3c.2.2,0,.8,0,1.1h3.5c.6-.3,1-1.1,1.1-1.5.2-.5.9-1.1,1.3-1.5.4-.3.4-.6.4-1.3s-.2-1.2-.5-1.7c-.3-.5-.4-1.1-.4-1.7,0-.5.8-.9,1.4-1.3h0Z"/>
  <path d="M322.5,164.9c.4.6.2.7-.3.8-.5.1-1,.2-1.8.1-.8,0-.8,0-.8.4,0,.6-.2,1.3-.5,1.8-.5.6-1,.4-1.4.1s-.5-.2-.7.3-.4.7-.7,1.4c-.4.6-.6.7-.9.6s-.5-.4-.8-.5-.7-.5-1-1.2c-.4-.6-.6,0-.8.6-.3.5-.5.9-1,.9-.5,0-1-1-1.3-1.6s-.5-1.1-.9-1.1c-.4,0-1.1.9-1.6,1.2-.5.2-.6.1-.8-.1-.2-.3-.5.1-.8.8-.3.7,0,1.3.4,1.5s1.2-.4,1.7-.7c.5-.4.8-.3,1.3-.3s.5.9.7,2.2c.2,1.3,1,1.5,1,1.5,0,0,.3.2.8-.8.6-1,.6-2,1.2-2s.6.1,1.2.9c.6.8,1,1.4,1.4.8.3-.6.6-1.4,1-1.8s.7-.4.3.2c-.4.6-.6,1.2.2.9s3.8-1.5,5.1-1.7c0,0,1.4-.2,3.1-.3,1.7,0,2.1-.2,2.7-.2s.7,0,.7-.5c0-.4-.3-.3-1.5-.3s-2.1.1-2.9.3-1.2.1-1.1-.1c.2-.2.4-.4,1.4-.5,1.3-.2,2.7-.3,4-.3,1,0,.7.3.6,1,0,.7,0,1.7.1,2.4,0,.6,0,.8.6,1.7s2.5,1.5,3.1,1.8.5,0,.5-.5.4-.5.9-.2c.5.3,1.3.5,1.9.7.6.1.7.3.7.6s0,1,.1,1.6c0,.6,0,.8-.2,1.2s-1.4,1.5-1.4,1.5c0,0-.5,0-1.5.3-1.1.3-1.4.8-1.5,1.2s.2.6.2.7c0,.1,0,.3,0,.5h.2c0-.1.2-.4.4-.6.4-.5,1.3-.6,1.9-.3.4.2.4.6.4.9h2.4c.4-.9.9-1.7,1.3-2.6.3-.6.4-.9.4-1.7s.1-3.9,0-4.1c-.1-.2,0-.7,0-1.6s0-1.5-1.6-1.7c-1.6-.1-2.1-.8-2.6-1.4s-.4-1.8-.8-3.3c-.4-1.5-1.5-1.7-3.4-2.1-1.9-.4-3.3-.4-4.7-.3s-3.1.3-4.1.2c-1-.1-.8.2-.5.7h0Z"/>
  <path d="M331.5,182.3c-.2.1-.3.2-.4.3h1.6c0-.1,0-.3-.2-.5-.2-.3-.7-.1-1.1.1ZM334.5,182.2c-.3.1-.4.3-.5.4h1.6v-.2c0-.3-.6-.5-1.1-.3h0ZM293.8,183.2c.1.5.2,1,.4,1.6h51.8c.1-.5.3-1,.4-1.6h-52.5,0ZM328.6,158.4c1.6,1.1,6.8,1.1,9.3,1.6,2.4.5,2.3,2.4,1.5,3.3-.8,1-4.2,1.1-4.8,1.2.3.2.8.9.8.9h1.4c1-.2,2.9-.5,4.1-1.5,1.2-1,1.1-2.7,0-3.8-1.1-1.1-2.9-1.2-4.7-1.4-1.8-.2-3.3-.3-5.3-.7-2.1-.4-3.1-1.2-3.1-2.4s1.1-1.8,1.9-2.1c.8-.2,2.1-.6,3.2-.1,1.1.4,2.5.5,4.8.2,2.3-.3,2.8-1.9,2.8-1.9,0,0-.3.1-1.4.2-1.1,0-2-.5-4.1-.5-2.1,0-2.8.7-3.8,1.1-1,.3-3.6.6-4.4,2.3-.8,1.7.1,2.5,1.8,3.6h0Z"/>
  <ellipse class="st0" cx="315" cy="150.6" rx="1" ry="1"/>
  <path class="st0" d="M336,152.3c-1.3-.1-3,.2-3,.2,0,0,.3.3.8.2s1.2,0,2.5.2c1.3.2,2.2-.4,2.2-.4,0,0-1.1-.1-2.4-.3Z"/>
  <path d="M323.7,176.4c-.3-.5-.4-.4-.8-.1-.4.3-.7-.8-.8-1.4,0-.7.3-2.8.3-2.8,0,0-1.8.4-2.7.7-1,.3-1.9.4-2.6.6s-1.2.4-1.6.3c-.4-.1-1.3-.1-1.9-.1s-.6.1-1.3.8c-.7.7-.9,1-1.4,2.3-.5,1.3-.8,2.6-.9,4-.1,1-.3,1.7-.4,2.1h8.1l.3-.8c.2-.5.7-.8,1-.9s.6-.2.7-.5c.1-.4.6-.7,1-.9s1.2,0,1.9.1c.7.2.9-.3,1.1-.5.2-.3.3-.6.6-1.1.4-.5.1-.9.1-.9,0,0-.3-.2-.7-.7h0ZM336.8,176.6c-.1-.5,0-.5-.3-.6-.3,0-.7-.1-1.1-.3-.4-.2-.4.9-.4.9,0,0-1,.1-2,0-1.1-.1-2.4-1.1-2.8-1.4-.4-.3-.9-1-.9-1,0,0-.3.3-.7.5s-.5.9-.6,1.6.8,1.5.9,2.2-.7,2-1.1,2.6c-.3.4-.6,1.2-.8,1.6h3.9c0-.2.2-.5.4-.7.4-.4,1.1-.5,1.1-.5,0,0,0-.2.1-.5.1-.4.5-.8,1.5-1.2,1-.4,2.1-.4,2.1-.4,0,0,.5-.4.8-.9s.1-1.3,0-1.8h0Z"/>
  <g>
    <path d="M304.1,219.8c.7.2,2.1-.3,2.8-1.1.7-.8.9-2.1,1.4-2.8l.8-1.3s-.1,1.2-.8,2.8c-.5,1.5-.7,3-.6,4.5.3,1.8,1.5,2.1,2.1,1.9.5-.2,1.3-1,2-2.2.2-.4.4-.9.6-1.3.5-.9.9-2.3,1.1-2.3.5,0,.2,1.1,0,1.8-.4,1.4-1,3.4-1.1,4.6s.1,3.4,1.3,3.5c1.2.1,1.8-1,2.5-3.4.7-2.5.8-3.3,1.1-3.3s.3,1.7.3,2.4,0,.9.1,1.6c.2,1.3.6,2.9,1,3.3.6.5,1.1.4,1.1.4,0,0,.5.1,1.1-.4.6-.5,1.1-4.2,1.1-4.9s0-2.4.3-2.4.4.8,1.1,3.3c.7,2.5,1.3,3.6,2.5,3.4,1.2-.1,1.4-2.3,1.3-3.5s-.7-3.2-1.1-4.6.1-1.3,1.1.5c.3.5.6,1.2.9,1.7.6,1,1.3,1.6,1.7,1.8.7.2,1.9,0,2.1-1.9.3-1.8-1.1-7-1.1-7l.6.9c.5.7.7,2,1.4,2.8.7.8,2,1.4,2.8,1.1s.8-1.6.3-4c-.5-2.4-2.7-3.8-4.3-5.7-1.4-1.8-2.5-4.9-2.7-5.4-2,.9-3.7,2.2-5.2,3.7-3.2,3.4-3.9,4.2-3.9,4.2,0,0-.7-.9-3.9-4.2-1.5-1.5-3.3-2.8-5.3-3.7-.2.4-1.5,3.4-3,5.2-.7.9-1.7,1.6-2.4,2.4-.8,1-1.3,2.2-1.6,3.5-.5,2.4-.4,3.8.3,4h0Z"/>
    <path d="M304.1,228c.9-.8,1.4-1.3,1.4-1.3,0,0,.7-.6.5.5-.2,1.1-.5,3.3-.3,4.3s.3,1.8,1.5,1.1c1.2-.7,1.5-1.1,2-1.7.6-.6,1.2-.9,1,0s-.6,2.4-.4,4.3,1.1,2.2,2.4.6c.9-1.2,1.7-2.5,2.3-3.9.4-.8,1.1-1.5,1.1,0,0,3.2.7,7.8,4.2,9.1,3.5-1.2,4.2-5.9,4.2-9.1s.7-.8,1.1,0c.4.8,1.1,2.3,2.3,3.9,1.2,1.6,2.2,1.4,2.4-.6.2-1.9-.2-3.3-.4-4.3s.5-.7,1,0,.9,1,2,1.7c1.2.7,1.3-.1,1.5-1.1.2-1-.1-3.2-.3-4.3-.2-1.1.5-.5.5-.5,0,0,.5.5,1.4,1.3.6.5,1.4.8,2.2.9,0,0,.6-3.4-.8-5.4s-1.9-2.7-1.9-2.7c0,0-.8,0-1.4-.3-.6-.2-1.2-.7-1.2-.7v1.9s1.7,1.6,2.1,2.1,1.2,1.3,0,.5-2.1-1.6-2.1-1.6c0,0-.2,1.7-.7,2.1-.5.4-1.2.5-1.5.4h-.3c0-.1,0,.5,0,.5,0,0,1,2,1.2,2.8.1.8,0,.7-.6-.3-.5-1-1.4-2.3-1.9-3.1s-1-1.2-1-.3c0,.9-.3,2.6-.6,3.2-.3.6-.5.8-.5.8,0,0,.6,2.3.7,2.7,0,.4,0,.9-.3.4s-1.4-2.8-1.4-2.8c0,0-1.4,0-1.8-.5-.4-.4-1-1.9-1-1.9,0,0-.6,2-1,2.6-.5.6-1.6,1.3-1.6,1.3,0,0,0,3.4-.2,4,0,.6-.1.9-.4.9s-.3-.3-.4-.9-.2-4-.2-4c0,0-1.1-.6-1.6-1.3-.5-.6-1-2.6-1-2.6,0,0-.6,1.5-1,1.9-.4.4-1.8.5-1.8.5,0,0-1,2.3-1.4,2.8-.4.5-.4,0-.3-.4s.7-2.7.7-2.7c0,0-.2-.2-.5-.8-.4-1-.6-2.1-.6-3.2,0-.9-.6-.4-1,.3s-1.4,2-1.9,3.1c-.5,1-.7,1.1-.6.3s1.2-2.8,1.2-2.8v-.7c-.1,0-.4.1-.4.1-.3.1-1,0-1.5-.4-.5-.4-.7-2.1-.7-2.1,0,0-1,.8-2.1,1.6s-.4,0,0-.5,2.1-2.1,2.1-2.1v-1.9s-.6.4-1.2.7c-.6.2-1.4.3-1.4.3,0,0-.5.6-1.9,2.7-1.4,2-.8,5.4-.8,5.4,0,0,1.3,0,2.2-.9h0ZM321.2,250.3c-.9-1.1-1.2-1.6-1.2-1.6,0,0-.3.5-1.2,1.6-.9,1.1-3,2.7-3,2.7,0,0,.2,2.8,1.2,4.3.9,1.3,1.7,2.4,3,3.3,1.2-.9,2.3-2,3-3.3,1-1.5,1.2-4.3,1.2-4.3,0,0-2.1-1.6-3-2.7h0Z"/>
    <path class="st0" d="M319.6,253.7c0,.6,0,2.3.4,2.3s.3-1.6.4-2.3c0-.6.1-2.2.1-2.2h-1.1s0,1.6.1,2.2h0Z"/>
    <path d="M320,100.9c-3.8,0-8.2-.5-10.6-1.4l-2.6.6c4,1.5,7.4,2.1,13.2,2.2,5.9,0,9.2-.6,13.2-2.2l-2.6-.6c-2.4.9-6.9,1.4-10.6,1.4h0ZM333.7,97.7c-.3-.2-2-1.5-2.5-1.7-.5-.2-.1-.8,0-1.1,0-.2,2-.8,3.1-1.1,1.1-.3.9-.5.9-.5,0,0-.6-.7-4.5-1.1-3.9-.4-10.7-.3-10.7-.3,0,0-6.8,0-10.7.3-3.9.4-4.5,1.1-4.5,1.1,0,0-.2.2.9.5s3,.8,3.1,1.1c0,.2.4.8,0,1.1-.8.5-1.7,1.1-2.5,1.7-.3.2-.3.6.1.7.5,0,.5,0,1.8-.2,4-.8,7.8-1,11.7-1.1,4,0,7.7.3,11.7,1.1,1.3.3,1.3.3,1.8.2.5,0,.5-.4.1-.7h0Z"/>
    <path d="M329.3,99.4c-2.7-.3-4.4-.7-9.3-.6-4.9,0-6.6.3-9.3.6,1.7.7,4.4,1,9.3,1s7.6-.3,9.3-1h0ZM319.2,62.9l2-.2-.2-1.8,2.2.3v-1.8c0,0-2.2.2-2.2.2l.4-1.9h-2.5s.4,1.9.4,1.9l-2.2-.2v1.7l2.2-.2v1.9ZM323.6,65.8h-2.7v-2.3c-.5,0-1-.1-1.5,0v2.3h-2.8c-.1.4-.2.9-.1,1.3h7.3c0-.4,0-.9-.1-1.3h0Z"/>
    <path d="M320.1,70c1.6,0,3-.9,3.5-2.3h-7c.6,1.4,2,2.3,3.5,2.3h0ZM321.6,63.7v1.6h1.8c-.4-.7-1-1.3-1.8-1.6ZM318.6,63.7c-.8.3-1.4.9-1.8,1.6h1.8v-1.6Z"/>
    <path class="st0" d="M322.2,93.3c-.7-.3-2.2-1-2.2-1l-2.2,1.1c-.8.4-.7.3-.9.8s0,.8.4.9,2.8,1.4,2.8,1.4l3-1.4c.6-.3.5-.6.3-1-.2-.4-.5-.6-1.2-.9h0Z"/>
    <path d="M317.6,94l2.4,1.2,2.4-1.2-2.4-1.1-2.3,1.1ZM320,84.7s-.2.8-.5,1.2-.5.7-.4,1.1c0,.4.6.7.9.7s.8-.3.9-.7c0-.4-.1-.8-.4-1.1-.3-.3-.5-1.2-.5-1.2Z"/>
    <circle cx="320" cy="88.6" r=".5"/>
    <path d="M318.4,86.2s.8-.9,1.1-1.4c.3-.5.5-1,.5-1,0,0,.2.5.5,1,.3.6,1.1,1.4,1.1,1.4,0,0,1.1-.6,1.7-2.7.6-2.1-.1-4.3-.4-6.7s-.5-6.5-.5-6.5c-.8.5-1.6.7-2.4.7-.8,0-1.7-.3-2.4-.7,0,0-.2,4.1-.5,6.5-.3,2.4-1.1,4.6-.4,6.7.6,2.1,1.7,2.7,1.7,2.7h0Z"/>
    <ellipse class="st0" cx="320" cy="81.5" rx="1.9" ry="1.8"/>
    <ellipse class="st0" cx="320" cy="77.2" rx="1.8" ry="1.8"/>
    <ellipse class="st0" cx="320" cy="73.1" rx="1.7" ry="1.7"/>
    <ellipse cx="320" cy="81.2" rx="1" ry="1"/>
    <ellipse cx="320" cy="76.9" rx="1" ry=".9"/>
    <ellipse cx="320" cy="72.8" rx=".9" ry=".8"/>
    <path class="st0" d="M319.9,224c.1,0,.1-.3.2-.8,0-.6.1-1.9.2-2.7.1-.8-.2-.7-.4-.7-.2,0-.3.6-.3,1s.1,2.3.1,2.8.1.4.2.5h0Z"/>
  </g>
  <g id="a">
    <path d="M300.3,239.4c.8-.5,1.6-1.1,3.5-2.4,1.9-1.3,2.6-2.7,2.6-2.7h-.7c-.4,0-.7-.5-.7-1,0-.5,0-1.6.1-2.8.1-1.2-.2-2.2-.2-2.2,0,0-.8.8-2,1.4-1.2.6-1.7.3-1.7.3l-.3-1.2s-.5,1.1-1.3,2.4c-.8,1.3-2.8,2.8-4.3,3.9s-3.1,2.2-4.3,2.7c-1.2.4-.5,1-.5,1,0,0,1.2,1.2,4.3,1.8s4.6-.7,5.4-1.2Z"/>
    <path d="M311.2,238.2c-1.1-.1-1.8-.5-2-1.8-.1-.8,0-3.8,0-3.8,0,0-.4.3-.8.8s-1.4.6-1.4.6c0,0-.1.4-.6,1.1-.4.7-1,1.5-2,2.2-1.1.7-2.3,1.5-3.1,2.1-.8.7-1.8,1.5-2.8,2.1-1.2.6-2.1,1.8-2.4,3.1-.4,1.6,0,2.1,1.1,2,1.2,0,1.4,0,3.4-.5,2-.5,4.8-2.7,6.9-4.1s3.6-3.9,3.6-3.9Z"/>
    <path d="M316.7,240s-.8-1.1-1.1-2.3l-.9-3.6s-.3.8-1,2.2c-.7,1.4-1.8,1.8-1.8,1.8,0,0,0,.6-1,1.8-1.1,1.3-2.4,2.4-3.8,3.2-1.4.8-3.3,2-4.3,3.4s-1.1,2.9-.6,3.6c.5.6,1.1,0,2.1-.6s3.7-.9,7.4-2.9c3.8-2,5-6.6,5-6.6Z"/>
    <path d="M318.3,248.4c1-1.6,1.2-5.3,1.2-5.3,0,0-.4-.2-.9-.7s-1.5-1.9-1.5-1.9c0,0-.6,1.3-1.3,2.5-.6,1.1-1.4,2.1-2.4,2.9-1.4,1.3-3.3,2.6-4.1,3.9-.8,1.4-.4,4.1.2,5.1.5.9,1.3.6,2.1-.1.8-.8,1-1,2.4-2.1s3.3-2.7,4.3-4.2h0Z"/>
    <path class="st0" d="M306,216.9c.5-1.1,1.2-2.5,1.7-3.2.5-.7.9-1.5.9-1.5,0,0-1.3,1.2-1.9,2.1-.5.9-.9,1.7-1.1,2.6-.2.9-.1,1.1.4,0h0ZM311.3,217.9c.2-.7.3-1.2.3-1.2,0,0,.2-.7.1-.8-.1,0-.7.4-1.1,1.7-.4,1.2-1,3-.8,3.1.1,0,1.2-2,1.5-2.7ZM315.5,221.2l.2-.6s.4-1.4.4-1.7-.1-.6-.5.1-.4,1.4-.5,1.7c0,.3-.5,1.4-.4,1.5.1,0,.4-.6.6-1.1h0ZM302.5,234l-.6-.3s-.3.4-.8,1c-.5.5-1,.7-1.4,1.2-.4.5-.9,1.1-1.8,1.5s-1.2.6-1,.7c.2.1.8-.2.8-.2,0,0,.2,0,1.3-.6s1.3-1,2-1.6,1.6-1.7,1.6-1.7h0ZM307,239.4c.4-.4.8-.7.6-.9-.2-.2-.5-.2-.9.1s-1.4,1.3-1.9,1.7-.9.7-1.4,1c-.5.4-1.5.9-2,1.2-.5.3,0,.3,0,.3,0,0,.4-.2.8-.3.4-.1,1.6-.7,1.6-.7,0,0,.5-.2,1.1-.7.6-.4,1.6-1.4,2-1.8h0ZM312.3,243c.3-.7,0-.5-.6-.2-.6.2-1.8,1.6-2.5,2.1s-1.4.7-2,1c-.6.3-.6.5-.6.6,0,.1.3.1.5,0,.2-.1,1.1-.6,1.1-.6,0,0,.4-.1.7-.1.3,0,.8-.4,1.6-1,.8-.6,1.4-1,1.8-1.7h0ZM314.7,247.9c-.9.6-2.5,1.8-2.9,2.7-.4.9-.7,1.4-.6,1.6.1.1.6-.1.8-.5.2-.3.6-.9.6-.9,0,0,1.6-1.6,2.2-1.9s1.5-1.4,1.8-2c.2-.6,0-1,0-1,0,0-1,1.4-1.9,2h0Z"/>
    <path d="M290,113.3c-.9-.5-3.1-1.5-5.6-1.7-2.4-.2-4.3.2-6.3.7-1.2.4-2.5.4-3.8.1-1.8-.6-3.2-2.1-3.5-3.9,0,0-1.6,2.1,0,4.3.7,1,1.7,1.7,2.9,1.9,3.4.7,6.7-1.4,9.6-1.6,2.7-.2,4.9,1.6,4.9,1.6,0,0,.6.5,1.5,0,.9-.5,1.2-.9.3-1.4h0Z"/>
    <path d="M280.2,211.7h-.8c-.5-.2-1.5-.5-1.8-.6-.3-.1-.8-.2-1.1.2-.3.3-2.8,1.8-2.8,1.8h4c1.4,0,2.3-1.3,2.3-1.3Z"/>
    <path d="M291.6,211v-.4l-.5-1.2s-.6.4-1.2,1c-.8.8-1.6,2-2,2.5-.7.9-1.6,1.7-.8.3.8-1.4,1.1-2,1.7-2.9.6-.9,1.1-1.3,1-1.4,0,0-.6-.1-2.3-.4-1.7-.2-2.7-.9-3.5-1.3s-2.2-1.2-2.2-1.2c0,0-2.9,1.2-4,1.5s-1.7.4-.7.9c1.1.5,1.9.7,2.5,1,.5.3,2.1.8,3.1.8s2.6,0,2,.7c-.6.7-1.4,2-2.1,3.9s-.7,3.7-.7,4.6.1,1.7.1,1.7c0,0,1.2-1.3,4.4-3.3,1.6-1.1,3.3-2,5-2.9.6-.3.9-.3.8-1-.1-.8-.4-2.6-.4-3h0Z"/>
    <path d="M303.7,201.3l-.6-.3c0,0-.1,0-.1,0-.4.2-2.3,1.5-3.1,2.8-.8,1.3-1.6,1.4-.7,0,.7-1.3,1.7-2.4,2.8-3.3-1.7-.8-3.3-1.7-4.9-2.8-.3.6-.6,1.1-1.1,1.6-.7.7-2.2,1.3-2.2,1.3,0,0,1.2-1.2,1.6-2.2.3-.6.4-1.2.5-1.6-1.2-.9-2.3-1.9-3.2-3.1-.2.8-.8,2.8-2.8,4.9-2.5,2.8-7.5,4.2-7.5,4.2,0,0-1.7.2-.3.6s2.4,1,5.2.5,2.9-.6,3.3-.7c.4-.1,1.4,0,0,.5s-4.6,1-5.8.9c-1.2-.1-2.9-.4-1.2.6s2.5,1.3,3.6,1.3,1.5.4,2.6.4,1.3-.2,2.1-.3c.8-.1,1.2.1,1.2.4s-1,1.1-1,3.2c0,2.1.2,3.4.4,4,.2.6.6,1.6.9,2.1.3.6.4,1.1.7,0,.3-1.2,1-2.9,1.2-4.1.3-1.2.4-1.2.5-1.8.1-.6.8-1,.5,0s-.6,2.5-.9,3.4c-.2,1-.7,2.8.1,1.4.9-1.4,4.2-5.2,4.8-5.9s1-1.3,1.4-1.9c.4-.6,1.6-1.3,2.1-2.1.5-.7,2-2.2,2.6-2.7-1-.4-2-.8-3-1.3h0ZM257.4,115.2c0,2.1,2.4,6,3.7,8.1,1.3,2.1,1.6,2.9,1.4,3.1-.2.1-.8-.9-1.5-1.9-.7-.9-2.1-3.1-3.2-4.8s-2.9-5.6-3.1-5.9-.3-.6-.9-.1c-.6.4-1.7,4.8-.4,7.7,1.3,2.9,3.3,5.1,4.2,6.1.8,1,2,2.6,1.8,2.8-.2.1-.5-.3-1.5-1.3s-2.7-2.9-3.8-4.2c-1-1.3-1.8-2.7-2.6-4.1-.2-.3-.4-.2-.5,0-.4.4-.9,1.2-.7,3.6.4,3.3,2.1,5.1,3.6,6.8,1.5,1.6,3,3,2.8,3.2s-1.8-1.2-2.9-2.2c-1.5-1.4-2.9-2.8-4.3-4.3-.6-.7-1.4-.3-1.4,2.5s3.2,5.7,4.5,7.2c1.3,1.6,2.9,2.5,2.8,2.8-.1.3-1.4-.5-2.3-1.1-.8-.6-4-2.6-4.6-3.1-.6-.4-.9.4-.1,3.1s3.1,4.8,4.5,5.8c1.4,1,3.6,2.2,3.5,2.5-.1.3-1.1,0-2.4-.7-1.3-.6-2.9-1.2-4-1.5-1.1-.3-1.1.5-1.1.5,0,0-.2,2.3,1.4,4.1s3.5,2.6,5.3,2.9c1.8.3,2.1.4,2,.7,0,.3-.2.3-.6.3s-2.1.2-3.6.2-2.3.4-2.3,1,0,1.6,2.2,3.1c2.3,1.5,4.8,1.7,5.9,2,1.1.2,1.1.3.9.6-.2.3-.7.3-2.4.4-1.7.2-2.7.8-2.9,1.3-.2.4.1,1.8,1.5,2.7,1.4.9,3.2,1.2,5.8,1.1,2.7-.2,3.4-.2,3.4.2s-.8.6-2.1.8c-1.3.2-2.4.2-3.1.9-.8.6-.2,1.9,1.1,2.9s4.5.9,5.8.9,3.4-.6,3.5-.2-1,.9-2.4,1.4c-1.4.5-1.8.8-2,1.4-.3.6,0,1.1,1.6,1.7,1.7.6,4.1.6,5.3,0s1.9-.8,2.1-.6c.2.2,0,.4-.3.8-.3.3-1.3,1.2-2.7,1.5s-1.5.4-2,1.5c-.5,1.1.8,2,3.2,2.1,2.5,0,5.8-.9,6.9-1.5,1.1-.6,1.5-.8,1.6-.5.2.2.1.4-.4.8s-2.2,1.6-3.1,1.8c-.8.2-.9.8-.9,1.4s-.2,1.7,2,2.3c2.2.5,4.9.1,7.3-1.6.6-.4,1.1-.8,1.5-1.4-.2-2.3,0-3.9.2-5.3-.8,0-1.6-.3-2.3-.6-1.3-.5-1.9-1.8-2.2-2.4-.3-.7-.8-.7-1.3-.5-.5.2-1.1.4-1.8.4s-2.4-.4-3.5-1.8-.9-2.7-1-3.4c0-.7-1.1-.2-1.6-.2s-2.1-.2-3.5-1.2c-1.4-1-1.4-2.3-1.6-2.9-.1-.5-.7-.9-1.2-1.1-.5-.2-1.2-.4-2.1-1.2s-1.3-2.4-1.4-2.9c0-.5-.6-.6-2.6-1.6s-1.8-3.2-1.7-4c.1-.9,1-1.6,1-1.9s-.7-.4-1.3-.8-2.4-1.1-2.4-3.6c0-2.5,1.6-2.8,1.6-2.8,0,0-.3-.1-1-.5-.7-.4-2.5-1.6-2.5-3.1s.7-2.1,1.2-2.5c.5-.4,1.8-.7,1.8-.7,0,0-.9-.5-1.2-1.7-.4-1.2-.5-2.6.4-3.6.9-1,2.3-1,3-1s1.4.4,1.7.2c.3-.2.3-.4,0-1-.3-.8-.3-1.7,0-2.5.2-.5.3-1.5,2.2-2.1,1.9-.6,3.9.7,4.5,1s.4-.5.4-1.1-1.3-2.2-2.8-4.4-2.1-3.4-3.8-6.8-2.7-7.8-2.9-8.9c-.2-1.1-.7-.6-.7-.6,0,0-.4.2-1.5,2.8-.9,2.2-1.2,4.6-1.1,7h0Z"/>
    <path d="M291,160.9c-1.6-.1-3-1-3.8-2.4-1.1-1.7-2.9-2.1-5.9-2-3,0-4.4-1.4-5.1-3.5-.7-2.1.1-4.4,3.2-5.9s4.4-3.2,4.5-5.8c.1-2.6-3-5.8-6.2-9.4s-5.6-8.8-5.6-8.8c0,0-.9,1.2-.9,2.4s.5,2.5,0,2.8c-.5.4-.6-.5-2.5-1.3-1.8-.8-3.3-.9-4.5.4-1.1,1.3,0,3.6,1,4.7,1,1.1,1.9,1.9,1.6,2.3s-1.8-.6-2.4-1-1.7-1.7-3.5-1.5-2.4.7-2.6,2.2c-.2,1.5,1.6,2.8,2.8,3.4,1.1.6,1.6,1.1,1.3,1.3-.3.2-.6,0-1.1-.2-.9-.3-1.9-.3-2.9,0-.9.4-2.4,1.6-1,3.2,1.4,1.6,4.2,2.1,4.8,2.2.6.1.9,0,.9.4,0,.5-1.2.5-2.8.5s-2,1.6-1.8,2.7,2.8,2.4,4.2,2.6,2,0,2.1.4c.1.4-.2.6-1,.8-.8.2-2.4.4-2.6,1.7s-.4,1.8.9,2.9c1.2,1.1,3.2.9,3.7.8.6-.1,1.3-.8,1.8-.2.6.6-.5,1-1.5,1.7-1,.7-.9,2,.8,2.9,1.7.9,3.3.6,4,.4s1.6-1.3,2.1-.6c.5.7-1.4.9-2.2,1.9-.8,1-.5,2.6,1.1,3.6,1.6,1,4.2.3,4.7-.1.5-.4,1-.6,1.4-.2s-.2,1.3-.5,2.1c-.3.8-1,3.2,1.4,4.1,2.4.9,4.6-1.1,5-1.6.4-.4.8-.5,1.1-.3.3.2.2.5-.1.9s-.9,2.1.8,3.3c1.2.8,2.5.8,3.2.6.4-1.3.8-2.8,1.3-4.8h-.4c-.2,0-.3.3-.3.5s0,.2-.1.2-.2.1-.5.3c-.3.2-.6.5-.7.3-.2-.1.6-.5.8-.8.2-.2.6-.6.6-.9,0-.3.2-.4.6-.8.1-.1.2-.2.3-.4.3-1.3.5-2.9.8-4.8.2-1.3.3-2.5.3-3.6h-.8s0,0,0,0ZM241.9,125.1c2.6,5.2,6.2,8.1,6.2,8.1,0,0-.5-1.3-.7-2.2-.2-.9,0-1.9,0-1.9,0,0-.9-1.2-2.6-3.8s-2.6-6.4-2.6-6.4c0,0,1.6,3.8,2.8,5.9,1.2,2,2.6,3.7,2.6,3.7,0,0,.5-1.8.8-1.9.4,0,.6.2.9.6.3.4.6.3.6.3,0,0-.4-.8-1.1-1.9-.3-.5-.7-1-1-1.4-1-1.5-3-4.4-4.1-7.2-1.1-2.9-3.4-10.1-3.8-12.2-.4-2.1-.8-1-1.2.6-.4,1.6-1,3.8-.6,7.1s1.1,7.4,3.7,12.6h0ZM245.2,139.1c1,.7,2.4,1.7,2.4,1.7,0,0-.2-.5-.4-1.1s-.2-1.9-.2-1.9l-1.9-1.7c-1.4-1.2-2.6-2.5-3.7-4-1.9-2.4-.4-1,1.2.8s4.6,4.2,4.6,4.2v-.6c0-.5.2-.9.5-1.3.3-.4.1-.4-1.6-1.7-1.7-1.3-6.1-6.3-8-9.3-1.8-3-3.8-7-3.8-7,0,0-1,5.9,2.7,12.5,3.6,6.6,7.2,8.7,8.2,9.4h0ZM264.2,176.6c2-.8,1.4-2.7,1.4-2.8s-1.2.4-2.3.8-3.9,1.2-5,1.2-1.1-.1-1.1-.3c0-.2.8,0,2.4-.3,1.6-.3,4.3-1.7,4.8-2.1.5-.3.4-.4-.3-.4-.6,0-1.1-.3-1.6-.6-.3-.2-1,.1-2.8.5-1.8.4-5.5,1.1-8.4,1.1s-5.5-.5-6-.6c-.4-.1-.9.2.4,2.5,1.4,2.3,6.2,3.6,9.6,3.5,3.4,0,6.7-1.8,8.7-2.6h0ZM255.3,171.8c3.5,0,4.8-1,4.8-1,0,0,0-.2-.5-.9-.5-.7-.4-1.9-.4-1.9,0,0-.8.1-2.3.4-1.4.2-3.1.4-5,0s-1.1-.5.4-.4c1.5.2,4.3-.4,5.2-.7.9-.3.5-.6,0-.8-.6-.2-2.3-1.3-2.3-1.3,0,0-4.2.5-8.1,0s-6.4-1.4-7.2-1.6-.8.2-.8.2c0,0-.2.4,1.1,2.5s4,3.5,6.2,4.1c2.2.6,5.3,1.1,8.8,1.1h0ZM254.4,163.7s-.1-.2-.4-.9c-.2-.7.4-1.2.4-1.2,0,0-.8-.2-3.4-.6-2.6-.3-2.7-.5-4.3-.9-1.6-.4-2.6-.8-2.6-1s.5,0,1.5.4c.9.4,4.9.8,6.6,1,1.7.2,2.6.4,2.9.2.3-.2,1.3-.4,1.3-.4,0,0-.7-.2-1.6-.4-.8-.1-1.5-.4-2.1-.9-.5-.3-.6-.4-2.7-.6-2.1-.2-3.8-.9-7.6-2.3-3.8-1.4-6.6-3-7.4-3.6-.8-.6-.7-.2-.5.6.2.8.2,1.8,2.1,4,1.9,2.2,2.9,3.2,7.7,5,4.8,1.8,10.2,1.5,10.2,1.5h0ZM240.2,151.9c4.3,3,9.3,4.1,10.3,4.2.2-.3-.3-1.3,0-1.9.3-.7.7-.7,1.8-.8,1,0,.4-.3.1-.3s-.3,0-2-.5c-1.7-.4-3.4-.7-5.8-1.6-2.4-.9-3.1-1.5-3-1.7,0-.2,1.1.6,3.3,1.4,2.2.8,4.7,1.1,6.1,1.4,1.4.3.2-.3-.5-.7-.6-.4-1.6-1.8-1.6-1.8,0,0-1.5-.3-4-1-2.3-.7-4.6-1.6-6.7-2.8-.7-.4-1.4-.9-2.2-1.5-1.4-1-2.9-2.1-3.4-2.5-.9-.6-.6-.1-.5.3s.7,2.1,2,4.1c1.4,1.9,1.8,2.5,6.1,5.5h0ZM239.5,143.5c4.2,3.3,7.8,4.4,8.4,4.6.6.3.6,0,.4-.4s-.2-1.5-.2-1.5l-3.2-1.8c-1.7-1-3.5-2.3-4.8-3.1-1.2-.9-.5-.8-.1-.5.4.3,2.1,1.3,3.8,2.4,1.7,1.1,4.3,2.6,4.3,2.6,0,0,0-.6.4-.9s1.2-.3,1.2-.3c0,0-.4-.4-.7-.9-.3-.4-1.6-.9-3.2-1.6-1.6-.7-4.4-2.8-6.4-4.5-2.2-2-4.3-4.2-6.3-6.4-.3-.4-.4-.3-.5.1,0,.4-.2.7.3,2.7.4,2,2.3,6.2,6.5,9.5h0ZM254.3,112c.5,1,1,1.7,1.4,2.4.6,1,.9,1.6.9,1.6,0,0,.1-.3,0-.9s-.2-1.4,0-2.4c0-.5.2-1,.2-1.5,0-.5-.2-1-.3-1.3-.1-.6-.7-3-1-4.8-.3-1.7-.6-4.2-.6-6.4,0-2.2.3-1.1.3,0s.1,2.7.4,5.2c.3,2.5,1.4,6.3,1.4,6.3,0,0,0-.6.4-1.4s.8-1.8,1.2-2.8c.4-1,.3-1.2.3-1.2,0,0-1.5-7.1-1.9-10.4-.4-4-.7-8.1-1-12.1-2.2,2.2-3.8,7.9-4.1,13.3-.2,4.1.4,7.8.6,9.4.4,3,.9,5.4,1.7,7h0ZM249.6,123.2c0-1.6.4-2.8,1.5-3.2,0,0-.9-1.6-1.7-3.9-.6-1.6-1-3.6-1.2-5.1-.6-3.8-1-7.7.1-1.3,1.1,6.4,2.5,8.6,2.5,8.6l1.6,2.7c-.2-1.2-.3-2-.2-3.3s.2-3,.6-4.4c0,0-2-4-3.2-8.7s-2-9.1-2-11.7l-.2-3.4s-2,1.5-2.7,9.3c-.7,7.8,1.4,15.2,2.4,18,1,2.8,2.5,6.3,2.5,6.3ZM271.7,182.2s-.3-.2-1.3-.8-.7-2.4-.7-2.4c0,0-.3.2-1,.7-.7.5-1.5,1-2.5,1.4s-1.4.6-2,.8-.5,0,0-.4c.5-.3.7-.4,2-1,1.3-.5,3.8-2.8,3.8-2.8,0,0-.6,0-1.7-.1s-2.4-.6-2.4-.6c0,0-1,1-5.3,2.8-4.3,1.8-7.9,2.3-7.9,2.3,0,0,.4,2.2,2.5,2.9,1.7.7,4,1.2,8.6.1,4.6-1.1,7.7-3,7.7-3h0ZM277.3,186.6c.4-1.8-.7-3.1-.7-3.1,0,0-.2.1-.9.7-.6.6-1.6,1.7-3.4,2.6s-2.4.8-.7-.1,4.3-3.6,4.3-3.6l-.7-.2c-.7-.3-1.8.2-6.6,3.1-4.8,2.9-7.6,3-7.6,3,0,0,2.1,2.6,8,2.4,5.8-.2,8-3,8.3-4.8h0ZM288.3,184.5s-.6.9-1.5,1.5-3.2.9-3.2.9c0,0-.1.2-.5.8-.5.6-1.4,2-2.5,2.7-1,.7-2.6,1.2-2.7,1s.9-.6,1.9-1.2c1-.6,1.9-1.7,2.6-2.5.7-.8-.3-.6-.3-.6,0,0-1.2,0-2.3,0-1.1-.1-.9,0-1.2.5s-.8,1-1.6,2c-1,1.2-2,2.2-3,3.4-.6.8-.2,1-.2,1,0,0,.3.5,2.9.8,1.6.2,3.3,0,5.2-1.1,1.1-.7,2.3-1.7,3.5-3,3.1-3.4,2.9-6.2,2.9-6.2h0ZM289.7,191.5c-.6.8-1,1.2-1,1.2,0,0,.5-1.4.8-2,.2-.4.4-.7.6-.9-.4-1-.8-2-1-3.1-.3.9-1.2,3.6-2.3,5.4-1.4,2.1-2.5,2.9-1.8,3.5.8.6,2.3.7,4-.1,1.6-.8,2.1-2.2,2.3-3.3-.3-.4-.5-.9-.8-1.4-.2.1-.5.4-.9.8h0Z"/>
    <ellipse cx="289.3" cy="105.8" rx="1.2" ry="1.1"/>
    <path d="M286.8,103.7c1.1,0,1.7-.5,2.9-.4,1.4.1,3.3,1,5.7,2.2,2.1.9,4.4,1.1,6.5.6.6-.2,1.3-.5,1.9-.9,2.8-1.6,2.1-4.8,2.1-4.8-2,1.5-4.6,2.3-7.1,2.2,0,0,.2.1.6.6.4.4,1.2.9.9,1.1-.2.2-1.3-.8-2.1-1.4-1.3-1-2.8-1.7-4.4-2.2-2.2-.7-4.7-.7-6.3.2-1.7.9-1.8,2.1-1.6,2.5.1.3.4.3.8.3ZM317.6,126.8c-.5-.1-1.4-.3-2.5-1.3-1.5-1.4-2.9-3-4.2-4.6-.3-.6-.2-1.1.6-1.4.8-.3,1.3-1.3,1.3-1.3,0,0-1.7-.6-2.8-1.5-1.1-.8-3.8-3.2-4.2-3.8s-.2-.7.4-.9c.5-.2.7-.6.7-.6,0,0-1.2-.8-2.4-1.7-1.1-.9-2.7-2.4-2.7-2.4-1.7.7-4.4.4-5.9.1-2.6-.5-4.4-1.5-4.4-1.5,0,0,0,.4-.4,1.2-.3.8-1.5,1.2-2.7.4-1.2-.8-.9-2.5-.9-2.5,0,0-1-.6-2.9-1.3s-3.6-.8-5.2,0c-1.6.7-2.4,2.9-2.4,4.6s.9.9,1,.7c.2-.2.5-1.4,2.6-1.7s3.8.6,6.1,2.5c2.3,1.9,2.8,2,3.9,3.2,1.1,1.2.2,1.8-1.7,2.5s-4.5-.6-4.6-.6c-.4.2.9,1.9,2.5,2.6,1.7.7,3.9.2,5.5-.4,1.1-.5,1.4,0,1.7.4,1.9,1.9,2.3,3.8,2.6,6,.9-.3,1.5-1.1,1.7-2,0-.4.2-1.2.8-.6.6.6,1.1,3.9,1.1,5.4s-.5,3.5-.5,3.5h.5c.3-.1.8-.4,1.5-.8.7-.4.8,0,.8.9s.3,2.4,1.4,5.2,2.7,3.7,2.7,3.7c0,0,.3-.6.6-1.6.3-1.1.5-3.3.5-5.1s-.5-5.9-.5-5.9c0,0,2.3,2.8,4.7,3.5,2.4.7,4.8.3,5.8-.9s.1-1.7-.4-1.8h0Z"/>
    <path d="M302,134s-.7,1.6-1.1,2.2-.6.6-.6.6c0,0,.7.6,1.8.9,1,.3,2,.5,2,.5,0,0-1.2-1.6-1.6-2.8-.4-1.1-.5-1.5-.5-1.5h0ZM316.3,133.1c-.4-.9-.6-1.4-.6-1.4-1.5.3-4.2-.4-5.4-1.1,0,0,1.1,2.2,2.2,3,1.1.8,1.2.8,1.2.8,0,0-1.1.2-2.6-1.3-1.5-1.4-2.1-3.1-2.1-3.1,0,0,.3,3.9-.3,6.2s-.7,2.7-.7,2.7c0,0,3.1.6,6.6-.4,3.5-1,3.7-1.3,3.7-1.3,0,0,.4-.1-.1-.8-.8-1-1.4-2.1-1.9-3.3h0Z"/>
    <path class="st0" d="M310,124.6c-1.1-1.2-1.2-1.5-1.2-1.5,0,0-.4.4,0,.9.8,1,1.8,1.8,2.9,2.4.6.4,1.3.6,2.1.8v-.2s-2.6-1.2-3.7-2.4ZM305.8,132.7s-.3-4.8-.3-5.6-.5-.5-.5-.5l-.5.2,1,7.1c.1.8.5.7.7.7-.4-.2-.5-1.7-.5-1.9ZM299.2,111.7c-.4-.4-1.3-.7-.4.3.9,1,2,2.1,2.3,3.1.3,1,.5,2.2,0,1.9-.6-.3-1-.3-1.5-.8-.7-.6-1.4-1.1-2.2-1.4-.5-.1-1.3,0-.6.7.7.7,1.4,1.4,2.6,2.3s2,1.3,2.6,1.8c.6.5,1.3.8,1.3.8,0,0-.6-3.9-1.7-5.7s-2-2.7-2.4-3.1h0ZM277.9,177.9c-.8.6-1.9.9-1.9.9,0,0-.5,0-.5.2s.6,0,1.2-.1c.6-.1,1.4-.7,1.7-.9s.8-.5.6-.9c-.1-.4-.4.3-1.2.9ZM284.8,181.6c-.2.2-1.5,1.2-1.5,1.2,0,0-.4.3-.9.4-.4.2-.5.4-.5.4,0,0,0,.1.5,0,.5-.1,1.9-1.1,2.3-1.5.4-.4.6-.5.5-.7-.2-.2-.2,0-.4.1h0ZM256.9,131.9c.2.3.5.7.7.6.1-.1,0-.3-.4-.7-.3-.4-.5-.6-.5-.6,0,0-.5-.8-.8-1-.3-.3-.7-.4-.2.2.5.6.9,1.2,1.1,1.5h0ZM254.8,136.6c.3.3.6.5.9.9s.6.7.8.6c.2-.2-.5-.6-.8-1s-.6-.6-.9-.9-.9-.6-.9-.6c0,0,.6.8.9,1.1h0ZM255.5,144.1c.5.6,1.3.7,1.4.5s0-.4-.5-.6c-.4-.2-1.1-.7-1.5-.9-.3-.2-.7-.5-1-.8-.2-.2-.5-.5-.6-.4-.1,0,.7,1,1,1.1.2.1.7.6,1.2,1.1h0ZM257.1,150.1c0-.2,0-.3-.4-.4s-1.1-.1-1.1-.1c0,0-.9-.3-.9-.2,0,.2.7.5,1.1.6.3,0,.8.2.9.3.2.1.4,0,.4-.2h0ZM257.7,156.6c-.9,0-1.7-.2-1.8,0s.4.4.9.5c.5.2,1.4.2,2,.2s.7-.1.7-.4c0-.3-.8-.3-1.8-.3ZM265.1,163.8c-.1-.1-.5,0-1,0-.5.1-1.4.3-1.9.2s-1.6,0-1.6,0h-.6c0,.3.8.2,2,.4,1.2.1,1.9-.1,2.5-.2.5,0,.7-.3.6-.5ZM268.1,168.9c-.6.2-1,.3-1.4.3s-1.5.2-1.5.2c0,0-.5,0-.4.2,0,.2.2,0,.7,0,.5,0,.8,0,1.5,0,.8,0,1.2-.2,1.7-.3.5-.1,1-.3.8-.6-.2-.3-.8,0-1.3.3ZM274,172.7c-.3.3-1.6,1.2-1.6,1.2,0,0-.2.2-.8.4s-.5.4-.4.5.4-.2.7-.3,1.2-.7,1.6-1.1c.5-.4,1.1-.7,1-1-.1-.3-.2,0-.5.2h0ZM264.2,122.9s.1.2,1.1,1.5c1,1.3.5,0,.2-.2-.3-.3-1.8-2.4-2.3-3-.5-.6-.6-.3-.3,0s1.2,1.7,1.2,1.7ZM262,129.4c.1-.1-.2-.3-.8-1l-1.8-2.2s-.3-.7-.4-.6c-.1,0,.4,1.2.9,1.7.5.5,1.1,1.4,1.4,1.8s.5.6.7.4h0ZM264.9,141.7c0-.4-1.2-.3-1.7-.4l-1.5-.3s-1.1-.2-1.1,0c0,.1.2.3.8.4s1.5.4,2.2.5,1.2.2,1.2-.1h0ZM262,135.1c.8.6,1.3.9,1.7,1.1s.7.6,1,.3c.2-.3-.2-.4-.8-.7-.7-.3-1-.5-1-.5l-.7-.4c-.3-.2-.9-.4-.1.2h0ZM268.6,130.7c-.5-.4-.9-.6-.9-.6,0,0-.6-.6-.7-.4-.1.2.7.7,1,1.1.4.3,1,1.3,1.4,1.1.3-.2-.3-.8-.8-1.2h0ZM264.3,147.9l-1,.3c-.4.1-.4.3.3.3s1.1-.2,1.8-.3c.8-.1,1-.2.9-.5s-.5-.2-.8,0l-1.1.3ZM265.5,154.1c0,.1.5,0,.9-.1.4-.1,1.2-.6,1.7-.7.5-.1.5-.2.5-.5s-.5,0-1.1.1c-.6.2-1.4.8-1.4.8,0,0-.5.2-.5.4ZM273.5,157.8c.5-.3.7-.6.5-.8-.2-.2-.4-.1-.8.2s-1.3,1-1.3,1c0,0-.4.2-.8.3s-.8.4-.6.6c.1.2.8,0,1.2-.3.4-.3,1.3-.8,1.9-1.1h0ZM277.2,162.8c.2-.2.9-.4,1.2-.6.3-.2.5-.9.2-1s-.4.3-.9.7c-.5.4-2.3,1.6-2.3,1.6l-.5.2c-.5.2-.3.3.1.3.4,0,.7,0,1.2-.4.5-.4.7-.5.9-.7h0ZM282.8,167.5c.5-.2,1.2-.8,1.5-1.1.3-.3.7-.7.5-.9-.3-.2-.5,0-.9.4s-1.4,1.4-1.4,1.4c0,0-.1,0-.7.5-.5.4,0,.4.2.2.2-.2.3-.3.8-.5h0Z"/>
    <path d="M305.6,96.6l2.2-1.6-2.6-.7-1.7,1.4,2.1.9Z"/>
    <ellipse class="st0" cx="312.8" cy="94.7" rx="2.1" ry="2.1"/>
    <ellipse cx="312.8" cy="94.3" rx="1.3" ry="1.2"/>
    <path d="M308.3,87.6c.5.2,1.3.1,1.3.1,0,0,.2-.9-.3-1.4-.5-.5-1-.8-1.3-1.1l-.4-.4s0,.8,0,1.3c0,.5.2,1.3.8,1.5h0Z"/>
    <ellipse cx="309.4" cy="88.7" rx=".4" ry=".4"/>
    <path d="M306.5,88.2c-.2.2-.5.6-.5.6,0,0,.4,0,.8.3.4.3.8.5,1.2.4.4,0,.6-.4.5-.7-.1-.3-.3-.6-1-.8-.7-.3-.9,0-1,.3h0Z"/>
    <path d="M308,90.8c-1.4.1-3.1-1.4-3.1-1.4-.2,1.2-.9,1.8-2,2h.1c0,0,1.1.6,2.3.8.6,0,1.1,0,1.7-.1.7-.1,1.4-.3,2-.6.8-.5.6-1.8.6-1.8,0,0-.1,1-1.5,1.1h0ZM302.8,89.4c-.5-.2-1.4-.6-1.7-.6-.3,0-.9,0-.8.5s.7.9,1.4,1c.6,0,1-.2,1.4-.4.4-.2.3-.3-.2-.5ZM298.5,87.1c-.6-.4-1.1-.6-1.1-.6,0,0-.4,1-.2,1.7.2.7.7.8,1.3.8s1.4-.3,1.2-.8c-.3-.5-.7-.9-1.1-1.2Z"/>
    <ellipse cx="299.1" cy="90" rx=".5" ry=".3"/>
    <path d="M300.4,84.9c-.4-1.8-.3-3.7,1.4-6.2,1.7-2.5,4.6-3.4,4.6-3.4,0,0,.1-.2,1-1.2.9-1,2.8-2.2,2.8-2.2,0,0-2.2.6-3.5.9h0c0,.9-.7,1.6-1.5,1.6s-.6,0-.9-.3c-.7.1-2.9,1.5-3.5,2,.1.2.2.5.2.8,0,.8-.7,1.5-1.5,1.5s-.5,0-.7-.2l-.2.3c-.5.9-.8,1.7-1.1,2.5.4.3.6.8.6,1.3,0,.8-.6,1.5-1.3,1.5,0,.5,0,.8,0,1,0,.5.2.8,1.1,1.1.9.2,2,1.8,2,1.8,0,0,.7-1.1.2-2.9h0Z"/>
    <path d="M305.7,73.5c.3-.2.4-.7.1-.9-.2-.2-.7-.2-1,0-.3.3-.4.7-.1.9.2.2.7.2,1,0h0ZM300.1,77.3c.4-.3.4-.8.1-1.1-.3-.3-.8-.3-1.2,0-.4.3-.4.8-.1,1.1.3.3.8.2,1.2,0Z"/>
    <ellipse cx="296.7" cy="82.1" rx=".9" ry=".9"/>
    <path d="M315.5,70c-.5,0-1.3.4-2.5,1h0c.9,0,1.5.6,1.5,1.3s-.8,1.5-1.7,1.5-1.5-.8-1.5-1.5,0-.3.1-.5l-1.2.8c-2.8,1.9-3.4,2.8-4.8,5.3-1.4,2.6-1.9,5.3-1.3,7,.6,1.7,2.8,2,2.8,2s-.2-.3-.3-.6,0-.5.2-1.1c.1-.6,0-1.4,0-1.4,0,0,.5,0,.8.3.3.3.7.8,1,1.1.3.3,1,1,1,1,0,0,.4-.6.4-1.4s-.5-1.6-.6-2.9.6-3.6,1.9-5.3c1.2-1.5,2.7-2.7,4.4-3.6.7-.3.8-.9.9-1.2,0-.3.1-.5.2-1.3s-.6-.8-1.4-.6h0Z"/>
    <path d="M312.8,73c.5,0,.9-.4.9-.8s-.4-.7-.9-.7-.9.3-.9.7.3.8.8.8ZM316.9,89.2c.7.3,1.4.1,1.8-.1.4-.2.5-.8,0-1.2-.4-.3-1-.4-1.4-.1-.4.2-1.3.8-1.3.8,0,0,.2.3.9.6h0Z"/>
    <path d="M319,90c-.2.4-.4.6-1.2.6s-1.5,0-2-.5c-.5-.5-.8-1.2-.8-1.2h-.8s-.3,1.2-.6,1.5c-.4.3-1.7.4-2.2,0s-1.1-.9-1.2-.9,0,.5.6,1,1,.8,1.9.8h5.3s1.1,0,1.4-.6c.3-.6.3-1.1.2-1.2-.1-.2-.2,0-.5.5h0Z"/>
    <path d="M311,89.1c.8.4,1.2.2,1.5-.2.3-.3.3-.5.3-.5,0,0-.8-.3-1.1-.5-.4-.2-.6-.4-1-.4-.4,0-.4,0-.4,0,0,0-.1,1,.6,1.5h0Z"/>
    <ellipse class="st0" cx="307.1" cy="81.2" rx="1.8" ry="1.8"/>
    <path class="st0" d="M310.2,75.1c-.7-.5-1.8-.3-2.3.4-.6.7-.5,1.7.2,2.2s1.8.3,2.3-.4c.6-.7.5-1.7-.2-2.2Z"/>
    <ellipse cx="307" cy="81" rx="1" ry="1"/>
    <path d="M309.5,75.3c-.5-.1-1,0-1.3.5s0,.8.6,1c1.1.2,1.7-1.2.6-1.5Z"/>
  </g>
  <g>
    <path d="M282.3,212.7s-2.7,1.3-3.6,1.5c-.9.2-1.1.2-1.1.2,0,0-1.9,1.7-3.2,2.5-1.4.9-3.1,1.5-4.7,1.6-2.1.2-8,.2-10.7,0s-4.3.5-5.4,1.8c-1.1,1.3-1.4,3.1,0,4.5s3,.7,3.6-.2c.5-.9.3-2,0-2.5-.2-.5.5-.7,1.2-.7.7,0,2,0,3.1.2,1.1.2,3.1.8,4,1.3s.4.5-.2.4-1.3-.3-2.3-.7c-.8-.3-1.7-.6-2.6-.6-.7,0-.4.3-.3.6.1.2.5.8.6,1.1.1.3-.2,1.3-.2,1.3l.3.6s.4-.6.5-1c.1-.3,0-1,.1-1.3s.7-.3,1.1.2c.4.5.9,1.1,1.2,2.4.2,1.3-.2,2.2-.2,2.2,0,0,.5.4.6.7s-.1,1.5-.1,1.5c0,0,.4.2.7-.5.3-.7.7-1.9.8-2.4.1-.4.4-1.2.9-.6s.9,1.3,1,1.7c.1.4.1.7.1.7,0,0,1.2-1.2,1.6-1.8s1.2-1.7,2.4-2.6c1.1-.9,3.1-2.8,4.1-3.4s3.5-2,4.2-2.4.9-.5,1-1.8c.1-1.3.8-2.5,1.1-3.4.3-.9.4-1.2.4-1.2h0ZM238.5,163.5c0-.2-.5-1-.6-1.4s-.5-.2-.5-.2c0,0-.9.5-1.5.7s-.7,0-.8-.4c0-.3-.2-1.4-.3-2.1-.1-.7-.3-.7-.5-.6-.3.1-1.1.4-1.6.6-.6.2-.4.5-.2.8.2.3.8,1.6,1.1,2.1.3.5,0,.7-.3.8-.3.2-.8.2-1.5.4s-.6.4-.6.6c0,.2.5,1.1.8,1.6.2.4.5.1.5.1,0,0,.7-.6,1.3-.9.6-.3.6-.2.8.2.2.4.9,2.8,1,3.2.1.4.4.4.7.3.3-.1.7-.2,1.1-.3.4-.1.5-.8.5-.8,0,0-1.3-2.4-1.7-3-.4-.6,0-.7.3-.8.3,0,1.1-.2,1.7-.3.7-.2.5-.6.5-.8h0ZM253.4,227.9c-.1-.6,0-1.1-.4-1.6-.5-.6-.9-1.3-1.2-2-.2-.7.2-1.1.1-1.4,0-.4-.6-.4-1.1,0-.5.4-1.2.8-1.2,2.1s.5,2.8,2.2,3.3c1.8.5,1.7.1,1.6-.4h0ZM255.1,227.3s-.4-.2-.5.1-.1.5.3,1.2.8.9,1.3,1.2c.5.3.2-.3.1-.5,0-.2,0-.5-.1-.6s-.2-.4-.2-.9-.9-.5-.9-.5h0Z"/>
    <path d="M257.3,233.3c.3-.5.6-.6,1.4-1s2.3-.6,2.8-.6,1.6-1,1.5-2c-.2-1-.9-1.4-1.5-1.6s-1.2-.1-1.4.2c-.2.3-.6.7-1.3.9s-.8.5-1.2.6c-.4.1-.1.4-.5.7-.4.3-.9,0-1.4-.2-.6-.2-.6-.3-1.2-.3h-2.3c0-.1,0-.2-.4-.2s-.4,0-.6.5c-.2.4,0,1.4.4,1.9.4.5,1.7.7,2.6,1,.9.3,1.3.4,2,.5.8.1.9,0,1.2-.5h0ZM265.5,234.1c.7-.5.3-1.3.1-1.8-.2-.5-1.1-.6-1.6-.6s-.8,0-1,.2c-.3.2-.6.6-1.4.8-.7.2-1.3.5-2.3.9-1,.4-1.3,1.1-1.7,1.4-.4.3-1.3,0-1.3,0,0,0-.6-.2-.8,0-.2.2,0,.5.4.9.4.4,1.2.4,2,.7.9.3,1,0,1.4-.2.3-.2.6-.7,1.2-1.1.6-.4,1.9-.4,2.5-.5.9,0,1.7-.3,2.5-.7h0ZM265.5,231.1c.3.3.6.6.9.2.3-.4.7-1.3.4-1.9-.3-.5-.7-1-.7-1,0,0-.5,1.5-.7,1.9-.2.4-.2.5.1.7h0ZM262.7,226.4c0-.9-.6-1.9-.6-1.9,0,0-.2.8-.6,1.5-.4.7-.7,1.1-.7,1.1,0,0,.9.2,1.2.2s.7,0,.7-.9h0ZM257.7,228.3c.9-.2,1.4-.6,1.8-.9s.6-1.2.4-1.7c-.3-.5-.9-1-1.2-1h-.5s-.3.9-.6,1.3c-.4.4-.8.7-.8,1.3,0,.6,0,1.2.9,1h0ZM259.6,224c0-.4-.1-.9-.4-1.2l-.5-.5s0,.7-.1,1-.1.4-.1.4c0,0,.3.3.5.4.2,0,.6.3.7-.1h0ZM248.1,200.2l.6-3.9c-.5-3.9-2.5-7.7-4.2-10.3-1.6-2.8-3-5.7-4.1-8.8-.7-2.2-1.1-4.4-1.2-6.7,0-1.6.7-2.4.7-2.4,0,0,.3-.4,0-.7-.3-.3-.7,0-1.1.4s-.9,1.2-1,1.8c-.2.6-.2.8-.2.8,0,0-.8-.2-2.2,0-1.3.1-2,.2-2,.5,0,.3.2.5,1.1.9s1.6.6,2.1,1.2c.5.6,1.7,3.5,2.1,4.9.4,1.4,1.2,5.2,1.5,8.1s1.3,6.6,2.7,9.6c.5,1,3,5.7,5.1,4.7h0ZM250.5,207.2c-.9.5-.9,4.2-.5,6.2.4,1.9,2.3,4.4,2.9,5,.6.6.7.6,1,.5s.4-.2.4-.2c0,0,.8-.3,1.4-.7.6-.5.4-1.7.3-2.7-.1-1.1-.9-3.2-2.4-5.6-1.5-2.5-2.2-2.9-3.1-2.4h0ZM251.5,204.2c0-1.2-1.1-2.1-2.3-2.1-.5,0-1,.1-1.4.4-1.2,1.1-.5,3.9,1.3,3.9s1.4-.1,1.9-.6c.4-.4.5-1,.5-1.6ZM269.2,239.3c-.5,0-.8-.3-1.5-.8-.7-.5-1.9-1.5-2.1-2-.2-.5-.2-.5-.9-.3-.7.2-1.7.2-2.4.2-.8,0,0,.9.6,1.6.5.8.3,3.4.3,3.4,0,0,0,.2-.1.6-.1.4,0,.6.2.7.2,0,.3,0,.8-.7.5-.6,1.5-2.2,1.5-2.2l1,.2c.8.2,2.1,0,2.8-.1.7-.2.4-.7-.1-.8h0Z"/>
    <path d="M266.1,241.3c-.3,0-.5,0-.7.1s-.3.7-.4.9c0,.2,0,.4.1.6.2.2.5.4.5.4,0,0,.3.3.6.5.3.1.3-.3.3-.6s.2-.9.2-1.3-.3-.6-.6-.6h0Z"/>
    <path d="M396.6,216.1c-.8-.2-1.2-.5-1.2-.5,0,0-.4,0-.6.5-.3.5-1.4,1.2-1.4,1.2,0,0-1.5.4-1.7,1.4-.2,1,.5,1.4,1.2,1.3s2.5-.5,3.2-1.4c.8-.9.9-1.4,1-1.8.1-.3.2-.5-.6-.7h0ZM399,207.9c-.5-2.3-2-5.2-4.9-6.6,0,0-1.1,3.8-1.4,5-.3,1.2-.3,1.2.6,1.4.9.2,3.9.9,4.5,1s1.6.7,1.2-.9h0ZM385.3,205.7c.7.1.6-.2.8-1.1l1.4-5.5s-3-.1-5.7,1.2c-2.6,1.3-3.8,3.6-3.8,3.6,0,0,.7.3,2.5.7,1.8.4,4,.9,4.7,1.1h0ZM378.3,212c-1.1-.2-1.5-.3-1.5-.3,0,0,.7,2.6,1.8,4,1.1,1.4,2.4,2.1,4.7,2.2,2.3,0,4.1-1.2,4.3-2.2s.8-1.8.8-1.8c0,0-4.2-.6-5.9-1-1.7-.4-3.1-.8-4.2-1h0Z"/>
    <path d="M377.5,210.3c1,.2,9.6,1.9,10.3,2s1.3.3,1.5.1c.2-.2.3-.3,1.1-.6.8-.3.7-1,.7-1,0,0,.2-.7.3-1.4s.5-1,1.3,0c.8.9,1,2.1,1.1,3.4.2,1.2,2.1,1.6,2.9,1.7.8.1,1.1-.1,1.6-.8s.7-2.1.8-3.1c.1-.9,0-.8-.9-1.1-1-.2-5.4-1.2-6.2-1.4-.8-.2-.6-.7-.5-1.3s1.9-6.2,1.9-6.2c-1.2-.8-3-1.2-5.1-1.5,0,0-1.3,5.7-1.5,6.6-.2.9-.8.9-1.7.7-.9-.2-7.5-1.7-7.5-1.7l-.5,1.2c-.5,1.2-.8,2.7-.8,3.5s.3.7,1.3,1h0Z"/>
    <path d="M400.2,215.5c-.9-.6-1.5-.7-2,.3-.5,1.1-.5,2.6-1.6,3.8s-2.8,2.3-4.4,2.1c-1.6-.1-2.5-.5-2.1-2.3.4-1.8,2.8-2.4,3.4-3.4s.4-2.1-.4-2.8c-.8-.7-2.1-.9-2.4-.6-.8.6-1.5,1.5-1.8,2.4-.5,1.4-.8,2.5-1.9,3.4-1.7,1.2-3.9,1.6-6,1.3-2.1-.5-2.9-1.1-3.7-3.2-.8-2.1-1.8-5.6-2.2-6-.4-.4-1-.7-1.9,0-.9.6-1,1.6-1.1,2.4-.1.8,0,1.6.9,2.8.9,1.1,1.9,2.2,2.2,3.4.3,1.1,1.4,2.9,0,3-1.5,0-2.1.1-3.2-1-1.1-1.1-5.4-4-6.6-5-1.2-1-1.7-1.3-1.7-1.3-2,0-4-.9-6-2.2,0,0,1.1,2.9,1.4,4.1s.2,1.7.2,1.7c0,0,4.4,2.2,6.1,3.1s5.2,2.8,6.9,3.9c1.7,1,3.1,2.6,6.1,2,3-.6,9-2.4,11-3,2-.6,7.3-1.9,9.3-3.3s2.2-1.3,2.5-2.7c.3-1.4,0-2.1-.9-2.7h0ZM388.7,194.9c.3,0,.5,0,1.5-.2,1-.1.6.8.5,1.2-.2.4-.5,1.1-.9,1.8-.4.7.1.8.4.9.3.1.7.1,1.5.4.8.2.7-.4.7-.7,0-.3,0-1.9.1-2.5s.6-.4.8-.3l1.1.6c.4.2.6,0,.7-.3s.3-.7.5-1.3c.2-.6-.2-.5-.6-.5s-1,0-1.6,0-.2-.7-.2-.7l.8-1.4c.4-.6.2-.7-.1-.8l-1.9-.5c-.3,0-.5,0-.5.2s0,1.4,0,1.8,0,.7-.6.7c-.6,0-.9-.3-1.4-.8-.5-.5-.7-.3-.7-.1,0,.2-.4,1.6-.5,2.1-.1.4.1.4.4.3h0ZM391.9,209.4s0,1.2-.2,1.6c-.1.4-.4,1,0,1.2.5.2.9.4,1.2.3s.1-.6,0-1.1c-.2-.5-.4-1-.8-1.5l-.4-.4h0ZM398.9,214c.2.4.5.4.7.5s.6,0,.6-.4,0-1-.3-1.5-.5-.8-.8-.1c-.2.7-.4,1.1-.2,1.4h0ZM374.5,209.4c.2,0,1,.3,1,.3,0,0,0-1.1.2-1.9.1-.8.5-1.3.2-1.3s-.4.2-.6.6c-.2.3-.8.4-1,1.3-.2.9,0,.9.3,1h0Z"/>
    <circle class="st0" cx="379.3" cy="207.4" r="1.6"/>
    <circle class="st0" cx="383.6" cy="208.5" r="1.6"/>
    <circle class="st0" cx="396.4" cy="211.2" r="1.6"/>
    <circle class="st0" cx="388" cy="209.6" r="1.6"/>
    <circle class="st0" cx="389.2" cy="205.7" r="1.6"/>
    <circle class="st0" cx="390.3" cy="201.9" r="1.6"/>
    <circle cx="379.4" cy="207.3" r=".8"/>
    <circle cx="383.8" cy="208.4" r=".8"/>
    <circle cx="396.5" cy="211.1" r=".8"/>
    <circle cx="388.2" cy="209.4" r=".8"/>
    <circle cx="389.3" cy="205.6" r=".8"/>
    <circle cx="390.4" cy="201.8" r=".8"/>
  </g>
  <g id="a1" data-name="a">
    <path d="M339.7,239.4c-.8-.5-1.6-1.1-3.5-2.4-1.9-1.3-2.6-2.7-2.6-2.7h.7c.4,0,.7-.5.7-1,0-.5,0-1.6-.1-2.8-.1-1.2.2-2.2.2-2.2,0,0,.8.8,2,1.4,1.2.6,1.7.3,1.7.3l.3-1.2s.5,1.1,1.3,2.4c.8,1.3,2.8,2.8,4.3,3.9s3.1,2.2,4.3,2.7c1.2.4.5,1,.5,1,0,0-1.2,1.2-4.3,1.8s-4.6-.7-5.4-1.2Z"/>
    <path d="M328.8,238.2c1.1-.1,1.8-.5,2-1.8.1-.8,0-3.8,0-3.8,0,0,.4.3.8.8s1.4.6,1.4.6c0,0,.1.4.6,1.1.4.7,1,1.5,2,2.2,1.1.7,2.3,1.5,3.1,2.1.8.7,1.8,1.5,2.8,2.1,1.2.6,2.1,1.8,2.4,3.1.4,1.6,0,2.1-1.1,2-1.2,0-1.4,0-3.4-.5-2-.5-4.8-2.7-6.9-4.1s-3.6-3.9-3.6-3.9Z"/>
    <path d="M323.3,240s.8-1.1,1.1-2.3l.9-3.6s.3.8,1,2.2c.7,1.4,1.8,1.8,1.8,1.8,0,0,0,.6,1,1.8,1.1,1.3,2.4,2.4,3.8,3.2,1.4.8,3.3,2,4.3,3.4s1.1,2.9.6,3.6c-.5.6-1.1,0-2.1-.6s-3.7-.9-7.4-2.9c-3.8-2-5-6.6-5-6.6Z"/>
    <path d="M321.6,248.4c-1-1.6-1.2-5.3-1.2-5.3,0,0,.4-.2.9-.7s1.5-1.9,1.5-1.9c0,0,.6,1.3,1.3,2.5.6,1.1,1.4,2.1,2.4,2.9,1.4,1.3,3.3,2.6,4.1,3.9.8,1.4.4,4.1-.2,5.1-.5.9-1.3.6-2.1-.1-.8-.8-1-1-2.4-2.1s-3.3-2.7-4.3-4.2h0Z"/>
    <path class="st0" d="M334,216.9c-.5-1.1-1.2-2.5-1.7-3.2-.5-.7-.9-1.5-.9-1.5,0,0,1.3,1.2,1.9,2.1.5.9.9,1.7,1.1,2.6.2.9.1,1.1-.4,0h0ZM328.7,217.9c-.2-.7-.3-1.2-.3-1.2,0,0-.2-.7-.1-.8.1,0,.7.4,1.1,1.7.4,1.2,1,3,.8,3.1-.1,0-1.2-2-1.5-2.7ZM324.5,221.2l-.2-.6s-.4-1.4-.4-1.7.1-.6.5.1.4,1.4.5,1.7c0,.3.5,1.4.4,1.5-.1,0-.4-.6-.6-1.1h0ZM337.5,234l.6-.3s.3.4.8,1c.5.5,1,.7,1.4,1.2.4.5.9,1.1,1.8,1.5s1.2.6,1,.7c-.2.1-.8-.2-.8-.2,0,0-.2,0-1.3-.6s-1.3-1-2-1.6-1.6-1.7-1.6-1.7h0ZM332.9,239.4c-.4-.4-.8-.7-.6-.9.2-.2.5-.2.9.1s1.4,1.3,1.9,1.7.9.7,1.4,1c.5.4,1.5.9,2,1.2.5.3,0,.3,0,.3,0,0-.4-.2-.8-.3-.4-.1-1.6-.7-1.6-.7,0,0-.5-.2-1.1-.7-.6-.4-1.6-1.4-2-1.8h0ZM327.7,243c-.3-.7,0-.5.6-.2.6.2,1.8,1.6,2.5,2.1s1.4.7,2,1c.6.3.6.5.6.6,0,.1-.3.1-.5,0-.2-.1-1.1-.6-1.1-.6,0,0-.4-.1-.7-.1-.3,0-.8-.4-1.6-1-.8-.6-1.4-1-1.8-1.7h0ZM325.3,247.9c.9.6,2.5,1.8,2.9,2.7.4.9.7,1.4.6,1.6-.1.1-.6-.1-.8-.5-.2-.3-.6-.9-.6-.9,0,0-1.6-1.6-2.2-1.9s-1.5-1.4-1.8-2c-.2-.6,0-1,0-1,0,0,1,1.4,1.9,2h0Z"/>
    <path d="M350,113.3c.9-.5,3.1-1.5,5.6-1.7,2.4-.2,4.3.2,6.3.7,1.2.4,2.5.4,3.8.1,1.8-.6,3.2-2.1,3.5-3.9,0,0,1.6,2.1,0,4.3-.7,1-1.7,1.7-2.9,1.9-3.4.7-6.7-1.4-9.6-1.6-2.7-.2-4.9,1.6-4.9,1.6,0,0-.6.5-1.5,0-.9-.5-1.2-.9-.3-1.4h0Z"/>
    <path d="M359.8,211.7h.8c.5-.2,1.5-.5,1.8-.6.3-.1.8-.2,1.1.2.3.3,2.8,1.8,2.8,1.8h-4c-1.4,0-2.3-1.3-2.3-1.3Z"/>
    <path d="M348.4,211v-.4l.5-1.2s.6.4,1.2,1c.8.8,1.6,2,2,2.5.7.9,1.6,1.7.8.3-.8-1.4-1.1-2-1.7-2.9-.6-.9-1.1-1.3-1-1.4,0,0,.6-.1,2.3-.4,1.7-.2,2.7-.9,3.5-1.3s2.2-1.2,2.2-1.2c0,0,2.9,1.2,4,1.5s1.7.4.7.9c-1.1.5-1.9.7-2.5,1-.5.3-2.1.8-3.1.8s-2.6,0-2,.7c.6.7,1.4,2,2.1,3.9s.7,3.7.7,4.6-.1,1.7-.1,1.7c0,0-1.2-1.3-4.4-3.3-1.6-1.1-3.3-2-5-2.9-.6-.3-.9-.3-.8-1,.1-.8.4-2.6.4-3h0Z"/>
    <path d="M336.2,201.3l.6-.3c0,0,.1,0,.1,0,.4.2,2.3,1.5,3.1,2.8.8,1.3,1.6,1.4.7,0-.7-1.3-1.7-2.4-2.8-3.3,1.7-.8,3.3-1.7,4.9-2.8.3.6.6,1.1,1.1,1.6.7.7,2.2,1.3,2.2,1.3,0,0-1.2-1.2-1.6-2.2-.3-.6-.4-1.2-.5-1.6,1.2-.9,2.3-1.9,3.2-3.1.2.8.8,2.8,2.8,4.9,2.5,2.8,7.5,4.2,7.5,4.2,0,0,1.7.2.3.6s-2.4,1-5.2.5-2.9-.6-3.3-.7c-.4-.1-1.4,0,0,.5s4.6,1,5.8.9c1.2-.1,2.9-.4,1.2.6s-2.5,1.3-3.6,1.3-1.5.4-2.6.4-1.3-.2-2.1-.3c-.8-.1-1.2.1-1.2.4s1,1.1,1,3.2c0,2.1-.2,3.4-.4,4-.2.6-.6,1.6-.9,2.1-.3.6-.4,1.1-.7,0-.3-1.2-1-2.9-1.2-4.1-.3-1.2-.4-1.2-.5-1.8-.1-.6-.8-1-.5,0s.6,2.5.9,3.4c.2,1,.7,2.8-.1,1.4-.9-1.4-4.2-5.2-4.8-5.9s-1-1.3-1.4-1.9c-.4-.6-1.6-1.3-2.1-2.1-.5-.7-2-2.2-2.6-2.7,1-.4,2-.8,3-1.3h0ZM382.6,115.2c0,2.1-2.4,6-3.7,8.1-1.3,2.1-1.6,2.9-1.4,3.1.2.1.8-.9,1.5-1.9.7-.9,2.1-3.1,3.2-4.8s2.9-5.6,3.1-5.9.3-.6.9-.1c.6.4,1.7,4.8.4,7.7-1.3,2.9-3.3,5.1-4.2,6.1-.8,1-2,2.6-1.8,2.8.2.1.5-.3,1.5-1.3s2.7-2.9,3.8-4.2c1-1.3,1.8-2.7,2.6-4.1.2-.3.4-.2.5,0,.4.4.9,1.2.7,3.6-.4,3.3-2.1,5.1-3.6,6.8-1.5,1.6-3,3-2.8,3.2s1.8-1.2,2.9-2.2c1.5-1.4,2.9-2.8,4.3-4.3.6-.7,1.4-.3,1.4,2.5s-3.2,5.7-4.5,7.2c-1.3,1.6-2.9,2.5-2.8,2.8.1.3,1.4-.5,2.3-1.1.8-.6,4-2.6,4.6-3.1.6-.4.9.4.1,3.1s-3.1,4.8-4.5,5.8c-1.4,1-3.6,2.2-3.5,2.5.1.3,1.1,0,2.4-.7,1.3-.6,2.9-1.2,4-1.5,1.1-.3,1.1.5,1.1.5,0,0,.2,2.3-1.4,4.1s-3.5,2.6-5.3,2.9c-1.8.3-2.1.4-2,.7,0,.3.2.3.6.3s2.1.2,3.6.2,2.3.4,2.3,1,0,1.6-2.2,3.1c-2.3,1.5-4.8,1.7-5.9,2-1.1.2-1.1.3-.9.6.2.3.7.3,2.4.4,1.7.2,2.7.8,2.9,1.3.2.4-.1,1.8-1.5,2.7-1.4.9-3.2,1.2-5.8,1.1-2.7-.2-3.4-.2-3.4.2s.8.6,2.1.8c1.3.2,2.4.2,3.1.9.8.6.2,1.9-1.1,2.9s-4.5.9-5.8.9-3.4-.6-3.5-.2,1,.9,2.4,1.4c1.4.5,1.8.8,2,1.4.3.6,0,1.1-1.6,1.7-1.7.6-4.1.6-5.3,0s-1.9-.8-2.1-.6c-.2.2,0,.4.3.8.3.3,1.3,1.2,2.7,1.5s1.5.4,2,1.5c.5,1.1-.8,2-3.2,2.1-2.5,0-5.8-.9-6.9-1.5-1.1-.6-1.5-.8-1.6-.5-.2.2-.1.4.4.8s2.2,1.6,3.1,1.8c.8.2.9.8.9,1.4s.2,1.7-2,2.3c-2.2.5-4.9.1-7.3-1.6-.6-.4-1.1-.8-1.5-1.4.2-2.3,0-3.9-.2-5.3.8,0,1.6-.3,2.3-.6,1.3-.5,1.9-1.8,2.2-2.4.3-.7.8-.7,1.3-.5.5.2,1.1.4,1.8.4s2.4-.4,3.5-1.8.9-2.7,1-3.4c0-.7,1.1-.2,1.6-.2s2.1-.2,3.5-1.2c1.4-1,1.4-2.3,1.6-2.9.1-.5.7-.9,1.2-1.1.5-.2,1.2-.4,2.1-1.2s1.3-2.4,1.4-2.9c0-.5.6-.6,2.6-1.6s1.8-3.2,1.7-4c-.1-.9-1-1.6-1-1.9s.7-.4,1.3-.8,2.4-1.1,2.4-3.6c0-2.5-1.6-2.8-1.6-2.8,0,0,.3-.1,1-.5.7-.4,2.5-1.6,2.5-3.1s-.7-2.1-1.2-2.5c-.5-.4-1.8-.7-1.8-.7,0,0,.9-.5,1.2-1.7.4-1.2.5-2.6-.4-3.6-.9-1-2.3-1-3-1s-1.4.4-1.7.2c-.3-.2-.3-.4,0-1,.3-.8.3-1.7,0-2.5-.2-.5-.3-1.5-2.2-2.1-1.9-.6-3.9.7-4.5,1s-.4-.5-.4-1.1,1.3-2.2,2.8-4.4,2.1-3.4,3.8-6.8,2.7-7.8,2.9-8.9c.2-1.1.7-.6.7-.6,0,0,.4.2,1.5,2.8.9,2.2,1.2,4.6,1.1,7h0Z"/>
    <path d="M348.9,160.9c1.6-.1,3-1,3.8-2.4,1.1-1.7,2.9-2.1,5.9-2,3,0,4.4-1.4,5.1-3.5.7-2.1-.1-4.4-3.2-5.9s-4.4-3.2-4.5-5.8c-.1-2.6,3-5.8,6.2-9.4s5.6-8.8,5.6-8.8c0,0,.9,1.2.9,2.4s-.5,2.5,0,2.8c.5.4.6-.5,2.5-1.3,1.8-.8,3.3-.9,4.5.4,1.1,1.3,0,3.6-1,4.7-1,1.1-1.9,1.9-1.6,2.3s1.8-.6,2.4-1,1.7-1.7,3.5-1.5,2.4.7,2.6,2.2c.2,1.5-1.6,2.8-2.8,3.4-1.1.6-1.6,1.1-1.3,1.3.3.2.6,0,1.1-.2.9-.3,1.9-.3,2.9,0,.9.4,2.4,1.6,1,3.2-1.4,1.6-4.2,2.1-4.8,2.2-.6.1-.9,0-.9.4,0,.5,1.2.5,2.8.5s2,1.6,1.8,2.7-2.8,2.4-4.2,2.6-2,0-2.1.4c-.1.4.2.6,1,.8.8.2,2.4.4,2.6,1.7s.4,1.8-.9,2.9c-1.2,1.1-3.2.9-3.7.8-.6-.1-1.3-.8-1.8-.2-.6.6.5,1,1.5,1.7,1,.7.9,2-.8,2.9-1.7.9-3.3.6-4,.4s-1.6-1.3-2.1-.6c-.5.7,1.4.9,2.2,1.9.8,1,.5,2.6-1.1,3.6-1.6,1-4.2.3-4.7-.1-.5-.4-1-.6-1.4-.2s.2,1.3.5,2.1c.3.8,1,3.2-1.4,4.1-2.4.9-4.6-1.1-5-1.6-.4-.4-.8-.5-1.1-.3-.3.2-.2.5.1.9s.9,2.1-.8,3.3c-1.2.8-2.5.8-3.2.6-.4-1.3-.8-2.8-1.3-4.8h.4c.2,0,.3.3.3.5s0,.2.1.2.2.1.5.3c.3.2.6.5.7.3.2-.1-.6-.5-.8-.8-.2-.2-.6-.6-.6-.9,0-.3-.2-.4-.6-.8-.1-.1-.2-.2-.3-.4-.3-1.3-.5-2.9-.8-4.8-.2-1.3-.3-2.5-.3-3.6h.8s0,0,0,0ZM398.1,125.1c-2.6,5.2-6.2,8.1-6.2,8.1,0,0,.5-1.3.7-2.2.2-.9,0-1.9,0-1.9,0,0,.9-1.2,2.6-3.8s2.6-6.4,2.6-6.4c0,0-1.6,3.8-2.8,5.9-1.2,2-2.6,3.7-2.6,3.7,0,0-.5-1.8-.8-1.9-.4,0-.6.2-.9.6-.3.4-.6.3-.6.3,0,0,.4-.8,1.1-1.9.3-.5.7-1,1-1.4,1-1.5,3-4.4,4.1-7.2,1.1-2.9,3.4-10.1,3.8-12.2.4-2.1.8-1,1.2.6.4,1.6,1,3.8.6,7.1s-1.1,7.4-3.7,12.6h0ZM394.7,139.1c-1,.7-2.4,1.7-2.4,1.7,0,0,.2-.5.4-1.1s.2-1.9.2-1.9l1.9-1.7c1.4-1.2,2.6-2.5,3.7-4,1.9-2.4.4-1-1.2.8s-4.6,4.2-4.6,4.2v-.6c0-.5-.2-.9-.5-1.3-.3-.4-.1-.4,1.6-1.7,1.7-1.3,6.1-6.3,8-9.3,1.8-3,3.8-7,3.8-7,0,0,1,5.9-2.7,12.5-3.6,6.6-7.2,8.7-8.2,9.4h0ZM375.7,176.6c-2-.8-1.4-2.7-1.4-2.8s1.2.4,2.3.8,3.9,1.2,5,1.2,1.1-.1,1.1-.3c0-.2-.8,0-2.4-.3-1.6-.3-4.3-1.7-4.8-2.1-.5-.3-.4-.4.3-.4.6,0,1.1-.3,1.6-.6.3-.2,1,.1,2.8.5,1.8.4,5.5,1.1,8.4,1.1s5.5-.5,6-.6c.4-.1.9.2-.4,2.5-1.4,2.3-6.2,3.6-9.6,3.5-3.4,0-6.7-1.8-8.7-2.6h0ZM384.7,171.8c-3.5,0-4.8-1-4.8-1,0,0,0-.2.5-.9.5-.7.4-1.9.4-1.9,0,0,.8.1,2.3.4,1.4.2,3.1.4,5,0s1.1-.5-.4-.4c-1.5.2-4.3-.4-5.2-.7-.9-.3-.5-.6,0-.8.6-.2,2.3-1.3,2.3-1.3,0,0,4.2.5,8.1,0s6.4-1.4,7.2-1.6.8.2.8.2c0,0,.2.4-1.1,2.5s-4,3.5-6.2,4.1c-2.2.6-5.3,1.1-8.8,1.1h0ZM385.5,163.7s.1-.2.4-.9c.2-.7-.4-1.2-.4-1.2,0,0,.8-.2,3.4-.6,2.6-.3,2.7-.5,4.3-.9,1.6-.4,2.6-.8,2.6-1s-.5,0-1.5.4c-.9.4-4.9.8-6.6,1-1.7.2-2.6.4-2.9.2-.3-.2-1.3-.4-1.3-.4,0,0,.7-.2,1.6-.4.8-.1,1.5-.4,2.1-.9.5-.3.6-.4,2.7-.6,2.1-.2,3.8-.9,7.6-2.3,3.8-1.4,6.6-3,7.4-3.6.8-.6.7-.2.5.6-.2.8-.2,1.8-2.1,4-1.9,2.2-2.9,3.2-7.7,5-4.8,1.8-10.2,1.5-10.2,1.5h0ZM399.8,151.9c-4.3,3-9.3,4.1-10.3,4.2-.2-.3.3-1.3,0-1.9-.3-.7-.7-.7-1.8-.8-1,0-.4-.3-.1-.3s.3,0,2-.5c1.7-.4,3.4-.7,5.8-1.6,2.4-.9,3.1-1.5,3-1.7,0-.2-1.1.6-3.3,1.4-2.2.8-4.7,1.1-6.1,1.4-1.4.3-.2-.3.5-.7.6-.4,1.6-1.8,1.6-1.8,0,0,1.5-.3,4-1,2.3-.7,4.6-1.6,6.7-2.8.7-.4,1.4-.9,2.2-1.5,1.4-1,2.9-2.1,3.4-2.5.9-.6.6-.1.5.3s-.7,2.1-2,4.1c-1.4,1.9-1.8,2.5-6.1,5.5h0ZM400.5,143.5c-4.2,3.3-7.8,4.4-8.4,4.6-.6.3-.6,0-.4-.4s.2-1.5.2-1.5l3.2-1.8c1.7-1,3.5-2.3,4.8-3.1,1.2-.9.5-.8.1-.5-.4.3-2.1,1.3-3.8,2.4-1.7,1.1-4.3,2.6-4.3,2.6,0,0,0-.6-.4-.9s-1.2-.3-1.2-.3c0,0,.4-.4.7-.9.3-.4,1.6-.9,3.2-1.6,1.6-.7,4.4-2.8,6.4-4.5,2.2-2,4.3-4.2,6.3-6.4.3-.4.4-.3.5.1,0,.4.2.7-.3,2.7-.4,2-2.3,6.2-6.5,9.5h0ZM385.6,112c-.5,1-1,1.7-1.4,2.4-.6,1-.9,1.6-.9,1.6,0,0-.1-.3,0-.9s.2-1.4,0-2.4c0-.5-.2-1-.2-1.5,0-.5.2-1,.3-1.3.1-.6.7-3,1-4.8.3-1.7.6-4.2.6-6.4,0-2.2-.3-1.1-.3,0s-.1,2.7-.4,5.2c-.3,2.5-1.4,6.3-1.4,6.3,0,0,0-.6-.4-1.4s-.8-1.8-1.2-2.8c-.4-1-.3-1.2-.3-1.2,0,0,1.5-7.1,1.9-10.4.4-4,.7-8.1,1-12.1,2.2,2.2,3.8,7.9,4.1,13.3.2,4.1-.4,7.8-.6,9.4-.4,3-.9,5.4-1.7,7h0ZM390.4,123.2c0-1.6-.4-2.8-1.5-3.2,0,0,.9-1.6,1.7-3.9.6-1.6,1-3.6,1.2-5.1.6-3.8,1-7.7-.1-1.3-1.1,6.4-2.5,8.6-2.5,8.6l-1.6,2.7c.2-1.2.3-2,.2-3.3s-.2-3-.6-4.4c0,0,2-4,3.2-8.7s2-9.1,2-11.7l.2-3.4s2,1.5,2.7,9.3c.7,7.8-1.4,15.2-2.4,18-1,2.8-2.5,6.3-2.5,6.3ZM368.3,182.2s.3-.2,1.3-.8.7-2.4.7-2.4c0,0,.3.2,1,.7.7.5,1.5,1,2.5,1.4s1.4.6,2,.8.5,0,0-.4c-.5-.3-.7-.4-2-1-1.3-.5-3.8-2.8-3.8-2.8,0,0,.6,0,1.7-.1s2.4-.6,2.4-.6c0,0,1,1,5.3,2.8,4.3,1.8,7.9,2.3,7.9,2.3,0,0-.4,2.2-2.5,2.9-1.7.7-4,1.2-8.6.1-4.6-1.1-7.7-3-7.7-3h0ZM362.6,186.6c-.4-1.8.7-3.1.7-3.1,0,0,.2.1.9.7.6.6,1.6,1.7,3.4,2.6s2.4.8.7-.1-4.3-3.6-4.3-3.6l.7-.2c.7-.3,1.8.2,6.6,3.1,4.8,2.9,7.6,3,7.6,3,0,0-2.1,2.6-8,2.4-5.8-.2-8-3-8.3-4.8h0ZM351.6,184.5s.6.9,1.5,1.5,3.2.9,3.2.9c0,0,.1.2.5.8.5.6,1.4,2,2.5,2.7,1,.7,2.6,1.2,2.7,1s-.9-.6-1.9-1.2c-1-.6-1.9-1.7-2.6-2.5-.7-.8.3-.6.3-.6,0,0,1.2,0,2.3,0,1.1-.1.9,0,1.2.5s.8,1,1.6,2c1,1.2,2,2.2,3,3.4.6.8.2,1,.2,1,0,0-.3.5-2.9.8-1.6.2-3.3,0-5.2-1.1-1.1-.7-2.3-1.7-3.5-3-3.1-3.4-2.9-6.2-2.9-6.2h0ZM350.2,191.5c.6.8,1,1.2,1,1.2,0,0-.5-1.4-.8-2-.2-.4-.4-.7-.6-.9.4-1,.8-2,1-3.1.3.9,1.2,3.6,2.3,5.4,1.4,2.1,2.5,2.9,1.8,3.5-.8.6-2.3.7-4-.1-1.6-.8-2.1-2.2-2.3-3.3.3-.4.5-.9.8-1.4.2.1.5.4.9.8h0Z"/>
    <ellipse cx="350.6" cy="105.8" rx="1.2" ry="1.1"/>
    <path d="M353.1,103.7c-1.1,0-1.7-.5-2.9-.4-1.4.1-3.3,1-5.7,2.2-2.1.9-4.4,1.1-6.5.6-.6-.2-1.3-.5-1.9-.9-2.8-1.6-2.1-4.8-2.1-4.8,2,1.5,4.6,2.3,7.1,2.2,0,0-.2.1-.6.6-.4.4-1.2.9-.9,1.1.2.2,1.3-.8,2.1-1.4,1.3-1,2.8-1.7,4.4-2.2,2.2-.7,4.7-.7,6.3.2,1.7.9,1.8,2.1,1.6,2.5-.1.3-.4.3-.8.3ZM322.3,126.8c.5-.1,1.4-.3,2.5-1.3,1.5-1.4,2.9-3,4.2-4.6.3-.6.2-1.1-.6-1.4-.8-.3-1.3-1.3-1.3-1.3,0,0,1.7-.6,2.8-1.5,1.1-.8,3.8-3.2,4.2-3.8s.2-.7-.4-.9c-.5-.2-.7-.6-.7-.6,0,0,1.2-.8,2.4-1.7,1.1-.9,2.7-2.4,2.7-2.4,1.7.7,4.4.4,5.9.1,2.6-.5,4.4-1.5,4.4-1.5,0,0,0,.4.4,1.2.3.8,1.5,1.2,2.7.4,1.2-.8.9-2.5.9-2.5,0,0,1-.6,2.9-1.3s3.6-.8,5.2,0c1.6.7,2.4,2.9,2.4,4.6s-.9.9-1,.7c-.2-.2-.5-1.4-2.6-1.7s-3.8.6-6.1,2.5c-2.3,1.9-2.8,2-3.9,3.2-1.1,1.2-.2,1.8,1.7,2.5s4.5-.6,4.6-.6c.4.2-.9,1.9-2.5,2.6-1.7.7-3.9.2-5.5-.4-1.1-.5-1.4,0-1.7.4-1.9,1.9-2.3,3.8-2.6,6-.9-.3-1.5-1.1-1.7-2,0-.4-.2-1.2-.8-.6-.6.6-1.1,3.9-1.1,5.4s.5,3.5.5,3.5h-.5c-.3-.1-.8-.4-1.5-.8-.7-.4-.8,0-.8.9s-.3,2.4-1.4,5.2-2.7,3.7-2.7,3.7c0,0-.3-.6-.6-1.6-.3-1.1-.5-3.3-.5-5.1s.5-5.9.5-5.9c0,0-2.3,2.8-4.7,3.5-2.4.7-4.8.3-5.8-.9s-.1-1.7.4-1.8h0Z"/>
    <path d="M338,134s.7,1.6,1.1,2.2.6.6.6.6c0,0-.7.6-1.8.9-1,.3-2,.5-2,.5,0,0,1.2-1.6,1.6-2.8.4-1.1.5-1.5.5-1.5h0ZM323.7,133.1c.4-.9.6-1.4.6-1.4,1.5.3,4.2-.4,5.4-1.1,0,0-1.1,2.2-2.2,3-1.1.8-1.2.8-1.2.8,0,0,1.1.2,2.6-1.3,1.5-1.4,2.1-3.1,2.1-3.1,0,0-.3,3.9.3,6.2s.7,2.7.7,2.7c0,0-3.1.6-6.6-.4-3.5-1-3.7-1.3-3.7-1.3,0,0-.4-.1.1-.8.8-1,1.4-2.1,1.9-3.3h0Z"/>
    <path class="st0" d="M330,124.6c1.1-1.2,1.2-1.5,1.2-1.5,0,0,.4.4,0,.9-.8,1-1.8,1.8-2.9,2.4-.6.4-1.3.6-2.1.8v-.2s2.6-1.2,3.7-2.4ZM334.2,132.7s.3-4.8.3-5.6.5-.5.5-.5l.5.2-1,7.1c-.1.8-.5.7-.7.7.4-.2.5-1.7.5-1.9ZM340.7,111.7c.4-.4,1.3-.7.4.3-.9,1-2,2.1-2.3,3.1-.3,1-.5,2.2,0,1.9.6-.3,1-.3,1.5-.8.7-.6,1.4-1.1,2.2-1.4.5-.1,1.3,0,.6.7-.7.7-1.4,1.4-2.6,2.3s-2,1.3-2.6,1.8c-.6.5-1.3.8-1.3.8,0,0,.6-3.9,1.7-5.7s2-2.7,2.4-3.1h0ZM362.1,177.9c.8.6,1.9.9,1.9.9,0,0,.5,0,.5.2s-.6,0-1.2-.1c-.6-.1-1.4-.7-1.7-.9s-.8-.5-.6-.9c.1-.4.4.3,1.2.9ZM355.2,181.6c.2.2,1.5,1.2,1.5,1.2,0,0,.4.3.9.4.4.2.5.4.5.4,0,0,0,.1-.5,0-.5-.1-1.9-1.1-2.3-1.5-.4-.4-.6-.5-.5-.7.2-.2.2,0,.4.1h0ZM383.1,131.9c-.2.3-.5.7-.7.6-.1-.1,0-.3.4-.7.3-.4.5-.6.5-.6,0,0,.5-.8.8-1,.3-.3.7-.4.2.2-.5.6-.9,1.2-1.1,1.5h0ZM385.2,136.6c-.3.3-.6.5-.9.9s-.6.7-.8.6c-.2-.2.5-.6.8-1s.6-.6.9-.9.9-.6.9-.6c0,0-.6.8-.9,1.1h0ZM384.4,144.1c-.5.6-1.3.7-1.4.5s0-.4.5-.6c.4-.2,1.1-.7,1.5-.9.3-.2.7-.5,1-.8.2-.2.5-.5.6-.4.1,0-.7,1-1,1.1-.2.1-.7.6-1.2,1.1h0ZM382.9,150.1c0-.2,0-.3.4-.4s1.1-.1,1.1-.1c0,0,.9-.3.9-.2,0,.2-.7.5-1.1.6-.3,0-.8.2-.9.3-.2.1-.4,0-.4-.2h0ZM382.2,156.6c.9,0,1.7-.2,1.8,0s-.4.4-.9.5c-.5.2-1.4.2-2,.2s-.7-.1-.7-.4c0-.3.8-.3,1.8-.3ZM374.9,163.8c.1-.1.5,0,1,0,.5.1,1.4.3,1.9.2s1.6,0,1.6,0h.6c0,.3-.8.2-2,.4-1.2.1-1.9-.1-2.5-.2-.5,0-.7-.3-.6-.5ZM371.8,168.9c.6.2,1,.3,1.4.3s1.5.2,1.5.2c0,0,.5,0,.4.2,0,.2-.2,0-.7,0-.5,0-.8,0-1.5,0-.8,0-1.2-.2-1.7-.3-.5-.1-1-.3-.8-.6.2-.3.8,0,1.3.3ZM365.9,172.7c.3.3,1.6,1.2,1.6,1.2,0,0,.2.2.8.4s.5.4.4.5-.4-.2-.7-.3-1.2-.7-1.6-1.1c-.5-.4-1.1-.7-1-1,.1-.3.2,0,.5.2h0ZM375.8,122.9s-.1.2-1.1,1.5c-1,1.3-.5,0-.2-.2.3-.3,1.8-2.4,2.3-3,.5-.6.6-.3.3,0s-1.2,1.7-1.2,1.7ZM377.9,129.4c-.1-.1.2-.3.8-1l1.8-2.2s.3-.7.4-.6c.1,0-.4,1.2-.9,1.7-.5.5-1.1,1.4-1.4,1.8s-.5.6-.7.4h0ZM375.1,141.7c0-.4,1.2-.3,1.7-.4l1.5-.3s1.1-.2,1.1,0c0,.1-.2.3-.8.4s-1.5.4-2.2.5-1.2.2-1.2-.1h0ZM377.9,135.1c-.8.6-1.3.9-1.7,1.1s-.7.6-1,.3c-.2-.3.2-.4.8-.7.7-.3,1-.5,1-.5l.7-.4c.3-.2.9-.4.1.2h0ZM371.3,130.7c.5-.4.9-.6.9-.6,0,0,.6-.6.7-.4.1.2-.7.7-1,1.1-.4.3-1,1.3-1.4,1.1-.3-.2.3-.8.8-1.2h0ZM375.6,147.9l1,.3c.4.1.4.3-.3.3s-1.1-.2-1.8-.3c-.8-.1-1-.2-.9-.5s.5-.2.8,0l1.1.3ZM374.5,154.1c0,.1-.5,0-.9-.1-.4-.1-1.2-.6-1.7-.7-.5-.1-.5-.2-.5-.5s.5,0,1.1.1c.6.2,1.4.8,1.4.8,0,0,.5.2.5.4ZM366.5,157.8c-.5-.3-.7-.6-.5-.8.2-.2.4-.1.8.2s1.3,1,1.3,1c0,0,.4.2.8.3s.8.4.6.6c-.1.2-.8,0-1.2-.3-.4-.3-1.3-.8-1.9-1.1h0ZM362.7,162.8c-.2-.2-.9-.4-1.2-.6-.3-.2-.5-.9-.2-1s.4.3.9.7c.5.4,2.3,1.6,2.3,1.6l.5.2c.5.2.3.3-.1.3-.4,0-.7,0-1.2-.4-.5-.4-.7-.5-.9-.7h0ZM357.1,167.5c-.5-.2-1.2-.8-1.5-1.1-.3-.3-.7-.7-.5-.9.3-.2.5,0,.9.4s1.4,1.4,1.4,1.4c0,0,.1,0,.7.5.5.4,0,.4-.2.2-.2-.2-.3-.3-.8-.5h0Z"/>
    <path d="M334.4,96.6l-2.2-1.6,2.6-.7,1.7,1.4-2.1.9Z"/>
    <ellipse class="st0" cx="327.2" cy="94.7" rx="2.1" ry="2.1"/>
    <ellipse cx="327.2" cy="94.3" rx="1.3" ry="1.2"/>
    <path d="M331.7,87.6c-.5.2-1.3.1-1.3.1,0,0-.2-.9.3-1.4.5-.5,1-.8,1.3-1.1l.4-.4s0,.8,0,1.3c0,.5-.2,1.3-.8,1.5h0Z"/>
    <ellipse cx="330.5" cy="88.7" rx=".4" ry=".4"/>
    <path d="M333.5,88.2c.2.2.5.6.5.6,0,0-.4,0-.8.3-.4.3-.8.5-1.2.4-.4,0-.6-.4-.5-.7.1-.3.3-.6,1-.8.7-.3.9,0,1,.3h0Z"/>
    <path d="M332,90.8c1.4.1,3.1-1.4,3.1-1.4.2,1.2.9,1.8,2,2h-.1c0,0-1.1.6-2.3.8-.6,0-1.1,0-1.7-.1-.7-.1-1.4-.3-2-.6-.8-.5-.6-1.8-.6-1.8,0,0,.1,1,1.5,1.1h0ZM337.2,89.4c.5-.2,1.4-.6,1.7-.6.3,0,.9,0,.8.5s-.7.9-1.4,1c-.6,0-1-.2-1.4-.4-.4-.2-.3-.3.2-.5ZM341.4,87.1c.6-.4,1.1-.6,1.1-.6,0,0,.4,1,.2,1.7-.2.7-.7.8-1.3.8s-1.4-.3-1.2-.8c.3-.5.7-.9,1.1-1.2Z"/>
    <ellipse cx="340.9" cy="90" rx=".5" ry=".3"/>
    <path d="M339.6,84.9c.4-1.8.3-3.7-1.4-6.2-1.7-2.5-4.6-3.4-4.6-3.4,0,0-.1-.2-1-1.2-.9-1-2.8-2.2-2.8-2.2,0,0,2.2.6,3.5.9h0c0,.9.7,1.6,1.5,1.6s.6,0,.9-.3c.7.1,2.9,1.5,3.5,2-.1.2-.2.5-.2.8,0,.8.7,1.5,1.5,1.5s.5,0,.7-.2l.2.3c.5.9.8,1.7,1.1,2.5-.4.3-.6.8-.6,1.3,0,.8.6,1.5,1.3,1.5,0,.5,0,.8,0,1,0,.5-.2.8-1.1,1.1-.9.2-2,1.8-2,1.8,0,0-.7-1.1-.2-2.9h0Z"/>
    <path d="M334.2,73.5c-.3-.2-.4-.7-.1-.9.2-.2.7-.2,1,0,.3.3.4.7.1.9-.2.2-.7.2-1,0h0ZM339.9,77.3c-.4-.3-.4-.8-.1-1.1.3-.3.8-.3,1.2,0,.4.3.4.8.1,1.1-.3.3-.8.2-1.2,0Z"/>
    <ellipse cx="343.2" cy="82.1" rx=".9" ry=".9"/>
    <path d="M324.4,70c.5,0,1.3.4,2.5,1h0c-.9,0-1.5.6-1.5,1.3s.8,1.5,1.7,1.5,1.5-.8,1.5-1.5,0-.3-.1-.5l1.2.8c2.8,1.9,3.4,2.8,4.8,5.3,1.4,2.6,1.9,5.3,1.3,7-.6,1.7-2.8,2-2.8,2s.2-.3.3-.6,0-.5-.2-1.1c-.1-.6,0-1.4,0-1.4,0,0-.5,0-.8.3-.3.3-.7.8-1,1.1-.3.3-1,1-1,1,0,0-.4-.6-.4-1.4s.5-1.6.6-2.9-.6-3.6-1.9-5.3c-1.2-1.5-2.7-2.7-4.4-3.6-.7-.3-.8-.9-.9-1.2,0-.3-.1-.5-.2-1.3s.6-.8,1.4-.6h0Z"/>
    <path d="M327.2,73c-.5,0-.9-.4-.9-.8s.4-.7.9-.7.9.3.9.7-.3.8-.8.8ZM323.1,89.2c-.7.3-1.4.1-1.8-.1-.4-.2-.5-.8,0-1.2.4-.3,1-.4,1.4-.1.4.2,1.3.8,1.3.8,0,0-.2.3-.9.6h0Z"/>
    <path d="M320.9,90c.2.4.4.6,1.2.6s1.5,0,2-.5c.5-.5.8-1.2.8-1.2h.8s.3,1.2.6,1.5c.4.3,1.7.4,2.2,0s1.1-.9,1.2-.9,0,.5-.6,1-1,.8-1.9.8h-5.3s-1.1,0-1.4-.6c-.3-.6-.3-1.1-.2-1.2.1-.2.2,0,.5.5h0Z"/>
    <path d="M329,89.1c-.8.4-1.2.2-1.5-.2-.3-.3-.3-.5-.3-.5,0,0,.8-.3,1.1-.5.4-.2.6-.4,1-.4.4,0,.4,0,.4,0,0,0,.1,1-.6,1.5h0Z"/>
    <ellipse class="st0" cx="332.9" cy="81.2" rx="1.8" ry="1.8"/>
    <path class="st0" d="M329.8,75.1c.7-.5,1.8-.3,2.3.4.6.7.5,1.7-.2,2.2s-1.8.3-2.3-.4c-.6-.7-.5-1.7.2-2.2Z"/>
    <ellipse cx="332.9" cy="81" rx="1" ry="1"/>
    <path d="M330.5,75.3c.5-.1,1,0,1.3.5s0,.8-.6,1c-1.1.2-1.7-1.2-.6-1.5Z"/>
  </g>
</svg>