<?xml version="1.0" encoding="UTF-8"?>
<svg id="Calque_1" xmlns="http://www.w3.org/2000/svg" version="1.1" viewBox="0 0 1200 600">
  <!-- Generator: Adobe Illustrator 29.4.0, SVG Export Plug-In . SVG Version: 2.1.0 Build 152)  -->
  <defs>
    <style>
      .st0 {
        fill: #fff;
      }
    </style>
  </defs>
  <path d="M0,0h1200v600H0V0Z"/>
  <path class="st0" d="M400,0h400v600h-400V0Z"/>
  <g>
    <path class="st0" d="M90,270h50v240h-50v-240ZM260,270h50v240h-50v-240ZM150,480l50,30,50-30h-100ZM150,450h100v20h-100v-20ZM150,270l50,30,50-30h-100ZM150,310h100v20h-100v-20ZM223.8,346.1c3.7,5.1,5.7,11.2,5.7,17.4,0,16.3-13.2,29.5-29.5,29.5-13,0-23.5,10.5-23.5,23.5,0,13,10.5,23.5,23.5,23.5,27.6,0,50-22.4,50-50s-10.1-35.2-26.2-43.9h0ZM200,406.5c5.5,0,10,4.5,10,10s-4.5,10-10,10-10-4.5-10-10,4.5-10,10-10Z"/>
    <path class="st0" d="M176.2,433.9c-3.7-5.1-5.7-11.2-5.7-17.4,0-16.3,13.2-29.5,29.5-29.5,13,0,23.5-10.5,23.5-23.5,0-13-10.5-23.5-23.5-23.5-27.6,0-50,22.4-50,50s10.1,35.2,26.2,43.9h0ZM200,373.5c-5.5,0-10-4.5-10-10s4.5-10,10-10,10,4.5,10,10-4.5,10-10,10ZM145.1,203.9c0,.4,0,.7-.1,1.1,0,30.4,24.6,55,55,55s55-24.6,55-55c0-.3,0-.7,0-1-9.5,21.9-31.1,36-55,36-23.9,0-45.4-14.2-54.9-36.1h0Z"/>
    <circle class="st0" cx="200" cy="190" r="40"/>
    <path class="st0" d="M204.2,60c-5,2.3-6.8,6.3-7.2,10.4-.2,3.4,1.3,7.3,1.4,10.6,0,5.7-5.9,7.6-5.9,15.8s2.6,5.9,2.6,13.2c-.4,3.8-2.6,4.7-5,5-2.8,0-5-2.2-5-5,0-1.3.5-2.5,1.4-3.4.2-.2.3-.3.5-.5,1.1-1.2,2.7-1.6,2.7-4.6,0-1.6-1-3-2-5.7-.9-2.7-.2-7.2,1.9-9.8-3.5,1.3-5.7,4.7-6.8,7.7-1.2,3.7-.1,5.8-1.7,8.9-1,2-2.1,2.8-3.2,4.5-1.3,1.8-2.8,6-2.8,8,0,13.8,11.2,25,25,25h0c13.8,0,25-11.2,25-25h0c0-2-1.5-6.2-2.8-8-1.1-1.7-2.3-2.5-3.2-4.5-1.6-3.1-.6-5.2-1.7-8.9-1.1-3-3.3-6.4-6.8-7.7,2.2,2.6,2.8,7.1,1.9,9.8-1,2.8-2,4.2-2,5.7,0,3,1.6,3.5,2.7,4.6.2.2.4.3.5.5.9.9,1.4,2.2,1.4,3.4,0,2.8-2.2,5-5,5-2.8-.3-4.8-1.6-5-5,0-9.6,4.1-10.2,4.1-17.4,0-10.2-9.1-15-9.1-22.4s.6-6.8,4.2-10.2h0Z"/>
  </g>
</svg>