<?xml version="1.0" encoding="UTF-8"?>
<svg id="Calque_1" xmlns="http://www.w3.org/2000/svg" version="1.1" viewBox="0 0 450 300">
  <!-- Generator: Adobe Illustrator 29.4.0, SVG Export Plug-In . SVG Version: 2.1.0 Build 152)  -->
  <defs>
    <style>
      .st0 {
        fill: #fff;
      }
    </style>
  </defs>
  <rect width="450" height="300"/>
  <g>
    <circle class="st0" cx="225" cy="114" r="64.5"/>
    <rect class="st0" y="100" width="450" height="100"/>
    <g id="r16">
      <g id="r8">
        <g id="r4">
          <g id="r2">
            <path id="r" class="st0" d="M225,12c-2.2,0-3,3.3-3,6.5,0,8,1,12,3,23.5,2-11.5,3-15.6,3-23.5s-1-6.5-3-6.5"/>
            <path id="r1" data-name="r" class="st0" d="M233.9,12.4c-2.2-.2-3.3,3-3.6,6.2-.7,8,0,12,.9,23.7,3-11.3,4.3-15.3,5-23.1s-.4-6.6-2.4-6.7"/>
          </g>
          <g id="r21" data-name="r2">
            <path id="r2" data-name="r" class="st0" d="M242.7,13.5c-2.2-.4-3.5,2.7-4.1,5.9-1.4,7.9-1.1,12-1.1,23.7,4-11,5.7-14.8,7-22.6s.1-6.6-1.8-6.9"/>
            <path id="r3" data-name="r" class="st0" d="M251.4,15.5c-2.1-.6-3.8,2.4-4.6,5.5-2.1,7.7-2.1,11.8-3.2,23.5,4.9-10.6,6.9-14.3,9-21.9s.7-6.5-1.2-7.1"/>
          </g>
        </g>
        <g id="r41" data-name="r4">
          <g id="r22" data-name="r2">
            <path id="r4" data-name="r" class="st0" d="M259.9,18.2c-2.1-.8-3.9,2.1-5,5.1-2.7,7.5-3.2,11.6-5.2,23.1,5.9-10.1,8.2-13.6,10.9-21.1s1.3-6.5-.6-7.1"/>
            <path id="r5" data-name="r" class="st0" d="M268.1,21.6c-2-.9-4.1,1.7-5.5,4.6-3.4,7.3-4.2,11.3-7.2,22.6,6.7-9.6,9.3-12.9,12.7-20s1.8-6.3,0-7.2"/>
          </g>
          <g id="r23" data-name="r2">
            <path id="r6" data-name="r" class="st0" d="M276,25.7c-1.9-1.1-4.2,1.4-5.8,4.1-4,6.9-5.1,10.9-9.2,21.9,7.5-8.9,10.4-12,14.3-18.9s2.4-6.1.7-7.1"/>
            <path id="r7" data-name="r" class="st0" d="M283.5,30.4c-1.8-1.3-4.4,1-6.2,3.6-4.6,6.6-6.1,10.4-11,21,8.3-8.3,11.4-11.1,15.9-17.5s2.9-5.9,1.3-7"/>
          </g>
        </g>
      </g>
      <g id="r81" data-name="r8">
        <g id="r42" data-name="r4">
          <g id="r24" data-name="r2">
            <path id="r8" data-name="r" class="st0" d="M290.6,35.9c-1.7-1.4-4.4.6-6.5,3.1-5.1,6.1-6.9,9.8-12.8,19.9,9-7.5,12.3-10,17.4-16.1s3.4-5.6,1.9-6.9"/>
            <path id="r9" data-name="r" class="st0" d="M297.1,41.9c-1.6-1.6-4.5.2-6.7,2.5-5.7,5.7-7.8,9.2-14.5,18.7,9.6-6.7,13.2-8.9,18.7-14.5s3.9-5.3,2.5-6.7"/>
          </g>
          <g id="r25" data-name="r2">
            <path id="r10" data-name="r" class="st0" d="M303.1,48.4c-1.4-1.7-4.5-.2-6.9,1.9-6.1,5.1-8.5,8.5-16.1,17.4,10.1-5.8,13.9-7.7,19.9-12.8s4.3-4.9,3.1-6.5"/>
            <path id="r11" data-name="r" class="st0" d="M308.6,55.5c-1.3-1.8-4.4-.6-7,1.3-6.6,4.6-9.3,7.7-17.5,15.9,10.6-4.9,14.5-6.5,21-11,2.7-1.9,4.8-4.5,3.6-6.2"/>
          </g>
        </g>
        <g id="r43" data-name="r4">
          <g id="r26" data-name="r2">
            <path id="r12" data-name="r" class="st0" d="M313.3,63c-1.1-1.9-4.4-.9-7.1.7-6.9,4-9.9,6.9-18.9,14.3,11-4,15-5.2,21.9-9.2s5.1-4.1,4.1-5.8"/>
            <path id="r13" data-name="r" class="st0" d="M317.4,70.9c-.9-2-4.3-1.3-7.2,0-7.3,3.4-10.5,6-20,12.7,11.3-3,15.4-3.9,22.6-7.2s5.5-3.7,4.6-5.5"/>
          </g>
          <g id="r27" data-name="r2">
            <path id="r14" data-name="r" class="st0" d="M320.8,79.1c-.8-2.1-4.1-1.7-7.1-.6-7.5,2.7-10.9,5-21.1,10.9,11.5-2,15.7-2.5,23.1-5.2s5.8-3.2,5.1-5"/>
            <path id="r15" data-name="r" class="st0" d="M323.5,87.6c-.6-2.1-4-2-7.1-1.2-7.7,2.1-11.3,4.1-21.9,9,11.6-1,15.8-1.1,23.5-3.2s6-2.6,5.5-4.6"/>
          </g>
        </g>
      </g>
    </g>
    <g id="r161" data-name="r16">
      <g id="r82" data-name="r8">
        <g id="r44" data-name="r4">
          <g id="r28" data-name="r2">
            <path id="r16" data-name="r" class="st0" d="M124.5,96.3c-.4,2.2,2.7,3.5,5.9,4.1,7.9,1.4,12,1.1,23.7,1.1-11-4-14.8-5.7-22.6-7s-6.6-.1-6.9,1.8"/>
            <path id="r17" data-name="r" class="st0" d="M126.5,87.6c-.6,2.1,2.4,3.8,5.5,4.6,7.7,2.1,11.8,2.1,23.5,3.2-10.6-4.9-14.3-6.9-21.9-9s-6.5-.7-7.1,1.2"/>
          </g>
          <g id="r29" data-name="r2">
            <path id="r18" data-name="r" class="st0" d="M129.2,79.1c-.8,2.1,2.1,3.9,5.1,5,7.5,2.7,11.6,3.2,23.1,5.2-10.1-5.9-13.6-8.2-21.1-10.9s-6.5-1.3-7.1.6"/>
            <path id="r19" data-name="r" class="st0" d="M132.6,70.9c-.9,2,1.7,4.1,4.6,5.5,7.3,3.4,11.3,4.2,22.6,7.2-9.6-6.7-12.9-9.3-20-12.7s-6.3-1.8-7.2,0"/>
          </g>
        </g>
        <g id="r45" data-name="r4">
          <g id="r210" data-name="r2">
            <path id="r20" data-name="r" class="st0" d="M136.7,63c-1.1,1.9,1.4,4.2,4.1,5.8,6.9,4,10.9,5.1,21.9,9.2-8.9-7.5-12-10.4-18.9-14.3s-6.1-2.4-7.1-.7"/>
            <path id="r21" data-name="r" class="st0" d="M141.4,55.5c-1.3,1.8,1,4.4,3.6,6.2,6.6,4.6,10.4,6.1,21,11-8.3-8.3-11.1-11.4-17.5-15.9s-5.9-2.9-7-1.3"/>
          </g>
          <g id="r211" data-name="r2">
            <path id="r22" data-name="r" class="st0" d="M146.9,48.4c-1.4,1.7.6,4.4,3.1,6.5,6.1,5.1,9.8,6.9,19.9,12.8-7.5-9-10-12.3-16.1-17.4s-5.6-3.4-6.9-1.9"/>
            <path id="r23" data-name="r" class="st0" d="M152.9,41.9c-1.6,1.6.2,4.5,2.5,6.7,5.7,5.7,9.2,7.8,18.7,14.5-6.7-9.6-8.9-13.2-14.5-18.7s-5.3-3.9-6.7-2.5"/>
          </g>
        </g>
      </g>
      <g id="r83" data-name="r8">
        <g id="r46" data-name="r4">
          <g id="r212" data-name="r2">
            <path id="r24" data-name="r" class="st0" d="M159.4,35.9c-1.7,1.4-.2,4.5,1.9,6.9,5.1,6.1,8.5,8.5,17.4,16.1-5.8-10.1-7.7-13.9-12.8-19.9s-4.9-4.3-6.5-3.1"/>
            <path id="r25" data-name="r" class="st0" d="M166.5,30.4c-1.8,1.3-.6,4.4,1.3,7,4.6,6.6,7.7,9.3,15.9,17.5-4.9-10.6-6.5-14.5-11-21s-4.5-4.8-6.2-3.6"/>
          </g>
          <g id="r213" data-name="r2">
            <path id="r26" data-name="r" class="st0" d="M174,25.7c-1.9,1.1-.9,4.4.7,7.1,4,6.9,6.9,9.9,14.3,18.9-4-11-5.2-15-9.2-21.9s-4.1-5.1-5.8-4.1"/>
            <path id="r27" data-name="r" class="st0" d="M181.9,21.6c-2,.9-1.3,4.3,0,7.2,3.4,7.3,6,10.5,12.7,20-3-11.3-3.9-15.4-7.2-22.6s-3.7-5.5-5.5-4.6"/>
          </g>
        </g>
        <g id="r47" data-name="r4">
          <g id="r214" data-name="r2">
            <path id="r28" data-name="r" class="st0" d="M190.1,18.2c-2.1.8-1.7,4.1-.6,7.1,2.7,7.5,5,10.9,10.9,21.1-2-11.5-2.5-15.7-5.2-23.1s-3.2-5.8-5-5.1"/>
            <path id="r29" data-name="r" class="st0" d="M198.6,15.5c-2.1.6-2,4-1.2,7.1,2.1,7.7,4.1,11.3,9,21.9-1-11.6-1.1-15.8-3.2-23.5s-2.6-6-4.6-5.5"/>
          </g>
          <g id="r215" data-name="r2">
            <path id="r30" data-name="r" class="st0" d="M207.3,13.5c-2.2.4-2.4,3.8-1.8,6.9,1.4,7.9,3.1,11.6,7,22.6,0-11.7.2-15.9-1.1-23.7s-2.1-6.2-4.1-5.9"/>
            <path id="r31" data-name="r" class="st0" d="M216.1,12.4c-2.2.2-2.7,3.5-2.4,6.7.7,8,2,11.9,5,23.1,1-11.6,1.6-15.8.9-23.7s-1.6-6.4-3.6-6.2"/>
          </g>
        </g>
      </g>
    </g>
  </g>
  <rect y="92.5" width="450" height="7.5"/>
  <rect y="200" width="450" height="100"/>
</svg>