<?xml version="1.0" encoding="UTF-8"?>
<svg id="Calque_1" xmlns="http://www.w3.org/2000/svg" version="1.1" viewBox="0 0 8192 4096">
  <!-- Generator: Adobe Illustrator 29.4.0, SVG Export Plug-In . SVG Version: 2.1.0 Build 152)  -->
  <defs>
    <style>
      .st0 {
        fill: #fff;
      }

      .st1 {
        stroke: #000;
        stroke-miterlimit: 10;
        stroke-width: 292.6px;
      }
    </style>
  </defs>
  <g>
    <path class="st0" d="M0,0h8192v4096H0V0Z"/>
    <path class="st1" d="M292.6,146.3h7899.4M8192,731.4H292.6M292.6,1316.6h7899.4M8192,1901.7H292.6"/>
    <path d="M0,0h4096v2486.9H0V0Z"/>
    <path class="st1" d="M0,2486.9h8192M8192,3072H0M0,3657.1h8192"/>
  </g>
  <path class="st0" d="M2560,438.9l65.2,446.2,252.3-373.6-135.3,430.3,389.5-227.4-308.4,329.1,449.8-36-420.6,162.7,420.6,162.7-449.8-36,308.4,329.1-389.5-227.4,135.3,430.3-252.3-373.6-65.2,446.2-65.2-446.2-252.3,373.6,135.3-430.3-389.5,227.4,308.4-329.1-449.8,36,420.6-162.7-420.6-162.7,449.8,36-308.4-329.1,389.5,227.4-135.3-430.3,252.3,373.6,65.2-446.2ZM2194.3,457.1c-393.9-174.8-854.8,2.9-1029.6,396.7-174.8,393.9,2.9,854.8,396.7,1029.6,201.5,89.4,431.4,89.4,632.8,0-393.9,282.6-942.2,192.4-1224.8-201.5s-192.4-942.2,201.5-1224.8c305.8-219.4,717.5-219.4,1023.3,0Z"/>
</svg>