<?xml version="1.0" encoding="UTF-8"?>
<svg id="Calque_1" xmlns="http://www.w3.org/2000/svg" version="1.1" xmlns:xlink="http://www.w3.org/1999/xlink" viewBox="0 0 1000 600">
  <!-- Generator: Adobe Illustrator 29.4.0, SVG Export Plug-In . SVG Version: 2.1.0 Build 152)  -->
  <defs>
    <style>
      .st0 {
        stroke-miterlimit: 4;
        stroke-width: .1px;
      }

      .st0, .st1, .st2, .st3, .st4, .st5, .st6, .st7, .st8, .st9, .st10, .st11, .st12, .st13, .st14, .st15, .st16, .st17, .st18, .st19, .st20, .st21, .st22, .st23, .st24, .st25, .st26, .st27, .st28, .st29, .st30, .st31, .st32, .st33, .st34, .st35, .st36, .st37, .st38, .st39, .st40, .st41 {
        stroke: #000;
      }

      .st0, .st1, .st2, .st4, .st5, .st7, .st8, .st9, .st10, .st11, .st12, .st13, .st14, .st15, .st16, .st17, .st18, .st19, .st20, .st22, .st23, .st24, .st26, .st27, .st28, .st29, .st30, .st31, .st32, .st33, .st34, .st35, .st36, .st37, .st38, .st39, .st40, .st41 {
        isolation: isolate;
      }

      .st1 {
        stroke-miterlimit: 4;
        stroke-width: .1px;
      }

      .st2 {
        stroke-width: .1px;
      }

      .st42 {
        fill: url(#Dégradé_sans_nom_103);
      }

      .st43 {
        fill: url(#Dégradé_sans_nom_100);
      }

      .st44 {
        fill: url(#Dégradé_sans_nom_108);
      }

      .st3 {
        fill: url(#Dégradé_sans_nom_17);
      }

      .st3, .st6, .st21, .st25 {
        stroke-miterlimit: 10;
      }

      .st4 {
        stroke-miterlimit: 4;
        stroke-width: .1px;
      }

      .st45 {
        fill: url(#Dégradé_sans_nom_99);
      }

      .st5 {
        stroke-miterlimit: 4;
        stroke-width: .1px;
      }

      .st6 {
        fill: url(#Dégradé_sans_nom_15);
      }

      .st7 {
        stroke-miterlimit: 4;
        stroke-width: .1px;
      }

      .st8 {
        stroke-miterlimit: 4;
        stroke-width: .1px;
      }

      .st46 {
        fill: url(#Dégradé_sans_nom_104);
      }

      .st9 {
        stroke-miterlimit: 4;
        stroke-width: .1px;
      }

      .st47 {
        fill: url(#Dégradé_sans_nom_97);
      }

      .st48 {
        fill: #fff;
      }

      .st10 {
        stroke-miterlimit: 4;
        stroke-width: .1px;
      }

      .st11 {
        stroke-miterlimit: 4;
        stroke-width: .1px;
      }

      .st12 {
        stroke-miterlimit: 4;
        stroke-width: .1px;
      }

      .st49 {
        fill: none;
      }

      .st13 {
        stroke-miterlimit: 4;
        stroke-width: .1px;
      }

      .st14 {
        stroke-miterlimit: 4;
        stroke-width: .1px;
      }

      .st15 {
        stroke-miterlimit: 4;
        stroke-width: .1px;
      }

      .st16 {
        stroke-miterlimit: 4;
        stroke-width: .1px;
      }

      .st17 {
        stroke-miterlimit: 4;
        stroke-width: .1px;
      }

      .st50 {
        fill: url(#Dégradé_sans_nom_93);
      }

      .st18 {
        stroke-miterlimit: 4;
        stroke-width: .1px;
      }

      .st51 {
        fill: url(#Dégradé_sans_nom_94);
      }

      .st19 {
        stroke-miterlimit: 4;
        stroke-width: .1px;
      }

      .st20 {
        stroke-miterlimit: 4;
        stroke-width: .1px;
      }

      .st21 {
        fill: url(#Dégradé_sans_nom_18);
      }

      .st22 {
        stroke-miterlimit: 4;
        stroke-width: .1px;
      }

      .st23 {
        stroke-miterlimit: 4;
        stroke-width: .1px;
      }

      .st24 {
        stroke-miterlimit: 4;
        stroke-width: .1px;
      }

      .st52 {
        fill: url(#Dégradé_sans_nom_101);
      }

      .st25 {
        fill: url(#Dégradé_sans_nom_16);
      }

      .st53 {
        fill: url(#Dégradé_sans_nom_98);
      }

      .st26 {
        stroke-miterlimit: 4;
        stroke-width: .1px;
      }

      .st27 {
        stroke-miterlimit: 4;
        stroke-width: .1px;
      }

      .st54 {
        fill: url(#Dégradé_sans_nom_111);
      }

      .st55 {
        fill: url(#Dégradé_sans_nom_106);
      }

      .st28 {
        stroke-miterlimit: 4;
        stroke-width: .1px;
      }

      .st29 {
        stroke-miterlimit: 4;
        stroke-width: .1px;
      }

      .st56 {
        fill: url(#Dégradé_sans_nom_107);
      }

      .st30 {
        stroke-miterlimit: 4;
        stroke-width: .1px;
      }

      .st31 {
        stroke-miterlimit: 4;
        stroke-width: .1px;
      }

      .st57 {
        fill: url(#Dégradé_sans_nom_112);
      }

      .st32 {
        stroke-miterlimit: 4;
        stroke-width: .1px;
      }

      .st33 {
        stroke-miterlimit: 4;
        stroke-width: .1px;
      }

      .st58 {
        fill: url(#Dégradé_sans_nom_105);
      }

      .st59 {
        fill: url(#Dégradé_sans_nom_109);
      }

      .st34 {
        stroke-miterlimit: 4;
        stroke-width: .1px;
      }

      .st60 {
        fill: url(#Dégradé_sans_nom_110);
      }

      .st35 {
        stroke-miterlimit: 4;
        stroke-width: .1px;
      }

      .st36 {
        stroke-miterlimit: 4;
        stroke-width: .1px;
      }

      .st37 {
        stroke-miterlimit: 4;
        stroke-width: .1px;
      }

      .st38 {
        stroke-miterlimit: 4;
        stroke-width: .1px;
      }

      .st61 {
        fill: url(#Dégradé_sans_nom_102);
      }

      .st62 {
        fill: url(#Dégradé_sans_nom_96);
      }

      .st39 {
        stroke-miterlimit: 4;
        stroke-width: .1px;
      }

      .st63 {
        clip-path: url(#clippath);
      }

      .st64 {
        fill: url(#Dégradé_sans_nom_95);
      }

      .st40 {
        stroke-miterlimit: 4;
        stroke-width: .1px;
      }

      .st65 {
        fill: url(#Dégradé_sans_nom_113);
      }

      .st41 {
        stroke-miterlimit: 4;
        stroke-width: .1px;
      }
    </style>
    <clipPath id="clippath">
      <polygon class="st49" points="500 226.4 436.3 336.7 563.7 336.7 500 226.4"/>
    </clipPath>
    <linearGradient id="Dégradé_sans_nom_113" data-name="Dégradé sans nom 113" x1="444.5" y1="280" x2="634.4" y2="280" gradientTransform="translate(0 602) scale(1 -1)" gradientUnits="userSpaceOnUse">
      <stop offset="0" stop-color="#000"/>
      <stop offset=".5" stop-color="#000"/>
      <stop offset="1" stop-color="#000"/>
    </linearGradient>
    <linearGradient id="Dégradé_sans_nom_112" data-name="Dégradé sans nom 112" x1="444.5" y1="280" x2="634.4" y2="280" gradientTransform="translate(0 600.9) scale(1 -1)" gradientUnits="userSpaceOnUse">
      <stop offset="0" stop-color="#000"/>
      <stop offset=".5" stop-color="#000"/>
      <stop offset="1" stop-color="#000"/>
    </linearGradient>
    <linearGradient id="Dégradé_sans_nom_111" data-name="Dégradé sans nom 111" x1="444.5" y1="280" x2="634.4" y2="280" gradientTransform="translate(0 599.8) scale(1 -1)" gradientUnits="userSpaceOnUse">
      <stop offset="0" stop-color="#000"/>
      <stop offset=".5" stop-color="#000"/>
      <stop offset="1" stop-color="#000"/>
    </linearGradient>
    <linearGradient id="Dégradé_sans_nom_110" data-name="Dégradé sans nom 110" x1="444.5" y1="280" x2="634.4" y2="280" gradientTransform="translate(0 598.7) scale(1 -1)" gradientUnits="userSpaceOnUse">
      <stop offset="0" stop-color="#000"/>
      <stop offset=".5" stop-color="#000"/>
      <stop offset="1" stop-color="#000"/>
    </linearGradient>
    <linearGradient id="Dégradé_sans_nom_109" data-name="Dégradé sans nom 109" x1="444.5" y1="280" x2="634.4" y2="280" gradientTransform="translate(0 597.5) scale(1 -1)" gradientUnits="userSpaceOnUse">
      <stop offset="0" stop-color="#000"/>
      <stop offset=".5" stop-color="#000"/>
      <stop offset="1" stop-color="#000"/>
    </linearGradient>
    <linearGradient id="Dégradé_sans_nom_108" data-name="Dégradé sans nom 108" x1="444.5" y1="280" x2="634.4" y2="280" gradientTransform="translate(0 596.4) scale(1 -1)" gradientUnits="userSpaceOnUse">
      <stop offset="0" stop-color="#000"/>
      <stop offset=".5" stop-color="#000"/>
      <stop offset="1" stop-color="#000"/>
    </linearGradient>
    <linearGradient id="Dégradé_sans_nom_107" data-name="Dégradé sans nom 107" x1="444.5" y1="280" x2="634.4" y2="280" gradientTransform="translate(0 595.3) scale(1 -1)" gradientUnits="userSpaceOnUse">
      <stop offset="0" stop-color="#000"/>
      <stop offset=".5" stop-color="#000"/>
      <stop offset="1" stop-color="#000"/>
    </linearGradient>
    <linearGradient id="Dégradé_sans_nom_106" data-name="Dégradé sans nom 106" x1="444.5" y1="280" x2="634.4" y2="280" gradientTransform="translate(0 594.2) scale(1 -1)" gradientUnits="userSpaceOnUse">
      <stop offset="0" stop-color="#000"/>
      <stop offset=".5" stop-color="#000"/>
      <stop offset="1" stop-color="#000"/>
    </linearGradient>
    <linearGradient id="Dégradé_sans_nom_105" data-name="Dégradé sans nom 105" x1="444.5" y1="280" x2="634.4" y2="280" gradientTransform="translate(0 593.1) scale(1 -1)" gradientUnits="userSpaceOnUse">
      <stop offset="0" stop-color="#000"/>
      <stop offset=".5" stop-color="#000"/>
      <stop offset="1" stop-color="#000"/>
    </linearGradient>
    <linearGradient id="Dégradé_sans_nom_104" data-name="Dégradé sans nom 104" x1="444.5" y1="292.2" x2="634.4" y2="292.2" gradientTransform="translate(0 602) scale(1 -1)" gradientUnits="userSpaceOnUse">
      <stop offset="0" stop-color="#000"/>
      <stop offset=".5" stop-color="#000"/>
      <stop offset="1" stop-color="#000"/>
    </linearGradient>
    <linearGradient id="Dégradé_sans_nom_103" data-name="Dégradé sans nom 103" x1="444.5" y1="289.6" x2="634.4" y2="289.6" gradientTransform="translate(0 602) scale(1 -1)" gradientUnits="userSpaceOnUse">
      <stop offset="0" stop-color="#000"/>
      <stop offset=".5" stop-color="#000"/>
      <stop offset="1" stop-color="#000"/>
    </linearGradient>
    <linearGradient id="Dégradé_sans_nom_15" data-name="Dégradé sans nom 15" x1="528.5" y1="290.3" x2="528.5" y2="284.4" gradientTransform="translate(-15.3 602) scale(1 -1)" gradientUnits="userSpaceOnUse">
      <stop offset="0" stop-color="#f5f549"/>
      <stop offset="1" stop-color="#97c924"/>
    </linearGradient>
    <linearGradient id="Dégradé_sans_nom_16" data-name="Dégradé sans nom 16" x1="500" y1="290.3" x2="500" y2="284.4" gradientTransform="translate(0 602) scale(1 -1)" gradientUnits="userSpaceOnUse">
      <stop offset="0" stop-color="#f5f549"/>
      <stop offset="1" stop-color="#97c924"/>
    </linearGradient>
    <linearGradient id="Dégradé_sans_nom_17" data-name="Dégradé sans nom 17" x1="480.7" y1="290.3" x2="480.7" y2="284.4" gradientTransform="translate(0 602) scale(1 -1)" gradientUnits="userSpaceOnUse">
      <stop offset="0" stop-color="#f5f549"/>
      <stop offset="1" stop-color="#97c924"/>
    </linearGradient>
    <linearGradient id="Dégradé_sans_nom_18" data-name="Dégradé sans nom 18" x1="480.7" y1="290.3" x2="480.7" y2="284.4" gradientTransform="translate(-15.4 602) scale(1 -1)" gradientUnits="userSpaceOnUse">
      <stop offset="0" stop-color="#f5f549"/>
      <stop offset="1" stop-color="#97c924"/>
    </linearGradient>
    <linearGradient id="Dégradé_sans_nom_102" data-name="Dégradé sans nom 102" x1="-98.1" y1="849.4" x2="-97.1" y2="849.4" gradientTransform="translate(11845.4 5294.1) scale(116.2 -5.8)" gradientUnits="userSpaceOnUse">
      <stop offset="0" stop-color="#000"/>
      <stop offset=".5" stop-color="#000"/>
      <stop offset="1" stop-color="#000"/>
    </linearGradient>
    <linearGradient id="Dégradé_sans_nom_101" data-name="Dégradé sans nom 101" x1="-98.2" y1="704.1" x2="-97.2" y2="704.1" gradientTransform="translate(12883.5 1407.3) scale(126.7 -1.5)" gradientUnits="userSpaceOnUse">
      <stop offset="0" stop-color="#000"/>
      <stop offset=".5" stop-color="#000"/>
      <stop offset="1" stop-color="#000"/>
    </linearGradient>
    <linearGradient id="Dégradé_sans_nom_100" data-name="Dégradé sans nom 100" x1="-98.2" y1="704.1" x2="-97.2" y2="704.1" gradientTransform="translate(12883.5 1406.1) scale(126.7 -1.5)" gradientUnits="userSpaceOnUse">
      <stop offset="0" stop-color="#000"/>
      <stop offset=".5" stop-color="#000"/>
      <stop offset="1" stop-color="#000"/>
    </linearGradient>
    <linearGradient id="Dégradé_sans_nom_99" data-name="Dégradé sans nom 99" x1="-98.2" y1="704.1" x2="-97.2" y2="704.1" gradientTransform="translate(12883.5 1404.8) scale(126.7 -1.5)" gradientUnits="userSpaceOnUse">
      <stop offset="0" stop-color="#000"/>
      <stop offset=".5" stop-color="#000"/>
      <stop offset="1" stop-color="#000"/>
    </linearGradient>
    <linearGradient id="Dégradé_sans_nom_98" data-name="Dégradé sans nom 98" x1="-98.2" y1="704.1" x2="-97.2" y2="704.1" gradientTransform="translate(12883.5 1403.5) scale(126.7 -1.5)" gradientUnits="userSpaceOnUse">
      <stop offset="0" stop-color="#000"/>
      <stop offset=".5" stop-color="#000"/>
      <stop offset="1" stop-color="#000"/>
    </linearGradient>
    <linearGradient id="Dégradé_sans_nom_97" data-name="Dégradé sans nom 97" x1="-98.2" y1="704.1" x2="-97.2" y2="704.1" gradientTransform="translate(12883.5 1402.2) scale(126.7 -1.5)" gradientUnits="userSpaceOnUse">
      <stop offset="0" stop-color="#000"/>
      <stop offset=".5" stop-color="#000"/>
      <stop offset="1" stop-color="#000"/>
    </linearGradient>
    <linearGradient id="Dégradé_sans_nom_96" data-name="Dégradé sans nom 96" x1="-98.2" y1="704.1" x2="-97.2" y2="704.1" gradientTransform="translate(12883.5 1400.9) scale(126.7 -1.5)" gradientUnits="userSpaceOnUse">
      <stop offset="0" stop-color="#000"/>
      <stop offset=".5" stop-color="#000"/>
      <stop offset="1" stop-color="#000"/>
    </linearGradient>
    <linearGradient id="Dégradé_sans_nom_95" data-name="Dégradé sans nom 95" x1="-98.2" y1="704.1" x2="-97.2" y2="704.1" gradientTransform="translate(12883.5 1399.6) scale(126.7 -1.5)" gradientUnits="userSpaceOnUse">
      <stop offset="0" stop-color="#000"/>
      <stop offset=".5" stop-color="#000"/>
      <stop offset="1" stop-color="#000"/>
    </linearGradient>
    <linearGradient id="Dégradé_sans_nom_94" data-name="Dégradé sans nom 94" x1="-98.2" y1="704.1" x2="-97.2" y2="704.1" gradientTransform="translate(12883.5 1398.3) scale(126.7 -1.5)" gradientUnits="userSpaceOnUse">
      <stop offset="0" stop-color="#000"/>
      <stop offset=".5" stop-color="#000"/>
      <stop offset="1" stop-color="#000"/>
    </linearGradient>
    <linearGradient id="Dégradé_sans_nom_93" data-name="Dégradé sans nom 93" x1="-98.2" y1="704.1" x2="-97.2" y2="704.1" gradientTransform="translate(12883.5 1397) scale(126.7 -1.5)" gradientUnits="userSpaceOnUse">
      <stop offset="0" stop-color="#000"/>
      <stop offset=".5" stop-color="#000"/>
      <stop offset="1" stop-color="#000"/>
    </linearGradient>
  </defs>
  <rect width="1000" height="600"/>
  <rect class="st48" y="200" width="1000" height="200"/>
  <g id="text">
    <path d="M410,299.3c3.3.2,6.7.4,10,.7,0-.5,0-1,0-1.5-1.3,0-2.6-.2-3.9-.3,0-1.6.2-3.2.3-4.8,1.4-1,2.8-2,4.2-3,0-.6,0-1.2.1-1.8-1.5,1.1-2.9,2.1-4.4,3.2-.1-1-.7-2.1-1.8-2.5-.9-.3-2-.4-2.8.3-1,.7-1.2,2.1-1.3,3.2-.2,2.2-.3,4.4-.5,6.5h0ZM411.5,298c.1-1.6.2-3.3.4-4.9.1-.8.3-1.7,1-2.3.6-.4,1.6-.1,1.8.6.5,1.2.3,2.6.2,3.9,0,.9-.1,1.9-.2,2.8-1.1,0-2.1-.1-3.2-.2h0Z"/>
    <path d="M411.3,284c3.2.8,6.5,1.5,9.7,2.3.7-3.2,1.5-6.3,2.2-9.5-.5-.1-.9-.2-1.4-.3-.6,2.7-1.3,5.4-1.9,8.1-1-.2-2-.5-3-.7.6-2.4,1.1-4.8,1.7-7.3-.5-.1-.9-.2-1.4-.3-.6,2.4-1.1,4.8-1.7,7.3-.9-.2-1.7-.4-2.6-.6.6-2.6,1.2-5.2,1.8-7.8-.5-.1-.9-.2-1.4-.3-.7,3.1-1.4,6.1-2.1,9.2h0Z"/>
    <path d="M414.8,270.9c3.1,1.1,6.3,2.2,9.4,3.3.2-.5.3-.9.5-1.4-1.2-.4-2.5-.9-3.7-1.3.5-1.4,1-2.8,1.5-4.3.3-1.2.6-2.6-.1-3.6-.6-.8-1.6-1.3-2.5-1.3-1.1,0-2,.8-2.5,1.8-.7,1.3-1.1,2.8-1.6,4.2-.3.9-.6,1.7-.9,2.6ZM416.6,270c.5-1.4,1-2.9,1.5-4.3.3-.7.8-1.6,1.6-1.9.7-.2,1.5.4,1.5,1.1.2,1.3-.4,2.6-.8,3.8-.3.7-.5,1.5-.8,2.2-1-.4-2-.7-3-1.1h0Z"/>
    <path d="M420,258.8c1.8,1,3.5,2.1,5.3,3.1,1,.5,2.3.9,3.3.2,1.4-.8,2.3-2.3,3.1-3.7.6-1.2,1-2.7.3-4-.8-1.2-2.2-1.8-3.3-2.5-1.2-.7-2.3-1.3-3.5-2l-.7,1.3c1.7,1,3.4,2,5.1,3,.8.5,1.5,1.4,1.3,2.4-.2,1.2-.8,2.2-1.5,3.2-.6.8-1.5,1.4-2.5,1.2-1-.2-1.9-.9-2.8-1.4-1.1-.7-2.3-1.3-3.4-2-.2.4-.5.8-.7,1.3h0Z"/>
    <path d="M427.2,247.1c2.6,2,5.3,4.1,7.9,6.1,1.2-1.6,2.5-3.2,3.7-4.8.7-1,1.4-2.4.9-3.6-.4-1-1.5-1.8-2.6-1.8-.5,0-1.1.3-1.4.5.3-1.1-.6-2.1-1.6-2.4-1.2-.4-2.4.3-3.2,1.2-.9,1-1.7,2.1-2.5,3.2-.4.6-.9,1.1-1.3,1.7ZM429.2,246.8c.9-1.2,1.8-2.4,2.8-3.6.5-.5,1.2-1.1,1.9-.7.6.3.8,1.1.5,1.7-.5,1-1.3,1.9-2,2.8-.4.5-.7,1-1.1,1.4-.7-.5-1.4-1.1-2.1-1.6ZM432.5,249.2c1-1.2,1.9-2.5,2.9-3.7.5-.5,1.2-1.2,2-1.1.7.2,1.2.9,1,1.6-.4,1.3-1.4,2.3-2.2,3.4-.4.5-.8,1.1-1.2,1.6-.8-.6-1.6-1.3-2.5-1.9Z"/>
    <path d="M436.2,236.5l6.9,7.3,5.9-5.6-1-1-4.7,4.4h-.1c0,.1,0,0,0,0l-5.8-6.1-1.1,1Z"/>
    <path d="M445,228.8l6.1,7.9,1.2-.9-6.1-7.9-1.2.9Z"/>
    <path d="M454,222.7c-1,.6-1.8,1.3-2.4,2.2-.6.8-.9,1.7-1,2.6,0,.9.2,1.8.7,2.7.5.8,1.2,1.4,2,1.8.8.4,1.7.6,2.7.5,1-.1,2.1-.5,3.3-1.3,1.2-.7,2-1.6,2.5-2.5.5-.9.6-1.9.4-2.9l-1.4.5c.4,2-.9,3-2.4,3.9-2.3,1.4-4.5,1.3-5.8-.8-1.4-2.3.1-4.3,2.1-5.5,1.4-.9,2.7-1.4,4-.6l1.1-1c-.7-.5-1.6-.8-2.6-.7-1,0-2.1.4-3.2,1.1h0Z"/>
    <path d="M465.8,216.8l-1,11.2,1.6-.6.3-3.5h0s5.1-2,5.1-2l2.6,2.3,1.6-.6-8.5-7.3-1.6.6h0ZM467.2,217.9l3.3,2.9-3.7,1.5.4-4.4Z"/>
    <path d="M487.7,210.6c.2,3.3.4,6.7.6,10,1.8-.1,3.6-.2,5.4-.4,1.4-.2,2.9-.5,3.9-1.7,1.3-1.4,1.4-3.5.9-5.2-.5-1.5-1.8-2.7-3.4-3-1.5-.3-3.1,0-4.6,0-.9,0-1.9.1-2.8.2h0ZM489.3,211.9c1.4,0,2.9-.2,4.3-.2.8,0,1.6.2,2.3.7,1,.7,1.6,1.9,1.5,3.1,0,1.4-1.1,2.7-2.4,3-.8.2-1.6.3-2.4.3-.9,0-1.9.1-2.8.2-.1-2.4-.3-4.8-.4-7.1h0Z"/>
    <path d="M501.7,210c-.2,3.3-.4,6.7-.6,10,3.2.2,6.5.4,9.7.6,0-.5,0-.9,0-1.4-2.8-.2-5.5-.3-8.3-.5,0-1,.1-2,.2-3,2.5.1,5,.3,7.4.4,0-.5,0-.9,0-1.4-2.5-.1-5-.3-7.4-.4,0-.9.1-1.8.2-2.7,2.7.2,5.3.3,8,.5,0-.5,0-1,0-1.4-3.1-.2-6.3-.4-9.4-.5h0Z"/>
    <path d="M527.8,214.2l-3.6,9.3,1.3.5,2.9-7.4v-.4c.1,0,.3.4.3.4l3.4,9.9,1.7.7,3.6-9.3-1.3-.5-2.9,7.4v.4c-.1,0-.3-.4-.3-.4l-3.5-9.9-1.7-.7Z"/>
    <path d="M541.2,219.9l-4.5,8.9-1.3-.7,4.5-8.9,1.3.7Z"/>
    <path d="M548.8,224.4c-1-.6-2-1.1-3-1.3-1-.2-1.9-.1-2.8.2-.8.3-1.5.9-2.1,1.8-.5.8-.8,1.6-.9,2.6,0,.9.2,1.8.7,2.6.5.8,1.3,1.6,2.5,2.4,1.1.8,2.3,1.2,3.3,1.2,1,0,2-.2,2.9-.9l-1.1-1c-1.7,1.2-3.1.4-4.5-.5-2.2-1.5-3-3.5-1.7-5.6,1.5-2.2,3.9-1.7,5.9-.4,1.3.9,2.4,1.9,2.2,3.4l1.3.6c.2-.9,0-1.8-.4-2.6-.5-.9-1.3-1.7-2.4-2.4h0Z"/>
    <path d="M558.3,231.5l-10.5,4.2,1.3,1.1,3.2-1.3h0s4.1,3.6,4.1,3.6l-.8,3.4,1.3,1.1,2.7-10.9-1.3-1.1h0ZM557.9,233.3l-1,4.3-3-2.6,4.1-1.6h0Z"/>
    <path d="M565.8,238.5c-2.6,2.1-5.1,4.2-7.7,6.4.3.4.6.8.9,1.1,1-.8,2-1.7,3-2.5,1,1.2,2,2.5,3.1,3.7-.3,1.7-.6,3.4-1,5.1.4.5.8,1,1.2,1.4.3-1.8.7-3.6,1-5.3.9.7,2.1,1.1,3.2.5.9-.4,1.7-1.2,1.7-2.3.1-1.4-.9-2.5-1.7-3.5-1.3-1.5-2.5-3-3.8-4.6h0ZM565.7,240.5c1.1,1.3,2.2,2.6,3.2,4,.5.7,1.1,1.7.5,2.5-.4.7-1.4.6-2,.2-1.2-.8-2-2.1-3-3.2-.4-.5-.8-1-1.2-1.5.8-.7,1.7-1.4,2.5-2Z"/>
    <path d="M577.5,254.4l-11.2.5.8,1.5,3.5-.2h0s2.7,4.7,2.7,4.7l-1.9,2.9.8,1.5,6.1-9.5-.8-1.5h0ZM576.6,255.9l-2.4,3.7-2-3.5,4.4-.2Z"/>
    <path d="M583.9,267.6c-.6-1.7-1.6-3.4-3.3-4.3-1.9-.9-4.3-.5-5.6,1.2-1.1,1.4-1.2,3.3-.9,5,.4,1.9,1.2,3.7,2.6,5.2-.2,0-.5.2-.7.3l.5,1.3c1.6-.6,3.1-1.1,4.7-1.7l-1.8-5.1c-.4.1-.7.3-1.1.4.4,1.2.9,2.5,1.3,3.7-.5.2-1.1.4-1.6.6-1.4-1.2-2.2-3-2.6-4.7-.3-1.3-.3-2.9.7-4,1.2-1.2,3.2-1.6,4.6-.5,1.4,1,2.1,2.6,2.5,4.2.3,1.1.2,2.3-.6,3.1-.2.2.1.4.2.6.1.2.3.4.4.6.8-.7,1.4-1.7,1.3-2.8,0-1.1-.2-2.1-.6-3.1Z"/>
    <path d="M586.8,275.4l-5.6,1.1c-1,.2-1.8.5-2.3,1-.5.4-.8,1.1-1,1.9-.2.8-.1,1.8,0,3,0,0,0,0,0,0,.2,1.2.6,2.1,1,2.8.5.7,1,1.1,1.6,1.4.6.2,1.5.2,2.5,0l5.6-1.1-.3-1.4-5.5,1.1c-2.4.5-3.3-.8-3.7-3,0,0,0,0,0,0-.4-2.2-.2-3.7,2.3-4.2l5.5-1.1-.3-1.4h0Z"/>
    <path d="M589.9,292.5l-10.3-4.4v1.7c.1,0,3.3,1.4,3.3,1.4h0s.4,5.4.4,5.4l-3,1.8v1.7c.1,0,9.7-5.9,9.7-5.9v-1.7q-.1,0-.1,0ZM588.4,293.4l-3.8,2.3-.3-4,4,1.7Z"/>
    <rect x="417.1" y="318.4" width="1.5" height="6.3" transform="translate(-68.1 117) rotate(-14.7)"/>
    <rect x="579.1" y="320.8" width="6.3" height="1.5" transform="translate(123 802.7) rotate(-75.3)"/>
    <path d="M433.2,344l-11.2,1.3.9,1.4,3.5-.4h0s3,4.5,3,4.5l-1.7,3.1.9,1.4,5.4-9.9-.9-1.4h0ZM432.4,345.6l-2.1,3.8-2.2-3.3,4.4-.5h0Z"/>
    <path d="M437.5,350.1l-7.1,6.7,1,1,6-5.6-3.2,8.7,1.1,1.2,8.6-2.6-5.9,5.5,1,1,7.1-6.7-1.4-1.5-8.8,2.6,3.3-8.5-1.6-1.8Z"/>
    <path d="M447.9,360.7c-2,2.7-4,5.3-6,8,2.6,2,5.2,3.9,7.8,5.9.3-.4.6-.8.9-1.1-2.2-1.7-4.4-3.3-6.6-5,.6-.8,1.2-1.6,1.8-2.4,2,1.5,4,3,6,4.5l.9-1.1c-2-1.5-4-3-6-4.5.5-.7,1.1-1.4,1.6-2.2,2.1,1.6,4.2,3.2,6.4,4.8.3-.4.6-.8.9-1.1-2.5-1.9-5-3.8-7.5-5.7h0Z"/>
    <path d="M457.7,367.9c-1.6,2.9-3.1,5.9-4.7,8.8.4.2.9.5,1.3.7.6-1.2,1.2-2.3,1.9-3.5,1.4.7,2.8,1.5,4.3,2.3.3,1.7.7,3.4,1,5l1.6.9c-.4-1.8-.7-3.5-1.1-5.3,1.1.3,2.4.2,3.1-.7.6-.7,1.1-1.7.8-2.6-.4-1.3-1.6-2-2.7-2.6-1.8-1-3.6-1.9-5.4-2.9h0ZM458.3,369.8c1.5.8,3,1.6,4.5,2.5.7.5,1.6,1.1,1.5,2,0,.8-1,1.3-1.7,1.1-1.5-.2-2.7-1.1-4-1.8-.6-.3-1.2-.6-1.8-1,.5-.9,1-1.9,1.5-2.8h0Z"/>
    <path d="M469,373.8l-3.8,9.3,1.4.6,3.8-9.3-1.4-.6Z"/>
    <path d="M478,376.9c-1.1-.4-2.2-.5-3.2-.5-1,0-1.9.4-2.6.9-.7.5-1.3,1.3-1.6,2.3-.3.9-.3,1.8-.2,2.7.2.9.6,1.7,1.3,2.4.7.7,1.7,1.2,3.1,1.7,1.3.4,2.5.5,3.5.3,1-.2,1.9-.7,2.5-1.6l-1.3-.7c-1.3,1.6-2.9,1.2-4.5.7-2.5-.9-3.8-2.6-3.1-5,.9-2.6,3.4-2.6,5.5-1.9,1.5.5,2.8,1.2,3,2.7l1.4.2c0-.9-.4-1.7-1.1-2.4-.7-.7-1.7-1.3-2.9-1.7h0Z"/>
    <path d="M488,379.1l-6.5,9.2,1.7.2,2-2.8h0s5.4.8,5.4.8l1.1,3.3,1.7.2-3.7-10.6-1.7-.2h0ZM488.6,380.8l1.4,4.2-4-.6,2.5-3.6Z"/>
    <path d="M511.5,379.2c-1.1.2-2.1.6-3,1.2-.9.6-1.5,1.3-1.9,2.1-.4.8-.5,1.7-.3,2.7.2.9.6,1.7,1.2,2.4.6.7,1.4,1.2,2.3,1.4.9.2,2.1.2,3.5,0,1.3-.3,2.4-.7,3.2-1.5.8-.7,1.3-1.6,1.4-2.6h-1.5c-.4,2-1.9,2.4-3.6,2.8-2.6.5-4.6-.4-5.1-2.8-.5-2.7,1.6-3.9,3.9-4.4,1.6-.3,3-.4,3.9.9l1.4-.5c-.5-.7-1.2-1.3-2.1-1.6-1-.3-2.1-.3-3.4,0h0Z"/>
    <path d="M518.1,378l2.8,9.6c3.1-.9,6.2-1.8,9.3-2.8-.1-.5-.3-.9-.4-1.4-2.6.8-5.3,1.6-7.9,2.4-.3-1-.6-1.9-.9-2.9,2.4-.7,4.8-1.4,7.2-2.1-.1-.5-.3-.9-.4-1.4-2.4.7-4.8,1.4-7.2,2.1-.3-.9-.5-1.7-.8-2.6,2.5-.8,5.1-1.5,7.6-2.3-.1-.5-.3-.9-.4-1.4-3,.9-6,1.8-9,2.7h0Z"/>
    <path d="M529,374.6c1.4,3,2.8,6.1,4.2,9.1.4-.2.8-.4,1.3-.6-1.2-2.5-2.3-5-3.5-7.6,3.2,1.5,6.5,3,9.7,4.5.2.2.4,0,.6,0,.4-.2.8-.4,1.3-.6-1.4-3-2.8-6.1-4.2-9.1-.4.2-.8.4-1.3.6l3.5,7.6c-3.3-1.5-6.6-3.1-9.9-4.6-.5.3-1.1.5-1.6.8Z"/>
    <path d="M539.9,369.5l.8,1.2,3.6-2.4h.1c0,0,0,0,0,0l4.6,7.1,1.2-.8-4.6-7.1h0c0-.1.1-.2.1-.2l3.6-2.4-.8-1.2-8.6,5.7Z"/>
    <path d="M550,362.6c2.3,2.5,4.5,4.9,6.8,7.4.4-.3.7-.7,1.1-1-.9-1-1.8-1.9-2.7-2.9,1.2-1.1,2.4-2.2,3.5-3.3,1.7.2,3.4.5,5.1.7.5-.4.9-.8,1.4-1.3-1.8-.2-3.6-.5-5.4-.7.7-.9.9-2.2.3-3.2-.5-.9-1.3-1.6-2.3-1.6-1.4,0-2.4,1-3.4,1.9-1.5,1.3-2.9,2.7-4.4,4h0ZM552,362.6c1.3-1.2,2.5-2.4,3.8-3.5.7-.5,1.6-1.2,2.5-.7.7.4.7,1.4.3,2-.8,1.3-2,2.1-3,3.2-.5.4-.9.9-1.4,1.3-.7-.8-1.5-1.6-2.2-2.4h0Z"/>
    <path d="M561.6,350.9l4.5,10.3,1.1-1.3-1.4-3.2h0s3.5-4.2,3.5-4.2l3.4.7,1.1-1.3-11-2.3-1.1,1.3h0ZM563.4,351.3l4.3.9-2.5,3.1-1.8-4Z"/>
    <path d="M566,345.3l8.4,5.4,4.4-6.8-1.2-.8-3.5,5.4h0c0,.1-.1,0-.1,0l-7.1-4.6-.8,1.2Z"/>
  </g>
  <g class="st63">
    <g>
      <g id="rays">
        <path class="st48" d="M500,226.4l-31.5,54.5-15.4,26.7h93.8l-14.7-25.5-32.2-55.8h0Z"/>
        <g id="rays5">
          <g id="ray">
            <path class="st2" d="M500,226.4l-2.4,4.1,2.4,55,2.4-55-2.4-4.1Z"/>
            <path class="st48" d="M500,277.5s0,0-.1,0v3.1c.1,0,.3-3.1.3-3.1,0,0,0,0-.1,0Z"/>
          </g>
          <g id="ray1" data-name="ray">
            <path class="st28" d="M556.2,267.2l-4.6-1-51.6,19.2,53-14.7,3.2-3.5Z"/>
            <path class="st48" d="M507.6,283s0,0,0-.1l-2.9,1.1,3-.8s0,0,0-.1Z"/>
          </g>
          <g id="ray2" data-name="ray">
            <path class="st35" d="M534.7,333.2l-.5-4.7-34.2-43.1,30.4,45.9,4.3,1.9Z"/>
            <path class="st48" d="M504.7,291.9s0,0,.1,0l-1.9-2.4,1.7,2.6s0,0,.1,0Z"/>
          </g>
          <g id="ray3" data-name="ray">
            <path class="st35" d="M465.3,333.2l4.3-1.9,30.4-45.9-34.2,43.1-.5,4.7Z"/>
            <path class="st48" d="M495.3,291.9s0,0,.1,0l1.7-2.6-1.9,2.4s0,0,.1,0Z"/>
          </g>
          <g id="ray4" data-name="ray">
            <path class="st28" d="M443.8,267.2l3.2,3.5,53,14.7-51.6-19.2-4.6,1Z"/>
            <path class="st48" d="M492.4,283s0,0,0,.1l3,.8-2.9-1.1s0,0,0,.1Z"/>
          </g>
        </g>
        <g id="rays51" data-name="rays5">
          <g id="ray5" data-name="ray">
            <path class="st38" d="M508.2,227l-2.9,3.7-5.3,54.8,10-54.1-1.8-4.4Z"/>
            <path class="st48" d="M501.1,277.6s0,0-.1,0l-.3,3.1.6-3.1s0,0-.1,0Z"/>
          </g>
          <g id="ray6" data-name="ray">
            <path class="st8" d="M558.2,275.2l-4.4-1.6-53.7,11.9,54.6-7.2,3.6-3Z"/>
            <path class="st48" d="M507.9,284.1s0,0,0-.1l-3,.7,3.1-.4s0,0,0-.1Z"/>
          </g>
          <g id="ray7" data-name="ray">
            <path class="st7" d="M527.7,337.6l.2-4.7-27.9-47.4,23.7,49.6,4,2.5Z"/>
            <path class="st48" d="M503.8,292.5s0,0,.1,0l-1.6-2.7,1.3,2.8s0,0,.1,0Z"/>
          </g>
          <g id="ray8" data-name="ray">
            <path class="st5" d="M459,327.9l4.5-1.3,36.5-41.2-39.9,37.9-1.1,4.6Z"/>
            <path class="st48" d="M494.4,291.2s0,0,0,0l2.1-2.3-2.3,2.1s0,0,0,0Z"/>
          </g>
          <g id="ray9" data-name="ray">
            <path class="st23" d="M446.9,259.6l2.6,3.9,50.4,22-48.4-26.2-4.7.3Z"/>
            <path class="st48" d="M492.8,282s0,0,0,.1l2.9,1.2-2.7-1.5s0,0,0,.1Z"/>
          </g>
        </g>
        <g id="rays52" data-name="rays5">
          <g id="ray10" data-name="ray">
            <path class="st41" d="M516.3,228.7l-3.4,3.3-12.9,53.5,17.4-52.2-1.1-4.6Z"/>
            <path class="st48" d="M502.2,277.8s0,0-.1,0l-.7,3,1-3s0,0-.1,0Z"/>
          </g>
          <g id="ray11" data-name="ray">
            <path class="st13" d="M559,283.4l-4.2-2.2-54.9,4.3,55,.4,4-2.5Z"/>
            <path class="st48" d="M508,285.2s0,0,0-.1l-3.1.2h3.1s0,0,0-.1Z"/>
          </g>
          <g id="ray12" data-name="ray">
            <path class="st19" d="M520.2,341l.8-4.6-21-50.9,16.6,52.5,3.6,3Z"/>
            <path class="st48" d="M502.7,293s0,0,.1,0l-1.2-2.9.9,3s0,0,.1,0Z"/>
          </g>
          <g id="ray13" data-name="ray">
            <path class="st40" d="M453.5,321.8l4.7-.7,41.9-35.7-44.8,32-1.8,4.4Z"/>
            <path class="st48" d="M493.7,290.4s0,0,0,.1l2.4-2-2.5,1.8s0,0,0,.1Z"/>
          </g>
          <g id="ray14" data-name="ray">
            <path class="st20" d="M451,252.4l2.1,4.2,46.9,28.8-44.3-32.7-4.7-.3Z"/>
            <path class="st48" d="M493.4,281s0,0,0,.1l2.7,1.6-2.5-1.9s0,0,0,.1Z"/>
          </g>
        </g>
        <g id="rays53" data-name="rays5">
          <g id="ray15" data-name="ray">
            <path class="st17" d="M524,231.5l-3.8,2.8-20.2,51.2,24.5-49.3-.5-4.7Z"/>
            <path class="st48" d="M503.3,278.2s0,0-.1,0l-1.1,2.9,1.4-2.8s0,0-.1,0Z"/>
          </g>
          <g id="ray16" data-name="ray">
            <path class="st33" d="M558.7,291.6l-3.8-2.8-54.9-3.4,54.4,8.1,4.3-1.9Z"/>
            <path class="st48" d="M507.9,286.3s0,0,0-.1l-3.1-.2,3.1.5s0,0,0-.1Z"/>
          </g>
          <g id="ray17" data-name="ray">
            <path class="st32" d="M512.3,343.2l1.5-4.5-13.7-53.3,9.1,54.3,3.2,3.5Z"/>
            <path class="st48" d="M501.7,293.3s0,0,.1,0l-.8-3,.5,3.1s0,0,.1,0Z"/>
          </g>
          <g id="ray18" data-name="ray">
            <path class="st16" d="M448.9,315h4.7s46.4-29.5,46.4-29.5l-48.8,25.4-2.4,4.1Z"/>
            <path class="st48" d="M493.1,289.5s0,0,0,.1l2.6-1.7-2.8,1.4s0,0,0,.1Z"/>
          </g>
          <g id="ray19" data-name="ray">
            <path class="st29" d="M456.1,245.9l1.5,4.5,42.4,35-39.3-38.5-4.6-1Z"/>
            <path class="st48" d="M494.1,280.1s0,0,0,.1l2.4,2-2.2-2.2s0,0,0,0Z"/>
          </g>
        </g>
        <g id="rays54" data-name="rays5">
          <g id="ray20" data-name="ray">
            <path class="st14" d="M531.3,235.4l-4.2,2.2-27.1,47.9,31.1-45.4.2-4.7Z"/>
            <path class="st48" d="M504.2,278.7s0,0-.1,0l-1.5,2.7,1.8-2.6s0,0-.1,0Z"/>
          </g>
          <g id="ray21" data-name="ray">
            <path class="st18" d="M557.3,299.8l-3.4-3.3-53.9-11,52.8,15.6,4.5-1.3Z"/>
            <path class="st48" d="M507.8,287.4s0,0,0-.1l-3.1-.6,3,.9s0,0,0-.1Z"/>
          </g>
          <g id="ray22" data-name="ray">
            <path class="st4" d="M504.1,344.4l2.1-4.2-6.2-54.7,1.5,55,2.6,3.9Z"/>
            <path class="st48" d="M500.6,293.4s0,0,.1,0l-.4-3.1v3.1c.1,0,.2,0,.2,0Z"/>
          </g>
          <g id="ray23" data-name="ray">
            <path class="st34" d="M445.2,307.6l4.7.7,50.1-22.8-51.9,18.4-2.9,3.7Z"/>
            <path class="st48" d="M492.6,288.5s0,0,0,.1l2.8-1.3-2.9,1s0,0,0,.1Z"/>
          </g>
          <g id="ray24" data-name="ray">
            <path class="st9" d="M462,240.2l.8,4.6,37.1,40.6-33.5-43.6-4.4-1.6Z"/>
            <path class="st48" d="M494.9,279.3s0,0-.1,0l2.1,2.3-1.9-2.5s0,0-.1,0Z"/>
          </g>
        </g>
        <g id="rays55" data-name="rays5">
          <g id="ray25" data-name="ray">
            <path class="st9" d="M538,240.2l-4.4,1.6-33.5,43.6,37.1-40.6.8-4.6Z"/>
            <path class="st48" d="M505.1,279.3s0,0-.1,0l-1.9,2.5,2.1-2.3s0,0-.1,0Z"/>
          </g>
          <g id="ray26" data-name="ray">
            <path class="st1" d="M554.8,307.6l-2.9-3.7-51.9-18.4,50.1,22.8,4.7-.7Z"/>
            <path class="st48" d="M507.4,288.5s0,0,0-.1l-2.9-1,2.8,1.3s0,0,0-.1Z"/>
          </g>
          <g id="ray27" data-name="ray">
            <path class="st0" d="M495.9,344.4l2.6-3.9,1.5-55-6.2,54.7,2.1,4.2Z"/>
            <path class="st48" d="M499.4,293.4s0,0,.1,0v-3.1c0,0-.3,3.1-.3,3.1,0,0,0,0,.1,0Z"/>
          </g>
          <g id="ray28" data-name="ray">
            <path class="st15" d="M442.7,299.8l4.5,1.3,52.8-15.6-53.9,11-3.4,3.3Z"/>
            <path class="st48" d="M492.2,287.4s0,0,0,.1l3-.9-3.1.6s0,0,0,.1Z"/>
          </g>
          <g id="ray29" data-name="ray">
            <path class="st26" d="M468.7,235.4l.2,4.7,31.1,45.4-27.1-47.9-4.2-2.2Z"/>
            <path class="st48" d="M495.8,278.7s0,0-.1,0l1.8,2.6-1.5-2.7s0,0-.1,0Z"/>
          </g>
        </g>
        <g id="rays56" data-name="rays5">
          <g id="ray30" data-name="ray">
            <path class="st29" d="M543.9,245.9l-4.6,1-39.3,38.5,42.4-35,1.5-4.5Z"/>
            <path class="st48" d="M505.9,280.1s0,0,0,0l-2.2,2.2,2.4-2s0,0,0-.1Z"/>
          </g>
          <g id="ray31" data-name="ray">
            <path class="st22" d="M551.1,315l-2.4-4.1-48.8-25.4,46.4,29.5h4.7Z"/>
            <path class="st48" d="M506.9,289.5s0,0,0-.1l-2.8-1.4,2.6,1.7s0,0,0-.1Z"/>
          </g>
          <g id="ray32" data-name="ray">
            <path class="st36" d="M487.7,343.2l3.2-3.5,9.1-54.3-13.7,53.3,1.5,4.5Z"/>
            <path class="st48" d="M498.3,293.3s0,0,.1,0l.5-3.1-.8,3s0,0,.1,0Z"/>
          </g>
          <g id="ray33" data-name="ray">
            <path class="st11" d="M441.3,291.6l4.3,1.9,54.4-8.1-54.9,3.4-3.8,2.8Z"/>
            <path class="st48" d="M492.1,286.3s0,0,0,.1l3.1-.5-3.1.2s0,0,0,.1Z"/>
          </g>
          <g id="ray34" data-name="ray">
            <path class="st27" d="M476,231.5l-.5,4.7,24.5,49.3-20.2-51.2-3.8-2.8Z"/>
            <path class="st48" d="M496.8,278.2s0,0-.1,0l1.4,2.8-1.1-2.9s0,0-.1,0Z"/>
          </g>
        </g>
        <g id="rays57" data-name="rays5">
          <g id="ray35" data-name="ray">
            <path class="st30" d="M549,252.4l-4.7.3-44.3,32.7,46.9-28.8,2.1-4.2Z"/>
            <path class="st48" d="M506.6,281s0,0,0-.1l-2.5,1.9,2.7-1.6s0,0,0-.1Z"/>
          </g>
          <g id="ray36" data-name="ray">
            <path class="st31" d="M546.5,321.8l-1.8-4.4-44.8-32,41.9,35.7,4.7.7Z"/>
            <path class="st48" d="M506.3,290.4s0,0,0-.1l-2.5-1.8,2.4,2s0,0,0-.1Z"/>
          </g>
          <g id="ray37" data-name="ray">
            <path class="st19" d="M479.8,341l3.6-3,16.6-52.5-21,50.9.8,4.6Z"/>
            <path class="st48" d="M497.3,293s0,0,.1,0l.9-3-1.2,2.9s0,0,.1,0Z"/>
          </g>
          <g id="ray38" data-name="ray">
            <path class="st12" d="M441,283.4l4,2.5,55-.4-54.9-4.3-4.2,2.2Z"/>
            <path class="st48" d="M492,285.2s0,0,0,.1h3.1s-3.1-.3-3.1-.3c0,0,0,0,0,.1Z"/>
          </g>
          <g id="ray39" data-name="ray">
            <path class="st41" d="M483.7,228.7l-1.1,4.6,17.4,52.2-12.9-53.5-3.4-3.3Z"/>
            <path class="st48" d="M497.8,277.8s0,0-.1,0l1,3-.7-3s0,0-.1,0Z"/>
          </g>
        </g>
        <g id="rays58" data-name="rays5">
          <g id="ray40" data-name="ray">
            <path class="st23" d="M553.1,259.6l-4.7-.3-48.4,26.2,50.4-22,2.6-3.9Z"/>
            <path class="st48" d="M507.2,282s0,0,0-.1l-2.7,1.5,2.9-1.2s0,0,0-.1Z"/>
          </g>
          <g id="ray41" data-name="ray">
            <path class="st24" d="M541,327.9l-1.1-4.6-39.9-37.9,36.5,41.2,4.5,1.3Z"/>
            <path class="st48" d="M505.6,291.2s0,0,0,0l-2.3-2.1,2.1,2.3s0,0,0,0Z"/>
          </g>
          <g id="ray42" data-name="ray">
            <path class="st37" d="M472.3,337.6l4-2.5,23.7-49.6-27.9,47.4.2,4.7Z"/>
            <path class="st48" d="M496.2,292.5s0,0,.1,0l1.3-2.8-1.6,2.7s0,0,.1,0Z"/>
          </g>
          <g id="ray43" data-name="ray">
            <path class="st10" d="M441.8,275.2l3.6,3,54.6,7.2-53.7-11.9-4.4,1.6Z"/>
            <path class="st48" d="M492.1,284.1s0,0,0,.1l3.1.4-3-.7s0,0,0,.1Z"/>
          </g>
          <g id="ray44" data-name="ray">
            <path class="st39" d="M491.8,227l-1.8,4.4,10,54.1-5.3-54.8-2.9-3.7Z"/>
            <path class="st48" d="M498.9,277.6s0,0-.1,0l.6,3.1-.3-3.1s0,0-.1,0Z"/>
          </g>
        </g>
      </g>
      <g id="rainbow">
        <path class="st48" d="M500,265.8c-11.1,0-21.2,4.1-29,10.8l-14.7,25.4c-.5,2.7-.8,5.4-.8,8.2h5c0-21.7,17.6-39.3,39.3-39.3s39.3,17.6,39.3,39.3h5c0-2.8-.2-5.6-.8-8.2l-14.7-25.4c-7.8-6.7-17.9-10.8-29-10.8h0Z"/>
        <path d="M500,266.7c-11.8,0-22.4,4.7-30.3,12.2l-12,20.8c-.8,3.4-1.3,6.9-1.3,10.5h4.2c0-21.7,17.6-39.3,39.3-39.3s39.3,17.6,39.3,39.3h4.2c0-3.6-.4-7.2-1.3-10.5l-12-20.8c-7.8-7.6-18.5-12.2-30.3-12.2h0Z"/>
        <path class="st48" d="M500,267.5c-12.7,0-24.1,5.5-31.9,14.3l-8.7,15.1c-1.4,4.2-2.1,8.7-2.1,13.4h3.4c0-21.7,17.6-39.3,39.3-39.3s39.3,17.6,39.3,39.3h3.4c0-4.7-.7-9.2-2.1-13.4l-8.7-15.1c-7.8-8.8-19.2-14.3-31.9-14.3h0Z"/>
        <path d="M500,268.2c-14.5,0-27.4,7.4-34.9,18.7l-2.8,4.9c-2.7,5.6-4.3,11.8-4.3,18.5h2.7c0-21.7,17.6-39.3,39.3-39.3s39.3,17.6,39.3,39.3h2.7c0-6.6-1.6-12.9-4.3-18.4l-2.8-4.9c-7.5-11.2-20.3-18.6-34.9-18.6h0Z"/>
        <path class="st48" d="M500,269.1c-22.7,0-41.2,18.4-41.2,41.2h1.8c0-21.7,17.6-39.3,39.3-39.3s39.3,17.6,39.3,39.3h1.8c0-22.7-18.4-41.2-41.2-41.2h0Z"/>
        <path d="M500,269.8c-22.3,0-40.4,18.1-40.4,40.4h1.3c0-21.6,17.5-39,39-39s39,17.5,39,39h1.4c0-22.3-18.1-40.4-40.4-40.4h0Z"/>
        <path class="st48" d="M500,270.7c-21.9,0-39.6,17.7-39.6,39.6s0,.5,0,.7h.8c0-.2,0-.5,0-.7,0-21.4,17.4-38.8,38.8-38.8s38.8,17.4,38.8,38.8,0,.5,0,.7h.8c0-.2,0-.5,0-.7,0-21.9-17.7-39.6-39.6-39.6h0Z"/>
      </g>
      <g id="cap">
        <path d="M500.4,288.1c-.6-.1-1.2-.5-1.8-.6-.8.7-.8,1.5-.7,2.1.3.1.3.4.9.9s.5.8.5,2c0,.5,0,1.6.6,1.7.5.1.9-.3,1.1-1.2.2-.8.4-1.2.7-1.7.3-1.9-.2-2.5-1.2-3.1Z"/>
        <path class="st48" d="M497.2,283.5c-.6,0-1.5,1-1.9.5-.2-.3-.3-.9,0-1.4.6-1.2,1.1-1.7,2.2-2.3,2.4-1.4,3.9-1,5.1,1.1,1.1,1.8,2.2,3.7,2.2,5.4,0,.5.3,1.4-.2,1.9-1.3,1.4-4.6-1.4-6.5-1-.6.2-1.4.6-2,.2-.5-.3,0-1,.3-1.3.6-.5,1.5-2.4,1.4-3.2,0-.4,0,.2-.5.2h0Z"/>
        <path d="M496.9,282.5c-1.1.4-1,1.1-1.5,1.6.2,0,.8.3,1.4-.3.3-.2.5-.3.7-.4-.3.2-.5.6-.7.7-.4.3-1,1.1-1.3,1.8s-.4,1.7-.4,1.8c0,.1.4.8,1.6,1.2,2,.8,2.4,2.4,4.5,2.4s1.4-1.1,2.6-.8c1.1.2,1.7-.7.6-1.2-1.4-.5-4.1-.2-5.4,0-.4-4.1,0-2.6-.2-4.4,0-1.8-.6-1.9,0-3.3-.6.9-1.3.7-2,.8h0Z"/>
        <path d="M500.9,279.8c0,.2,0,.5,0,.6,0,.3.2.7.3,1,.1.3.2.6.2.9,0,.4.4.5.7.7.4.3,0,1,.3,1.1.2,0,.5-1.1.5-1.2,0-.2,0-.4,0-.6-.1-.3-.3-.6-.4-.9,0,0,0,0,0,0,0-.1-.1-.2-.2-.3-.2-.3-.5-.6-.8-.9,0,0,0,0,0,0,0,0-.2-.1-.3-.2,0,0-.1,0-.2-.1h0Z"/>
        <path class="st48" d="M501.2,287.4c-.7-.2-1.4-.5-2-.7-1.2-.4-2.5-1.1-3.4-.8-.3.1-.3.5-.4.9,0,.5-.6,1.3-.1,1.1.7-.4,2.5.7,3.1,1.1.3.2.9.5,1.1,1,.2.5,0,1.8,0,2.3,0,.6.1,1.8.7,2,.6.2,1.1-.3,1.3-1.2.2-.9.4-1.4.8-1.9s.8-.8,1.3-.9c.6-.1,1.4.5,1.4-.2s-.4-.9-.2-1.5c.1-.5-.4-.4-.8-.6-1-.3-2-.4-2.7-.6h0Z"/>
        <path d="M498.4,288.9c-.3-.2-2.3-1.5-3-1.1-.2.1-.3,0-.3-.3,0-.2.1-.6.2-.9,0-.3.2-.8.5-1.1.7-.6,2.3.6,3.1.9,0,.4-.5,2.4-.4,2.4h0Z"/>
        <path d="M501.8,291.4c.9-1.6,1.5-1.4,2.6-1.4.4,0,.5-.3.4-.7-.3.6-1.7,0-2.4.3-1.6.7-1.3,3.8-2,4.1.8.7,1.1-1.7,1.4-2.3h0Z"/>
      </g>
      <g id="seab">
        <path class="st48" d="M453.1,307.6l-10,17.2h113.7l-10-17.2h-93.8,0Z"/>
        <g id="wavesb3">
          <path id="waveb1" class="st65" d="M449.7,321.4c-1.7,0-3.2.2-4.7.4l-.5.8c2.4-.2,4.7-.6,7.1-.7,3.3,0,6.3.8,9.8.8,1.5,0,3,0,4.5,0,3.5,0,6.5-.7,9.8-.8,3.3,0,6.3.8,9.8.8,1.5,0,3.2,0,4.5,0,3.5,0,6.5-.7,9.8-.8,3.3,0,6.3.8,9.8.8,1.5,0,3,0,4.5,0,3.5,0,6.5-.7,9.8-.8,3.3,0,6.3.8,9.8.8,1.5,0,3,0,4.5,0,3.5,0,6.5-.7,9.8-.8,2.6,0,4.9.5,7.5.7l-.5-.9c-1.4-.2-2.8-.3-4.4-.3-1.5,0-3,0-4.5,0-3.5,0-6.5.7-9.8.8-3.3,0-6.3-.8-9.8-.8-1.5,0-3,0-4.5,0-3.5,0-6.5.7-9.8.8-3.3,0-6.3-.8-9.8-.8-1.5,0-3,0-4.5,0-3.5,0-6.5.7-9.8.8-3.3,0-6.3-.8-9.8-.8-1.5,0-3,0-4.5,0-3.5,0-6.5.7-9.8.8-3.3,0-6.3-.8-9.8-.8-1.5,0-3,0-4.5,0h0Z"/>
          <path id="waveb11" data-name="waveb1" class="st57" d="M449.7,320.3c-1.7,0-3.2.2-4.7.4l-.5.8c2.4-.2,4.7-.6,7.1-.7,3.3,0,6.3.8,9.8.8,1.5,0,3,0,4.5,0,3.5,0,6.5-.7,9.8-.8,3.3,0,6.3.8,9.8.8,1.5,0,3.2,0,4.5,0,3.5,0,6.5-.7,9.8-.8,3.3,0,6.3.8,9.8.8,1.5,0,3,0,4.5,0,3.5,0,6.5-.7,9.8-.8,3.3,0,6.3.8,9.8.8,1.5,0,3,0,4.5,0,3.5,0,6.5-.7,9.8-.8,2.6,0,4.9.5,7.5.7l-.5-.9c-1.4-.2-2.8-.3-4.4-.3-1.5,0-3,0-4.5,0-3.5,0-6.5.7-9.8.8-3.3,0-6.3-.8-9.8-.8-1.5,0-3,0-4.5,0-3.5,0-6.5.7-9.8.8-3.3,0-6.3-.8-9.8-.8-1.5,0-3,0-4.5,0-3.5,0-6.5.7-9.8.8-3.3,0-6.3-.8-9.8-.8-1.5,0-3,0-4.5,0-3.5,0-6.5.7-9.8.8-3.3,0-6.3-.8-9.8-.8-1.5,0-3,0-4.5,0h0Z"/>
          <path id="waveb12" data-name="waveb1" class="st54" d="M449.7,319.1c-1.7,0-3.2.2-4.7.4l-.5.8c2.4-.2,4.7-.6,7.1-.7,3.3,0,6.3.8,9.8.8,1.5,0,3,0,4.5,0,3.5,0,6.5-.7,9.8-.8,3.3,0,6.3.8,9.8.8,1.5,0,3.2,0,4.5,0,3.5,0,6.5-.7,9.8-.8,3.3,0,6.3.8,9.8.8,1.5,0,3,0,4.5,0,3.5,0,6.5-.7,9.8-.8,3.3,0,6.3.8,9.8.8,1.5,0,3,0,4.5,0,3.5,0,6.5-.7,9.8-.8,2.6,0,4.9.5,7.5.7l-.5-.9c-1.4-.2-2.8-.3-4.4-.3-1.5,0-3,0-4.5,0-3.5,0-6.5.7-9.8.8-3.3,0-6.3-.8-9.8-.8-1.5,0-3,0-4.5,0-3.5,0-6.5.7-9.8.8-3.3,0-6.3-.8-9.8-.8-1.5,0-3,0-4.5,0-3.5,0-6.5.7-9.8.8-3.3,0-6.3-.8-9.8-.8-1.5,0-3,0-4.5,0-3.5,0-6.5.7-9.8.8-3.3,0-6.3-.8-9.8-.8-1.5,0-3,0-4.5,0h0Z"/>
        </g>
        <g id="wavesb31" data-name="wavesb3">
          <path id="waveb13" data-name="waveb1" class="st60" d="M449.7,318c-1.7,0-3.2.2-4.7.4l-.5.8c2.4-.2,4.7-.6,7.1-.7,3.3,0,6.3.8,9.8.8,1.5,0,3,0,4.5,0,3.5,0,6.5-.7,9.8-.8,3.3,0,6.3.8,9.8.8,1.5,0,3.2,0,4.5,0,3.5,0,6.5-.7,9.8-.8,3.3,0,6.3.8,9.8.8,1.5,0,3,0,4.5,0,3.5,0,6.5-.7,9.8-.8,3.3,0,6.3.8,9.8.8,1.5,0,3,0,4.5,0,3.5,0,6.5-.7,9.8-.8,2.6,0,4.9.5,7.5.7l-.5-.9c-1.4-.2-2.8-.3-4.4-.3-1.5,0-3,0-4.5,0-3.5,0-6.5.7-9.8.8-3.3,0-6.3-.8-9.8-.8-1.5,0-3,0-4.5,0-3.5,0-6.5.7-9.8.8-3.3,0-6.3-.8-9.8-.8-1.5,0-3,0-4.5,0-3.5,0-6.5.7-9.8.8-3.3,0-6.3-.8-9.8-.8-1.5,0-3,0-4.5,0-3.5,0-6.5.7-9.8.8-3.3,0-6.3-.8-9.8-.8-1.5,0-3,0-4.5,0h0Z"/>
          <path id="waveb14" data-name="waveb1" class="st59" d="M449.7,316.9c-1.7,0-3.2.2-4.7.4l-.5.8c2.4-.2,4.7-.6,7.1-.7,3.3,0,6.3.8,9.8.8,1.5,0,3,0,4.5,0,3.5,0,6.5-.7,9.8-.8,3.3,0,6.3.8,9.8.8,1.5,0,3.2,0,4.5,0,3.5,0,6.5-.7,9.8-.8,3.3,0,6.3.8,9.8.8,1.5,0,3,0,4.5,0,3.5,0,6.5-.7,9.8-.8,3.3,0,6.3.8,9.8.8,1.5,0,3,0,4.5,0,3.5,0,6.5-.7,9.8-.8,2.6,0,4.9.5,7.5.7l-.5-.9c-1.4-.2-2.8-.3-4.4-.3-1.5,0-3,0-4.5,0-3.5,0-6.5.7-9.8.8-3.3,0-6.3-.8-9.8-.8-1.5,0-3,0-4.5,0-3.5,0-6.5.7-9.8.8-3.3,0-6.3-.8-9.8-.8-1.5,0-3,0-4.5,0-3.5,0-6.5.7-9.8.8-3.3,0-6.3-.8-9.8-.8-1.5,0-3,0-4.5,0-3.5,0-6.5.7-9.8.8-3.3,0-6.3-.8-9.8-.8-1.5,0-3,0-4.5,0h0Z"/>
          <path id="waveb15" data-name="waveb1" class="st44" d="M449.7,315.8c-1.7,0-3.2.2-4.7.4l-.5.8c2.4-.2,4.7-.6,7.1-.7,3.3,0,6.3.8,9.8.8,1.5,0,3,0,4.5,0,3.5,0,6.5-.7,9.8-.8,3.3,0,6.3.8,9.8.8,1.5,0,3.2,0,4.5,0,3.5,0,6.5-.7,9.8-.8,3.3,0,6.3.8,9.8.8,1.5,0,3,0,4.5,0,3.5,0,6.5-.7,9.8-.8,3.3,0,6.3.8,9.8.8,1.5,0,3,0,4.5,0,3.5,0,6.5-.7,9.8-.8,2.6,0,4.9.5,7.5.7l-.5-.9c-1.4-.2-2.8-.3-4.4-.3-1.5,0-3,0-4.5,0-3.5,0-6.5.7-9.8.8-3.3,0-6.3-.8-9.8-.8-1.5,0-3,0-4.5,0-3.5,0-6.5.7-9.8.8-3.3,0-6.3-.8-9.8-.8-1.5,0-3,0-4.5,0-3.5,0-6.5.7-9.8.8-3.3,0-6.3-.8-9.8-.8-1.5,0-3,0-4.5,0-3.5,0-6.5.7-9.8.8-3.3,0-6.3-.8-9.8-.8-1.5,0-3,0-4.5,0h0Z"/>
        </g>
        <g id="wavesb32" data-name="wavesb3">
          <path id="waveb16" data-name="waveb1" class="st56" d="M449.7,314.7c-1.7,0-3.2.2-4.7.4l-.5.8c2.4-.2,4.7-.6,7.1-.7,3.3,0,6.3.8,9.8.8,1.5,0,3,0,4.5,0,3.5,0,6.5-.7,9.8-.8,3.3,0,6.3.8,9.8.8,1.5,0,3.2,0,4.5,0,3.5,0,6.5-.7,9.8-.8,3.3,0,6.3.8,9.8.8,1.5,0,3,0,4.5,0,3.5,0,6.5-.7,9.8-.8,3.3,0,6.3.8,9.8.8,1.5,0,3,0,4.5,0,3.5,0,6.5-.7,9.8-.8,2.6,0,4.9.5,7.5.7l-.5-.9c-1.4-.2-2.8-.3-4.4-.3-1.5,0-3,0-4.5,0-3.5,0-6.5.7-9.8.8-3.3,0-6.3-.8-9.8-.8-1.5,0-3,0-4.5,0-3.5,0-6.5.7-9.8.8-3.3,0-6.3-.8-9.8-.8-1.5,0-3,0-4.5,0-3.5,0-6.5.7-9.8.8-3.3,0-6.3-.8-9.8-.8-1.5,0-3,0-4.5,0-3.5,0-6.5.7-9.8.8-3.3,0-6.3-.8-9.8-.8-1.5,0-3,0-4.5,0h0Z"/>
          <path id="waveb17" data-name="waveb1" class="st55" d="M449.7,313.6c-1.7,0-3.2.2-4.7.4l-.5.8c2.4-.2,4.7-.6,7.1-.7,3.3,0,6.3.8,9.8.8,1.5,0,3,0,4.5,0,3.5,0,6.5-.7,9.8-.8,3.3,0,6.3.8,9.8.8,1.5,0,3.2,0,4.5,0,3.5,0,6.5-.7,9.8-.8,3.3,0,6.3.8,9.8.8,1.5,0,3,0,4.5,0,3.5,0,6.5-.7,9.8-.8,3.3,0,6.3.8,9.8.8,1.5,0,3,0,4.5,0,3.5,0,6.5-.7,9.8-.8,2.6,0,4.9.5,7.5.7l-.5-.9c-1.4-.2-2.8-.3-4.4-.3-1.5,0-3,0-4.5,0-3.5,0-6.5.7-9.8.8-3.3,0-6.3-.8-9.8-.8-1.5,0-3,0-4.5,0-3.5,0-6.5.7-9.8.8-3.3,0-6.3-.8-9.8-.8-1.5,0-3,0-4.5,0-3.5,0-6.5.7-9.8.8-3.3,0-6.3-.8-9.8-.8-1.5,0-3,0-4.5,0-3.5,0-6.5.7-9.8.8-3.3,0-6.3-.8-9.8-.8-1.5,0-3,0-4.5,0h0Z"/>
          <path id="waveb18" data-name="waveb1" class="st58" d="M449.7,312.4c-1.7,0-3.2.2-4.7.4l-.5.8c2.4-.2,4.7-.6,7.1-.7,3.3,0,6.3.8,9.8.8,1.5,0,3,0,4.5,0,3.5,0,6.5-.7,9.8-.8,3.3,0,6.3.8,9.8.8,1.5,0,3.2,0,4.5,0,3.5,0,6.5-.7,9.8-.8,3.3,0,6.3.8,9.8.8,1.5,0,3,0,4.5,0,3.5,0,6.5-.7,9.8-.8,3.3,0,6.3.8,9.8.8,1.5,0,3,0,4.5,0,3.5,0,6.5-.7,9.8-.8,2.6,0,4.9.5,7.5.7l-.5-.9c-1.4-.2-2.8-.3-4.4-.3-1.5,0-3,0-4.5,0-3.5,0-6.5.7-9.8.8-3.3,0-6.3-.8-9.8-.8-1.5,0-3,0-4.5,0-3.5,0-6.5.7-9.8.8-3.3,0-6.3-.8-9.8-.8-1.5,0-3,0-4.5,0-3.5,0-6.5.7-9.8.8-3.3,0-6.3-.8-9.8-.8-1.5,0-3,0-4.5,0-3.5,0-6.5.7-9.8.8-3.3,0-6.3-.8-9.8-.8-1.5,0-3,0-4.5,0h0Z"/>
        </g>
        <path class="st46" d="M453.2,307.5v.2c-.1,0,93.7,0,93.7,0v-.2h-93.7,0ZM453,307.8v.2c-.1,0,94.1,0,94.1,0v-.2h-94.1ZM452.8,308.2l-.2.4h94.8l-.2-.4h-94.4,0ZM452.5,308.7l-.3.4h95.5l-.3-.4h-95,0ZM452.1,309.4l-.3.4h96.3l-.3-.4h-95.8ZM451.7,310.1l-.2.4h97.1l-.2-.4h-96.6ZM451.3,310.8l-.3.4h97.9l-.3-.4h-97.4ZM450.9,311.6l-.3.5h98.9l-.3-.5h-98.3Z"/>
        <path class="st42" d="M457.4,312.3c3.5.7,3.8,0,3.8,0h-3.8ZM538.9,312.3s.3.7,3.8,0h-3.8Z"/>
      </g>
      <g id="mountains">
        <g id="mountain1">
          <path d="M530.6,297c-1.7,0-2.2.9-2.2.9-2.7,10.6-11.8,21.3-22.6,21.3h-8.1v10.8s0,0,0,0h61.5l-6.2-11c-9.7-1.4-17.6-11.4-20.2-21.1,0,0-.5-.9-2.2-.9h0Z"/>
          <path class="st48" d="M530.6,297.5c-.8,0-1.3.2-1.5.4-.3.2-.3.3-.3.3,0,0,0,0,0,0-1.4,5.3-4.4,10.7-8.3,14.7-4,4.1-9.1,6.8-14.6,6.8h-7.7v9.9h60.9l-5.7-10.1c-4.7-.6-9-3.2-12.5-6.7-4-4-6.9-9.4-8.3-14.7,0,0,0,0,0,0,0,0,0-.1-.3-.3-.3-.2-.8-.4-1.5-.4h0Z"/>
          <path d="M530.6,297.5c.1,0,.3,0,.4,0,0,3,0,8.1,0,10.8,0,2.3-.8,4.2-2,6.4-.5,1.6-1,1-2.3,2.9-1.8.7-3.2.9-5.1,1.2-2.5.4-8.1.8-10.9.1,3.6-1.1,7-3.3,9.8-6.1.7-.8,1.5-1.6,2.1-2.4,1.1-1.4,2.1-2.9,3-4.5.4-.6.7-1.2,1-1.9.5-1,.9-2,1.3-2.9.1-.3.2-.7.4-1,.2-.7.4-1.3.6-2,0,0,0,0,0,0,0,0,0-.1.3-.3.1,0,.3-.2.6-.2,0,0,0,0,0,0,.3,0,.6-.1.9-.1h0Z"/>
          <path class="st48" d="M529.9,298.9c-.4,6-2.3,13.2-6.6,17.8-1.6,1.3-3.7,2.5-5.6,2.3,6.8-5.5,10.9-13.9,12.3-20.1Z"/>
          <path class="st48" d="M524.5,309.3c-1,2.7-4.8,6.7-8.8,10-1.2,0-1.8.1-2.8,0,2.5-.2,8.2-5.1,11.6-10.1h0Z"/>
        </g>
        <g id="mountain11" data-name="mountain1">
          <path class="st6" d="M515.3,297c-1.7,0-2.2.9-2.2.9-2.7,10.6-11.8,21.3-22.6,21.3h-8.1v10.8s0,0,0,0h61.5l-6.2-11c-9.7-1.4-17.6-11.4-20.2-21.1,0,0-.5-.9-2.2-.9h0Z"/>
          <path class="st48" d="M515.3,297.5c-.8,0-1.3.2-1.5.4-.3.2-.3.3-.3.3,0,0,0,0,0,0-1.4,5.3-4.4,10.7-8.3,14.7-4,4.1-9.1,6.8-14.6,6.8h-7.7v9.9h60.9l-5.7-10.1c-4.7-.6-9-3.2-12.5-6.7-4-4-6.9-9.4-8.3-14.7,0,0,0,0,0,0,0,0,0-.1-.3-.3-.3-.2-.8-.4-1.5-.4h0Z"/>
          <path d="M515.3,297.5c.1,0,.3,0,.4,0,0,3,0,8.1,0,10.8,0,2.3-.8,4.2-2,6.4-.5,1.6-1,1-2.3,2.9-1.8.7-3.2.9-5.1,1.2-2.5.4-8.1.8-10.9.1,3.6-1.1,7-3.3,9.8-6.1.7-.8,1.5-1.6,2.1-2.4,1.1-1.4,2.1-2.9,3-4.5.4-.6.7-1.2,1-1.9.5-1,.9-2,1.3-2.9.1-.3.2-.7.4-1,.2-.7.4-1.3.6-2,0,0,0,0,0,0,0,0,0-.1.3-.3.1,0,.3-.2.6-.2,0,0,0,0,0,0,.3,0,.6-.1.9-.1h0Z"/>
          <path class="st48" d="M514.6,298.9c-.4,6-2.3,13.2-6.6,17.8-1.6,1.3-3.7,2.5-5.6,2.3,6.8-5.5,10.9-13.9,12.3-20.1Z"/>
          <path class="st48" d="M509.2,309.3c-1,2.7-4.8,6.7-8.8,10-1.2,0-1.8.1-2.8,0,2.5-.2,8.2-5.1,11.6-10.1h0Z"/>
        </g>
        <g id="mountain3">
          <path class="st25" d="M502.2,297.9c2.7,10.6,11.8,21.3,22.6,21.3h8.1v10.8s0,0,0,0h-65.8s0,0,0,0v-10.8h8.1c10.8,0,19.9-10.8,22.6-21.3,0,0,.5-.9,2.2-.9s2.2.9,2.2.9h0Z"/>
          <path class="st48" d="M500,297.5c.8,0,1.3.2,1.5.4.3.2.3.3.3.3h0c1.4,5.3,4.3,10.7,8.3,14.7,4,4.1,9.1,6.8,14.6,6.8h7.6v9.9h-65v-9.9h7.7c5.5,0,10.6-2.8,14.6-6.8,4-4,6.9-9.4,8.3-14.7,0,0,0,0,0,0,0,0,0-.1.3-.3.3-.2.8-.4,1.5-.4h0Z"/>
          <path d="M499.3,297.5c0,0-.2,0-.2,0,0,0,0,0,0,0-.2,0-.4.2-.6.2-.3.2-.3.3-.3.3,0,0,0,0,0,0-.2.7-.4,1.3-.6,2-.1.3-.2.7-.4,1-.4,1-.8,2-1.2,2.9-.3.6-.6,1.3-1,1.9-.9,1.6-1.9,3.1-3,4.5-.7.8-1.4,1.6-2.1,2.4-2.8,2.9-6.1,5-9.8,6.1,2.8.6,4,0,6.5-.5,2-.3,4.2-.6,6-1.2,1.4-1.9.9-1.3,1.4-2.9,1.2-2.2,2.9-4.2,3.3-6.7,1.6-3,1.9-8.6,1.9-10.2h0Z"/>
          <path class="st48" d="M499.3,298.9c-.4,6-2.3,13.2-6.6,17.8-1.6,1.3-3.7,2.5-5.6,2.3,6.8-5.5,10.9-13.9,12.3-20.1h0Z"/>
          <path class="st48" d="M493.8,309.3c-1,2.7-4.8,6.7-8.8,10-1.2,0-1.8.1-2.8,0,2.5-.2,8.2-5.1,11.6-10.1h0Z"/>
          <path d="M501,297.6s0,0,0,0c.2,0,.4.2.6.2.3.2.3.3.3.3,0,0,0,0,0,0,.2.7.4,1.3.6,2,.1.3.2.7.4,1,.4,1,.8,2,1.2,2.9.3.6.6,1.3,1,1.9.9,1.6,1.9,3.1,3,4.5.7.8,1.4,1.6,2.1,2.4,2.8,2.9,6.1,5.4,9.8,6.5-7.2,0-10.4-.6-13-4-2.6-3.4-3.6-4.9-4.1-6.9-.5-2.1-2-6.6-1.9-10.8h0Z"/>
          <path class="st48" d="M501.5,298.9c.4,6,2.2,12,6.6,16.6,1.6,1.3,3.7,2.5,5.6,2.3-7.3-5-10.8-12.8-12.2-18.9Z"/>
        </g>
        <g id="mountain4">
          <path class="st3" d="M484.7,297c-1.7,0-2.2.9-2.2.9-2.5,9.7-11.8,22.3-21.5,23.8l-4.8,8.3h49v-11.3c-8.8-2.4-15.9-11.6-18.2-20.8,0,0-.5-.9-2.2-.9h0Z"/>
          <path class="st48" d="M484.7,297.5c-.8,0-1.3.2-1.5.4-.3.2-.3.3-.3.3,0,0,0,0,0,0-1.4,5.3-4.7,10.7-8.1,15-3.4,4.3-9.7,8.6-14,9.1l-4.3,7.4h48.1v-10.7c-3.6-1.1-6.8-3.3-9.6-6.1-4-4-6.9-9.4-8.3-14.7,0,0,0,0,0,0,0,0,0-.1-.3-.3-.3-.2-.8-.4-1.5-.4h0Z"/>
          <path d="M483.4,298.9c-.6,9-5.7,20.5-11.3,22.4-1.9.6-5.1.9-6.2,1,9.9-4.7,15.8-15.9,17.6-23.4h0Z"/>
          <path d="M484.7,297.5c-.1,0-.3,0-.4,0,0,3,0,8.1,0,10.8,0,2.3.8,4.2,2,6.4,0,.2.1.4.2.5.4,1.1.7,1.5,2.3,2.7,5,3.8,11.2,4.4,14.8,4-1.1-.9-2.4-1.7-3.4-2.5,1.7,0,3.4-.2,4.5-.5-3.6-1.1-7-3.3-9.8-6.1-.5-.5-.9-1-1.4-1.6-.2-.3-.5-.7-.6-.8-1.1-1.4-2.3-2.9-3.1-4.5-.4-.6-.7-1.2-1-1.9-.5-1-.9-2-1.3-2.9-.1-.3-.2-.7-.4-1-.2-.7-.4-1.3-.6-2,0,0,0,0,0,0,0,0,0-.1-.3-.3-.1,0-.3-.2-.6-.2,0,0,0,0,0,0-.3,0-.6-.1-.9-.1h0Z"/>
          <path class="st48" d="M485.4,298.9c.4,6,2.3,13.2,6.6,17.8,1.6,1.3,3.7,2.5,5.6,2.3-6.8-5.5-10.9-13.9-12.3-20.1h0Z"/>
          <path d="M489.6,307.2c2.4,5.8,8.4,11.3,14.5,15,1.2,0,1.5,0,2.5,0-4.4-2.4-11.5-5.8-17.1-14.9h0Z"/>
        </g>
        <g id="mountain41" data-name="mountain4">
          <path class="st21" d="M469.3,297c-1.7,0-2.2.9-2.2.9-2.5,9.7-11.8,22.3-21.5,23.8l-4.8,8.3h49v-11.3c-8.8-2.4-15.9-11.6-18.2-20.8,0,0-.5-.9-2.2-.9h0Z"/>
          <path class="st48" d="M469.3,297.5c-.8,0-1.3.2-1.5.4-.3.2-.3.3-.3.3,0,0,0,0,0,0-1.4,5.3-4.7,10.7-8.1,15-3.4,4.3-9.7,8.6-14,9.1l-4.3,7.4h48.1v-10.7c-3.6-1.1-6.8-3.3-9.6-6.1-4-4-6.9-9.4-8.3-14.7,0,0,0,0,0,0,0,0,0-.1-.3-.3-.3-.2-.8-.4-1.5-.4h0Z"/>
          <path d="M468,298.9c-.6,9-5.7,20.5-11.3,22.4-1.9.6-5.1.9-6.2,1,9.9-4.7,15.8-15.9,17.6-23.4h0Z"/>
          <path d="M469.3,297.5c-.1,0-.3,0-.4,0,0,3,0,8.1,0,10.8,0,2.3.8,4.2,2,6.4,0,.2.1.4.2.5.4,1.1.7,1.5,2.3,2.7,5,3.8,11.2,4.4,14.8,4-1.1-.9-2.4-1.7-3.4-2.5,1.7,0,3.4-.2,4.5-.5-3.6-1.1-7-3.3-9.8-6.1-.5-.5-.9-1-1.4-1.6-.2-.3-.5-.7-.6-.8-1.1-1.4-2.3-2.9-3.1-4.5-.4-.6-.7-1.2-1-1.9-.5-1-.9-2-1.3-2.9-.1-.3-.2-.7-.4-1-.2-.7-.4-1.3-.6-2,0,0,0,0,0,0,0,0,0-.1-.3-.3-.1,0-.3-.2-.6-.2,0,0,0,0,0,0-.3,0-.6-.1-.9-.1h0Z"/>
          <path class="st48" d="M470,298.9c.4,6,2.3,13.2,6.6,17.8,1.6,1.3,3.7,2.5,5.6,2.3-6.8-5.5-10.9-13.9-12.3-20.1h0Z"/>
          <path d="M474.2,307.2c2.4,5.8,8.4,11.3,14.5,15,1.2,0,1.5,0,2.5,0-4.4-2.4-11.5-5.8-17.1-14.9h0Z"/>
        </g>
      </g>
      <g id="seaf">
        <path class="st48" d="M556.5,324.7c-.6.2-4.4-.2-6.4,0l-1.3.3c-1.1,0-2.2,0-3.3,0-3.6,0-6.6.9-10.1.9-3.4,0-6.5-.9-10.1-.9-1.1,0-2.2,0-3.3,0-3.6,0-6.6.9-10.1.9s-6.5-.9-10.1-.9c-1.1,0-2.2,0-3.3,0-3.6,0-6.6.9-10.1.9s-6.5-.9-10.1-.9-.5,0-.8,0c-.2,0-.4,0-.6,0s-.2,0-.3,0c-.1,0-.2,0-.4,0-.2,0-.3,0-.5,0-.3,0-.5,0-.8,0-3.6,0-6.6.9-10.1.9-3.4,0-6.5-.9-10.1-.9s-.5,0-.8,0c-.2,0-.3,0-.5,0s-.3,0-.4,0c-.1,0-.2,0-.4,0-.2,0-.4,0-.5,0-.3,0-.5,0-.8,0-2.9,0-6.2.6-8.9.9l-6.3,10.9h63s64.4,0,64.4,0l-7.2-12Z"/>
        <path class="st61" d="M548,323.1c-.2,0-.4,0-.6,0-3.2,0-5.6,1.1-11.2,1.1s-6.2-1-12.6-.9c-5.9.1-8.4,1.3-11.7,1.2-3.2,0-8.5-.7-12.5-.3-4,.4-8.8,1.3-12,1.3-3.9,0-7.8-.7-11.9-.3-4.1.4-6,1.5-11.1,1.5-4.4,0-9.1-.7-12.7-.7-3.4,0-7.3,1-10.1,1.4l-.8,1.5c2.2-.3,8.6-1.2,10.8-1.3,2.3,0,10.7.5,15.3.3,4.6-.2,5.2-1.2,10.6-1.2s6.7.4,10.6.4,4.6-1.2,8.3-1.2c.9,0,1.9,0,2.8,0,3.1-.5,8.4,0,12,.2,3.3.2,5.5-.6,8.9-.7,1.5,0,3,0,4.5-.1,3.5-.1,6.4.6,9.7.6,3.2-.2,6.4-.9,9.9-1,1.5,0,3,0,4.5-.1,2.3,0,5.8,0,8.3.5l-.8-1.4c-2.4,0-5.3-.6-8.2-.6h0Z"/>
        <g id="wavesf3">
          <path id="wavef1" class="st52" d="M450.3,334.7c-3.5,0-6.4.9-9.7.9-1.2,0-2.4-.2-3.5-.3l-.5.9c.5,0,1,0,1.5,0,1.5,0,3,0,4.5,0,3.5,0,6.4-.9,9.6-.9,3.3,0,6.2.9,9.7.9,1.5,0,3,0,4.5,0,3.5,0,6.4-.9,9.7-.9,3.3,0,6.2.9,9.7.9,1.5,0,3,0,4.5,0,3.5,0,6.4-.9,9.7-.9,3.3,0,6.2.9,9.6.9,1.5,0,3,0,4.5,0,3.5,0,6.4-.9,9.7-.9,3.3,0,6.2.9,9.7.9,1.5,0,3,0,4.5,0,3.5,0,6.4-.9,9.7-.9,3.3,0,6.2.9,9.7.9,1.5,0,3,0,4.5,0,.6,0,1.2,0,1.8,0l-.5-.8c-1.1.1-2.1.3-3.2.3-3.3,0-6.2-.9-9.7-.9-1.5,0-3,0-4.5,0-3.5,0-6.4.9-9.6.9-3.3,0-6.2-.9-9.7-.9-1.5,0-3,0-4.5,0-3.5,0-6.4.9-9.7.9-3.3,0-6.2-.9-9.7-.9-1.5,0-3,0-4.5,0-3.5,0-6.4.9-9.6.9-3.3,0-6.2-.9-9.7-.9-1.5,0-3,0-4.5,0-3.5,0-6.4.9-9.7.9-3.3,0-6.2-.9-9.7-.9-1.5,0-3,0-4.5,0h0Z"/>
          <path id="wavef11" data-name="wavef1" class="st43" d="M450.3,333.5c-3.5,0-6.4.9-9.7.9-1.2,0-2.4-.2-3.5-.3l-.5.9c.5,0,1,0,1.5,0,1.5,0,3,0,4.5,0,3.5,0,6.4-.9,9.6-.9,3.3,0,6.2.9,9.7.9,1.5,0,3,0,4.5,0,3.5,0,6.4-.9,9.7-.9,3.3,0,6.2.9,9.7.9,1.5,0,3,0,4.5,0,3.5,0,6.4-.9,9.7-.9,3.3,0,6.2.9,9.6.9,1.5,0,3,0,4.5,0,3.5,0,6.4-.9,9.7-.9,3.3,0,6.2.9,9.7.9,1.5,0,3,0,4.5,0,3.5,0,6.4-.9,9.7-.9,3.3,0,6.2.9,9.7.9,1.5,0,3,0,4.5,0,.6,0,1.2,0,1.8,0l-.5-.8c-1.1.1-2.1.3-3.2.3-3.3,0-6.2-.9-9.7-.9-1.5,0-3,0-4.5,0-3.5,0-6.4.9-9.6.9-3.3,0-6.2-.9-9.7-.9-1.5,0-3,0-4.5,0-3.5,0-6.4.9-9.7.9-3.3,0-6.2-.9-9.7-.9-1.5,0-3,0-4.5,0-3.5,0-6.4.9-9.6.9-3.3,0-6.2-.9-9.7-.9-1.5,0-3,0-4.5,0-3.5,0-6.4.9-9.7.9-3.3,0-6.2-.9-9.7-.9-1.5,0-3,0-4.5,0h0Z"/>
          <path id="wavef12" data-name="wavef1" class="st45" d="M450.3,332.2c-3.5,0-6.4.9-9.7.9-1.2,0-2.4-.2-3.5-.3l-.5.9c.5,0,1,0,1.5,0,1.5,0,3,0,4.5,0,3.5,0,6.4-.9,9.6-.9,3.3,0,6.2.9,9.7.9,1.5,0,3,0,4.5,0,3.5,0,6.4-.9,9.7-.9,3.3,0,6.2.9,9.7.9,1.5,0,3,0,4.5,0,3.5,0,6.4-.9,9.7-.9,3.3,0,6.2.9,9.6.9,1.5,0,3,0,4.5,0,3.5,0,6.4-.9,9.7-.9,3.3,0,6.2.9,9.7.9,1.5,0,3,0,4.5,0,3.5,0,6.4-.9,9.7-.9,3.3,0,6.2.9,9.7.9,1.5,0,3,0,4.5,0,.6,0,1.2,0,1.8,0l-.5-.8c-1.1.1-2.1.3-3.2.3-3.3,0-6.2-.9-9.7-.9-1.5,0-3,0-4.5,0-3.5,0-6.4.9-9.6.9-3.3,0-6.2-.9-9.7-.9-1.5,0-3,0-4.5,0-3.5,0-6.4.9-9.7.9-3.3,0-6.2-.9-9.7-.9-1.5,0-3,0-4.5,0-3.5,0-6.4.9-9.6.9-3.3,0-6.2-.9-9.7-.9-1.5,0-3,0-4.5,0-3.5,0-6.4.9-9.7.9-3.3,0-6.2-.9-9.7-.9-1.5,0-3,0-4.5,0h0Z"/>
        </g>
        <g id="wavesf31" data-name="wavesf3">
          <path id="wavef13" data-name="wavef1" class="st53" d="M450.3,330.9c-3.5,0-6.4.9-9.7.9-1.2,0-2.4-.2-3.5-.3l-.5.9c.5,0,1,0,1.5,0,1.5,0,3,0,4.5,0,3.5,0,6.4-.9,9.6-.9,3.3,0,6.2.9,9.7.9,1.5,0,3,0,4.5,0,3.5,0,6.4-.9,9.7-.9,3.3,0,6.2.9,9.7.9,1.5,0,3,0,4.5,0,3.5,0,6.4-.9,9.7-.9,3.3,0,6.2.9,9.6.9,1.5,0,3,0,4.5,0,3.5,0,6.4-.9,9.7-.9,3.3,0,6.2.9,9.7.9,1.5,0,3,0,4.5,0,3.5,0,6.4-.9,9.7-.9,3.3,0,6.2.9,9.7.9,1.5,0,3,0,4.5,0,.6,0,1.2,0,1.8,0l-.5-.8c-1.1.1-2.1.3-3.2.3-3.3,0-6.2-.9-9.7-.9-1.5,0-3,0-4.5,0-3.5,0-6.4.9-9.6.9-3.3,0-6.2-.9-9.7-.9-1.5,0-3,0-4.5,0-3.5,0-6.4.9-9.7.9-3.3,0-6.2-.9-9.7-.9-1.5,0-3,0-4.5,0-3.5,0-6.4.9-9.6.9-3.3,0-6.2-.9-9.7-.9-1.5,0-3,0-4.5,0-3.5,0-6.4.9-9.7.9-3.3,0-6.2-.9-9.7-.9-1.5,0-3,0-4.5,0h0Z"/>
          <path id="wavef14" data-name="wavef1" class="st47" d="M450.3,329.6c-3.5,0-6.4.9-9.7.9-1.2,0-2.4-.2-3.5-.3l-.5.9c.5,0,1,0,1.5,0,1.5,0,3,0,4.5,0,3.5,0,6.4-.9,9.6-.9,3.3,0,6.2.9,9.7.9,1.5,0,3,0,4.5,0,3.5,0,6.4-.9,9.7-.9,3.3,0,6.2.9,9.7.9,1.5,0,3,0,4.5,0,3.5,0,6.4-.9,9.7-.9,3.3,0,6.2.9,9.6.9,1.5,0,3,0,4.5,0,3.5,0,6.4-.9,9.7-.9,3.3,0,6.2.9,9.7.9,1.5,0,3,0,4.5,0,3.5,0,6.4-.9,9.7-.9,3.3,0,6.2.9,9.7.9,1.5,0,3,0,4.5,0,.6,0,1.2,0,1.8,0l-.5-.8c-1.1.1-2.1.3-3.2.3-3.3,0-6.2-.9-9.7-.9-1.5,0-3,0-4.5,0-3.5,0-6.4.9-9.6.9-3.3,0-6.2-.9-9.7-.9-1.5,0-3,0-4.5,0-3.5,0-6.4.9-9.7.9-3.3,0-6.2-.9-9.7-.9-1.5,0-3,0-4.5,0-3.5,0-6.4.9-9.6.9-3.3,0-6.2-.9-9.7-.9-1.5,0-3,0-4.5,0-3.5,0-6.4.9-9.7.9-3.3,0-6.2-.9-9.7-.9-1.5,0-3,0-4.5,0h0Z"/>
          <path id="wavef15" data-name="wavef1" class="st62" d="M450.3,328.3c-3.5,0-6.4.9-9.7.9-1.2,0-2.4-.2-3.5-.3l-.5.9c.5,0,1,0,1.5,0,1.5,0,3,0,4.5,0,3.5,0,6.4-.9,9.6-.9,3.3,0,6.2.9,9.7.9,1.5,0,3,0,4.5,0,3.5,0,6.4-.9,9.7-.9,3.3,0,6.2.9,9.7.9,1.5,0,3,0,4.5,0,3.5,0,6.4-.9,9.7-.9,3.3,0,6.2.9,9.6.9,1.5,0,3,0,4.5,0,3.5,0,6.4-.9,9.7-.9,3.3,0,6.2.9,9.7.9,1.5,0,3,0,4.5,0,3.5,0,6.4-.9,9.7-.9,3.3,0,6.2.9,9.7.9,1.5,0,3,0,4.5,0,.6,0,1.2,0,1.8,0l-.5-.8c-1.1.1-2.1.3-3.2.3-3.3,0-6.2-.9-9.7-.9-1.5,0-3,0-4.5,0-3.5,0-6.4.9-9.6.9-3.3,0-6.2-.9-9.7-.9-1.5,0-3,0-4.5,0-3.5,0-6.4.9-9.7.9-3.3,0-6.2-.9-9.7-.9-1.5,0-3,0-4.5,0-3.5,0-6.4.9-9.6.9-3.3,0-6.2-.9-9.7-.9-1.5,0-3,0-4.5,0-3.5,0-6.4.9-9.7.9-3.3,0-6.2-.9-9.7-.9-1.5,0-3,0-4.5,0h0Z"/>
        </g>
        <g id="wavesf32" data-name="wavesf3">
          <path id="wavef16" data-name="wavef1" class="st64" d="M450.3,327c-3.5,0-6.4.9-9.7.9-1.2,0-2.4-.2-3.5-.3l-.5.9c.5,0,1,0,1.5,0,1.5,0,3,0,4.5,0,3.5,0,6.4-.9,9.6-.9,3.3,0,6.2.9,9.7.9,1.5,0,3,0,4.5,0,3.5,0,6.4-.9,9.7-.9,3.3,0,6.2.9,9.7.9,1.5,0,3,0,4.5,0,3.5,0,6.4-.9,9.7-.9,3.3,0,6.2.9,9.6.9,1.5,0,3,0,4.5,0,3.5,0,6.4-.9,9.7-.9,3.3,0,6.2.9,9.7.9,1.5,0,3,0,4.5,0,3.5,0,6.4-.9,9.7-.9,3.3,0,6.2.9,9.7.9,1.5,0,3,0,4.5,0,.6,0,1.2,0,1.8,0l-.5-.8c-1.1.1-2.1.3-3.2.3-3.3,0-6.2-.9-9.7-.9-1.5,0-3,0-4.5,0-3.5,0-6.4.9-9.6.9-3.3,0-6.2-.9-9.7-.9-1.5,0-3,0-4.5,0-3.5,0-6.4.9-9.7.9-3.3,0-6.2-.9-9.7-.9-1.5,0-3,0-4.5,0-3.5,0-6.4.9-9.6.9-3.3,0-6.2-.9-9.7-.9-1.5,0-3,0-4.5,0-3.5,0-6.4.9-9.7.9-3.3,0-6.2-.9-9.7-.9-1.5,0-3,0-4.5,0h0Z"/>
          <path id="wavef17" data-name="wavef1" class="st51" d="M450.3,325.7c-3.5,0-6.4.9-9.7.9-1.2,0-2.4-.2-3.5-.3l-.5.9c.5,0,1,0,1.5,0,1.5,0,3,0,4.5,0,3.5,0,6.4-.9,9.6-.9,3.3,0,6.2.9,9.7.9,1.5,0,3,0,4.5,0,3.5,0,6.4-.9,9.7-.9,3.3,0,6.2.9,9.7.9,1.5,0,3,0,4.5,0,3.5,0,6.4-.9,9.7-.9,3.3,0,6.2.9,9.6.9,1.5,0,3,0,4.5,0,3.5,0,6.4-.9,9.7-.9,3.3,0,6.2.9,9.7.9,1.5,0,3,0,4.5,0,3.5,0,6.4-.9,9.7-.9,3.3,0,6.2.9,9.7.9,1.5,0,3,0,4.5,0,.6,0,1.2,0,1.8,0l-.5-.8c-1.1.1-2.1.3-3.2.3-3.3,0-6.2-.9-9.7-.9-1.5,0-3,0-4.5,0-3.5,0-6.4.9-9.6.9-3.3,0-6.2-.9-9.7-.9-1.5,0-3,0-4.5,0-3.5,0-6.4.9-9.7.9-3.3,0-6.2-.9-9.7-.9-1.5,0-3,0-4.5,0-3.5,0-6.4.9-9.6.9-3.3,0-6.2-.9-9.7-.9-1.5,0-3,0-4.5,0-3.5,0-6.4.9-9.7.9-3.3,0-6.2-.9-9.7-.9-1.5,0-3,0-4.5,0h0Z"/>
          <path id="wavef18" data-name="wavef1" class="st50" d="M450.3,324.4c-3.5,0-6.4.9-9.7.9-1.2,0-2.4-.2-3.5-.3l-.5.9c.5,0,1,0,1.5,0,1.5,0,3,0,4.5,0,3.5,0,6.4-.9,9.6-.9,3.3,0,6.2.9,9.7.9,1.5,0,3,0,4.5,0,3.5,0,6.4-.9,9.7-.9,3.3,0,6.2.9,9.7.9,1.5,0,3,0,4.5,0,3.5,0,6.4-.9,9.7-.9,3.3,0,6.2.9,9.6.9,1.5,0,3,0,4.5,0,3.5,0,6.4-.9,9.7-.9,3.3,0,6.2.9,9.7.9,1.5,0,3,0,4.5,0,3.5,0,6.4-.9,9.7-.9,3.3,0,6.2.9,9.7.9,1.5,0,3,0,4.5,0,.6,0,1.2,0,1.8,0l-.5-.8c-1.1.1-2.1.3-3.2.3-3.3,0-6.2-.9-9.7-.9-1.5,0-3,0-4.5,0-3.5,0-6.4.9-9.6.9-3.3,0-6.2-.9-9.7-.9-1.5,0-3,0-4.5,0-3.5,0-6.4.9-9.7.9-3.3,0-6.2-.9-9.7-.9-1.5,0-3,0-4.5,0-3.5,0-6.4.9-9.6.9-3.3,0-6.2-.9-9.7-.9-1.5,0-3,0-4.5,0-3.5,0-6.4.9-9.7.9-3.3,0-6.2-.9-9.7-.9-1.5,0-3,0-4.5,0h0Z"/>
        </g>
      </g>
      <path d="M443.8,324.7l-2.4,4.2c2.8-.5,7.1-1.7,10.6-1.7,3.7,0,8.1.9,12.4.9,5.1,0,7-1.1,11.1-1.5,4.1-.4,8,.5,11.9.5,3.1,0,7.9-1.1,12-1.5s7.7.3,12.6.4c4.9,0,5.6-1.2,11.6-1.3,6.4-.1,6.9.9,12.6.9,4.2.2,7.9-.9,11.7-1.1,3.8-.3,5.5,0,8.3.1l-1.8-3.3s0,0,0,0l-101.2,2.2-9.1,1.2Z"/>
      <path class="st48" d="M550.1,324.6s2.7.1,3.8.3c1.1.1,3,.3,3,.3l-.4-.5c-.6.2-4.4-.2-6.4,0Z"/>
    </g>
  </g>
  <path d="M500,224.9l-32.1,55.7-32.9,56.9h64.3s65.7,0,65.7,0l-32.2-55.7-32.8-56.9h0ZM500,227.9l31.5,54.7,30.9,53.4h-63.1s-61.7,0-61.7,0l31.6-54.6,30.8-53.4Z"/>
</svg>