<?xml version="1.0" encoding="UTF-8"?>
<svg id="Calque_1" xmlns="http://www.w3.org/2000/svg" version="1.1" xmlns:xlink="http://www.w3.org/1999/xlink" viewBox="0 0 120 60">
  <!-- Generator: Adobe Illustrator 29.4.0, SVG Export Plug-In . SVG Version: 2.1.0 Build 152)  -->
  <defs>
    <style>
      .st0 {
        fill: #fff;
      }

      .st1, .st2 {
        stroke: #fff;
      }

      .st1, .st3 {
        stroke-width: 6px;
      }

      .st4 {
        fill: none;
      }

      .st2 {
        stroke-width: 10px;
      }

      .st5 {
        stroke-width: 4px;
      }

      .st5, .st3 {
        stroke: #000;
      }

      .st6 {
        clip-path: url(#clippath);
      }
    </style>
    <clipPath id="clippath">
      <path class="st4" d="M0,0v15h70v15h-10L0,0ZM0,30v10h30V0h30L0,30Z"/>
    </clipPath>
  </defs>
  <path d="M0,0h120v60H0V0Z"/>
  <g>
    <path class="st1" d="M0,0l60,30M60,0L0,30"/>
    <g class="st6">
      <path class="st5" d="M0,0l60,30M60,0L0,30"/>
    </g>
    <path class="st2" d="M30,0v40M0,15h70"/>
    <path class="st3" d="M30,0v40M0,15h70"/>
  </g>
  <path class="st0" d="M60,0h60v60H0v-30h60V0Z"/>
  <g>
    <g>
      <circle cx="30" cy="15" r="5.1"/>
      <path id="b" class="st0" d="M30,9.9l3,9.2-7.9-5.7h9.7l-7.9,5.7"/>
    </g>
    <path id="b1" data-name="b" class="st0" d="M12.5,12.3l1.8,5.4-4.6-3.4h5.7l-4.6,3.4"/>
    <path id="b2" data-name="b" class="st0" d="M47.5,12.3l1.8,5.4-4.6-3.4h5.7l-4.6,3.4"/>
    <path id="b3" data-name="b" class="st0" d="M30,22.3l1.8,5.4-4.6-3.4h5.7l-4.6,3.4"/>
    <path id="b4" data-name="b" class="st0" d="M30,2.3l1.8,5.4-4.6-3.4h5.7l-4.6,3.4"/>
  </g>
</svg>