<?xml version="1.0" encoding="UTF-8"?>
<svg id="Calque_1" xmlns="http://www.w3.org/2000/svg" version="1.1" viewBox="0 0 600 300">
  <!-- Generator: Adobe Illustrator 29.4.0, SVG Export Plug-In . SVG Version: 2.1.0 Build 152)  -->
  <defs>
    <style>
      .st0 {
        fill: #fff;
      }
    </style>
  </defs>
  <path d="M0,0h600v300H0V0Z"/>
  <path class="st0" d="M0,137.5h600v25H0v-25Z"/>
  <path class="st0" d="M150,262.5l-6.5-25.9-18.5,19.2,7.3-25.6-25.6,7.3,19.2-18.5-25.9-6.5,25.9-6.5-19.2-18.5,25.6,7.3-7.3-25.6,18.5,19.2,6.5-25.9,6.5,25.9,18.5-19.2-7.3,25.6,25.6-7.3-19.2,18.5,25.9,6.5-25.9,6.5,19.2,18.5-25.6-7.3,7.3,25.6-18.5-19.2-6.5,25.9Z"/>
</svg>