<?xml version="1.0" encoding="UTF-8"?>
<svg id="Calque_1" xmlns="http://www.w3.org/2000/svg" version="1.1" viewBox="0 0 1200 600">
  <!-- Generator: Adobe Illustrator 29.4.0, SVG Export Plug-In . SVG Version: 2.1.0 Build 152)  -->
  <defs>
    <style>
      .st0, .st1, .st2, .st3, .st4, .st5, .st6, .st7, .st8, .st9, .st10, .st11, .st12, .st13, .st14, .st15, .st16, .st17, .st18, .st19, .st20 {
        stroke: #000005;
      }

      .st0, .st2, .st3, .st4, .st5, .st6, .st21, .st7, .st8, .st9, .st10, .st11, .st12, .st13, .st14, .st15, .st16, .st17, .st19, .st20 {
        fill: #fff;
      }

      .st0, .st2, .st4, .st6, .st7, .st8, .st10, .st11, .st12, .st14, .st15, .st17, .st20 {
        fill-rule: evenodd;
      }

      .st0, .st5 {
        stroke-width: .4px;
      }

      .st1 {
        fill: none;
      }

      .st1, .st9, .st17 {
        stroke-width: .3px;
      }

      .st2 {
        stroke-width: .2px;
      }

      .st3 {
        stroke-width: 4.5px;
      }

      .st4 {
        stroke-width: .4px;
      }

      .st6, .st19 {
        stroke-width: .4px;
      }

      .st7 {
        stroke-width: .4px;
      }

      .st8 {
        stroke-width: .6px;
      }

      .st10 {
        stroke-width: .3px;
      }

      .st11 {
        stroke-width: .4px;
      }

      .st12 {
        stroke-width: .4px;
      }

      .st13 {
        stroke-width: .4px;
      }

      .st14 {
        stroke-width: .4px;
      }

      .st15 {
        stroke-width: .4px;
      }

      .st16, .st18 {
        stroke-width: 1.3px;
      }

      .st22, .st18 {
        fill: #000005;
      }

      .st20 {
        stroke-width: .4px;
      }
    </style>
  </defs>
  <path class="st22" d="M0,0h1200v600H0V0Z"/>
  <path class="st21" d="M300,0h900v200H300V0Z"/>
  <path class="st21" d="M300,400h900v200H300v-200Z"/>
  <g id="a">
    <path class="st20" d="M69.1,102.6h32.2c1.8,0,3.2,1.3,3.2,3v15.2c0,1.7-1.4,3-3.2,3h-32.2c-1.8,0-3.2-1.3-3.2-3v-15.2c0-1.7,1.4-3,3.2-3Z"/>
    <path class="st12" d="M69.9,103.5h30.6c1.7,0,3.1,1.2,3.1,2.8v13.9c0,1.5-1.4,2.8-3.1,2.8h-30.6c-1.7,0-3.1-1.2-3.1-2.8v-13.9c0-1.5,1.4-2.8,3.1-2.8Z"/>
    <path class="st2" d="M83.9,108.8h1.9c0,0,0,.9,0,.9l1.5.8,1.2-1,1.4.8-1.3.8.3,1.2h1.7c0,0,0,1.5,0,1.5h-1.3c0,0-.7.9-.7.9l1.5,1.1-1.2.9-1.3-1-1.9.4v1.4c0,0-1.9.1-1.9.1l-.3-1.4-1.7-.7-.9,1-1.4-.7.8-1.1-1-.7h-1.4v-2c0,0,1.3.1,1.3.1l1-1.2-1.2-.9,1.5-1,1.1.8,1.9-.2.3-.8Z"/>
    <ellipse class="st16" cx="84.5" cy="113" rx="2" ry="1.7"/>
    <path class="st12" d="M71.8,104.4l-3,2.7M73.8,104.4l-3,2.7M75.8,104.4l-3,2.7M77.8,104.4l-3,2.7M79.7,104.4l-3,2.7M81.7,104.4l-3,2.7M83.7,104.4l-3,2.7M85.7,104.4l-3,2.7M87.7,104.4l-3,2.7M89.7,104.4l-3,2.7M91.6,104.4l-3,2.7M93.6,104.4l-3,2.7M85.7,104.4l-3,2.7M95.6,104.4l-3,2.7M97.6,104.4l-3,2.7M99.6,104.4l-3,2.7M101.6,104.4l-3,2.7M98.6,104.4l3,2.7M96.6,104.4l3,2.7M94.6,104.4l3,2.7M92.6,104.4l3,2.7M90.6,104.4l3,2.7M88.7,104.4l3,2.7M86.7,104.4l3,2.7M84.7,104.4l3,2.7M82.7,104.4l3,2.7M80.7,104.4l3,2.7M78.7,104.4l3,2.7M76.8,104.4l3,2.7M84.7,104.4l3,2.7M74.8,104.4l3,2.7M72.8,104.4l3,2.7M70.8,104.4l3,2.7M68.8,104.4l3,2.7M71.8,119.4l-3,2.7M73.8,119.4l-3,2.7M75.8,119.4l-3,2.7M77.8,119.4l-3,2.7M79.7,119.4l-3,2.7M81.7,119.4l-3,2.7M83.7,119.4l-3,2.7M85.7,119.4l-3,2.7M87.7,119.4l-3,2.7M89.7,119.4l-3,2.7M91.6,119.4l-3,2.7M93.6,119.4l-3,2.7M85.7,119.4l-3,2.7M95.6,119.4l-3,2.7M97.6,119.4l-3,2.7M99.6,119.4l-3,2.7M101.6,119.4l-3,2.7M98.6,119.4l3,2.7M96.6,119.4l3,2.7M94.6,119.4l3,2.7M92.6,119.4l3,2.7M90.6,119.4l3,2.7M88.7,119.4l3,2.7M86.7,119.4l3,2.7M84.7,119.4l3,2.7M82.7,119.4l3,2.7M80.7,119.4l3,2.7M78.7,119.4l3,2.7M76.8,119.4l3,2.7M84.7,119.4l3,2.7M74.8,119.4l3,2.7M72.8,119.4l3,2.7M70.8,119.4l3,2.7M68.8,119.4l3,2.7"/>
  </g>
  <g id="a1" data-name="a">
    <path class="st20" d="M230.9,102.6h-32.2c-1.8,0-3.2,1.3-3.2,3v15.2c0,1.7,1.4,3,3.2,3h32.2c1.8,0,3.2-1.3,3.2-3v-15.2c0-1.7-1.4-3-3.2-3Z"/>
    <path class="st12" d="M230.1,103.5h-30.6c-1.7,0-3.1,1.2-3.1,2.8v13.9c0,1.5,1.4,2.8,3.1,2.8h30.6c1.7,0,3.1-1.2,3.1-2.8v-13.9c0-1.5-1.4-2.8-3.1-2.8Z"/>
    <path class="st2" d="M216.1,108.8h-1.9c0,0,0,.9,0,.9l-1.5.8-1.2-1-1.4.8,1.3.8-.3,1.2h-1.7c0,0,0,1.5,0,1.5h1.3c0,0,.7.9.7.9l-1.5,1.1,1.2.9,1.3-1,1.9.4v1.4c0,0,1.9.1,1.9.1l.3-1.4,1.7-.7.9,1,1.4-.7-.8-1.1,1-.7h1.4v-2c0,0-1.3.1-1.3.1l-1-1.2,1.2-.9-1.5-1-1.1.8-1.9-.2-.3-.8Z"/>
    <ellipse class="st16" cx="215.5" cy="113" rx="2" ry="1.7"/>
    <path class="st12" d="M228.2,104.4l3,2.7M226.2,104.4l3,2.7M224.2,104.4l3,2.7M222.2,104.4l3,2.7M220.3,104.4l3,2.7M218.3,104.4l3,2.7M216.3,104.4l3,2.7M214.3,104.4l3,2.7M212.3,104.4l3,2.7M210.3,104.4l3,2.7M208.4,104.4l3,2.7M206.4,104.4l3,2.7M214.3,104.4l3,2.7M204.4,104.4l3,2.7M202.4,104.4l3,2.7M200.4,104.4l3,2.7M198.4,104.4l3,2.7M201.4,104.4l-3,2.7M203.4,104.4l-3,2.7M205.4,104.4l-3,2.7M207.4,104.4l-3,2.7M209.4,104.4l-3,2.7M211.3,104.4l-3,2.7M213.3,104.4l-3,2.7M215.3,104.4l-3,2.7M217.3,104.4l-3,2.7M219.3,104.4l-3,2.7M221.3,104.4l-3,2.7M223.2,104.4l-3,2.7M215.3,104.4l-3,2.7M225.2,104.4l-3,2.7M227.2,104.4l-3,2.7M229.2,104.4l-3,2.7M231.2,104.4l-3,2.7M228.2,119.4l3,2.7M226.2,119.4l3,2.7M224.2,119.4l3,2.7M222.2,119.4l3,2.7M220.3,119.4l3,2.7M218.3,119.4l3,2.7M216.3,119.4l3,2.7M214.3,119.4l3,2.7M212.3,119.4l3,2.7M210.3,119.4l3,2.7M208.4,119.4l3,2.7M206.4,119.4l3,2.7M214.3,119.4l3,2.7M204.4,119.4l3,2.7M202.4,119.4l3,2.7M200.4,119.4l3,2.7M198.4,119.4l3,2.7M201.4,119.4l-3,2.7M203.4,119.4l-3,2.7M205.4,119.4l-3,2.7M207.4,119.4l-3,2.7M209.4,119.4l-3,2.7M211.3,119.4l-3,2.7M213.3,119.4l-3,2.7M215.3,119.4l-3,2.7M217.3,119.4l-3,2.7M219.3,119.4l-3,2.7M221.3,119.4l-3,2.7M223.2,119.4l-3,2.7M215.3,119.4l-3,2.7M225.2,119.4l-3,2.7M227.2,119.4l-3,2.7M229.2,119.4l-3,2.7M231.2,119.4l-3,2.7"/>
  </g>
  <g id="b">
    <path class="st8" d="M126.5,147.1c-48.1,47.1-68.6,53-59,56.8,9.6,3.8,40.6-20.5,72.9-52.8,32.2-32.2,52-61,42.3-64.7-9.6-3.8-5,10.7-56.2,60.7Z"/>
    <path class="st17" d="M86,181.3l16.9,4.4c-15.9,15-33.7,21.2-38.7,18.6-5-2.6,8.9-8.8,21.8-23h0Z"/>
    <path class="st17" d="M86,183.1l13.9,3.5c-15.5,14.4-30.7,18.6-34.7,16.8-4-1.8,8.3-6.7,20.8-20.3Z"/>
    <path class="st1" d="M137.8,145.1c0,.2-.1,1.2-.2,1.6,0,.6,0,1-.1,1.4-.2.4-.1.7-.6.9-.3.5-.5.6-1,.8-.3.2-.8.5-1.2.6-.5.2-.9.2-1.5.1-.4-.3-.8-.5-1.1-.8,0-.4-.2-.9-.2-1.2.1.4.2.9.2,1.4,0,.6-.2.8-.5,1.2M133.2,152.4s0,0-.1-.1c.3.3.2.1-.5-.2-.5-.2-1-.3-1.6-.4h-1.7c-.7,0-1.1,0-1.6.2-.3.3-.9.5-1.2.8-.4.2-.5.5-.7.9-.3.3-.6.8-.9,1-.1.5-.4.5-.6.9.6,0,1.1.1,1.3.4.5.2-.4-.2-.6-.4-.4-.1-.5-.2-1.1-.2-.6-.2-.9.1-1.5.2-.3.2-.4.2-.9.2M126.6,157.8c-.2,0-1.4.2-1.8,0-.5-.1-.8-.4-1.1-.8-.2-.3,0,.5,0,.9,0,.6-.3.6-.6,1.1-.4.2-.7.5-1.1.6-.3.2-.7.4-1.1.6-.4.1-.8.3-1.1.5-.4.3-.4.6-.6,1,0,.5.1.8.5,1.1.1.4.5.7.7,1,.3.5.6.7-.1.9-.4.2-.7,0-1.1,0M118.8,165.5c-.3,0-1.4-.4-1.8-.5h-1.7c-.7,0-.8.2-1.4.4-.4.3-.6.6-1.1.8-.3.3-.8.8-1,1.2-.2.4-.2.9-.2,1.4,0,.6.2.7.2,1.3.1.5.4.9.7,1.3,0,.1,0,.2.2.2M112.9,173c0,0-.2.3-.3.5-.4.4-.4.4-1.1.4-.5,0-.5-.2-.9-.4-.2-.3-.4-.5-.6-.9-.1-.2-.3-.6-.4-.8-.2-.3-.4-.4-.5-.7-.2,0-.2-.1-.4-.2.5,0,.5.2.9.5.2.2.3.5.4.8,0,.4.2.7.2,1.1s0,.8-.2,1.2c-.2.2-.4.4-.6.6-.2.2-.5.4-.6.7-.3.2-.5.3-.8.5-.3.1-.6.3-1,.4-.5,0-.7-.2-1.1-.4-.3-.2-.6-.4-.9-.6-.2-.2-.5-.5-.6-.7-.5-.1-.8,0-1.1.2-.2.2-.4.4-.6.6-.2,0-.4.3-.5.4M103.3,176.6c.1,0,.6.4.9.5.1.4.4.7.4,1.2.1.5.1,1,.1,1.5-.1.6-.3.9-.5,1.4-.3.2-.5.4-1,.6-.4,0-.9.1-1.4.1-.3.1-1,.2-1.3,0-.5,0-.8-.3-1.2-.4-.4-.2-.6-.4-1.1-.6-.2-.3-.5-.6-.9-1-.3-.4-.5-.6-.7-1,.2.5.4.9.5,1.3.2.4.4.6.4,1.2.2.4.1,1,.1,1.5,0,.4,0,1-.2,1.3v.3M87.2,186.2v.2c0-.4,0-.2.2.6.3.4,1.1.5,1.7.3.6-.4.5-.7,1.6-.9,1,0,1.4.3,1.9.6.7.3,1,.4,1.4,1.1.2.5.3.9-.3,1.1-.5.4-1.2.5-1.9.6-.8,0-1.4,0-1.7.3-.6.5-.5.8-.5,1.7-.2.3-.2,1.1-.3,1.4-.5.2-.8.3-1.6.3-.2-.5-.4-1.4-.5-1.9-.1-.6-.2-1.3-.5-1.7-.3-.4-.8-.8-1.2-1.1-.2-.3-.6-.5-1-.6.7.3.8.6.9,1.4-.6.3-.8.5-1.7.5-1,0-1.2-.3-1.6-.8,0,.8-.3,1-.5,1.7-.4.5-.5.9-.9,1.6.2.8.5.8.5,1.7.2.6.2,1.2.7,1.6.2.2.4.3.9.3-1,0-1.6-.1-2.3-.5-.5-.3-.9-.6-1.4-.9-.6-.4-1.4-.8-2.1-.9-.8,0-1.4,0-1.7.3-.5.3-.8.9-1,1.6-.2.8-.2,1.4.2,1.9.3.6.4.8,0,1.6-.4.5-1,.6-1.9.8-.6,0-1.2-.1-1.7-.3"/>
    <path class="st0" d="M181.4,104.7c21.4-36.9,35.5-68.2,31.6-70-3.9-1.8-24.4,26.7-45.7,63.5l14.1,6.5Z"/>
    <path class="st11" d="M180,104c20.6-35.6,34.8-65.6,31.7-67-3.1-1.4-22.4,26.3-42.9,61.8"/>
    <path class="st7" d="M176.5,85.5c-2.5,4.2-5.2,8.9-7.7,13.4l11.3,5.2c2.6-4.4,5.4-9.1,7.7-13.4l-11.3-5.2Z"/>
    <path class="st7" d="M177.4,86.9c-2.5,4.2-4.2,7.3-6.8,11.8l8.4,3.9c2.6-4.4,4.5-7.6,6.8-11.8l-8.5-3.9Z"/>
    <path class="st5" d="M183.5,91.7l-5.6-2.6-5,8.6,5.6,2.6,5-8.6Z"/>
    <path class="st7" d="M183.6,91.7l-10.6,6M178.5,100.3l-.6-11.2M209,47.7l-5.6-2.6"/>
    <ellipse class="st18" cx="208.7" cy="42.3" rx="1.6" ry="1.4" transform="translate(-4.1 48.8) rotate(-13.2)"/>
  </g>
  <g id="b1" data-name="b">
    <path class="st8" d="M173.5,147.1c48.1,47.1,68.6,53,59,56.8-9.6,3.8-40.6-20.5-72.9-52.8-32.2-32.2-52-61-42.3-64.7,9.6-3.8,5,10.7,56.2,60.7Z"/>
    <path class="st17" d="M214,181.3l-16.9,4.4c15.9,15,33.7,21.2,38.7,18.6,5-2.6-8.9-8.8-21.8-23h0Z"/>
    <path class="st17" d="M214,183.1l-13.9,3.5c15.5,14.4,30.7,18.6,34.7,16.8,4-1.8-8.3-6.7-20.8-20.3Z"/>
    <path class="st1" d="M162.2,145.1c0,.2.1,1.2.2,1.6,0,.6,0,1,.1,1.4.2.4.1.7.6.9.3.5.5.6,1,.8.3.2.8.5,1.2.6.5.2.9.2,1.5.1.4-.3.8-.5,1.1-.8,0-.4.2-.9.2-1.2-.1.4-.2.9-.2,1.4,0,.6.2.8.5,1.2M166.8,152.4s0,0,.1-.1c-.3.3-.2.1.5-.2.5-.2,1-.3,1.6-.4h1.7c.7,0,1.1,0,1.6.2.3.3.9.5,1.2.8.4.2.5.5.7.9.3.3.6.8.9,1,.1.5.4.5.6.9-.6,0-1.1.1-1.3.4-.5.2.4-.2.6-.4.4-.1.5-.2,1.1-.2.6-.2.9.1,1.5.2.3.2.4.2.9.2M173.4,157.8c.2,0,1.4.2,1.8,0,.5-.1.8-.4,1.1-.8.2-.3,0,.5,0,.9,0,.6.3.6.6,1.1.4.2.7.5,1.1.6.3.2.7.4,1.1.6.4.1.8.3,1.1.5.4.3.4.6.6,1,0,.5-.1.8-.5,1.1-.1.4-.5.7-.7,1-.3.5-.6.7.1.9.4.2.7,0,1.1,0M181.2,165.5c.3,0,1.4-.4,1.8-.5h1.7c.7,0,.8.2,1.4.4.4.3.6.6,1.1.8.3.3.8.8,1,1.2.2.4.2.9.2,1.4,0,.6-.2.7-.2,1.3-.1.5-.4.9-.7,1.3,0,.1,0,.2-.2.2M187.1,173c0,0,.2.3.3.5.4.4.4.4,1.1.4.5,0,.5-.2.9-.4.2-.3.4-.5.6-.9.1-.2.3-.6.4-.8.2-.3.4-.4.5-.7.2,0,.2-.1.4-.2-.5,0-.5.2-.9.5-.2.2-.3.5-.4.8,0,.4-.2.7-.2,1.1s0,.8.2,1.2c.2.2.4.4.6.6.2.2.5.4.6.7.3.2.5.3.8.5.3.1.6.3,1,.4.5,0,.7-.2,1.1-.4.3-.2.6-.4.9-.6.2-.2.5-.5.6-.7.5-.1.8,0,1.1.2.2.2.4.4.6.6.2,0,.4.3.5.4M196.7,176.6c-.1,0-.6.4-.9.5-.1.4-.4.7-.4,1.2-.1.5-.1,1-.1,1.5.1.6.3.9.5,1.4.3.2.5.4,1,.6.4,0,.9.1,1.4.1.3.1,1,.2,1.3,0,.5,0,.8-.3,1.2-.4.4-.2.6-.4,1.1-.6.2-.3.5-.6.9-1,.3-.4.5-.6.7-1-.2.5-.4.9-.5,1.3-.2.4-.4.6-.4,1.2-.2.4-.1,1-.1,1.5,0,.4,0,1,.2,1.3v.3M212.8,186.2v.2c0-.4,0-.2-.2.6-.3.4-1.1.5-1.7.3-.6-.4-.5-.7-1.6-.9-1,0-1.4.3-1.9.6-.7.3-1,.4-1.4,1.1-.2.5-.3.9.3,1.1.5.4,1.2.5,1.9.6.8,0,1.4,0,1.7.3.6.5.5.8.5,1.7.2.3.2,1.1.3,1.4.5.2.8.3,1.6.3.2-.5.4-1.4.5-1.9.1-.6.2-1.3.5-1.7.3-.4.8-.8,1.2-1.1.2-.3.6-.5,1-.6-.7.3-.8.6-.9,1.4.6.3.8.5,1.7.5,1,0,1.2-.3,1.6-.8,0,.8.3,1,.5,1.7.4.5.5.9.9,1.6-.2.8-.5.8-.5,1.7-.2.6-.2,1.2-.7,1.6-.2.2-.4.3-.9.3,1,0,1.6-.1,2.3-.5.5-.3.9-.6,1.4-.9.6-.4,1.4-.8,2.1-.9.8,0,1.4,0,1.7.3.5.3.8.9,1,1.6.2.8.2,1.4-.2,1.9-.3.6-.4.8,0,1.6.4.5,1,.6,1.9.8.6,0,1.2-.1,1.7-.3"/>
    <path class="st0" d="M118.6,104.7c-21.4-36.9-35.5-68.2-31.6-70,3.9-1.8,24.4,26.7,45.7,63.5l-14.1,6.5Z"/>
    <path class="st11" d="M120,104c-20.6-35.6-34.8-65.6-31.7-67,3.1-1.4,22.4,26.3,42.9,61.8"/>
    <path class="st7" d="M123.5,85.5c2.5,4.2,5.2,8.9,7.7,13.4l-11.3,5.2c-2.6-4.4-5.4-9.1-7.7-13.4l11.3-5.2Z"/>
    <path class="st7" d="M122.6,86.9c2.5,4.2,4.2,7.3,6.8,11.8l-8.4,3.9c-2.6-4.4-4.5-7.6-6.8-11.8l8.5-3.9Z"/>
    <path class="st5" d="M116.5,91.7l5.6-2.6,5,8.6-5.6,2.6-5-8.6Z"/>
    <path class="st7" d="M116.4,91.7l10.6,6M121.5,100.3l.6-11.2M91,47.7l5.6-2.6"/>
    <ellipse class="st18" cx="91.3" cy="42.3" rx="1.4" ry="1.6" transform="translate(29.3 121.5) rotate(-76.8)"/>
  </g>
  <path class="st14" d="M135.3,85c0,30.9.2,42.6-2.1,44.2-2.2,1.7-62.3,0-62.3,8.8s49.6,17.7,64.4,17.7,29.8-8.8,29.8-26.5v-44.2h-29.7Z"/>
  <path class="st12" d="M135.3,93.8v4.4c9.9,1.5,19.9,1.5,29.8,0v-4.4c-9.9,1.5-19.9,1.5-29.8,0ZM135.3,85v4.4c9.9,1.5,19.9,1.5,29.8,0v-4.4c-9.9,1.5-19.9,1.5-29.8,0Z"/>
  <path class="st12" d="M135.3,89.4v4.4c9.9,1.5,19.9,1.5,29.8,0v-4.4c-9.9,1.5-19.9,1.5-29.8,0ZM135.3,98.2v4.4c9.9,1.5,19.8,1.5,29.8,0v-4.4c-9.9,1.5-19.9,1.5-29.8,0Z"/>
  <ellipse class="st3" cx="136.6" cy="91.9" rx="1.4" ry="1"/>
  <ellipse class="st3" cx="142" cy="92.4" rx="1.4" ry="1"/>
  <ellipse class="st3" cx="147.4" cy="92.8" rx="1.4" ry="1"/>
  <ellipse class="st3" cx="152.8" cy="92.8" rx="1.4" ry="1"/>
  <ellipse class="st3" cx="158.2" cy="92.4" rx="1.4" ry="1"/>
  <ellipse class="st3" cx="163.7" cy="91.9" rx="1.4" ry="1"/>
  <path class="st12" d="M135.3,107.1l29.8,23.9M138.2,107.1l26.8,21.2M142.2,107.9l22.8,17.7M145.2,107.9l19.8,15M148.1,107.9l16.9,12.4M151.1,107.9l13.9,9.7M154.1,107.9l10.9,7.1M157.1,107.9l7.9,5.3M160,107.9l5,3.5M163,107.9l2,1.8M135.3,109.7l29.8,23.9M165,107.1l-32.7,26.5M162,107.1l-28.8,23M158.1,107.9l-22.8,17.7M155.1,107.9l-19.8,15M152.1,107.9l-16.9,12.4M149.1,107.9l-13.9,9.7M146.2,107.9l-10.9,7.1M143.2,107.9l-7.9,5.3M140.2,107.9l-5,3.5M137.2,107.9l-2,1.8M165,109.7l-32.7,26.5M165,112.4l-32.7,26.5M165,115l-32.7,26.5M165,117.7l-32.7,26.5M165,120.3l-32.7,26.5M165,123l-32.7,26.5M165,125.6l-32.7,26.5M165,128.3l-32.7,26.5M165,130.9l-30.7,24.8M165,133.6l-27.8,22.1M164,137.1l-21.8,17.7M163,140.7l-17.8,14.1M161,145.1l-8.9,7.1M135.3,112.4l28.8,23M135.3,115l28.8,23M135.3,117.7l27.8,22.1M135.3,120.3l27.8,22.1M135.3,123l26.8,21.2M134.3,124.7l26.8,21.2M134.3,127.4l24.8,19.5M133.3,129.2l24.8,19.4M132.3,130.9l23.8,18.6M132.3,133.6l22.8,17.7M132.3,136.2l19.8,15.9M135.3,102.6v4.4c9.9,1.5,19.8,1.5,29.8,0v-4.4c-9.9,1.5-19.8,1.5-29.8,0ZM132.3,138.9l17.8,14.1M132.3,141.5l15.9,12.4M132.3,144.2l13.9,10.6M132.3,146.8l9.9,8M132.3,149.5l7.9,6.2M132.3,152.1l4.9,3.5"/>
  <ellipse class="st3" cx="136.6" cy="105.2" rx="1.4" ry="1"/>
  <ellipse class="st3" cx="142" cy="105.6" rx="1.4" ry="1"/>
  <ellipse class="st3" cx="147.4" cy="106.1" rx="1.4" ry="1"/>
  <ellipse class="st3" cx="152.8" cy="106.1" rx="1.4" ry="1"/>
  <ellipse class="st3" cx="158.2" cy="105.6" rx="1.4" ry="1"/>
  <ellipse class="st3" cx="163.7" cy="105.2" rx="1.4" ry="1"/>
  <path class="st12" d="M92.6,148.6l35.7-18.6M90.6,147.7l33.7-17.7M89.7,146l30.7-15.9M88.7,144.2l26.8-14.1M86.7,142.4l24.8-12.4M87.7,139.8l16.9-8.8M86.7,138l12.9-7.1M86.7,135.3l8.9-4.4M95.6,149.5l33.7-17.7M98.6,150.4l31.7-16.8M101.6,151.3l29.7-15.9M104.5,152.1l24.8-13.3M108.5,152.1l21.8-11.5M111.5,153l18.8-9.7M114.4,153.9l14.9-7.9M118.4,153.9l11.9-6.2M122.4,154.8l7.9-4.4M126.3,154.8l5-2.7M133.3,129.2h-5c-1.7,8.8-1.7,17.8,0,26.5h5c-1.7-8.8-1.7-17.8,0-26.5ZM74.8,141.5l11.9-8.8M74.8,135.4l11.9,10.6"/>
  <path class="st10" d="M92.6,130.9l-5.9.9c-1.3,5.6-1.3,10.3,0,15.9l5.9,1.8c-1.3-5.6-1.3-13,0-18.6h0Z"/>
  <path class="st15" d="M165,86.7v-4.5c-4.4,0-7.4-2.6-7.4-5.3h-14.9c0,2.7-3,5.3-7.4,5.3v4.4h29.7Z"/>
  <path class="st19" d="M143.8,71.7h12.7v5.3h-12.7v-5.3ZM144.8,66.4h10.6v5.3h-10.6v-5.3ZM144.8,61.1h10.6v5.3h-10.6v-5.3Z"/>
  <path class="st19" d="M145.9,54h8.5v7.1h-8.5v-7.1Z"/>
  <path class="st13" d="M145.5,47.8h9.2v6.2h-9.2v-6.2Z"/>
  <ellipse class="st16" cx="150.6" cy="42.1" rx="12.3" ry="8.4"/>
  <path class="st4" d="M156.8,41.6c0,2.3,3.1,6.2,3.1,6.2-2.2,1.5-5.8,2.7-9.2,2.7s-7.6-.6-9.2-2.7c0,0,3.1-3.9,3.1-6.2s-3.1-5.3-3.1-5.3c2.2-1.5,5.8-2.7,9.2-2.7s7,1.1,9.2,2.7c0,0-3.1,3-3.1,5.3Z"/>
  <path class="st4" d="M154.7,41.6c0,2.3,3.1,7.1,3.1,7.1-2.2,1.5-3.8,1.8-7.2,1.8s-5.6.3-7.2-1.8c0,0,3.1-4.8,3.1-7.1s-3.1-6.2-3.1-6.2c2.2-1.5,3.8-1.8,7.2-1.8s4.9.2,7.2,1.8c0,0-3.1,3.9-3.1,6.2Z"/>
  <ellipse class="st16" cx="138.3" cy="42.5" rx="3.1" ry="2.7"/>
  <ellipse class="st16" cx="162.9" cy="42.5" rx="3.1" ry="2.7"/>
  <ellipse class="st16" cx="150.6" cy="42.5" rx="3.1" ry="2.7"/>
  <ellipse class="st16" cx="150.6" cy="33.7" rx="3.1" ry="2.7"/>
  <ellipse class="st16" cx="141.6" cy="84.1" rx="3.2" ry="2.7"/>
  <ellipse class="st16" cx="158.6" cy="84.1" rx="3.2" ry="2.7"/>
  <path class="st6" d="M142.7,77h14.9l-7.4,8-7.4-8Z"/>
  <ellipse class="st16" cx="150.1" cy="83.2" rx="4.2" ry="3.5"/>
  <path class="st9" d="M135,109.7h20.3c.7,0,1.2.4,1.2.9v3.4c0,.5-.6.9-1.2.9h-20.3c-.7,0-1.2-.4-1.2-.9v-3.4c0-.5.6-.9,1.2-.9Z"/>
  <path class="st17" d="M163.5,105.3c-2.8,0-5,2.1-5,4.6v4c0,2.6,2.2,4.6,5,4.6s5-2.1,5-4.6v-4c0-2.6-2.2-4.6-5-4.6ZM163.5,107.1c-1.6,0-3,1.7-3,3.7v2.3c0,2.1,1.3,3.7,3,3.7s3-1.6,3-3.7v-2.3c0-2.1-1.3-3.7-3-3.7ZM137.7,106.2c-1.6,0-3,1.6-3,3.7v4.1c0,2.1,1.3,3.7,3,3.7s3-1.7,3-3.7v-4.1c0-2.1-1.3-3.7-3-3.7ZM137.7,104.4c-2.8,0-5,2.1-5,4.6v5.8c0,2.6,2.2,4.6,5,4.6s5-2.1,5-4.6v-5.8c0-2.6-2.2-4.6-5-4.6Z"/>
  <path class="st17" d="M129.8,107.9c-1.6,0-3,1.7-3,3.7v1c0,2.1,1.3,3.7,3,3.7s3-1.7,3-3.7v-1c0-2.1-1.3-3.7-3-3.7ZM129.8,106.2c-2.8,0-5,2.1-5,4.6v2.7c0,2.6,2.2,4.6,5,4.6s5-2.1,5-4.6v-2.7c0-2.6-2.2-4.6-5-4.6Z"/>
  <path class="st17" d="M117.9,105.5c-3,0-5.3,1.8-5.3,4.1v4.6c0,2.3,2.4,4.1,5.3,4.1s5.3-1.8,5.3-4.1v-4.6c0-2.3-2.4-4.1-5.3-4.1ZM117.9,103.5c-4.9,0-8.9,2.3-8.9,5.2v6.5c0,2.9,4,5.2,8.9,5.2s8.9-2.3,8.9-5.2v-6.5c0-2.9-4-5.2-8.9-5.2ZM182.4,106.4c-3,0-5.4,1.8-5.4,4.1v4.6c0,2.3,2.4,4.1,5.4,4.1s5.4-1.8,5.4-4.1v-4.6c0-2.3-2.4-4.1-5.4-4.1ZM182.4,104.4c-4.9,0-8.9,2.3-8.9,5.2v6.5c0,2.9,4,5.2,8.9,5.2s8.9-2.3,8.9-5.2v-6.5c0-2.9-4-5.2-8.9-5.2h0Z"/>
  <path class="st9" d="M166.1,109.7h10.6c.4,0,.6.4.6.9v3.4c0,.5-.3.9-.6.9h-10.6c-.4,0-.6-.4-.6-.9v-3.4c0-.5.3-.9.6-.9Z"/>
  <path class="st9" d="M155,108.8h6.2c.2,0,.4.6.4,1.3v4.6c0,.7-.2,1.3-.4,1.3h-6.2c-.2,0-.4-.6-.4-1.3v-4.6c0-.7.2-1.3.4-1.3Z"/>
  <path class="st9" d="M122.3,108.8h6.2c.2,0,.4.6.4,1.3v4.6c0,.7-.2,1.3-.4,1.3h-6.2c-.2,0-.4-.6-.4-1.3v-4.6c0-.7.2-1.3.4-1.3Z"/>
  <path class="st9" d="M100.8,107.9h12.4c.4,0,.8.7.8,1.6v5.7c0,.9-.3,1.6-.8,1.6h-12.4c-.4,0-.8-.7-.8-1.6v-5.7c0-.9.3-1.6.8-1.6Z"/>
  <path class="st9" d="M187,108.8h11.5c.4,0,.7.7.7,1.6v5.7c0,.9-.3,1.6-.7,1.6h-11.5c-.4,0-.7-.7-.7-1.6v-5.7c0-.9.3-1.6.7-1.6Z"/>
</svg>