<?xml version="1.0" encoding="UTF-8"?>
<svg id="Calque_1" xmlns="http://www.w3.org/2000/svg" version="1.1" viewBox="0 0 900 600">
  <!-- Generator: Adobe Illustrator 29.4.0, SVG Export Plug-In . SVG Version: 2.1.0 Build 152)  -->
  <defs>
    <style>
      .st0 {
        fill: #fff;
      }

      .st1 {
        fill-rule: evenodd;
      }
    </style>
  </defs>
  <path class="st0" d="M0,0h900v600H0V0Z"/>
  <path d="M0,300h450v300H0v-300Z"/>
  <path d="M450,0h450v300h-450V0Z"/>
  <path class="st1" d="M675,375l16.8,51.8h54.5s-44.1,32-44.1,32l16.8,51.8-44.1-32-44.1,32,16.8-51.8-44.1-32h54.5s16.8-51.8,16.8-51.8Z"/>
  <path class="st1" d="M225,75l16.8,51.8h54.5s-44.1,32-44.1,32l16.8,51.8-44.1-32-44.1,32,16.8-51.8-44.1-32h54.5s16.8-51.8,16.8-51.8Z"/>
</svg>