<?xml version="1.0" encoding="UTF-8"?>
<svg id="Calque_1" xmlns="http://www.w3.org/2000/svg" version="1.1" viewBox="0 0 1080 720">
  <!-- Generator: Adobe Illustrator 29.4.0, SVG Export Plug-In . SVG Version: 2.1.0 Build 152)  -->
  <defs>
    <style>
      .st0 {
        stroke: #fff;
        stroke-width: 3.4px;
      }

      .st0, .st1 {
        fill: #fff;
      }
    </style>
  </defs>
  <rect width="1080" height="720"/>
  <rect class="st1" width="1080" height="540"/>
  <rect width="1080" height="360"/>
  <g>
    <g id="h">
      <path id="q" class="st1" d="M1002.6,188.1l-80.4,4.7,76.5,25.3-78.9-16.3,67.3,44.3-72-36.1,53.5,60.2-60.2-53.5,36.1,72-44.3-67.3,16.3,78.9-25.3-76.5-4.7,80.4-1-117.1,117.1,1h0Z"/>
      <path id="q1" class="st1" d="M1002.6,188.1l-80.4-4.7,76.5-25.3-78.9,16.3,67.3-44.3-72,36.1,53.5-60.2-60.2,53.5,36.1-72-44.3,67.3,16.3-78.9-25.3,76.5-4.7-80.4-1,117.1,117.1-1h0Z"/>
    </g>
    <g id="h1">
      <path id="q2" class="st1" d="M770.4,188.1l80.4,4.7-76.5,25.3,78.9-16.3-67.3,44.3,72-36.1-53.5,60.2,60.2-53.5-36.1,72,44.3-67.3-16.3,78.9,25.3-76.5,4.7,80.4,1-117.1-117.1,1h0Z"/>
      <path id="q3" class="st1" d="M770.4,188.1l80.4-4.7-76.5-25.3,78.9,16.3-67.3-44.3,72,36.1-53.5-60.2,60.2,53.5-36.1-72,44.3,67.3-16.3-78.9,25.3,76.5,4.7-80.4,1,117.1-117.1-1h0Z"/>
    </g>
    <circle class="st0" cx="886.5" cy="188.1" r="34.3"/>
  </g>
</svg>