<?xml version="1.0" encoding="UTF-8"?>
<svg id="Calque_1" xmlns="http://www.w3.org/2000/svg" version="1.1" viewBox="0 0 900 600">
  <!-- Generator: Adobe Illustrator 29.4.0, SVG Export Plug-In . SVG Version: 2.1.0 Build 152)  -->
  <defs>
    <style>
      .st0 {
        fill: #fff;
      }
    </style>
  </defs>
  <path d="M900,600V0H0v600h900Z"/>
  <path class="st0" d="M636.9,160.6c5.1-3.6,9.8-7.7,15.5-10.6-1.6,6.5-6.5,11.5-11.5,15.6-2.5,2-1.4,5.6-1.7,8.4-1.4-.3-2.7-.7-4.1-1.1,1.3,16.5,3.1,32.9,3.9,49.5.1,1.9.2,3.9,1.9,5.1,7.6,6.8,15.5,13.6,21.1,22.3,2.2,3.4,3.4,7.3,4.5,11.1,1.2-6.4,1.4-13,.6-19.5-2.8-25.1-5.3-50.3-7.5-75.6-.2-3.1-.7-6.3-.3-9.4.4-3,3-5.2,6-5.1,1.6,1.5,2.8,3.4,3.6,5.4,2.3,5.2,4.4,10.8,3.8,16.6-1.4-.4-2.8-1-4.3-1.5,2.1,17.1,4.2,34.2,5.4,51.3.6,11.6,2.3,23.2-.1,34.7-2.1,10.6-7.3,21.3-16.6,27.3-7.8,5.1-16.8,7.9-25.8,9.8-3.6.9-7.5,1-11.1.1,3.8-2.1,8.1-3.6,12.2-5.4,5.9-2.4,11.5-5.4,16.9-8.8,5-3.3,10.2-6.6,13.9-11.5-4.6-12.3-12.3-23.9-23.2-31.5.3,12.1.9,24.5-.9,36.5-.3,2.8-1.6,5.4-3.6,7.4-1.3-5.1-1.4-10.4-2-15.5-1-11.3-2-22.5-2.8-33.8,0-2.3-1.5-4.1-3.2-5.4-6.8-5.7-13.2-12.1-19.8-18.1.2,6.9,1.3,13.8,1.7,20.6.8,9.3.9,18.5,1.9,27.8.6,6.5.7,13.3-1.7,19.5-2.4,5.8-7.9,10.8-14.4,11.2-3.4.3-6.9,0-10.3-.6-3.6-.6-6.4-3.3-8-6.4-2-3.7-3-7.9-4.6-11.8-3,.7-6.1,1.3-8.3,3.6-4.6,4.4-6,11.1-8.2,16.9-1.3,3.4-2.8,7.2-6.1,9-3.5,2-7.8,1.2-11.1-.7-5.1-2.8-8.2-8-9.7-13.4-1.5-4.2.6-9-2-13-1.9-3.6-.8-7.9.1-11.7,2-6.7,6.1-12.4,11.1-17.3l-19.8-17.2c.6,15.9,1.9,31.7-.2,47.5-.3,3.2-1.6,6.2-3.8,8.5-.7-3-1.2-6.1-1.4-9.1-1.6-17.4-3-34.8-4.2-52.2-.1-2-.5-4.2-2.1-5.5-6.8-6.4-13.2-13.2-19.2-20.4-3.5-4.4-7.1-8.9-8.9-14.2-.7-2.2-1.3-5.3.8-6.9,2.4.4,4.7,1.2,6.7,2.4,3.9,2.3,7.4,5.1,10.5,8.4,1.3,1.5,2.2,3.3,2.7,5.2-2,0-3.8-.1-5.8-.1,3.9,5.7,8.6,10.8,13.9,15.2-.5-14.8-2.1-29.6-2.8-44.4,0-2,0-4.2,1.4-5.8,1.3-1.4,3.2-2,5-2.6,3.2,4.8,5.6,10.1,6.9,15.6.5,2.2.6,4.5.3,6.8-1.4-.3-2.8-.8-4.1-1.2.9,12,2.2,23.9,3,35.9,0,1.7.3,3.4.7,5.1.7,1.1,1.6,2,2.7,2.9,8.2,6.9,16.4,13.9,24.8,20.6,5-4.3,9.8-8.7,14.8-12.9,1.2-.9,2.2-1.9,3.2-3,.9-1,.6-2.4.6-3.6-1.6-14.4-2.8-28.9-4.1-43.3-.3-5.3-1.2-10.5-1.2-15.6-.1-3.1,2.3-6.2,5.4-6.3,1.4-.1,2,1.4,2.7,2.3,2.3,4.1,4.1,8.5,5.1,13.1.5,2.3.4,4.6-.1,6.8-1.3-.6-2.7-1.2-3.9-1.8,1.7,13.6,3.1,27.1,4.4,40.7,3.6-2.6,6.8-5.7,10.2-8.6,3.7-3.2,7.6-6.3,11.2-9.7-4.3-4.6-8.8-8.9-13.2-13.4-2.8-2.9-6.1-5.6-7.3-9.7-.9-2.9-.3-5.9.2-8.7,5.2.9,9.7,4,13.9,7.1,2.8,2.2,5.5,4.7,8,7.3-.2-5.7-.9-11.5-1.4-17.2,0-2.2-.2-4.6,1.3-6.4,1.3-1.4,3.2-2,4.9-2.8,3.2,4.5,5.6,9.6,6.8,15,.6,2.4.8,4.8.6,7.3-1.4-.3-2.9-.7-4.3-1,.5,4.4.9,8.7,1.5,13.1,5.4-4.1,10.4-8.7,15.9-12.8,1.9-1.8,5.2-3.1,5.2-6.2.1-3.3-.6-6.7-.1-10,.4-3,3-5.1,6-5,2.8,2.6,3.8,5.9,5.3,8.8h0ZM608.7,192.4c-.9,1-2.7,1.9-2.5,3.5.7,1.4,2.1,2.5,3.2,3.7,6.7,6.1,13.1,12.4,20.2,18-.2-6.5-.9-12.9-1.3-19.4-.6-6.8-.8-13.7-1.5-20.5-6.3,4.5-11.9,9.8-18.1,14.7ZM591.6,180.4c1.5,1.7,2.9,3.3,4.4,5,0-1.7-.1-3.3-.1-5h-4.3ZM575.4,220.6c-1.2,1-2.5,2.1-2.4,3.7-.1,8.4.8,17-1.3,25.1-.5,2.1-2,3.5-3.5,4.8-1.9-8-2-16.3-3.4-24.5-5,4-9.7,8.3-14.4,12.6,2.7,3,5.3,6.2,6.3,10.2,1.6,5.8-.3,12-4.9,15.9-5.7,4.7-13.3,5.5-20.4,6.4,1,4.6,2,9.5,4.7,13.4,1.7,2.3,4.5,4.5,7.5,3.6,3.2-.9,5.2-4,6.4-6.8,2.2-5.9,5-11.5,8.3-16.9,2.8-4.4,7.3-8,12.6-8.2,1.7.1,4.1-.4,5.1,1.4,2.3,3.9,3.1,8.5,6,12.1,4.9,6.4,15.2,6.5,21,1.2,2-1.8,2-4.6,1.7-7.1-2.7-21.9-4.6-44.1-7-66-7.8,6.1-15.1,12.4-22.6,18.7h0ZM534.5,258.1c-1.2,1.8-2.1,3.7-2.5,5.8,5.2.6,10.5-.6,15.1-3.2,1.4-.9,3-2.3,2.7-4.2-.3-3.7-3.5-6.4-6.3-8.6-3.2,3.1-6.2,6.5-8.9,10.1h0ZM317,151.2c1.4-.9,2.7.7,3.6,1.7,2.8,3.4,5.8,6.8,7.4,11-1.4.2-2.9.4-4.3.7.3,6.6,5.9,11.1,7.5,17.4,1.1,3.9,1.3,8,.5,11.9-1.2,5.5-5.5,9.7-11,10.8-6.4,1.1-13.6-.4-18.3-5.2-3.1-3.1-4.3-7.5-5.7-11.5-1.5,5.4-3.7,10.6-7.5,14.8-2.3,2.4-5,4.4-8,5.8.8,14.8,2.3,29.5,1,44.2-.5,4.2-.7,9.1-4.5,11.9-1.4-5.8-1.6-11.9-2.3-18-1.3-12.2-2.2-24.5-3.5-36.7-3.6-.9-7.5-1.7-10.3-4.3-4.6-4.2-6.1-10.7-5.8-16.6.1-4.6,1.6-9.1,2.7-13.7-1.8,1.7-3.1,3.8-3.9,6.2-2.4,7.4-4.1,15.1-7.4,22.1-1.2,2.8-3.7,5-6.7,5.7-3.7.8-8.1.6-11-2.3-3.1-3.1-3.8-7.7-4.3-11.9-.2-4.3-.6-8.9,1.4-12.9,1.2-2.4,3.6-3.7,5.7-5-1.4,2.3-3,4.6-3.4,7.3-.5,3.7.2,7.6.9,11.2.5,2.2.9,4.6,2.7,6.2,2.8,2.4,7,2.3,9.7-.2,1.3-1.6,2.2-3.4,2.8-5.4,2.3-7.1,4.2-14.3,7.1-21.2,2.5-5.7,7.1-11.3,13.6-12.6-.7,7.8-4.3,15.1-4.5,23-.1,3.5.2,7.4,2.5,10.1,1.7,2.3,4.6,3.1,7.3,3.9-.7-10.7-1.7-21.4-2.4-32.2-.2-4-.9-8-.2-12,.6-2.8,3.6-3.7,5.9-4.6,4.4,6.5,7.6,14.2,7.5,22.1-1.5-.3-2.9-.7-4.4-1,.9,9.1,1.9,18.4,2.9,27.5,3.9-1.1,7.2-3.6,9.5-6.9,4.5-6.5,5.2-15,3-22.5-.9-3.2-2.4-6.2-3.1-9.5-.7-3.1,1.5-6.3,4.3-7.3,1.3-.6,1.9,1,2.4,1.9,1.7,3.7,2.3,7.9,3.1,12,1,5.4,0,11,2,16.2,1.5,4.5,4.6,8.3,8.7,10.8,3.4,1.8,7.3,2.4,11.1,1.7,1.9-.4,3.4-1.9,3.8-3.7.9-3.5-.3-7.2-1.9-10.4-3.5-7.3-7.8-14.2-9.4-22.1-.6-2.9.2-6.8,3.2-8.6h0Z"/>
  <path class="st0" d="M476,159.7c2.3-3.7,5.6-6.7,9.6-8.5-1.1,2.6-2.5,5.1-4.2,7.5-1.2,1.8-1.2,4-1.3,5.9,2.7-.1,5.3-.5,7.9-1.2-.7,2.1-1.4,4.3-3.4,5.6-2.2,1.5-5.4,2.5-7.8.7-2.4-2.8-2.8-6.8-.9-10ZM332.4,154.8c1.2-1.8,3.4-2.4,5.1-3.2,3.5,4.7,5.9,10.1,7.2,15.9.4,2.2.5,4.4.1,6.6-1.3-.4-2.7-.9-3.9-1.3,1.5,10.7,3.4,21.3,4.6,31.9,6.1-3,11.8-6.6,18.2-9.3,2-.8,4.1-1.4,6.3-1.5-.8,1.8-1.7,3.5-3.6,4.3-6.7,3.4-13.6,6.4-20.2,10.1.6,5.3,1.2,10.7,1.9,16,3-3.9,5.7-8.7,10.9-9.9.2,2.9-.7,6.3,1.4,8.6,3.2,2.5,7.6,1,10.7-1.3-.2-4.2.9-8.3,1.7-12.3,1.3.6,2.9.8,3.4,2.3,1.4,3.9,1,8.2,0,12-1,4.4-4.6,7.7-8.6,9.7-2.4,1.2-5.4,1.9-8.1.8-2.8-1.1-4.5-3.7-6.4-6.1-1.6,4-4.3,7.6-4.4,12.1-.6,9.5-4,18.5-9.8,26-9.8,12.9-24.9,20.6-40.2,25.1-8.8,2.4-18,4.6-27.2,4.2-5,0-10-1.3-14.4-3.9-1.9-1.2-3.5-2.9-5.3-4-2.3-.4-4.7.2-7.2.2-5.8.2-11.6.4-17.3-.5,6.9-2.3,14-4.1,20.8-6.6-1.9-12.5.6-25.2,6.9-36.1,1.7-2.8,3.8-5.4,6.3-7.6-2,4-4.4,7.8-5.4,12.2-2.5,9.3-2.3,19,.5,28.2,4.7-1.5,9.4-3.6,13.9-5.6,10.5-4.6,20.8-9.6,30.5-16,3.6-2.5,7.3-5.2,9.7-9,1.2-1.9.9-4.1.9-6.2-5,1-9.8,3.3-15.1,3.2-3.2-.2-6.7-.9-9-3.4s-2.4-6.2-2-9.4c.6-4.3,2.7-8.2,5.9-11.1,3.8-3.2,9.5-3.1,13.9-1.1,4.3,2,6.7,6.2,8.8,10.1,6.5-2.4,10.9-8.2,17.3-10.9.2,3.3-.1,7.2,2.4,9.8,1.5,1.9,4.1,1.8,6.1,2-.3-5.3-1.2-10.5-1.9-15.6-2.2-17.3-4.4-34.7-6.3-52.1-.1-2.5-.5-5.2.8-7.3h0ZM292.8,230.1c-.6,1.2.8,2,1.7,2.4,3.5,1.2,7.3.4,10.9-.2-1.9-2-4.1-4.2-7.1-4.3-2-.1-4.7,0-5.6,2.1h0ZM318.1,237.3c.2,3.5.3,7.1-.8,10.4-1.9,5.6-6.1,10.1-10.5,13.9-8.5,6.9-18.4,11.5-28,16.5-4.4,2.5-8.9,4.6-13.5,6.5,5.9.4,11.8-.6,17.6-1,8.9-.6,17.5-3.1,25.7-6.4,8.6-3.5,16.9-8,23.6-14.7,4.2-4,7.2-9,8.7-14.5.6-2.8.8-5.6.8-8.5-3.5-.1-7.2,0-10.3-1.8-2.5-1.4-3.9-4.2-5.4-6.6-2.4,2.3-5,4.3-7.8,6.2h0ZM412.2,154.5c1.3-1.4,3.6-1.2,5.1-.2,3.4,2.3,5.3,6.2,5.1,10.2-.3,1.8-.8,3.5-1.5,5.2-.5-2.5-.3-5.2-1.5-7.5-1.7-2.4-5-2.9-7.1-4.8-.8-.7-1.2-2.2-.1-2.9Z"/>
  <path class="st0" d="M459.7,155.8c.2-1.5,1.7-3.2,3.4-2.3,4.5,2.2,7.8,6.4,9.8,10.9-1.6,0-3.2-.1-4.7-.2.7,3.1,1.7,6.1,2.9,9,1.7,4.2,4.2,8.2,4.9,12.8.8,5.1-.1,10.8-3.7,14.7-6.7,7.5-20.2,6.2-25.9-1.9-2.2-2.9-3.4-6.2-4.5-9.6-1.9,7.3-5.8,14.3-12.4,18.1-6.9,3.9-15.4,3.6-22-.8-4-2.5-6.5-6.9-6.6-11.6-.5-6.8,2.2-13.2,3.1-19.8-1.7,1.6-3,3.6-3.8,5.8-2.8,7.4-3.9,15.3-7.9,22.3-1.9,3.3-5,6.3-8.9,6.6-3.8.2-8-1.2-10.2-4.5-2-3.1-2.4-6.8-2.4-10.5,0-5.6,1.4-11,3.9-16,0,6.9-2.1,14.5,1.4,21,1.7,3.6,6.4,5.7,10,3.7,3.2-2,4.7-5.7,5.9-9.1,2.4-7.3,5-14.7,8.6-21.5,1.5-2.8,3.1-5.6,5.7-7.6,1.3-1.1,3.1-1.1,4.7-1.4.3,6.2-3.1,11.6-4.3,17.5-1.2,5.2-1.5,11.3,2.2,15.6,4.2,4.5,11.1,5.6,16.9,4.1,8-2.5,13.8-10.6,14.1-18.9.2-5,.5-10.4-2.2-14.8-1.2-2.3-3.4-4.7-2.4-7.6.7-2.8,2.5-5.1,5.1-6.4,1.9,2.7,3.1,5.8,3.6,9,.9,7.6,1,15.4,3.7,22.7,1.6,4.2,4.1,8.5,8.3,10.5,3.9,1.9,8.8,2.3,12.6.3,2.4-1.2,3-4.2,2.4-6.6-1.6-7.9-7.1-14.2-9.6-21.8-1.4-3.9-2.4-7.8-1.6-11.8h0ZM537.5,154.2c2.4-1.1,5.9-.2,7.1,2.3.3,1.2-.2,2.4-1.3,3-1.6-.4-3.2-1.1-4.7-1.9-2,3.7-3,7.9-4.2,12.1-.7-2-1.6-4-2.8-5.8-1.6-2.2-4.2-3.3-6-5.3-.6-1.8,1.5-3.7,3.2-3.2,2.5.8,4.1,3.1,5.6,5.2.7-2.3,1-5.1,3.1-6.4h0ZM226,163.4c2-4.2,5.8-7.3,10-9.3-1,2.8-2.8,5.1-4.2,7.6-1.2,1.8-1,4-1.2,5.9,2.7-.2,5.4-.8,8-1.7-.8,2.1-1.6,4.4-3.6,5.8-2.1,1.5-5.2,2.4-7.4.9-2.5-2.2-3-6.3-1.6-9.4h0Z"/>
  <path class="st0" d="M374.1,157.8c.7-3.6,6.1-3.5,7.9-.8,1.2,2,1.7,4.1,2.9,6.1,1,2,2.3,4.1,1.6,6.4-1,3.6-3.7,6.5-4.1,10.4,1.3-.6,2.5-1.2,3.8-1.9-.3,2,0,4.6-2.1,5.7-2.5,1.2-5.7-1.2-5.4-4,.3-5,5.2-8.8,3.7-14.1-4.9,6.5-11.6,12.3-19.8,13.6,3.6-2.9,7.6-4.8,10.9-8.2,1.9-2.1,3.6-4.4,4.9-6.9-1.7-1.8-4.7-3.4-4.3-6.3h0ZM377.5,157.5c.8,1.2,1.8,2.2,3,2.9-.5-1.4-1.6-2.5-3-2.9ZM348.4,160.1c1.7-.4,3.8-1.1,5.2.4,4.2,4,6.1,9.9,4.7,15.5-.9-2.1-1.6-4.3-2.7-6.3-1.7-3.7-5.6-5.9-7.3-9.7h0ZM311.1,162.4c1.7,1.8,2.5,4.3,2.2,6.7-2.8.4-5.6,1.2-8.3,1.9-1.6.4-3.1-.6-3.5-2.2,0,0,0,0,0,0,0-1.6.3-3.3.8-4.8.6,1.7,1.2,3.3,1.7,5.1.7-.3,1.5-.6,2.2-.9v-4.5h1.6c.2,1.3.5,2.8.7,4.1.9-.1,1.7-.2,2.7-.3-.1-1.7-.1-3.3-.1-5h0ZM546.3,166.1c2.3-.6,4.6-.9,6.9-.9-1.1,1.4-2.5,2.5-4.1,3.2-8,3.2-16.2,5.5-23.9,9.6.7,1.4,1.4,2.8,2.1,4.2-1.9-.3-4.1-.3-5.4-1.9-1.2-1.2-1.3-3.1-.2-4.4,0,0,.2-.2.3-.3,1.3-.9,2.7-1.6,4.2-2.2,6.6-2.4,13.2-5.2,20-7.4h0ZM425.3,171.8c.9-.7,1.9-1.3,2.9-1.9-.1,3,.9,5.6,2.2,8.3s.2,6.4-2.9,7.1c-2.7.9-5.1-.8-6.9-2.3-1.5,1.3-3.1,3.1-5.3,2.8-4.1-.2-6-5-5.2-8.5.3-2.3,2.2-3.7,3.8-5.2-.2,2.4-1.2,4.8-.6,7.3.5,1.7,2.4,1.7,3.8,2.2.5-2.6.6-5.4,1.3-8.2.2-1.4,2-1.5,2.9-2.2.2,2.3.1,4.6.8,6.8.6,1.7,2.5,2.2,3.9,3,.7-3.2-.7-6.2-.7-9.1h0ZM305.1,176c1.7,0,3.8-.3,5.2,1.1,4.1,4,5.8,9.8,4.4,15.3-1.4-3.6-2.5-7.6-5.6-10.4-1.9-1.7-3.7-3.5-4.1-6.1h0ZM544.8,189.9c.9-.9,1.8-1.7,2.9-2.4.1,2.7.8,5.3,2.1,7.7,1.2,2.4,1.2,6.3-1.7,7.4-2.7,1.2-5.4-.2-7.6-1.8-1.7,1.3-3.8,3-6.3,2.3-3.6-.8-5.1-5-4.5-8.3.2-2.4,2.3-4,3.9-5.5-.3,2.5-1.4,5.1-.7,7.6.6,1.7,2.5,1.3,3.9,1.7.5-2.9.2-5.8,1.4-8.5.9-.6,1.9-1.2,2.9-1.5.1,2.5-.3,5.3.9,7.6.8,1.4,2.5,1.5,3.9,2-.1-2.8-.9-5.5-1.2-8.3h0ZM641.1,193.8c-.5-1.4.2-2.9,1.5-3.4.3-.1.7-.2,1-.2,2.9,0,5.1,2.4,6.5,4.7,2.4,4.7,3.6,10.5,1.6,15.5-1-4.5-.9-10.2-5.1-13.2-1.9-1.1-4.1-1.8-5.6-3.5h0ZM481.1,203.8c1.3-1.4,3.3-1.9,5.2-1.4,2.3,2.2,1.9,6.2,0,8.5-3.4,4.4-8.9,6.5-14.4,6.5,3.4-2,7.2-3.1,10.2-5.6,1.4-1,1.2-2.9,1.4-4.4-1.6.2-3.2.6-4.7.8.6-1.5,1.4-3,2.3-4.3h0ZM559,207.2c1-.2,2.4-.9,3.1.2-.8,2.6-3.6,3.7-5.8,4.8-8.3,3.9-16.4,8.2-24.7,12.3-.3-.8-.8-1.4-1.2-2.2,4.6-3.4,9.7-5.9,14.7-8.7,4.6-2.3,9-4.8,13.8-6.5h0ZM402,213.7c.2-1.7,1.4-2.9,2.3-4.1,6.4,6.9,11.8,15,14.7,24.1,2.8,8.7,3.5,17.8,5.2,26.8.9,4.5,1.7,9.3,4.7,12.9,2,2.5,4.9,4.1,7.6,5.6.6-2.9,1.3-5.9,3.9-7.6,8.1-5.4,17.5-8.7,26.8-11.7-7.5-.2-15.2,0-22.7-.1-6.1-.1-12.3.4-18.3-.7.2-2.3.2-4.7,1.6-6.8,2.8-4.6,7.6-7.3,12.3-9.7,7-3.7,14.3-6.7,21.9-8.9-2-2.1-5-4.4-4.2-7.8,1.4-4,4.9-7.9,9.3-7.8,4.9,0,9.6,2,13.8,4.4,2.5,1.7,5.7,3.4,6.6,6.5-.3,2.2-1.1,4.3-2.5,5.9-2.7,3.3-7.4,3.1-11.4,3.5-.2,2.6-.6,5.8-3.2,7.1-.8-2.1-1.6-4.1-2.5-6.2-9.6,1.8-18.2,6.7-25.7,12.7,21.3.1,42.5-.4,63.8-.3,1.4.1,2.8.2,4.2.4-.9,5.6-6.6,8.4-11.6,9.6-10.1,2.2-20.2,4.2-30.2,6.2-7.5,1.5-15.2,3.3-22,6.7-2.5,1.3-4.7,3.3-6.4,5.6,5,1.8,10.2,3.1,15.4,4,1.7.4,4.2.8,4.6,2.9.7,2.8.8,6.6-1.9,8.4-3.4.8-6.8,0-10.2-.5-9.3-1.4-18.2-6.3-23.5-14.2-4.1-5.7-5.2-12.9-6.3-19.7-2.6,3.8-5.5,7.4-8.8,10.6-9,8.5-19.9,14.7-31.3,19.6-3.9,1.8-8.9,2.3-12.9-.1-2.8-1.7-3.8-5.1-5-7.9-10.5,5.4-21.3,10.6-33,12.8-7.2,1.4-14.5,2.2-21.8,2.2,3.8-1.9,7.8-3.3,11.6-4.8,12.7-5.3,25.2-11.2,37.5-17.6,1.5-.9,3.4-1.7,4.4-3.1,1.2-3.2,1.3-6.6,3-9.7,1.9-3.6,4.7-6.7,8.2-8.8-2.2,4.8-4.5,9.8-5.2,15.1,7.5-4.4,14.5-9.7,20.7-15.8,1.6-1.8,3.9-4,3-6.6-1.2-3.7-3.1-7.1-4.5-10.7-2.1-5.3-4.6-10.8-4.1-16.6.1-1.9,1.5-3.3,2.4-4.7,5.1,3.3,8.3,8.7,11.2,13.9-1,.2-2.2.4-3.2.7,2,5.4,5.2,10.2,6.1,16,.8,4.5-.5,9.1-3.5,12.6-7.9,8.5-17.6,14.9-26.8,21.8,1.6.9,3.4,2.1,5.3,2,3.8-.1,7.5-1.4,11-2.9,12.7-5.6,23.2-15,33.9-23.7-2.7-10.4-7.4-20.1-12.4-29.5-2-3.5-2.8-7.6-2.4-11.6h0ZM463.5,227.3c1.3,1.8,3,3.2,5.1,4,3.1.7,6.1-1.2,8.5-3.2-2.9-2.2-6.3-4-10-4s-3.6,1.4-3.6,3.2h0ZM242.7,213.7c0-1.4,1.2-2.6,2.7-2.6,3.9-.4,6.7,2.8,9.1,5.3,1.3,1.3,2.3,3.1,1.5,5-.5,2.1-2.9,2-4.5,2.4-3.5.2-4.9,4-7.5,5.6-5.3,3.6-11.9,6.5-18.5,5.6,1.6-2.3,4.3-3.3,6.8-4.1,4.7-1.5,8.6-5,12-8.5-.9-2.9-2.1-5.7-1.6-8.7h0ZM244.9,214.1c.2,1.9.8,3.8,1.7,5.5.7-1.6,1.4-3.1,2-4.7-1.2-.3-2.5-.6-3.7-.8h0ZM250.1,221.3c1.3-.1,2.5-.3,3.8-.4-.2-1.7-.6-3.3-1.3-4.8-1.6,1.2-1.9,3.4-2.5,5.3h0Z"/>
  <path class="st0" d="M439.3,214.6c.8-.8,1.7-1.5,2.8-2,0,3.9,2.8,6.8,3.1,10.6.3,3.9-4.6,5.8-7.6,4.1-.9-.7-1.7-1.4-2.5-2.1-1.6,1.4-3.4,3.5-5.8,3-3.7-.7-5.7-5-5-8.5.3-2.4,2.3-4,4.1-5.4-.3,2.3-1.2,4.5-.9,6.9.2,1.8,2.2,2.3,3.6,3.1.8-2.7,1.3-5.5,1.6-8.4.2-1.5,2.1-1.8,3.1-2.5.1,2.3,0,4.7.7,6.9.7,1.5,2.3,2.3,3.6,3.2,1.4-3-.6-5.9-.7-8.9h0ZM254.5,228.7c2-.9,4.1-2,6.3-2.2,2.1-.1,3.1,3.1,1.5,4.4-2.4,1.9-5.3,2.6-8.1,3.9-6.5,3.1-13,6.1-19.3,9.5-1.4.9-3.1.7-4.6.4.9-1.9,2.3-3.6,4.1-4.7,6.7-4.1,13.4-7.8,20.3-11.2h0ZM498,232.1c.5-2.2,3-2.5,4.9-3.2.5,3.2.8,6.5,2.8,9.1-1,.1-2.1.2-3,.3-1.4,2.1-2.9,4.4-5.2,5.5-3.8,1.9-8.1,1.9-12.3,1.7,4.4-1.2,9.8-1.5,12.7-5.5,2-2.3-.1-5.3.1-7.9h0ZM585.5,235.3c.6-1.8,2.7-1.8,4.2-1.5,3.2.6,5.6,3.3,7.6,5.6,1.6,1.5,1.9,3.9.6,5.7-2.1,1.7-5.4.7-7.3,2.9-5.6,6.4-14.1,10.5-22.7,9.6,1.6-2.3,4.3-3.3,6.9-4.1,4.7-1.5,8.5-5.1,11.9-8.5-.9-3.1-2.3-6.4-1.3-9.7h0ZM587.7,236.6c.2,2,.7,4,1.4,5.8.9-1.5,1.6-3.1,2.1-4.7-1.2-.4-2.4-.8-3.5-1.1h0ZM594.4,239c-.7,1.6-1.2,3.2-1.6,4.8,1.3-.1,2.5-.3,3.8-.4-.2-1.5-.7-3.1-1.3-4.5-.2,0-.7.1-.9.1h0ZM366.4,238.7c2.2-2.1,6.1-1,7.5,1.5.7,1.4-.8,2.5-1.4,3.6-1.1-.8-2.3-1.4-3.6-1.9-1.2-.3-1.5,1-1.9,1.8-1.4,3.3-2.1,6.8-3.1,10.2-.6-2.1-1.5-4.1-2.7-6.1-1.4-2-3.7-3.1-5.4-4.7-1.6-1.3.1-4.2,2-3.9,2.7.3,4.3,2.8,6.1,4.5.7-1.8,1.2-3.7,2.4-5.2ZM227.2,257.9c2.3-3.7,5.6-6.7,9.6-8.5-1.1,2.7-2.5,5.2-4.2,7.6-1.2,1.8-1.2,3.9-1.3,5.8,2.7-.2,5.4-.5,8-1.1-.7,2.1-1.5,4.4-3.5,5.6-2.2,1.4-5.3,2.5-7.6.7-2.5-2.8-2.9-6.9-1-10.1h0ZM412,274.8c2-.3,4.3-1.2,6,.2,1.7,1.1,2.1,3.4,1,5.1,0,.1-.2.3-.3.4-2.4,1.3-5.6.6-7.6,2.4.3,2.9,2.5,5.2,3,7.9.1,1.8-1.3,3.2-2.1,4.6-.6-2.8-1-5.7-2.5-8.2-.9-1.8-2.3-3.5-1.9-5.6.5-2.3,2.9-3.4,4.6-4.5-.1-.8-.2-1.6-.2-2.4h0ZM500.8,278.2c.9-2.3,3.1-3.4,5.1-4.6-.8,1.9-2.2,3.7-2.4,5.8.9,1.7,2.4,2.9,3.2,4.6.2,2.9-3.9,3.3-5.4,1.5-1.7-2-1.5-5.1-.5-7.4h0ZM479.4,275c3.2-1.1,6.7,0,9.6,1.7-2.1,4.3-6.9,5.4-10.5,8,.1.6.2,1.2.2,1.8,2.5.1,5.2.4,7.4-.9,2.9-1.6,5.9-2.9,9.1-3.6-2.5,2.2-5,4.4-7.5,6.5-3,2.4-7.2,2.4-10.8,1.4-1.7-.5-3.9-2.1-3.4-4.3.9-2.8,3.7-4.2,5.9-5.8-1.6-.1-3.1-.2-4.7-.3,1.3-1.8,2.4-4,4.6-4.4h0ZM563.4,282.9c-.8-1.1-.5-2.5.5-3.3.3-.2.6-.4,1-.4,3.1-.6,5.8,2,7.2,4.5,2,3.6,2.1,7.9.2,11.6-.6-2.5-.6-5.2-1.9-7.5-1.7-2.3-5-2.8-7.1-4.8ZM615.8,284.5c4.3-1.5,8.6-3.5,13.2-3.1-.9,1.7-2.4,3.1-4.3,3.9-7.2,2.6-14.5,5.1-21.5,8-2.2,1-4.6,1.8-6.9,2.3-.2-.7-.6-1.3-.8-2,6.5-3.7,13.4-6.4,20.4-9.1h0ZM601.8,426h-35.7v-3.4c1.6-1.4,3.8-3.3,3.8-4.4,0-1.9-4.5-5.8-5.5-5.8s-5.5,4-5.5,5.8,2,2.9,3.6,4.3h.1v3.6h-281.3c10,9.9,24.9,9.8,54.7,10.1q26.6.4,226.6,0v3.6c-1.6,1.4-3.6,3.3-3.6,4.4,0,1.9,4.3,5.8,5.5,5.8s3.5-2.2,4.8-4.1h12.3c.8,1.4,2.6,2.2,4.8,2.2,1.9.1,3.7-.7,4.8-2.2h14.7c1.5,1.6,3.7,2.4,5.9,2.2,5.6-.2,6.9-3.1,6.9-13-.1-8.4-5.8-9.3-16.9-9.1h0ZM604.4,442.8h-13.1c-2.2-2.7-6.1-3.1-8.8-.9-.3.3-.6.6-.9.9h-12.1c-.9-1.2-2-2.2-3.2-3.1v-3.6h38.2c-.7,2.2-.8,4.5-.1,6.7Z"/>
</svg>