<?xml version="1.0" encoding="UTF-8"?>
<svg id="Calque_1" xmlns="http://www.w3.org/2000/svg" version="1.1" viewBox="0 0 4320 2880">
  <!-- Generator: Adobe Illustrator 29.4.0, SVG Export Plug-In . SVG Version: 2.1.0 Build 152)  -->
  <defs>
    <style>
      .st0 {
        fill: #fff;
      }
    </style>
  </defs>
  <rect width="4320" height="1440"/>
  <rect class="st0" y="1440" width="4320" height="1440"/>
  <path class="st0" d="M1481.7,720c0,299.1-242.4,541.5-541.5,541.5s-541.5-242.4-541.5-541.5S641.1,178.5,940.2,178.5s541.5,242.4,541.5,541.5Z"/>
  <path d="M1651.8,720c0,282.6-229.1,511.7-511.7,511.7s-511.7-229.1-511.7-511.7,229.1-511.7,511.7-511.7,511.7,229.1,511.7,511.7Z"/>
  <path id="star" class="st0" d="M1007.2,733.1l-73.6-56.4-73.5,56.5,28.3-91-73.8-56.1,91.1.2,27.9-91.1,28,91.1,91.1-.2-73.8,56.1,28.3,91Z"/>
  <path id="star1" data-name="star" class="st0" d="M1584.4,733.1l-73.6-56.4-73.5,56.5,28.3-91-73.8-56.1,91.1.2,27.9-91.1,28,91.1,91.1-.2-73.8,56.1,28.3,91Z"/>
  <path id="star2" data-name="star" class="st0" d="M1296.1,518.9l-73.6-56.4-73.5,56.5,28.3-91-73.8-56.1,91.1.2,27.9-91.1,28,91.1,91.1-.2-73.8,56.1,28.3,91Z"/>
  <path id="star3" data-name="star" class="st0" d="M1115.2,1075.8l-73.6-56.4-73.5,56.5,28.3-91-73.8-56.1,91.1.2,27.9-91.1,28,91.1,91.1-.2-73.8,56.1,28.3,91Z"/>
  <path id="star4" data-name="star" class="st0" d="M1476.4,1075.8l-73.6-56.4-73.5,56.5,28.3-91-73.8-56.1,91.1.2,27.9-91.1,28,91.1,91.1-.2-73.8,56.1,28.3,91Z"/>
</svg>