<?xml version="1.0" encoding="UTF-8"?>
<svg id="Calque_1" xmlns="http://www.w3.org/2000/svg" version="1.1" viewBox="0 0 60 30">
  <!-- Generator: Adobe Illustrator 29.4.0, SVG Export Plug-In . SVG Version: 2.1.0 Build 152)  -->
  <defs>
    <style>
      .st0 {
        fill: #fff;
      }
    </style>
  </defs>
  <g>
    <polygon points="25 9.1 25 0 6.7 0 25 9.1"/>
    <polygon points="46.7 10 60 10 60 3.4 46.7 10"/>
    <polygon points="0 20 0 26.6 13.3 20 0 20"/>
    <polygon points="25 30 25 20.9 6.7 30 25 30"/>
    <polygon points="35 30 53.3 30 35 20.9 35 30"/>
    <polygon points="60 26.6 60 20 46.7 20 60 26.6"/>
    <polygon points="0 3.4 0 10 13.3 10 0 3.4"/>
    <polygon points="35 0 35 9.1 53.3 0 35 0"/>
  </g>
  <g>
    <path class="st0" d="M60,0l-20,10h-4.5L55.5,0c-1.2-1.4-19.2,8.8-20.5,9.1V0h-2v12h27v-2h-13.3l13.3-6.6V0Z"/>
    <path class="st0" d="M25,9.1C23.6,8.7,5.7-1.4,4.5,0l20,10c-2.2,0-6.7,0-8.9,0,0,0-15.5-7.8-15.5-7.8v1.1l13.3,6.6H0v2h27V0h-2v9.1Z"/>
    <path class="st0" d="M33,18v12h2v-9.1c1.4.4,19.3,10.5,20.5,9.1l-20-10c2.2,0,6.7,0,8.9,0,0,0,15.5,7.8,15.5,7.8v-1.1l-13.3-6.6h13.3v-2h-27Z"/>
    <path class="st0" d="M0,18v2h13.3L0,26.6v1.1l15.5-7.8c2.2,0,6.7,0,8.9,0L4.5,30c1.2,1.4,19.2-8.8,20.5-9.1v9.1h2v-12H0Z"/>
  </g>
  <g>
    <polygon points="60 0 55.5 0 35.5 10 40 10 60 0"/>
    <polygon points="24.5 10 4.5 0 0 0 0 2.2 15.5 10 24.5 10"/>
    <path d="M15.5,20L0,27.8v2.2h4.5l20-10h-8.9Z"/>
    <polygon points="35.5 20 55.5 30 60 30 60 27.8 44.5 20 35.5 20"/>
    <path d="M33,12V0h-6v12H0v6h27v12h6v-12h27v-6h-27Z"/>
  </g>
</svg>