<?xml version="1.0" encoding="UTF-8"?>
<svg id="Calque_1" xmlns="http://www.w3.org/2000/svg" version="1.1" viewBox="0 0 81 54">
  <!-- Generator: Adobe Illustrator 29.4.0, SVG Export Plug-In . SVG Version: 2.1.0 Build 152)  -->
  <defs>
    <style>
      .st0 {
        fill: #fff;
      }
    </style>
  </defs>
  <path d="M0,0h81v54H0V0Z"/>
  <g>
    <g id="b">
      <path id="a" class="st0" d="M40.5,14l-4,12.4,6.2,2-2.2-14.4Z"/>
      <path id="a1" data-name="a" class="st0" d="M40.5,14l4,12.4-6.2,2,2.2-14.4Z"/>
    </g>
    <g id="b1" data-name="b">
      <path id="a2" data-name="a" class="st0" d="M52.9,23h-13s0,6.5,0,6.5l13-6.5Z"/>
      <path id="a3" data-name="a" class="st0" d="M52.9,23l-10.5,7.6-3.8-5.3,14.3-2.4Z"/>
    </g>
    <g id="b2" data-name="b">
      <path id="a4" data-name="a" class="st0" d="M28.1,23l10.5,7.6,3.8-5.3-14.3-2.4Z"/>
      <path id="a5" data-name="a" class="st0" d="M28.1,23h13s0,6.5,0,6.5l-13-6.5Z"/>
    </g>
    <g id="b3" data-name="b">
      <path id="a6" data-name="a" class="st0" d="M48.1,37.5l-4-12.4-6.2,2,10.2,10.4Z"/>
      <path id="a7" data-name="a" class="st0" d="M48.1,37.5l-10.5-7.6,3.8-5.3,6.7,12.9Z"/>
    </g>
    <g id="b4" data-name="b">
      <path id="a8" data-name="a" class="st0" d="M32.9,37.5l10.5-7.6-3.8-5.3-6.7,12.9Z"/>
      <path id="a9" data-name="a" class="st0" d="M32.9,37.5l4-12.4,6.2,2-10.2,10.4Z"/>
    </g>
  </g>
</svg>