<?xml version="1.0" encoding="UTF-8"?>
<svg id="Calque_1" xmlns="http://www.w3.org/2000/svg" version="1.1" viewBox="0 0 1400 700">
  <!-- Generator: Adobe Illustrator 29.4.0, SVG Export Plug-In . SVG Version: 2.1.0 Build 152)  -->
  <defs>
    <style>
      .st0 {
        fill: #fff;
      }
    </style>
  </defs>
  <path d="M0,0h1400v700H0V0Z"/>
  <path class="st0" d="M0,0h1400v500H0V0Z"/>
  <path d="M0,0h1400v200H0V0Z"/>
  <g>
    <path d="M672,340.7c3.5-6,11.1-8,17.1-4.5,3.7,2.2,6.1,6.1,6.2,10.4v50h9.4v-50c.2-6.9,6-12.3,12.9-12.1,4.3.1,8.3,2.5,10.4,6.2,5.1-15.5-3.2-32.2-18.7-37.3-15.5-5.1-32.2,3.2-37.3,18.7-2,6-2,12.5,0,18.6"/>
    <path d="M678.7,327.6c8.4-1.7,17,2.1,21.3,9.5,4.3-7.4,12.9-11.3,21.3-9.5-1.6-11.8-12.5-20-24.2-18.4-9.6,1.3-17.1,8.8-18.4,18.4"/>
    <g id="a">
      <path d="M695.3,376.6c-1.9,20.9-20.3,36.3-41.2,34.4-8.5-.8-16.4-4.3-22.6-10.1-8.1,20.3-31,30.2-51.3,22.1-3-1.2-5.8-2.7-8.4-4.6,3.7,36.4,58.3,29,62.3-6.4,17.2,30.1,54.9,21.5,65.9-15.4l-4.7-20Z"/>
    </g>
    <g id="a1" data-name="a">
      <path d="M704.7,376.6c1.9,20.9,20.3,36.3,41.2,34.4,8.5-.8,16.4-4.3,22.6-10.1,8.1,20.3,31,30.2,51.3,22.1,3-1.2,5.8-2.7,8.4-4.6-3.7,36.4-58.3,29-62.3-6.4-17.2,30.1-54.9,21.5-65.9-15.4l4.7-20Z"/>
    </g>
    <g id="b">
      <path d="M658.8,441.3c-7.6,16.4-22.8,19.3-36.2,6,0,0,5.4-3.8,11.1-4.8-1.1-4.6,1.1-10.9,4.2-14.3,3.3,2.2,7.8,6.7,9,11.9,8-1,11.9,1.3,11.9,1.3h0Z"/>
    </g>
    <g id="b1" data-name="b">
      <path d="M718.4,439.4c-10.2,15-25.7,15.3-36.7,0,0,0,5.9-2.9,11.7-3-.3-4.7,2.9-10.6,6.5-13.4,2.9,2.7,6.6,7.9,6.9,13.2,8.1.3,11.5,3.2,11.5,3.2h0Z"/>
    </g>
    <g id="b2" data-name="b">
      <path d="M777.5,447.3c-12.5,13.1-27.8,10.9-36.2-5.9,0,0,6.3-1.9,12-1,.5-4.7,4.6-10,8.6-12.2,2.4,3.2,5.2,8.8,4.7,14.1,7.9,1.6,10.8,5,10.8,5h0Z"/>
    </g>
    <path d="M794.7,485.7c-62-18.4-127.5-18.4-189.4,0l-4.6-15.3c65-19.3,133.6-19.3,198.6,0l-4.6,15.3Z"/>
    <g>
      <g id="c">
        <path d="M700,214.3l15.1,46.5-39.5-28.7h48.9l-39.5,28.7,15.1-46.5Z"/>
      </g>
      <g id="d">
        <g id="c1" data-name="c">
          <path d="M630,233.1l15.1,46.5-39.5-28.7h48.9l-39.5,28.7,15.1-46.5Z"/>
        </g>
        <g id="c2" data-name="c">
          <path d="M578.8,284.3l15.1,46.5-39.5-28.7h48.9l-39.5,28.7,15.1-46.5Z"/>
        </g>
        <g id="c3" data-name="c">
          <path d="M560,354.3l15.1,46.5-39.5-28.7h48.9l-39.5,28.7,15.1-46.5Z"/>
        </g>
      </g>
      <g id="d1" data-name="d">
        <g id="c4" data-name="c">
          <path d="M770,233.1l-15.1,46.5,39.5-28.7h-48.9l39.5,28.7-15.1-46.5Z"/>
        </g>
        <g id="c5" data-name="c">
          <path d="M821.2,284.3l-15.1,46.5,39.5-28.7h-48.9l39.5,28.7-15.1-46.5Z"/>
        </g>
        <g id="c6" data-name="c">
          <path d="M840,354.3l-15.1,46.5,39.5-28.7h-48.9l39.5,28.7-15.1-46.5Z"/>
        </g>
      </g>
    </g>
  </g>
</svg>