<?xml version="1.0" encoding="UTF-8"?>
<svg id="Calque_1" xmlns="http://www.w3.org/2000/svg" version="1.1" viewBox="0 0 945 630">
  <!-- Generator: Adobe Illustrator 29.4.0, SVG Export Plug-In . SVG Version: 2.1.0 Build 152)  -->
  <defs>
    <style>
      .st0, .st1, .st2 {
        stroke-width: 2.3px;
      }

      .st0, .st1, .st2, .st3 {
        stroke: #000;
        stroke-miterlimit: 75.6;
      }

      .st0, .st4, .st2 {
        fill: #fff;
      }

      .st1 {
        fill: none;
      }

      .st2, .st3 {
        stroke-linecap: square;
      }

      .st3 {
        stroke-width: 1.1px;
      }
    </style>
  </defs>
  <path class="st4" d="M0,0h945v630H0V0Z"/>
  <path d="M350,70h595v70H350v-70ZM350,210h595v70H350v-70ZM0,350h945v70H0v-70ZM0,490h945v70H0v-70Z"/>
  <g>
    <g>
      <g>
        <path class="st2" d="M167.1,209.2l11.6,17.3c-47.6,34.5-18.5,54.8-52.3,65.9,21-20.5-2.8-23.6,14.9-66.3"/>
        <g>
          <path class="st2" d="M145.2,193.6l-4,20.4c-58-9.3-51.9,25.7-83.5,9.6,29.3.4,15.4-18.9,58.1-36.6"/>
          <path class="st3" d="M145.2,193.6l-9.1-1.6v.4c-24.3,6-37.5,16.1-47.9,23.8-5.2,3.8-9.7,7.1-14.5,8.9-3.2,1.2-6.7,1.6-10.1,1.2,25.2,8.9,23.5-20.8,77.6-12.2l4-20.4Z"/>
          <path class="st1" d="M135.9,191.2c-49.2,12-53.8,41.1-78.3,32.4"/>
        </g>
        <path class="st0" d="M175,175l-16.3-16.3-73.5,106.2,106.2-73.5-16.3-16.3-89.8,89.8"/>
        <g>
          <path class="st2" d="M140.8,167.1l-17.3,11.6c-34.5-47.6-54.8-18.5-65.9-52.3,20.5,21,23.8-2.7,66.5,14.9"/>
          <path class="st3" d="M140.8,167.1l-5.3-7.6-.2.3c-21.5-13-38-15.2-50.8-17.1-6.4-1-11.9-1.8-16.5-4-3.1-1.4-5.9-3.6-8-6.3,11.5,24.1,31.4,1.9,63.5,46.3l17.3-11.6Z"/>
          <path class="st1" d="M135.9,158.8c-43.3-26.3-67.1-9-78.3-32.4"/>
          <path class="st0" d="M175,175v-23.1l-127,23.1,127,23.1v-23.1H48"/>
          <path d="M175,175v23.1-23.1H48l127,23.1"/>
          <path class="st2" d="M156.4,145.2l-20.4-4c9.3-58-25.7-51.9-9.6-83.5-.4,29.3,19.9,17.8,37.6,60.4"/>
          <path class="st3" d="M156.4,145.2l1.6-9.1h-.4c-6-24.3-16.1-37.5-23.8-47.9-3.8-5.2-7.1-9.7-8.9-14.5-1.2-3.2-1.6-6.7-1.2-10.1-8.9,25.2,20.8,23.5,12.2,77.6l20.4,4Z"/>
          <path class="st1" d="M158.8,135.9c-12-49.2-41.1-53.8-32.4-78.3"/>
          <path class="st0" d="M175,175l16.3-16.3-106.2-73.5,73.5,106.2,16.3-16.3-89.8-89.8"/>
          <path d="M175,175l-16.3,16.3,16.3-16.3-89.8-89.8,73.5,106.2"/>
          <path class="st2" d="M182.9,140.8l-11.6-17.3c47.6-34.5,18.5-54.8,52.3-65.9-21,20.5,2.7,23.9-15,66.5"/>
          <path class="st3" d="M182.9,140.8l7.6-5.3-.3-.2c13-21.5,15.2-38,17.1-50.8,1-6.4,1.8-11.9,4-16.5,1.4-3.1,3.6-5.8,6.3-8-24.1,11.5-1.9,31.4-46.3,63.5l11.6,17.3Z"/>
          <path class="st1" d="M191.2,135.9c26.3-43.3,9-67.1,32.4-78.3"/>
          <path class="st0" d="M175,175h23.1l-23.1-127-23.1,127h23.1V47.9"/>
          <path d="M175,175h-23.1,23.1V47.9l-23.1,127"/>
          <path class="st2" d="M204.8,156.4l4-20.4c58,9.3,51.9-25.7,83.5-9.6-29.3-.4-16.3,19-58.9,36.7"/>
          <path class="st3" d="M204.8,156.4l9.1,1.6v-.4c24.3-6,37.5-16.1,47.9-23.8,5.2-3.8,9.7-7.1,14.5-8.9,3.2-1.2,6.7-1.6,10.1-1.2-25.2-8.9-23.5,20.8-77.6,12.2l-4,20.4Z"/>
          <path class="st1" d="M214.1,158.8c49.2-12,53.8-41.1,78.3-32.4"/>
          <path class="st0" d="M175,175l16.3,16.3,73.5-106.2-106.2,73.5,16.3,16.3,89.8-89.8"/>
          <path d="M175,175l-16.3-16.3,16.3,16.3,89.8-89.8-106.2,73.5"/>
          <path class="st2" d="M209.2,182.9l17.3-11.6c34.5,47.6,54.8,18.5,65.9,52.3-20.5-21-24.3,2.5-67-15.2"/>
          <path class="st3" d="M209.2,182.9l5.3,7.6.2-.3c21.5,13,38,15.2,50.8,17.1,6.4,1,11.9,1.8,16.5,4,3.1,1.4,5.9,3.6,8,6.3-11.5-24.1-31.4-1.9-63.5-46.3l-17.3,11.6Z"/>
          <path class="st1" d="M214.1,191.2c43.3,26.3,67.1,9,78.3,32.4"/>
          <path class="st0" d="M175,175v23.1l127-23.1-127-23.1v23.1h127"/>
          <path d="M175,175v-23.1,23.1h127l-127-23.1"/>
          <path class="st2" d="M193.6,204.8l20.4,4c-9.3,58,25.7,51.9,9.6,83.5.4-29.3-19-15.7-36.6-58.4"/>
          <path class="st3" d="M193.6,204.8l-1.6,9.1h.4c6,24.3,16.1,37.5,23.8,47.9,3.8,5.2,7.1,9.7,8.9,14.5,1.2,3.2,1.6,6.7,1.2,10.1,8.9-25.2-20.8-23.5-12.2-77.6l-20.4-4Z"/>
          <path class="st1" d="M191.2,214.1c12,49.2,41,53.8,32.4,78.3"/>
          <path class="st0" d="M175,175l-16.3,16.3,106.2,73.5-73.5-106.2-16.3,16.3,89.8,89.8"/>
          <path d="M175,175l16.3-16.3-16.3,16.3,89.8,89.8-73.5-106.2"/>
        </g>
      </g>
      <path class="st3" d="M167.1,209.2l-7.6,5.3.3.2c-13,21.5-15.2,38-17.1,50.8-1,6.4-1.8,11.9-4,16.5-1.4,3.1-3.6,5.9-6.3,8,24.1-11.5,1.9-31.4,46.3-63.5l-11.6-17.3Z"/>
      <g>
        <path class="st1" d="M158.8,214.1c-26.3,43.3-9,67.1-32.4,78.3"/>
        <path class="st0" d="M175,175h-23.1l23.1,127.1,23.1-127.1h-23.1v127.1"/>
      </g>
    </g>
    <path d="M175,175h23.1-23.1v127.1l23.1-127.1"/>
    <path d="M175,175l16.3,16.3-16.3-16.3-89.8,89.8,106.2-73.5"/>
    <circle class="st0" cx="175" cy="175" r="42.3"/>
    <g>
      <path d="M206.2,158.1c-2.7,3.1-4.2-2.3-13.9-2.3s-11.2,5.8-12.7,4.6c-1.5-1.2,8.1-8.1,11.2-8.5,3.1-.4,11.9,2.7,15.4,6.2M195,161.5c2.7,2.3.4,7.3-2.3,7.3s-7.7-4.6-5.4-7.7"/>
      <path d="M182.3,165c.4-4.6,4.2-5.4,10.4-5.4s8.9,4.6,11.2,5.8c-2.7,0-5-3.9-11.2-3.9s-6.2,0-10.4,3.9M183.5,166.1c1.5-2.3,3.5,2.3,7.7,2.3s6.5-1.2,9.2-3.1c2.7-1.9-3.9,4.6-8.1,4.6s-10-2.3-8.9-3.9M153.4,161.1c-1.9.8-5,4.6,0,7.3-3.9-2.7-.8-6.5,0-7.3Z"/>
      <path d="M196.6,161.1c.8.8,3.8,4.6,0,7.3,5-2.7,1.9-6.5,0-7.3ZM168.8,177.7c-3.5.8-2.3,5.8-5.4,6.2s-4.6,3.9-4.2,3.5c1.9-1.5,6.2-2.7,9.2-2.7s3.9,1.9,6.5,1.9,3.5-1.9,6.5-1.9,7.3,1.2,9.2,2.7c.4.4-1.2-3.1-4.2-3.5-3.1-.4-1.9-5.4-5.4-6.2,0,1.5,1.2,1.2,1.5,3.5,0,1.9-3.5,1.9-4.2,0,.8,3.1-1.5,3.1-3.5,3.1s-4.2,0-3.5-3.1c-.8,1.9-4.2,1.9-4.2,0,.4-2.3,1.5-1.9,1.5-3.5ZM156.9,190.8c-3.1,2.3-3.8,3.5-4.2,6.2.9-1.6,1.4-2.3,2.1-3.2l-.5-.2c.2,0,.4,0,.6,0,.5-.6.9-1.2,2-2.8h0Z"/>
      <path d="M154.9,193.6h0c.5.2,1,.2,1.5.2-.5,0-1-.2-1.5-.2h0ZM156.3,193.8c2.4.4,4.3,1,6,1.5,2.2-.2,5.1-.7,12.7-.7s10.5.5,12.7.7c1.7-.6,3.6-1.1,6-1.5-4.2,0-9.9-3-12.5-3s-3.8.8-6.2.8-3.1-.8-6.2-.8-8.3,3-12.5,3h0ZM193.7,193.8c.5,0,1.1,0,1.5-.2h0c-.5,0-1,0-1.5.2h0Z"/>
      <path d="M195.1,193.6c.2,0,.4,0,.6,0-.2,0-.4.2-.5.2.7.9,1.2,1.6,2.1,3.2-.4-2.7-1.2-3.9-4.2-6.2,1.2,1.6,1.6,2.2,2.1,2.8h0Z"/>
      <path d="M195.3,193.7s0,0,0,0c-4,1.5-5.4,1.8-7.6,1.7-3.7,1.2-6.7,2.4-12.7,2.4s-9-1.2-12.7-2.4c-2.1.2-3.6-.1-7.6-1.7,0,0,0,0,0,0,12.1,5.2,10.8,7.1,20.3,7.1s8.2-1.9,20.3-7.1h0ZM154.8,193.7s0,0,0,0c-.2,0-.4,0-.6-.2.2,0,.4.1.6.2h0ZM195.2,193.7c.2,0,.3-.1.6-.2-.2,0-.4.1-.6.2,0,0,0,0,0,0h0ZM143.8,158.1c2.7,3.1,4.2-2.3,13.9-2.3s11.2,5.8,12.7,4.6-8.1-8.1-11.2-8.5-11.9,2.7-15.4,6.2M155,161.5c-2.7,2.3-.4,7.3,2.3,7.3s7.7-4.6,5.4-7.7"/>
      <path d="M167.7,165c-.4-4.6-4.2-5.4-10.4-5.4s-8.9,4.6-11.2,5.8c2.7,0,5-3.9,11.2-3.9s6.2,0,10.4,3.9M166.5,166.1c-1.5-2.3-3.5,2.3-7.7,2.3s-6.5-1.2-9.2-3.1,3.9,4.6,8.1,4.6,10-2.3,8.9-3.9M175,204.3c-1.9,0-6.9,1.2,0,1.2s1.9-1.2,0-1.2"/>
    </g>
  </g>
</svg>