<?xml version="1.0" encoding="UTF-8"?>
<svg id="Calque_1" xmlns="http://www.w3.org/2000/svg" version="1.1" viewBox="0 0 7410 3900">
  <!-- Generator: Adobe Illustrator 29.4.0, SVG Export Plug-In . SVG Version: 2.1.0 Build 152)  -->
  <defs>
    <style>
      .st0 {
        stroke: #fff;
        stroke-width: 300px;
      }

      .st1 {
        fill: #fff;
      }
    </style>
  </defs>
  <path d="M0,0h7410v3900H0V0Z"/>
  <path class="st0" d="M0,450h7410M7410,1050H0M0,1650h7410M7410,2250H0M0,2850h7410M7410,3450H0"/>
  <path d="M0,0h2964v2100H0V0Z"/>
  <g>
    <g id="d">
      <g id="c">
        <g id="e">
          <g id="b">
            <path id="a" class="st1" d="M247,90l70.5,217.1-184.7-134.2h228.3l-184.7,134.2,70.5-217.1Z"/>
            <path id="a1" data-name="a" class="st1" d="M247,510l70.5,217.1-184.7-134.2h228.3l-184.7,134.2,70.5-217.1Z"/>
            <path id="a2" data-name="a" class="st1" d="M247,930l70.5,217.1-184.7-134.2h228.3l-184.7,134.2,70.5-217.1Z"/>
            <path id="a3" data-name="a" class="st1" d="M247,1350l70.5,217.1-184.7-134.2h228.3l-184.7,134.2,70.5-217.1Z"/>
          </g>
          <path id="a4" data-name="a" class="st1" d="M247,1770l70.5,217.1-184.7-134.2h228.3l-184.7,134.2,70.5-217.1Z"/>
        </g>
        <g id="b1" data-name="b">
          <path id="a5" data-name="a" class="st1" d="M494,300l70.5,217.1-184.7-134.2h228.3l-184.7,134.2,70.5-217.1Z"/>
          <path id="a6" data-name="a" class="st1" d="M494,720l70.5,217.1-184.7-134.2h228.3l-184.7,134.2,70.5-217.1Z"/>
          <path id="a7" data-name="a" class="st1" d="M494,1140l70.5,217.1-184.7-134.2h228.3l-184.7,134.2,70.5-217.1Z"/>
          <path id="a8" data-name="a" class="st1" d="M494,1560l70.5,217.1-184.7-134.2h228.3l-184.7,134.2,70.5-217.1Z"/>
        </g>
      </g>
      <g id="c1" data-name="c">
        <g id="e1" data-name="e">
          <g id="b2" data-name="b">
            <path id="a9" data-name="a" class="st1" d="M741,90l70.5,217.1-184.7-134.2h228.3l-184.7,134.2,70.5-217.1Z"/>
            <path id="a10" data-name="a" class="st1" d="M741,510l70.5,217.1-184.7-134.2h228.3l-184.7,134.2,70.5-217.1Z"/>
            <path id="a11" data-name="a" class="st1" d="M741,930l70.5,217.1-184.7-134.2h228.3l-184.7,134.2,70.5-217.1Z"/>
            <path id="a12" data-name="a" class="st1" d="M741,1350l70.5,217.1-184.7-134.2h228.3l-184.7,134.2,70.5-217.1Z"/>
          </g>
          <path id="a13" data-name="a" class="st1" d="M741,1770l70.5,217.1-184.7-134.2h228.3l-184.7,134.2,70.5-217.1Z"/>
        </g>
        <g id="b3" data-name="b">
          <path id="a14" data-name="a" class="st1" d="M988,300l70.5,217.1-184.7-134.2h228.3l-184.7,134.2,70.5-217.1Z"/>
          <path id="a15" data-name="a" class="st1" d="M988,720l70.5,217.1-184.7-134.2h228.3l-184.7,134.2,70.5-217.1Z"/>
          <path id="a16" data-name="a" class="st1" d="M988,1140l70.5,217.1-184.7-134.2h228.3l-184.7,134.2,70.5-217.1Z"/>
          <path id="a17" data-name="a" class="st1" d="M988,1560l70.5,217.1-184.7-134.2h228.3l-184.7,134.2,70.5-217.1Z"/>
        </g>
      </g>
    </g>
    <g id="d1" data-name="d">
      <g id="c2" data-name="c">
        <g id="e2" data-name="e">
          <g id="b4" data-name="b">
            <path id="a18" data-name="a" class="st1" d="M1235,90l70.5,217.1-184.7-134.2h228.3l-184.7,134.2,70.5-217.1Z"/>
            <path id="a19" data-name="a" class="st1" d="M1235,510l70.5,217.1-184.7-134.2h228.3l-184.7,134.2,70.5-217.1Z"/>
            <path id="a20" data-name="a" class="st1" d="M1235,930l70.5,217.1-184.7-134.2h228.3l-184.7,134.2,70.5-217.1Z"/>
            <path id="a21" data-name="a" class="st1" d="M1235,1350l70.5,217.1-184.7-134.2h228.3l-184.7,134.2,70.5-217.1Z"/>
          </g>
          <path id="a22" data-name="a" class="st1" d="M1235,1770l70.5,217.1-184.7-134.2h228.3l-184.7,134.2,70.5-217.1Z"/>
        </g>
        <g id="b5" data-name="b">
          <path id="a23" data-name="a" class="st1" d="M1482,300l70.5,217.1-184.7-134.2h228.3l-184.7,134.2,70.5-217.1Z"/>
          <path id="a24" data-name="a" class="st1" d="M1482,720l70.5,217.1-184.7-134.2h228.3l-184.7,134.2,70.5-217.1Z"/>
          <path id="a25" data-name="a" class="st1" d="M1482,1140l70.5,217.1-184.7-134.2h228.3l-184.7,134.2,70.5-217.1Z"/>
          <path id="a26" data-name="a" class="st1" d="M1482,1560l70.5,217.1-184.7-134.2h228.3l-184.7,134.2,70.5-217.1Z"/>
        </g>
      </g>
      <g id="c3" data-name="c">
        <g id="e3" data-name="e">
          <g id="b6" data-name="b">
            <path id="a27" data-name="a" class="st1" d="M1729,90l70.5,217.1-184.7-134.2h228.3l-184.7,134.2,70.5-217.1Z"/>
            <path id="a28" data-name="a" class="st1" d="M1729,510l70.5,217.1-184.7-134.2h228.3l-184.7,134.2,70.5-217.1Z"/>
            <path id="a29" data-name="a" class="st1" d="M1729,930l70.5,217.1-184.7-134.2h228.3l-184.7,134.2,70.5-217.1Z"/>
            <path id="a30" data-name="a" class="st1" d="M1729,1350l70.5,217.1-184.7-134.2h228.3l-184.7,134.2,70.5-217.1Z"/>
          </g>
          <path id="a31" data-name="a" class="st1" d="M1729,1770l70.5,217.1-184.7-134.2h228.3l-184.7,134.2,70.5-217.1Z"/>
        </g>
        <g id="b7" data-name="b">
          <path id="a32" data-name="a" class="st1" d="M1976,300l70.5,217.1-184.7-134.2h228.3l-184.7,134.2,70.5-217.1Z"/>
          <path id="a33" data-name="a" class="st1" d="M1976,720l70.5,217.1-184.7-134.2h228.3l-184.7,134.2,70.5-217.1Z"/>
          <path id="a34" data-name="a" class="st1" d="M1976,1140l70.5,217.1-184.7-134.2h228.3l-184.7,134.2,70.5-217.1Z"/>
          <path id="a35" data-name="a" class="st1" d="M1976,1560l70.5,217.1-184.7-134.2h228.3l-184.7,134.2,70.5-217.1Z"/>
        </g>
      </g>
    </g>
    <g id="c4" data-name="c">
      <g id="e4" data-name="e">
        <g id="b8" data-name="b">
          <path id="a36" data-name="a" class="st1" d="M2223,90l70.5,217.1-184.7-134.2h228.3l-184.7,134.2,70.5-217.1Z"/>
          <path id="a37" data-name="a" class="st1" d="M2223,510l70.5,217.1-184.7-134.2h228.3l-184.7,134.2,70.5-217.1Z"/>
          <path id="a38" data-name="a" class="st1" d="M2223,930l70.5,217.1-184.7-134.2h228.3l-184.7,134.2,70.5-217.1Z"/>
          <path id="a39" data-name="a" class="st1" d="M2223,1350l70.5,217.1-184.7-134.2h228.3l-184.7,134.2,70.5-217.1Z"/>
        </g>
        <path id="a40" data-name="a" class="st1" d="M2223,1770l70.5,217.1-184.7-134.2h228.3l-184.7,134.2,70.5-217.1Z"/>
      </g>
      <g id="b9" data-name="b">
        <path id="a41" data-name="a" class="st1" d="M2470,300l70.5,217.1-184.7-134.2h228.3l-184.7,134.2,70.5-217.1Z"/>
        <path id="a42" data-name="a" class="st1" d="M2470,720l70.5,217.1-184.7-134.2h228.3l-184.7,134.2,70.5-217.1Z"/>
        <path id="a43" data-name="a" class="st1" d="M2470,1140l70.5,217.1-184.7-134.2h228.3l-184.7,134.2,70.5-217.1Z"/>
        <path id="a44" data-name="a" class="st1" d="M2470,1560l70.5,217.1-184.7-134.2h228.3l-184.7,134.2,70.5-217.1Z"/>
      </g>
    </g>
    <g id="e5" data-name="e">
      <g id="b10" data-name="b">
        <path id="a45" data-name="a" class="st1" d="M2717,90l70.5,217.1-184.7-134.2h228.3l-184.7,134.2,70.5-217.1Z"/>
        <path id="a46" data-name="a" class="st1" d="M2717,510l70.5,217.1-184.7-134.2h228.3l-184.7,134.2,70.5-217.1Z"/>
        <path id="a47" data-name="a" class="st1" d="M2717,930l70.5,217.1-184.7-134.2h228.3l-184.7,134.2,70.5-217.1Z"/>
        <path id="a48" data-name="a" class="st1" d="M2717,1350l70.5,217.1-184.7-134.2h228.3l-184.7,134.2,70.5-217.1Z"/>
      </g>
      <path id="a49" data-name="a" class="st1" d="M2717,1770l70.5,217.1-184.7-134.2h228.3l-184.7,134.2,70.5-217.1Z"/>
    </g>
  </g>
</svg>